<svg xmlns="http://www.w3.org/2000/svg" xmlns:xlink="http://www.w3.org/1999/xlink" width="33.896" height="45.588" viewBox="0 0 33.896 45.588">
  <defs>
    <linearGradient id="linear-gradient" x1="0.535" y1="0.243" x2="0.47" y2="0.882" gradientUnits="objectBoundingBox">
      <stop offset="0" stop-color="#f6d3b5"/>
      <stop offset="1" stop-color="#f6bb9e"/>
    </linearGradient>
    <linearGradient id="linear-gradient-2" x1="2024.108" y1="-399.784" x2="516.707" y2="-101.576" xlink:href="#linear-gradient"/>
    <linearGradient id="linear-gradient-3" x1="0.506" y1="0.089" x2="0.414" y2="0.736" xlink:href="#linear-gradient"/>
    <linearGradient id="linear-gradient-4" x1="-117.966" y1="28.606" x2="-117.377" y2="29.267" gradientUnits="objectBoundingBox">
      <stop offset="0.01" stop-color="#8d5d3a"/>
      <stop offset="0.995" stop-color="#844631"/>
    </linearGradient>
    <linearGradient id="linear-gradient-5" x1="-118.058" y1="61.705" x2="-117.674" y2="62.643" xlink:href="#linear-gradient-4"/>
    <linearGradient id="linear-gradient-6" x1="-238.905" y1="58.462" x2="-238.355" y2="59.088" xlink:href="#linear-gradient-4"/>
    <linearGradient id="linear-gradient-7" x1="0.5" y1="0.048" x2="0.5" y2="1.041" xlink:href="#linear-gradient"/>
    <linearGradient id="linear-gradient-8" x1="-260.702" y1="9.604" x2="-259.699" y2="9.604" xlink:href="#linear-gradient"/>
    <linearGradient id="linear-gradient-9" x1="-334.884" y1="11.786" x2="-333.883" y2="11.786" xlink:href="#linear-gradient"/>
    <linearGradient id="linear-gradient-10" x1="-361.377" y1="11.64" x2="-360.375" y2="11.64" xlink:href="#linear-gradient"/>
    <linearGradient id="linear-gradient-11" x1="-444.724" y1="10.934" x2="-443.723" y2="10.934" xlink:href="#linear-gradient"/>
    <linearGradient id="linear-gradient-12" x1="-563.381" y1="16.464" x2="-562.381" y2="16.464" xlink:href="#linear-gradient"/>
    <linearGradient id="linear-gradient-14" x1="-291.661" y1="-9.232" x2="-290.651" y2="-9.232" xlink:href="#linear-gradient"/>
    <linearGradient id="linear-gradient-15" x1="-487.693" y1="-10.62" x2="-486.687" y2="-10.62" xlink:href="#linear-gradient"/>
    <linearGradient id="linear-gradient-16" x1="-370.963" y1="-7.471" x2="-369.979" y2="-7.471" xlink:href="#linear-gradient"/>
    <linearGradient id="linear-gradient-17" x1="-494.553" y1="-10.358" x2="-493.58" y2="-10.358" xlink:href="#linear-gradient"/>
    <linearGradient id="linear-gradient-18" x1="-562.636" y1="-10.223" x2="-561.674" y2="-10.223" xlink:href="#linear-gradient"/>
  </defs>
  <g id="Group_156" data-name="Group 156" transform="translate(-458.693 -17.485)">
    <g id="Group_143" data-name="Group 143" transform="translate(465.97 18.573)">
      <path id="Path_876" data-name="Path 876" d="M489.339,29.783a2.462,2.462,0,0,1-1.556,1.464,5.645,5.645,0,0,1-1.1.333,6.2,6.2,0,0,1-1.518,2.184,5.669,5.669,0,0,1-3.98,1.518,5.417,5.417,0,0,1-3.846-1.561,7.476,7.476,0,0,1-1.761-2.68,3.212,3.212,0,0,1-.569.021c-2.4-.128-2.262-3.2-1.658-3.435a1.135,1.135,0,0,1,.27-.068,2.21,2.21,0,0,1,1.168.248,14.254,14.254,0,0,1,.1-1.779,11.247,11.247,0,0,1,.766-3.109c.935-2.156,4.521-3.385,5.834-3.3a6.126,6.126,0,0,1,5.235,3.87,12.938,12.938,0,0,1,.444,2.245,24.839,24.839,0,0,1,.167,2.894s.9-1.006,1.437-.862a.881.881,0,0,1,.689.775A3.046,3.046,0,0,1,489.339,29.783Z" transform="translate(-472.973 -19.619)" fill="url(#linear-gradient)"/>
      <path id="Path_877" data-name="Path 877" d="M490.071,34.434a14.113,14.113,0,0,0-1.669,2.7,5.645,5.645,0,0,1-1.1.333,6.2,6.2,0,0,1-1.518,2.184,5.669,5.669,0,0,1-3.98,1.518,5.417,5.417,0,0,1-3.846-1.561,7.476,7.476,0,0,1-1.761-2.68,3.212,3.212,0,0,1-.569.021,8.455,8.455,0,0,0-1.388-3.5,2.21,2.21,0,0,1,1.168.248,14.25,14.25,0,0,1,.1-1.779c.4,1.441,1.611,4.373,5.259,4.354,3.972-.023,6.629-1.735,7.021-4.644a24.839,24.839,0,0,1,.167,2.894s.9-1.006,1.437-.862A.881.881,0,0,1,490.071,34.434Z" transform="translate(-473.592 -25.507)" fill="#ed805a" opacity="0.1" style="mix-blend-mode: multiply;isolation: isolate"/>
      <path id="Path_878" data-name="Path 878" d="M489.277,21.155a1.082,1.082,0,0,0,0,1.821c.91.623,2.636.288,2.683-.479A1.883,1.883,0,0,0,489.277,21.155Z" transform="translate(-480.722 -20.287)" fill="#f79c7c" opacity="0.2" style="mix-blend-mode: color-dodge;isolation: isolate"/>
    </g>
    <path id="Path_879" data-name="Path 879" d="M470.143,102.006a.536.536,0,0,0,0,.074C470.145,102.037,470.143,102.006,470.143,102.006Z" transform="translate(-5.614 -41.446)" fill="url(#linear-gradient-2)"/>
    <path id="Path_880" data-name="Path 880" d="M492.589,46.307c.023.265-.273.652-.891,1.064a4.022,4.022,0,0,1-1.525.5s-1.367,1.383-2.4,2.32a4.192,4.192,0,0,1-4.144,1.267,11.08,11.08,0,0,1-3.162-1.748,3,3,0,0,0-.276.93c-.1.453-.2.948-.242,1.179-.007.035-.011.062-.016.081a.484.484,0,0,1-.007.05,39.773,39.773,0,0,1,1.114,4.636,7.523,7.523,0,0,1,1.328,2s.005,0,.005.008a24.332,24.332,0,0,1,2.144,6.734,15.519,15.519,0,0,1-.814,5.489,9.277,9.277,0,0,1,.956.791c.576.526,1.2,1.1,1.2,1.1.534.122.818.264.8.407-.008.05-.049.1-.138.146a1.182,1.182,0,0,1-.746.008c-.046-.012-.081-.019-.1-.027.1.038.454.135.392.246a.077.077,0,0,1-.023.028c-.127.111-.454.042-.6.008a.523.523,0,0,1,.146.069c.05.035.077.077.035.126,0,0,0,.008-.008.012a.57.57,0,0,1-.607,0,13.558,13.558,0,0,1-1.487-.431.067.067,0,0,1-.03-.015,5.838,5.838,0,0,1-1.161-.668s0,0,0,0a2.071,2.071,0,0,1-.78-.933,1.681,1.681,0,0,1,.146-1.149s-.049-.073-.134-.2a9.889,9.889,0,0,1-.827-1.663,5.976,5.976,0,0,1-.277-1.091,10.988,10.988,0,0,1-.13-1.544,8.105,8.105,0,0,1-1.991-1.248,3.058,3.058,0,0,1-1.245-1.775,4.7,4.7,0,0,1-1.49-.073c-.092-.019-.188-.042-.281-.069a3.984,3.984,0,0,1-1.678-1.245s-.242.293-.3.346a2.773,2.773,0,0,1-.341.257c-.074.046-.154.1-.251.146a5.955,5.955,0,0,1-1.793.591,5.288,5.288,0,0,1-3.227-.422,17.953,17.953,0,0,1,.142,2.263,3.655,3.655,0,0,1-.488,1.694,5.4,5.4,0,0,1-.4.607,1.116,1.116,0,0,1-.069.088s.112.108.092.737A26.885,26.885,0,0,1,466.345,71c-.17.5-.327.841-.719.88a.458.458,0,0,1-.484-.354c.008.042.042.346-.288.281a.426.426,0,0,1-.326-.431c0,.13-.047.361-.289.215a.371.371,0,0,1-.13-.515c-.035.05-.226.3-.388.119a.523.523,0,0,1-.081-.476c-.072.2-.246.2-.323.072a.287.287,0,0,1-.031-.061c-.054-.2.165-.45.165-.45-.019-.2.054-.415.357-.937a8.467,8.467,0,0,0,.676-1.878A21.129,21.129,0,0,1,463,61.691a9.789,9.789,0,0,1,.1-3.634,2.573,2.573,0,0,1,2.017-1.9,2.264,2.264,0,0,1,.422-.081c1.552-.176,2.485,1.138,2.485.907,0-.253.684-.826.684-.826s.146-1.475.254-2.95a22.827,22.827,0,0,1,.373-2.581c.042-.208.077-.369.1-.477.02-.089.032-.138.032-.138a11.043,11.043,0,0,1-2.912.249,8.532,8.532,0,0,1-3.145-.538s0,.18-.27.108-.18-.4-.18-.4a10.178,10.178,0,0,1-2.535-4.851,2.18,2.18,0,0,1-.894-1.744c-.723-.718-.919-1.275-.815-1.448v0a.123.123,0,0,1,.131-.058,3.532,3.532,0,0,1,1.01.615h0c.045.039.073.062.08.065-.395-.8-.46-1.947-.173-2a.076.076,0,0,1,.031,0c.269.016.8,1.08.968,1.445l0,0c.035.069.053.115.053.115-.1-.707.189-2.182.469-2.167a.061.061,0,0,1,.035.012c.2.1.376,1.079.472,1.682,0,0,0,0,0,.008l.065.465c-.035-.734.411-1.871.63-1.813a.183.183,0,0,1,.077.039c.135.111.119.449.119,1.256a5.025,5.025,0,0,0,.1,1.183c.015.05.023.073.023.073.58-.891,1-1,1.175-.837a.427.427,0,0,1,.065.461,12.9,12.9,0,0,1-.883,1.617,2.215,2.215,0,0,0,.792,1.437c.521.358,1.082.757,1.321.922.073.054.12.085.12.085a7.916,7.916,0,0,1,2.188-1.294,3.946,3.946,0,0,1,1.068-.972,2.39,2.39,0,0,1,1.662-.3,5.428,5.428,0,0,0,3.845,1.559,5.65,5.65,0,0,0,3.981-1.517c1.775-.906,2.973.734,3.918,1.794.9,1.014,2.209,2.327,2.359,2.477l.012.011c.26-.883,1.029-.957,2.108-1.245.146-.042.3-.077.442-.107.457-.1.895-.173,1.213-.216s.526-.062.526-.062a1.221,1.221,0,0,0-.05-.311c-.046-.169-.215-1.24.069-1.294h0c.23-.038.568.849.7,1.2v.012c.026.08.046.13.046.13s.648-2.251.968-2.251h.015c.3.069-.061,1.452-.092,1.575.008-.015.023-.038.039-.069h0c.193-.327.96-1.579,1.294-1.433a.14.14,0,0,1,.034.023c.273.265-.7,2.032-.748,2.128.008-.007.027-.03.058-.065v0c.215-.238.914-.991,1.163-.81a.165.165,0,0,1,.046.046c.218.35-.653,1.517-.787,1.694,0,0,0,0,0,0a.019.019,0,0,1-.008.015c.062-.05,1.029-.7,1.1-.45A.5.5,0,0,1,492.589,46.307Z" transform="translate(-0.001 -10.746)" fill="url(#linear-gradient-3)"/>
    <path id="Path_881" data-name="Path 881" d="M479.346,69.981a2.112,2.112,0,0,1,2.264-.862A2.772,2.772,0,0,1,483.3,70.88s-.574-2.228-1.941-2.264A2.372,2.372,0,0,0,479.346,69.981Z" transform="translate(-10.128 -25.072)" fill="#ed805a" opacity="0.2" style="mix-blend-mode: multiply;isolation: isolate"/>
    <path id="Path_882" data-name="Path 882" d="M470.655,54.089s.24.647-.262.911a.622.622,0,0,0,.694-.288C471.278,54.305,470.655,54.089,470.655,54.089Z" transform="translate(-5.737 -17.949)" fill="#ed805a" opacity="0.2" style="mix-blend-mode: multiply;isolation: isolate"/>
    <g id="Group_144" data-name="Group 144" transform="translate(458.693 28.656)">
      <path id="Path_883" data-name="Path 883" d="M471.155,50.876a4.626,4.626,0,0,1-1.715,1.193c.019-.089.031-.139.031-.139a10.951,10.951,0,0,1-2.912.251,8.58,8.58,0,0,1-3.142-.539s0,.179-.271.108-.179-.4-.179-.4a10.149,10.149,0,0,1-2.535-4.851,2.183,2.183,0,0,1-.9-1.742c-.72-.72-.919-1.277-.814-1.452a7.938,7.938,0,0,0,.921,1.469,1.451,1.451,0,0,0,.5,1.042,5.944,5.944,0,0,0,1.132.826.8.8,0,0,1-.592,0c.413,1.887,2.029,4.152,2.64,4.421a14.185,14.185,0,0,0,5.427.575C470.638,51.391,471.1,50.932,471.155,50.876Z" transform="translate(-458.693 -41.319)" fill="#ed805a" opacity="0.2" style="mix-blend-mode: multiply;isolation: isolate"/>
      <path id="Path_884" data-name="Path 884" d="M461.009,42.85a2.409,2.409,0,0,1-.28-.319l.082.066c-.4-.8-.461-1.948-.174-2.008A5.266,5.266,0,0,0,461.009,42.85Z" transform="translate(-459.559 -39.985)" fill="#ed805a" opacity="0.2" style="mix-blend-mode: multiply;isolation: isolate"/>
      <path id="Path_885" data-name="Path 885" d="M462.985,42.1c-.021-.055-.121-.315-.211-.645.035.073.055.118.055.118-.1-.707.191-2.181.47-2.165A6.212,6.212,0,0,0,462.985,42.1Z" transform="translate(-460.694 -39.405)" fill="#ed805a" opacity="0.2" style="mix-blend-mode: multiply;isolation: isolate"/>
      <path id="Path_886" data-name="Path 886" d="M464.914,42.391a2.91,2.91,0,0,1-.121-.951c.042.272.067.466.067.466-.035-.736.413-1.869.629-1.814a.178.178,0,0,1,.076.038A5.841,5.841,0,0,0,464.914,42.391Z" transform="translate(-461.684 -39.74)" fill="#ed805a" opacity="0.2" style="mix-blend-mode: multiply;isolation: isolate"/>
      <path id="Path_887" data-name="Path 887" d="M467.926,43.391a4.2,4.2,0,0,0-1.212,1.4,2.879,2.879,0,0,1,.013-.628.6.6,0,0,0,.022.07C467.332,43.339,467.747,43.226,467.926,43.391Z" transform="translate(-462.621 -41.328)" fill="#ed805a" opacity="0.2" style="mix-blend-mode: multiply;isolation: isolate"/>
      <path id="Path_888" data-name="Path 888" d="M472.028,50.2a1.379,1.379,0,0,1,.3,1.018c.03-.343-.3-.773-.68-1.154l.116.084a7.948,7.948,0,0,1,2.192-1.294,3.919,3.919,0,0,1,1.068-.973,7.227,7.227,0,0,0-.87.973,2.461,2.461,0,0,1,.9.216A4.618,4.618,0,0,0,472.028,50.2Z" transform="translate(-465.043 -43.56)" fill="#ed805a" opacity="0.2" style="mix-blend-mode: multiply;isolation: isolate"/>
    </g>
    <path id="Path_889" data-name="Path 889" d="M493.046,70.807a3.088,3.088,0,0,1,3.209.19,3.876,3.876,0,0,1,.943,4.341,2.973,2.973,0,0,0,.83-3.1,3.55,3.55,0,0,0-2.869-2.3C494.707,69.826,493.046,70.807,493.046,70.807Z" transform="translate(-16.846 -25.717)" fill="#ed805a" opacity="0.2" style="mix-blend-mode: multiply;isolation: isolate"/>
    <g id="Group_146" data-name="Group 146" transform="translate(478.816 32.857)">
      <path id="Path_890" data-name="Path 890" d="M522.809,52.026s0,0,0,0c-.181.129-.253.111-.253.111a5.339,5.339,0,0,0,1-1.855.155.155,0,0,1,.043.044C523.812,50.682,522.944,51.849,522.809,52.026Z" transform="translate(-510.13 -48.942)" fill="#ed805a" opacity="0.2" style="mix-blend-mode: multiply;isolation: isolate"/>
      <path id="Path_891" data-name="Path 891" d="M521.774,49.964l.06-.068-.406.536a19.985,19.985,0,0,0,1.1-2.6C522.8,48.1,521.828,49.865,521.774,49.964Z" transform="translate(-509.579 -47.739)" fill="#ed805a" opacity="0.2" style="mix-blend-mode: multiply;isolation: isolate"/>
      <g id="Group_145" data-name="Group 145" transform="translate(0 0)">
        <path id="Path_892" data-name="Path 892" d="M511.949,52.956c.024.264-.272.652-.89,1.064a4.024,4.024,0,0,1-1.526.5s-1.366,1.383-2.4,2.317a4.188,4.188,0,0,1-4.145,1.269,11.069,11.069,0,0,1-3.162-1.748,14.508,14.508,0,0,0-.54,2.24,39.495,39.495,0,0,1,1.114,4.636,7.527,7.527,0,0,1,1.333,2.01c-.035.161-1.133-1.428-1.4-1.77a16.935,16.935,0,0,1-1.132-1.965,19.272,19.272,0,0,1-.2-3.055c.09-.843.431-2.264.431-2.264a7.4,7.4,0,0,1-1.257-2.494,8.461,8.461,0,0,0,4.079,3.589c1.2.45,1.886.737,3,.306s4.115-3.541,4.115-3.541a8.2,8.2,0,0,0,1.2-.125A3.554,3.554,0,0,0,511.949,52.956Z" transform="translate(-498.178 -50.251)" fill="#ed805a" opacity="0.2" style="mix-blend-mode: multiply;isolation: isolate"/>
        <path id="Path_893" data-name="Path 893" d="M511.681,53.125c-.5.223-1.149.506-1.6.69a1.781,1.781,0,0,0-1.042,1.1,3.8,3.8,0,0,1,.082-.445l.014.014c.264-.887,1.029-.959,2.107-1.247C511.385,53.192,511.534,53.156,511.681,53.125Z" transform="translate(-503.501 -50.334)" fill="#ed805a" opacity="0.2" style="mix-blend-mode: multiply;isolation: isolate"/>
        <path id="Path_894" data-name="Path 894" d="M520.618,49.227c0-.009.021-.035.042-.073-.157.41-.3.759-.319.792a16.959,16.959,0,0,0,.357-2.3h.014C521.016,47.719,520.636,49.163,520.618,49.227Z" transform="translate(-509.046 -47.648)" fill="#ed805a" opacity="0.2" style="mix-blend-mode: multiply;isolation: isolate"/>
        <path id="Path_895" data-name="Path 895" d="M518.522,51.285c-.1-.306-.635-1.463-.838-1.852h0c.23-.039.567.847.694,1.2l0,.009Z" transform="translate(-507.743 -48.523)" fill="#ed805a" opacity="0.2" style="mix-blend-mode: multiply;isolation: isolate"/>
      </g>
    </g>
    <path id="Path_896" data-name="Path 896" d="M489.194,52.914a38.412,38.412,0,0,1,.576,5.175,25.383,25.383,0,0,1-.551,4.385,17.142,17.142,0,0,0,.911-5.438A11.212,11.212,0,0,0,489.194,52.914Z" transform="translate(-14.957 -17.373)" fill="#ed805a" opacity="0.2" style="mix-blend-mode: multiply;isolation: isolate"/>
    <path id="Path_897" data-name="Path 897" d="M480.3,70.521a10.766,10.766,0,0,1-2.755,1.3,5.288,5.288,0,0,1-3.227-.422,17.953,17.953,0,0,1,.142,2.263,3.655,3.655,0,0,1-.488,1.694,37.5,37.5,0,0,1,.822-8.1,4.937,4.937,0,0,0-2.658-2.321c1.552-.176,2.485,1.138,2.485.907,0-.253.684-.826.684-.826s.146-1.475.254-2.95a22.828,22.828,0,0,1,.373-2.581c1.039-5.642,3.552,2.127,4.209,3.8a6.033,6.033,0,0,1-.255,4Z" transform="translate(-6.594 -19.603)" fill="#ed805a" opacity="0.4" style="mix-blend-mode: multiply;isolation: isolate"/>
    <path id="Path_898" data-name="Path 898" d="M498.01,71.433a25.154,25.154,0,0,1-.187,8.408A9.889,9.889,0,0,1,497,78.178a5.979,5.979,0,0,1-.277-1.091,10.986,10.986,0,0,1-.13-1.544,8.106,8.106,0,0,1-1.991-1.248,3.058,3.058,0,0,1-1.245-1.775,4.7,4.7,0,0,1-1.49-.073c.891-2.263,1.655-6.865,2.37-9.338s1.679-5.426,2.447-3.89c-.115.518-.387,1.673-.464,2.114-.007.035-.011.062-.016.081a.48.48,0,0,1-.007.05,39.766,39.766,0,0,1,1.114,4.636,7.523,7.523,0,0,1,1.328,2C498.305,69.569,498.01,71.433,498.01,71.433Z" transform="translate(-16.266 -20.257)" fill="#ed805a" opacity="0.4" style="mix-blend-mode: multiply;isolation: isolate"/>
    <path id="Path_899" data-name="Path 899" d="M470.86,84.624c-.023.055-.033.074-.033.074a.881.881,0,0,0-1.005-.5c-.719.167-1.125,1.126-1.246,1.7a6.93,6.93,0,0,1-.671,1.772,5.761,5.761,0,0,0-.548,1.078.206.206,0,0,1-.028-.065c-.055-.2.161-.449.161-.449-.017-.2.055-.413.36-.934a8.682,8.682,0,0,0,.677-1.881,20.933,20.933,0,0,1-1.485-5.775,9.862,9.862,0,0,1,.1-3.637c.038,1.272.105,3.222.183,4.043a20.672,20.672,0,0,0,1.293,4.481c.1-.024.5-.815,1.222-.743A1.355,1.355,0,0,1,470.86,84.624Z" transform="translate(-4.041 -28.697)" fill="#ed805a" opacity="0.2" style="mix-blend-mode: multiply;isolation: isolate"/>
    <path id="Path_900" data-name="Path 900" d="M469.026,100.3a1.812,1.812,0,0,0,1.989.647,4.975,4.975,0,0,1-1.27-.359A3.246,3.246,0,0,0,469.026,100.3Z" transform="translate(-5.067 -40.611)" fill="#ed805a" opacity="0.2" style="mix-blend-mode: multiply;isolation: isolate"/>
    <path id="Path_901" data-name="Path 901" d="M488.77,89.141a1.009,1.009,0,0,1,.744-.479c-.862-.481-1.221-1.2-1.869-3.043a3.713,3.713,0,0,1,.335-3.306c-.056.03-.359.215-.359.215a1.742,1.742,0,0,0-.5.959,11.026,11.026,0,0,1-2.947-2.229,4.755,4.755,0,0,0,1.125-1.042,2.951,2.951,0,0,1-2.731.49,4.3,4.3,0,0,1-1.82-1.676l-.1.032a5.96,5.96,0,0,0,.488-2.6,4.1,4.1,0,0,1-2.707,3.618,6.74,6.74,0,0,1-5.726-.622,2.5,2.5,0,0,0,1.293,1.2,6.07,6.07,0,0,1,.12,2.732,12.242,12.242,0,0,1-.423,1.459,2.493,2.493,0,0,1,.168.431,4.184,4.184,0,0,0,.885-2.3,17.719,17.719,0,0,0-.145-2.263,5.264,5.264,0,0,0,3.228.425,5.385,5.385,0,0,0,2.141-.8A.416.416,0,0,0,480,80.31l.051-.038.037-.028c.014-.01.026-.02.038-.03l.03-.024.051-.045c.059-.053.3-.348.3-.348a4.013,4.013,0,0,0,1.678,1.246,4.779,4.779,0,0,0,1.772.144A3.055,3.055,0,0,0,485.2,82.96a7.977,7.977,0,0,0,1.989,1.246,9.037,9.037,0,0,0,.406,2.635,9.578,9.578,0,0,0,.959,1.869,1.7,1.7,0,0,0-.144,1.15,2.052,2.052,0,0,0,.781.932A1.817,1.817,0,0,1,488.77,89.141Z" transform="translate(-6.866 -28.922)" fill="#ed805a" opacity="0.2" style="mix-blend-mode: multiply;isolation: isolate"/>
    <g id="Group_147" data-name="Group 147" transform="translate(473.309 17.485)">
      <path id="Path_902" data-name="Path 902" d="M487.373,18.653a1.01,1.01,0,0,0,1.336.506.851.851,0,0,0,.262-1.51.648.648,0,0,0-.987.137.851.851,0,0,0-.075.282c-.01.184.066.342.3.331.33-.013.3-.437.123-.41a.247.247,0,0,1,.3.129.347.347,0,0,1-.185.52.956.956,0,0,1-.188.062A1.821,1.821,0,0,1,487.373,18.653Z" transform="translate(-487.373 -17.485)" fill="url(#linear-gradient-4)"/>
      <path id="Path_903" data-name="Path 903" d="M487.373,19.57a1.01,1.01,0,0,0,1.336.506.86.86,0,0,0,.612-.721,1.454,1.454,0,0,1-.733.536A1.3,1.3,0,0,1,487.373,19.57Z" transform="translate(-487.373 -18.402)" opacity="0.3" fill="url(#linear-gradient-5)" style="mix-blend-mode: multiply;isolation: isolate"/>
      <path id="Path_904" data-name="Path 904" d="M488.424,18.353c-.01.184.066.342.3.331.33-.013.3-.437.123-.41a.247.247,0,0,1,.3.129.347.347,0,0,1-.185.52.427.427,0,0,0,.332-.18.4.4,0,0,0-.349-.671A.873.873,0,0,0,488.424,18.353Z" transform="translate(-487.888 -17.77)" opacity="0.2" fill="url(#linear-gradient-6)" style="mix-blend-mode: multiply;isolation: isolate"/>
    </g>
    <g id="Group_149" data-name="Group 149" transform="translate(466.291 37.574)">
      <path id="Path_905" data-name="Path 905" d="M481.437,79.051s-1.3.342-1.84.427c-.058.007-.108.015-.146.019-1.824.131-4.1-.031-4.1-.768,0-2.282.287-6.884.446-9.388v0c.115-1.813.215-3.127.215-3.127a16.568,16.568,0,0,1-1.936-2.5,2.307,2.307,0,0,1-.342-.98.276.276,0,0,1,.354-.307l.054.008c-.038-.065-.73-1.276-.492-1.894l.012-.023c.188-.426.448-.265.6-.112a1.239,1.239,0,0,1,.115.135,7.214,7.214,0,0,1-.435-2,.463.463,0,0,1,.112-.308c.161-.145.449.085.63.257.1.1.157.169.157.169s-.215-1.31.208-1.667a.179.179,0,0,1,.042-.031c.407-.261.8.66,1.06,1.271a14.127,14.127,0,0,0,1.744,2.47c-.016-.065-.337-1.371-.484-1.913s-.149-1.464.581-1.114c.508.242,2.247,5.063,2.658,6.384a3.247,3.247,0,0,1,.077,1.279,8.52,8.52,0,0,1-.431,1.813s.016.165.043.457l.026.265c.007.05.011.1.015.157Z" transform="translate(-473.601 -56.904)" fill="url(#linear-gradient-7)"/>
      <g id="Group_148" data-name="Group 148" transform="translate(0.001 0.045)">
        <path id="Path_906" data-name="Path 906" d="M475.739,58.523a7.54,7.54,0,0,0,.665,1.342,6.287,6.287,0,0,0,1.675,1.812,5.805,5.805,0,0,1-1.935-4.686.346.346,0,0,0-.043.032c-.422.358-.206,1.667-.206,1.667S475.833,58.616,475.739,58.523Z" transform="translate(-474.651 -56.992)" fill="#ed805a" opacity="0.19" style="mix-blend-mode: multiply;isolation: isolate"/>
        <path id="Path_907" data-name="Path 907" d="M474.708,61.8a1.1,1.1,0,0,0-.117-.136,9.957,9.957,0,0,0,1.791,1.836,5.978,5.978,0,0,1-2-4.011.451.451,0,0,0-.114.306A7.25,7.25,0,0,0,474.708,61.8Z" transform="translate(-473.93 -58.217)" fill="#ed805a" opacity="0.19" style="mix-blend-mode: multiply;isolation: isolate"/>
        <path id="Path_908" data-name="Path 908" d="M474.145,65.919l-.055-.008a10.835,10.835,0,0,0,1.619,1.368,7.984,7.984,0,0,1-2.056-3.253C473.415,64.645,474.108,65.854,474.145,65.919Z" transform="translate(-473.604 -60.441)" fill="#ed805a" opacity="0.19" style="mix-blend-mode: multiply;isolation: isolate"/>
        <path id="Path_909" data-name="Path 909" d="M474.2,69.306a16.622,16.622,0,0,0,1.936,2.508s-.1,1.311-.214,3.126c.12-.288.236-.58.334-.858a10.213,10.213,0,0,0,.511-2.16,13.881,13.881,0,0,1-2.909-3.593A2.336,2.336,0,0,0,474.2,69.306Z" transform="translate(-473.731 -62.552)" fill="#ed805a" opacity="0.19" style="mix-blend-mode: multiply;isolation: isolate"/>
        <path id="Path_910" data-name="Path 910" d="M485.367,87.583c.05-1.847.161-7.721.169-8.674.008-1.052-.25-3.245.057-3.664a10.321,10.321,0,0,0,.907-1.813,8.522,8.522,0,0,1-.431,1.813s.016.165.043.457l.027.265c.007.05.011.1.015.157l1.052,11.032S485.906,87.5,485.367,87.583Z" transform="translate(-479.372 -65.054)" fill="#ed805a" opacity="0.19" style="mix-blend-mode: multiply;isolation: isolate"/>
      </g>
      <path id="Path_911" data-name="Path 911" d="M482.12,59.579a.934.934,0,0,1-.746.31s-.421-.927-.037-1.15S482.12,59.579,482.12,59.579Z" transform="translate(-477.315 -57.789)" opacity="0.2" fill="url(#linear-gradient-8)" style="mix-blend-mode: screen;isolation: isolate"/>
      <path id="Path_912" data-name="Path 912" d="M477,57.924s-.385.336-.678.289c0,0-.174-.835.187-.945S477,57.924,477,57.924Z" transform="translate(-474.914 -57.077)" opacity="0.2" fill="url(#linear-gradient-9)" style="mix-blend-mode: screen;isolation: isolate"/>
      <path id="Path_913" data-name="Path 913" d="M475.14,60.235s-.251.449-.477.515c0,0-.31-.79-.128-.947S475.14,60.235,475.14,60.235Z" transform="translate(-474.031 -58.312)" opacity="0.2" fill="url(#linear-gradient-10)" style="mix-blend-mode: screen;isolation: isolate"/>
      <path id="Path_914" data-name="Path 914" d="M474.392,64.32a1.773,1.773,0,0,1-.341.651s-.333-.7-.129-.97S474.392,64.32,474.392,64.32Z" transform="translate(-473.726 -60.349)" opacity="0.2" fill="url(#linear-gradient-11)" style="mix-blend-mode: screen;isolation: isolate"/>
      <path id="Path_915" data-name="Path 915" d="M474.523,68.232s0,.4-.185.448c0,0-.357-.385-.2-.61S474.523,68.232,474.523,68.232Z" transform="translate(-473.846 -62.345)" opacity="0.2" fill="url(#linear-gradient-12)" style="mix-blend-mode: screen;isolation: isolate"/>
    </g>
    <g id="Group_153" data-name="Group 153" transform="translate(475.194 38.509)">
      <g id="Group_151" data-name="Group 151" transform="translate(0 0)">
        <path id="Path_916" data-name="Path 916" d="M499.853,63.729a.632.632,0,0,1,.192.55,2.161,2.161,0,0,1-.373,1.006,8.631,8.631,0,0,1-2.585,2.647,75.162,75.162,0,0,1,.384,9.172c-.015.192-.035.4-.054.619-.008.1-.02.192-.027.288-.261,2.931-.376,3.987-.376,3.987h-.1a13.743,13.743,0,0,1-1.832-.138c-1.437-.2-3.265-.71-4-1.974-.062-.108-.011-.787.615-3.111a101.621,101.621,0,0,0,1.89-10.314,13.16,13.16,0,0,1,.392-2.42c.331-1.575,1.482-4.932,1.833-5.082a.213.213,0,0,1,.161-.008c.276.1.484.78.327,1.836-.169,1.1-.338,1.9-.378,2.086,0,.019-.007.031-.007.034.062-.1,1.69-2.877,2.024-3.48s.431-.734.63-.676a.083.083,0,0,1,.039.023,2.274,2.274,0,0,1,.038,1.916.072.072,0,0,1-.009.027.043.043,0,0,0,0,.019c.1-.2.745-1.533.987-1.559.093-.012.216.142.308.4a2.372,2.372,0,0,1,.114.757,2.77,2.77,0,0,1-.361,1.372.547.547,0,0,1,.088-.062h0a.375.375,0,0,1,.473,0,.482.482,0,0,1,.1.307,3.169,3.169,0,0,1-.526,1.755A.167.167,0,0,0,499.853,63.729Z" transform="translate(-491.071 -58.738)" fill="url(#linear-gradient-7)"/>
        <g id="Group_150" data-name="Group 150" transform="translate(4.015 0.036)">
          <path id="Path_917" data-name="Path 917" d="M499.7,64.167a10.53,10.53,0,0,0,.463-1.089c.04-.183.211-.99.376-2.086.159-1.054-.048-1.734-.325-1.834A17.2,17.2,0,0,1,499.7,64.167Z" transform="translate(-499.316 -58.98)" fill="#ed805a" opacity="0.19" style="mix-blend-mode: multiply;isolation: isolate"/>
          <path id="Path_918" data-name="Path 918" d="M502.587,63.532a10.918,10.918,0,0,0,1.706-2.781.1.1,0,0,0,.01-.026,2.285,2.285,0,0,0-.039-1.917,4.717,4.717,0,0,1-.4,2.223A18.927,18.927,0,0,1,502.587,63.532Z" transform="translate(-500.733 -58.808)" fill="#ed805a" opacity="0.19" style="mix-blend-mode: multiply;isolation: isolate"/>
          <path id="Path_919" data-name="Path 919" d="M507.267,60.387a8.841,8.841,0,0,1-1.247,3.588c.322-.435.745-1.013,1.091-1.524a.647.647,0,0,0-.088.062A2.684,2.684,0,0,0,507.267,60.387Z" transform="translate(-502.416 -59.582)" fill="#ed805a" opacity="0.19" style="mix-blend-mode: multiply;isolation: isolate"/>
          <path id="Path_920" data-name="Path 920" d="M505.069,68.075a5.764,5.764,0,0,0,.482-.64C505.31,67.759,505.124,68,505.069,68.075Z" transform="translate(-501.95 -63.038)" fill="#ed805a" opacity="0.19" style="mix-blend-mode: multiply;isolation: isolate"/>
          <path id="Path_921" data-name="Path 921" d="M507.537,65.055a7.879,7.879,0,0,1-1.822,3.1,18.582,18.582,0,0,0,1.321-1.331.122.122,0,0,0-.025-.019A3.183,3.183,0,0,0,507.537,65.055Z" transform="translate(-502.267 -61.871)" fill="#ed805a" opacity="0.19" style="mix-blend-mode: multiply;isolation: isolate"/>
          <path id="Path_922" data-name="Path 922" d="M505.144,71.409c.055-.046.156-.14.291-.263A3.865,3.865,0,0,1,505.144,71.409Z" transform="translate(-501.987 -64.858)" fill="#ed805a" opacity="0.19" style="mix-blend-mode: multiply;isolation: isolate"/>
          <path id="Path_923" data-name="Path 923" d="M503.908,69.611a2.161,2.161,0,0,1-.373,1.006,8.632,8.632,0,0,1-2.585,2.647,75.162,75.162,0,0,1,.384,9.172c-.015.192-.035.4-.054.619-.008.1-.02.192-.027.288-.111,1.176-.287,2.62-.472,3.987a13.744,13.744,0,0,1-1.832-.138.081.081,0,0,1,.012-.031c.054-.15.683-3.645.93-4.929s.665-5.416.741-6.376c.069-.88-.012-2.213.058-2.793a.171.171,0,0,1-.011-.046c-.023-.261.845-.553,1.882-1.459A4.774,4.774,0,0,0,503.908,69.611Z" transform="translate(-498.949 -64.105)" fill="#ed805a" opacity="0.19" style="mix-blend-mode: multiply;isolation: isolate"/>
        </g>
        <path id="Path_924" data-name="Path 924" d="M499.723,60.767a1.206,1.206,0,0,1-.5-.169,3.468,3.468,0,0,1,.444-1.052s.416.1.4.345A4.147,4.147,0,0,1,499.723,60.767Z" transform="translate(-495.067 -59.134)" opacity="0.2" fill="url(#linear-gradient-14)" style="mix-blend-mode: screen;isolation: isolate"/>
        <path id="Path_925" data-name="Path 925" d="M505.412,60.035c-.054.144-.351-.127-.4-.214s.078-.808.3-.81S505.6,59.531,505.412,60.035Z" transform="translate(-497.905 -58.872)" opacity="0.2" fill="url(#linear-gradient-15)" style="mix-blend-mode: screen;isolation: isolate"/>
      </g>
      <g id="Group_152" data-name="Group 152" transform="translate(8.2 0.93)">
        <path id="Path_926" data-name="Path 926" d="M507.742,61.666a.818.818,0,0,1-.581-.4s.235-.747.5-.7S507.871,61.414,507.742,61.666Z" transform="translate(-507.161 -60.563)" opacity="0.2" fill="url(#linear-gradient-16)" style="mix-blend-mode: screen;isolation: isolate"/>
        <path id="Path_927" data-name="Path 927" d="M508.306,65.659s-.374-.249-.334-.464c0,0,.3-.48.463-.313S508.306,65.659,508.306,65.659Z" transform="translate(-507.557 -62.663)" opacity="0.2" fill="url(#linear-gradient-17)" style="mix-blend-mode: screen;isolation: isolate"/>
        <path id="Path_928" data-name="Path 928" d="M507.664,70.17s-.211-.368-.181-.474.28-.481.418-.295S507.664,70.17,507.664,70.17Z" transform="translate(-507.318 -64.871)" opacity="0.2" fill="url(#linear-gradient-18)" style="mix-blend-mode: screen;isolation: isolate"/>
      </g>
    </g>
    <g id="Group_154" data-name="Group 154" transform="translate(483.519 62.377)">
      <path id="Path_929" data-name="Path 929" d="M512.506,105.571c-.007.049-.052.1-.138.145a1.184,1.184,0,0,1-.746.009h0a2.109,2.109,0,0,1-.215-.107A1.962,1.962,0,0,0,512.506,105.571Z" transform="translate(-509.368 -105.571)" fill="#ed805a" opacity="0.2" style="mix-blend-mode: multiply;isolation: isolate"/>
      <path id="Path_930" data-name="Path 930" d="M511.176,106.369a.617.617,0,0,1,.145.069A.584.584,0,0,1,511.176,106.369Z" transform="translate(-509.255 -105.962)" fill="#ed805a" opacity="0.2" style="mix-blend-mode: multiply;isolation: isolate"/>
      <path id="Path_931" data-name="Path 931" d="M511.7,106.232a.1.1,0,0,1-.022.028c-.13.111-.466.038-.605,0a.261.261,0,0,1-.1-.1A2.906,2.906,0,0,0,511.7,106.232Z" transform="translate(-509.158 -105.86)" fill="#ed805a" opacity="0.2" style="mix-blend-mode: multiply;isolation: isolate"/>
      <path id="Path_932" data-name="Path 932" d="M509.508,106.348l-.006.009a.572.572,0,0,1-.61,0,13.026,13.026,0,0,1-1.485-.43,11.146,11.146,0,0,0,1.3.3,1.045,1.045,0,0,1,.291.092A1.023,1.023,0,0,0,509.508,106.348Z" transform="translate(-507.407 -105.744)" fill="#ed805a" opacity="0.2" style="mix-blend-mode: multiply;isolation: isolate"/>
    </g>
    <g id="Group_155" data-name="Group 155" transform="translate(462.01 36.802)">
      <path id="Path_933" data-name="Path 933" d="M468.277,63.775a.192.192,0,0,0-.178.2l.045.7c-.354-.511-.994-1.279-1.674-1.32a1.081,1.081,0,0,0-.96.532c-1.183,1.634,1.4,3.727,1.508,3.816a.192.192,0,1,0,.239-.3c-.024-.019-2.4-1.952-1.436-3.291a.733.733,0,0,1,.626-.373c.521.032,1.1.734,1.436,1.235l-.5-.249a.192.192,0,0,0-.172.343l1.088.544a.192.192,0,0,0,.278-.184l-.1-1.473A.2.2,0,0,0,468.277,63.775Z" transform="translate(-465.201 -59.294)" fill="#ff605f"/>
      <path id="Path_934" data-name="Path 934" d="M484.913,55.417a.193.193,0,0,0-.265.061l-1.729,2.75-.03-.577a.181.181,0,0,0-.2-.182.192.192,0,0,0-.181.2l.064,1.28a.193.193,0,0,0,.193.182.185.185,0,0,0,.066-.012l1.568-.576a.192.192,0,1,0-.133-.36l-1.124.413,1.833-2.916A.192.192,0,0,0,484.913,55.417Z" transform="translate(-473.687 -55.388)" fill="#ff605f"/>
      <path id="Path_935" data-name="Path 935" d="M497.083,57.469a.183.183,0,0,0-.123.233c.007.05,0,.251-.014.513-.521-1.084-1.28-2.66-1.334-2.74a.191.191,0,0,0-.261-.055.2.2,0,0,0-.063.262c.063.107.858,1.753,1.453,2.993l-1.1-.575a.192.192,0,0,0-.178.341l1.536.8a.193.193,0,0,0,.089.022.188.188,0,0,0,.093-.024.19.19,0,0,0,.1-.154,6.553,6.553,0,0,0,.055-1.484A.2.2,0,0,0,497.083,57.469Z" transform="translate(-479.942 -55.389)" fill="#ff605f"/>
      <path id="Path_936" data-name="Path 936" d="M509.518,67.108c-.1-.677-.355-1.094-.755-1.239a1.52,1.52,0,0,0-1.241.256c.1-.269.184-.473.208-.519a.192.192,0,0,0-.322-.209c-.067.1-.382.951-.565,1.449a.192.192,0,0,0,.165.258l1.537.128h.016a.192.192,0,0,0,.016-.383l-1.273-.107a.189.189,0,0,0,.071-.039c.206-.184.834-.628,1.257-.473.258.093.429.408.507.934.292,1.954-3.1,2.978-3.13,2.988a.192.192,0,0,0,.055.377.205.205,0,0,0,.055-.008C506.27,70.477,509.859,69.391,509.518,67.108Z" transform="translate(-485.144 -60.254)" fill="#ff605f"/>
    </g>
  </g>
</svg>
