<svg xmlns="http://www.w3.org/2000/svg" xmlns:xlink="http://www.w3.org/1999/xlink" width="41.64" height="62.605" viewBox="0 0 41.64 62.605">
  <defs>
    <radialGradient id="radial-gradient" cx="0.673" cy="0.3" r="0.882" gradientTransform="translate(0)" gradientUnits="objectBoundingBox">
      <stop offset="0.361" stop-opacity="0"/>
      <stop offset="1"/>
    </radialGradient>
  </defs>
  <g id="Group_15467" data-name="Group 15467" transform="translate(-309.441 -40.736)">
    <ellipse id="Ellipse_6" data-name="Ellipse 6" cx="20.68" cy="4.353" rx="20.68" ry="4.353" transform="translate(309.56 94.636)" fill="#b69801"/>
    <g id="Group_19" data-name="Group 19" transform="translate(309.441 40.736)">
      <g id="Group_15" data-name="Group 15" transform="translate(0 44.164)">
        <path id="Path_64" data-name="Path 64" d="M331.569,176.846a8.05,8.05,0,0,0-3.586,3.587,9.227,9.227,0,0,0-.269,5.573s6.547.974,11.349-.7-.594-4.729-.661-5.093S331.569,176.846,331.569,176.846Z" transform="translate(-321.176 -173.87)" fill="#ed1e79"/>
        <g id="Group_14" data-name="Group 14">
          <path id="Path_65" data-name="Path 65" d="M311.132,175.579a4.654,4.654,0,0,1,5.723-1.964c2.691,1.068.983,4.655.9,6.406s1.116,3.929.643,5-3.59,2.331-5.17-1.226S310.419,176.965,311.132,175.579Z" transform="translate(-310.41 -171.537)" fill="#ffe1cc"/>
          <path id="Path_66" data-name="Path 66" d="M327.207,171.044a2.347,2.347,0,0,0,.511-1.765,1.208,1.208,0,0,0-1.463-.975c-.488.186-1.277,1.231-.673,2.02A2.024,2.024,0,0,0,327.207,171.044Z" transform="translate(-319.849 -168.254)" fill="#ffe1cc"/>
          <path id="Path_67" data-name="Path 67" d="M322.135,170.849a1.307,1.307,0,0,0,.249-1.416c-.382-.76-1.279-.853-1.589-.141a1.441,1.441,0,0,0,.375,1.557A5.823,5.823,0,0,0,322.135,170.849Z" transform="translate(-316.799 -168.615)" fill="#ffe1cc"/>
          <path id="Path_68" data-name="Path 68" d="M317.935,171.949a1.15,1.15,0,0,0,.219-1.246c-.336-.669-1.125-.751-1.4-.124a1.269,1.269,0,0,0,.33,1.37A5.114,5.114,0,0,0,317.935,171.949Z" transform="translate(-314.167 -169.495)" fill="#ffe1cc"/>
          <path id="Path_69" data-name="Path 69" d="M314.459,174.116a1.15,1.15,0,0,0-.085-1.262c-.486-.569-1.271-.461-1.388.213a1.269,1.269,0,0,0,.647,1.252A5.133,5.133,0,0,0,314.459,174.116Z" transform="translate(-311.749 -171.02)" fill="#ffe1cc"/>
          <path id="Path_70" data-name="Path 70" d="M310.928,177.03a1.15,1.15,0,0,0-.085-1.262c-.485-.569-1.271-.461-1.388.213a1.269,1.269,0,0,0,.647,1.252A5.122,5.122,0,0,0,310.928,177.03Z" transform="translate(-309.441 -172.925)" fill="#ffe1cc"/>
        </g>
      </g>
      <path id="Path_71" data-name="Path 71" d="M361.133,144.742s2.392,7.748,1.96,13.678-12.956,9.138-17.486,4.085-2.152-9.5-2.152-9.5l2.152-7.188.919-.909Z" transform="translate(-331.268 -108.721)" fill="#ed1e79"/>
      <path id="Path_72" data-name="Path 72" d="M344.288,140.107s-2.021,1.14-2.373,2.336,1.2,6.474,1.2,6.474l2.245-3.975,4.871-1.249-4.871-1.614Z" transform="translate(-330.634 -105.691)" fill="#ed1e79"/>
      <path id="Path_73" data-name="Path 73" d="M381.772,176.82a8.048,8.048,0,0,1,3.586,3.588,9.225,9.225,0,0,1,.269,5.573s-6.547.974-11.348-.7.594-4.729.661-5.093S381.772,176.82,381.772,176.82Z" transform="translate(-350.524 -129.689)" fill="#ed1e79"/>
      <g id="Group_16" data-name="Group 16" transform="translate(33.545 44.155)">
        <path id="Path_74" data-name="Path 74" d="M413.673,175.553a4.653,4.653,0,0,0-5.723-1.965c-2.691,1.068-.982,4.655-.9,6.406s-1.116,3.929-.643,5,3.59,2.331,5.17-1.226S414.386,176.939,413.673,175.553Z" transform="translate(-406.299 -171.512)" fill="#ffe1cc"/>
        <path id="Path_75" data-name="Path 75" d="M407.378,171.019a2.347,2.347,0,0,1-.511-1.765,1.208,1.208,0,0,1,1.463-.975c.487.186,1.277,1.231.673,2.02A2.024,2.024,0,0,1,407.378,171.019Z" transform="translate(-406.641 -168.228)" fill="#ffe1cc"/>
        <path id="Path_76" data-name="Path 76" d="M413.566,170.823a1.307,1.307,0,0,1-.248-1.416c.381-.76,1.278-.853,1.589-.141a1.442,1.442,0,0,1-.375,1.557A5.83,5.83,0,0,1,413.566,170.823Z" transform="translate(-410.806 -168.59)" fill="#ffe1cc"/>
        <path id="Path_77" data-name="Path 77" d="M418.175,171.924a1.15,1.15,0,0,1-.219-1.246c.336-.669,1.125-.75,1.4-.124a1.268,1.268,0,0,1-.33,1.37A5.121,5.121,0,0,1,418.175,171.924Z" transform="translate(-413.848 -169.469)" fill="#ffe1cc"/>
        <path id="Path_78" data-name="Path 78" d="M421.555,174.09a1.15,1.15,0,0,1,.085-1.262c.486-.569,1.272-.461,1.388.213a1.268,1.268,0,0,1-.647,1.252A5.122,5.122,0,0,1,421.555,174.09Z" transform="translate(-416.169 -170.995)" fill="#ffe1cc"/>
        <path id="Path_79" data-name="Path 79" d="M425.085,177a1.15,1.15,0,0,1,.085-1.262c.486-.569,1.271-.461,1.388.213a1.268,1.268,0,0,1-.647,1.252A5.132,5.132,0,0,1,425.085,177Z" transform="translate(-418.477 -172.899)" fill="#ffe1cc"/>
      </g>
      <path id="Path_80" data-name="Path 80" d="M366.061,146.212a3.688,3.688,0,0,1-3.588,2.907c-3.139.19-4.151-3.339-4.151-3.339Z" transform="translate(-341.393 -109.4)" fill="#e5bda1"/>
      <circle id="Ellipse_7" data-name="Ellipse 7" cx="17.241" cy="17.241" r="17.241" transform="translate(3.895 3.523)" fill="#ffe1cc"/>
      <g id="Group_17" data-name="Group 17" transform="translate(1.343 17.671)">
        <path id="Path_81" data-name="Path 81" d="M316.963,91.81a2.933,2.933,0,0,0-3.637,2.913c-.182,3.6,4,5.115,4,5.115Z" transform="translate(-313.32 -91.758)" fill="#ffe1cc"/>
        <path id="Path_82" data-name="Path 82" d="M318.332,101.427s.641-2.394,0-3.237h-.91S318.568,99.033,318.332,101.427Z" transform="translate(-316.001 -95.962)" fill="#cc9169"/>
      </g>
      <g id="Group_18" data-name="Group 18" transform="translate(37.422 17.476)">
        <path id="Path_83" data-name="Path 83" d="M417.856,91.248a2.934,2.934,0,0,1,3.637,2.914c.182,3.6-4,5.115-4,5.115Z" transform="translate(-417.492 -91.196)" fill="#ffe1cc"/>
        <path id="Path_84" data-name="Path 84" d="M421.794,100.865s-.641-2.394,0-3.237h.91S421.557,98.471,421.794,100.865Z" transform="translate(-420.118 -95.4)" fill="#cc9169"/>
      </g>
      <ellipse id="Ellipse_8" data-name="Ellipse 8" cx="1.842" cy="1.091" rx="1.842" ry="1.091" transform="translate(8.078 22.856)" fill="#fcd4c5"/>
      <path id="Path_85" data-name="Path 85" d="M397.7,107.821c0,.6-.825,1.091-1.842,1.091s-1.842-.488-1.842-1.091.825-1.091,1.842-1.091S397.7,107.219,397.7,107.821Z" transform="translate(-364.728 -83.874)" fill="#fcd4c5"/>
      <path id="Path_86" data-name="Path 86" d="M364.829,108.847a2.518,2.518,0,0,0-2.833-.461,1.441,1.441,0,0,0-.577,2.016S361.991,108.089,364.829,108.847Z" transform="translate(-343.269 -84.799)" fill="#cc9169"/>
      <path id="Path_87" data-name="Path 87" d="M340.639,73.59a5.024,5.024,0,0,1,5.27-1.819S343.222,68.788,340.639,73.59Z" transform="translate(-329.834 -60.424)" fill="#603813"/>
      <path id="Path_88" data-name="Path 88" d="M389.667,74.683a5.024,5.024,0,0,0-5.27-1.819S387.084,69.881,389.667,74.683Z" transform="translate(-358.437 -61.138)" fill="#603813"/>
      <path id="Path_89" data-name="Path 89" d="M365.725,119.758s-7.563,1.24-11.667-.031c0,0,.7,5.421,5.113,5.648C364.186,125.632,365.725,119.758,365.725,119.758Z" transform="translate(-338.606 -92.37)" fill="#5c2849"/>
      <path id="Path_90" data-name="Path 90" d="M367.09,139.154a6.857,6.857,0,0,1-4.183-.182S364.653,141.664,367.09,139.154Z" transform="translate(-344.39 -104.949)" fill="#cc9169"/>
      <path id="Path_91" data-name="Path 91" d="M363.129,47.27s-3.765,0-3.765-2.128,2.673-2.728,3.765-1.964c0,0-3.438-4.474-6.384-1.309S357.182,49.78,363.129,47.27Z" transform="translate(-339.655 -40.736)" fill="#bd4932"/>
      <path id="Path_92" data-name="Path 92" d="M354.784,134.548a17.68,17.68,0,1,1-20.24-17.486,17.162,17.162,0,0,1,2.562-.188,17.516,17.516,0,0,1,5.648.925h0a17.652,17.652,0,0,1,12.025,16.748Z" transform="translate(-315.97 -90.505)" fill="#ffd34d"/>
      <path id="Path_93" data-name="Path 93" d="M345.124,95.756s-3.083-2.565-5.376-.219a2.306,2.306,0,0,1-1.662-2.455,1.676,1.676,0,0,0,1.246.982S343.062,91.921,345.124,95.756Z" transform="translate(-328.164 -74.953)" fill="#603813"/>
      <path id="Path_94" data-name="Path 94" d="M379.013,96.442s3.083-2.565,5.376-.219a2.306,2.306,0,0,0,1.662-2.455,1.675,1.675,0,0,1-1.246.982S381.075,92.607,379.013,96.442Z" transform="translate(-354.918 -75.402)" fill="#603813"/>
      <path id="Path_95" data-name="Path 95" d="M359.29,164.253a17.68,17.68,0,0,1-24.019-.336,14.94,14.94,0,0,0,9.572-2.649c9.747-6.347,9.1-19.048,9.1-19.048C358.588,147.094,362.368,157.548,359.29,164.253Z" transform="translate(-326.325 -107.072)" fill="#3fa9f5"/>
      <path id="Path_96" data-name="Path 96" d="M343.584,133.4s-10.676,15.168-23.662,13.051a17.689,17.689,0,0,1,5.853-17.721C331.349,132.71,337.892,136.39,343.584,133.4Z" transform="translate(-315.97 -98.257)" fill="#ec4963"/>
      <path id="Path_97" data-name="Path 97" d="M372.112,125.652s-6.853-4.426-9.039-8.59a17.162,17.162,0,0,1,2.562-.188,17.515,17.515,0,0,1,5.648.925A8.2,8.2,0,0,0,372.112,125.652Z" transform="translate(-344.498 -90.505)" fill="#ff931e"/>
      <path id="Path_98" data-name="Path 98" d="M399.994,139.935a29.722,29.722,0,0,0-10.821-5.238,11.943,11.943,0,0,1,5.626-3.985A17.62,17.62,0,0,1,399.994,139.935Z" transform="translate(-361.559 -99.55)" fill="#7ac943"/>
      <path id="Path_99" data-name="Path 99" d="M354.784,134.548a17.68,17.68,0,1,1-20.24-17.486,17.162,17.162,0,0,1,2.562-.188,17.516,17.516,0,0,1,5.648.925h0a17.652,17.652,0,0,1,12.025,16.748Z" transform="translate(-315.97 -90.505)" fill="url(#radial-gradient)" style="mix-blend-mode: overlay;isolation: isolate"/>
      <path id="Path_100" data-name="Path 100" d="M354.784,134.548a17.68,17.68,0,1,1-20.24-17.486,17.162,17.162,0,0,1,2.562-.188,17.516,17.516,0,0,1,5.648.925h0a17.652,17.652,0,0,1,12.025,16.748Z" transform="translate(-315.97 -90.505)" fill="url(#radial-gradient)" style="mix-blend-mode: overlay;isolation: isolate"/>
      <path id="Path_101" data-name="Path 101" d="M401.943,128.636c-1.962-.78-3.725-1.269-4.486-2.361,0,0-1.463,1.483,0,2.478a3.712,3.712,0,0,0,2.408.845s-2.57-.247-3.565.4a1.144,1.144,0,0,0,.6,2.143,9.938,9.938,0,0,0,3.406-1.075s-3.755,1.609-3.126,3.074c.533,1.244,3.084.259,3.787-1.217,0,0-1.539,2.508-.506,3.589s1.882-.675,2.014-2.372c0,0,.051,2.834.863,3.3s1.5-.532,1.062-3.019C403.929,131.726,404.963,129.835,401.943,128.636Z" transform="translate(-365.836 -96.65)" fill="#ffe1cc"/>
      <path id="Path_102" data-name="Path 102" d="M322.675,128.3c1.962-.779,3.725-1.269,4.486-2.361,0,0,1.463,1.483,0,2.478a3.709,3.709,0,0,1-2.408.845s2.57-.247,3.565.4a1.144,1.144,0,0,1-.6,2.143,9.943,9.943,0,0,1-3.406-1.075s3.755,1.609,3.126,3.074c-.533,1.244-3.085.259-3.787-1.216,0,0,1.539,2.508.506,3.588s-1.882-.675-2.014-2.372c0,0-.051,2.834-.863,3.3s-1.5-.532-1.062-3.019C320.689,131.392,319.655,129.5,322.675,128.3Z" transform="translate(-316.397 -96.431)" fill="#ffe1cc"/>
      <path id="Path_103" data-name="Path 103" d="M362.418,53s-2.8.067-3.1-2.144c0,0-2.881.653-3.183-1.541C356.136,49.313,355.868,54.657,362.418,53Z" transform="translate(-339.963 -46.343)" style="mix-blend-mode: soft-light;isolation: isolate"/>
      <path id="Path_104" data-name="Path 104" d="M322.982,159.542s-2.237,12.742,9.4,18.429c11.8,5.765,25.787-4.636,24.14-18,0,0-1.358.135-1.5-.426,0,0-.236,12.918-11.847,15.851S323.234,169.906,322.982,159.542Z" transform="translate(-318.18 -118.395)" style="mix-blend-mode: soft-light;isolation: isolate"/>
      <path id="Path_105" data-name="Path 105" d="M408.769,104.473s-.346,1.854-3.119,2.964c0,0-1.663,4.292-3.364,5.72a8.708,8.708,0,0,1-2.946-1.918s3.683-1.892,4.883-4.893C404.222,106.346,408.114,106.146,408.769,104.473Z" transform="translate(-368.204 -82.399)" style="mix-blend-mode: soft-light;isolation: isolate"/>
      <path id="Path_106" data-name="Path 106" d="M314.61,102.862a5.473,5.473,0,0,0,3.055,3.686,19.213,19.213,0,0,0,3.019,5.556,4.314,4.314,0,0,0,2.764-1.591s-4.183-2.074-5.056-5.22C318.393,105.293,315.519,105,314.61,102.862Z" transform="translate(-312.82 -81.346)" style="mix-blend-mode: soft-light;isolation: isolate"/>
      <path id="Path_107" data-name="Path 107" d="M417.26,139.971a9.324,9.324,0,0,1,.145,2.146c-.073,1.055.356,1.748.274,2.71s-.2,1.655-.728,1.455-.782-1.746-.782-1.746.54.793.76.273C417.525,143.4,417.278,140.153,417.26,139.971Z" transform="translate(-379.205 -105.602)" style="mix-blend-mode: soft-light;isolation: isolate"/>
      <path id="Path_108" data-name="Path 108" d="M411.141,147.717s-.314,2.387-.955,2.782a.747.747,0,0,1-1.146-.627s.436.642.846.232A5.914,5.914,0,0,0,411.141,147.717Z" transform="translate(-374.545 -110.666)" style="mix-blend-mode: soft-light;isolation: isolate"/>
      <path id="Path_109" data-name="Path 109" d="M403.792,145.157a3.235,3.235,0,0,1-2.087,1.692c-1.459.313-1.336-.846-1.255-1.05C400.451,145.8,401.665,146.876,403.792,145.157Z" transform="translate(-368.902 -108.992)" style="mix-blend-mode: soft-light;isolation: isolate"/>
      <path id="Path_110" data-name="Path 110" d="M400.37,139.349a8.571,8.571,0,0,1-2.987,1.05c-1.378.109-1.364-1.037-1.241-1.269C396.142,139.131,397.369,140.44,400.37,139.349Z" transform="translate(-366.081 -105.053)" style="mix-blend-mode: soft-light;isolation: isolate"/>
      <path id="Path_111" data-name="Path 111" d="M399.684,127.434s-1.673,1.786,1.974,2.776h1.084S399.463,129.439,399.684,127.434Z" transform="translate(-368.179 -97.407)" style="mix-blend-mode: soft-light;isolation: isolate"/>
      <path id="Path_112" data-name="Path 112" d="M320.961,139.66a9.323,9.323,0,0,0-.145,2.146c.073,1.055-.356,1.748-.274,2.71s.195,1.655.728,1.455.782-1.746.782-1.746-.54.794-.761.273C320.7,143.092,320.943,139.842,320.961,139.66Z" transform="translate(-316.691 -105.399)" style="mix-blend-mode: soft-light;isolation: isolate"/>
      <path id="Path_113" data-name="Path 113" d="M325.986,147.406s.314,2.387.955,2.782a.746.746,0,0,0,1.146-.627s-.436.642-.846.232A5.917,5.917,0,0,1,325.986,147.406Z" transform="translate(-320.256 -110.462)" style="mix-blend-mode: soft-light;isolation: isolate"/>
      <path id="Path_114" data-name="Path 114" d="M330.909,144.846A3.236,3.236,0,0,0,333,146.538c1.459.314,1.337-.846,1.255-1.05C334.251,145.487,333.037,146.565,330.909,144.846Z" transform="translate(-323.474 -108.789)" style="mix-blend-mode: soft-light;isolation: isolate"/>
      <path id="Path_115" data-name="Path 115" d="M332.643,139.038a8.571,8.571,0,0,0,2.987,1.05c1.378.109,1.364-1.037,1.241-1.269C336.871,138.82,335.644,140.13,332.643,139.038Z" transform="translate(-324.607 -104.85)" style="mix-blend-mode: soft-light;isolation: isolate"/>
      <path id="Path_116" data-name="Path 116" d="M334.912,127.123s1.674,1.787-1.974,2.776h-1.084S335.133,129.128,334.912,127.123Z" transform="translate(-324.092 -97.204)" style="mix-blend-mode: soft-light;isolation: isolate"/>
      <path id="Path_117" data-name="Path 117" d="M400.3,132.163s-1.882-.574-2-1.74a1.361,1.361,0,0,0,.666,1.74Z" transform="translate(-367.458 -99.361)" style="mix-blend-mode: soft-light;isolation: isolate"/>
      <path id="Path_118" data-name="Path 118" d="M398.736,142.1a6.99,6.99,0,0,1-1.5.315,1.364,1.364,0,0,1-1.337-.554s.091.9.891,1,.882,0,.882,0A6.251,6.251,0,0,1,398.736,142.1Z" transform="translate(-365.956 -106.839)" style="mix-blend-mode: soft-light;isolation: isolate"/>
      <path id="Path_119" data-name="Path 119" d="M401.308,148.984s1.227.6,2.755-.873l-.4,1.037S402.236,150.075,401.308,148.984Z" transform="translate(-369.491 -110.923)" style="mix-blend-mode: soft-light;isolation: isolate"/>
      <path id="Path_120" data-name="Path 120" d="M410.944,153.089s.821.211,1.173-.927.268-1.137.268-1.137l.123,1.237S412.326,153.844,410.944,153.089Z" transform="translate(-375.79 -112.828)" style="mix-blend-mode: soft-light;isolation: isolate"/>
      <path id="Path_121" data-name="Path 121" d="M415.949,154.264s-.918.235-1.2-1.573l-.1-1.009-.273,1.091S414.212,154.637,415.949,154.264Z" transform="translate(-378.03 -113.258)" style="mix-blend-mode: soft-light;isolation: isolate"/>
      <path id="Path_122" data-name="Path 122" d="M400.3,132.163s-1.882-.574-2-1.74a1.361,1.361,0,0,0,.666,1.74Z" transform="translate(-367.458 -99.361)" style="mix-blend-mode: soft-light;isolation: isolate"/>
      <path id="Path_123" data-name="Path 123" d="M398.736,142.1a6.99,6.99,0,0,1-1.5.315,1.364,1.364,0,0,1-1.337-.554s.091.9.891,1,.882,0,.882,0A6.251,6.251,0,0,1,398.736,142.1Z" transform="translate(-365.956 -106.839)" style="mix-blend-mode: soft-light;isolation: isolate"/>
      <path id="Path_124" data-name="Path 124" d="M401.308,148.984s1.227.6,2.755-.873l-.4,1.037S402.236,150.075,401.308,148.984Z" transform="translate(-369.491 -110.923)" style="mix-blend-mode: soft-light;isolation: isolate"/>
      <path id="Path_125" data-name="Path 125" d="M410.944,153.089s.821.211,1.173-.927.268-1.137.268-1.137l.123,1.237S412.326,153.844,410.944,153.089Z" transform="translate(-375.79 -112.828)" style="mix-blend-mode: soft-light;isolation: isolate"/>
      <path id="Path_126" data-name="Path 126" d="M415.949,154.264s-.918.235-1.2-1.573l-.1-1.009-.273,1.091S414.212,154.637,415.949,154.264Z" transform="translate(-378.03 -113.258)" style="mix-blend-mode: soft-light;isolation: isolate"/>
      <path id="Path_127" data-name="Path 127" d="M337.649,131.852s1.881-.574,2-1.74a1.361,1.361,0,0,1-.666,1.74Z" transform="translate(-327.88 -99.158)" style="mix-blend-mode: soft-light;isolation: isolate"/>
      <path id="Path_128" data-name="Path 128" d="M337.145,141.77a6.982,6.982,0,0,0,1.5.316,1.364,1.364,0,0,0,1.337-.555s-.091.9-.891,1-.882,0-.882,0A6.253,6.253,0,0,0,337.145,141.77Z" transform="translate(-327.55 -106.622)" style="mix-blend-mode: soft-light;isolation: isolate"/>
      <path id="Path_129" data-name="Path 129" d="M334.628,148.379s-1.253.544-2.713-1l.353,1.054S333.652,149.427,334.628,148.379Z" transform="translate(-324.132 -110.447)" style="mix-blend-mode: soft-light;isolation: isolate"/>
      <path id="Path_130" data-name="Path 130" d="M327.393,153.1s-.821.211-1.173-.927-.268-1.137-.268-1.137l-.123,1.236S326.011,153.855,327.393,153.1Z" transform="translate(-320.153 -112.835)" style="mix-blend-mode: soft-light;isolation: isolate"/>
      <path id="Path_131" data-name="Path 131" d="M322.363,154.275s.918.235,1.2-1.573l.1-1.009.273,1.091S324.1,154.647,322.363,154.275Z" transform="translate(-317.888 -113.264)" style="mix-blend-mode: soft-light;isolation: isolate"/>
      <path id="Path_132" data-name="Path 132" d="M337.649,131.852s1.881-.574,2-1.74a1.361,1.361,0,0,1-.666,1.74Z" transform="translate(-327.88 -99.158)" style="mix-blend-mode: soft-light;isolation: isolate"/>
      <path id="Path_133" data-name="Path 133" d="M337.145,141.77a6.982,6.982,0,0,0,1.5.316,1.364,1.364,0,0,0,1.337-.555s-.091.9-.891,1-.882,0-.882,0A6.253,6.253,0,0,0,337.145,141.77Z" transform="translate(-327.55 -106.622)" style="mix-blend-mode: soft-light;isolation: isolate"/>
      <path id="Path_134" data-name="Path 134" d="M334.628,148.379s-1.253.544-2.713-1l.353,1.054S333.652,149.427,334.628,148.379Z" transform="translate(-324.132 -110.447)" style="mix-blend-mode: soft-light;isolation: isolate"/>
      <path id="Path_135" data-name="Path 135" d="M327.393,153.1s-.821.211-1.173-.927-.268-1.137-.268-1.137l-.123,1.236S326.011,153.855,327.393,153.1Z" transform="translate(-320.153 -112.835)" style="mix-blend-mode: soft-light;isolation: isolate"/>
      <path id="Path_136" data-name="Path 136" d="M322.363,154.275s.918.235,1.2-1.573l.1-1.009.273,1.091S324.1,154.647,322.363,154.275Z" transform="translate(-317.888 -113.264)" style="mix-blend-mode: soft-light;isolation: isolate"/>
      <path id="Path_137" data-name="Path 137" d="M316.49,172.486s.709,7.053,4.528,10.3c0,0,.37,2.044-1.391,2.291a2.7,2.7,0,0,1-2.869-1.528s1.237.661,1.9-.12a24.4,24.4,0,0,1-3.318-10.3s.714,0,.821.367C316.164,173.5,315.774,172.671,316.49,172.486Z" transform="translate(-313.299 -126.856)" style="mix-blend-mode: soft-light;isolation: isolate"/>
      <path id="Path_138" data-name="Path 138" d="M319.429,180.692s1.266,5.749,3.95,7.563c0,0,.067,2.226-1.894,1.915,0,0,.911-.255.7-1.8A17.66,17.66,0,0,1,319.429,180.692Z" transform="translate(-315.97 -132.22)" style="mix-blend-mode: soft-light;isolation: isolate"/>
      <path id="Path_139" data-name="Path 139" d="M412.3,172.537s-.862,7.541-4.766,10.685a1.634,1.634,0,0,0,1.3,2.1,2.693,2.693,0,0,0,2.942-1.223s-1.254.628-1.9-.17a29.008,29.008,0,0,0,3.555-10.719s-.714-.021-.83.345A1.586,1.586,0,0,0,412.3,172.537Z" transform="translate(-373.528 -126.89)" style="mix-blend-mode: soft-light;isolation: isolate"/>
      <path id="Path_140" data-name="Path 140" d="M412.668,182.189s-1.417,5.714-4.147,7.456c0,0-.16,1.994,1.809,1.734,0,0-.87-.049-.621-1.586A17.66,17.66,0,0,0,412.668,182.189Z" transform="translate(-374.204 -133.199)" style="mix-blend-mode: soft-light;isolation: isolate"/>
    </g>
  </g>
</svg>
