<svg xmlns="http://www.w3.org/2000/svg" xmlns:xlink="http://www.w3.org/1999/xlink" width="60.553" height="59.083" viewBox="0 0 60.553 59.083">
  <defs>
    <clipPath id="clip-path">
      <path id="Path_46" data-name="Path 46" d="M130.88,380.748c-4.888-.92-4.672-5.6-4.348-7.586a.82.82,0,0,1,1.033-.659l9.906,2.829a.819.819,0,0,1,.527,1.111C137.282,378.119,135.251,381.57,130.88,380.748Z" transform="translate(-126.387 -372.471)" fill="none"/>
    </clipPath>
  </defs>
  <g id="Group_15468" data-name="Group 15468" transform="translate(-140.4 -282.613)">
    <g id="Group_15462" data-name="Group 15462" transform="translate(140.4 306.622)">
      <path id="Path_3" data-name="Path 3" d="M588.006,1767.657a37.8,37.8,0,0,1,8.046-.86c5.291-.155,10.623.447,15.91.624,2.191.073,4.384.1,6.576.047a.5.5,0,0,1,.476.353l.049.144c2.382-.135,5.345.011,7.368,1.25,2.809,1.721-.283,4.627-2.248,5.393-3.545,1.383-7.946.681-11.613.252-1.754-.205-3.508-.461-5.274-.55-2.625-.132-5.278.108-7.906.112a30.764,30.764,0,0,1-8.234-.943,13.482,13.482,0,0,1-5.284-2.558C583.98,1769.233,586.493,1768.037,588.006,1767.657Z" transform="translate(-582.445 -1740.35)" fill="#dfd9d8" style="mix-blend-mode: multiply;isolation: isolate"/>
      <g id="Group_11" data-name="Group 11" transform="translate(0 0)">
        <path id="Path_4" data-name="Path 4" d="M1231.657,1529.306c-1.916,4.406.706,8.2.187,8.4-1.616.6-4.856-.621-4.856-.621s.648-.42-.045-1.653c-1.045-1.862-7.032-.935-6.584,1.3.462,2.3,3.576,1.1,3.816,1.44,2.542,3.636,8.587,7.73,11.114,5.8s5.173-4.355,4.954-11.952C1240.082,1526.4,1233.207,1525.742,1231.657,1529.306Z" transform="translate(-1220.335 -1512.66)" fill="#eaa390"/>
        <g id="Group_1" data-name="Group 1" transform="translate(30.926 8.245)">
          <path id="Path_5" data-name="Path 5" d="M677.918,1432.359c3.337,1.928,1.223,9.2,1.376,10.766.071.722-.325,7.063-.325,7.063h0c1.955.763,4.759-.257,5.561,1.4.49,1.011-1.195.4-2.195.832.833-.012.66.584.271.628-4.876.327-5.579-2.03-5.563-2.031-.159-1.018-1.505-6.784-1.693-7.391C674.809,1441.86,673.589,1429.856,677.918,1432.359Z" transform="translate(-673.583 -1430.573)" fill="#eaa390"/>
          <path id="Path_6" data-name="Path 6" d="M757.523,1412.618c-.585-3.276-2.511-10.943,3.776-9.26,3.327.891,2.321,6.371,2.121,9.1A27.591,27.591,0,0,1,757.523,1412.618Z" transform="translate(-756.784 -1403.12)" fill="#b5bddc"/>
        </g>
        <g id="Group_2" data-name="Group 2" transform="translate(29.705 0)">
          <path id="Path_7" data-name="Path 7" d="M744.481,1242.115l-.187-.058c1.74-.58,1.29-3.118,1.29-3.118l1.361-.769c1.943,1.405,8.045,2.038,6.229,3.813a5.141,5.141,0,0,0-.816,1.014c-.7-.172-1.42-.293-2.135-.409a31.211,31.211,0,0,0-3.554-.521A14.974,14.974,0,0,0,744.481,1242.115Z" transform="translate(-744.294 -1238.17)" fill="#ded8d5" style="mix-blend-mode: multiply;isolation: isolate"/>
        </g>
        <g id="Group_3" data-name="Group 3" transform="translate(6.365 0)">
          <path id="Path_8" data-name="Path 8" d="M755.755,1244.876c5.69,1.065,10.886-2.7,11.177-2.771,1.94-.466,1.461-3.167,1.461-3.167l1.361-.769c1.943,1.405,8.045,2.038,6.229,3.813a11.51,11.51,0,0,0-1.432,2.4c-.366.795-.706,1.168.4,3.427,0,0-3.652,17.719-19.29,16.661a12.672,12.672,0,0,1-9.3-5.135C742.618,1254.42,742.98,1242.485,755.755,1244.876Z" transform="translate(-741.712 -1238.17)" fill="#eaa390"/>
          <path id="Path_9" data-name="Path 9" d="M772.338,1342.624a30.331,30.331,0,0,1-1.771-8.813,35.818,35.818,0,0,1,.648-11.154c4.439.07,8.875-2.046,10.135-2.644a17.854,17.854,0,0,0,3.308,2.875,20.3,20.3,0,0,0,5.055,2.67,12.4,12.4,0,0,1-.459,5.063C786.617,1339.594,779.371,1342.87,772.338,1342.624Z" transform="translate(-756.472 -1315.921)" fill="#0db7c5"/>
          <path id="Path_10" data-name="Path 10" d="M744.481,1242.115l-.187-.058c1.74-.58,1.29-3.118,1.29-3.118l1.361-.769c1.943,1.405,8.045,2.038,6.229,3.813a5.141,5.141,0,0,0-.816,1.014c-.3.74-.786,1.749-.786,1.749a18.712,18.712,0,0,1-4.993-2.023A2.608,2.608,0,0,0,744.481,1242.115Z" transform="translate(-718.902 -1238.17)" fill="#ded8d5" style="mix-blend-mode: multiply;isolation: isolate"/>
          <path id="Path_11" data-name="Path 11" d="M1168.088,1362.713a11.068,11.068,0,0,0,1.306.166,41.544,41.544,0,0,0-1.082,5.163,32.8,32.8,0,0,0-.616,7.187,22.486,22.486,0,0,0,1.713,7.506c-5.086-.612-9.839-3-12.376-6.33C1153.285,1371.493,1155.312,1360.322,1168.088,1362.713Z" transform="translate(-1155.35 -1356.173)" fill="#eae1dd"/>
        </g>
        <path id="Path_26" data-name="Path 26" d="M1153.942,1527.644c.727,4.75,4.967,6.565,4.632,7-1.046,1.373-4.44,2.062-4.44,2.062s.325-.7-.919-1.375c-1.877-1.018-6.449,2.957-4.88,4.608,1.614,1.7,3.614-.972,4-.815,4.089,1.723,11.386,1.965,12.5-1.011s2.057-6.441-2.176-12.753C1159.521,1520.694,1153.354,1523.8,1153.942,1527.644Z" transform="translate(-1142.236 -1508.778)" fill="#f7b5a4"/>
        <g id="Group_10" data-name="Group 10" transform="translate(27.519 9.499)">
          <path id="Path_27" data-name="Path 27" d="M764.061,1446.655c3.337,1.929,1.226,9.672,1.379,11.234.07.722-.326,7.063-.326,7.063h0c1.955.763,4.759-.258,5.561,1.4.49,1.011-1.534,1.416-1.924,1.46-4.876.326-5.579-2.029-5.564-2.031-.159-1.018-1.505-6.784-1.692-7.391C760.955,1456.623,759.732,1444.152,764.061,1446.655Z" transform="translate(-760.005 -1445.418)" fill="#f7b5a4"/>
          <path id="Path_28" data-name="Path 28" d="M845.343,1438.053c-.585-3.277-2.293-11.05,3.55-9.7,3.358.777,2.144,6.542,1.944,9.27C851.593,1437.748,847.561,1438.175,845.343,1438.053Z" transform="translate(-844.654 -1428.199)" fill="#059fac"/>
        </g>
      </g>
    </g>
    <g id="Group_15463" data-name="Group 15463" transform="translate(164.127 294.806)">
      <path id="Path_23" data-name="Path 23" d="M92.969,345.984a2.848,2.848,0,1,1-1.367,3.789,2.849,2.849,0,0,1,1.367-3.789Z" transform="translate(-91.331 -345.713)" fill="#f0d0b0" fill-rule="evenodd"/>
      <path id="Path_24" data-name="Path 24" d="M97.922,349.331a2.1,2.1,0,1,1-1.006,2.788,2.1,2.1,0,0,1,1.006-2.788Z" transform="translate(-94.962 -348.019)" fill="#e2b586" fill-rule="evenodd"/>
    </g>
    <g id="Group_15464" data-name="Group 15464" transform="translate(194.959 302.662)">
      <path id="Path_25" data-name="Path 25" d="M192.006,370.975a2.848,2.848,0,1,0-.595,3.984,2.849,2.849,0,0,0,.595-3.984Z" transform="translate(-186.572 -369.821)" fill="#f0d0b0" fill-rule="evenodd"/>
      <path id="Path_26-2" data-name="Path 26" d="M189.725,372.5a2.1,2.1,0,1,0-.437,2.931,2.1,2.1,0,0,0,.437-2.931Z" transform="translate(-185.948 -371.054)" fill="#e2b586" fill-rule="evenodd"/>
    </g>
    <path id="Path_11195" data-name="Path 11195" d="M102.035,324.556c-3.27,12.452,1.514,18.79,12.392,20.586,11,.888,17.155-4.138,16.993-16.994-.222-15.379-25.491-18.467-29.386-3.592Z" transform="translate(66.263 -30.115)" fill="#f0d0b0" fill-rule="evenodd"/>
    <path id="Path_11196" data-name="Path 11196" d="M103.224,336.815c1.392,5.429,5.893,8.5,12.957,9.667a20.873,20.873,0,0,0,8.659-.888c-2.725,1.494-6.216,2.018-10.414,1.675-7.044-1.15-11.524-4.219-12.937-9.607a18.818,18.818,0,0,1-.283-6.922,34.618,34.618,0,0,1,.828-4.057,12.366,12.366,0,0,1,7.931-8.659,12.211,12.211,0,0,0-6.2,7.872,30.686,30.686,0,0,0-.948,5.429,17.045,17.045,0,0,0,.4,5.49Z" transform="translate(66.264 -32.241)" fill="#e2b586" fill-rule="evenodd"/>
    <g id="Group_15465" data-name="Group 15465" transform="translate(174.025 282.613)">
      <g id="Group_14" data-name="Group 14" transform="translate(12.796 16.817)">
        <path id="Path_37" data-name="Path 37" d="M161.079,361.863a2.7,2.7,0,1,0,3.34-1.856A2.7,2.7,0,0,0,161.079,361.863Z" transform="translate(-160.975 -359.902)" fill="#fff"/>
        <path id="Path_38" data-name="Path 38" d="M162.285,363.787a2.007,2.007,0,1,0,2.481-1.379A2.008,2.008,0,0,0,162.285,363.787Z" transform="translate(-161.806 -361.539)" fill="#382417"/>
        <path id="Path_39" data-name="Path 39" d="M165.767,365.364a.553.553,0,1,0,.683-.379A.554.554,0,0,0,165.767,365.364Z" transform="translate(-164.191 -363.314)" fill="#fff"/>
      </g>
      <g id="Group_15" data-name="Group 15" transform="translate(0 13.163)">
        <path id="Path_40" data-name="Path 40" d="M121.81,350.652a2.7,2.7,0,1,0,3.341-1.856A2.7,2.7,0,0,0,121.81,350.652Z" transform="translate(-121.705 -348.691)" fill="#fff"/>
        <path id="Path_41" data-name="Path 41" d="M123.014,352.576A2.008,2.008,0,1,0,125.5,351.2,2.008,2.008,0,0,0,123.014,352.576Z" transform="translate(-122.535 -350.328)" fill="#382417"/>
        <path id="Path_42" data-name="Path 42" d="M126.5,354.152a.553.553,0,1,0,.684-.38A.553.553,0,0,0,126.5,354.152Z" transform="translate(-124.921 -352.102)" fill="#fff"/>
      </g>
      <path id="Path_43" data-name="Path 43" d="M142.362,367.072s.238-1.489,1.6-1.12c1.415.384.717,1.956.717,1.956Z" transform="translate(-135.631 -347.124)" fill="#e2b586"/>
      <g id="Group_20" data-name="Group 20" transform="translate(1.525 20.912)">
        <g id="Group_19" data-name="Group 19" clip-path="url(#clip-path)">
          <g id="Group_17" data-name="Group 17">
            <g id="Group_16" data-name="Group 16">
              <path id="Path_44" data-name="Path 44" d="M130.88,380.748c-4.888-.92-4.672-5.6-4.348-7.586a.82.82,0,0,1,1.033-.659l9.906,2.829a.819.819,0,0,1,.527,1.111C137.282,378.119,135.251,381.57,130.88,380.748Z" transform="translate(-126.387 -372.471)" fill="#e8a2cc"/>
            </g>
          </g>
          <g id="Group_18" data-name="Group 18" transform="translate(0.007)">
            <path id="Path_45" data-name="Path 45" d="M135.721,379.616a12.739,12.739,0,0,0-9.313-5.07,11.285,11.285,0,0,1,.139-1.384.82.82,0,0,1,1.033-.659l9.906,2.829a.819.819,0,0,1,.527,1.111A8.377,8.377,0,0,1,135.721,379.616Z" transform="translate(-126.408 -372.471)" fill="#382417"/>
          </g>
        </g>
      </g>
      <path id="Path_47" data-name="Path 47" d="M174.7,351.038a4.679,4.679,0,0,1,1.955,1.374,3.081,3.081,0,0,1,1.054,2.081c0,.065-.036.3-.138.288-.228-.023-.342-.282-.454-.465a6.652,6.652,0,0,0-.826-1.033,25.169,25.169,0,0,1-1.706-1.925C174.54,351.3,174.614,351.011,174.7,351.038Z" transform="translate(-157.343 -337.108)" fill="#382417"/>
      <path id="Path_48" data-name="Path 48" d="M122.2,338.013a6.762,6.762,0,0,1,4.367-1.131c.059.007-.02.241-.069.258-.75.253-1.5.478-2.259.7a8.188,8.188,0,0,1-2.115.459C122.058,338.3,122.165,338.037,122.2,338.013Z" transform="translate(-121.975 -327.543)" fill="#382417"/>
      <path id="Path_49" data-name="Path 49" d="M145.942,313.84a12.01,12.01,0,0,0,1.11,2.419,3.939,3.939,0,0,1-1.6,1.057c-1.731.584-2.626-.459-4.034-1.206-.133-.071-.381.335-.342.447.856,2.479,3.72,2.14,5.39.794a6.913,6.913,0,0,0,.816-.78,2.457,2.457,0,0,0,1.555.936c.115.016.4-.38.294-.466a6.712,6.712,0,0,1-1.2-1.307,7.516,7.516,0,0,0,1.317-4.064c.01-1.873-2.242-4.965-3.714-2.391C144.705,310.73,145.391,312.406,145.942,313.84Zm.994,0a15.482,15.482,0,0,1-1.155-3.272c-.291-2.155,1.2-1.75,1.858-.974a3.573,3.573,0,0,1,.788,1.389,5.062,5.062,0,0,1,.122,2.163,6.524,6.524,0,0,1-.841,2.254A9.1,9.1,0,0,1,146.936,313.835Z" transform="translate(-134.761 -308.296)" fill="#e5b242"/>
    </g>
  </g>
</svg>
