<svg xmlns="http://www.w3.org/2000/svg" width="27" height="27.577" viewBox="0 0 27 27.577">
  <g id="calendar_1_" data-name="calendar (1)" transform="translate(-5.451)">
    <path id="Path_324" data-name="Path 324" d="M28.8,26.972H9.1A3.148,3.148,0,0,0,5.951,30.12V48.459A3.148,3.148,0,0,0,9.1,51.607H28.8a3.148,3.148,0,0,0,3.148-3.148V30.12A3.148,3.148,0,0,0,28.8,26.972Z" transform="translate(0 -24.53)" fill="#ebf0f3" stroke="rgba(214,11,81,0.51)" stroke-width="1"/>
    <path id="Path_325" data-name="Path 325" d="M31.951,22.364V18.55A3.148,3.148,0,0,0,28.8,15.4H9.1A3.148,3.148,0,0,0,5.951,18.55v3.814Z" transform="translate(0 -14.007)" fill="#ce412d"/>
    <path id="Path_326" data-name="Path 326" d="M31.951,33.6V30.12A3.148,3.148,0,0,0,28.8,26.972H9.1A3.148,3.148,0,0,0,5.951,30.12V33.6Z" transform="translate(0 -24.53)" fill="#d60b51"/>
    <path id="Path_327" data-name="Path 327" d="M51.866,45.645a1.1,1.1,0,1,0,1.1,1.1A1.1,1.1,0,0,0,51.866,45.645Z" transform="translate(-40.758 -41.512)" fill="#d15241"/>
    <path id="Path_328" data-name="Path 328" d="M57,0a.588.588,0,0,0-.588.588v4.58a.588.588,0,0,0,1.176,0V.588A.588.588,0,0,0,57,0Z" transform="translate(-45.89)" fill="#4d5c7d"/>
    <path id="Path_329" data-name="Path 329" d="M109.619,45.645a1.1,1.1,0,1,0,1.1,1.1A1.1,1.1,0,0,0,109.619,45.645Z" transform="translate(-93.282 -41.512)" fill="#d15241"/>
    <path id="Path_330" data-name="Path 330" d="M114.751,0a.588.588,0,0,0-.588.588v4.58a.588.588,0,1,0,1.176,0V.588A.588.588,0,0,0,114.751,0Z" transform="translate(-98.414)" fill="#4d5c7d"/>
    <path id="Path_331" data-name="Path 331" d="M167.372,45.645a1.1,1.1,0,1,0,1.1,1.1A1.1,1.1,0,0,0,167.372,45.645Z" transform="translate(-145.806 -41.512)" fill="#d15241"/>
    <path id="Path_332" data-name="Path 332" d="M172.5,0a.588.588,0,0,0-.588.588v4.58a.588.588,0,0,0,1.176,0V.588A.588.588,0,0,0,172.5,0Z" transform="translate(-150.938)" fill="#4d5c7d"/>
    <path id="Path_333" data-name="Path 333" d="M225.125,45.645a1.1,1.1,0,1,0,1.1,1.1A1.1,1.1,0,0,0,225.125,45.645Z" transform="translate(-198.33 -41.512)" fill="#d15241"/>
    <path id="Path_334" data-name="Path 334" d="M230.256,0a.588.588,0,0,0-.588.588v4.58a.588.588,0,0,0,1.176,0V.588A.588.588,0,0,0,230.256,0Z" transform="translate(-203.461)" fill="#4d5c7d"/>
    <g id="Group_68" data-name="Group 68" transform="translate(11.107 13.418)">
      <path id="Path_335" data-name="Path 335" d="M111.907,148.2h2.376v2.376h-2.376Z" transform="translate(-107.47 -148.197)" fill="#d60b51"/>
      <path id="Path_336" data-name="Path 336" d="M160.911,148.2h2.376v2.376h-2.376Z" transform="translate(-152.037 -148.197)" fill="#d60b51"/>
      <path id="Path_337" data-name="Path 337" d="M209.916,148.2h2.376v2.376h-2.376Z" transform="translate(-196.605 -148.197)" fill="#d60b51"/>
      <path id="Path_338" data-name="Path 338" d="M62.9,189.34h2.376v2.376H62.9Z" transform="translate(-62.902 -185.615)" fill="#d60b51"/>
      <path id="Path_339" data-name="Path 339" d="M111.907,189.34h2.376v2.376h-2.376Z" transform="translate(-107.47 -185.615)" fill="#d60b51"/>
      <path id="Path_340" data-name="Path 340" d="M160.911,189.34h2.376v2.376h-2.376Z" transform="translate(-152.037 -185.615)" fill="#d60b51"/>
      <path id="Path_341" data-name="Path 341" d="M209.916,189.34h2.376v2.376h-2.376Z" transform="translate(-196.605 -185.615)" fill="#d60b51"/>
      <path id="Path_342" data-name="Path 342" d="M62.9,230.483h2.376v2.376H62.9Z" transform="translate(-62.902 -223.033)" fill="#d60b51"/>
      <path id="Path_343" data-name="Path 343" d="M111.907,230.483h2.376v2.376h-2.376Z" transform="translate(-107.47 -223.033)" fill="#d60b51"/>
      <path id="Path_344" data-name="Path 344" d="M160.911,230.483h2.376v2.376h-2.376Z" transform="translate(-152.037 -223.033)" fill="#d60b51"/>
    </g>
  </g>
</svg>
