<svg xmlns="http://www.w3.org/2000/svg" width="56.291" height="52.793" viewBox="0 0 56.291 52.793">
  <g id="dislike" transform="translate(0 0)">
    <g id="Group_15472" data-name="Group 15472" transform="translate(0 5.489)">
      <path id="Path_11200" data-name="Path 11200" d="M220.787,77.384a4.789,4.789,0,0,1-2.809-.9c-1.678-1.2-2.941-3.893-.975-7.54l3.05-5.658H208.7a5.2,5.2,0,0,1-.9-10.322,5.2,5.2,0,0,1,3.648-7.666,5.2,5.2,0,0,1,4.537-7.739h.8a5.2,5.2,0,0,1,4.676-7.481H248.3a1.368,1.368,0,0,1,1.369,1.368V61.92a1.368,1.368,0,0,1-1.369,1.368H236.334L225.288,75.244A6.22,6.22,0,0,1,220.787,77.384Z" transform="translate(-203.5 -30.08)" fill="#ffe4c1"/>
    </g>
    <path id="Path_11201" data-name="Path 11201" d="M211.442,113.452l0,.007a5.2,5.2,0,0,0-3.648,7.666,5.2,5.2,0,0,0,.9,10.322h11.352L217,137.105c-1.966,3.647-.7,6.341.975,7.54a4.789,4.789,0,0,0,2.809.9,6.219,6.219,0,0,0,4.5-2.141l11.046-11.955H248.3a1.368,1.368,0,0,0,1.369-1.368V113.452H211.442Z" transform="translate(-203.5 -92.751)" fill="#fdd1a3"/>
    <g id="Group_15473" data-name="Group 15473" transform="translate(35.671 0)">
      <path id="Path_11202" data-name="Path 11202" d="M416.876,41.4H401.73a2.737,2.737,0,0,1-2.737-2.737V2.737A2.737,2.737,0,0,1,401.73,0h15.146a2.737,2.737,0,0,1,2.737,2.737V38.666A2.737,2.737,0,0,1,416.876,41.4Z" transform="translate(-398.993)" fill="#d60b51"/>
    </g>
    <path id="Path_11204" data-name="Path 11204" d="M398.993,113.453v17.964a2.737,2.737,0,0,0,2.737,2.737h15.146a2.737,2.737,0,0,0,2.737-2.737V113.453Z" transform="translate(-363.322 -92.752)" fill="#bd0058"/>
  </g>
</svg>
