<svg xmlns="http://www.w3.org/2000/svg" width="49.039" height="54.367" viewBox="0 0 49.039 54.367">
  <g id="family" transform="translate(-24.43 0)">
    <path id="Path_11241" data-name="Path 11241" d="M87.033,241.565,88.07,226.78a10.033,10.033,0,0,0-3.053-2.893l-9.945-6.121-18.8-.069-10.119,6.19a10.079,10.079,0,0,0-3.033,2.882l.012.011v5.783l1.282,15.757H87.168C87.033,246.22,87.033,241.565,87.033,241.565Z" transform="translate(-16.654 -193.958)" fill="#b3adb5"/>
    <g id="Group_15482" data-name="Group 15482" transform="translate(26.468 23.739)">
      <path id="Path_11242" data-name="Path 11242" d="M244.255,438.2v-6.57a.818.818,0,1,0-1.636,0v6.57Z" transform="translate(-220.865 -407.576)" fill="#a59ca6"/>
      <path id="Path_11243" data-name="Path 11243" d="M258.394,220.994l-4.334-2.667H250.35l.306,1.6a26.242,26.242,0,0,1-2.551,16.3l-4.087,6.427h.665v3.7l.549-.291c5.663-3,11.02-7.659,13.981-12.169l.192-.293h.672a1.64,1.64,0,0,0,1.639-1.638,19.783,19.783,0,0,0-3.322-10.97Z" transform="translate(-222.111 -218.258)" fill="#a59ca6"/>
      <path id="Path_11244" data-name="Path 11244" d="M62.109,235.669a26.243,26.243,0,0,1-2.9-11.5H52.3l4.28-2.618V217.7h-.31l-10.119,6.19a10.08,10.08,0,0,0-3.033,2.882l.012.011v5.783l.084,1.038H45.48a10.069,10.069,0,0,1,1.761-5.292l-.012-.011a9.966,9.966,0,0,1,.755-.965.493.493,0,0,1,.852.42,19.7,19.7,0,0,0-.339,3.639,1.645,1.645,0,0,0,1.639,1.648h.672l.193.294c2.781,4.237,8.869,9.28,14.148,12.279l1.156-.982Z" transform="translate(-43.122 -217.697)" fill="#a59ca6"/>
    </g>
    <path id="Path_11245" data-name="Path 11245" d="M192.012,185.6l-.487-2.555-5.772-2.949-4.224.473-4.088,2.32c-.3,1.518-.522,2.71-.522,2.71a27.609,27.609,0,0,0,2.729,17.331l3.327,6.4h2.981l3.327-6.4A27.609,27.609,0,0,0,192.012,185.6Z" transform="translate(-135.516 -160.457)" fill="#f8f7f8"/>
    <g id="Group_15483" data-name="Group 15483" transform="translate(45.866 26.741)">
      <path id="Path_11246" data-name="Path 11246" d="M225.377,248.543l1.794,15.75-3.035,4.322-3.129-4.322,1.794-15.75.344-3.319h1.778Z" transform="translate(-221.006 -245.224)" fill="#a59ca6"/>
    </g>
    <g id="Group_15487" data-name="Group 15487" transform="translate(41.026 0)">
      <g id="XMLID_103_" transform="translate(2.684 18.516)">
        <g id="Group_15484" data-name="Group 15484">
          <path id="Path_11247" data-name="Path 11247" d="M211.716,170.637h0l0,.158a5.116,5.116,0,0,1-3.689,4.845l-1.546.449-1.546-.449a5.116,5.116,0,0,1-3.689-4.845l0-.158h0c.134-.088,1.254-.7,1.254-.7a1.16,1.16,0,0,1,.551-.139h6.864a1.16,1.16,0,0,1,.551.139S211.582,170.548,211.716,170.637Z" transform="translate(-201.241 -169.796)" fill="#efedee"/>
        </g>
      </g>
      <circle id="Ellipse_434" data-name="Ellipse 434" cx="1.804" cy="1.804" r="1.804" transform="translate(6.118 18.309)" fill="#e5827f"/>
      <g id="Group_15486" data-name="Group 15486" transform="translate(1.783)">
        <g id="Group_15485" data-name="Group 15485">
          <path id="Path_11248" data-name="Path 11248" d="M199.114,15.479a1.636,1.636,0,0,1-1.636-1.636v-3.2a1.636,1.636,0,0,1,1.636-1.636,2.869,2.869,0,0,0,2.863-3.022,2.868,2.868,0,0,0-5.7-.247,2.915,2.915,0,0,0-.028.4,1.636,1.636,0,0,1-3.271,0,6.213,6.213,0,0,1,.059-.854,6.14,6.14,0,1,1,7.715,6.769v1.789A1.636,1.636,0,0,1,199.114,15.479Z" transform="translate(-192.975 0)" fill="#e5827f"/>
        </g>
      </g>
      <path id="Path_11249" data-name="Path 11249" d="M192.094,189.636l-.487-2.555-4.181-2.136a2.916,2.916,0,0,1-1.941,1.815l-.938.273-.939-.273a2.914,2.914,0,0,1-2.034-2.133l-4.052,2.3c-.3,1.518-.522,2.71-.522,2.71a27.614,27.614,0,0,0-.375,3.859v0l1.717,1.919a2.742,2.742,0,0,0,4.182-.112l1.515-1.888a.648.648,0,0,1,1.011,0l1.515,1.888a2.742,2.742,0,0,0,4.182.112l1.718-1.919v0A27.589,27.589,0,0,0,192.094,189.636Z" transform="translate(-176.625 -164.493)" fill="#efedee"/>
      <path id="Path_11250" data-name="Path 11250" d="M210.312,231.731l.778,1.339a.506.506,0,0,0,.437.252h3.444a.506.506,0,0,0,.437-.252l.778-1.339,1.459-2.764-4.451-.827-4.354.475Z" transform="translate(-205.327 -203.262)" fill="#b3adb5"/>
    </g>
    <path id="Path_11251" data-name="Path 11251" d="M117.295,226.025l4.851,7.63c-4.961-2.625-10.273-6.863-13.359-11.564l-.644-.982h-1.5a.112.112,0,0,1-.112-.111,18.235,18.235,0,0,1,6.13-13.637l2.424-1.375c-.3,1.518-.522,2.71-.522,2.71A27.609,27.609,0,0,0,117.295,226.025Z" transform="translate(-73.151 -183.522)" fill="#b3adb5"/>
    <path id="Path_11252" data-name="Path 11252" d="M158.836,207.471a7.63,7.63,0,0,0,1.94,4.816,27.594,27.594,0,0,1,.375-3.86s.227-1.192.522-2.71l-2.424,1.375Q159.039,207.278,158.836,207.471Z" transform="translate(-119.749 -183.284)" fill="#a59ca6"/>
    <path id="Path_11253" data-name="Path 11253" d="M258.755,208.356l-2.389-1.22.487,2.555a27.609,27.609,0,0,1-2.729,17.331l-4.837,7.607.045.052c4.927-2.631,10.238-6.93,13.3-11.593l.644-.982h1.5a.112.112,0,0,0,.112-.111A18.234,18.234,0,0,0,258.755,208.356Z" transform="translate(-200.337 -184.549)" fill="#b3adb5"/>
    <path id="Path_11254" data-name="Path 11254" d="M316.592,208.356l-2.389-1.22.487,2.555a27.593,27.593,0,0,1,.374,3.837,7.633,7.633,0,0,0,1.922-4.813Q316.792,208.533,316.592,208.356Z" transform="translate(-258.174 -184.549)" fill="#a59ca6"/>
    <path id="Path_11255" data-name="Path 11255" d="M254.509,177.516a5.458,5.458,0,0,1,1.058,8.193l-1.717,1.919a.561.561,0,0,1-.856-.023l-3.722-4.637,1.546-.449a5.116,5.116,0,0,0,3.689-4.845Z" transform="translate(-200.323 -158.159)" fill="#f8f7f8"/>
    <path id="Path_11256" data-name="Path 11256" d="M186.47,182.968l-3.722,4.637a.561.561,0,0,1-.856.023l-1.717-1.919a5.458,5.458,0,0,1,1.058-8.193l0,.158a5.116,5.116,0,0,0,3.689,4.845Z" transform="translate(-137.522 -158.159)" fill="#f8f7f8"/>
    <path id="Path_11257" data-name="Path 11257" d="M31.953,322.531h-6.33a1.193,1.193,0,0,1-1.193-1.216l.28-14.812a10.068,10.068,0,0,1,1.77-5.518l5.2,7.1a1.4,1.4,0,0,1,.27.825Z" transform="translate(0 -268.165)" fill="#a59ca6"/>
    <path id="Path_11258" data-name="Path 11258" d="M28.819,308.033a10.057,10.057,0,0,1,.553-3.1l-2.89-3.943a10.068,10.068,0,0,0-1.77,5.518l-.28,14.812a1.193,1.193,0,0,0,1.193,1.216h2.92Z" transform="translate(-0.001 -268.165)" fill="#8f8390"/>
    <g id="XMLID_173_" transform="translate(65.943 32.821)">
      <g id="Group_15488" data-name="Group 15488">
        <path id="Path_11259" data-name="Path 11259" d="M412.364,306.5l.283,14.95a1.057,1.057,0,0,1-1.057,1.077h-6.468V308.908a1.4,1.4,0,0,1,.27-.825l5.2-7.1A10.069,10.069,0,0,1,412.364,306.5Z" transform="translate(-405.121 -300.986)" fill="#a59ca6"/>
      </g>
    </g>
  </g>
</svg>
