<svg xmlns="http://www.w3.org/2000/svg" width="45.577" height="89.976" viewBox="0 0 45.577 89.976">
  <g id="father" transform="translate(46.271 380.867)">
    <g id="Group_35" data-name="Group 35" transform="translate(-39.573 -380.867)">
      <g id="Group_34" data-name="Group 34" transform="translate(0 2.934)">
        <g id="Group_25" data-name="Group 25">
          <g id="Group_24" data-name="Group 24">
            <g id="Group_23" data-name="Group 23">
              <path id="Path_7" data-name="Path 7" d="M1405.591,1123.776s-1.056.775-1.157.683a1.187,1.187,0,0,1,.64-1.5s.087-.592.288-1.525l-.441-2.178.566-.142,1.459,1.966Z" transform="translate(-1368.932 -1039.227)" fill="#c7552f"/>
              <path id="Path_11235" data-name="Path 11235" d="M1405.711,1123.776s1.056.775,1.157.683a1.187,1.187,0,0,0-.64-1.5s-.087-.592-.288-1.525l.441-2.178-.566-.142-1.459,1.966Z" transform="matrix(0.995, 0.105, -0.105, 0.995, -1284.774, -1181.389)" fill="#c7552f"/>
              <path id="Path_8" data-name="Path 8" d="M1404.021,1116.012a3.127,3.127,0,0,1-.721.244c-.125-.023-.58-.629,1.07-1.782,0,0,.225-1.544.258-2.141,0,0-.524-1.113-1.383-2.621-.226-.4.549-.568.549-.568l1.686,3.424-.718,3.106Z" transform="translate(-1367.838 -1030.199)" fill="#e47344"/>
              <path id="Path_11234" data-name="Path 11234" d="M1404.607,1116.012a3.127,3.127,0,0,0,.721.244c.125-.023.58-.629-1.07-1.782,0,0-.225-1.544-.258-2.141,0,0,.524-1.113,1.383-2.621.226-.4-.549-.568-.549-.568l-1.686,3.424.718,3.106Z" transform="matrix(0.995, 0.105, -0.105, 0.995, -1284.145, -1172.245)" fill="#e47344"/>
              <path id="Path_9" data-name="Path 9" d="M1386.925,1064.422a14.621,14.621,0,0,1-.726,2.383,6.214,6.214,0,0,0-.573,1.863,24.156,24.156,0,0,0-.2,3.7,15.419,15.419,0,0,0,.544,1.57s.865-.3.686-1.63a4.177,4.177,0,0,1,.879-2.871,8.049,8.049,0,0,1,1.441,3s-.235,1.433-.4,2.116c0,0-1.83,1.272-1.169,2.2,0,0,1.76-1.173,2.471-1.564.52-.286.738-4.406.761-4.845s-.6-5.383-.674-5.756Z" transform="translate(-1351.763 -989.709)" fill="#f99160"/>
              <path id="Path_11233" data-name="Path 11233" d="M1389.107,1064.422a14.621,14.621,0,0,0,.726,2.383,6.214,6.214,0,0,1,.573,1.863,24.156,24.156,0,0,1,.2,3.7,15.419,15.419,0,0,1-.544,1.57s-.865-.3-.686-1.63a4.177,4.177,0,0,0-.879-2.871,8.049,8.049,0,0,0-1.441,3s.235,1.433.4,2.116c0,0,1.83,1.272,1.169,2.2,0,0-1.76-1.173-2.471-1.564-.52-.286-.738-4.406-.761-4.845s.6-5.383.674-5.756Z" transform="matrix(0.995, 0.105, -0.105, 0.995, -1271.948, -1130.251)" fill="#f99160"/>
              <path id="Path_10" data-name="Path 10" d="M1332.641,578.4s3.144,1.157,4.352,2.86c1.352,1.905,1.791,12.847,2.162,15.509s.686,3.2.287,6.072a5,5,0,0,1,.817,2.394,25.06,25.06,0,0,0-.015,3.145c.024,1.708.609,11.527.37,13.514-.19,1.577-4.242.383-4.242.383s-.934-7.274-1.505-10.977c-.423-2.737-1.061-6.482-1.271-7.9s-2.125-9.3-3.12-9.319Z" transform="translate(-1302.043 -549.695)" fill="#0a1435"/>
              <path id="Path_11230" data-name="Path 11230" d="M1337.8,578.4s-2.868,1.157-3.97,2.86c-1.233,1.905-1.634,12.847-1.972,15.509s-.626,3.2-.262,6.072a5.306,5.306,0,0,0-.745,2.394,27.454,27.454,0,0,1,.013,3.145c-.022,1.708-.555,11.527-.337,13.514.174,1.577,3.87.383,3.87.383s.852-7.274,1.373-10.977c.386-2.737.968-6.482,1.16-7.9s1.939-9.3,2.847-9.319Z" transform="matrix(0.995, 0.105, -0.105, 0.995, -1263.074, -686.88)" fill="#0a1435"/>
              <path id="Path_11" data-name="Path 11" d="M1340.613,718.581c.007-.06.014-.128.019-.2-.713-.021-1.433-1.341-2.041-1.606-.659-.287-1.138.944-1.838,1.1s.818-2.346.975-2.9-1.047-1.566-1.3-2.272a13.36,13.36,0,0,1-.568-2.672c.017-.314,2.791,3.044,2.965,2.487s-2.486-3.216-2.989-4.376-.92-2.754-.438-2.916,4.367,4.7,4.52,4.206-4.857-5.546-4.857-5.546,1.317-2.255,1.537-2.809-2.38-2.519-2.663-3.1.636-3.614,1.065-5.729-3.519-7.045-3.519-7.045c-.22.05-.2.8-.365.967l-.637,4.608c1,.023,2.912,7.9,3.12,9.319s.849,5.161,1.271,7.9c.571,3.7,1.505,10.977,1.505,10.977S1340.422,720.157,1340.613,718.581Z" transform="translate(-1302.043 -646.379)" fill="#050f26"/>
              <path id="Path_11231" data-name="Path 11231" d="M1330.49,718.581c-.006-.06-.013-.128-.017-.2.65-.021,1.307-1.341,1.861-1.606.6-.287,1.038.944,1.676,1.1s-.746-2.346-.889-2.9.955-1.566,1.188-2.272a14.494,14.494,0,0,0,.518-2.672c-.016-.314-2.546,3.044-2.7,2.487s2.267-3.216,2.726-4.376.839-2.754.4-2.916-3.983,4.7-4.122,4.206,4.43-5.546,4.43-5.546-1.2-2.255-1.4-2.809,2.171-2.519,2.429-3.1-.58-3.614-.971-5.729,3.209-7.045,3.209-7.045c.2.05.178.8.333.967l.581,4.608c-.908.023-2.655,7.9-2.846,9.319s-.774,5.161-1.16,7.9c-.521,3.7-1.373,10.977-1.373,10.977S1330.664,720.157,1330.49,718.581Z" transform="matrix(0.995, 0.105, -0.105, 0.995, -1252.929, -783.031)" fill="#050f26"/>
              <g id="Group_22" data-name="Group 22" transform="translate(5.946)">
                <g id="Group_21" data-name="Group 21">
                  <path id="Path_18" data-name="Path 18" d="M1122.271,1013.773c-.1-2.224-.188-3.8-.188-3.8l-11.562.723-11.171-1.239s-.178,1.858-.38,4.385C1102.3,1014.68,1112.154,1016.659,1122.271,1013.773Z" transform="translate(-1098.4 -939.943)" fill="#06070c"/>
                  <path id="Path_19" data-name="Path 19" d="M1118.526,497.514c-.1-.474-.212-.763-.311-.817-.69-.377-8.477-2.637-8.477-2.637-.439-.753-.468-4.647-.468-4.647l-3.314-1.238v-.019l-.024.009-.024-.009v.019l-3.314,1.238s-.029,3.894-.469,4.647c0,0-7.238,2.117-7.928,2.494a2.122,2.122,0,0,0-.415.984l12.056.668Z" transform="translate(-1093.703 -467.992)" fill="#ef7746"/>
                  <path id="Path_20" data-name="Path 20" d="M1191.227,493.494a4.676,4.676,0,0,0,1.931-.953c-.141-1.38-.154-3.128-.154-3.128l-3.314-1.238v-.019l-.024.009-.024-.009v.019l-3.314,1.238s-.007.85-.058,1.832C1187.388,492.034,1189.978,493.736,1191.227,493.494Z" transform="translate(-1177.437 -467.992)" fill="#c74921"/>
                  <g id="Group_20" data-name="Group 20" transform="translate(2.286)">
                    <g id="Group_13" data-name="Group 13">
                      <g id="Group_12" data-name="Group 12">
                        <g id="Group_6" data-name="Group 6" transform="translate(17.678 10.092)">
                          <path id="Path_21" data-name="Path 21" d="M1304.182,383.245a2.989,2.989,0,0,1,2.149-1.5c.777-.012.547,3.179-.254,4a1.33,1.33,0,0,1-2.225-.18Z" transform="translate(-1303.852 -381.75)" fill="#f99160"/>
                          <path id="Path_22" data-name="Path 22" d="M1309.23,392.514a1.157,1.157,0,0,0,1.4-.471,3.179,3.179,0,0,0,.5-2.511s-.9.21-1.733,1.892C1309.4,391.423,1310.01,392.181,1309.23,392.514Z" transform="translate(-1308.721 -388.794)" fill="#d43e22" opacity="0.4"/>
                          <g id="Group_3" data-name="Group 3" transform="translate(0.414 0.66)">
                            <g id="Group_2" data-name="Group 2">
                              <path id="Path_23" data-name="Path 23" d="M1310.358,389.82c-.009-.154-.017-.308-.035-.46a2.08,2.08,0,0,0-.086-.439.265.265,0,0,0-.046-.077c-.019,0-.009-.013-.04.006a.957.957,0,0,0-.191.118,3.968,3.968,0,0,0-.349.279,5.054,5.054,0,0,0-.615.664,3.837,3.837,0,0,0-.258.37,1.6,1.6,0,0,0-.106.2l-.1.2-.012-.075a1.393,1.393,0,0,1,.188.339.79.79,0,0,1,.054.385.485.485,0,0,1-.2.33.908.908,0,0,1-.336.158,1.038,1.038,0,0,0,.3-.2.434.434,0,0,0,.139-.3.95.95,0,0,0-.262-.619l-.03-.036.018-.039.1-.215a1.757,1.757,0,0,1,.107-.211,4,4,0,0,1,.26-.393,4.162,4.162,0,0,1,.647-.678c.057-.054.123-.1.183-.147a1.525,1.525,0,0,1,.2-.136,1.148,1.148,0,0,1,.21-.109.152.152,0,0,1,.172.025.355.355,0,0,1,.066.124,1.649,1.649,0,0,1,.049.471A4.173,4.173,0,0,1,1310.358,389.82Z" transform="translate(-1308.227 -388.72)" fill="#85362d"/>
                            </g>
                          </g>
                          <g id="Group_5" data-name="Group 5" transform="translate(1.173 1.516)">
                            <g id="Group_4" data-name="Group 4">
                              <path id="Path_24" data-name="Path 24" d="M1317.333,398.158a.923.923,0,0,0-.149-.113.736.736,0,0,0-.163-.066.515.515,0,0,0-.193-.032.739.739,0,0,0-.2,0,.956.956,0,0,0-.186.016,1.378,1.378,0,0,1-.195.01,1.165,1.165,0,0,1,.168-.1.559.559,0,0,1,.191-.072.877.877,0,0,1,.24-.022.686.686,0,0,1,.239.067.535.535,0,0,1,.169.132A.4.4,0,0,1,1317.333,398.158Z" transform="translate(-1316.242 -397.769)" fill="#85362d"/>
                            </g>
                          </g>
                        </g>
                        <path id="Path_25" data-name="Path 25" d="M1148.072,298.686s3.956-1.9,5.319-4.035c1.12-1.5,2.042-9.134,2.171-10.32,0-.04.009-.078.013-.117s.006-.059.006-.059l0,0c.021-.246.034-.493.034-.744a8.279,8.279,0,1,0-16.511.88h0s.949,8.718,2.176,10.358c1.442,2.448,5.319,4.035,5.319,4.035A2.456,2.456,0,0,0,1148.072,298.686Z" transform="translate(-1136.977 -275.133)" fill="#f99160"/>
                        <path id="Path_26" data-name="Path 26" d="M1163.843,303.224a11.2,11.2,0,0,0-1.9.613c-.165.177,1.495-3.014,3.768-1.1Z" transform="translate(-1157.691 -299.57)" fill="#060406"/>
                        <g id="Group_11" data-name="Group 11" transform="translate(0 10.441)">
                          <path id="Path_27" data-name="Path 27" d="M1119.728,386.929a2.989,2.989,0,0,0-2.149-1.5c-.777-.013-.547,3.179.254,4a1.33,1.33,0,0,0,2.224-.181Z" transform="translate(-1117.1 -385.434)" fill="#f99160"/>
                          <path id="Path_28" data-name="Path 28" d="M1123.637,396.2a1.158,1.158,0,0,1-1.4-.471,3.18,3.18,0,0,1-.5-2.511s.9.21,1.733,1.892C1123.467,395.107,1122.857,395.864,1123.637,396.2Z" transform="translate(-1121.188 -392.478)" fill="#d43e22" opacity="0.4"/>
                          <g id="Group_8" data-name="Group 8" transform="translate(0.384 0.66)">
                            <g id="Group_7" data-name="Group 7">
                              <path id="Path_29" data-name="Path 29" d="M1121.183,393.5a4.205,4.205,0,0,1-.028-.463,1.654,1.654,0,0,1,.049-.471.355.355,0,0,1,.065-.123.151.151,0,0,1,.172-.026,1.119,1.119,0,0,1,.21.109,1.453,1.453,0,0,1,.2.136c.061.048.127.093.184.146a4.2,4.2,0,0,1,.647.679,3.981,3.981,0,0,1,.26.393,1.749,1.749,0,0,1,.107.211l.1.214.018.039-.03.036a.953.953,0,0,0-.263.619.434.434,0,0,0,.14.3,1.054,1.054,0,0,0,.3.2.915.915,0,0,1-.337-.158.485.485,0,0,1-.2-.33.8.8,0,0,1,.055-.385,1.392,1.392,0,0,1,.188-.339l-.012.075-.1-.2a1.621,1.621,0,0,0-.106-.2,3.889,3.889,0,0,0-.259-.37,5.038,5.038,0,0,0-.615-.664,4.057,4.057,0,0,0-.349-.279.949.949,0,0,0-.191-.118c-.032-.019-.02-.008-.04-.006a.267.267,0,0,0-.046.077,2.086,2.086,0,0,0-.087.439C1121.2,393.2,1121.192,393.348,1121.183,393.5Z" transform="translate(-1121.155 -392.403)" fill="#85362d"/>
                            </g>
                          </g>
                          <g id="Group_10" data-name="Group 10" transform="translate(0.695 1.516)">
                            <g id="Group_9" data-name="Group 9">
                              <path id="Path_30" data-name="Path 30" d="M1124.438,401.842a.391.391,0,0,1,.083-.186.529.529,0,0,1,.17-.132.678.678,0,0,1,.238-.067.884.884,0,0,1,.241.023.569.569,0,0,1,.191.071,1.122,1.122,0,0,1,.167.1,1.36,1.36,0,0,1-.194-.01,1,1,0,0,0-.186-.016.745.745,0,0,0-.2,0,.519.519,0,0,0-.194.032.747.747,0,0,0-.163.066A.9.9,0,0,0,1124.438,401.842Z" transform="translate(-1124.438 -401.453)" fill="#85362d"/>
                            </g>
                          </g>
                        </g>
                        <path id="Path_31" data-name="Path 31" d="M1233.246,436.215s0,1.46-.3,1.617S1232.963,436.984,1233.246,436.215Z" transform="translate(-1221.873 -420.967)" fill="#4b0f0c"/>
                      </g>
                    </g>
                    <g id="Group_14" data-name="Group 14" transform="translate(5.078 13.883)">
                      <path id="Path_32" data-name="Path 32" d="M1170.742,422.392a1.977,1.977,0,1,1,.341-.264A2.017,2.017,0,0,1,1170.742,422.392Z" transform="translate(-1170.742 -421.797)" fill="#762723"/>
                    </g>
                    <g id="Group_15" data-name="Group 15" transform="translate(5.216 14.007)">
                      <path id="Path_33" data-name="Path 33" d="M1172.813,423.109a4.177,4.177,0,0,1-.266.571.316.316,0,1,1-.082-.046A4.246,4.246,0,0,1,1172.813,423.109Z" transform="translate(-1172.199 -423.109)" fill="#762723"/>
                    </g>
                    <g id="Group_16" data-name="Group 16" transform="translate(5.829 14.181)">
                      <path id="Path_34" data-name="Path 34" d="M1179.048,424.941a1.432,1.432,0,0,1-.143.337,1.449,1.449,0,0,1-.224.29,1.427,1.427,0,0,1,.143-.337A1.465,1.465,0,0,1,1179.048,424.941Z" transform="translate(-1178.68 -424.941)" fill="#762723"/>
                    </g>
                    <g id="Group_17" data-name="Group 17" transform="translate(15 14.26)">
                      <path id="Path_35" data-name="Path 35" d="M1276.18,426.372a1.95,1.95,0,0,1-.341-.264.217.217,0,1,1,.341.264Z" transform="translate(-1275.563 -425.777)" fill="#762723"/>
                    </g>
                    <g id="Group_18" data-name="Group 18" transform="translate(14.864 14.384)">
                      <path id="Path_36" data-name="Path 36" d="M1274.133,427.094a4.2,4.2,0,1,1,.266.57A4.187,4.187,0,0,1,1274.133,427.094Z" transform="translate(-1274.133 -427.094)" fill="#762723"/>
                    </g>
                    <g id="Group_19" data-name="Group 19" transform="translate(14.497 14.557)">
                      <path id="Path_37" data-name="Path 37" d="M1270.25,428.918a1.459,1.459,0,0,1,.224.29.185.185,0,1,1-.081.047A1.467,1.467,0,0,1,1270.25,428.918Z" transform="translate(-1270.25 -428.918)" fill="#762723"/>
                    </g>
                    <path id="Path_38" data-name="Path 38" d="M1163.226,357.89a4.113,4.113,0,0,0-3.76-1.184s-.716.681-.755,1.026A12.327,12.327,0,0,1,1163.226,357.89Z" transform="translate(-1154.772 -348.89)" fill="#140a0c"/>
                    <path id="Path_39" data-name="Path 39" d="M1248.344,357.982s1.91-1.6,3.385-1.22a1.913,1.913,0,0,1,1.13,1.062A12.327,12.327,0,0,0,1248.344,357.982Z" transform="translate(-1235.921 -348.982)" fill="#140a0c"/>
                    <path id="Path_40" data-name="Path 40" d="M1154.826,440.311a2.475,2.475,0,0,0,1.207.07c-5.545-1.851-7.887-8.815-7.887-8.815h0a14.97,14.97,0,0,0,1.362,4.71C1150.948,438.724,1154.826,440.311,1154.826,440.311Z" transform="translate(-1145.206 -416.758)" fill="#e97241"/>
                  </g>
                </g>
              </g>
              <path id="Path_41" data-name="Path 41" d="M1100.047,1057.918" transform="translate(-1093.429 -983.821)" fill="#fff"/>
              <path id="Path_42" data-name="Path 42" d="M1106,1033.392a12.787,12.787,0,0,0-.188,2.42,1.182,1.182,0,0,0,.9.259,12.828,12.828,0,0,0,.305-2.4s.059-.283-.118-.353C1106.581,1033.2,1106.045,1033.021,1106,1033.392Z" transform="translate(-1098.616 -961.414)" fill="#2c4e74"/>
              <path id="Path_43" data-name="Path 43" d="M1152.437,1042.675a12.8,12.8,0,0,0-.188,2.42,1.176,1.176,0,0,0,.895.259,12.867,12.867,0,0,0,.306-2.4s.059-.282-.118-.353C1153.019,1042.479,1152.482,1042.3,1152.437,1042.675Z" transform="translate(-1140.658 -969.818)" fill="#2c4e74"/>
              <path id="Path_44" data-name="Path 44" d="M1317.431,1036.585a12.77,12.77,0,0,1,.188,2.42,1.179,1.179,0,0,1-.895.259,12.848,12.848,0,0,1-.306-2.4s-.059-.282.118-.353C1316.85,1036.388,1317.386,1036.213,1317.431,1036.585Z" transform="translate(-1289.31 -964.304)" fill="#2c4e74"/>
              <path id="Path_45" data-name="Path 45" d="M1270.985,1045.874a12.792,12.792,0,0,1,.188,2.42,1.176,1.176,0,0,1-.894.258,12.727,12.727,0,0,1-.308-2.4s-.058-.282.119-.353C1270.4,1045.678,1270.94,1045.5,1270.985,1045.874Z" transform="translate(-1247.26 -972.714)" fill="#2c4e74"/>
              <path id="Rectangle_2" data-name="Rectangle 2" d="M1.286,0H3.539A1.289,1.289,0,0,1,4.828,1.289v0A1.289,1.289,0,0,1,3.539,2.578H1.286A1.286,1.286,0,0,1,0,1.292V1.286A1.286,1.286,0,0,1,1.286,0Z" transform="translate(15.437 73.11)" fill="#8fa8a5"/>
              <path id="Path_46" data-name="Path 46" d="M1193.215,1065.012v.731a.189.189,0,0,0,.189.188h4.452a.188.188,0,0,0,.188-.188v-.731Z" transform="translate(-1177.778 -990.243)" fill="#6c8786"/>
              <path id="Path_47" data-name="Path 47" d="M1198.043,1047.785v-.1a.188.188,0,0,0-.188-.189H1193.4a.189.189,0,0,0-.189.189v.1Z" transform="translate(-1177.778 -974.382)" fill="#d8e8e4"/>
              <path id="Path_48" data-name="Path 48" d="M1390.47,1038.856l-.474-3.113,4.7-.193-.091,3.174Z" transform="translate(-1355.932 -963.571)" fill="#8bd3e0"/>
              <path id="Path_11232" data-name="Path 11232" d="M1394.224,1038.856l.474-3.113-4.7-.193.091,3.174Z" transform="matrix(0.995, 0.105, -0.105, 0.995, -1279.148, -1104.725)" fill="#8bd3e0"/>
            </g>
          </g>
        </g>
        <path id="Path_49" data-name="Path 49" d="M1130.968,549.764l-6.26-2.088a4.6,4.6,0,0,1-3.571,4.361c-.511.124-3.648-1.567-3.828-4.361l-6.875,2.154v47.762h20.534Z" transform="translate(-1102.833 -521.878)" fill="#8bd3e0"/>
        <path id="Path_50" data-name="Path 50" d="M1142.967,851.13c.582-1.564,2.231-6.1,3.339-10.219v-7.668c-.788.134-2.065,1.139-4,3.377-11.152,12.887-14.41-8.9-14.41-8.9l-.518,23.407Z" transform="translate(-1118.17 -775.416)" fill="#64b1b4"/>
        <path id="Path_51" data-name="Path 51" d="M1198.262,594.6s1.436,3.065,1.671,2.875,1.32,0,1.32,0a31.618,31.618,0,0,0,.989-3.016l-1.59-.718Z" transform="translate(-1182.347 -563.587)" fill="#0a1435"/>
        <g id="Group_26" data-name="Group 26" transform="translate(13.527 25.982)">
          <path id="Path_52" data-name="Path 52" d="M1174,549.613a1.157,1.157,0,0,0-.455.182c-.91.751-.407,7.853,0,7.727s4.266-3.732,4.266-3.732C1177.312,553.911,1174.3,552.3,1174,549.613Z" transform="translate(-1173.035 -549.613)" fill="#ceecf0"/>
          <path id="Path_53" data-name="Path 53" d="M1227.047,551.074a4.533,4.533,0,0,1-3.547,4.039l4.588,3.734c.157-1.1-.581-7.729-.581-7.729Z" transform="translate(-1218.723 -550.936)" fill="#ceecf0"/>
        </g>
        <path id="Path_54" data-name="Path 54" d="M1272.421,551.412l-8.733-2.912v51.462a41.559,41.559,0,0,0,8.662-1.476s0-1.18-.582-11.314c-.164-2.872.618-9.4,0-13.945,0,0,.823-7.7,1.1-11.551A67.2,67.2,0,0,0,1272.421,551.412Z" transform="translate(-1241.58 -522.623)" fill="#0a1435"/>
        <path id="Path_55" data-name="Path 55" d="M1093.483,547.98l-8.667,2.716a79.746,79.746,0,0,0,.8,19.384s-.507,10.205-.57,12.529c-.058,2.16-1.326,15.567-.606,16.2a81.1,81.1,0,0,0,9.044.8Z" transform="translate(-1079.099 -522.153)" fill="#0a1435"/>
        <path id="Path_56" data-name="Path 56" d="M1137.282,537.152a6.637,6.637,0,0,0-2.485,1.911c-.9,1.244-2.5,16.221-2.5,16.221l2.789,1.7-1.271,4.333s2.629,9.42,3.2,9.325Z" transform="translate(-1122.626 -512.35)" fill="#1e315e"/>
        <path id="Path_57" data-name="Path 57" d="M1259.035,537.152a6.632,6.632,0,0,1,2.483,1.911c.9,1.244,2.5,16.221,2.5,16.221l-2.788,1.7,1.269,4.333s-2.461,9.514-3.025,9.42Z" transform="translate(-1237.368 -512.35)" fill="#1e315e"/>
        <path id="Path_58" data-name="Path 58" d="M1204.064,626.7l-1.084,17.619,1.508,2.5,1.318-2.638-.329-17.478Z" transform="translate(-1186.619 -593.42)" fill="#0a1435"/>
        <g id="Group_33" data-name="Group 33" transform="translate(12.437 9.877)">
          <path id="Path_59" data-name="Path 59" d="M1166.149,383.437a4.393,4.393,0,0,0-1.192-1.853c-1.176-.953-3.308-.582-3.2,1.205a1.976,1.976,0,0,0,1.572,1.862A2.743,2.743,0,0,0,1166.149,383.437Z" transform="translate(-1161.734 -380.923)" fill="#fff"/>
          <path id="Path_60" data-name="Path 60" d="M1170.836,381.589a2.359,2.359,0,0,0-1.974-.453,2.771,2.771,0,0,0-.611,1.824,3,3,0,0,0,.382,1.508,1.763,1.763,0,0,0,.579.187,3.114,3.114,0,0,0,1.736-.243,3.033,3.033,0,0,0,.348-1.453,3.182,3.182,0,0,0-.2-1.129A2.645,2.645,0,0,0,1170.836,381.589Z" transform="translate(-1167.613 -380.927)" fill="#140a0c"/>
          <g id="Group_28" data-name="Group 28" transform="translate(0 0)">
            <g id="Group_27" data-name="Group 27">
              <path id="Path_61" data-name="Path 61" d="M1165.932,381.995a6.182,6.182,0,0,0-.508-.886c-.088-.122-.184-.256-.294-.386a3.044,3.044,0,0,0-.376-.377,1.154,1.154,0,0,0-.219-.169,1.552,1.552,0,0,0-.245-.142,2.153,2.153,0,0,0-.536-.189,2.448,2.448,0,0,0-.569-.06,2.314,2.314,0,0,0-.545.086,1.568,1.568,0,0,0-.461.22.841.841,0,0,0-.182.151.733.733,0,0,0-.146.169,1.821,1.821,0,0,0-.194.349c-.03.117-.067.219-.079.307l-.035.28s-.01-.1-.026-.285c0-.092.016-.2.026-.333a1.518,1.518,0,0,1,.154-.414.914.914,0,0,1,.143-.213.987.987,0,0,1,.2-.2,1.593,1.593,0,0,1,.516-.3,2.233,2.233,0,0,1,.622-.127,2.746,2.746,0,0,1,.649.057,2.45,2.45,0,0,1,.614.23,1.451,1.451,0,0,1,.268.169l.125.094.109.108a2.645,2.645,0,0,1,.376.44,3.694,3.694,0,0,1,.264.437,4.573,4.573,0,0,1,.282.7A2.315,2.315,0,0,1,1165.932,381.995Z" transform="translate(-1161.517 -379.481)" fill="#140a0c"/>
            </g>
          </g>
          <g id="Group_32" data-name="Group 32" transform="translate(7.89)">
            <g id="Group_31" data-name="Group 31">
              <path id="Path_62" data-name="Path 62" d="M1244.871,383.437a4.394,4.394,0,0,1,1.193-1.853c1.176-.953,3.308-.582,3.2,1.205a1.975,1.975,0,0,1-1.572,1.862A2.743,2.743,0,0,1,1244.871,383.437Z" transform="translate(-1244.871 -380.923)" fill="#fff"/>
              <path id="Path_63" data-name="Path 63" d="M1249.933,381.593a3.453,3.453,0,0,0-.762.92,3.375,3.375,0,0,0-.025.409,3.132,3.132,0,0,0,.249,1.249,3.029,3.029,0,0,0,2.163.489c.041-.006.076-.017.114-.024a2.864,2.864,0,0,0,.519-1.713,2.767,2.767,0,0,0-.618-1.833A2.367,2.367,0,0,0,1249.933,381.593Z" transform="translate(-1248.74 -380.932)" fill="#140a0c"/>
              <g id="Group_30" data-name="Group 30">
                <g id="Group_29" data-name="Group 29">
                  <path id="Path_64" data-name="Path 64" d="M1244.871,381.995a2.446,2.446,0,0,1,.071-.276,4.6,4.6,0,0,1,.282-.7,3.869,3.869,0,0,1,.264-.437,2.625,2.625,0,0,1,.376-.439l.109-.108.126-.094a1.405,1.405,0,0,1,.268-.169,2.435,2.435,0,0,1,.613-.23,2.73,2.73,0,0,1,.65-.057,2.232,2.232,0,0,1,.621.127,1.6,1.6,0,0,1,.516.3.973.973,0,0,1,.2.2.915.915,0,0,1,.143.213,1.525,1.525,0,0,1,.154.415,3.181,3.181,0,0,1,.027.333c-.017.181-.026.285-.026.285l-.035-.28c-.012-.088-.05-.19-.078-.307a1.843,1.843,0,0,0-.194-.349.737.737,0,0,0-.147-.168.842.842,0,0,0-.182-.152,1.583,1.583,0,0,0-.461-.22,2.315,2.315,0,0,0-.544-.086,2.446,2.446,0,0,0-.569.06,2.172,2.172,0,0,0-.536.189,1.533,1.533,0,0,0-.245.142,1.134,1.134,0,0,0-.219.169,2.988,2.988,0,0,0-.376.377c-.111.129-.206.264-.3.386A6.254,6.254,0,0,0,1244.871,381.995Z" transform="translate(-1244.871 -379.481)" fill="#140a0c"/>
                </g>
              </g>
            </g>
          </g>
          <path id="Path_65" data-name="Path 65" d="M1167.73,392.667c.02.168-.263.341-.633.386s-.688-.055-.708-.222.263-.341.634-.386S1167.709,392.5,1167.73,392.667Z" transform="translate(-1165.927 -391.208)" fill="#fff"/>
          <path id="Path_66" data-name="Path 66" d="M1274.932,391.915c-.037.165-.362.233-.726.152s-.629-.281-.593-.446.362-.233.726-.152S1274.969,391.75,1274.932,391.915Z" transform="translate(-1263 -390.303)" fill="#fff"/>
        </g>
        <path id="Path_67" data-name="Path 67" d="M1209.856,464.926a3.1,3.1,0,0,1-2.782,1.272,2.287,2.287,0,0,1-2.117-1.272S1209.126,465.02,1209.856,464.926Z" transform="translate(-1188.409 -446.96)" fill="#fff"/>
      </g>
      <path id="Path_68" data-name="Path 68" d="M1122.1,258.031l.147.156.509.538a11.029,11.029,0,0,0,.885-4.847s1.837-4.663,2.826-3.156c0,0,.287-1.083.731-.706s6.26,4.862,10.794,4.315c0,0,.722,3.337.509,4.079l1.01-.967a10.956,10.956,0,0,0,1.028-4.413s-2.039-9.607-12.542-8.854a3.312,3.312,0,0,0-1.99,1.083,4.756,4.756,0,0,0-2.737.407c-1.055.659-4.133,8.2-1.718,12.023Z" transform="translate(-1112.083 -244.133)" fill="#140a0c"/>
      <path id="Path_69" data-name="Path 69" d="M1147.509,269.809a5.476,5.476,0,0,1-4.572,1.121c-2.51-.5-7.139-3.448-10.61-1.189-.166.361-.334.77-.494,1.211.945-.7,2.7-1.678,4.3-.775,2.086,1.174,11.8,6.944,14.354,4.632A12.881,12.881,0,0,0,1147.509,269.809Z" transform="translate(-1122.205 -266.554)" fill="#231315"/>
    </g>
  </g>
</svg>
