<svg xmlns="http://www.w3.org/2000/svg" xmlns:xlink="http://www.w3.org/1999/xlink" width="357.599" height="304.826" viewBox="0 0 357.599 304.826">
  <defs>
    <clipPath id="clip-path">
      <path id="Path_17" data-name="Path 17" d="M156.425,430.667l12.382-11.333,12.974,5h12.975L207.73,408l12.975-10.666L233.68,414l12.381,5.667V447.5H156.425Z" fill="#1eb4b9"/>
    </clipPath>
    <filter id="Rectangle_7" x="23.285" y="58.648" width="146.636" height="223.653" filterUnits="userSpaceOnUse">
      <feOffset dy="3" input="SourceAlpha"/>
      <feGaussianBlur stdDeviation="3" result="blur"/>
      <feFlood flood-opacity="0.161"/>
      <feComposite operator="in" in2="blur"/>
      <feComposite in="SourceGraphic"/>
    </filter>
  </defs>
  <g id="Group_15480" data-name="Group 15480" transform="translate(-45 -138.836)">
    <g id="OBJECTS" transform="translate(-1.319 63.031)">
      <g id="Group_58" data-name="Group 58" transform="translate(242.319 135.969)">
        <g id="Group_57" data-name="Group 57" transform="translate(0)">
          <rect id="Rectangle_17" data-name="Rectangle 17" width="125.518" height="208.515" rx="3.434" transform="translate(0 1.597) rotate(-0.696)" fill="#fff" opacity="0.39"/>
          <rect id="Rectangle_18" data-name="Rectangle 18" width="125.518" height="208.515" rx="3.434" transform="translate(0 1.597) rotate(-0.696)" fill="#d1d1d1" opacity="0.39"/>
          <g id="Group_56" data-name="Group 56" transform="translate(0.49)">
            <path id="Path_89" data-name="Path 89" d="M454.5,289.408l.121,9.835L329.048,300.77l-.122-10.136a5.829,5.829,0,0,1,5.757-5.9L448.3,283.355A6.127,6.127,0,0,1,454.5,289.408Z" transform="translate(-328.925 -283.355)" fill="#d5d5d5"/>
          </g>
        </g>
        <path id="Path_90" data-name="Path 90" d="M334.93,292.188a2.585,2.585,0,1,1,2.566-2.6A2.588,2.588,0,0,1,334.93,292.188Zm-.032-4.136a1.551,1.551,0,1,0,1.564,1.539A1.554,1.554,0,0,0,334.9,288.052Z" transform="translate(-235.806 -280.523)" fill="#fff"/>
        <path id="Path_91" data-name="Path 91" d="M339.8,292.151a2.585,2.585,0,1,1,2.566-2.6A2.588,2.588,0,0,1,339.8,292.151Zm-.03-4.136a1.551,1.551,0,1,0,1.562,1.541A1.555,1.555,0,0,0,339.769,288.015Z" transform="translate(-232.041 -280.552)" fill="#fff"/>
        <path id="Path_92" data-name="Path 92" d="M344.536,292.117a2.586,2.586,0,1,1,2.566-2.606A2.588,2.588,0,0,1,344.536,292.117Zm-.03-4.136a1.551,1.551,0,1,0,1.562,1.539A1.553,1.553,0,0,0,344.505,287.98Z" transform="translate(-228.38 -280.579)" fill="#fff"/>
        <path id="Path_93" data-name="Path 93" d="M393.548,304.2l-58.029.438a1.034,1.034,0,1,1-.016-2.067l58.029-.44a1.035,1.035,0,0,1,.016,2.069Z" transform="translate(-324.143 -268.842)" fill="#fff"/>
        <path id="Path_94" data-name="Path 94" d="M384.409,304.114l-12.044.092a1.035,1.035,0,1,1-.016-2.069l12.044-.09a1.034,1.034,0,1,1,.016,2.067Z" transform="translate(-295.66 -268.905)" fill="#fff"/>
        <path id="Path_95" data-name="Path 95" d="M393.754,331.37l-58.031.44a1.035,1.035,0,0,1-.016-2.069l58.031-.44a1.035,1.035,0,0,1,.016,2.069Z" transform="translate(-323.984 -245.66)" fill="#fff"/>
        <path id="Path_96" data-name="Path 96" d="M384.615,331.286l-12.044.092a1.035,1.035,0,0,1-.016-2.069l12.044-.09a1.034,1.034,0,0,1,.016,2.067Z" transform="translate(-295.501 -245.731)" fill="#fff"/>
        <path id="Path_97" data-name="Path 97" d="M393.646,317.165l-58.029.44a1.035,1.035,0,1,1-.016-2.069l58.029-.438a1.034,1.034,0,1,1,.016,2.067Z" transform="translate(-324.067 -257.313)" fill="#fff"/>
        <path id="Path_98" data-name="Path 98" d="M384.507,317.084l-12.044.09a1.034,1.034,0,1,1-.016-2.067l12.044-.092a1.035,1.035,0,0,1,.016,2.069Z" transform="translate(-295.584 -257.383)" fill="#fff"/>
        <path id="Path_99" data-name="Path 99" d="M395.69,317l-12.044.091a1.034,1.034,0,0,1-.014-2.067l12.044-.092A1.035,1.035,0,0,1,395.69,317Z" transform="translate(-286.938 -257.453)" fill="#fff"/>
        <path id="Path_100" data-name="Path 100" d="M374.252,310.662l-38.686.293a1.035,1.035,0,1,1-.016-2.069l38.688-.293a1.035,1.035,0,0,1,.014,2.069Z" transform="translate(-324.106 -262.65)" fill="#fff"/>
        <path id="Path_101" data-name="Path 101" d="M378.37,310.559l-16.971.128a1.034,1.034,0,0,1-.014-2.067l16.971-.129a1.035,1.035,0,0,1,.014,2.069Z" transform="translate(-304.136 -262.736)" fill="#fff"/>
        <path id="Path_102" data-name="Path 102" d="M387.943,324.223l-38.688.293a1.034,1.034,0,1,1-.016-2.067l38.688-.293a1.034,1.034,0,1,1,.016,2.067Z" transform="translate(-313.524 -251.523)" fill="#fff"/>
        <path id="Path_103" data-name="Path 103" d="M352.64,324.42l-16.971.128a1.034,1.034,0,1,1-.014-2.067l16.97-.129a1.035,1.035,0,1,1,.016,2.069Z" transform="translate(-324.026 -251.365)" fill="#fff"/>
        <path id="Path_104" data-name="Path 104" d="M393.823,340.529l-58.029.44a1.035,1.035,0,1,1-.016-2.069l58.029-.438a1.034,1.034,0,1,1,.016,2.067Z" transform="translate(-323.93 -238.145)" fill="#fff"/>
        <path id="Path_105" data-name="Path 105" d="M384.684,340.448l-12.044.09a1.035,1.035,0,1,1-.016-2.069l12.044-.09a1.035,1.035,0,1,1,.016,2.069Z" transform="translate(-295.447 -238.217)" fill="#fff"/>
        <path id="Path_106" data-name="Path 106" d="M394.029,367.7,336,368.14a1.034,1.034,0,0,1-.016-2.067l58.031-.44a1.034,1.034,0,1,1,.016,2.067Z" transform="translate(-323.771 -215.853)" fill="#fff"/>
        <path id="Path_107" data-name="Path 107" d="M384.89,367.619l-12.044.09a1.034,1.034,0,1,1-.016-2.067l12.044-.092a1.035,1.035,0,0,1,.016,2.069Z" transform="translate(-295.288 -215.928)" fill="#fff"/>
        <path id="Path_108" data-name="Path 108" d="M393.921,353.5l-58.029.44a1.034,1.034,0,1,1-.016-2.067l58.029-.44a1.034,1.034,0,1,1,.016,2.067Z" transform="translate(-323.855 -227.506)" fill="#fff"/>
        <path id="Path_109" data-name="Path 109" d="M384.782,353.416l-12.044.09a1.034,1.034,0,1,1-.016-2.067l12.044-.092a1.035,1.035,0,1,1,.016,2.069Z" transform="translate(-295.372 -227.579)" fill="#fff"/>
        <path id="Path_110" data-name="Path 110" d="M395.965,353.33l-12.044.091a1.034,1.034,0,0,1-.014-2.067l12.044-.09a1.034,1.034,0,0,1,.014,2.067Z" transform="translate(-286.725 -227.648)" fill="#fff"/>
        <path id="Path_111" data-name="Path 111" d="M374.527,346.992l-38.686.294a1.035,1.035,0,0,1-.016-2.069l38.687-.293a1.034,1.034,0,1,1,.014,2.067Z" transform="translate(-323.893 -232.844)" fill="#fff"/>
        <path id="Path_112" data-name="Path 112" d="M378.645,346.891l-16.971.128a1.034,1.034,0,0,1-.014-2.067l16.971-.129a1.035,1.035,0,0,1,.014,2.069Z" transform="translate(-303.923 -232.931)" fill="#fff"/>
        <path id="Path_113" data-name="Path 113" d="M388.218,360.555l-38.687.293a1.034,1.034,0,1,1-.016-2.067l38.688-.293a1.034,1.034,0,1,1,.016,2.067Z" transform="translate(-313.311 -221.718)" fill="#fff"/>
        <path id="Path_114" data-name="Path 114" d="M352.915,360.752l-16.971.128a1.034,1.034,0,0,1-.016-2.067l16.971-.129a1.035,1.035,0,0,1,.016,2.069Z" transform="translate(-323.813 -221.561)" fill="#fff"/>
        <path id="Path_115" data-name="Path 115" d="M394.092,376.1l-58.029.438a1.034,1.034,0,1,1-.016-2.067l58.031-.44a1.035,1.035,0,0,1,.014,2.069Z" transform="translate(-323.723 -208.96)" fill="#fff"/>
        <path id="Path_116" data-name="Path 116" d="M384.953,376.02l-12.044.092a1.035,1.035,0,1,1-.016-2.069l12.044-.09a1.034,1.034,0,1,1,.016,2.067Z" transform="translate(-295.24 -209.035)" fill="#fff"/>
        <path id="Path_117" data-name="Path 117" d="M385.083,393.177l-12.044.09a1.034,1.034,0,1,1-.016-2.067l12.044-.091a1.034,1.034,0,1,1,.016,2.067Z" transform="translate(-295.139 -194.653)" fill="#fff"/>
        <path id="Path_118" data-name="Path 118" d="M396.266,393.092l-12.044.092a1.035,1.035,0,0,1-.014-2.069l12.042-.09a1.034,1.034,0,1,1,.016,2.067Z" transform="translate(-286.493 -194.719)" fill="#fff"/>
        <path id="Path_119" data-name="Path 119" d="M374.8,382.568l-38.687.293a1.035,1.035,0,0,1-.016-2.069l38.688-.293a1.035,1.035,0,0,1,.016,2.069Z" transform="translate(-323.685 -202.856)" fill="#fff"/>
        <path id="Path_120" data-name="Path 120" d="M378.916,382.465l-16.971.128a1.034,1.034,0,1,1-.016-2.067L378.9,380.4a1.035,1.035,0,0,1,.016,2.069Z" transform="translate(-303.715 -202.936)" fill="#fff"/>
      </g>
      <g id="Group_91" data-name="Group 91" transform="translate(46.319 143.369)">
        <g id="Group_57-2" data-name="Group 57" transform="translate(0)">
          <rect id="Rectangle_17-2" data-name="Rectangle 17" width="125.607" height="201.223" rx="3.434" transform="translate(0 1.543) rotate(-0.696)" fill="#fff" opacity="0.39"/>
          <rect id="Rectangle_18-2" data-name="Rectangle 18" width="125.607" height="201.223" rx="3.434" transform="translate(0 1.543) rotate(-0.696)" fill="#e7e7e7" opacity="0.39"/>
          <g id="Group_56-2" data-name="Group 56" transform="translate(0.49)">
            <path id="Path_89-2" data-name="Path 89" d="M454.5,289.408l.121,9.835L329.048,300.77l-.122-10.136a5.829,5.829,0,0,1,5.757-5.9L448.3,283.355A6.127,6.127,0,0,1,454.5,289.408Z" transform="translate(-328.925 -283.355)" fill="#d4d4d4"/>
          </g>
        </g>
        <path id="Path_90-2" data-name="Path 90" d="M334.93,292.188a2.585,2.585,0,1,1,2.566-2.6A2.588,2.588,0,0,1,334.93,292.188Zm-.032-4.136a1.551,1.551,0,1,0,1.564,1.539A1.554,1.554,0,0,0,334.9,288.052Z" transform="translate(-235.806 -280.523)" fill="#fff"/>
        <path id="Path_91-2" data-name="Path 91" d="M339.8,292.151a2.585,2.585,0,1,1,2.566-2.6A2.588,2.588,0,0,1,339.8,292.151Zm-.03-4.136a1.551,1.551,0,1,0,1.562,1.541A1.555,1.555,0,0,0,339.769,288.015Z" transform="translate(-232.041 -280.552)" fill="#fff"/>
        <path id="Path_92-2" data-name="Path 92" d="M344.536,292.117a2.586,2.586,0,1,1,2.566-2.606A2.588,2.588,0,0,1,344.536,292.117Zm-.03-4.136a1.551,1.551,0,1,0,1.562,1.539A1.553,1.553,0,0,0,344.505,287.98Z" transform="translate(-228.38 -280.579)" fill="#fff"/>
        <path id="Path_93-2" data-name="Path 93" d="M393.548,304.2l-58.029.438a1.034,1.034,0,1,1-.016-2.067l58.029-.44a1.035,1.035,0,0,1,.016,2.069Z" transform="translate(-324.143 -268.842)" fill="#fff"/>
        <path id="Path_94-2" data-name="Path 94" d="M384.409,304.114l-12.044.092a1.035,1.035,0,1,1-.016-2.069l12.044-.09a1.034,1.034,0,1,1,.016,2.067Z" transform="translate(-295.66 -268.905)" fill="#fff"/>
        <path id="Path_95-2" data-name="Path 95" d="M393.754,331.37l-58.031.44a1.035,1.035,0,0,1-.016-2.069l58.031-.44a1.035,1.035,0,0,1,.016,2.069Z" transform="translate(-323.984 -248.642)" fill="#fff"/>
        <path id="Path_96-2" data-name="Path 96" d="M384.615,331.286l-12.044.092a1.035,1.035,0,0,1-.016-2.069l12.044-.09a1.034,1.034,0,0,1,.016,2.067Z" transform="translate(-295.501 -248.702)" fill="#fff"/>
        <path id="Path_97-2" data-name="Path 97" d="M393.646,317.165l-58.029.44a1.035,1.035,0,1,1-.016-2.069l58.029-.438a1.034,1.034,0,1,1,.016,2.067Z" transform="translate(-324.067 -259.372)" fill="#fff"/>
        <path id="Path_98-2" data-name="Path 98" d="M384.507,317.084l-12.044.09a1.034,1.034,0,1,1-.016-2.067l12.044-.092a1.035,1.035,0,0,1,.016,2.069Z" transform="translate(-295.584 -259.434)" fill="#fff"/>
        <path id="Path_99-2" data-name="Path 99" d="M395.69,317l-12.044.091a1.034,1.034,0,0,1-.014-2.067l12.044-.092A1.035,1.035,0,0,1,395.69,317Z" transform="translate(-286.938 -259.498)" fill="#fff"/>
        <path id="Path_100-2" data-name="Path 100" d="M374.252,310.662l-38.686.293a1.035,1.035,0,1,1-.016-2.069l38.688-.293a1.035,1.035,0,0,1,.014,2.069Z" transform="translate(-324.106 -264.287)" fill="#fff"/>
        <path id="Path_101-2" data-name="Path 101" d="M378.37,310.559l-16.971.128a1.034,1.034,0,0,1-.014-2.067l16.971-.129a1.035,1.035,0,0,1,.014,2.069Z" transform="translate(-304.136 -264.364)" fill="#fff"/>
        <path id="Path_102-2" data-name="Path 102" d="M387.943,324.223l-38.688.293a1.034,1.034,0,1,1-.016-2.067l38.688-.293a1.034,1.034,0,1,1,.016,2.067Z" transform="translate(-313.524 -254.039)" fill="#fff"/>
        <path id="Path_103-2" data-name="Path 103" d="M352.64,324.42l-16.971.128a1.034,1.034,0,1,1-.014-2.067l16.97-.129a1.035,1.035,0,1,1,.016,2.069Z" transform="translate(-324.026 -253.892)" fill="#fff"/>
        <path id="Path_104-2" data-name="Path 104" d="M393.823,340.529l-58.029.44a1.035,1.035,0,1,1-.016-2.069l58.029-.438a1.034,1.034,0,1,1,.016,2.067Z" transform="translate(-323.93 -241.721)" fill="#fff"/>
        <path id="Path_105-2" data-name="Path 105" d="M384.684,340.448l-12.044.09a1.035,1.035,0,1,1-.016-2.069l12.044-.09a1.035,1.035,0,1,1,.016,2.069Z" transform="translate(-295.447 -241.782)" fill="#fff"/>
        <path id="Path_106-2" data-name="Path 106" d="M394.029,367.7,336,368.14a1.034,1.034,0,0,1-.016-2.067l58.031-.44a1.034,1.034,0,1,1,.016,2.067Z" transform="translate(-323.771 -221.193)" fill="#fff"/>
        <path id="Path_107-2" data-name="Path 107" d="M384.89,367.619l-12.044.09a1.034,1.034,0,1,1-.016-2.067l12.044-.092a1.035,1.035,0,0,1,.016,2.069Z" transform="translate(-295.288 -221.253)" fill="#fff"/>
        <path id="Path_108-2" data-name="Path 108" d="M393.921,353.5l-58.029.44a1.034,1.034,0,1,1-.016-2.067l58.029-.44a1.034,1.034,0,1,1,.016,2.067Z" transform="translate(-323.855 -231.923)" fill="#fff"/>
        <path id="Path_109-2" data-name="Path 109" d="M384.782,353.416l-12.044.09a1.034,1.034,0,1,1-.016-2.067l12.044-.092a1.035,1.035,0,1,1,.016,2.069Z" transform="translate(-295.372 -231.984)" fill="#fff"/>
        <path id="Path_110-2" data-name="Path 110" d="M395.965,353.33l-12.044.091a1.034,1.034,0,0,1-.014-2.067l12.044-.09a1.034,1.034,0,0,1,.014,2.067Z" transform="translate(-286.725 -232.047)" fill="#fff"/>
        <path id="Path_111-2" data-name="Path 111" d="M374.527,346.992l-38.686.294a1.035,1.035,0,0,1-.016-2.069l38.687-.293a1.034,1.034,0,1,1,.014,2.067Z" transform="translate(-323.893 -236.837)" fill="#fff"/>
        <path id="Path_112-2" data-name="Path 112" d="M378.645,346.891l-16.971.128a1.034,1.034,0,0,1-.014-2.067l16.971-.129a1.035,1.035,0,0,1,.014,2.069Z" transform="translate(-303.923 -236.914)" fill="#fff"/>
        <path id="Path_113-2" data-name="Path 113" d="M388.218,360.555l-38.687.293a1.034,1.034,0,1,1-.016-2.067l38.688-.293a1.034,1.034,0,1,1,.016,2.067Z" transform="translate(-313.311 -226.59)" fill="#fff"/>
        <path id="Path_114-2" data-name="Path 114" d="M352.915,360.752l-16.971.128a1.034,1.034,0,0,1-.016-2.067l16.971-.129a1.035,1.035,0,0,1,.016,2.069Z" transform="translate(-323.813 -226.441)" fill="#fff"/>
        <path id="Path_115-2" data-name="Path 115" d="M394.092,376.1l-58.029.438a1.034,1.034,0,1,1-.016-2.067l58.031-.44a1.035,1.035,0,0,1,.014,2.069Z" transform="translate(-323.723 -214.845)" fill="#fff"/>
        <path id="Path_116-2" data-name="Path 116" d="M384.953,376.02l-12.044.092a1.035,1.035,0,1,1-.016-2.069l12.044-.09a1.034,1.034,0,1,1,.016,2.067Z" transform="translate(-295.24 -214.904)" fill="#fff"/>
        <path id="Path_117-2" data-name="Path 117" d="M385.083,393.177l-12.044.09a1.034,1.034,0,1,1-.016-2.067l12.044-.091a1.034,1.034,0,1,1,.016,2.067Z" transform="translate(-295.139 -202.053)" fill="#fff"/>
        <path id="Path_118-2" data-name="Path 118" d="M396.266,393.092l-12.044.092a1.035,1.035,0,0,1-.014-2.069l12.042-.09a1.034,1.034,0,1,1,.016,2.067Z" transform="translate(-286.493 -202.119)" fill="#fff"/>
        <path id="Path_119-2" data-name="Path 119" d="M374.8,382.568l-38.687.293a1.035,1.035,0,0,1-.016-2.069l38.688-.293a1.035,1.035,0,0,1,.016,2.069Z" transform="translate(-323.685 -210.256)" fill="#fff"/>
        <path id="Path_120-2" data-name="Path 120" d="M378.916,382.465l-16.971.128a1.034,1.034,0,1,1-.016-2.067L378.9,380.4a1.035,1.035,0,0,1,.016,2.069Z" transform="translate(-303.715 -210.336)" fill="#fff"/>
      </g>
      <g id="Group_26" data-name="Group 26" transform="translate(75.883 75.805)">
        <g id="Group_15" data-name="Group 15" opacity="0.73">
          <g id="Group_14" data-name="Group 14">
            <path id="Path_11" data-name="Path 11" d="M121.161,182.683a4.855,4.855,0,0,1-1.279-.173l-7.285-1.994a4.826,4.826,0,0,1-3.377-5.92l2.435-8.9a40.576,40.576,0,0,1-11.731-9.1l-8.011,4.569a4.821,4.821,0,0,1-6.574-1.8l-3.741-6.56a4.824,4.824,0,0,1,1.8-6.574l8.011-4.569a40.564,40.564,0,0,1-1.858-14.727l-8.9-2.435a4.825,4.825,0,0,1-3.377-5.92l1.994-7.285a4.826,4.826,0,0,1,5.92-3.377l8.9,2.435a40.546,40.546,0,0,1,9.1-11.73l-4.568-8.011a4.818,4.818,0,0,1,1.8-6.574l6.56-3.742a4.824,4.824,0,0,1,6.574,1.8l4.569,8.011a40.564,40.564,0,0,1,14.727-1.858l2.435-8.9a4.825,4.825,0,0,1,5.92-3.377l7.285,1.994a4.826,4.826,0,0,1,3.377,5.92l-2.435,8.9a40.576,40.576,0,0,1,11.73,9.1l8.012-4.569a4.82,4.82,0,0,1,6.573,1.8l3.742,6.56a4.82,4.82,0,0,1-1.8,6.574l-8.011,4.569a40.564,40.564,0,0,1,1.858,14.728l8.9,2.434a4.819,4.819,0,0,1,3.376,5.92l-1.993,7.285a4.825,4.825,0,0,1-5.921,3.377L167,148.13a40.551,40.551,0,0,1-9.1,11.73l4.57,8.012a4.82,4.82,0,0,1-1.8,6.574l-6.56,3.741a4.818,4.818,0,0,1-6.574-1.8l-4.569-8.011a40.524,40.524,0,0,1-14.728,1.858l-2.434,8.9a4.826,4.826,0,0,1-4.641,3.549ZM100.5,153.276l.7.826a38.025,38.025,0,0,0,12.557,9.739l.973.471-3,10.971a2.218,2.218,0,0,0,1.554,2.725L120.568,180a2.217,2.217,0,0,0,2.724-1.554l3-10.97,1.077.09a38.029,38.029,0,0,0,15.766-1.989l1.022-.355,5.633,9.878a2.219,2.219,0,0,0,3.027.828l6.56-3.742a2.218,2.218,0,0,0,.829-3.026l-5.634-9.878.826-.7a38.007,38.007,0,0,0,9.739-12.557l.471-.973,10.97,3A2.225,2.225,0,0,0,179.3,146.5l1.993-7.285a2.216,2.216,0,0,0-1.554-2.724l-10.97-3,.09-1.077a38.037,38.037,0,0,0-1.989-15.767l-.356-1.021,9.878-5.634a2.218,2.218,0,0,0,.828-3.026l-3.742-6.56a2.219,2.219,0,0,0-3.026-.828l-9.878,5.634-.7-.826a38.022,38.022,0,0,0-12.557-9.739l-.973-.471,3-10.971a2.22,2.22,0,0,0-1.554-2.725l-7.285-1.993a2.221,2.221,0,0,0-2.724,1.554l-3,10.97-1.078-.09a38,38,0,0,0-15.766,1.989l-1.021.356-5.634-9.878a2.218,2.218,0,0,0-3.026-.828L101.7,86.3a2.219,2.219,0,0,0-.828,3.027l5.634,9.877-.826.7a38,38,0,0,0-9.739,12.557l-.471.973-10.971-3a2.22,2.22,0,0,0-2.725,1.554l-1.993,7.285A2.216,2.216,0,0,0,81.338,122l10.97,3-.09,1.078a38.035,38.035,0,0,0,1.989,15.766l.355,1.021L84.684,148.5a2.218,2.218,0,0,0-.828,3.026l3.742,6.56a2.219,2.219,0,0,0,3.026.828Zm30.073-2.3a21.826,21.826,0,0,1-5.768-.781h0a21.591,21.591,0,1,1,5.768.781Zm-.065-40.872a19.186,19.186,0,1,0,5.078.687A19.211,19.211,0,0,0,130.509,110.109Z" transform="translate(-77.103 -75.805)" fill="#fff"/>
          </g>
        </g>
        <g id="Group_16" data-name="Group 16" transform="translate(202.678 46.74)" opacity="0.69">
          <path id="Path_12" data-name="Path 12" d="M363.077,166.371l-49.062.891a2.357,2.357,0,0,1-2.609-2l-.591-32.578a2.357,2.357,0,0,1,2.534-2.093l49.063-.891a2.357,2.357,0,0,1,2.609,2l.591,32.578A2.358,2.358,0,0,1,363.077,166.371ZM313.36,131.2c-1.082.02-1.951.681-1.936,1.473l.591,32.578c.015.792.906,1.42,1.989,1.4l49.063-.891c1.081-.02,1.95-.68,1.936-1.472l-.591-32.579c-.015-.792-.907-1.421-1.989-1.4Z" transform="translate(-310.815 -129.702)" fill="#fff"/>
          <rect id="Rectangle_1" data-name="Rectangle 1" width="53.282" height="0.609" transform="translate(0.388 7.571) rotate(-1.04)" fill="#fff"/>
          <path id="Path_13" data-name="Path 13" d="M315.511,136.188a1.147,1.147,0,1,1,1.127-1.167A1.149,1.149,0,0,1,315.511,136.188Zm-.03-1.685a.538.538,0,1,0,.547.528A.54.54,0,0,0,315.481,134.5Z" transform="translate(-311.283 -130.259)" fill="#fff"/>
          <path id="Path_14" data-name="Path 14" d="M319.156,136.122a1.147,1.147,0,1,1,1.127-1.167A1.148,1.148,0,0,1,319.156,136.122Zm-.03-1.685a.538.538,0,1,0,.548.528A.539.539,0,0,0,319.126,134.437Z" transform="translate(-311.767 -130.25)" fill="#fff"/>
          <path id="Path_15" data-name="Path 15" d="M322.733,136.057a1.147,1.147,0,1,1,1.126-1.168A1.149,1.149,0,0,1,322.733,136.057Zm-.031-1.685a.538.538,0,1,0,.548.528A.539.539,0,0,0,322.7,134.372Z" transform="translate(-312.242 -130.242)" fill="#fff"/>
        </g>
        <g id="Group_17" data-name="Group 17" transform="translate(38.006 241.463)" opacity="0.69">
          <path id="Path_16" data-name="Path 16" d="M173.191,390.909l-49.063.892a2.356,2.356,0,0,1-2.608-2l-.592-32.578a2.358,2.358,0,0,1,2.535-2.092l49.062-.891a2.357,2.357,0,0,1,2.609,2l.591,32.578A2.356,2.356,0,0,1,173.191,390.909Zm-49.718-35.168c-1.082.02-1.95.68-1.936,1.472l.592,32.578c.014.792.906,1.42,1.989,1.4l49.062-.892c1.082-.019,1.951-.68,1.936-1.472l-.591-32.578c-.015-.792-.906-1.421-1.989-1.4Z" transform="translate(-120.928 -354.241)" fill="#fff"/>
          <rect id="Rectangle_2" data-name="Rectangle 2" width="53.282" height="0.609" transform="translate(0.389 7.571) rotate(-1.04)" fill="#fff"/>
          <path id="Path_17-2" data-name="Path 17" d="M125.624,360.727a1.147,1.147,0,1,1,1.127-1.168A1.149,1.149,0,0,1,125.624,360.727Zm-.03-1.685a.538.538,0,1,0,.548.528A.538.538,0,0,0,125.594,359.042Z" transform="translate(-121.396 -354.798)" fill="#fff"/>
          <path id="Path_18" data-name="Path 18" d="M129.27,360.661a1.147,1.147,0,1,1,1.126-1.168A1.149,1.149,0,0,1,129.27,360.661Zm-.031-1.685a.538.538,0,1,0,.548.528A.538.538,0,0,0,129.239,358.976Z" transform="translate(-121.88 -354.789)" fill="#fff"/>
          <path id="Path_19" data-name="Path 19" d="M132.846,360.6a1.147,1.147,0,1,1,1.127-1.168A1.149,1.149,0,0,1,132.846,360.6Zm-.03-1.685a.538.538,0,1,0,.548.528A.538.538,0,0,0,132.816,358.911Z" transform="translate(-122.355 -354.78)" fill="#fff"/>
        </g>
        <g id="Group_24" data-name="Group 24" transform="translate(275.856 202.772)" opacity="0.38">
          <path id="Path_22" data-name="Path 22" d="M445.84,331.357h-49.1a1.706,1.706,0,0,1-1.538-1.831V311.458a1.706,1.706,0,0,1,1.538-1.832h49.1a1.706,1.706,0,0,1,1.538,1.832v18.069A1.706,1.706,0,0,1,445.84,331.357Zm-49.1-20.864c-.363,0-.671.442-.671.964v18.069c0,.523.308.963.671.963h49.1c.363,0,.67-.441.67-.963V311.458c0-.522-.307-.964-.67-.964Z" transform="translate(-395.198 -309.626)" fill="#fff"/>
          <g id="Group_20" data-name="Group 20" transform="translate(9.241 6.554)">
            <rect id="Rectangle_3" data-name="Rectangle 3" width="33.239" height="0.867" transform="translate(0.868 0.433)" fill="#fff"/>
            <path id="Path_23" data-name="Path 23" d="M439.961,318.918h-33.24a.867.867,0,0,1,0-1.734h33.24a.867.867,0,0,1,0,1.734Zm0-.867v0Z" transform="translate(-405.854 -317.184)" fill="#fff"/>
          </g>
          <g id="Group_21" data-name="Group 21" transform="translate(9.241 10.497)">
            <rect id="Rectangle_4" data-name="Rectangle 4" width="14.853" height="0.867" transform="translate(0.868 0.434)" fill="#fff"/>
            <path id="Path_24" data-name="Path 24" d="M421.574,323.464H406.721a.867.867,0,0,1,0-1.734h14.853a.867.867,0,1,1,0,1.734Zm0-.867v0Z" transform="translate(-405.854 -321.73)" fill="#fff"/>
          </g>
          <g id="Group_22" data-name="Group 22" transform="translate(27.629 10.497)">
            <rect id="Rectangle_5" data-name="Rectangle 5" width="14.852" height="0.867" transform="translate(0.867 0.434)" fill="#fff"/>
            <path id="Path_25" data-name="Path 25" d="M442.777,323.464H427.925a.867.867,0,1,1,0-1.734h14.852a.867.867,0,1,1,0,1.734Zm0-.867v0Z" transform="translate(-427.058 -321.73)" fill="#fff"/>
          </g>
          <g id="Group_23" data-name="Group 23" transform="translate(9.241 14.624)">
            <rect id="Rectangle_6" data-name="Rectangle 6" width="33.239" height="0.867" transform="translate(0.868 0.433)" fill="#fff"/>
            <path id="Path_26" data-name="Path 26" d="M439.961,328.223h-33.24a.867.867,0,0,1,0-1.734h33.24a.867.867,0,0,1,0,1.734Zm0-.867v0Z" transform="translate(-405.854 -326.489)" fill="#fff"/>
          </g>
        </g>
        <g id="Group_25" data-name="Group 25" transform="translate(155.515 238.31)" opacity="0.55">
          <path id="Path_27" data-name="Path 27" d="M290.69,417.122a3.021,3.021,0,0,1-2.992-2.688l-.611-5.543a24.846,24.846,0,0,1-8.624-2.51l-3.489,4.353a3.019,3.019,0,0,1-4.242.467l-3.6-2.887a3.018,3.018,0,0,1-.467-4.241l3.49-4.353a24.832,24.832,0,0,1-4.326-7.871l-5.544.611a3.028,3.028,0,0,1-3.33-2.669l-.506-4.588a3.024,3.024,0,0,1,2.669-3.33l5.544-.61a24.843,24.843,0,0,1,2.509-8.624l-4.353-3.49a3.02,3.02,0,0,1-.467-4.241l2.886-3.6a3.018,3.018,0,0,1,4.242-.467l4.353,3.489A24.869,24.869,0,0,1,281.7,360l-.611-5.543a3.017,3.017,0,0,1,2.669-3.329l4.588-.506a3.017,3.017,0,0,1,3.329,2.669l.611,5.544a24.842,24.842,0,0,1,8.625,2.509l3.488-4.353a3.02,3.02,0,0,1,4.242-.467l3.6,2.887a3.018,3.018,0,0,1,.467,4.241l-3.489,4.353a24.85,24.85,0,0,1,4.326,7.871l5.543-.61a3.025,3.025,0,0,1,3.33,2.668l.506,4.588a3.024,3.024,0,0,1-2.669,3.33l-5.543.611a24.846,24.846,0,0,1-2.51,8.624l4.353,3.49h0a3.018,3.018,0,0,1,.467,4.242l-2.886,3.6a3.017,3.017,0,0,1-4.242.467l-4.353-3.489a24.86,24.86,0,0,1-7.871,4.327l.611,5.543a3.021,3.021,0,0,1-2.669,3.33l-4.588.5A2.945,2.945,0,0,1,290.69,417.122Zm-12.684-12.943.635.341a23.163,23.163,0,0,0,9.3,2.7l.719.053.767,6.966a1.281,1.281,0,0,0,1.414,1.135l4.588-.5a1.282,1.282,0,0,0,1.135-1.416l-.767-6.966.69-.208a23.171,23.171,0,0,0,8.483-4.663l.546-.47,5.47,4.383a1.28,1.28,0,0,0,1.8-.2l2.886-3.6a1.286,1.286,0,0,0-.2-1.8h0L310,395.546l.342-.636a23.192,23.192,0,0,0,2.7-9.294l.053-.72,6.966-.767a1.286,1.286,0,0,0,1.135-1.416l-.506-4.588a1.288,1.288,0,0,0-1.416-1.134l-6.966.767-.208-.69a23.176,23.176,0,0,0-4.662-8.483l-.472-.546,4.385-5.47a1.282,1.282,0,0,0-.2-1.8l-3.6-2.887a1.285,1.285,0,0,0-1.8.2l-4.384,5.47-.637-.341a23.175,23.175,0,0,0-9.295-2.7l-.719-.054-.767-6.966a1.284,1.284,0,0,0-1.415-1.135l-4.588.506a1.282,1.282,0,0,0-1.135,1.414l.767,6.967-.69.209a23.157,23.157,0,0,0-8.483,4.662l-.546.471-5.47-4.384a1.284,1.284,0,0,0-1.8.2l-2.886,3.6a1.284,1.284,0,0,0,.2,1.8l5.469,4.385-.341.636a23.178,23.178,0,0,0-2.7,9.295l-.054.72-6.966.766a1.287,1.287,0,0,0-1.135,1.416l.506,4.588a1.288,1.288,0,0,0,1.416,1.135l6.966-.767.209.69a23.15,23.15,0,0,0,4.662,8.483l.472.546-4.385,5.47a1.284,1.284,0,0,0,.2,1.8l3.6,2.887a1.287,1.287,0,0,0,1.8-.2Zm11.669-6.972a13.342,13.342,0,1,1,10.429-5A13.284,13.284,0,0,1,289.675,397.207Zm.036-24.961a11.8,11.8,0,0,0-1.294.072,11.615,11.615,0,0,0-5.993,20.608h0a11.615,11.615,0,1,0,7.287-20.68Z" transform="translate(-256.43 -350.606)" fill="#fff"/>
        </g>
        <g id="Group_68" data-name="Group 68" transform="translate(122.765 62.61)">
          <g id="Group_67" data-name="Group 67" transform="translate(0)">
            <rect id="Rectangle_19" data-name="Rectangle 19" width="123.857" height="200.401" rx="3.434" transform="translate(6.772 10.127) rotate(-0.585)" fill="#3e479b" opacity="0.22"/>
            <rect id="Rectangle_20" data-name="Rectangle 20" width="123.857" height="200.401" rx="3.434" transform="translate(0 1.315) rotate(-0.585)" fill="#fff"/>
            <g id="Group_60" data-name="Group 60" transform="translate(0.464)">
              <path id="Path_121" data-name="Path 121" d="M455.12,118.134l.109,10.642-123.852,1.265-.111-10.891a4.856,4.856,0,0,1,4.8-4.9l113.893-1.162A5.1,5.1,0,0,1,455.12,118.134Z" transform="translate(-331.267 -113.084)" fill="#d4d4d4"/>
              <g id="Group_59" data-name="Group 59" transform="translate(107.831 4.916)">
                <path id="Path_122" data-name="Path 122" d="M405.031,117.991a.738.738,0,0,1-.007-1.477l9.289-.1a.738.738,0,1,1,.015,1.477l-9.289.1Z" transform="translate(-404.293 -116.413)" fill="#fff"/>
                <path id="Path_123" data-name="Path 123" d="M405.048,119.6a.738.738,0,0,1-.007-1.477l9.289-.094a.8.8,0,0,1,.746.731.74.74,0,0,1-.732.746l-9.289.094Z" transform="translate(-404.285 -115.645)" fill="#fff"/>
                <path id="Path_124" data-name="Path 124" d="M405.064,121.2a.738.738,0,0,1-.007-1.477l9.289-.094h.007a.738.738,0,0,1,.007,1.477l-9.289.095Z" transform="translate(-404.277 -114.879)" fill="#fff"/>
              </g>
              <path id="Path_125" data-name="Path 125" d="M340.178,125.111a.735.735,0,0,1-.515-.211l-3.409-3.34a1.03,1.03,0,0,1-.016-1.451l3.212-3.28a.739.739,0,0,1,1.056,1.034l-2.9,2.956,3.088,3.027a.739.739,0,0,1,.012,1.044A.746.746,0,0,1,340.178,125.111Z" transform="translate(-329.037 -111.404)" fill="#fff"/>
            </g>
            <path id="Path_126" data-name="Path 126" d="M451.114,263.472l-114.091.644a4.986,4.986,0,0,1-5.013-4.957l-.223-39.538,124.061-.7.223,39.538A4.985,4.985,0,0,1,451.114,263.472Z" transform="translate(-330.555 -62.64)" fill="#cbcbcb" opacity="0.36"/>
            <rect id="Rectangle_21" data-name="Rectangle 21" width="53.139" height="8.758" rx="1.118" transform="matrix(1, -0.006, 0.006, 1, 36.01, 35.479)" fill="#cbcbcb"/>
            <g id="Group_63" data-name="Group 63" transform="translate(15.143 63.888)">
              <path id="Rectangle_22" data-name="Rectangle 22" d="M4.732,0H90.466A4.732,4.732,0,0,1,95.2,4.732v6.224a4.733,4.733,0,0,1-4.733,4.733H4.733A4.733,4.733,0,0,1,0,10.957V4.732A4.732,4.732,0,0,1,4.732,0Z" transform="translate(0 0.536) rotate(-0.323)" fill="#cbcbcb" opacity="0.32"/>
              <g id="Group_62" data-name="Group 62" transform="translate(3.422 3.565)">
                <path id="Path_127" data-name="Path 127" d="M353.184,163.567a4.829,4.829,0,1,1-4.857-4.8A4.829,4.829,0,0,1,353.184,163.567Z" transform="translate(-343.526 -158.765)" fill="#cbcbcb" opacity="0.43"/>
                <g id="Group_61" data-name="Group 61" transform="translate(2.264 1.71)">
                  <path id="Path_128" data-name="Path 128" d="M349.092,161.654a1.739,1.739,0,1,1-1.748-1.731A1.738,1.738,0,0,1,349.092,161.654Z" transform="translate(-344.795 -159.923)" fill="#cbcbcb"/>
                  <path id="Path_129" data-name="Path 129" d="M350.221,165.214l-5.159.028,0-.633a2.709,2.709,0,0,1,2.695-2.726h0a2.448,2.448,0,0,1,2.463,2.435Z" transform="translate(-345.059 -158.989)" fill="#cbcbcb"/>
                </g>
              </g>
            </g>
          </g>
          <path id="Path_133" data-name="Path 133" d="M351.371,231.515a1.477,1.477,0,0,1-.007-2.953l67.8-.382h.007a1.477,1.477,0,0,1,.009,2.953l-67.8.382Z" transform="translate(-321.925 -58.229)" fill="#fff"/>
          <path id="Path_134" data-name="Path 134" d="M360.718,238.37a1.477,1.477,0,0,1-.009-2.953l40.316-.227h.009a1.477,1.477,0,0,1,.009,2.953l-40.316.227Z" transform="translate(-317.471 -54.888)" fill="#fff"/>
        </g>
        <g id="Group_18" data-name="Group 18" transform="translate(1.435 -236.836)">
          <path id="Path_16-2" data-name="Path 16" d="M156.425,430.667l12.382-11.333,12.974,5h12.975L207.73,408l12.975-10.666L233.68,414l12.381,5.667V447.5H156.425Z" fill="#1eb4b9"/>
          <g id="Group_17-2" data-name="Group 17" clip-path="url(#clip-path)">
            <rect id="Rectangle_10" data-name="Rectangle 10" width="13.045" height="32.092" transform="translate(168.807 419.334)" fill="#fff" opacity="0.2"/>
            <rect id="Rectangle_11" data-name="Rectangle 11" width="13.045" height="48.985" transform="translate(194.72 402.44)" fill="#fff" opacity="0.2"/>
            <rect id="Rectangle_12" data-name="Rectangle 12" width="13.045" height="60.594" transform="translate(220.633 390.832)" fill="#fff" opacity="0.2"/>
          </g>
        </g>
      </g>
      <g id="Group_29" data-name="Group 29" transform="translate(78.603 140.401)" opacity="0.61">
        <g id="Group_28" data-name="Group 28" transform="translate(0)">
          <g transform="matrix(1, 0, 0, 1, -32.28, -64.6)" filter="url(#Rectangle_7)">
            <rect id="Rectangle_7-2" data-name="Rectangle 7" width="126.165" height="204.136" rx="3.434" transform="translate(32.28 66.18) rotate(-0.7)" fill="#ececec" opacity="0.74"/>
          </g>
          <g id="Group_27" data-name="Group 27" transform="translate(0.473)">
            <path id="Path_28" data-name="Path 28" d="M194.446,187.519l.141,11.605L68.431,200.656l-.144-11.821a4.217,4.217,0,0,1,4.165-4.268l117.507-1.428A4.435,4.435,0,0,1,194.446,187.519Z" transform="translate(-68.287 -183.14)" fill="#aaa"/>
          </g>
        </g>
        <path id="Path_29" data-name="Path 29" d="M75.641,193.438a2.6,2.6,0,1,1,2.577-2.617A2.6,2.6,0,0,1,75.641,193.438Zm-.032-4.156a1.559,1.559,0,1,0,1.57,1.547A1.56,1.56,0,0,0,75.609,189.282Z" transform="translate(-66.474 -181.696)" fill="#fff"/>
        <path id="Path_30" data-name="Path 30" d="M82.4,193.387a2.6,2.6,0,1,1,2.577-2.617A2.6,2.6,0,0,1,82.4,193.387Zm-.032-4.156a1.559,1.559,0,1,0,1.57,1.547A1.56,1.56,0,0,0,82.372,189.231Z" transform="translate(-64.562 -181.711)" fill="#fff"/>
        <path id="Path_31" data-name="Path 31" d="M88.98,193.337a2.6,2.6,0,1,1,2.577-2.617A2.6,2.6,0,0,1,88.98,193.337Zm-.032-4.155a1.558,1.558,0,1,0,1.57,1.546A1.559,1.559,0,0,0,88.948,189.182Z" transform="translate(-62.702 -181.725)" fill="#fff"/>
        <path id="Path_32" data-name="Path 32" d="M135.357,211.305l-58.3.441a1.039,1.039,0,0,1-.017-2.078l58.3-.441a1.039,1.039,0,0,1,.017,2.078Z" transform="translate(-65.63 -175.763)" fill="#fff"/>
        <path id="Path_33" data-name="Path 33" d="M140.322,211.19l-12.1.092a1.039,1.039,0,0,1-.015-2.078l12.1-.091a1.038,1.038,0,1,1,.015,2.077Z" transform="translate(-51.162 -175.795)" fill="#3e479b"/>
        <path id="Path_34" data-name="Path 34" d="M135.642,249.036l-58.3.441a1.039,1.039,0,1,1-.015-2.078l58.3-.441a1.039,1.039,0,1,1,.015,2.078Z" transform="translate(-65.549 -165.094)" fill="#fff"/>
        <path id="Path_35" data-name="Path 35" d="M140.608,248.921l-12.1.092a1.039,1.039,0,0,1-.015-2.078l12.1-.092a1.039,1.039,0,1,1,.015,2.078Z" transform="translate(-51.081 -165.126)" fill="#599af2"/>
        <path id="Path_36" data-name="Path 36" d="M135.493,229.313l-58.3.441a1.039,1.039,0,0,1-.015-2.078l58.3-.441a1.039,1.039,0,0,1,.015,2.078Z" transform="translate(-65.591 -170.671)" fill="#a0a0a0"/>
        <path id="Path_37" data-name="Path 37" d="M140.459,229.2l-12.1.091a1.038,1.038,0,0,1-.017-2.077l12.1-.092a1.039,1.039,0,0,1,.017,2.078Z" transform="translate(-51.123 -170.703)" fill="#fff"/>
        <path id="Path_38" data-name="Path 38" d="M155.989,229.081l-12.1.091a1.039,1.039,0,1,1-.015-2.078l12.1-.091a1.039,1.039,0,1,1,.015,2.078Z" transform="translate(-46.732 -170.737)" fill="#3e479b"/>
        <path id="Path_39" data-name="Path 39" d="M115.99,220.281l-38.865.294a1.039,1.039,0,0,1-.017-2.078l38.867-.294a1.039,1.039,0,1,1,.015,2.078Z" transform="translate(-65.611 -173.225)" fill="#a0a0a0"/>
        <path id="Path_40" data-name="Path 40" d="M130.047,220.138,113,220.266a1.038,1.038,0,1,1-.015-2.077l17.051-.13a1.039,1.039,0,0,1,.015,2.078Z" transform="translate(-55.467 -173.265)" fill="#a0a0a0"/>
        <path id="Path_41" data-name="Path 41" d="M135,239.114l-38.867.294a1.039,1.039,0,1,1-.015-2.078l38.867-.294a1.039,1.039,0,0,1,.015,2.078Z" transform="translate(-60.236 -167.9)" fill="#a0a0a0"/>
        <path id="Path_42" data-name="Path 42" d="M94.318,239.385l-17.051.13a1.039,1.039,0,1,1-.015-2.078l17.049-.13a1.039,1.039,0,0,1,.017,2.078Z" transform="translate(-65.57 -167.823)" fill="#a0a0a0"/>
        <path id="Path_43" data-name="Path 43" d="M135.739,261.756l-58.3.441a1.039,1.039,0,1,1-.015-2.078l58.3-.441a1.039,1.039,0,0,1,.017,2.078Z" transform="translate(-65.522 -161.497)" fill="#a0a0a0"/>
        <path id="Path_44" data-name="Path 44" d="M140.7,261.641l-12.1.092a1.039,1.039,0,0,1-.015-2.078l12.1-.092a1.039,1.039,0,0,1,.015,2.078Z" transform="translate(-51.054 -161.53)" fill="#3e479b"/>
        <path id="Path_45" data-name="Path 45" d="M136.024,299.486l-58.3.441a1.039,1.039,0,1,1-.015-2.078l58.3-.441a1.039,1.039,0,0,1,.015,2.078Z" transform="translate(-65.441 -150.828)" fill="#fff"/>
        <path id="Path_46" data-name="Path 46" d="M140.99,299.372l-12.1.091a1.039,1.039,0,0,1-.017-2.078l12.1-.091a1.039,1.039,0,0,1,.017,2.078Z" transform="translate(-50.973 -150.86)" fill="#599af2"/>
        <path id="Path_47" data-name="Path 47" d="M135.875,279.764l-58.3.441a1.039,1.039,0,0,1-.017-2.078l58.3-.441a1.039,1.039,0,1,1,.015,2.078Z" transform="translate(-65.483 -156.405)" fill="#a0a0a0"/>
        <path id="Path_48" data-name="Path 48" d="M140.84,279.649l-12.1.091a1.038,1.038,0,1,1-.015-2.077l12.1-.092a1.039,1.039,0,1,1,.015,2.078Z" transform="translate(-51.016 -156.438)" fill="#fff"/>
        <path id="Path_49" data-name="Path 49" d="M156.371,279.531l-12.1.092a1.039,1.039,0,1,1-.015-2.078l12.1-.091a1.038,1.038,0,0,1,.017,2.077Z" transform="translate(-46.624 -156.471)" fill="#3e479b"/>
        <path id="Path_50" data-name="Path 50" d="M116.372,270.731l-38.867.294a1.039,1.039,0,1,1-.015-2.078l38.867-.294a1.039,1.039,0,1,1,.015,2.078Z" transform="translate(-65.503 -158.959)" fill="#a0a0a0"/>
        <path id="Path_51" data-name="Path 51" d="M130.429,270.588l-17.051.129a1.039,1.039,0,1,1-.015-2.078l17.049-.13a1.039,1.039,0,0,1,.017,2.078Z" transform="translate(-55.359 -159)" fill="#a0a0a0"/>
        <path id="Path_52" data-name="Path 52" d="M135.381,289.564l-38.867.294a1.038,1.038,0,1,1-.015-2.077l38.867-.3a1.039,1.039,0,0,1,.015,2.078Z" transform="translate(-60.128 -153.634)" fill="#a0a0a0"/>
        <path id="Path_53" data-name="Path 53" d="M94.7,289.836l-17.049.128a1.039,1.039,0,1,1-.015-2.078l17.049-.128a1.039,1.039,0,1,1,.015,2.078Z" transform="translate(-65.462 -153.557)" fill="#a0a0a0"/>
        <path id="Path_54" data-name="Path 54" d="M136.112,311.153l-58.3.441a1.038,1.038,0,1,1-.015-2.077l58.3-.441a1.038,1.038,0,1,1,.015,2.077Z" transform="translate(-65.416 -147.529)" fill="#a0a0a0"/>
        <path id="Path_55" data-name="Path 55" d="M141.078,311.039l-12.1.091a1.039,1.039,0,0,1-.015-2.078l12.1-.091a1.039,1.039,0,0,1,.015,2.078Z" transform="translate(-50.948 -147.561)" fill="#3e479b"/>
        <path id="Path_56" data-name="Path 56" d="M141.258,334.863l-12.1.091a1.039,1.039,0,0,1-.015-2.078l12.1-.091a1.039,1.039,0,0,1,.015,2.078Z" transform="translate(-50.897 -140.825)" fill="#fff"/>
        <path id="Path_57" data-name="Path 57" d="M156.789,334.745l-12.1.092a1.039,1.039,0,0,1-.015-2.078l12.1-.092a1.039,1.039,0,0,1,.017,2.078Z" transform="translate(-46.506 -140.858)" fill="#3e479b"/>
        <path id="Path_58" data-name="Path 58" d="M116.746,320.129l-38.867.294a1.038,1.038,0,1,1-.015-2.077l38.867-.3a1.039,1.039,0,0,1,.015,2.078Z" transform="translate(-65.397 -144.991)" fill="#a0a0a0"/>
        <path id="Path_59" data-name="Path 59" d="M130.8,319.986l-17.051.13a1.039,1.039,0,1,1-.015-2.078l17.049-.128a1.038,1.038,0,1,1,.017,2.077Z" transform="translate(-55.253 -145.031)" fill="#a0a0a0"/>
        <g id="Group_31" data-name="Group 31" transform="translate(-375.935 -166.265)">
          <rect id="Rectangle_21-2" data-name="Rectangle 21" width="108.392" height="144.333" transform="translate(375.935 183.331)" fill="#fff"/>
          <text id="Lorem_ipsum" data-name="Lorem ipsum" transform="translate(386.82 232.482)" fill="#b3b3b3" font-size="5.693" font-family="Montserrat-Regular, Montserrat"><tspan x="0" y="0">Lorem ipsum</tspan></text>
          <text id="Dolor_sit_amet" data-name="Dolor sit amet" transform="translate(386.82 251.57)" fill="#b3b3b3" font-size="5.693" font-family="Montserrat-Regular, Montserrat"><tspan x="0" y="0">Dolor sit amet</tspan></text>
          <text id="Exercitation_ullamco" data-name="Exercitation ullamco" transform="translate(386.82 269.393)" fill="#b3b3b3" font-size="5.693" font-family="Montserrat-Regular, Montserrat"><tspan x="0" y="0">Exercitation ullamco</tspan></text>
          <text id="Laboris_nisi_ut_aliquip" data-name="Laboris nisi ut aliquip" transform="translate(386.82 286.896)" fill="#b3b3b3" font-size="5.693" font-family="Montserrat-Regular, Montserrat"><tspan x="0" y="0">Laboris nisi ut aliquip</tspan></text>
          <g id="Group_26-2" data-name="Group 26">
            <rect id="Rectangle_22-2" data-name="Rectangle 22" width="84.449" height="14.093" transform="translate(387.42 303.787)" fill="#df2561"/>
            <text id="Lorem_ipsum-2" data-name="Lorem ipsum" transform="translate(404.829 313.623)" fill="#fff" font-size="7.504" font-family="Montserrat-Regular, Montserrat"><tspan x="0" y="0">Lorem ipsum</tspan></text>
          </g>
          <g id="Group_27-2" data-name="Group 27">
            <path id="Path_22-2" data-name="Path 22" d="M468.571,235.658H409.542V239.9h59.029a2.119,2.119,0,0,0,0-4.238Z" fill="#f2f2f2"/>
            <path id="Path_23-2" data-name="Path 23" d="M388.939,235.658a2.119,2.119,0,0,0,0,4.238h20.6v-4.238Z" fill="#1eb4b9"/>
          </g>
          <g id="Group_28-2" data-name="Group 28">
            <path id="Path_24-2" data-name="Path 24" d="M388.939,254.418a2.119,2.119,0,0,0,0,4.238h39.816v-4.238Z" fill="#df2561"/>
            <path id="Path_25-2" data-name="Path 25" d="M468.571,254.418H428.755v4.238h39.816a2.119,2.119,0,0,0,0-4.238Z" fill="#f2f2f2"/>
          </g>
          <g id="Group_29-2" data-name="Group 29">
            <path id="Path_26-2" data-name="Path 26" d="M388.939,272.179a2.119,2.119,0,0,0,0,4.238h61.4v-4.238Z" fill="#a5cf26"/>
            <path id="Path_27-2" data-name="Path 27" d="M468.571,272.179H450.334v4.238h18.237a2.119,2.119,0,0,0,0-4.238Z" fill="#f2f2f2"/>
          </g>
          <g id="Group_30" data-name="Group 30">
            <path id="Path_28-2" data-name="Path 28" d="M388.939,289.94a2.119,2.119,0,0,0,0,4.238h27.49V289.94Z" fill="#0f5a5d"/>
            <path id="Path_29-2" data-name="Path 29" d="M468.571,289.94H416.429v4.238h52.142a2.119,2.119,0,0,0,0-4.238Z" fill="#f2f2f2"/>
          </g>
        </g>
      </g>
      <g id="Group_55" data-name="Group 55" transform="translate(141.148 92.096)">
        <g id="Group_39" data-name="Group 39">
          <g id="Group_38" data-name="Group 38">
            <g id="Group_37" data-name="Group 37">
              <g id="Group_36" data-name="Group 36">
                <g id="Group_31-2" data-name="Group 31">
                  <path id="Path_60" data-name="Path 60" d="M152.361,130.12l.891,3.042,0-4.054Z" transform="translate(-152.361 -99.173)" fill="none"/>
                  <g id="Group_30-2" data-name="Group 30" transform="translate(0.087)">
                    <path id="Path_61" data-name="Path 61" d="M153.352,358.958l0-4.054-.888,3.042Z" transform="translate(-152.462 -129.157)" fill="none"/>
                    <path id="Path_62" data-name="Path 62" d="M153.378,107.066l.008,17.458,0,4.054.021,48.464.042,94.832.022,48.463,0,4.054.005,11.792A12.46,12.46,0,0,0,165.907,348.6l8.854,0,97.5-.043a12.43,12.43,0,0,0,12.418-12.429l-.1-229.118A12.434,12.434,0,0,0,272.149,94.59L165.8,94.637A12.422,12.422,0,0,0,153.378,107.066Z" transform="translate(-152.583 -94.59)" fill="#d5d5d5"/>
                    <path id="Path_63" data-name="Path 63" d="M154.427,112.134l.008,16.89,0,3.922.021,46.887.04,91.747.021,46.887,0,3.923.005,11.408a12.025,12.025,0,0,0,7.961,11.242,12.406,12.406,0,0,0,4.3.772l8.732,0,96.149-.043a12.35,12.35,0,0,0,6.921-2.109,11.942,11.942,0,0,0,5.325-9.916l-.1-221.664a11.9,11.9,0,0,0-4.379-9.2,12.341,12.341,0,0,0-7.878-2.816l-104.881.047A12.137,12.137,0,0,0,154.427,112.134Z" transform="translate(-152.723 -95.317)" fill="#f8f8f8"/>
                  </g>
                </g>
                <g id="Group_34" data-name="Group 34" transform="translate(7.748 31.84)">
                  <path id="Path_64" data-name="Path 64" d="M278.782,134.392l.081,184.135a2.978,2.978,0,0,1-2.977,2.98l-111.529.049a2.978,2.978,0,0,1-2.98-2.977L161.3,134.444a2.978,2.978,0,0,1,2.976-2.98l111.529-.049A2.979,2.979,0,0,1,278.782,134.392Z" transform="translate(-161.296 -131.32)" fill="#fff"/>
                  <g id="Group_33" data-name="Group 33">
                    <path id="Path_65" data-name="Path 65" d="M278.782,134.3l.005,11.938-117.485.052-.006-12.085a2.852,2.852,0,0,1,2.85-2.852l111.638-.049A3,3,0,0,1,278.782,134.3Z" transform="translate(-161.296 -131.305)" fill="#1799d9"/>
                    <g id="Group_32" data-name="Group 32" transform="translate(102.549 4.929)">
                      <path id="Path_66" data-name="Path 66" d="M279.982,137.861a.434.434,0,1,1,0-.867l8.813,0h0a.434.434,0,1,1,0,.867l-8.813,0Z" transform="translate(-279.548 -136.989)" fill="#fff"/>
                      <path id="Path_67" data-name="Path 67" d="M279.983,140.457a.434.434,0,0,1,0-.867l8.813,0h0a.434.434,0,1,1,0,.867l-8.813,0Z" transform="translate(-279.548 -137.334)" fill="#fff"/>
                      <path id="Path_68" data-name="Path 68" d="M279.984,143.052a.434.434,0,1,1,0-.867l8.813,0h0a.434.434,0,1,1,0,.867l-8.813,0Z" transform="translate(-279.548 -137.678)" fill="#fff"/>
                    </g>
                    <path id="Path_69" data-name="Path 69" d="M172.841,143.688a.436.436,0,0,1-.307-.127l-3.2-3.2a.707.707,0,0,1,0-1l3.076-3.079a.434.434,0,1,1,.613.613l-2.963,2.967,3.089,3.086a.433.433,0,0,1-.306.74Z" transform="translate(-162.336 -131.949)" fill="#fff"/>
                  </g>
                </g>
                <path id="Path_70" data-name="Path 70" d="M228.666,117.734a3.18,3.18,0,0,1,0-6.361h0a3.18,3.18,0,0,1,0,6.361Zm0-5.013h0a1.833,1.833,0,0,0,0,3.666h0a1.833,1.833,0,1,0,0-3.666Z" transform="translate(-162.071 -96.819)" fill="#fff"/>
                <path id="Path_71" data-name="Path 71" d="M225.352,375.474a2.043,2.043,0,0,1-2.041-2.04l0-6.027a2.044,2.044,0,0,1,2.04-2.042l6.028,0a2.044,2.044,0,0,1,2.041,2.041l0,6.028a2.043,2.043,0,0,1-2.039,2.041Zm6.024-9.244-6.028,0a1.177,1.177,0,0,0-1.172,1.175l0,6.027a1.175,1.175,0,0,0,1.174,1.172l6.028,0a1.175,1.175,0,0,0,1.172-1.174l0-6.028A1.175,1.175,0,0,0,231.376,366.229Z" transform="translate(-161.782 -130.546)" fill="#fff"/>
                <g id="Group_35" data-name="Group 35" transform="translate(26.826 235.798)">
                  <path id="Path_72" data-name="Path 72" d="M183.729,367.364a.434.434,0,1,1,0-.867l5.8,0h0a.434.434,0,1,1,0,.867l-5.8,0Z" transform="translate(-183.295 -366.494)" fill="#fff"/>
                  <path id="Path_73" data-name="Path 73" d="M183.73,370.979a.434.434,0,0,1,0-.867l5.8,0h0a.434.434,0,0,1,0,.867l-5.8,0Z" transform="translate(-183.295 -366.974)" fill="#fff"/>
                  <path id="Path_74" data-name="Path 74" d="M183.732,374.638a.434.434,0,1,1,0-.867l5.8,0h0a.434.434,0,1,1,0,.867l-5.8,0Z" transform="translate(-183.295 -367.46)" fill="#fff"/>
                </g>
                <path id="Path_75" data-name="Path 75" d="M275.434,375.582a.433.433,0,0,1-.307-.127l-4.563-4.559,4.443-4.446a.434.434,0,0,1,.613.613l-3.83,3.833,3.95,3.947a.434.434,0,0,1-.306.74Z" transform="translate(-168.057 -130.673)" fill="#fff"/>
              </g>
            </g>
          </g>
        </g>
        <g id="Group_40" data-name="Group 40" transform="translate(7.941 46.986)">
          <rect id="Rectangle_8" data-name="Rectangle 8" width="117.307" height="38.419" fill="#1799d9" opacity="0.36"/>
          <rect id="Rectangle_9" data-name="Rectangle 9" width="44.566" height="9.523" rx="1.412" transform="translate(9.598 7.767)" fill="#fff" opacity="0.43"/>
          <rect id="Rectangle_10-2" data-name="Rectangle 10" width="67.706" height="4.761" rx="1.412" transform="translate(9.604 22.618)" fill="#fff" opacity="0.43"/>
          <path id="Path_76" data-name="Path 76" d="M278.748,176.661a9.009,9.009,0,0,1,0-18.018h0a9.01,9.01,0,0,1,9.009,9.005h0a9.008,9.008,0,0,1-9.005,9.013Zm0-16.284h0a7.275,7.275,0,0,0,0,14.549h0a7.275,7.275,0,0,0,7.271-7.278h0a7.273,7.273,0,0,0-7.274-7.272Z" transform="translate(-175.889 -150.081)" fill="#fff" opacity="0.43"/>
        </g>
        <g id="Group_15446" data-name="Group 15446" transform="translate(-139.83 -155.126)">
          <line id="Line_23" data-name="Line 23" x2="117" transform="translate(147.5 286.5)" fill="none" stroke="#707070" stroke-width="1" opacity="0.3"/>
          <line id="Line_24" data-name="Line 24" x2="117" transform="translate(147.5 299.5)" fill="none" stroke="#707070" stroke-width="1" opacity="0.3"/>
          <line id="Line_25" data-name="Line 25" x2="117" transform="translate(147.5 312.5)" fill="none" stroke="#707070" stroke-width="1" opacity="0.3"/>
          <line id="Line_26" data-name="Line 26" x2="117" transform="translate(147.5 325.5)" fill="none" stroke="#707070" stroke-width="1" opacity="0.3"/>
          <line id="Line_27" data-name="Line 27" x2="117" transform="translate(147.5 338.5)" fill="none" stroke="#707070" stroke-width="1" opacity="0.3"/>
          <line id="Line_28" data-name="Line 28" x2="117" transform="translate(147.5 351.5)" fill="none" stroke="#707070" stroke-width="1" opacity="0.3"/>
        </g>
        <g id="Group_54" data-name="Group 54" transform="translate(18.327 99.343)">
          <g id="Group_53" data-name="Group 53">
            <g id="Group_44" data-name="Group 44">
              <g id="Group_42" data-name="Group 42">
                <rect id="Rectangle_11-2" data-name="Rectangle 11" width="27.307" height="27.307" rx="4.555" fill="#1eb4b9"/>
                <g id="Group_41" data-name="Group 41" transform="translate(7.76 7.895)" opacity="0.36">
                  <path id="Path_77" data-name="Path 77" d="M194.229,224.139a5.893,5.893,0,1,1-5.9-5.89A5.894,5.894,0,0,1,194.229,224.139Z" transform="translate(-182.443 -218.249)" fill="#eaeaea"/>
                </g>
              </g>
              <g id="Group_43" data-name="Group 43" transform="translate(31.197 4.246)" opacity="0.26">
                <rect id="Rectangle_12-2" data-name="Rectangle 12" width="17.33" height="4.898" rx="1.138" transform="translate(0.863)" fill="#3e479b"/>
                <path id="Path_78" data-name="Path 78" d="M210.335,228.1a.867.867,0,0,1,0-1.734l29.575-.013h0a.867.867,0,1,1,0,1.734l-29.574.013Z" transform="translate(-209.468 -215.676)" fill="#3e479b"/>
                <path id="Path_79" data-name="Path 79" d="M210.338,235.239a.867.867,0,0,1,0-1.734l48.224-.021h0a.867.867,0,0,1,0,1.734l-48.223.021Z" transform="translate(-209.468 -216.623)" fill="#3e479b"/>
                <path id="Path_80" data-name="Path 80" d="M252.041,228.086a.867.867,0,1,1,0-1.734l29.574-.013h0a.867.867,0,1,1,0,1.734l-29.574.013Z" transform="translate(-215.006 -215.674)" fill="#3e479b"/>
              </g>
            </g>
            <rect id="Rectangle_24" data-name="Rectangle 24" width="12.539" height="40.52" transform="translate(-7.207 59.724)" fill="#1eb4b9"/>
            <rect id="Rectangle_25" data-name="Rectangle 25" width="12.539" height="55.331" transform="translate(5.332 44.913)" fill="#a5cf26"/>
            <rect id="Rectangle_26" data-name="Rectangle 26" width="12.539" height="26.69" transform="translate(17.871 73.553)" fill="#df2561"/>
            <rect id="Rectangle_27" data-name="Rectangle 27" width="12.539" height="54.59" transform="translate(30.41 45.654)" fill="#0f5a5d"/>
            <rect id="Rectangle_28" data-name="Rectangle 28" width="12.539" height="64.613" transform="translate(42.949 35.63)" fill="#1eb4b9"/>
            <rect id="Rectangle_29" data-name="Rectangle 29" width="12.539" height="37.406" transform="translate(55.488 62.837)" fill="#a5cf26"/>
            <rect id="Rectangle_30" data-name="Rectangle 30" width="12.539" height="57.034" transform="translate(68.027 43.21)" fill="#df2561"/>
            <rect id="Rectangle_31" data-name="Rectangle 31" width="12.539" height="29.025" transform="translate(80.566 71.219)" fill="#0f5a5d"/>
            <rect id="Rectangle_32" data-name="Rectangle 32" width="12.539" height="20.26" transform="translate(93.105 79.984)" fill="#1eb4b9"/>
          </g>
        </g>
      </g>
    </g>
  </g>
</svg>
