<svg xmlns="http://www.w3.org/2000/svg" xmlns:xlink="http://www.w3.org/1999/xlink" width="219.16" height="220.29" viewBox="0 0 219.16 220.29">
  <defs>
    <filter id="Rectangle_2" x="0" y="0.221" width="219.16" height="219.16" filterUnits="userSpaceOnUse">
      <feOffset dy="3" input="SourceAlpha"/>
      <feGaussianBlur stdDeviation="3" result="blur"/>
      <feFlood flood-opacity="0.349"/>
      <feComposite operator="in" in2="blur"/>
      <feComposite in="SourceGraphic"/>
    </filter>
  </defs>
  <g id="OBJECTS" transform="translate(-55.126 -51.306)">
    <g id="Group_34" data-name="Group 34" transform="translate(57.34 51.306)">
      <g id="Group_4" data-name="Group 4">
        <g id="Group_3" data-name="Group 3">
          <g id="Group_2" data-name="Group 2">
            <g transform="matrix(1, 0, 0, 1, -2.21, 0)" filter="url(#Rectangle_2)">
              <rect id="Rectangle_2-2" data-name="Rectangle 2" width="201.16" height="201.16" rx="100.58" transform="translate(9 6.22)" fill="#35a8e0"/>
            </g>
            <g id="Group_1" data-name="Group 1">
              <path id="Path_1" data-name="Path 1" d="M178.109,262.964c.492-.077,1.583-.181,3.215-.445l2.849-.511,1.725-.311,1.9-.434a103.951,103.951,0,0,0,21.128-7.146l1.612-.731,1.613-.825c1.083-.564,2.207-1.109,3.322-1.727l3.385-1.946c.582-.321,1.143-.689,1.712-1.054l1.725-1.106a107.747,107.747,0,0,0,13.989-10.86,105.362,105.362,0,0,0,24.48-33.657,104.667,104.667,0,0,0,9.564-47.565,105.509,105.509,0,0,0-15.245-51.411l-1.9-2.966c-.322-.492-.626-1-.963-1.479L251.2,97.349c-.691-.956-1.352-1.939-2.074-2.876l-2.2-2.8a104.442,104.442,0,0,0-9.749-10.507l-1.307-1.244-1.361-1.189c-.914-.786-1.817-1.589-2.746-2.362-1.906-1.487-3.776-3.032-5.785-4.4-1.953-1.447-4.025-2.73-6.078-4.048-1.036-.644-2.109-1.229-3.164-1.845l-1.591-.914-1.633-.841a103.136,103.136,0,0,0-13.5-5.888l-3.5-1.186c-1.176-.374-2.371-.687-3.557-1.032l-1.783-.505-1.805-.421c-1.206-.273-2.407-.569-3.618-.821-2.437-.422-4.864-.929-7.329-1.189l-1.843-.234c-.614-.081-1.229-.159-1.848-.195l-3.705-.283a106.259,106.259,0,0,0-14.853.165c-2.476.133-4.928.531-7.387.823-1.222.2-2.441.428-3.66.642l-1.828.333-1.81.416a102.655,102.655,0,0,0-14.2,4.242l-3.441,1.356c-1.135.477-2.248,1-3.372,1.5l-1.679.764-1.641.839c-1.089.568-2.2,1.1-3.267,1.7a114.891,114.891,0,0,0-12.329,7.915c-.966.739-1.916,1.5-2.873,2.245-.475.379-.961.743-1.424,1.134l-1.375,1.189c-.908.8-1.849,1.565-2.725,2.4l-2.62,2.5-.652.625-.624.652-1.246,1.305c-.828.871-1.671,1.726-2.44,2.646l-2.351,2.714c-.754.926-1.481,1.873-2.221,2.807l-1.1,1.406-1.034,1.452c-.684.972-1.389,1.926-2.048,2.908-1.268,2-2.6,3.952-3.727,6.015a104.449,104.449,0,0,0-13.214,38.79,105.783,105.783,0,0,0-.276,25.986,107.4,107.4,0,0,0,5.568,23.974A104.842,104.842,0,0,0,75.3,214.652a106.449,106.449,0,0,0,27.382,29.161L104.5,245.1c.6.43,1.194.853,1.81,1.233l3.6,2.3,3.57,2.055c.293.166.581.338.875.5l.886.455,1.746.9,1.712.875c.572.275,1.148.525,1.712.784,1.133.508,2.234,1.022,3.324,1.49l3.235,1.278c.528.2,1.042.421,1.563.6l1.546.525a107.453,107.453,0,0,0,19.34,4.72l3.017.385c.869.111,1.6.21,2.193.241l1.794.138a109.3,109.3,0,0,1-13.252-1.354l-3.282-.633-1.643-.319c-.545-.119-1.084-.26-1.626-.391l-3.255-.8c-1.081-.284-2.145-.628-3.219-.941-2.16-.6-4.253-1.394-6.371-2.134-.533-.179-1.054-.384-1.57-.6l-1.558-.638-1.558-.639c-.522-.21-1.041-.426-1.545-.672-2.031-.958-4.094-1.867-6.063-2.959-.991-.534-2-1.036-2.977-1.6l-2.911-1.722a107.517,107.517,0,0,1-43.8-59.011,103.375,103.375,0,0,1-3.737-18.327,112.249,112.249,0,0,1-.542-18.666A107.287,107.287,0,0,1,133.526,55.81a103.639,103.639,0,0,1,18.221-3.761,111.613,111.613,0,0,1,18.568-.6A108.718,108.718,0,0,1,188.7,54.108a106.439,106.439,0,0,1,73.829,145.161,107.331,107.331,0,0,1-20.055,30.814,105.654,105.654,0,0,1-29.3,22.123,103.243,103.243,0,0,1-35.067,10.758Z" transform="translate(-57.34 -51.306)" fill="#35a8e0"/>
              <path id="Path_2" data-name="Path 2" d="M247.44,95.475l-.462-.583-.843-.971c-.685-.774-1.569-1.839-2.721-3.1l-1.936-2.029-1.091-1.143c-.387-.385-.8-.769-1.223-1.174-.85-.8-1.736-1.676-2.711-2.56L233.3,81.186A101.992,101.992,0,0,0,204.885,64.4c-2.02-.846-4.16-1.519-6.327-2.26-1.083-.373-2.209-.646-3.329-.979-1.125-.317-2.256-.661-3.424-.906l-3.519-.812c-1.191-.238-2.4-.437-3.618-.66-.609-.106-1.22-.224-1.835-.32l-1.864-.238c-1.249-.146-2.5-.348-3.777-.45a111.248,111.248,0,0,0-15.775-.318,106.111,106.111,0,0,0-16.447,2.255c-1.376.33-2.773.61-4.15.989l-4.144,1.176c-1.372.444-2.741.92-4.12,1.383-.694.221-1.372.488-2.05.759l-2.042.8A103.7,103.7,0,0,0,68.42,130.2a101.464,101.464,0,0,0-3.792,17.986,108.089,108.089,0,0,0-.619,18.052,104.408,104.408,0,0,0,2.452,17.444,99.052,99.052,0,0,0,5.132,16.233,108.579,108.579,0,0,0,7.353,14.536,109.754,109.754,0,0,0,8.995,12.513l2.423,2.8c.809.917,1.67,1.772,2.491,2.649l1.237,1.3,1.283,1.227c.856.809,1.687,1.628,2.54,2.4a103.521,103.521,0,0,0,38.38,21.98c1.287.386,2.513.721,3.663,1.052.577.158,1.13.333,1.675.462l1.581.366,2.818.651c.863.191,1.659.308,2.365.442,1.416.25,2.5.454,3.232.57l1.116.142a101.553,101.553,0,0,1-32.166-8.713,106.536,106.536,0,0,1-19.507-12.7,105.077,105.077,0,0,1-16.191-16.7,102.687,102.687,0,0,1-12.13-19.825,104.388,104.388,0,0,1-6.95-68.119,103.1,103.1,0,0,1,7.8-21.823A105.924,105.924,0,0,1,86.072,95.625l.9-1.136.952-1.093,1.905-2.184c.624-.739,1.325-1.406,1.984-2.113s1.333-1.4,2.012-2.084l2.1-1.992c.705-.66,1.39-1.343,2.135-1.958,1.475-1.247,2.9-2.557,4.446-3.713A105.722,105.722,0,0,1,122.1,67.085a103.913,103.913,0,0,1,89.463-.006,102.67,102.67,0,0,1,19.52,12.215c.748.6,1.519,1.178,2.247,1.8l2.172,1.895,1.085.948c.36.318.7.661,1.047.99l2.079,2c.707.651,1.343,1.373,2.011,2.064l1.98,2.093,1.881,2.182C246.2,94,246.865,94.7,247.44,95.475Z" transform="translate(-59.86 -53.827)" fill="#35a8e0"/>
              <path id="Path_3" data-name="Path 3" d="M169.365,262.648l3.064-.086,1.269-.034c.456-.008.943-.022,1.461-.072l3.488-.268a102.44,102.44,0,0,0,20.652-4.134,109.7,109.7,0,0,0,13.418-5.31,102.725,102.725,0,0,0,14.39-8.537,100.57,100.57,0,0,0,26.977-28.6l.727-1.141.678-1.179,1.365-2.374c.472-.787.853-1.629,1.287-2.446l1.268-2.483,1.159-2.563c.381-.861.8-1.71,1.129-2.6.68-1.773,1.449-3.53,2.026-5.373l.932-2.753c.288-.929.538-1.873.811-2.813l.4-1.416.2-.71.167-.721q.333-1.443.669-2.9c.107-.485.235-.967.325-1.458l.263-1.476.531-2.967c.153-1,.262-2,.4-3.008l.192-1.512.1-.758.058-.763a103.354,103.354,0,0,0-.761-25.019q-.281-1.578-.564-3.164c-.1-.527-.177-1.06-.294-1.585l-.364-1.575-.735-3.16q-.443-1.564-.89-3.135l-.451-1.572-.525-1.552-1.058-3.112-1.21-3.071c-.206-.511-.4-1.03-.616-1.537l-.684-1.511a98.639,98.639,0,0,0-6.231-11.825l-1.82-2.84c-.3-.48-.621-.94-.951-1.4l-.981-1.38c-1.269-1.871-2.727-3.61-4.117-5.408l-2.23-2.584c-.376-.428-.739-.868-1.126-1.287L241.98,94.24c-.8-.819-1.559-1.674-2.385-2.466L237.106,89.4l-.625-.593-.651-.564-1.3-1.129c-.869-.753-1.729-1.52-2.65-2.215l-2.72-2.139-2.824-2.011a96.293,96.293,0,0,0-11.944-7.131l-1.554-.8c-.523-.257-1.059-.485-1.588-.728-1.063-.476-2.119-.97-3.19-1.432-2.174-.843-4.324-1.762-6.555-2.462l-1.66-.562-.831-.279-.844-.239-3.375-.959c-1.128-.31-2.276-.539-3.414-.814l-1.71-.4c-.573-.12-1.151-.211-1.727-.318l-3.459-.614L181,63.577c-.582-.067-1.16-.165-1.745-.206l-1.752-.134c-1.169-.077-2.334-.2-3.505-.241-2.342-.049-4.683-.17-7.023-.058l-1.755.044c-.585.01-1.17.027-1.752.082l-3.5.266a98.611,98.611,0,0,0-13.8,2.281l-1.7.392-1.68.473c-1.118.323-2.241.623-3.352.963-2.2.757-4.418,1.439-6.555,2.336l-1.616.636-.807.32-.79.357L126.5,72.516c-1.048.483-2.059,1.04-3.09,1.555l-1.538.787c-.506.274-1,.57-1.5.854-.995.577-2,1.136-2.982,1.725L114.5,79.291c-.977.6-1.894,1.282-2.827,1.94l-1.4.992-.7.5-.672.528-2.684,2.108c-.89.705-1.725,1.475-2.588,2.208l-1.283,1.111c-.424.375-.822.776-1.234,1.162l-2.447,2.335-2.327,2.44c-.382.411-.786.8-1.149,1.227l-1.1,1.269c-.723.853-1.485,1.671-2.173,2.547l-2.063,2.624A100.283,100.283,0,0,0,72.8,137.023l-.216.758-.177.766-.354,1.529c-.224,1.021-.494,2.028-.679,3.051l-.547,3.059c-.087.509-.19,1.014-.264,1.524l-.195,1.529q-.195,1.527-.388,3.045c-.1,1.014-.162,2.031-.246,3.041l-.116,1.513-.058.754-.021.756q-.039,1.51-.077,3.01l-.034,1.5q.019.748.038,1.492.037,1.489.074,2.967c.014.986.132,1.963.193,2.94.078.975.138,1.949.23,2.915q.184,1.445.365,2.879c.128.955.218,1.911.408,2.849q.251,1.412.5,2.812c.088.466.156.935.259,1.4l.317,1.377A99.591,99.591,0,0,0,100.98,235.64a104.275,104.275,0,0,0,12.341,9.911c1.019.676,2.036,1.312,3.02,1.949.5.31.973.644,1.473.926l1.475.848c.977.55,1.91,1.126,2.858,1.618l2.78,1.425a94.375,94.375,0,0,0,17.551,6.739c2.079.633,3.717.945,4.806,1.212l1.656.383-3.086-.589-1.545-.3-1.528-.371-3.062-.745c-1.012-.279-2.015-.591-3.025-.886-2.033-.553-4-1.317-5.992-2-1-.345-1.958-.781-2.941-1.167-.972-.411-1.972-.766-2.919-1.233a101.1,101.1,0,0,1-21.72-13.2A101.307,101.307,0,1,1,234.449,85.874a100.238,100.238,0,0,1,22.244,26.905A101.577,101.577,0,0,1,264,128.685a97.481,97.481,0,0,1,4.385,16.935,104.354,104.354,0,0,1,1.417,17.426,99.16,99.16,0,0,1-13.716,50,100.416,100.416,0,0,1-52.571,43.735A101.605,101.605,0,0,1,169.365,262.648Z" transform="translate(-61.999 -55.968)" fill="#35a8e0"/>
              <path id="Path_4" data-name="Path 4" d="M248.812,105.876l-1.182-1.5c-.293-.388-.66-.822-1.089-1.307l-1.427-1.644c-1.021-1.243-2.391-2.583-3.894-4.185-.765-.789-1.635-1.573-2.524-2.434-.453-.422-.9-.877-1.391-1.306l-1.518-1.314a97.6,97.6,0,0,0-15.843-11.178l-1.212-.7c-.406-.236-.835-.435-1.257-.656l-2.577-1.32c-.431-.232-.879-.436-1.333-.636l-1.363-.616-1.38-.624c-.462-.213-.927-.423-1.41-.6-1.917-.746-3.858-1.567-5.912-2.212l-1.536-.521c-.513-.18-1.032-.351-1.564-.491l-3.2-.91a98.572,98.572,0,0,0-44.023-1.388,99.855,99.855,0,0,0-15.6,4.5,96.341,96.341,0,0,0-28.938,17.335A96.655,96.655,0,0,0,76,151.988c-.167,1.421-.391,2.834-.513,4.253s-.217,2.839-.325,4.254q-.057,2.127-.114,4.243c-.033.705-.013,1.409.009,2.112s.035,1.405.053,2.106a100.855,100.855,0,0,0,1.931,16.45,98.452,98.452,0,0,0,4.547,15.339l.717,1.82.358.906.4.885,1.593,3.512,1.736,3.391c.276.568.593,1.111.907,1.653l.934,1.624a96.969,96.969,0,0,0,17.4,21.871l1.171,1.118,1.209,1.05,2.38,2.063,2.42,1.9,1.187.935,1.215.867,2.384,1.7c.793.545,1.6,1.038,2.388,1.549.795.494,1.548,1.03,2.343,1.469l2.326,1.338a94.951,94.951,0,0,0,16.63,7.386l1.745.592c.566.19,1.13.329,1.669.488l3.037.864,4.849,1.13,4.079.731-3.875-.535c-1.284-.222-2.564-.482-3.849-.72-1.293-.213-2.549-.574-3.825-.868l-1.91-.462-1.885-.553-1.887-.557-.944-.281-.929-.325c-1.237-.437-2.483-.859-3.719-1.31l-3.658-1.485c-.617-.234-1.206-.529-1.8-.8l-1.794-.833-1.22-.629-1.189-.685-2.374-1.376c-.8-.44-1.548-.974-2.323-1.46l-2.3-1.489-2.23-1.6c-.736-.542-1.5-1.042-2.208-1.627l-2.15-1.7c-.356-.287-.722-.562-1.071-.857l-1.033-.9a100.9,100.9,0,0,1-14.95-15.987,98.47,98.47,0,0,1-17.567-39.727,99.779,99.779,0,0,1,1.281-43.364A97.792,97.792,0,0,1,195.312,70.987l1.32.313,1.3.376,2.609.751c.437.118.868.256,1.293.409l1.284.44,2.567.879,2.521,1.006,1.261.5.63.251.616.282,2.468,1.127,1.234.564,1.205.623a99.261,99.261,0,0,1,18.136,11.825A97.946,97.946,0,0,1,248.812,105.876Z" transform="translate(-64.845 -58.812)" fill="#35a8e0"/>
              <path id="Path_5" data-name="Path 5" d="M193.731,259.5c.848-.231,3.787-.786,8.409-2.177,1.151-.361,2.395-.807,3.753-1.258.684-.215,1.374-.49,2.089-.778l2.226-.879c.775-.284,1.541-.657,2.342-1.016l2.47-1.116,2.551-1.3,1.325-.678c.45-.226.88-.5,1.329-.75l2.742-1.576,2.787-1.783c.962-.587,1.89-1.267,2.845-1.949s1.947-1.351,2.888-2.127,1.95-1.5,2.913-2.318l2.915-2.524,2.888-2.745c.5-.453.952-.962,1.429-1.455l1.429-1.5a92.406,92.406,0,0,0,24.182-51.627c.105-.9.249-1.792.327-2.7s.137-1.818.207-2.732c.187-1.826.156-3.679.225-5.539.048-.931-.007-1.865-.024-2.8s-.046-1.878-.069-2.821q-.106-1.411-.211-2.832c-.084-.945-.111-1.9-.257-2.845-.257-1.892-.434-3.809-.82-5.705q-.256-1.427-.514-2.862-.328-1.421-.659-2.849l-.328-1.432c-.122-.475-.266-.944-.4-1.417q-.4-1.419-.806-2.845c-.288-.945-.629-1.876-.94-2.82s-.619-1.891-1.007-2.813l-1.1-2.794c-.37-.934-.818-1.836-1.223-2.76-.787-1.859-1.769-3.635-2.682-5.454-.47-.9-1.008-1.772-1.508-2.664s-1.007-1.783-1.581-2.635l-1.665-2.6c-.58-.853-1.193-1.685-1.788-2.532l-.9-1.268-.961-1.226-1.934-2.454c-1.383-1.562-2.694-3.2-4.18-4.685a90.7,90.7,0,0,0-9.307-8.6l-2.51-1.975-2.605-1.86c-.437-.307-.865-.628-1.31-.924l-1.352-.865c-.907-.568-1.791-1.179-2.719-1.717l-2.794-1.606-.7-.4-.719-.367L217,84.8c-1.9-1.029-3.894-1.854-5.856-2.763l-3.017-1.2c-.505-.2-1-.406-1.514-.591l-1.541-.52c-1.031-.337-2.048-.72-3.09-1.023l-3.137-.891A91.177,91.177,0,0,0,186,75.344l-1.626-.209c-.543-.06-1.09-.086-1.635-.132l-3.273-.252-3.286-.083-1.644-.039-1.644.043c-1.1.033-2.193.043-3.288.092l-3.278.249c-1.1.058-2.181.212-3.267.351l-1.63.206c-.543.069-1.089.127-1.625.236a93.618,93.618,0,0,0-74.1,63.509c-.352.96-.6,1.951-.882,2.926-.266.981-.583,1.947-.809,2.934-.436,1.977-.962,3.925-1.266,5.91-.171.988-.366,1.97-.518,2.956q-.189,1.486-.376,2.964l-.19,1.476-.111,1.481q-.114,1.478-.227,2.949a96.2,96.2,0,0,0,1.562,22.934,91.073,91.073,0,0,0,6.585,20.7,93.384,93.384,0,0,0,36.466,41.306,97.777,97.777,0,0,0,13.2,6.687l3.125,1.235c1.03.374,2.052.7,3.043,1.042l1.471.5,1.458.416,2.809.8c.919.235,1.822.425,2.695.633.876.19,1.716.426,2.55.564,1.665.281,3.216.606,4.675.807l4.052.517,3.39.26,1.431.11,1.254.03,1.952.05,1.591.043a98.118,98.118,0,0,1-23.483-1.982,96.645,96.645,0,0,1-11.437-3.233c-1.894-.614-3.724-1.393-5.574-2.138-.935-.351-1.82-.81-2.731-1.218-.9-.429-1.825-.814-2.709-1.279a95.4,95.4,0,0,1-47.338-64.988,93.419,93.419,0,0,1-1.722-16.459,93.246,93.246,0,0,1,5.048-32.54A94.409,94.409,0,0,1,245.071,105.57a93.306,93.306,0,0,1,17,27.843,95.133,95.133,0,0,1,4.638,15.677,96.55,96.55,0,0,1,1.778,16.255,93.31,93.31,0,0,1-20.34,60.71,95.291,95.291,0,0,1-11.212,11.828c-1.038.878-2.048,1.788-3.105,2.643l-3.215,2.507-3.332,2.349c-1.124.762-2.288,1.465-3.429,2.2A93.9,93.9,0,0,1,193.731,259.5Z" transform="translate(-67.274 -61.244)" fill="#35a8e0"/>
            </g>
          </g>
        </g>
      </g>
      <g id="Group_33" data-name="Group 33" transform="translate(21.46 32.101)">
        <g id="Group_31" data-name="Group 31">
          <path id="Path_6" data-name="Path 6" d="M283.079,193.849c-3.291-9.534-8.393-18.909-3.14-29.936,6.526-13.7,29.016-24.191,46.231-14.878S361.7,192.525,360.5,206.973c-1.175,14.161-13.612,23.818-26.767,26.458C318.49,236.49,298.821,239.461,283.079,193.849Z" transform="translate(-176.994 -125.383)" fill="#3f2918"/>
          <g id="Group_5" data-name="Group 5" transform="translate(41.911 87.228)">
            <path id="Path_7" data-name="Path 7" d="M274.945,287.749c-10.559,12.2-31.092,28.106-38.126,30.034-6.07,1.662-35.837-3.01-45.914-4.994l0,0c-1.034-.2-5.9.58-8.889.05s-9.2-4.042-8.889-4.956,6.786,1.286,6.948.753-9.193-4.722-8.361-6.113,9.285,2.674,9.447,1.669-8.049-4.887-6.938-6.344,10.4,2.749,10.985,2.212-2.91-6.1-.848-6.388,4.03,3.639,4.668,4.74a9.936,9.936,0,0,0,4.354,3.286l0,.007c9.052.9,36.425,4.351,39.529,2.954,3.178-1.428,21.779-18.639,28.242-25.65,4.451-4.828,14.866-15.273,20.556-11.716C285.362,269.568,285.447,275.612,274.945,287.749Z" transform="translate(-171.657 -266.567)" fill="#ffe4c1"/>
            <path id="Path_8" data-name="Path 8" d="M274.945,287.749c-10.559,12.2-31.092,28.106-38.126,30.034-6.07,1.662-35.837-3.01-45.914-4.994l0,0c-1.034-.2-5.9.58-8.889.05s-9.2-4.042-8.889-4.956,6.786,1.286,6.948.753-9.193-4.722-8.361-6.113,9.285,2.674,9.447,1.669-8.049-4.887-6.938-6.344,10.4,2.749,10.985,2.212-2.91-6.1-.848-6.388,4.03,3.639,4.668,4.74a9.936,9.936,0,0,0,4.354,3.286l0,.007c9.052.9,36.425,4.351,39.529,2.954,3.178-1.428,21.779-18.639,28.242-25.65,4.451-4.828,14.866-15.273,20.556-11.716C285.362,269.568,285.447,275.612,274.945,287.749Z" transform="translate(-171.657 -266.567)" fill="#eabc82" opacity="0.5"/>
          </g>
          <g id="Group_6" data-name="Group 6" transform="translate(31.449 74.094)">
            <path id="Path_9" data-name="Path 9" d="M157.3,243.579c-5.172,1.861-6.033,13.053-1.883,21.338s28.026,41.922,32.724,46.682,40.16,9.942,47.252,11.871,12.236.379,15.022-5.367c3.258-6.718.583-21.315-5.522-25.091s-41.768.07-46.291-2.8-18.492-30.615-21.911-35.71C173.189,249.293,166.437,240.29,157.3,243.579Z" transform="translate(-152.785 -242.874)" fill="#b4e288"/>
            <path id="Path_10" data-name="Path 10" d="M157.3,243.579c-5.172,1.861-6.033,13.053-1.883,21.338s28.026,41.922,32.724,46.682,40.16,9.942,47.252,11.871,12.236.379,15.022-5.367c3.258-6.718.583-21.315-5.522-25.091s-41.768.07-46.291-2.8-18.492-30.615-21.911-35.71C173.189,249.293,166.437,240.29,157.3,243.579Z" transform="translate(-152.785 -242.874)" fill="#3f2918" opacity="0.2"/>
          </g>
          <g id="Group_8" data-name="Group 8" transform="translate(112.878 125.664)">
            <path id="Path_11" data-name="Path 11" d="M311.67,336.161c-1.866-.737-8.072-.3-10.779,6.785s-.757,14.04,4.526,15.609c6.728,2,11.212-2.727,12.337-9.733C318.983,341.17,315.615,337.72,311.67,336.161Z" transform="translate(-299.676 -335.903)" fill="#e7b142"/>
            <path id="Path_12" data-name="Path 12" d="M311.67,336.161c-1.866-.737-8.072-.3-10.779,6.785s-.757,14.04,4.526,15.609c6.728,2,11.212-2.727,12.337-9.733C318.983,341.17,315.615,337.72,311.67,336.161Z" transform="translate(-299.676 -335.903)" fill="#3f2918" opacity="0.2"/>
            <g id="Group_7" data-name="Group 7" transform="translate(7.426 0.232)">
              <path id="Path_13" data-name="Path 13" d="M316.528,340.4s-6.116,5.52-2.077,14.962a86.082,86.082,0,0,0,8.786,3.463c3.63.846,13.137,1.993,13.464.5s-7.2-4.762-7.2-4.762,11.072,1.019,10.957-1.643-11.907-2.818-11.907-2.818,12.086-1.028,11.854-3.637-12.335-2.138-12.832-2.75,5.183-5.858,3.781-7c-2.374-1.931-7.865,3.75-9.044,3.763S316.528,340.4,316.528,340.4Z" transform="translate(-313.072 -336.321)" fill="#ffdaae"/>
              <path id="Path_14" data-name="Path 14" d="M316.528,340.4s-6.116,5.52-2.077,14.962a86.082,86.082,0,0,0,8.786,3.463c3.63.846,13.137,1.993,13.464.5s-7.2-4.762-7.2-4.762,11.072,1.019,10.957-1.643-11.907-2.818-11.907-2.818,12.086-1.028,11.854-3.637-12.335-2.138-12.832-2.75,5.183-5.858,3.781-7c-2.374-1.931-7.865,3.75-9.044,3.763S316.528,340.4,316.528,340.4Z" transform="translate(-313.072 -336.321)" fill="#eabc82" opacity="0.5"/>
            </g>
          </g>
          <path id="Path_15" data-name="Path 15" d="M129.4,235.112c-7.6,1.292-16.952,6.673-20.314,13.63s10.647,43.914,12.329,50.629,4.629,30.062,12.541,32.819,25.73-4.789,34.423-6.224,18.3-14.414,21.963-20.979-25.632-39.527-29.907-44.29S143.127,232.778,129.4,235.112Z" transform="translate(-101.629 -165.248)" fill="#b4e288"/>
          <path id="Path_16" data-name="Path 16" d="M135.381,232.891c-2.386.972-6.4,3.949-2.615,12.9s12.9,15.055,19.746,13.249c8.32-2.195,6.638-13.986.007-20.22S140.424,230.836,135.381,232.891Z" transform="translate(-111.721 -163.966)" fill="#e7b142"/>
          <g id="Group_11" data-name="Group 11" transform="translate(113.553 86.412)">
            <path id="Path_17" data-name="Path 17" d="M351.21,292.508v.006c-.034.516-.079,1.031-.124,1.558v.006c-.213,2.326-.516,4.758-.93,7.257q-.269,1.606-.594,3.256a88.377,88.377,0,0,1-3.1,11.381c-.342.992-.712,1.99-1.1,2.981-.359.919-.74,1.844-1.143,2.757q-.546,1.261-1.155,2.505a65.114,65.114,0,0,1-12.833,18.117c-.117.118-.241.236-.359.353a14.081,14.081,0,0,1-1.978,1.121,25.928,25.928,0,0,1-8.938,2.336c-.8.073-1.625.112-2.5.112a32.392,32.392,0,0,1-5.357-.437c-.2-.028-.4-.062-.6-.106h-.006a40.374,40.374,0,0,1-9.219-2.864c-.129-.05-.252-.106-.381-.162l.286-.633c.269-.594.717-1.591,1.289-2.869.392-.885.846-1.905,1.333-3.026.421-.952.863-1.956,1.328-3.026a.008.008,0,0,1,0-.011c.247-.572.5-1.154.751-1.748,1.642-3.833,3.413-8.064,4.819-11.74v-.006c.325-.835.628-1.642.9-2.4.381-1.048.717-2.017.992-2.88a25.272,25.272,0,0,0,.751-2.785v-.006a3.214,3.214,0,0,0,.067-1.177c-.549-2.32-2.987-6.237-3.681-10.215a10.678,10.678,0,0,1-.1-3.267,7.987,7.987,0,0,1,.23-1.087c1.485-5.184,15.982-27.974,24.242-30.294.079-.022.157-.045.23-.062a12.993,12.993,0,0,1,1.765-.292,16.362,16.362,0,0,1,9.128,2.046,19.375,19.375,0,0,1,2.186,1.368,11.606,11.606,0,0,1,2.471,2.342,4.551,4.551,0,0,1,.476,1.334v.006c.151.611.308,1.4.448,2.348v.005A84.973,84.973,0,0,1,351.21,292.508Z" transform="translate(-300.893 -265.096)" fill="#e7b142"/>
            <g id="Group_10" data-name="Group 10" transform="translate(0 2.105)" opacity="0.3">
              <path id="Path_18" data-name="Path 18" d="M382.16,270.44a1.659,1.659,0,1,1-2.2-1.547,19.374,19.374,0,0,1,2.186,1.368C382.155,270.317,382.16,270.378,382.16,270.44Z" transform="translate(-335.632 -268.893)" fill="#fff"/>
              <path id="Path_19" data-name="Path 19" d="M385.515,279.192a1.658,1.658,0,0,1,2.555-1.412v.006c.151.611.308,1.4.448,2.348v.006a1.658,1.658,0,0,1-3-.947Z" transform="translate(-338.605 -272.736)" fill="#fff"/>
              <path id="Path_20" data-name="Path 20" d="M382.367,288a1.656,1.656,0,1,1-1.675-1.636A1.657,1.657,0,0,1,382.367,288Z" transform="translate(-335.726 -276.678)" fill="#fff"/>
              <path id="Path_21" data-name="Path 21" d="M389.039,296.782a1.656,1.656,0,1,1-1.675-1.636A1.657,1.657,0,0,1,389.039,296.782Z" transform="translate(-338.7 -280.593)" fill="#fff"/>
              <path id="Path_22" data-name="Path 22" d="M372.464,279.349a1.656,1.656,0,1,1,1.676,1.636A1.658,1.658,0,0,1,372.464,279.349Z" transform="translate(-332.789 -272.804)" fill="#fff"/>
              <path id="Path_23" data-name="Path 23" d="M375.988,296.934a1.656,1.656,0,1,1-1.676-1.636A1.659,1.659,0,0,1,375.988,296.934Z" transform="translate(-332.883 -280.66)" fill="#fff"/>
              <path id="Path_24" data-name="Path 24" d="M368.472,272.516a1.767,1.767,0,0,1-.426-.051c.589-1.1,1.082-2.09,1.469-2.874a1.639,1.639,0,0,1,.594,1.25A1.657,1.657,0,0,1,368.472,272.516Z" transform="translate(-330.82 -269.204)" fill="#fff"/>
              <path id="Path_25" data-name="Path 25" d="M369.316,288.149a1.656,1.656,0,1,1-1.676-1.636A1.659,1.659,0,0,1,369.316,288.149Z" transform="translate(-329.91 -276.745)" fill="#fff"/>
              <path id="Path_26" data-name="Path 26" d="M358.031,289.818a1.666,1.666,0,0,1-1.115,1.48C357.292,290.81,357.667,290.334,358.031,289.818Z" transform="translate(-325.86 -278.218)" fill="#fff"/>
              <g id="Group_9" data-name="Group 9" transform="translate(0 5.15)">
                <path id="Path_27" data-name="Path 27" d="M347.422,278.183c-.314.645-.65,1.317-.992,2.017a1.663,1.663,0,0,1,.992-2.017Z" transform="translate(-321.157 -278.183)" fill="#fff"/>
                <path id="Path_28" data-name="Path 28" d="M364.284,280.375a1.654,1.654,0,0,1-1.373,1.648c.454-.723.88-1.446,1.289-2.152A1.67,1.67,0,0,1,364.284,280.375Z" transform="translate(-328.532 -278.935)" fill="#fff"/>
                <path id="Path_29" data-name="Path 29" d="M342.162,286.944c-.482,1.037-.936,2.068-1.317,3.031a1.626,1.626,0,0,1-.953-1.473,1.659,1.659,0,0,1,1.642-1.676A1.683,1.683,0,0,1,342.162,286.944Z" transform="translate(-318.273 -282.035)" fill="#fff"/>
                <path id="Path_30" data-name="Path 30" d="M336.832,297.4a1.657,1.657,0,1,1-1.677-1.638A1.657,1.657,0,0,1,336.832,297.4Z" transform="translate(-315.432 -286.019)" fill="#fff"/>
                <path id="Path_31" data-name="Path 31" d="M350.536,298.149a1.657,1.657,0,0,1-1.636,1.675,1.627,1.627,0,0,1-.869-.235,13.746,13.746,0,0,0,2.415-1.956A1.581,1.581,0,0,1,350.536,298.149Z" transform="translate(-321.9 -286.851)" fill="#fff"/>
                <path id="Path_32" data-name="Path 32" d="M362.936,297.091a1.657,1.657,0,1,1-1.677-1.638A1.658,1.658,0,0,1,362.936,297.091Z" transform="translate(-327.066 -285.88)" fill="#fff"/>
                <path id="Path_33" data-name="Path 33" d="M389.111,313.752v.006c-.034.516-.079,1.031-.124,1.558v.005a1.657,1.657,0,1,1-1.412-2.555A1.664,1.664,0,0,1,389.111,313.752Z" transform="translate(-338.794 -293.595)" fill="#fff"/>
                <path id="Path_34" data-name="Path 34" d="M379.48,323.287a1.656,1.656,0,1,1,1.675,1.636A1.653,1.653,0,0,1,379.48,323.287Z" transform="translate(-335.916 -297.537)" fill="#fff"/>
                <path id="Path_35" data-name="Path 35" d="M381.53,356.861a1.178,1.178,0,0,1,.14.006c-.342.992-.712,1.99-1.1,2.981a1.655,1.655,0,0,1,.964-2.987Z" transform="translate(-336.1 -313.246)" fill="#fff"/>
                <path id="Path_36" data-name="Path 36" d="M376.62,349.813a1.659,1.659,0,1,1-1.681-1.636A1.658,1.658,0,0,1,376.62,349.813Z" transform="translate(-333.163 -309.376)" fill="#fff"/>
                <path id="Path_37" data-name="Path 37" d="M387.787,330.4a1.59,1.59,0,0,1,.364.039q-.269,1.606-.594,3.256a1.657,1.657,0,0,1,.229-3.3Z" transform="translate(-338.889 -301.452)" fill="#fff"/>
                <path id="Path_38" data-name="Path 38" d="M383,340.873a1.659,1.659,0,1,1-1.675-1.642A1.657,1.657,0,0,1,383,340.873Z" transform="translate(-336.006 -305.389)" fill="#fff"/>
                <path id="Path_39" data-name="Path 39" d="M379.267,305.662a1.656,1.656,0,1,1,1.676,1.637A1.659,1.659,0,0,1,379.267,305.662Z" transform="translate(-335.821 -289.68)" fill="#fff"/>
                <path id="Path_40" data-name="Path 40" d="M360.252,350.01a1.659,1.659,0,1,1,1.676,1.636A1.659,1.659,0,0,1,360.252,350.01Z" transform="translate(-327.347 -309.444)" fill="#fff"/>
                <path id="Path_41" data-name="Path 41" d="M376.58,366.587c-.364.841-.751,1.676-1.155,2.505a1.093,1.093,0,0,1-.235.022,1.659,1.659,0,1,1,1.39-2.527Z" transform="translate(-333.257 -317.229)" fill="#fff"/>
                <path id="Path_42" data-name="Path 42" d="M373.091,332.228a1.659,1.659,0,1,1,1.681,1.636A1.66,1.66,0,0,1,373.091,332.228Z" transform="translate(-333.068 -301.519)" fill="#fff"/>
                <path id="Path_43" data-name="Path 43" d="M372.889,314.6a1.656,1.656,0,1,1,1.675,1.636A1.653,1.653,0,0,1,372.889,314.6Z" transform="translate(-332.978 -293.667)" fill="#fff"/>
                <path id="Path_44" data-name="Path 44" d="M359.828,314.755a1.659,1.659,0,1,1,1.681,1.642A1.659,1.659,0,0,1,359.828,314.755Z" transform="translate(-327.157 -293.734)" fill="#fff"/>
                <path id="Path_45" data-name="Path 45" d="M360.465,367.634a1.656,1.656,0,1,1,1.675,1.636A1.657,1.657,0,0,1,360.465,367.634Z" transform="translate(-327.442 -317.301)" fill="#fff"/>
                <path id="Path_46" data-name="Path 46" d="M366.217,305.818a1.656,1.656,0,1,1,1.675,1.636A1.653,1.653,0,0,1,366.217,305.818Z" transform="translate(-330.005 -289.752)" fill="#fff"/>
                <path id="Path_47" data-name="Path 47" d="M369.736,323.4a1.659,1.659,0,1,1-1.675-1.642A1.657,1.657,0,0,1,369.736,323.4Z" transform="translate(-330.095 -297.605)" fill="#fff"/>
                <path id="Path_48" data-name="Path 48" d="M363.989,385.22a1.656,1.656,0,1,1-1.675-1.641A1.657,1.657,0,0,1,363.989,385.22Z" transform="translate(-327.536 -325.153)" fill="#fff"/>
                <path id="Path_49" data-name="Path 49" d="M366.843,358.7a1.659,1.659,0,1,1,1.676,1.636A1.651,1.651,0,0,1,366.843,358.7Z" transform="translate(-330.284 -313.318)" fill="#fff"/>
                <path id="Path_50" data-name="Path 50" d="M363.358,332.345a1.659,1.659,0,1,1-1.681-1.636A1.657,1.657,0,0,1,363.358,332.345Z" transform="translate(-327.252 -301.591)" fill="#fff"/>
                <path id="Path_51" data-name="Path 51" d="M369.949,341.029a1.659,1.659,0,1,1-1.681-1.636A1.659,1.659,0,0,1,369.949,341.029Z" transform="translate(-330.189 -305.461)" fill="#fff"/>
                <path id="Path_52" data-name="Path 52" d="M370.368,376.278a1.656,1.656,0,1,1-1.675-1.636A1.659,1.659,0,0,1,370.368,376.278Z" transform="translate(-330.379 -321.17)" fill="#fff"/>
                <path id="Path_53" data-name="Path 53" d="M357.1,358.81a1.656,1.656,0,1,1-1.675-1.636A1.657,1.657,0,0,1,357.1,358.81Z" transform="translate(-324.468 -313.386)" fill="#fff"/>
                <path id="Path_54" data-name="Path 54" d="M346.777,314.916a1.659,1.659,0,1,1,1.681,1.636A1.65,1.65,0,0,1,346.777,314.916Z" transform="translate(-321.341 -293.807)" fill="#fff"/>
                <path id="Path_55" data-name="Path 55" d="M347.626,385.416a1.656,1.656,0,1,1,1.676,1.636A1.654,1.654,0,0,1,347.626,385.416Z" transform="translate(-321.72 -325.225)" fill="#fff"/>
                <path id="Path_56" data-name="Path 56" d="M334.151,350.318a1.656,1.656,0,1,1,1.676,1.642A1.658,1.658,0,0,1,334.151,350.318Z" transform="translate(-315.715 -309.583)" fill="#fff"/>
                <path id="Path_57" data-name="Path 57" d="M337.251,332.658a1.656,1.656,0,1,1-1.675-1.636A1.653,1.653,0,0,1,337.251,332.658Z" transform="translate(-315.62 -301.731)" fill="#fff"/>
                <path id="Path_58" data-name="Path 58" d="M356.686,323.56A1.659,1.659,0,1,1,355,321.924,1.658,1.658,0,0,1,356.686,323.56Z" transform="translate(-324.279 -297.676)" fill="#fff"/>
                <path id="Path_59" data-name="Path 59" d="M334.566,385.573a1.659,1.659,0,1,1,1.681,1.636A1.664,1.664,0,0,1,334.566,385.573Z" transform="translate(-315.9 -325.293)" fill="#fff"/>
                <path id="Path_60" data-name="Path 60" d="M334.364,367.948a1.656,1.656,0,1,1,1.675,1.636A1.657,1.657,0,0,1,334.364,367.948Z" transform="translate(-315.809 -317.44)" fill="#fff"/>
                <path id="Path_61" data-name="Path 61" d="M343.842,341.342a1.656,1.656,0,1,1-1.675-1.636A1.653,1.653,0,0,1,343.842,341.342Z" transform="translate(-318.557 -305.601)" fill="#fff"/>
                <path id="Path_62" data-name="Path 62" d="M333.727,315.068A1.659,1.659,0,1,1,335.4,316.7,1.658,1.658,0,0,1,333.727,315.068Z" transform="translate(-315.526 -293.874)" fill="#fff"/>
                <path id="Path_63" data-name="Path 63" d="M356.9,341.186a1.659,1.659,0,1,1-1.681-1.642A1.663,1.663,0,0,1,356.9,341.186Z" transform="translate(-324.374 -305.529)" fill="#fff"/>
                <path id="Path_64" data-name="Path 64" d="M331,359.123a1.656,1.656,0,1,1-1.676-1.636A1.658,1.658,0,0,1,331,359.123Z" transform="translate(-312.836 -313.525)" fill="#fff"/>
                <path id="Path_65" data-name="Path 65" d="M347.2,350.166a1.656,1.656,0,1,1,1.675,1.636A1.657,1.657,0,0,1,347.2,350.166Z" transform="translate(-321.531 -309.516)" fill="#fff"/>
                <path id="Path_66" data-name="Path 66" d="M344.054,358.968a1.656,1.656,0,1,1-1.676-1.642A1.657,1.657,0,0,1,344.054,358.968Z" transform="translate(-318.652 -313.453)" fill="#fff"/>
                <path id="Path_67" data-name="Path 67" d="M353.156,305.97a1.659,1.659,0,1,1,1.681,1.642A1.658,1.658,0,0,1,353.156,305.97Z" transform="translate(-324.184 -289.82)" fill="#fff"/>
                <path id="Path_68" data-name="Path 68" d="M350.307,332.5a1.659,1.659,0,1,1-1.681-1.636A1.66,1.66,0,0,1,350.307,332.5Z" transform="translate(-321.436 -301.659)" fill="#fff"/>
                <path id="Path_69" data-name="Path 69" d="M327.894,376.788a1.659,1.659,0,1,1,1.681,1.636A1.66,1.66,0,0,1,327.894,376.788Z" transform="translate(-312.926 -321.378)" fill="#fff"/>
                <path id="Path_70" data-name="Path 70" d="M331.424,394.373a1.659,1.659,0,1,1-1.681-1.636A1.654,1.654,0,0,1,331.424,394.373Z" transform="translate(-313.021 -329.234)" fill="#fff"/>
                <path id="Path_71" data-name="Path 71" d="M330.791,341.494a1.656,1.656,0,1,1-1.676-1.636A1.659,1.659,0,0,1,330.791,341.494Z" transform="translate(-312.741 -305.669)" fill="#fff"/>
                <path id="Path_72" data-name="Path 72" d="M344.474,394.222a1.659,1.659,0,1,1-1.675-1.636A1.658,1.658,0,0,1,344.474,394.222Z" transform="translate(-318.837 -329.167)" fill="#fff"/>
                <path id="Path_73" data-name="Path 73" d="M357.529,394.06a1.656,1.656,0,1,1-1.676-1.636A1.659,1.659,0,0,1,357.529,394.06Z" transform="translate(-324.657 -329.095)" fill="#fff"/>
                <path id="Path_74" data-name="Path 74" d="M340.955,376.631a1.656,1.656,0,1,1,1.675,1.636A1.653,1.653,0,0,1,340.955,376.631Z" transform="translate(-318.747 -321.31)" fill="#fff"/>
                <path id="Path_75" data-name="Path 75" d="M338.1,403.158a1.659,1.659,0,1,1-1.681-1.636A1.657,1.657,0,0,1,338.1,403.158Z" transform="translate(-315.994 -333.15)" fill="#fff"/>
                <path id="Path_76" data-name="Path 76" d="M351.146,403.006v.056c-.118.117-.241.236-.359.353a14.069,14.069,0,0,1-1.978,1.121,1.656,1.656,0,1,1,2.337-1.53Z" transform="translate(-321.81 -333.082)" fill="#fff"/>
                <path id="Path_77" data-name="Path 77" d="M354,376.48a1.656,1.656,0,1,1,1.676,1.636A1.651,1.651,0,0,1,354,376.48Z" transform="translate(-324.563 -321.243)" fill="#fff"/>
                <path id="Path_78" data-name="Path 78" d="M340.1,306.132a1.659,1.659,0,1,1,1.681,1.636A1.654,1.654,0,0,1,340.1,306.132Z" transform="translate(-318.368 -289.892)" fill="#fff"/>
                <path id="Path_79" data-name="Path 79" d="M343.635,323.712a1.659,1.659,0,1,1-1.681-1.636A1.66,1.66,0,0,1,343.635,323.712Z" transform="translate(-318.463 -297.744)" fill="#fff"/>
                <path id="Path_80" data-name="Path 80" d="M347.414,367.791a1.656,1.656,0,1,1,1.676,1.636A1.659,1.659,0,0,1,347.414,367.791Z" transform="translate(-321.625 -317.368)" fill="#fff"/>
                <path id="Path_81" data-name="Path 81" d="M318.584,361.529c.325-.835.628-1.642.9-2.4a1.66,1.66,0,0,1-.9,2.4Z" transform="translate(-308.777 -314.255)" fill="#fff"/>
                <path id="Path_82" data-name="Path 82" d="M330.243,410.367a1.636,1.636,0,0,1,1.222.516c-.8.073-1.625.112-2.5.112A1.649,1.649,0,0,1,330.243,410.367Z" transform="translate(-313.403 -337.091)" fill="#fff"/>
                <path id="Path_83" data-name="Path 83" d="M330.579,323.874a1.656,1.656,0,1,1-1.675-1.636A1.654,1.654,0,0,1,330.579,323.874Z" transform="translate(-312.647 -297.816)" fill="#fff"/>
                <path id="Path_84" data-name="Path 84" d="M314.843,376.945a1.659,1.659,0,1,1,1.681,1.636A1.658,1.658,0,0,1,314.843,376.945Z" transform="translate(-307.11 -321.45)" fill="#fff"/>
                <path id="Path_85" data-name="Path 85" d="M324.2,332.81a1.656,1.656,0,1,1-1.676-1.636A1.657,1.657,0,0,1,324.2,332.81Z" transform="translate(-309.804 -301.799)" fill="#fff"/>
                <path id="Path_86" data-name="Path 86" d="M327.055,306.283a1.659,1.659,0,1,1,1.675,1.636A1.658,1.658,0,0,1,327.055,306.283Z" transform="translate(-312.552 -289.959)" fill="#fff"/>
                <path id="Path_87" data-name="Path 87" d="M318.373,394.531a1.659,1.659,0,1,1-1.681-1.642A1.658,1.658,0,0,1,318.373,394.531Z" transform="translate(-307.205 -329.302)" fill="#fff"/>
                <path id="Path_88" data-name="Path 88" d="M308.465,385.881a1.659,1.659,0,1,1,1.675,1.642A1.657,1.657,0,0,1,308.465,385.881Z" transform="translate(-304.267 -325.432)" fill="#fff"/>
                <path id="Path_89" data-name="Path 89" d="M301.179,403.918a1.565,1.565,0,0,1,.106.566c0,.078-.006.157-.012.23-.129-.051-.252-.107-.381-.162Z" transform="translate(-300.893 -334.217)" fill="#fff"/>
                <path id="Path_90" data-name="Path 90" d="M324.813,350.44a1.657,1.657,0,0,1-2.813,1.2,25.279,25.279,0,0,0,.751-2.785v-.006a1.453,1.453,0,0,1,.386-.05A1.654,1.654,0,0,1,324.813,350.44Z" transform="translate(-310.299 -309.655)" fill="#fff"/>
                <path id="Path_91" data-name="Path 91" d="M316.688,325.69a10.677,10.677,0,0,1-.1-3.267,1.217,1.217,0,0,1,.285-.034,1.656,1.656,0,0,1,.039,3.312C316.839,325.7,316.76,325.7,316.688,325.69Z" transform="translate(-307.85 -297.883)" fill="#fff"/>
                <path id="Path_92" data-name="Path 92" d="M321.3,368.1a1.659,1.659,0,1,1,1.681,1.642A1.662,1.662,0,0,1,321.3,368.1Z" transform="translate(-309.989 -317.508)" fill="#fff"/>
                <path id="Path_93" data-name="Path 93" d="M321.515,385.729a1.659,1.659,0,1,1,1.681,1.636A1.658,1.658,0,0,1,321.515,385.729Z" transform="translate(-310.083 -325.365)" fill="#fff"/>
                <path id="Path_94" data-name="Path 94" d="M318.22,410.519a1.616,1.616,0,0,1,.6.107C318.623,410.6,318.422,410.564,318.22,410.519Z" transform="translate(-308.615 -337.159)" fill="#fff"/>
                <path id="Path_95" data-name="Path 95" d="M306.087,394.791a1.654,1.654,0,0,1-1.636,1.675,1.545,1.545,0,0,1-.717-.157c.392-.885.846-1.905,1.333-3.026A1.656,1.656,0,0,1,306.087,394.791Z" transform="translate(-302.159 -329.478)" fill="#fff"/>
                <path id="Path_96" data-name="Path 96" d="M325.045,403.315a1.659,1.659,0,1,1-1.681-1.641A1.659,1.659,0,0,1,325.045,403.315Z" transform="translate(-310.178 -333.217)" fill="#fff"/>
                <path id="Path_97" data-name="Path 97" d="M311.989,403.471a1.656,1.656,0,1,1-1.675-1.636A1.654,1.654,0,0,1,311.989,403.471Z" transform="translate(-304.362 -333.289)" fill="#fff"/>
                <path id="Path_98" data-name="Path 98" d="M320.676,315.225a1.656,1.656,0,1,1,1.676,1.636A1.659,1.659,0,0,1,320.676,315.225Z" transform="translate(-309.709 -293.942)" fill="#fff"/>
              </g>
            </g>
          </g>
          <g id="Group_16" data-name="Group 16" transform="translate(102.511 24.608)">
            <path id="Path_99" data-name="Path 99" d="M328.056,205.2c0,.7,4.517,10.087,4.153,11.068-.062.156-.365.835-.858,1.86-.387.784-.88,1.771-1.468,2.874-.465.88-.986,1.833-1.558,2.824-.409.706-.835,1.429-1.289,2.152-.695,1.126-1.435,2.258-2.208,3.34v.022c-.364.516-.74.992-1.115,1.48a28.315,28.315,0,0,1-2.51,2.853,13.747,13.747,0,0,1-2.415,1.956,4.813,4.813,0,0,1-4.041.813c-1.194-.381-.661-2.718.482-5.61.381-.963.835-1.995,1.317-3.031.448-.97.919-1.95,1.384-2.892.342-.7.678-1.373.992-2.017a37.521,37.521,0,0,0,1.99-4.382c.84-2.942-2.381-5.884-2.381-5.884s-9.947,7.985-19.894,4.343a17.79,17.79,0,0,1-7.672-5.968,34.49,34.49,0,0,1-4.887-8.809,60.318,60.318,0,0,1-3.553-25.01c1.121-19.613,18.263-24.209,29-22.836,12.048,1.541,22.415,12.889,20.594,34.464C331.5,196.088,328.056,204.5,328.056,205.2Z" transform="translate(-281.615 -153.837)" fill="#ffe4c1"/>
            <path id="Path_100" data-name="Path 100" d="M304.538,231.907c-1.166.146-.925,2.854-.518,3.333.6.7,2.784.355,2.706-.65S305.514,231.786,304.538,231.907Z" transform="translate(-291.096 -188.498)" fill="#eabc82"/>
            <g id="Group_12" data-name="Group 12" transform="translate(2.115 41.533)">
              <path id="Path_101" data-name="Path 101" d="M292.879,230.387a2.2,2.2,0,1,1-2.734-1.792A2.319,2.319,0,0,1,292.879,230.387Z" transform="translate(-286.474 -228.528)" fill="#3f2918"/>
              <path id="Path_102" data-name="Path 102" d="M284.791,230.616a1.843,1.843,0,0,0,1.212.449.54.54,0,0,0,.422-.258,4.3,4.3,0,0,0,.317-.582,3.252,3.252,0,0,1,.91-1.2,1.9,1.9,0,0,1,1.433-.374,2.648,2.648,0,0,0-1.164.683,4.3,4.3,0,0,0-.711,1.126,3.973,3.973,0,0,1-.4.652.958.958,0,0,1-.363.283.933.933,0,0,1-.438.077A1.531,1.531,0,0,1,284.791,230.616Z" transform="translate(-284.791 -228.575)" fill="#3f2918"/>
            </g>
            <g id="Group_13" data-name="Group 13" transform="translate(23.107 37.514)">
              <path id="Path_103" data-name="Path 103" d="M327.952,224.053a2.647,2.647,0,1,1-2.647-2.647A2.647,2.647,0,0,1,327.952,224.053Z" transform="translate(-322.659 -221.335)" fill="#3f2918"/>
              <path id="Path_104" data-name="Path 104" d="M331.436,221.349a2.031,2.031,0,0,1-.148.86,1.352,1.352,0,0,1-.621.7,1.024,1.024,0,0,1-.508.126c-.086-.008-.17-.023-.256-.037l-.228-.072a6.239,6.239,0,0,1-.783-.4,10.278,10.278,0,0,0-1.431-.784,2.663,2.663,0,0,0-1.587-.134,2.107,2.107,0,0,1,1.709-.257,5.953,5.953,0,0,1,1.578.725,7.032,7.032,0,0,0,.7.395l.169.07.159.039a.768.768,0,0,0,.31-.041A1.84,1.84,0,0,0,331.436,221.349Z" transform="translate(-324.092 -221.278)" fill="#3f2918"/>
            </g>
            <path id="Path_105" data-name="Path 105" d="M314.291,241.79a8.534,8.534,0,0,0,2.175,1.038,4.021,4.021,0,0,0,2.273.08,3.087,3.087,0,0,0,1.814-1.267,3.58,3.58,0,0,0,.462-2.279,3.089,3.089,0,0,1-.106,2.481,3.206,3.206,0,0,1-2.031,1.571,3.813,3.813,0,0,1-1.3.115,4.746,4.746,0,0,1-1.245-.316A5.621,5.621,0,0,1,314.291,241.79Z" transform="translate(-295.822 -191.823)" fill="#3f2918"/>
            <path id="Path_106" data-name="Path 106" d="M293.564,163.365c.558-2.28,8.915,26.478,37.915,25.217,0,0,6.461-44.629-37.265-33.063-11.123,2.942-15.1,16.011-12.442,33.1C281.771,188.623,289.03,181.889,293.564,163.365Z" transform="translate(-280.975 -153.605)" fill="#3f2918"/>
            <g id="Group_14" data-name="Group 14" transform="translate(42.095 29.359)">
              <path id="Path_107" data-name="Path 107" d="M356.982,215.389A10.532,10.532,0,0,1,364.2,207c6.5-2.062,9.89,3.768,9.829,6.931-.073,3.8-2.7,9.277-11.576,9.085C359.758,222.956,356.383,218.4,356.982,215.389Z" transform="translate(-356.912 -206.567)" fill="#ffe4c1"/>
              <path id="Path_108" data-name="Path 108" d="M372.448,215.836a11.1,11.1,0,0,0-3.069.323,8,8,0,0,0-2.7,1.246,3.72,3.72,0,0,0-.573.457,4.263,4.263,0,0,0-.527.508l-.489.547-.413.611-.206.305-.169.331-.343.66c-.2.455-.349.938-.54,1.4l-.661-.6a11.378,11.378,0,0,1,1.876-.481,8.458,8.458,0,0,1,1.929-.1,4.906,4.906,0,0,1,1.885.47,3.25,3.25,0,0,1,1.374,1.3,3.626,3.626,0,0,0-1.524-.924,5.072,5.072,0,0,0-1.741-.163,8.719,8.719,0,0,0-1.748.278,11.292,11.292,0,0,0-1.679.541l-1.007.426.347-1.024c.174-.516.338-1.036.548-1.541l.365-.741c.062-.124.121-.248.19-.367l.238-.341a7.417,7.417,0,0,1,2.361-2.321,7.327,7.327,0,0,1,3.093-1.07A7.852,7.852,0,0,1,372.448,215.836Z" transform="translate(-359.237 -210.554)" fill="#eabc82"/>
            </g>
            <path id="Path_109" data-name="Path 109" d="M281.774,219.494c.988,1.9,7.447-1.781,6.59-3.429S280.861,217.74,281.774,219.494Z" transform="translate(-281.293 -181.242)" fill="#3f2918"/>
            <path id="Path_110" data-name="Path 110" d="M320.494,209.868c-.3,2.492,8.393,3.192,8.651,1.029S320.768,207.565,320.494,209.868Z" transform="translate(-298.584 -178.119)" fill="#3f2918"/>
            <g id="Group_15" data-name="Group 15" transform="translate(4.462 39.034)">
              <circle id="Ellipse_1" data-name="Ellipse 1" cx="5.535" cy="5.535" r="5.535" transform="matrix(0.258, -0.966, 0.966, 0.258, 24.18, 10.695)" fill="#ff7b7b" opacity="0.3"/>
              <path id="Path_111" data-name="Path 111" d="M295.71,245.549a5.156,5.156,0,0,1-1.8,3.911,34.489,34.489,0,0,1-4.887-8.809,5.221,5.221,0,0,1,1.547-.236A5.134,5.134,0,0,1,295.71,245.549Z" transform="translate(-289.025 -231.327)" fill="#ff7b7b" opacity="0.3"/>
            </g>
            <path id="Path_112" data-name="Path 112" d="M349.948,261.344c.84-2.942-2.381-5.884-2.381-5.884a33.921,33.921,0,0,0,5.183-5.229S354.106,257.517,349.948,261.344Z" transform="translate(-310.652 -196.667)" fill="#eabc82" opacity="0.5"/>
          </g>
          <g id="Group_20" data-name="Group 20" transform="translate(15.28)">
            <path id="Path_113" data-name="Path 113" d="M180.806,194.275c-9.667,5.464-25.778.7-25.778.7l-.981,3.782c.1.129.191.258.28.387,3.071,4.382,2.942,9.513.047,10.167-10.509,2.373-17.532-17.381-17.532-17.381,3.363-6.024,4.317-21.893,4.456-30.439,0,0-1.121-9.807,2.522-17.652,6.966-15,36.03-11.865,45.236-.427C197.279,153.631,188.461,189.949,180.806,194.275Z" transform="translate(-129.511 -120.12)" fill="#ffdaae"/>
            <g id="Group_18" data-name="Group 18" transform="translate(33.406 37.488)">
              <path id="Path_114" data-name="Path 114" d="M214.808,204.641c1.215.221.8,3.048.349,3.528-.666.7-2.942.21-2.8-.841S213.79,204.456,214.808,204.641Z" transform="translate(-196.567 -189.224)" fill="#dda365"/>
              <path id="Path_115" data-name="Path 115" d="M194.64,195.615a2.647,2.647,0,1,1-2.647-2.647A2.647,2.647,0,0,1,194.64,195.615Z" transform="translate(-186.316 -184.028)" fill="#3f2918"/>
              <path id="Path_116" data-name="Path 116" d="M230.024,200.409a2.2,2.2,0,1,1-1.918-2.647A2.318,2.318,0,0,1,230.024,200.409Z" transform="translate(-202.502 -186.159)" fill="#3f2918"/>
              <g id="Group_17" data-name="Group 17" transform="translate(6.746 21.488)">
                <path id="Path_117" data-name="Path 117" d="M203.241,221.972a6.116,6.116,0,0,1-3.85.263,4.134,4.134,0,0,1-2.992-2.583,5.288,5.288,0,0,1-.129-3.408,1.191,1.191,0,0,1,.179-.341c.723-.835,9.3.168,10.266,1.8a.209.209,0,0,1,.028.062C207.169,218.7,205.679,220.992,203.241,221.972Z" transform="translate(-196.048 -215.603)" fill="#3f2918"/>
                <path id="Path_118" data-name="Path 118" d="M206.921,217.769a23.622,23.622,0,0,1-10.473-1.524,1.19,1.19,0,0,1,.179-.341c.723-.835,9.3.168,10.266,1.8A.208.208,0,0,1,206.921,217.769Z" transform="translate(-196.226 -215.603)" fill="#fff"/>
                <path id="Path_119" data-name="Path 119" d="M203.522,224.84a6.116,6.116,0,0,1-3.85.263,4.134,4.134,0,0,1-2.992-2.583,5.082,5.082,0,0,1,3.531-.3A4.848,4.848,0,0,1,203.522,224.84Z" transform="translate(-196.33 -218.471)" fill="#ff7b7b"/>
              </g>
              <path id="Path_120" data-name="Path 120" d="M226.377,182.5c-1.067,2.271,6.959,5.675,7.885,3.7S227.363,180.4,226.377,182.5Z" transform="translate(-202.775 -179.089)" fill="#3f2918"/>
              <path id="Path_121" data-name="Path 121" d="M183.887,179.431c.329,2.885,10.3,1.36,10.016-1.144S183.582,176.763,183.887,179.431Z" transform="translate(-183.88 -176.84)" fill="#3f2918"/>
            </g>
            <path id="Path_122" data-name="Path 122" d="M134.284,124.1c-.42.42-10.227.234-10.647,10.694s5.744,20.373,4.623,27.115,1.128,10.11,3.926,10.667,8.2-8.275,7.422-14.013c0,0,5.043-.42,5.323-5.113s-1.821-6.515-1.821-6.515,13.029-2.522,9.947-18.773c0,0,8.967,15.662,24.8,6.92,0,0,6.3,11.712,15.831,5.128s1.961-25.357-15.971-22.415c0,0-9.806-10.928-24.237-8.126A26.464,26.464,0,0,0,134.284,124.1Z" transform="translate(-123.617 -109.214)" fill="#3f2918"/>
            <g id="Group_19" data-name="Group 19" transform="translate(3.216 41.34)">
              <path id="Path_123" data-name="Path 123" d="M147.377,190.685a11.065,11.065,0,0,0-9.387-6.865c-7.145-.56-9.221,6.212-8.406,9.433.981,3.876,4.974,8.849,14.009,6.537C146.339,199.09,148.708,193.628,147.377,190.685Z" transform="translate(-129.418 -183.788)" fill="#ffdaae"/>
              <path id="Path_124" data-name="Path 124" d="M136.037,194.485a8.3,8.3,0,0,1,3.188-1.018,7.868,7.868,0,0,1,6.37,2.174l.324.293c.1.105.189.218.281.329l.549.669c.334.466.625.959.926,1.443l.572.918-1.079-.185a11.876,11.876,0,0,0-1.852-.151,9.114,9.114,0,0,0-1.858.137,5.3,5.3,0,0,0-1.745.59A3.8,3.8,0,0,0,140.38,201a3.426,3.426,0,0,1,1.1-1.648,5.151,5.151,0,0,1,1.814-.922,8.9,8.9,0,0,1,1.995-.348,11.994,11.994,0,0,1,2.03.048l-.508.733c-.307-.431-.571-.891-.887-1.309l-.509-.6-.252-.3-.285-.264-.57-.528-.633-.444a4.481,4.481,0,0,0-.662-.395,3.888,3.888,0,0,0-.7-.332,8.377,8.377,0,0,0-3.063-.626A11.547,11.547,0,0,0,136.037,194.485Z" transform="translate(-132.368 -188.078)" fill="#dda365"/>
            </g>
            <path id="Path_125" data-name="Path 125" d="M161.857,244.989c.1.129.191.258.28.387-4.152-2.752-7.772-7.952-7.772-7.952a28.771,28.771,0,0,0,8.473,3.783Z" transform="translate(-137.319 -166.351)" fill="#dda365" opacity="0.5"/>
          </g>
          <g id="Group_30" data-name="Group 30" transform="translate(42.443 102.41)">
            <g id="Group_23" data-name="Group 23" transform="translate(26.039 3.496)">
              <g id="Group_21" data-name="Group 21" transform="translate(18.719)">
                <path id="Path_126" data-name="Path 126" d="M254.268,328.628c-2.248-2.772-.351-7.688,5.949-14.758,1.095-1.228,1.939-3.69.909-4.938-1-1.2-2.152-2.931-1.689-3.275.855-.635,2.7.836,2.7.836s-1.19-4.41-.431-4.821,2.26,1.931,2.26,1.931-.945-2.977-.056-3.317,1.946,2.625,1.946,2.625-.17-1.6.375-1.907,1.473,1.57,1.745,2.853,5.1,9.566,1.168,17.942C264.852,330.931,257.86,333.057,254.268,328.628Z" transform="translate(-253.359 -300.26)" fill="#ffdca9"/>
                <path id="Path_127" data-name="Path 127" d="M254.268,328.628c-2.248-2.772-.351-7.688,5.949-14.758,1.095-1.228,1.939-3.69.909-4.938-1-1.2-2.152-2.931-1.689-3.275.855-.635,2.7.836,2.7.836s-1.19-4.41-.431-4.821,2.26,1.931,2.26,1.931-.945-2.977-.056-3.317,1.946,2.625,1.946,2.625-.17-1.6.375-1.907,1.473,1.57,1.745,2.853,5.1,9.566,1.168,17.942C264.852,330.931,257.86,333.057,254.268,328.628Z" transform="translate(-253.359 -300.26)" fill="#eabc82" opacity="0.5"/>
              </g>
              <path id="Path_128" data-name="Path 128" d="M227.419,345.947c-5.211,4.8-10.857,14.029-5.939,23.082,5.3,9.755,21.691,20.074,42.823,13.433s20.047-29.033,11-36.677C265.921,337.859,237.376,336.768,227.419,345.947Z" transform="translate(-219.59 -317.724)" fill="#a1bcd3"/>
              <g id="Group_22" data-name="Group 22" transform="translate(17.722 21.888)" opacity="0.1">
                <path id="Path_129" data-name="Path 129" d="M285.507,346.362c-3.291,2.787-6.432,5.741-9.479,8.783s-6.015,6.165-8.827,9.427l-1.072,1.207-1.042,1.233c-.691.825-1.4,1.638-2.075,2.474-1.341,1.684-2.7,3.355-3.987,5.08-2.643,3.4-5.056,6.972-7.466,10.549l1.694-2.756c.566-.919,1.129-1.839,1.741-2.728l1.818-2.679c.607-.892,1.261-1.751,1.89-2.628,2.534-3.5,5.275-6.838,8.105-10.1,2.853-3.241,5.827-6.377,8.94-9.368q2.334-2.244,4.76-4.389C282.143,349.064,283.784,347.66,285.507,346.362Z" transform="translate(-251.559 -342.693)" fill="#3f2918"/>
                <path id="Path_130" data-name="Path 130" d="M283.871,339.744c-.029.7-.039,1.39-.017,2.083s.031,1.384.087,2.074c.1,1.379.232,2.754.433,4.121s.437,2.728.737,4.08c.279,1.356.643,2.694.978,4.048q-.4-.965-.757-1.95c-.208-.665-.44-1.325-.614-2a32.97,32.97,0,0,1-.864-4.1,31.525,31.525,0,0,1-.316-4.181A20.885,20.885,0,0,1,283.871,339.744Z" transform="translate(-265.811 -339.744)" fill="#3f2918"/>
              </g>
              <path id="Path_131" data-name="Path 131" d="M225.429,379.849c1.026-3.64,6.443-5,16.415-3.869,1.733.2,4.38-.577,4.831-2.231.435-1.6,1.223-3.655,1.8-3.464,1.073.352.924,2.845.924,2.845s3.09-3.726,3.91-3.32-.29,3.138-.29,3.138,2-2.638,2.838-2.077-1.084,3.29-1.084,3.29,1.286-1.128,1.881-.84-.459,2.235-1.4,3.255-5.167,10.264-14.823,11.978C229.9,390.421,223.789,385.666,225.429,379.849Z" transform="translate(-222.074 -331.241)" fill="#ffdca9"/>
            </g>
            <g id="Group_29" data-name="Group 29">
              <g id="Group_24" data-name="Group 24" transform="translate(38.317 31.499)">
                <path id="Path_132" data-name="Path 132" d="M250.783,355.99c-.52,1.646-2.2,2.623-3.971,3.2a19.214,19.214,0,0,1-4.948.842c-1.043-4.843,4.7-9.258,4.7-9.258a12.064,12.064,0,0,1,2.357,1.406C250.136,353.114,251.268,354.449,250.783,355.99Z" transform="translate(-241.738 -350.775)" fill="#ffdca9"/>
                <path id="Path_133" data-name="Path 133" d="M248.923,352.181a10.694,10.694,0,0,0-2.111,7.01,19.214,19.214,0,0,1-4.948.842c-1.043-4.843,4.7-9.258,4.7-9.258A12.064,12.064,0,0,1,248.923,352.181Z" transform="translate(-241.738 -350.775)" fill="#eabc82" opacity="0.5"/>
              </g>
              <g id="Group_28" data-name="Group 28">
                <g id="Group_25" data-name="Group 25" transform="translate(33.924 2.863)">
                  <path id="Path_134" data-name="Path 134" d="M234.114,308.05a7.416,7.416,0,0,1,2.063-7.544c3.527-3.157,7.46-.23,8.382,1.881,1.109,2.539,1.093,6.887-4.635,9.2C238.185,312.3,234.647,310.212,234.114,308.05Z" transform="translate(-233.813 -299.118)" fill="#ffdca9"/>
                  <path id="Path_135" data-name="Path 135" d="M234.114,308.05a7.416,7.416,0,0,1,2.063-7.544c3.527-3.157,7.46-.23,8.382,1.881,1.109,2.539,1.093,6.887-4.635,9.2C238.185,312.3,234.647,310.212,234.114,308.05Z" transform="translate(-233.813 -299.118)" fill="#eabc82" opacity="0.5"/>
                  <path id="Path_136" data-name="Path 136" d="M243.713,304.472a7.835,7.835,0,0,0-1.834,1.14l-.38.358-.348.379-.3.411c-.091.141-.17.29-.256.432a2.775,2.775,0,0,0-.208.453,2.474,2.474,0,0,0-.164.47c-.044.161-.1.319-.136.481l-.07.5a2.785,2.785,0,0,0-.038.506l-.021.512c.011.344.06.689.073,1.037l-.847-.264a7.5,7.5,0,0,1,1.1-.853,5.65,5.65,0,0,1,1.25-.594,3.4,3.4,0,0,1,1.388-.168,2.31,2.31,0,0,1,1.237.54,2.72,2.72,0,0,0-1.235-.137,3.527,3.527,0,0,0-1.129.4,5.753,5.753,0,0,0-1.006.677,7.373,7.373,0,0,0-.884.819l-.706.794-.141-1.058c-.052-.385-.1-.771-.126-1.16a6.67,6.67,0,0,1,.059-1.183,5.255,5.255,0,0,1,.819-2.243,4.8,4.8,0,0,1,1.728-1.6A4.976,4.976,0,0,1,243.713,304.472Z" transform="translate(-236.093 -301.504)" fill="#eabc82"/>
                </g>
                <path id="Path_137" data-name="Path 137" d="M215.283,328.955c-6.956,10.689-17.182,16.366-30.61,8.623-.5-.287-.985-.591-1.454-.906a.008.008,0,0,1-.012,0c-12.1-8.12-13.65-24.42-5.579-35.118,3.324-4.407,9.793-9.124,19.891-7.129a39.88,39.88,0,0,1,13.735,5.961,20.494,20.494,0,0,1,3.383,2.744h.006a17.482,17.482,0,0,1,5.1,9.748C220.4,317.229,219.425,322.589,215.283,328.955Z" transform="translate(-172.617 -293.954)" fill="#ffdca9"/>
                <path id="Path_138" data-name="Path 138" d="M225.631,326.2c.606-1.007,2.882.073,3.155.639.4.829-.747,2.541-2.007,2.131A2.214,2.214,0,0,1,225.631,326.2Z" transform="translate(-196.167 -308.142)" fill="#eabc82"/>
                <path id="Path_139" data-name="Path 139" d="M212.485,340.447a2.647,2.647,0,1,1-2.639-2.654A2.647,2.647,0,0,1,212.485,340.447Z" transform="translate(-188.026 -313.491)" fill="#3f2918"/>
                <path id="Path_140" data-name="Path 140" d="M236.862,313.668a2.388,2.388,0,1,1-.416-3.161A2.262,2.262,0,0,1,236.862,313.668Z" transform="translate(-199.432 -301.054)" fill="#3f2918"/>
                <g id="Group_26" data-name="Group 26" transform="translate(29.873 21.719)">
                  <path id="Path_141" data-name="Path 141" d="M234.137,337.2a5.247,5.247,0,0,1-1.73,2.821,3.545,3.545,0,0,1-3.293.807,4.536,4.536,0,0,1-2.445-1.6,1.03,1.03,0,0,1-.15-.3c-.224-.92,2.216-5.428,6.023-5.791C233.4,333.3,234.663,335,234.137,337.2Z" transform="translate(-226.505 -333.133)" fill="#3f2918"/>
                  <path id="Path_142" data-name="Path 142" d="M236.234,340.4a5.247,5.247,0,0,1-1.73,2.821,3.545,3.545,0,0,1-3.293.807,4.364,4.364,0,0,1,1.543-2.618A4.157,4.157,0,0,1,236.234,340.4Z" transform="translate(-228.603 -336.339)" fill="#ff7b7b"/>
                </g>
                <path id="Path_143" data-name="Path 143" d="M220.6,302.464c.982,1.9,7.452-1.761,6.6-3.41S219.7,300.706,220.6,302.464Z" transform="translate(-193.965 -296.027)" fill="#9e7441"/>
                <path id="Path_144" data-name="Path 144" d="M195.465,335.616c2.362,1.271,6.464-7.1,4.414-8.2S193.282,334.44,195.465,335.616Z" transform="translate(-182.541 -308.821)" fill="#9e7441"/>
                <circle id="Ellipse_2" data-name="Ellipse 2" cx="5.535" cy="5.535" r="5.535" transform="translate(16.246 32.843)" fill="#ff7b7b" opacity="0.3"/>
                <path id="Path_145" data-name="Path 145" d="M251.554,320.255a5.434,5.434,0,0,1-2.035.387,5.538,5.538,0,0,1-3.071-10.135h.006A17.481,17.481,0,0,1,251.554,320.255Z" transform="translate(-204.428 -301.331)" fill="#ff7b7b" opacity="0.3"/>
                <path id="Path_146" data-name="Path 146" d="M185.7,296.409c1.552.022,3.451.279,3.263,1.394-.313,1.865-10.724,3.7-10.724,3.7s6.915-.256,6.158,1.984-8.7,3.427-8.7,3.427,5.225,3.377,4.468,5.5-6.912.721-6.912.721,5.123,5.551,4.561,6.351-4.573-2-4.573-2,5.124,5.215,4.372,5.907-3.359-1.264-3.359-1.264c5.962,6.181,9.3,13.85,8.988,14.544,0,0-.006,0-.022-.011a.008.008,0,0,1-.012,0c-12.1-8.12-13.65-24.42-5.579-35.118,3.324-4.407,9.793-9.124,19.891-7.129C196.692,295.8,189.282,296.262,185.7,296.409Z" transform="translate(-172.617 -293.954)" fill="#9e7441"/>
                <g id="Group_27" data-name="Group 27" transform="translate(4.691 40.709)">
                  <path id="Path_147" data-name="Path 147" d="M189.9,367.65a7.416,7.416,0,0,0-7.5,2.212c-3.087,3.588-.082,7.463,2.046,8.343,2.561,1.058,6.907.956,9.112-4.816C194.229,371.637,192.075,368.14,189.9,367.65Z" transform="translate(-181.079 -367.391)" fill="#ffdca9"/>
                  <path id="Path_148" data-name="Path 148" d="M186.5,377.336a4.972,4.972,0,0,1,.6-2.188,4.808,4.808,0,0,1,1.568-1.759,5.258,5.258,0,0,1,2.227-.864,6.66,6.66,0,0,1,1.181-.083c.39.02.777.06,1.162.1l1.061.12-.78.722a7.418,7.418,0,0,0-.8.9,5.754,5.754,0,0,0-.657,1.019,3.548,3.548,0,0,0-.373,1.136,2.718,2.718,0,0,0,.161,1.232,2.311,2.311,0,0,1-.564-1.226,3.4,3.4,0,0,1,.141-1.39A5.608,5.608,0,0,1,192,373.8a7.5,7.5,0,0,1,.83-1.114l.281.841c-.348-.007-.695-.048-1.039-.053l-.511.03a2.772,2.772,0,0,0-.5.048l-.5.08c-.161.043-.318.1-.478.145a2.471,2.471,0,0,0-.467.173,2.778,2.778,0,0,0-.449.218c-.141.089-.288.17-.427.264l-.405.306-.371.355-.35.387A7.8,7.8,0,0,0,186.5,377.336Z" transform="translate(-183.496 -369.642)" fill="#eabc82"/>
                </g>
              </g>
            </g>
          </g>
          <path id="Path_149" data-name="Path 149" d="M105.175,255.981c-5.5.013-10.073,10.262-8.953,19.461s12.288,48.908,15.11,54.971,34.473,22.875,40.5,27.078,11.395,4.473,15.952,0c5.329-5.23,7.721-19.876,3.242-25.485s-39.357-13.987-42.652-18.207-7.113-35.052-8.618-41C118.218,266.708,114.888,255.958,105.175,255.981Z" transform="translate(-96.052 -174.621)" fill="#b4e288"/>
          <path id="Path_150" data-name="Path 150" d="M329.855,296.009c-2.9,16.486-12.7,41.58-17.932,47.044-4.516,4.713-33.5,16.414-43.525,20.017h-.006c-1.026.376-4.943,3.66-7.885,4.78s-10.345,1.306-10.552.325,6.725-2.471,6.585-3.032-10.7.695-10.7-.987,9.689-2.566,9.3-3.547-9.768-.062-9.555-1.95,10.72-3.094,10.956-3.884-5.839-3.878-4.158-5.234,5.526,1.093,6.68,1.732a10.3,10.3,0,0,0,5.626.605l.006.006c8.535-4.023,34.739-15.534,36.756-18.431,2.068-2.965,9.453-28.193,11.471-37.876,1.39-6.669,5.094-21.513,12.054-21.379C329.44,274.278,332.735,279.613,329.855,296.009Z" transform="translate(-162.69 -182.74)" fill="#ffe4c1"/>
          <path id="Path_151" data-name="Path 151" d="M223.926,400.835c-1.717-1.038-7.909-1.64-11.759,4.894s-3.087,13.718,1.861,16.145c6.3,3.091,11.509-.82,13.787-7.54C230.3,406.992,227.557,403.029,223.926,400.835Z" transform="translate(-146.711 -238.889)" fill="#e7b142"/>
          <path id="Path_152" data-name="Path 152" d="M118.23,256.732a11.967,11.967,0,0,1,5.524,3.3,18.562,18.562,0,0,1,3.677,5.357c.118.246.246.486.351.737l.293.762c.185.511.415,1.008.563,1.532a31.922,31.922,0,0,1,.844,3.152l.342,1.6.284,1.6.553,3.2c1.46,8.543,2.728,17.122,4.461,25.6.433,2.119.9,4.233,1.48,6.308a20.724,20.724,0,0,0,1.07,3.019,4.618,4.618,0,0,0,.387.662,1.908,1.908,0,0,0,.357.379l.172.094c.232.124.454.256.693.374l.732.341c3.935,1.777,7.99,3.326,12.012,4.929q6.049,2.376,12.138,4.649c2.026.767,4.055,1.527,6.091,2.266s4.072,1.486,6.145,2.113c-2.087-.587-4.136-1.3-6.188-1.992s-4.1-1.419-6.137-2.145q-6.117-2.2-12.194-4.513c-2.027-.768-4.05-1.547-6.061-2.357s-4.022-1.62-6.006-2.516l-.743-.343c-.247-.12-.492-.263-.738-.395l-.184-.1a1.847,1.847,0,0,1-.18-.152,1.5,1.5,0,0,1-.3-.343,5.033,5.033,0,0,1-.436-.736,21.189,21.189,0,0,1-1.112-3.1c-.6-2.1-1.072-4.215-1.511-6.341-.861-4.254-1.585-8.529-2.29-12.806l-2.054-12.838c-.706-4.263-1.218-8.617-3.065-12.542a18.388,18.388,0,0,0-3.537-5.375A11.905,11.905,0,0,0,118.23,256.732Z" transform="translate(-105.936 -174.956)" fill="#3f2918" opacity="0.2"/>
          <path id="Path_153" data-name="Path 153" d="M227.1,407.175s-7.368,3.686-6,13.864a93.578,93.578,0,0,0,7.542,5.684c3.814,2.141,14.253,4.2,14.967,2.854s-7.8-5.287-7.8-5.287,10.879,2.2,11.479-.4-11.2-4.156-11.2-4.156,11.831,1.011,12.3-1.565-11.225-4.128-11.541-4.85,6.56-4.261,5.513-5.734c-1.772-2.495-8.58,1.513-9.72,1.211S227.1,407.175,227.1,407.175Z" transform="translate(-151.706 -241.819)" fill="#ffdaae"/>
        </g>
        <g id="Group_32" data-name="Group 32" transform="translate(72.518 60.767)">
          <path id="Path_154" data-name="Path 154" d="M250.567,272.982c-2.2,4.342-7.3,6.486-7.3,6.486s-5.1-2.144-7.3-6.486c-1.618-3.195-1.861-8.46,2.481-8.46,3.435,0,4.823,4.934,4.823,4.934s1.388-4.934,4.823-4.934C252.428,264.522,252.185,269.788,250.567,272.982Z" transform="translate(-230.441 -239.195)" fill="#e29393"/>
          <path id="Path_155" data-name="Path 155" d="M262.091,226.67a11.029,11.029,0,0,1-5.979,3.027,11.03,11.03,0,0,1-3.713-5.579c-.515-2.4.243-5.939,3.124-5.18,2.279.6,2.338,4.117,2.338,4.117s1.783-3.032,4.062-2.431C264.8,221.382,263.723,224.833,262.091,226.67Z" transform="translate(-238.18 -218.833)" fill="#e29393"/>
          <path id="Path_156" data-name="Path 156" d="M235.746,241.987a8.632,8.632,0,0,1-1.634,4.986,8.638,8.638,0,0,1-5.144-1.033c-1.615-1.045-3.154-3.423-1.139-4.6,1.594-.929,3.573.985,3.573.985s-.691-2.665.9-3.594C234.32,237.557,235.632,240.067,235.746,241.987Z" transform="translate(-226.87 -227.567)" fill="#e29393"/>
        </g>
      </g>
    </g>
  </g>
</svg>
