<svg id="like" xmlns="http://www.w3.org/2000/svg" width="55.53" height="52.25" viewBox="0 0 55.53 52.25">
  <g id="Group_15474" data-name="Group 15474" transform="translate(8.025 0)">
    <path id="Path_11197" data-name="Path 11197" d="M84.527,269.313H56.908a1.379,1.379,0,0,1-1.408-1.348V237.941a1.379,1.379,0,0,1,1.408-1.348H69.217l11.367-11.779c2.18-2.259,5.273-2.762,7.523-1.224,1.727,1.181,3.027,3.835,1,7.429l-3.138,5.574H97.654a5.111,5.111,0,0,1,.929,10.17,4.926,4.926,0,0,1,.684,2.5,5.2,5.2,0,0,1-4.438,5.049,4.926,4.926,0,0,1,.682,2.5,5.247,5.247,0,0,1-5.351,5.124h-.821a4.94,4.94,0,0,1,.54,2.247A5.247,5.247,0,0,1,84.527,269.313Z" transform="translate(-55.5 -222.705)" fill="#ffbb85"/>
  </g>
  <path id="Path_11205" data-name="Path 11205" d="M55.5,398.547V412.8a1.408,1.408,0,0,0,1.408,1.408H84.527a5.356,5.356,0,0,0,4.812-7.7h.821a5.35,5.35,0,0,0,4.67-7.963H55.5Z" transform="translate(-47.475 -367.6)" fill="#f5a86c"/>
  <g id="Group_15475" data-name="Group 15475" transform="translate(0 9.644)">
    <path id="Path_11199" data-name="Path 11199" d="M18.4,327.7H2.817A2.817,2.817,0,0,1,0,324.883V287.911a2.817,2.817,0,0,1,2.817-2.817H18.4a2.817,2.817,0,0,1,2.816,2.817v36.972A2.817,2.817,0,0,1,18.4,327.7Z" transform="translate(0 -285.094)" fill="#00ddc1"/>
  </g>
  <path id="Path_11206" data-name="Path 11206" d="M0,398.547v18.486a2.817,2.817,0,0,0,2.817,2.817H18.4a2.817,2.817,0,0,0,2.816-2.817V398.547Z" transform="translate(0 -367.6)" fill="#00ab94"/>
</svg>
