<svg id="Group_2" data-name="Group 2" xmlns="http://www.w3.org/2000/svg" xmlns:xlink="http://www.w3.org/1999/xlink" width="110.01" height="122.588" viewBox="0 0 110.01 122.588">
  <defs>
    <linearGradient id="linear-gradient" x1="0.032" y1="0.566" x2="3.862" y2="0.029" gradientUnits="objectBoundingBox">
      <stop offset="0" stop-color="#fff" stop-opacity="0.4"/>
      <stop offset="1" stop-color="#fff" stop-opacity="0"/>
    </linearGradient>
    <linearGradient id="linear-gradient-2" x1="0.284" y1="0.494" x2="2.224" y2="-0.296" xlink:href="#linear-gradient"/>
    <linearGradient id="linear-gradient-3" x1="0.177" y1="0.568" x2="0.966" y2="0.41" xlink:href="#linear-gradient"/>
  </defs>
  <path id="Path_2" data-name="Path 2" d="M261.878,268.83l-7.568-5.5V301.9l14.987,8.65,3.066-9.442C275.93,290.141,271.214,275.613,261.878,268.83Z" transform="translate(-254.31 -211.073)" fill="#35a8e0"/>
  <path id="Path_3" data-name="Path 3" d="M290.008,134.325l-35.7,20.61v6.95h15.2a30.892,30.892,0,0,0,27.457-19.948l4.652-14.317Z" transform="translate(-254.31 -127.62)" fill="#93c01f"/>
  <path id="Path_4" data-name="Path 4" d="M421.806,141.945c3.563,10.97,15.921,19.948,27.457,19.948h15.2v-6.95l-47.3-27.309Z" transform="translate(-354.45 -127.628)" fill="#d60b51"/>
  <path id="Path_5" data-name="Path 5" d="M491.221,301.116l3.066,9.442,14.984-8.65V263.341l-7.561,5.494C492.376,275.618,487.656,290.146,491.221,301.116Z" transform="translate(-399.261 -211.078)" fill="#00a099"/>
  <path id="Path_6" data-name="Path 6" d="M376.942,391.026c-6.375-4.631-15.518-6.093-23.65-4.4a26.826,26.826,0,0,0-10.287,4.4l-6.317,4.59,23.284,13.443,6.818-3.939,16.467-9.508Z" transform="translate(-304.966 -286.471)" fill="#a2195b"/>
  <path id="Path_7" data-name="Path 7" d="M359.674,183.057H345.728c-8.469,0-17.551-6.59-20.165-14.649l-4.309-13.262c-2.618-8.058-6.9-8.061-9.519,0l-4.312,13.262c-2,6.152-7.76,11.438-14.142,13.6a18.881,18.881,0,0,1-6.023,1.05H273.31c-8.47,0-9.8,4.074-2.942,9.056l11.287,8.2c6.854,4.982,10.319,15.652,7.7,23.7l-4.306,13.266c-2.618,8.055.849,10.574,7.7,5.6l11.283-8.2a17.552,17.552,0,0,1,1.789-1.058c6.9-3.834,16.839-3.517,23.139,1.058l11.28,8.2c6.854,4.973,10.324,2.454,7.7-5.6l-4.3-13.266c-2.617-8.05.847-18.72,7.7-23.7l11.284-8.2C369.473,187.131,368.148,183.057,359.674,183.057Z" transform="translate(-261.487 -140.83)" fill="#f8b133"/>
  <g id="Group_1" data-name="Group 1" transform="translate(31.794 0)">
    <path id="Path_8" data-name="Path 8" d="M348.273,141.937l4.652-14.317-11.612,6.7a124.534,124.534,0,0,0-3.569,21.536A29.052,29.052,0,0,0,348.273,141.937Z" transform="translate(-337.41 -127.62)" fill="url(#linear-gradient)"/>
    <path id="Path_9" data-name="Path 9" d="M403.457,391.026c-6.375-4.631-15.518-6.093-23.65-4.4a112.828,112.828,0,0,0,13.5,18.493l16.467-9.508Z" transform="translate(-363.275 -286.471)" fill="url(#linear-gradient-2)"/>
    <path id="Path_10" data-name="Path 10" d="M372.552,234.682l11.28,8.2c6.854,4.973,10.324,2.454,7.7-5.6l-4.3-13.266c-2.617-8.05.847-18.72,7.7-23.7l11.284-8.2c6.853-4.982,5.528-9.056-2.946-9.056H389.323c-8.469,0-17.551-6.59-20.165-14.649l-4.309-13.262c-2.618-8.058-6.9-8.061-9.519,0l-4.312,13.262c-2,6.152-7.76,11.438-14.142,13.6a122.917,122.917,0,0,0,12.538,51.617C356.313,229.79,366.253,230.107,372.552,234.682Z" transform="translate(-336.876 -140.83)" fill="url(#linear-gradient-3)"/>
  </g>
</svg>
