<svg xmlns="http://www.w3.org/2000/svg" width="46.053" height="89.256" viewBox="0 0 46.053 89.256">
  <g id="mother" transform="translate(-6.474 443.471)">
    <path id="Path_11236" data-name="Path 11236" d="M650.362,759.688,644.73,763c1.1,3.8,2.508,11.2,2.508,11.2.167,7.161,3.385,20.568,3.385,20.568l1.841-.086c-.673-13.33-1.517-20.553-1.517-20.553C650.652,772.248,650.6,768.164,650.362,759.688Z" transform="translate(-692.954 -1073.296) rotate(-7)" fill="#f99160"/>
    <path id="Path_11237" data-name="Path 11237" d="M661.34,811.591c.2-.216.334-.344.334-.344l4.98-.673c.064,2.289.118,4.107.18,5.546a13.384,13.384,0,0,1-4.437-.011C662.087,814.7,661.715,813.089,661.34,811.591Z" transform="translate(-714.326 -1116.748) rotate(-7)" fill="#e97241"/>
    <path id="Path_11238" data-name="Path 11238" d="M652.92,1124.832a7.54,7.54,0,0,1-.593,2.933c-.557.7-1.164,1.584-.771,1.769s1.295-.568,2.008-1.762a10.064,10.064,0,0,0,.759-1.746Z" transform="translate(-735.465 -1398.706) rotate(-7)" fill="#d24522"/>
    <path id="Path_11239" data-name="Path 11239" d="M652.69,1127.125a10.2,10.2,0,0,1-.83,3.33c-.556.705-1.163,1.584-.77,1.769s1.294-.568,2.007-1.762a10.122,10.122,0,0,0,.759-1.746Z" transform="matrix(0.995, -0.105, 0.105, 0.995, -717.22, -1414.292)" fill="#e15e37"/>
    <path id="Path_11240" data-name="Path 11240" d="M647.893,1102.811a19.669,19.669,0,0,0-2.03,2.769,19.883,19.883,0,0,1-1.315,1.69c-.278.233.232.8,1.346-.341s1.88-1.39,2.083-1.291a9.015,9.015,0,0,1-.579,3.107c-1.005,1.49-1.749,2.3-1.341,2.446s2.348-1.754,2.952-3.006a14.961,14.961,0,0,0,.659-5.512Z" transform="translate(-727.757 -1379.586) rotate(-7)" fill="#f99160"/>
    <path id="Path_3" data-name="Path 3" d="M943.926,638.184a13.362,13.362,0,0,1,6.354,3.55c1.662,1.792,4,14.5,4,14.5a5.512,5.512,0,0,1-5.271,3.125L945,651.643Z" transform="translate(-907.126 -1047.966)" fill="#fa4750"/>
    <g id="Group_76" data-name="Group 76" transform="translate(6.474 -443.471)">
      <path id="Path_70" data-name="Path 70" d="M739.742,497.138s-5.434-.353-7.358-3.15-.234-9.063-.234-9.063l7.457,7.216Z" transform="translate(-722.654 -466.758)" fill="#4d0b05"/>
      <path id="Path_71" data-name="Path 71" d="M866.428,487.575s-1.01,8.37.348,10.3a18.7,18.7,0,0,1-9.311,2.229v-5.592l5.914-7.911Z" transform="translate(-835.895 -468.261)" fill="#4d0b05"/>
      <g id="Group_63" data-name="Group 63" transform="translate(0 3.813)">
        <g id="Group_61" data-name="Group 61">
          <g id="Group_60" data-name="Group 60">
            <g id="Group_38" data-name="Group 38" transform="translate(0 21.686)">
              <g id="Group_37" data-name="Group 37">
                <path id="Path_79" data-name="Path 79" d="M731.275,565.175c-2.442-.735-5.262-1.538-5.262-1.538a8.278,8.278,0,0,1-1.132-4.972l-2.914-1.325v-.02l-.026.01-.026-.01v.02L719,558.665s-.005,3.661-1.134,4.972c0,0-8.331,2.417-9.071,2.821-.105.057-.215.368-.314.875l14.175,7.482,8.616-5.053Z" transform="translate(-702.001 -557.32)" fill="#ef7746"/>
                <path id="Path_80" data-name="Path 80" d="M646.7,759.688,651.984,763c-1.03,3.8-2.352,11.2-2.352,11.2-.156,7.161-3.175,20.568-3.175,20.568l-1.727-.086c.631-13.33,1.423-20.553,1.423-20.553C646.429,772.248,646.481,768.164,646.7,759.688Z" transform="translate(-644.704 -739.194)" fill="#f99160"/>
                <path id="Path_81" data-name="Path 81" d="M666.218,811.591c-.174-.216-.3-.344-.3-.344l-4.422-.673c-.057,2.289-.1,4.107-.16,5.546a10.571,10.571,0,0,0,3.939-.011C665.555,814.7,665.885,813.089,666.218,811.591Z" transform="translate(-659.632 -784.926)" fill="#e97241"/>
                <path id="Path_82" data-name="Path 82" d="M662.211,638.188s-4.674.828-6.387,3.661c-1.265,2.092-2.285,15.469-2.285,15.469a5.515,5.515,0,0,0,5.586,2.52l3.132-8.113Z" transform="translate(-652.621 -629.998)" fill="#fa4750"/>
                <path id="Path_83" data-name="Path 83" d="M686.359,689.158l3.132-8.113-.033-9.762c-.083-.42-.143-.58-.171-.4-.242,1.481-1.875,2.052-4.155,7.485a18.7,18.7,0,0,0-.874,10.743A5.65,5.65,0,0,0,686.359,689.158Z" transform="translate(-679.855 -659.319)" fill="#ee3339"/>
                <path id="Path_84" data-name="Path 84" d="M810.488,560.975c1.349.911,3.626,2.284,4.8,2.056a4.627,4.627,0,0,0,1.707-.757,9.341,9.341,0,0,1-.437-3.609l-2.914-1.325v-.02l-.027.01-.026-.01v.02l-2.912,1.325A17.116,17.116,0,0,1,810.488,560.975Z" transform="translate(-793.675 -557.32)" fill="#c74921"/>
                <path id="Path_85" data-name="Path 85" d="M713.11,658.928c-.367,3.622-1.747,9.451-2.377,13.47,0,0,3.663,3.09,12.6,3.09,9.678,0,11.845-3.09,11.845-3.09-.269-1.637-.606-3.865-.913-6.383-.775-6.353-.75-12.4.44-16.583a44.367,44.367,0,0,0,1.784-8.745c.319-4.384-2.223-12.8-2.223-12.8l-4.044-1.369s-3.76,8.268-6.575,8.319c-1.569.028-5.532-5.643-6.839-8.293l-4.153,1.258s-4.927,10.907-1.3,20.885C711.351,648.692,713.495,655.143,713.11,658.928Z" transform="translate(-703.38 -619.515)" fill="#fa4750"/>
                <path id="Path_86" data-name="Path 86" d="M652.832,1124.832a7.54,7.54,0,0,0,.593,2.933c.557.7,1.164,1.584.771,1.769s-1.295-.568-2.008-1.762a10.064,10.064,0,0,1-.759-1.746Z" transform="translate(-650.726 -1067.359)" fill="#d24522"/>
                <path id="Path_87" data-name="Path 87" d="M652.131,1127.125a10.2,10.2,0,0,0,.83,3.33c.556.705,1.163,1.584.77,1.769s-1.294-.568-2.007-1.762a10.122,10.122,0,0,1-.759-1.746Z" transform="translate(-650.308 -1069.419)" fill="#e15e37"/>
                <path id="Path_88" data-name="Path 88" d="M646.286,1102.811a19.669,19.669,0,0,1,2.03,2.769,19.883,19.883,0,0,0,1.315,1.69c.278.233-.232.8-1.346-.341s-1.88-1.39-2.083-1.291a9.015,9.015,0,0,0,.579,3.107c1.005,1.49,1.749,2.3,1.341,2.446s-2.348-1.754-2.952-3.006a14.961,14.961,0,0,1-.659-5.512Z" transform="translate(-644.474 -1047.443)" fill="#f99160"/>
              </g>
            </g>
            <g id="Group_59" data-name="Group 59" transform="translate(9.27)">
              <g id="Group_58" data-name="Group 58">
                <g id="Group_57" data-name="Group 57">
                  <g id="Group_50" data-name="Group 50">
                    <g id="Group_49" data-name="Group 49">
                      <g id="Group_43" data-name="Group 43" transform="translate(18.868 11.194)">
                        <path id="Path_89" data-name="Path 89" d="M922.678,455.324a3.217,3.217,0,0,1,2.312-1.609c.837-.013.59,3.42-.272,4.307a1.431,1.431,0,0,1-2.394-.195Z" transform="translate(-922.324 -453.715)" fill="#f99160"/>
                        <path id="Path_90" data-name="Path 90" d="M927.734,464.744a1.244,1.244,0,0,0,1.5-.507c.454-.875.894-1.929.543-2.7,0,0-.969.226-1.866,2.035C927.915,463.57,928.572,464.386,927.734,464.744Z" transform="translate(-927.186 -460.743)" fill="#d43e22" opacity="0.4"/>
                        <g id="Group_40" data-name="Group 40" transform="translate(0.446 0.71)">
                          <g id="Group_39" data-name="Group 39">
                            <path id="Path_91" data-name="Path 91" d="M929.015,461.907c-.01-.166-.019-.331-.037-.495a2.318,2.318,0,0,0-.093-.473.291.291,0,0,0-.049-.083c-.021,0-.01-.014-.044.006a1.016,1.016,0,0,0-.205.127,4.469,4.469,0,0,0-.376.3,5.351,5.351,0,0,0-.661.714,4.1,4.1,0,0,0-.279.4,1.836,1.836,0,0,0-.114.213l-.108.217-.013-.08a1.5,1.5,0,0,1,.2.364.867.867,0,0,1,.059.415.523.523,0,0,1-.213.355.968.968,0,0,1-.362.17,1.109,1.109,0,0,0,.324-.211.466.466,0,0,0,.15-.324,1.025,1.025,0,0,0-.283-.666l-.032-.039.02-.042.108-.231a1.9,1.9,0,0,1,.114-.227,4.3,4.3,0,0,1,.281-.423,4.478,4.478,0,0,1,.7-.73c.061-.058.132-.106.2-.158a1.557,1.557,0,0,1,.213-.146,1.187,1.187,0,0,1,.226-.117.163.163,0,0,1,.185.028.377.377,0,0,1,.07.133,1.757,1.757,0,0,1,.052.507A4.441,4.441,0,0,1,929.015,461.907Z" transform="translate(-926.723 -460.724)" fill="#85362d"/>
                          </g>
                        </g>
                        <g id="Group_42" data-name="Group 42" transform="translate(1.262 1.631)">
                          <g id="Group_41" data-name="Group 41">
                            <path id="Path_92" data-name="Path 92" d="M935.954,470.241a1.064,1.064,0,0,0-.159-.122.821.821,0,0,0-.176-.071.555.555,0,0,0-.208-.035.763.763,0,0,0-.219,0,1.055,1.055,0,0,0-.2.017,1.477,1.477,0,0,1-.21.011,1.221,1.221,0,0,1,.181-.112.6.6,0,0,1,.206-.077.916.916,0,0,1,.258-.024.724.724,0,0,1,.256.072.57.57,0,0,1,.183.142A.424.424,0,0,1,935.954,470.241Z" transform="translate(-934.781 -469.822)" fill="#85362d"/>
                          </g>
                        </g>
                      </g>
                      <path id="Path_93" data-name="Path 93" d="M766.3,371.833s4.02-2.045,5.418-4.341c1.148-1.611,2.5-9.828,2.64-11.1,0-.043.009-.084.014-.127s.006-.062.006-.062h0c.023-.264.038-.53.038-.8a8.908,8.908,0,1,0-17.816,0,8.776,8.776,0,0,0,.05.947h0s1.388,9.38,2.646,11.145c1.478,2.633,5.418,4.341,5.418,4.341A2.649,2.649,0,0,0,766.3,371.833Z" transform="translate(-754.513 -346.157)" fill="#f99160"/>
                      <path id="Path_94" data-name="Path 94" d="M806.283,345.513a5.407,5.407,0,0,0-2.888.387c-1.125.638,1.394-3.628,2.351-2.537A1.92,1.92,0,0,1,806.283,345.513Z" transform="translate(-796.315 -343.184)" fill="#631406"/>
                      <g id="Group_48" data-name="Group 48" transform="translate(0 11.569)">
                        <path id="Path_95" data-name="Path 95" d="M738.838,459.027a3.218,3.218,0,0,0-2.312-1.609c-.837-.013-.589,3.421.273,4.307a1.43,1.43,0,0,0,2.393-.194Z" transform="translate(-736.01 -457.418)" fill="#f99160"/>
                        <path id="Path_96" data-name="Path 96" d="M742.727,468.447a1.246,1.246,0,0,1-1.5-.507c-.454-.876-.895-1.929-.542-2.7,0,0,.969.226,1.865,2.036C742.545,467.274,741.888,468.089,742.727,468.447Z" transform="translate(-740.092 -464.446)" fill="#d43e22" opacity="0.4"/>
                        <g id="Group_45" data-name="Group 45" transform="translate(0.413 0.709)">
                          <g id="Group_44" data-name="Group 44">
                            <path id="Path_97" data-name="Path 97" d="M740.12,465.607a4.546,4.546,0,0,1-.031-.5,1.786,1.786,0,0,1,.052-.508.406.406,0,0,1,.071-.133.163.163,0,0,1,.184-.028,1.22,1.22,0,0,1,.227.117,1.582,1.582,0,0,1,.213.147c.066.052.136.1.2.158a4.512,4.512,0,0,1,.7.73,4.342,4.342,0,0,1,.28.423,1.913,1.913,0,0,1,.115.227l.107.231.02.041-.032.039a1.022,1.022,0,0,0-.282.666.469.469,0,0,0,.15.324,1.14,1.14,0,0,0,.325.211.968.968,0,0,1-.361-.17.523.523,0,0,1-.213-.355.862.862,0,0,1,.059-.415,1.519,1.519,0,0,1,.2-.364l-.013.08-.108-.217a1.84,1.84,0,0,0-.114-.214,4.222,4.222,0,0,0-.278-.4,5.469,5.469,0,0,0-.662-.714,4.179,4.179,0,0,0-.376-.3,1.063,1.063,0,0,0-.2-.127c-.034-.019-.023-.008-.045-.005a.306.306,0,0,0-.049.083,2.347,2.347,0,0,0-.093.472C740.139,465.276,740.129,465.441,740.12,465.607Z" transform="translate(-740.089 -464.423)" fill="#85362d"/>
                          </g>
                        </g>
                        <g id="Group_47" data-name="Group 47" transform="translate(0.747 1.631)">
                          <g id="Group_46" data-name="Group 46">
                            <path id="Path_98" data-name="Path 98" d="M743.387,473.944a.422.422,0,0,1,.089-.2.582.582,0,0,1,.183-.142.729.729,0,0,1,.256-.072.934.934,0,0,1,.258.024.623.623,0,0,1,.206.077,1.226,1.226,0,0,1,.18.112,1.541,1.541,0,0,1-.209-.011,1.057,1.057,0,0,0-.2-.017.807.807,0,0,0-.22,0,.567.567,0,0,0-.208.035.786.786,0,0,0-.176.071A1.019,1.019,0,0,0,743.387,473.944Z" transform="translate(-743.387 -473.525)" fill="#85362d"/>
                          </g>
                        </g>
                      </g>
                      <path id="Path_99" data-name="Path 99" d="M853.289,510.941s.012,1.166-.309,1.334S852.848,511.621,853.289,510.941Z" transform="translate(-840.99 -493.952)" fill="#4b0f0c"/>
                    </g>
                  </g>
                  <g id="Group_51" data-name="Group 51" transform="translate(5.311 15.272)">
                    <path id="Path_100" data-name="Path 100" d="M788.457,494.628a2.121,2.121,0,1,1,.367-.284A2.179,2.179,0,0,1,788.457,494.628Z" transform="translate(-788.457 -493.988)" fill="#762723"/>
                  </g>
                  <g id="Group_52" data-name="Group 52" transform="translate(5.46 15.406)">
                    <path id="Path_101" data-name="Path 101" d="M790.583,495.309a4.546,4.546,0,0,1-.286.613,4.431,4.431,0,0,1-.374.565,4.507,4.507,0,0,1,.661-1.178Z" transform="translate(-789.922 -495.309)" fill="#762723"/>
                  </g>
                  <g id="Group_53" data-name="Group 53" transform="translate(6.12 15.593)">
                    <path id="Path_102" data-name="Path 102" d="M796.84,497.152a1.575,1.575,0,0,1-.154.363.2.2,0,1,1,.154-.363Z" transform="translate(-796.445 -497.152)" fill="#762723"/>
                  </g>
                  <g id="Group_54" data-name="Group 54" transform="translate(15.987 15.678)">
                    <path id="Path_103" data-name="Path 103" d="M894.538,498.632a2.123,2.123,0,0,1-.663-.64,2.112,2.112,0,0,1,.367.284A2.141,2.141,0,0,1,894.538,498.632Z" transform="translate(-893.875 -497.992)" fill="#762723"/>
                  </g>
                  <g id="Group_55" data-name="Group 55" transform="translate(15.841 15.812)">
                    <path id="Path_104" data-name="Path 104" d="M892.434,499.313a4.525,4.525,0,0,1,.374.564.339.339,0,1,1-.374-.564Z" transform="translate(-892.434 -499.313)" fill="#762723"/>
                  </g>
                  <g id="Group_56" data-name="Group 56" transform="translate(15.446 15.998)">
                    <path id="Path_105" data-name="Path 105" d="M888.531,501.152a1.511,1.511,0,0,1,.241.312.2.2,0,1,1-.241-.312Z" transform="translate(-888.531 -501.152)" fill="#762723"/>
                  </g>
                  <path id="Path_106" data-name="Path 106" d="M780.456,430.537s-2.086-1.2-3.674-.788c0,0-1.143.248-1.185.619A13.257,13.257,0,0,1,780.456,430.537Z" transform="translate(-771.589 -420.905)" fill="#81230c"/>
                  <path id="Path_107" data-name="Path 107" d="M868.684,430.537s2.111-1.2,3.7-.788c0,0,1.118.248,1.158.619A13.25,13.25,0,0,0,868.684,430.537Z" transform="translate(-855.248 -420.905)" fill="#81230c"/>
                </g>
              </g>
            </g>
          </g>
        </g>
        <g id="Group_62" data-name="Group 62" transform="translate(8.525 22.267)" opacity="0.3">
          <path id="Path_108" data-name="Path 108" d="M728.659,563.114c.022.136.036.209.036.209-.016-.089-.027-.178-.04-.268C728.658,563.075,728.658,563.095,728.659,563.114Z" transform="translate(-728.656 -563.055)" fill="#942008"/>
        </g>
        <path id="Path_111" data-name="Path 111" d="M716.4,831.033c0-1.9,2.556-6.046,3.362-7.558s-3.362-6.752-3.362-6.752c1.777,0,4.975-1.511,6.688-3.023s7.76-2.426,7.76-2.426c-2.016-.813-5.442.814-10.236,1.519a7.384,7.384,0,0,1-6.829-2.62,21.523,21.523,0,0,0,.952,3.57s2.143,6.451,1.759,10.237c-.367,3.622-1.747,9.451-2.377,13.47,0,0,3.663,3.09,12.6,3.09a29.677,29.677,0,0,0,7.206-.76C719.918,839.821,716.4,833.25,716.4,831.033Z" transform="translate(-706.762 -762.879)" fill="#ee3339"/>
      </g>
      <g id="Group_64" data-name="Group 64" transform="translate(13.412 14.955)">
        <path id="Path_112" data-name="Path 112" d="M777.459,455.013a1.8,1.8,0,0,1-.553-.952,3.815,3.815,0,0,1,1.777-.862A2.439,2.439,0,0,0,777.459,455.013Z" transform="translate(-776.906 -453.199)" fill="#06070d"/>
      </g>
      <g id="Group_65" data-name="Group 65" transform="translate(25.708 14.955)">
        <path id="Path_113" data-name="Path 113" d="M899.548,455.013a1.808,1.808,0,0,0,.553-.952,3.823,3.823,0,0,0-1.776-.862A2.439,2.439,0,0,1,899.548,455.013Z" transform="translate(-898.324 -453.199)" fill="#06070d"/>
      </g>
      <g id="Group_73" data-name="Group 73" transform="translate(13.812 14.77)">
        <g id="Group_72" data-name="Group 72">
          <path id="Path_114" data-name="Path 114" d="M785.789,455.494a4.706,4.706,0,0,0-1.276-1.982c-1.257-1.02-3.538-.622-3.419,1.289a2.114,2.114,0,0,0,1.682,1.993A2.934,2.934,0,0,0,785.789,455.494Z" transform="translate(-781.065 -452.804)" fill="#fff"/>
          <path id="Path_115" data-name="Path 115" d="M790.356,453.518a2.523,2.523,0,0,0-2.111-.484,2.963,2.963,0,0,0-.654,1.952A3.214,3.214,0,0,0,788,456.6a1.874,1.874,0,0,0,.621.2,3.335,3.335,0,0,0,1.857-.259,3.259,3.259,0,0,0,.373-1.554,3.423,3.423,0,0,0-.215-1.208A3.01,3.01,0,0,0,790.356,453.518Z" transform="translate(-786.908 -452.811)" fill="#140a0c"/>
          <g id="Group_67" data-name="Group 67">
            <g id="Group_66" data-name="Group 66">
              <path id="Path_116" data-name="Path 116" d="M785.578,454.061a6.646,6.646,0,0,0-.544-.948c-.095-.131-.2-.275-.315-.413a3.268,3.268,0,0,0-.4-.4,1.22,1.22,0,0,0-.234-.18,1.651,1.651,0,0,0-.262-.152,2.319,2.319,0,0,0-.573-.2,2.621,2.621,0,0,0-.609-.064,2.45,2.45,0,0,0-.582.092,1.692,1.692,0,0,0-.493.235.91.91,0,0,0-.194.162.8.8,0,0,0-.157.18,1.948,1.948,0,0,0-.208.373c-.031.125-.072.234-.084.328-.024.191-.038.3-.038.3s-.01-.111-.028-.305a3.3,3.3,0,0,1,.029-.356,1.63,1.63,0,0,1,.165-.443,1.016,1.016,0,0,1,.153-.228,1.045,1.045,0,0,1,.209-.21,1.714,1.714,0,0,1,.553-.317,2.38,2.38,0,0,1,.665-.136,2.938,2.938,0,0,1,.694.061,2.626,2.626,0,0,1,.657.246,1.546,1.546,0,0,1,.287.182l.134.1.118.115a2.776,2.776,0,0,1,.4.47,4.024,4.024,0,0,1,.283.468,4.814,4.814,0,0,1,.3.751A2.484,2.484,0,0,1,785.578,454.061Z" transform="translate(-780.854 -451.372)" fill="#140a0c"/>
            </g>
          </g>
          <g id="Group_71" data-name="Group 71" transform="translate(8.442)">
            <g id="Group_70" data-name="Group 70">
              <path id="Path_117" data-name="Path 117" d="M864.211,455.494a4.705,4.705,0,0,1,1.276-1.982c1.258-1.02,3.539-.622,3.419,1.289a2.114,2.114,0,0,1-1.682,1.993A2.934,2.934,0,0,1,864.211,455.494Z" transform="translate(-864.211 -452.804)" fill="#fff"/>
              <path id="Path_118" data-name="Path 118" d="M869.321,453.522a3.661,3.661,0,0,0-.816.985,3.593,3.593,0,0,0-.028.438,3.36,3.36,0,0,0,.267,1.336,3.24,3.24,0,0,0,2.314.523c.044-.006.081-.018.122-.026a3.063,3.063,0,0,0,.556-1.833,2.96,2.96,0,0,0-.661-1.961A2.534,2.534,0,0,0,869.321,453.522Z" transform="translate(-868.045 -452.815)" fill="#140a0c"/>
              <g id="Group_69" data-name="Group 69">
                <g id="Group_68" data-name="Group 68">
                  <path id="Path_119" data-name="Path 119" d="M864.211,454.061a2.557,2.557,0,0,1,.076-.3,4.646,4.646,0,0,1,.3-.75,3.834,3.834,0,0,1,.282-.468,2.793,2.793,0,0,1,.4-.47l.117-.116.135-.1a1.527,1.527,0,0,1,.286-.181,2.627,2.627,0,0,1,.656-.247,2.947,2.947,0,0,1,.695-.061,2.383,2.383,0,0,1,.665.136,1.727,1.727,0,0,1,.553.317,1.082,1.082,0,0,1,.209.21,1,1,0,0,1,.153.228,1.628,1.628,0,0,1,.165.443,3.508,3.508,0,0,1,.028.356c-.018.194-.028.305-.028.305l-.037-.3c-.013-.094-.053-.2-.085-.328a1.962,1.962,0,0,0-.208-.373.818.818,0,0,0-.156-.18.959.959,0,0,0-.2-.162,1.694,1.694,0,0,0-.493-.235,2.447,2.447,0,0,0-.582-.092,2.6,2.6,0,0,0-.609.065,2.281,2.281,0,0,0-.573.2,1.555,1.555,0,0,0-.263.152,1.2,1.2,0,0,0-.234.18,3.3,3.3,0,0,0-.4.4c-.119.139-.22.282-.315.413A6.658,6.658,0,0,0,864.211,454.061Z" transform="translate(-864.211 -451.372)" fill="#140a0c"/>
                </g>
              </g>
            </g>
          </g>
          <path id="Path_120" data-name="Path 120" d="M787.167,464.577c.021.18-.282.364-.678.413s-.735-.058-.757-.237.281-.365.677-.413S787.144,464.4,787.167,464.577Z" transform="translate(-785.237 -463.016)" fill="#fff"/>
          <path id="Path_121" data-name="Path 121" d="M894.357,463.84c-.04.176-.387.249-.776.161s-.674-.3-.635-.477.388-.249.777-.162S894.4,463.664,894.357,463.84Z" transform="translate(-881.591 -462.114)" fill="#fff"/>
        </g>
      </g>
      <g id="Group_74" data-name="Group 74" transform="translate(18.267 23.477)">
        <path id="Path_122" data-name="Path 122" d="M829.521,537.352a2.963,2.963,0,0,1-2.656,1.214,2.384,2.384,0,0,1-2.021-1.214S828.824,537.441,829.521,537.352Z" transform="translate(-824.844 -537.352)" fill="#fff"/>
      </g>
      <path id="Path_123" data-name="Path 123" d="M833.959,311.672s7,.638,8.838,10.052c0,0,2.534-2.751,2.533.223,0,0,.79-7.5-1.333-12.023-1.544-3.292-9.208-6.45-10.749-2.687-.343.838.094,3.185,0,4.434Z" transform="translate(-814.01 -305.529)" fill="#631406"/>
      <path id="Path_124" data-name="Path 124" d="M838.632,309.677c3.2,1.664,7.25,6.182,6.756,11.827.129-1.668.444-7.708-1.371-11.579-1.544-3.292-9.208-6.45-10.749-2.687a1.3,1.3,0,0,0-.049.154c-.019.106-.039.216-.055.327-.116,1.048.184,2.894.1,3.954C833.267,311.672,835.365,307.976,838.632,309.677Z" transform="translate(-814.03 -305.529)" fill="#81230c"/>
      <path id="Path_125" data-name="Path 125" d="M731.6,311.785s.147-1.5-1.1-.891c-2.363,1.159-7.058,18.754-3.406,25.783,0,0-5.319-1.117-6.427-4.821s-1.092-18.694,2.3-22.254c0,0,4.31-5.274,7.663-3.629,2.56,1.256,3.3,1.58,1.576,5.813Z" transform="translate(-712.358 -305.642)" fill="#81230c"/>
      <g id="Group_75" data-name="Group 75" transform="translate(31.332 15.993)">
        <path id="Path_126" data-name="Path 126" d="M953.859,463.74c.007-.072.016-.17.025-.3C953.875,463.552,953.866,463.649,953.859,463.74Z" transform="translate(-953.859 -463.445)" fill="#81230c"/>
      </g>
      <path id="Path_127" data-name="Path 127" d="M729.894,360.016a16.561,16.561,0,0,0-1.062,3.416,41.441,41.441,0,0,0,6.784,2.179,30.98,30.98,0,0,1,1.142-3.277A16.1,16.1,0,0,1,729.894,360.016Z" transform="translate(-720.289 -354.498)" fill="#963620"/>
      <path id="Path_128" data-name="Path 128" d="M913.84,354.29a13.665,13.665,0,0,1,3.311,4.813q.395-.115.789-.246A19.3,19.3,0,0,0,916.729,353C915.846,353.445,914.877,353.885,913.84,354.29Z" transform="translate(-886.561 -348.196)" fill="#963620"/>
    </g>
  </g>
</svg>
