<svg xmlns="http://www.w3.org/2000/svg" width="45.532" height="23.122" viewBox="0 0 45.532 23.122">
  <g id="Rate" transform="translate(0)">
    <g id="XMLID_2445_" transform="translate(0 0)">
      <g id="XMLID_3103_" transform="translate(32.297 10.38)">
        <g id="XMLID_3104_">
          <path id="XMLID_1253_" d="M372.865,327.485a1.681,1.681,0,0,1-.993-.325l-2.05-1.5-2.05,1.5a1.684,1.684,0,0,1-2.593-1.884l.789-2.412-2.064-1.492a1.684,1.684,0,0,1,.987-3.049h2.549l.779-2.411a1.684,1.684,0,0,1,3.2,0l.779,2.411h2.548a1.684,1.684,0,0,1,.987,3.048l-2.064,1.492.789,2.411a1.686,1.686,0,0,1-1.6,2.209Zm-3.042-3.811a.888.888,0,0,1,.524.171l2.337,1.706-.9-2.75a.889.889,0,0,1,.324-1l2.353-1.7h-2.9a.889.889,0,0,1-.846-.616l-.888-2.748-.888,2.748a.889.889,0,0,1-.846.616h-2.9l2.353,1.7a.89.89,0,0,1,.324,1l-.9,2.75,2.337-1.706A.888.888,0,0,1,369.823,323.674Z" transform="translate(-363.206 -314.747)" fill="#565656"/>
        </g>
      </g>
      <g id="XMLID_2446_" transform="translate(0 10.38)">
        <g id="XMLID_2447_">
          <path id="XMLID_1250_" d="M9.66,327.485a1.681,1.681,0,0,1-.993-.325l-2.049-1.5-2.05,1.5a1.684,1.684,0,0,1-2.593-1.884l.789-2.412L.7,321.372a1.684,1.684,0,0,1,.987-3.049H4.236l.779-2.41a1.659,1.659,0,0,1,1.6-1.166h0a1.659,1.659,0,0,1,1.6,1.166L9,318.323h2.549a1.684,1.684,0,0,1,.987,3.048l-2.064,1.492.789,2.411a1.686,1.686,0,0,1-1.6,2.209Zm-3.042-3.811a.888.888,0,0,1,.524.171l2.337,1.706-.9-2.75a.889.889,0,0,1,.324-1l2.353-1.7h-2.9a.889.889,0,0,1-.846-.616l-.888-2.748-.888,2.748a.889.889,0,0,1-.846.616H1.98l2.353,1.7a.89.89,0,0,1,.324,1l-.9,2.75,2.337-1.706a.888.888,0,0,1,.524-.171Z" transform="translate(0 -314.747)" fill="#565656"/>
        </g>
      </g>
      <g id="XMLID_3100_" transform="translate(10.726 0)">
        <g id="XMLID_3098_">
          <path id="XMLID_1234_" d="M138.59,221.143a2.429,2.429,0,0,1-1.436-.477l-4.487-3.275-4.487,3.275a2.437,2.437,0,0,1-3.752-2.726l1.728-5.279-4.515-3.266a2.437,2.437,0,0,1,1.428-4.411h5.574l1.705-5.276a2.436,2.436,0,0,1,4.637,0l1.705,5.276h5.574a2.437,2.437,0,0,1,1.428,4.411l-4.515,3.266,1.728,5.279a2.4,2.4,0,0,1-.884,2.729,2.43,2.43,0,0,1-1.432.474Zm-5.923-5.742a.888.888,0,0,1,.524.171l5.011,3.657a.658.658,0,0,0,1.013-.736l-1.93-5.9a.889.889,0,0,1,.324-1l5.041-3.646a.658.658,0,0,0-.386-1.191h-6.221a.889.889,0,0,1-.846-.616l-1.9-5.892a.658.658,0,0,0-1.252,0l-1.9,5.892a.889.889,0,0,1-.846.616h-6.221a.658.658,0,0,0-.386,1.191l5.041,3.646a.889.889,0,0,1,.324,1l-1.93,5.9a.658.658,0,0,0,1.013.736l5.011-3.657a.887.887,0,0,1,.524-.171Z" transform="translate(-120.627 -198.021)" fill="#565656"/>
        </g>
      </g>
    </g>
  </g>
</svg>
