<svg xmlns="http://www.w3.org/2000/svg" xmlns:xlink="http://www.w3.org/1999/xlink" width="90.468" height="166.296" viewBox="0 0 90.468 166.296">
  <defs>
    <clipPath id="clip-path">
      <path id="Path_394" data-name="Path 394" d="M18.2,0c9.89-.16,17.779,6.941,17.619,15.859S27.512,32.14,17.622,32.3-.157,25.358,0,16.44,8.309.162,18.2,0Z" transform="translate(0 35.371) rotate(-80.913)" fill="none"/>
    </clipPath>
    <clipPath id="clip-path-2">
      <path id="Path_399" data-name="Path 399" d="M37.449,0C58.03-.1,74.632,16.206,74.531,36.422S57.664,73.108,37.083,73.209-.1,57,0,36.788,16.868.1,37.449,0Z" transform="translate(0 72.165) rotate(-75.522)" fill="none"/>
    </clipPath>
  </defs>
  <g id="Group_381" data-name="Group 381" transform="translate(39.458 106.202)">
    <g id="Group_11" data-name="Group 11" transform="translate(19.877 -106.202) rotate(90)" opacity="0.76">
      <g id="Group_10" data-name="Group 10" transform="translate(0 0)" clip-path="url(#clip-path)">
        <g id="Group_9" data-name="Group 9" transform="translate(0.473 -1.079)">
          <rect id="Rectangle_2" data-name="Rectangle 2" width="36.607" height="1.439" transform="translate(0 6.603)" fill="#e7b518"/>
          <g id="Group_8" data-name="Group 8" transform="translate(0)">
            <rect id="Rectangle_3" data-name="Rectangle 3" width="36.607" height="1.439" transform="translate(0)" fill="#e7b518"/>
            <rect id="Rectangle_4" data-name="Rectangle 4" width="36.607" height="1.439" transform="translate(0 3.301)" fill="#e7b518"/>
            <rect id="Rectangle_5" data-name="Rectangle 5" width="36.607" height="1.439" transform="translate(0 9.904)" fill="#e7b518"/>
            <rect id="Rectangle_6" data-name="Rectangle 6" width="36.607" height="1.439" transform="translate(0 13.206)" fill="#e7b518"/>
            <rect id="Rectangle_7" data-name="Rectangle 7" width="36.607" height="1.439" transform="translate(0 16.507)" fill="#e7b518"/>
            <rect id="Rectangle_8" data-name="Rectangle 8" width="36.607" height="1.439" transform="translate(0 19.809)" fill="#e7b518"/>
            <rect id="Rectangle_9" data-name="Rectangle 9" width="36.607" height="1.439" transform="translate(0 23.11)" fill="#e7b518"/>
            <rect id="Rectangle_10" data-name="Rectangle 10" width="36.607" height="1.439" transform="translate(0 26.412)" fill="#e7b518"/>
            <rect id="Rectangle_11" data-name="Rectangle 11" width="36.607" height="1.439" transform="translate(0 29.713)" fill="#e7b518"/>
            <rect id="Rectangle_12" data-name="Rectangle 12" width="36.607" height="1.439" transform="translate(0 33.015)" fill="#e7b518"/>
            <rect id="Rectangle_13" data-name="Rectangle 13" width="36.607" height="1.439" transform="translate(0 36.316)" fill="#e7b518"/>
            <rect id="Rectangle_14" data-name="Rectangle 14" width="36.607" height="1.439" transform="translate(0 39.618)" fill="#e7b518"/>
          </g>
        </g>
      </g>
    </g>
    <g id="Group_45" data-name="Group 45" transform="translate(51.886 -28.74) rotate(90)" opacity="0.76">
      <g id="Group_44" data-name="Group 44" transform="translate(-0.684 0.875)" clip-path="url(#clip-path-2)">
        <g id="Group_43" data-name="Group 43" transform="translate(3.204 0.937)">
          <rect id="Rectangle_29" data-name="Rectangle 29" width="83.112" height="2.991" transform="translate(0 13.722)" fill="#0db7c5"/>
          <g id="Group_42" data-name="Group 42" transform="translate(0)">
            <rect id="Rectangle_30" data-name="Rectangle 30" width="83.112" height="2.991" transform="translate(0)" fill="#0db7c5"/>
            <rect id="Rectangle_31" data-name="Rectangle 31" width="83.112" height="2.991" transform="translate(0 6.861)" fill="#0db7c5"/>
            <rect id="Rectangle_32" data-name="Rectangle 32" width="83.112" height="2.991" transform="translate(0 20.583)" fill="#0db7c5"/>
            <rect id="Rectangle_33" data-name="Rectangle 33" width="83.112" height="2.991" transform="translate(0 27.445)" fill="#0db7c5"/>
            <rect id="Rectangle_34" data-name="Rectangle 34" width="83.112" height="2.991" transform="translate(0 34.306)" fill="#0db7c5"/>
            <rect id="Rectangle_35" data-name="Rectangle 35" width="83.112" height="2.991" transform="translate(0 41.167)" fill="#0db7c5"/>
            <rect id="Rectangle_36" data-name="Rectangle 36" width="83.112" height="2.991" transform="translate(0 48.028)" fill="#0db7c5"/>
            <rect id="Rectangle_37" data-name="Rectangle 37" width="83.112" height="2.991" transform="translate(0 54.889)" fill="#0db7c5"/>
            <rect id="Rectangle_38" data-name="Rectangle 38" width="83.112" height="2.991" transform="translate(0 61.75)" fill="#0db7c5"/>
            <rect id="Rectangle_39" data-name="Rectangle 39" width="83.112" height="2.991" transform="translate(0 68.612)" fill="#0db7c5"/>
            <rect id="Rectangle_40" data-name="Rectangle 40" width="83.112" height="2.991" transform="translate(0 75.473)" fill="#0db7c5"/>
            <rect id="Rectangle_41" data-name="Rectangle 41" width="83.112" height="2.991" transform="translate(0 82.334)" fill="#0db7c5"/>
          </g>
        </g>
      </g>
    </g>
  </g>
</svg>
