<svg xmlns="http://www.w3.org/2000/svg" xmlns:xlink="http://www.w3.org/1999/xlink" width="455" height="287" viewBox="0 0 455 287">
  <defs>
    <clipPath id="clip-path">
      <rect id="Rectangle_42" data-name="Rectangle 42" width="455" height="287" fill="#fff"/>
    </clipPath>
    <clipPath id="clip-path-2">
      <path id="Path_323" data-name="Path 323" d="M16.687.264C25.7.19,32.95,7.072,32.875,15.635S25.433,31.2,16.418,31.274.155,24.467.23,15.9,7.672.338,16.687.264Z" transform="translate(0 32.175) rotate(-80.913)" fill="none"/>
    </clipPath>
    <clipPath id="clip-path-3">
      <path id="Path_316" data-name="Path 316" d="M16.828.384c9-.106,16.213,6.76,16.106,15.337s-7.49,15.615-16.491,15.722S.23,24.682.337,16.105,7.826.49,16.828.384Z" transform="matrix(0.23, -0.973, 0.973, 0.23, 0, 31.597)" fill="none"/>
    </clipPath>
  </defs>
  <g id="Group_59" data-name="Group 59" transform="translate(-1.49 -0.822)">
    <g id="BACKGROUND" transform="translate(1.49 0.822)">
      <g id="Group_52" data-name="Group 52" transform="translate(0 0)">
        <g id="Group_51" data-name="Group 51" transform="translate(0 0)" clip-path="url(#clip-path)">
          <g id="Group_50" data-name="Group 50" transform="translate(-149.535 -72.591)">
            <g id="Group_47" data-name="Group 47" transform="translate(112.829 59.971)">
              <g id="Group_7" data-name="Group 7" transform="translate(324.179 189.042)">
                <path id="Path_9" data-name="Path 9" d="M762.761,540.615c-2.9-15.811,6.587-31.719,19.02-41.051s27.489-13.683,41.857-19.093c28.238-10.633,55.63-26.6,74.106-51.527,8.73-11.777,15.244-25.238,23.926-37.054s20.317-22.3,34.319-24.576c19.237-3.123,38.594,11,46.286,29.868s5.242,41.035-2.565,59.854-20.5,34.864-33.53,50.122q-24.627,28.828-51.662,55.223c-3.747,3.658-7.693,7.382-12.564,8.992-5.964,1.971-12.4.493-18.49-.994l-120.675-29.47" transform="translate(-762.237 -366.88)" fill="#fc4c86"/>
                <path id="Path_10" data-name="Path 10" d="M920.8,572.479c7.409-7.129,14.743-14.833,18.643-24.582,4.91-12.275,3.778-26.146,4.55-39.445s4.5-27.953,15.327-34.807c11.624-7.361,26.474-2.9,39.934-4.586,20.914-2.619,37.172-19.84,51.144-36.474,8.6-10.234,19.589-21.658,32.324-19.134,10.419,2.066,17.335,13.475,18.186,24.63s-3.016,22.061-7.152,32.366a494.421,494.421,0,0,1-47.842,90.738c-3.9,5.826-8.15,11.772-14.2,14.948-8.377,4.4-18.329,2.613-27.563,1.03a428.541,428.541,0,0,0-81.008-6.085" transform="translate(-867.073 -396.565)" fill="#0db7c5"/>
                <path id="Path_11" data-name="Path 11" d="M1033,758.908c13.279-4.692,19.165-20.816,22.2-35.245s5.723-30.549,16.822-39.561c8.442-6.856,19.886-7.837,30.515-7.1s21.308,2.917,31.853,1.329c14.244-2.144,27.783-11.08,42.017-8.855,9.5,1.486,18.5,8.987,20.059,18.994,1.588,10.174-4.57,20.142-12.354,26.373s-17.155,9.772-25.713,14.742c-16.824,9.77-30.245,24.888-45.984,36.5s-35.944,19.767-54.033,12.967c-9.464-3.558-17.244-10.824-24.151-18.525" transform="translate(-941.256 -561.016)" fill="#fad141"/>
              </g>
              <path id="Path_12" data-name="Path 12" d="M928.426,627.613c14.549-8.055,22.183-25.23,27.339-41.7s9.176-34.061,19.961-47.143c10.872-13.187,27.122-19.877,43.083-24.539,28.411-8.3,57.909-11.688,86.543-19.083s57.24-19.421,77.817-41.7" transform="translate(-577.63 -278.932)" fill="none" stroke="#fad141" stroke-miterlimit="10" stroke-width="0.12"/>
              <path id="Path_13" data-name="Path 13" d="M1030.9,628.6a60.247,60.247,0,0,0,38.112-26.464c7.8-12.128,11.334-26.666,16.968-40.065,8.019-19.074,20.266-35.765,32.393-52.246l20.543-27.919c6.621-9,13.384-18.141,22.241-24.652,13.771-10.122,31.079-12.844,47.7-15.291" transform="translate(-645.38 -271.556)" fill="none" stroke="#fc4c86" stroke-miterlimit="10" stroke-width="0.12"/>
              <g id="Group_46" data-name="Group 46" transform="translate(0 0)">
                <g id="Group_11" data-name="Group 11" transform="translate(432.996 135.72)" opacity="0.76">
                  <g id="Group_10" data-name="Group 10" transform="translate(0 0)" clip-path="url(#clip-path-2)">
                    <g id="Group_9" data-name="Group 9" transform="translate(0.585 -1.084)">
                      <rect id="Rectangle_2" data-name="Rectangle 2" width="35.202" height="1.31" transform="translate(0 6.011)" fill="#fc4c86"/>
                      <g id="Group_8" data-name="Group 8">
                        <rect id="Rectangle_3" data-name="Rectangle 3" width="35.202" height="1.31" fill="#fc4c86"/>
                        <rect id="Rectangle_4" data-name="Rectangle 4" width="35.202" height="1.31" transform="translate(0 3.005)" fill="#fc4c86"/>
                        <rect id="Rectangle_5" data-name="Rectangle 5" width="35.202" height="1.31" transform="translate(0 9.016)" fill="#fc4c86"/>
                        <rect id="Rectangle_6" data-name="Rectangle 6" width="35.202" height="1.31" transform="translate(0 12.022)" fill="#fc4c86"/>
                        <rect id="Rectangle_7" data-name="Rectangle 7" width="35.202" height="1.31" transform="translate(0 15.027)" fill="#fc4c86"/>
                        <rect id="Rectangle_8" data-name="Rectangle 8" width="35.202" height="1.31" transform="translate(0 18.033)" fill="#fc4c86"/>
                        <rect id="Rectangle_9" data-name="Rectangle 9" width="35.202" height="1.31" transform="translate(0 21.038)" fill="#fc4c86"/>
                        <rect id="Rectangle_10" data-name="Rectangle 10" width="35.202" height="1.31" transform="translate(0 24.044)" fill="#fc4c86"/>
                        <rect id="Rectangle_11" data-name="Rectangle 11" width="35.202" height="1.31" transform="translate(0 27.049)" fill="#fc4c86"/>
                        <rect id="Rectangle_12" data-name="Rectangle 12" width="35.202" height="1.31" transform="translate(0 30.055)" fill="#fc4c86"/>
                        <rect id="Rectangle_13" data-name="Rectangle 13" width="35.202" height="1.31" transform="translate(0 33.06)" fill="#fc4c86"/>
                        <rect id="Rectangle_14" data-name="Rectangle 14" width="35.202" height="1.31" transform="translate(0 36.065)" fill="#fc4c86"/>
                      </g>
                    </g>
                  </g>
                </g>
                <g id="Group_15" data-name="Group 15" transform="translate(36.447 162.364)" opacity="0.76">
                  <g id="Group_14" data-name="Group 14" transform="translate(0 0)" clip-path="url(#clip-path-3)">
                    <g id="Group_13" data-name="Group 13" transform="translate(1.708 -0.341)">
                      <rect id="Rectangle_15" data-name="Rectangle 15" width="35.202" height="1.31" transform="translate(0 6.011)" fill="#fad141"/>
                      <g id="Group_12" data-name="Group 12">
                        <rect id="Rectangle_16" data-name="Rectangle 16" width="35.202" height="1.31" fill="#fad141"/>
                        <rect id="Rectangle_17" data-name="Rectangle 17" width="35.202" height="1.31" transform="translate(0 3.005)" fill="#fad141"/>
                        <rect id="Rectangle_18" data-name="Rectangle 18" width="35.202" height="1.31" transform="translate(0 9.016)" fill="#fad141"/>
                        <rect id="Rectangle_19" data-name="Rectangle 19" width="35.202" height="1.31" transform="translate(0 12.022)" fill="#fad141"/>
                        <rect id="Rectangle_20" data-name="Rectangle 20" width="35.202" height="1.31" transform="translate(0 15.027)" fill="#fad141"/>
                        <rect id="Rectangle_21" data-name="Rectangle 21" width="35.202" height="1.31" transform="translate(0 18.033)" fill="#fad141"/>
                        <rect id="Rectangle_22" data-name="Rectangle 22" width="35.202" height="1.31" transform="translate(0 21.038)" fill="#fad141"/>
                        <rect id="Rectangle_23" data-name="Rectangle 23" width="35.202" height="1.31" transform="translate(0 24.044)" fill="#fad141"/>
                        <rect id="Rectangle_24" data-name="Rectangle 24" width="35.202" height="1.31" transform="translate(0 27.049)" fill="#fad141"/>
                        <rect id="Rectangle_25" data-name="Rectangle 25" width="35.202" height="1.31" transform="translate(0 30.055)" fill="#fad141"/>
                        <rect id="Rectangle_26" data-name="Rectangle 26" width="35.202" height="1.31" transform="translate(0 33.06)" fill="#fad141"/>
                        <rect id="Rectangle_27" data-name="Rectangle 27" width="35.202" height="1.31" transform="translate(0 36.065)" fill="#fad141"/>
                      </g>
                    </g>
                  </g>
                </g>
                <g id="Group_41" data-name="Group 41">
                  <g id="Group_26" data-name="Group 26" transform="translate(414.077 12.62)">
                    <g id="Group_20" data-name="Group 20">
                      <path id="Path_16" data-name="Path 16" d="M1220.253-32.051a2.349,2.349,0,0,1-2.284,2.41,2.349,2.349,0,0,1-2.283-2.41,2.349,2.349,0,0,1,2.283-2.41A2.349,2.349,0,0,1,1220.253-32.051Z" transform="translate(-1215.687 34.461)" fill="#ccc"/>
                      <path id="Path_17" data-name="Path 17" d="M1254.9-32.051a2.349,2.349,0,0,1-2.283,2.41,2.349,2.349,0,0,1-2.283-2.41,2.349,2.349,0,0,1,2.283-2.41A2.349,2.349,0,0,1,1254.9-32.051Z" transform="translate(-1238.591 34.461)" fill="#ccc"/>
                      <path id="Path_18" data-name="Path 18" d="M1289.539-32.051a2.349,2.349,0,0,1-2.282,2.41,2.349,2.349,0,0,1-2.283-2.41,2.349,2.349,0,0,1,2.283-2.41A2.349,2.349,0,0,1,1289.539-32.051Z" transform="translate(-1261.496 34.461)" fill="#ccc"/>
                      <path id="Path_19" data-name="Path 19" d="M1324.182-32.051a2.349,2.349,0,0,1-2.284,2.41,2.348,2.348,0,0,1-2.282-2.41,2.348,2.348,0,0,1,2.282-2.41A2.349,2.349,0,0,1,1324.182-32.051Z" transform="translate(-1284.401 34.461)" fill="#ccc"/>
                      <path id="Path_20" data-name="Path 20" d="M1358.823-32.051a2.349,2.349,0,0,1-2.283,2.41,2.349,2.349,0,0,1-2.283-2.41,2.349,2.349,0,0,1,2.283-2.41A2.349,2.349,0,0,1,1358.823-32.051Z" transform="translate(-1307.303 34.461)" fill="#ccc"/>
                      <path id="Path_21" data-name="Path 21" d="M1393.465-32.051a2.349,2.349,0,0,1-2.283,2.41,2.349,2.349,0,0,1-2.283-2.41,2.349,2.349,0,0,1,2.283-2.41A2.349,2.349,0,0,1,1393.465-32.051Z" transform="translate(-1330.207 34.461)" fill="#ccc"/>
                    </g>
                    <g id="Group_21" data-name="Group 21" transform="translate(0 12.391)">
                      <path id="Path_22" data-name="Path 22" d="M1220.253,2.591a2.287,2.287,0,1,1-4.566,0,2.287,2.287,0,1,1,4.566,0Z" transform="translate(-1215.687 -0.181)" fill="#ccc"/>
                      <path id="Path_23" data-name="Path 23" d="M1254.9,2.591a2.287,2.287,0,1,1-4.566,0,2.287,2.287,0,1,1,4.566,0Z" transform="translate(-1238.591 -0.181)" fill="#ccc"/>
                      <path id="Path_24" data-name="Path 24" d="M1289.539,2.591a2.286,2.286,0,1,1-4.565,0,2.286,2.286,0,1,1,4.565,0Z" transform="translate(-1261.496 -0.181)" fill="#ccc"/>
                      <path id="Path_25" data-name="Path 25" d="M1324.182,2.591a2.286,2.286,0,1,1-4.565,0,2.286,2.286,0,1,1,4.565,0Z" transform="translate(-1284.401 -0.181)" fill="#ccc"/>
                      <path id="Path_26" data-name="Path 26" d="M1358.823,2.591a2.286,2.286,0,1,1-4.566,0,2.286,2.286,0,1,1,4.566,0Z" transform="translate(-1307.303 -0.181)" fill="#ccc"/>
                      <path id="Path_27" data-name="Path 27" d="M1393.465,2.591a2.287,2.287,0,1,1-4.566,0,2.287,2.287,0,1,1,4.566,0Z" transform="translate(-1330.207 -0.181)" fill="#ccc"/>
                    </g>
                    <g id="Group_22" data-name="Group 22" transform="translate(0 24.781)">
                      <path id="Path_28" data-name="Path 28" d="M1220.253,37.233a2.287,2.287,0,1,1-2.284-2.411A2.349,2.349,0,0,1,1220.253,37.233Z" transform="translate(-1215.687 -34.822)" fill="#ccc"/>
                      <path id="Path_29" data-name="Path 29" d="M1254.9,37.233a2.287,2.287,0,1,1-2.283-2.411A2.349,2.349,0,0,1,1254.9,37.233Z" transform="translate(-1238.591 -34.822)" fill="#ccc"/>
                      <path id="Path_30" data-name="Path 30" d="M1289.539,37.233a2.286,2.286,0,1,1-2.282-2.411A2.349,2.349,0,0,1,1289.539,37.233Z" transform="translate(-1261.496 -34.822)" fill="#ccc"/>
                      <path id="Path_31" data-name="Path 31" d="M1324.182,37.233a2.286,2.286,0,1,1-2.284-2.411A2.349,2.349,0,0,1,1324.182,37.233Z" transform="translate(-1284.401 -34.822)" fill="#ccc"/>
                      <path id="Path_32" data-name="Path 32" d="M1358.823,37.233a2.286,2.286,0,1,1-2.283-2.411A2.349,2.349,0,0,1,1358.823,37.233Z" transform="translate(-1307.303 -34.822)" fill="#ccc"/>
                      <path id="Path_33" data-name="Path 33" d="M1393.465,37.233a2.287,2.287,0,1,1-2.283-2.411A2.349,2.349,0,0,1,1393.465,37.233Z" transform="translate(-1330.207 -34.822)" fill="#ccc"/>
                    </g>
                    <g id="Group_23" data-name="Group 23" transform="translate(0 37.172)">
                      <path id="Path_34" data-name="Path 34" d="M1220.253,71.875a2.287,2.287,0,1,1-2.284-2.41A2.35,2.35,0,0,1,1220.253,71.875Z" transform="translate(-1215.687 -69.465)" fill="#ccc"/>
                      <path id="Path_35" data-name="Path 35" d="M1254.9,71.875a2.287,2.287,0,1,1-2.283-2.41A2.349,2.349,0,0,1,1254.9,71.875Z" transform="translate(-1238.591 -69.465)" fill="#ccc"/>
                      <path id="Path_36" data-name="Path 36" d="M1289.539,71.875a2.286,2.286,0,1,1-2.282-2.41A2.349,2.349,0,0,1,1289.539,71.875Z" transform="translate(-1261.496 -69.465)" fill="#ccc"/>
                      <path id="Path_37" data-name="Path 37" d="M1324.182,71.875a2.286,2.286,0,1,1-2.284-2.41A2.35,2.35,0,0,1,1324.182,71.875Z" transform="translate(-1284.401 -69.465)" fill="#ccc"/>
                      <path id="Path_38" data-name="Path 38" d="M1358.823,71.875a2.286,2.286,0,1,1-2.283-2.41A2.349,2.349,0,0,1,1358.823,71.875Z" transform="translate(-1307.303 -69.465)" fill="#ccc"/>
                      <path id="Path_39" data-name="Path 39" d="M1393.465,71.875a2.287,2.287,0,1,1-2.283-2.41A2.35,2.35,0,0,1,1393.465,71.875Z" transform="translate(-1330.207 -69.465)" fill="#ccc"/>
                    </g>
                    <g id="Group_24" data-name="Group 24" transform="translate(0 49.563)">
                      <path id="Path_40" data-name="Path 40" d="M1220.253,106.517a2.287,2.287,0,1,1-2.284-2.41A2.349,2.349,0,0,1,1220.253,106.517Z" transform="translate(-1215.687 -104.107)" fill="#ccc"/>
                      <path id="Path_41" data-name="Path 41" d="M1254.9,106.517a2.287,2.287,0,1,1-2.283-2.41A2.349,2.349,0,0,1,1254.9,106.517Z" transform="translate(-1238.591 -104.107)" fill="#ccc"/>
                      <path id="Path_42" data-name="Path 42" d="M1289.539,106.517a2.286,2.286,0,1,1-2.282-2.41A2.349,2.349,0,0,1,1289.539,106.517Z" transform="translate(-1261.496 -104.107)" fill="#ccc"/>
                      <path id="Path_43" data-name="Path 43" d="M1324.182,106.517a2.286,2.286,0,1,1-2.284-2.41A2.349,2.349,0,0,1,1324.182,106.517Z" transform="translate(-1284.401 -104.107)" fill="#ccc"/>
                      <path id="Path_44" data-name="Path 44" d="M1358.823,106.517a2.286,2.286,0,1,1-2.283-2.41A2.349,2.349,0,0,1,1358.823,106.517Z" transform="translate(-1307.303 -104.107)" fill="#ccc"/>
                      <path id="Path_45" data-name="Path 45" d="M1393.465,106.517a2.287,2.287,0,1,1-2.283-2.41A2.349,2.349,0,0,1,1393.465,106.517Z" transform="translate(-1330.207 -104.107)" fill="#ccc"/>
                    </g>
                    <g id="Group_25" data-name="Group 25" transform="translate(0 61.954)">
                      <path id="Path_46" data-name="Path 46" d="M1220.253,141.16a2.287,2.287,0,1,1-2.284-2.41A2.349,2.349,0,0,1,1220.253,141.16Z" transform="translate(-1215.687 -138.75)" fill="#ccc"/>
                      <path id="Path_47" data-name="Path 47" d="M1254.9,141.16a2.287,2.287,0,1,1-2.283-2.41A2.349,2.349,0,0,1,1254.9,141.16Z" transform="translate(-1238.591 -138.75)" fill="#ccc"/>
                      <path id="Path_48" data-name="Path 48" d="M1289.539,141.16a2.286,2.286,0,1,1-2.282-2.41A2.349,2.349,0,0,1,1289.539,141.16Z" transform="translate(-1261.496 -138.75)" fill="#ccc"/>
                      <path id="Path_49" data-name="Path 49" d="M1324.182,141.16a2.286,2.286,0,1,1-2.284-2.41A2.349,2.349,0,0,1,1324.182,141.16Z" transform="translate(-1284.401 -138.75)" fill="#ccc"/>
                      <path id="Path_50" data-name="Path 50" d="M1358.823,141.16a2.286,2.286,0,1,1-2.283-2.41A2.349,2.349,0,0,1,1358.823,141.16Z" transform="translate(-1307.303 -138.75)" fill="#ccc"/>
                      <path id="Path_51" data-name="Path 51" d="M1393.465,141.16a2.287,2.287,0,1,1-2.283-2.41A2.349,2.349,0,0,1,1393.465,141.16Z" transform="translate(-1330.207 -138.75)" fill="#ccc"/>
                    </g>
                  </g>
                  <g id="Group_33" data-name="Group 33" transform="translate(0 215.363)">
                    <g id="Group_27" data-name="Group 27">
                      <path id="Path_52" data-name="Path 52" d="M-102.27,570.057a2.349,2.349,0,0,1-2.284,2.41,2.349,2.349,0,0,1-2.282-2.41,2.349,2.349,0,0,1,2.282-2.41A2.35,2.35,0,0,1-102.27,570.057Z" transform="translate(106.837 -567.647)" fill="#ccc"/>
                      <path id="Path_53" data-name="Path 53" d="M-67.627,570.057a2.349,2.349,0,0,1-2.284,2.41,2.349,2.349,0,0,1-2.283-2.41,2.349,2.349,0,0,1,2.283-2.41A2.349,2.349,0,0,1-67.627,570.057Z" transform="translate(83.933 -567.647)" fill="#ccc"/>
                      <path id="Path_54" data-name="Path 54" d="M-32.984,570.057a2.349,2.349,0,0,1-2.282,2.41,2.349,2.349,0,0,1-2.283-2.41,2.349,2.349,0,0,1,2.283-2.41A2.349,2.349,0,0,1-32.984,570.057Z" transform="translate(61.028 -567.647)" fill="#ccc"/>
                      <path id="Path_55" data-name="Path 55" d="M1.659,570.057a2.349,2.349,0,0,1-2.283,2.41,2.348,2.348,0,0,1-2.282-2.41,2.349,2.349,0,0,1,2.282-2.41A2.349,2.349,0,0,1,1.659,570.057Z" transform="translate(38.123 -567.647)" fill="#ccc"/>
                      <path id="Path_56" data-name="Path 56" d="M36.3,570.057a2.286,2.286,0,1,1-2.283-2.41A2.349,2.349,0,0,1,36.3,570.057Z" transform="translate(15.221 -567.647)" fill="#ccc"/>
                      <path id="Path_57" data-name="Path 57" d="M70.942,570.057a2.286,2.286,0,1,1-2.283-2.41A2.349,2.349,0,0,1,70.942,570.057Z" transform="translate(-7.683 -567.647)" fill="#ccc"/>
                    </g>
                    <g id="Group_28" data-name="Group 28" transform="translate(0 12.391)">
                      <path id="Path_58" data-name="Path 58" d="M-102.27,604.7a2.349,2.349,0,0,1-2.284,2.41,2.349,2.349,0,0,1-2.282-2.41,2.349,2.349,0,0,1,2.282-2.41A2.349,2.349,0,0,1-102.27,604.7Z" transform="translate(106.837 -602.29)" fill="#ccc"/>
                      <path id="Path_59" data-name="Path 59" d="M-67.627,604.7a2.349,2.349,0,0,1-2.284,2.41,2.349,2.349,0,0,1-2.283-2.41,2.349,2.349,0,0,1,2.283-2.41A2.349,2.349,0,0,1-67.627,604.7Z" transform="translate(83.933 -602.29)" fill="#ccc"/>
                      <path id="Path_60" data-name="Path 60" d="M-32.984,604.7a2.349,2.349,0,0,1-2.282,2.41,2.349,2.349,0,0,1-2.283-2.41,2.349,2.349,0,0,1,2.283-2.41A2.349,2.349,0,0,1-32.984,604.7Z" transform="translate(61.028 -602.29)" fill="#ccc"/>
                      <path id="Path_61" data-name="Path 61" d="M1.659,604.7a2.349,2.349,0,0,1-2.283,2.41,2.348,2.348,0,0,1-2.282-2.41,2.348,2.348,0,0,1,2.282-2.41A2.349,2.349,0,0,1,1.659,604.7Z" transform="translate(38.123 -602.29)" fill="#ccc"/>
                      <path id="Path_62" data-name="Path 62" d="M36.3,604.7a2.286,2.286,0,1,1-2.283-2.41A2.349,2.349,0,0,1,36.3,604.7Z" transform="translate(15.221 -602.29)" fill="#ccc"/>
                      <path id="Path_63" data-name="Path 63" d="M70.942,604.7a2.286,2.286,0,1,1-2.283-2.41A2.349,2.349,0,0,1,70.942,604.7Z" transform="translate(-7.683 -602.29)" fill="#ccc"/>
                    </g>
                    <g id="Group_29" data-name="Group 29" transform="translate(0 24.782)">
                      <path id="Path_64" data-name="Path 64" d="M-102.27,639.341a2.349,2.349,0,0,1-2.284,2.41,2.349,2.349,0,0,1-2.282-2.41,2.349,2.349,0,0,1,2.282-2.41A2.35,2.35,0,0,1-102.27,639.341Z" transform="translate(106.837 -636.931)" fill="#ccc"/>
                      <path id="Path_65" data-name="Path 65" d="M-67.627,639.341a2.349,2.349,0,0,1-2.284,2.41,2.349,2.349,0,0,1-2.283-2.41,2.35,2.35,0,0,1,2.283-2.41A2.35,2.35,0,0,1-67.627,639.341Z" transform="translate(83.933 -636.931)" fill="#ccc"/>
                      <path id="Path_66" data-name="Path 66" d="M-32.984,639.341a2.349,2.349,0,0,1-2.282,2.41,2.349,2.349,0,0,1-2.283-2.41,2.349,2.349,0,0,1,2.283-2.41A2.349,2.349,0,0,1-32.984,639.341Z" transform="translate(61.028 -636.931)" fill="#ccc"/>
                      <path id="Path_67" data-name="Path 67" d="M1.659,639.341a2.349,2.349,0,0,1-2.283,2.41,2.348,2.348,0,0,1-2.282-2.41,2.349,2.349,0,0,1,2.282-2.41A2.35,2.35,0,0,1,1.659,639.341Z" transform="translate(38.123 -636.931)" fill="#ccc"/>
                      <path id="Path_68" data-name="Path 68" d="M36.3,639.341a2.287,2.287,0,1,1-2.283-2.41A2.349,2.349,0,0,1,36.3,639.341Z" transform="translate(15.221 -636.931)" fill="#ccc"/>
                      <path id="Path_69" data-name="Path 69" d="M70.942,639.341a2.287,2.287,0,1,1-2.283-2.41A2.35,2.35,0,0,1,70.942,639.341Z" transform="translate(-7.683 -636.931)" fill="#ccc"/>
                    </g>
                    <g id="Group_30" data-name="Group 30" transform="translate(0 37.172)">
                      <path id="Path_70" data-name="Path 70" d="M-102.27,673.983a2.35,2.35,0,0,1-2.284,2.411,2.35,2.35,0,0,1-2.282-2.411,2.349,2.349,0,0,1,2.282-2.41A2.35,2.35,0,0,1-102.27,673.983Z" transform="translate(106.837 -671.573)" fill="#ccc"/>
                      <path id="Path_71" data-name="Path 71" d="M-67.627,673.983a2.35,2.35,0,0,1-2.284,2.411,2.35,2.35,0,0,1-2.283-2.411,2.349,2.349,0,0,1,2.283-2.41A2.349,2.349,0,0,1-67.627,673.983Z" transform="translate(83.933 -671.573)" fill="#ccc"/>
                      <path id="Path_72" data-name="Path 72" d="M-32.984,673.983a2.349,2.349,0,0,1-2.282,2.411,2.349,2.349,0,0,1-2.283-2.411,2.349,2.349,0,0,1,2.283-2.41A2.349,2.349,0,0,1-32.984,673.983Z" transform="translate(61.028 -671.573)" fill="#ccc"/>
                      <path id="Path_73" data-name="Path 73" d="M1.659,673.983a2.35,2.35,0,0,1-2.283,2.411,2.349,2.349,0,0,1-2.282-2.411,2.349,2.349,0,0,1,2.282-2.41A2.349,2.349,0,0,1,1.659,673.983Z" transform="translate(38.123 -671.573)" fill="#ccc"/>
                      <path id="Path_74" data-name="Path 74" d="M36.3,673.983a2.286,2.286,0,1,1-2.283-2.41A2.349,2.349,0,0,1,36.3,673.983Z" transform="translate(15.221 -671.573)" fill="#ccc"/>
                      <path id="Path_75" data-name="Path 75" d="M70.942,673.983a2.286,2.286,0,1,1-2.283-2.41A2.35,2.35,0,0,1,70.942,673.983Z" transform="translate(-7.683 -671.573)" fill="#ccc"/>
                    </g>
                    <g id="Group_31" data-name="Group 31" transform="translate(0 49.564)">
                      <path id="Path_76" data-name="Path 76" d="M-102.27,708.626a2.349,2.349,0,0,1-2.284,2.41,2.349,2.349,0,0,1-2.282-2.41,2.349,2.349,0,0,1,2.282-2.41A2.349,2.349,0,0,1-102.27,708.626Z" transform="translate(106.837 -706.216)" fill="#ccc"/>
                      <path id="Path_77" data-name="Path 77" d="M-67.627,708.626a2.349,2.349,0,0,1-2.284,2.41,2.349,2.349,0,0,1-2.283-2.41,2.349,2.349,0,0,1,2.283-2.41A2.349,2.349,0,0,1-67.627,708.626Z" transform="translate(83.933 -706.216)" fill="#ccc"/>
                      <path id="Path_78" data-name="Path 78" d="M-32.984,708.626a2.349,2.349,0,0,1-2.282,2.41,2.349,2.349,0,0,1-2.283-2.41,2.349,2.349,0,0,1,2.283-2.41A2.349,2.349,0,0,1-32.984,708.626Z" transform="translate(61.028 -706.216)" fill="#ccc"/>
                      <path id="Path_79" data-name="Path 79" d="M1.659,708.626a2.349,2.349,0,0,1-2.283,2.41,2.348,2.348,0,0,1-2.282-2.41,2.348,2.348,0,0,1,2.282-2.41A2.349,2.349,0,0,1,1.659,708.626Z" transform="translate(38.123 -706.216)" fill="#ccc"/>
                      <path id="Path_80" data-name="Path 80" d="M36.3,708.626a2.286,2.286,0,1,1-2.283-2.41A2.349,2.349,0,0,1,36.3,708.626Z" transform="translate(15.221 -706.216)" fill="#ccc"/>
                      <path id="Path_81" data-name="Path 81" d="M70.942,708.626a2.286,2.286,0,1,1-2.283-2.41A2.349,2.349,0,0,1,70.942,708.626Z" transform="translate(-7.683 -706.216)" fill="#ccc"/>
                    </g>
                    <g id="Group_32" data-name="Group 32" transform="translate(0 61.954)">
                      <path id="Path_82" data-name="Path 82" d="M-102.27,743.268a2.349,2.349,0,0,1-2.284,2.41,2.349,2.349,0,0,1-2.282-2.41,2.349,2.349,0,0,1,2.282-2.41A2.349,2.349,0,0,1-102.27,743.268Z" transform="translate(106.837 -740.858)" fill="#ccc"/>
                      <path id="Path_83" data-name="Path 83" d="M-67.627,743.268a2.349,2.349,0,0,1-2.284,2.41,2.349,2.349,0,0,1-2.283-2.41,2.349,2.349,0,0,1,2.283-2.41A2.349,2.349,0,0,1-67.627,743.268Z" transform="translate(83.933 -740.858)" fill="#ccc"/>
                      <path id="Path_84" data-name="Path 84" d="M-32.984,743.268a2.349,2.349,0,0,1-2.282,2.41,2.349,2.349,0,0,1-2.283-2.41,2.349,2.349,0,0,1,2.283-2.41A2.349,2.349,0,0,1-32.984,743.268Z" transform="translate(61.028 -740.858)" fill="#ccc"/>
                      <path id="Path_85" data-name="Path 85" d="M1.659,743.268a2.349,2.349,0,0,1-2.283,2.41,2.348,2.348,0,0,1-2.282-2.41,2.348,2.348,0,0,1,2.282-2.41A2.349,2.349,0,0,1,1.659,743.268Z" transform="translate(38.123 -740.858)" fill="#ccc"/>
                      <path id="Path_86" data-name="Path 86" d="M36.3,743.268a2.286,2.286,0,1,1-2.283-2.41A2.349,2.349,0,0,1,36.3,743.268Z" transform="translate(15.221 -740.858)" fill="#ccc"/>
                      <path id="Path_87" data-name="Path 87" d="M70.942,743.268a2.286,2.286,0,1,1-2.283-2.41A2.35,2.35,0,0,1,70.942,743.268Z" transform="translate(-7.683 -740.858)" fill="#ccc"/>
                    </g>
                  </g>
                </g>
              </g>
            </g>
            <g id="Group_49" data-name="Group 49" transform="translate(0 0)">
              <g id="Group_48" data-name="Group 48" transform="translate(35.442 0.559)">
                <path id="Path_124" data-name="Path 124" d="M54.215-95.572c5.8,14.9-.523,32.468-10.966,44.207S18.861-32.221,5.787-23.923C-19.906-7.613-43.771,13.752-57.221,42.036-63.576,55.4-67.444,69.955-73.744,83.348s-15.746,26.1-29.046,31.245c-18.274,7.072-39.891-2.735-50.962-19.632s-12.815-39.134-8.682-59.21S-148.863-2.7-138.94-20.373q18.75-33.394,40.314-64.9c2.989-4.367,6.161-8.84,10.634-11.434,5.478-3.175,12.065-3.069,18.312-2.88L54.132-95.855" transform="translate(188.054 115.122)" fill="#fc4c86"/>
                <path id="Path_125" data-name="Path 125" d="M27.347-63.182C21.418-54.649,15.669-45.567,13.67-35.2,11.153-22.14,14.857-8.779,16.588,4.42S17.4,32.76,8.075,41.737c-10.018,9.639-25.41,8.361-38.291,12.82-20.012,6.927-32.729,27.2-43.314,46.416-6.513,11.825-15.152,25.315-28.109,25.494-10.6.147-19.515-9.6-22.435-20.354s-1.171-22.256.956-33.219A505.646,505.646,0,0,1-93.192-26.029c2.732-6.524,5.788-13.239,11.124-17.614,7.389-6.058,17.479-6.382,26.828-6.754a429.344,429.344,0,0,0,80.551-10.92" transform="translate(162.356 91.686)" fill="#0db7c5"/>
                <path id="Path_126" data-name="Path 126" d="M-85.723-127.988c-12.14,7.367-14.894,24.4-15.173,39.179s.1,31.14-9.09,42.289c-6.993,8.48-18.029,11.828-28.586,13.319s-21.434,1.582-31.474,5.337c-13.563,5.072-25.164,16.653-39.533,17.439-9.594.525-19.814-4.955-23.217-14.439-3.46-9.643.712-20.7,7.177-28.429s14.989-13.155,22.449-19.812c14.665-13.084,24.993-30.7,38.25-45.365s31.539-26.87,50.544-23.974c9.943,1.515,18.929,7.017,27.141,13.126" transform="translate(234.045 142.872)" fill="#fad141"/>
              </g>
              <path id="Path_127" data-name="Path 127" d="M-121.492-141.742c-12.756,10.929-17.026,29.356-19,46.573s-2.624,35.3-10.749,50.375c-8.191,15.193-22.87,25.139-37.644,33.036-26.3,14.057-54.582,23.529-81.269,36.747s-52.48,30.97-68.484,57.1" transform="translate(338.64 142.705)" fill="none" stroke="#fad141" stroke-miterlimit="10" stroke-width="0.12"/>
              <path id="Path_128" data-name="Path 128" d="M-75.135-144.435c-14.443,6.234-26.368,18.7-32.411,33.887-5.378,13.515-6.123,28.5-9.138,42.813-4.293,20.37-13.177,39.286-21.982,57.97l-14.916,31.651c-4.808,10.2-9.727,20.573-17.192,28.8-11.606,12.793-28.065,19.069-43.9,24.932" transform="translate(256.679 144.435)" fill="none" stroke="#fc4c86" stroke-miterlimit="10" stroke-width="0.12"/>
              <ellipse id="Ellipse_12" data-name="Ellipse 12" cx="6.707" cy="7.08" rx="6.707" ry="7.08" transform="translate(238.361 93.795)" fill="#49ced9"/>
              <path id="Path_129" data-name="Path 129" d="M527.748,19.186a2.909,2.909,0,0,1,2.159-3.428,2.766,2.766,0,0,1,3.247,2.278A2.909,2.909,0,0,1,531,21.464,2.766,2.766,0,0,1,527.748,19.186Z" transform="translate(-234.139 41.577)" fill="#fad141"/>
            </g>
          </g>
        </g>
      </g>
    </g>
  </g>
</svg>
