<svg xmlns="http://www.w3.org/2000/svg" xmlns:xlink="http://www.w3.org/1999/xlink" width="72.444" height="68.533" viewBox="0 0 72.444 68.533">
  <defs>
    <filter id="Ellipse_18" x="0" y="6.646" width="57.928" height="57.928" filterUnits="userSpaceOnUse">
      <feOffset dy="3" input="SourceAlpha"/>
      <feGaussianBlur stdDeviation="3" result="blur"/>
      <feFlood flood-opacity="0.161"/>
      <feComposite operator="in" in2="blur"/>
      <feComposite in="SourceGraphic"/>
    </filter>
    <filter id="Ellipse_15" x="25.412" y="21.501" width="47.032" height="47.032" filterUnits="userSpaceOnUse">
      <feOffset dy="3" input="SourceAlpha"/>
      <feGaussianBlur stdDeviation="3" result="blur-2"/>
      <feFlood flood-opacity="0.161"/>
      <feComposite operator="in" in2="blur-2"/>
      <feComposite in="SourceGraphic"/>
    </filter>
  </defs>
  <g id="social" transform="translate(-62.76 -71.873)">
    <path id="Path_412" data-name="Path 412" d="M16.455,1.294a4.7,4.7,0,0,0-6.477,0L8.9,2.335,7.819,1.294a4.7,4.7,0,0,0-6.477,0,4.308,4.308,0,0,0-.157,6.09q.077.081.157.157L8.9,14.83l7.557-7.289a4.308,4.308,0,0,0,.157-6.09Q16.535,1.37,16.455,1.294Z" transform="translate(109.704 84.519) rotate(22)" fill="#ec322c"/>
    <g id="Group_73" data-name="Group 73" transform="matrix(0.875, 0.485, -0.485, 0.875, 86, 84.519)">
      <g transform="matrix(0.87, -0.48, 0.48, 0.87, -26.46, 0.21)" filter="url(#Ellipse_18)">
        <circle id="Ellipse_18-2" data-name="Ellipse 18" cx="14.686" cy="14.686" r="14.686" transform="matrix(0.87, 0.48, -0.48, 0.87, 23.24, 12.65)" fill="#00cdd3"/>
      </g>
      <path id="Path_415" data-name="Path 415" d="M0,0H17.471V10.191H13.1l1.456,7.279L5.824,10.191H0Z" transform="translate(5.683 8.159)" fill="#fff"/>
    </g>
    <g id="Group_75" data-name="Group 75" transform="translate(84.477 71.873)">
      <circle id="Ellipse_13" data-name="Ellipse 13" cx="12.646" cy="12.646" r="12.646" transform="translate(0 0)" fill="#4bad32"/>
      <circle id="Ellipse_14" data-name="Ellipse 14" cx="12.646" cy="12.646" r="12.646" transform="translate(0 0)" fill="#4cd625"/>
      <g id="Group_71" data-name="Group 71" transform="translate(0.221 0.102)">
        <path id="Path_416" data-name="Path 416" d="M57.714,81.032a12.551,12.551,0,0,0-9.6-3.657A12.555,12.555,0,0,0,61.37,90.627,12.55,12.55,0,0,0,57.714,81.032Z" transform="translate(-48.097 -65.478)" fill="#74dd37"/>
        <path id="Path_417" data-name="Path 417" d="M102.969,35.777a12.551,12.551,0,0,0-9.6-3.657,12.555,12.555,0,0,0,13.252,13.252A12.55,12.55,0,0,0,102.969,35.777Z" transform="translate(-81.476 -32.099)" fill="#74dd37"/>
      </g>
    </g>
    <g id="Group_74" data-name="Group 74" transform="matrix(0.951, 0.309, -0.309, 0.951, 104.292, 99.375)">
      <g transform="matrix(0.95, -0.31, 0.31, 0.95, -48, -13.32)" filter="url(#Ellipse_15)">
        <circle id="Ellipse_15-2" data-name="Ellipse 15" cx="11.52" cy="11.52" r="11.52" transform="matrix(0.95, 0.31, -0.31, 0.95, 41.53, 27.5)" fill="#fceb15"/>
      </g>
      <path id="Path_414" data-name="Path 414" d="M4.941,4.941A4.946,4.946,0,0,1,0,0H3.294A1.647,1.647,0,0,0,4.941,1.647,1.647,1.647,0,0,0,6.588,0H9.882A4.946,4.946,0,0,1,4.941,4.941Z" transform="translate(6.417 14.899)" fill="#616161"/>
      <g id="Group_72" data-name="Group 72" transform="translate(4.48 6.4)">
        <circle id="Ellipse_16" data-name="Ellipse 16" cx="1.92" cy="1.92" r="1.92" transform="translate(0 0)" fill="#616161"/>
        <ellipse id="Ellipse_17" data-name="Ellipse 17" cx="1.6" cy="1.92" rx="1.6" ry="1.92" transform="translate(10.24 0)" fill="#616161"/>
      </g>
    </g>
  </g>
</svg>
