<svg xmlns="http://www.w3.org/2000/svg" xmlns:xlink="http://www.w3.org/1999/xlink" width="62" height="56" viewBox="0 0 62 56">
  <defs>
    <filter id="Path_430" x="0" y="14.483" width="41.517" height="41.517" filterUnits="userSpaceOnUse">
      <feOffset dy="3" input="SourceAlpha"/>
      <feGaussianBlur stdDeviation="3" result="blur"/>
      <feFlood flood-opacity="0.271"/>
      <feComposite operator="in" in2="blur"/>
      <feComposite in="SourceGraphic"/>
    </filter>
    <filter id="Path_431" x="20.483" y="14.483" width="41.517" height="41.517" filterUnits="userSpaceOnUse">
      <feOffset dy="3" input="SourceAlpha"/>
      <feGaussianBlur stdDeviation="3" result="blur-2"/>
      <feFlood flood-opacity="0.271"/>
      <feComposite operator="in" in2="blur-2"/>
      <feComposite in="SourceGraphic"/>
    </filter>
  </defs>
  <g id="flat" transform="translate(-15 -24)">
    <path id="Path_428" data-name="Path 428" d="M25.517,46l1.517,1.517h3.034l-.759-3.034H33.1l-.759,3.034h3.793l-.759-3.034h3.793l-.759,3.034h3.793l-.759-3.034h3.034L46,46l1.517-1.517V41.448l-3.034.759V38.414l3.034.759V35.379l-3.034.759V32.345l3.034.759V29.31l-3.034.759V27.034L46,25.517,44.483,24H41.448l.759,3.034H38.414L39.172,24H35.379l.759,3.034H32.345L33.1,24H29.31l.759,3.034H27.034l-1.517-1.517L24,27.034v3.034l3.034-.759V33.1L24,32.345v3.793l3.034-.759v3.793L24,38.414v3.793l3.034-.759v3.034Z" fill="#ffcd01"/>
    <path id="Path_429" data-name="Path 429" d="M241.517,46l1.517,1.517h3.034l-.759-3.034H249.1l-.759,3.034h3.793l-.759-3.034h3.793l-.759,3.034h3.793l-.759-3.034h3.034L262,46l1.517-1.517V41.448l-3.034.759V38.414l3.034.759V35.379l-3.034.759V32.345l3.034.759V29.31l-3.034.759V27.034L262,25.517,260.483,24h-3.034l.759,3.034h-3.793L255.172,24h-3.793l.759,3.034h-3.793L249.1,24H245.31l.759,3.034h-3.034l-1.517-1.517L240,27.034v3.034l3.034-.759V33.1L240,32.345v3.793l3.034-.759v3.793L240,38.414v3.793l3.034-.759v3.034Z" transform="translate(-195.517)" fill="#8726e2"/>
    <g transform="matrix(1, 0, 0, 1, 15, 24)" filter="url(#Path_430)">
      <path id="Path_430-2" data-name="Path 430" d="M25.517,262l1.517,1.517h3.034l-.759-3.034H33.1l-.759,3.034h3.793l-.759-3.034h3.793l-.759,3.034h3.793l-.759-3.034h3.034L46,262l1.517-1.517v-3.034l-3.034.759v-3.793l3.034.759v-3.793l-3.034.759v-3.793l3.034.759V245.31l-3.034.759v-3.034L46,241.517,44.483,240H41.448l.759,3.034H38.414L39.172,240H35.379l.759,3.034H32.345L33.1,240H29.31l.759,3.034H27.034l-1.517-1.517L24,243.034v3.034l3.034-.759V249.1L24,248.345v3.793l3.034-.759v3.793L24,254.414v3.793l3.034-.759v3.034Z" transform="translate(-15 -219.52)" fill="#ff2b63"/>
    </g>
    <g transform="matrix(1, 0, 0, 1, 15, 24)" filter="url(#Path_431)">
      <path id="Path_431-2" data-name="Path 431" d="M241.517,262l1.517,1.517h3.034l-.759-3.034H249.1l-.759,3.034h3.793l-.759-3.034h3.793l-.759,3.034h3.793l-.759-3.034h3.034L262,262l1.517-1.517v-3.034l-3.034.759v-3.793l3.034.759v-3.793l-3.034.759v-3.793l3.034.759V245.31l-3.034.759v-3.034L262,241.517,260.483,240h-3.034l.759,3.034h-3.793l.759-3.034h-3.793l.759,3.034h-3.793L249.1,240H245.31l.759,3.034h-3.034l-1.517-1.517L240,243.034v3.034l3.034-.759V249.1L240,248.345v3.793l3.034-.759v3.793L240,254.414v3.793l3.034-.759v3.034Z" transform="translate(-210.52 -219.52)" fill="#48bdff"/>
    </g>
    <path id="Path_432" data-name="Path 432" d="M115.5,112a.759.759,0,0,0-.71.492l-2.276,6.069,1.421.533.384-1.025h2.363l.384,1.025,1.421-.533-2.276-6.069A.759.759,0,0,0,115.5,112Zm-.612,4.552.612-1.633.612,1.633Z" transform="translate(-80.117 -79.655)" fill="#ff2b63"/>
    <path id="Path_433" data-name="Path 433" d="M342.069,114.276A2.279,2.279,0,0,0,339.793,112h-3.034a.759.759,0,0,0-.759.759v6.069a.759.759,0,0,0,.759.759h3.034a2.275,2.275,0,0,0,1.695-3.793A2.266,2.266,0,0,0,342.069,114.276Zm-2.276,3.793h-2.276v-1.517h2.276a.759.759,0,0,1,0,1.517Zm0-3.034h-2.276v-1.517h2.276a.759.759,0,0,1,0,1.517Z" transform="translate(-282.414 -79.655)" fill="#48bdff"/>
    <path id="Path_434" data-name="Path 434" d="M115.1,329.515a1.577,1.577,0,0,1,1.418.876l1.357-.678A3.1,3.1,0,0,0,112,331.1v1.38a3.1,3.1,0,0,0,5.878,1.388l-1.357-.678a1.586,1.586,0,0,1-3-.709V331.1A1.587,1.587,0,0,1,115.1,329.515Z" transform="translate(-79.655 -275.17)" fill="#ffcd01"/>
    <path id="Path_435" data-name="Path 435" d="M338.276,328h-1.517a.759.759,0,0,0-.759.759v6.069a.759.759,0,0,0,.759.759h1.517a3.793,3.793,0,1,0,0-7.586Zm0,6.069h-.759v-4.552h.759a2.276,2.276,0,0,1,0,4.552Z" transform="translate(-282.414 -275.172)" fill="#8726e2"/>
    <path id="Path_436" data-name="Path 436" d="M127.172,33.1V29.31l-3.034.759V27.034l1.517-1.517L124.138,24h-1.665a24.164,24.164,0,0,1,.148,2.655A23.868,23.868,0,0,1,112.3,46.322l-.3,1.195h3.793l-.759-3.034h3.793l-.759,3.034h3.793l-.759-3.034h3.034L125.655,46l1.517-1.517V41.448l-3.034.759V38.414l3.034.759V35.379l-3.034.759V32.345Z" transform="translate(-79.655)" fill="#ffba01"/>
    <path id="Path_437" data-name="Path 437" d="M328.238,243.527l-.238.95h3.793l-.721-2.883a23.948,23.948,0,0,1-2.835,1.933Z" transform="translate(-275.172 -196.96)" fill="#691daf"/>
    <path id="Path_438" data-name="Path 438" d="M374.29,33.1V29.31l-3.034.759V27.034l1.517-1.517L371.256,24h-.075q.074.939.075,1.9a23.849,23.849,0,0,1-8.878,18.586h3.568l-.759,3.034h3.793l-.759-3.034h3.034L372.773,46l1.517-1.517V41.448l-3.034.759V38.414l3.034.759V35.379l-3.034.759V32.345Z" transform="translate(-306.29)" fill="#691daf"/>
    <path id="Path_439" data-name="Path 439" d="M126.221,249.1V245.31l-3.034.759v-3.034l1.517-1.517L123.187,240h0a23.888,23.888,0,0,1-12.233,20.483h.858l-.759,3.034h3.793l-.759-3.034h3.793l-.759,3.034h3.793l-.759-3.034h3.034L124.7,262l1.517-1.517v-3.034l-3.034.759v-3.793l3.034.759v-3.793l-3.034.759v-3.793Z" transform="translate(-78.704 -195.517)" fill="#e5235f"/>
    <path id="Path_440" data-name="Path 440" d="M48.638,470.4l.7.7h3.034l-.443-1.771a23.716,23.716,0,0,1-3.29,1.073Z" transform="translate(-22.302 -403.095)" fill="#e5235f"/>
    <g id="Group_78" data-name="Group 78" transform="translate(46 49.793)">
      <path id="Path_441" data-name="Path 441" d="M256.167,463.024l-.167.167,1.517,1.517h3.034l-.61-2.44A23.783,23.783,0,0,1,256.167,463.024Z" transform="translate(-256 -446.501)" fill="#3ba4f2"/>
      <path id="Path_442" data-name="Path 442" d="M332.772,299.793V296l-2.032.508a23.963,23.963,0,0,1-14.23,14.664h1.848l-.759,3.034h3.793l-.759-3.034h3.793l-.759,3.034h3.793l-.759-3.034h3.034l1.517,1.517,1.517-1.517v-3.034l-3.034.759V305.1l3.034.759v-3.793l-3.034.759v-3.793Z" transform="translate(-310.772 -296)" fill="#3ba4f2"/>
    </g>
  </g>
</svg>
