<svg id="Group_37" data-name="Group 37" xmlns="http://www.w3.org/2000/svg" xmlns:xlink="http://www.w3.org/1999/xlink" width="155.674" height="258.5" viewBox="0 0 155.674 258.5">
  <defs>
    <filter id="Path_418" x="30.043" y="147.42" width="85.971" height="70.111" filterUnits="userSpaceOnUse">
      <feOffset dy="3" input="SourceAlpha"/>
      <feGaussianBlur stdDeviation="3" result="blur"/>
      <feFlood flood-opacity="0.161"/>
      <feComposite operator="in" in2="blur"/>
      <feComposite in="SourceGraphic"/>
    </filter>
  </defs>
  <g id="Group_17" data-name="Group 17" transform="translate(34.499 194.107)">
    <path id="Path_48" data-name="Path 48" d="M207.508,405.962c4.584,4.509,16.816,5.93,26.907,8.55a3.812,3.812,0,0,1-.969,3.638c-3.309,3.176-6.062,8.8-5.02,9.338,5.528,2.848,8.693,5.031,12.4,1.38,1.723-1.7,2.833-5.357,5.025-8.726,1.23-1.891,3.508-3.417,4.705-5.124,10.168-14.5-22.4-24.429-22.4-24.429s-.644.017,0-.473c11.132-8.5-2.5-24.52-17.649-20.66C197.532,372.754,196.856,395.479,207.508,405.962Z" transform="translate(-200.093 -368.866)" fill="#e8af7c"/>
    <path id="Path_49" data-name="Path 49" d="M251.455,449.287a2.73,2.73,0,1,1-2.73-2.729A2.73,2.73,0,0,1,251.455,449.287Z" transform="translate(-211.176 -387.624)" fill="#e8af7c"/>
    <path id="Path_50" data-name="Path 50" d="M246.969,449.374a2.135,2.135,0,1,1-2.135-2.135A2.135,2.135,0,0,1,246.969,449.374Z" transform="translate(-210.38 -387.789)" fill="#e8af7c"/>
    <path id="Path_51" data-name="Path 51" d="M243.053,448.867a1.583,1.583,0,1,1-1.583-1.583A1.584,1.584,0,0,1,243.053,448.867Z" transform="translate(-209.701 -387.8)" fill="#e8af7c"/>
    <path id="Path_52" data-name="Path 52" d="M240.253,447.462a1.583,1.583,0,1,1-1.583-1.583A1.584,1.584,0,0,1,240.253,447.462Z" transform="translate(-209.025 -387.46)" fill="#e8af7c"/>
    <path id="Path_53" data-name="Path 53" d="M238.691,444.647a1.583,1.583,0,1,1-1.584-1.583A1.584,1.584,0,0,1,238.691,444.647Z" transform="translate(-208.648 -386.781)" fill="#e8af7c"/>
  </g>
  <g id="Group_25" data-name="Group 25" transform="translate(63.718 193.099)">
    <g id="Group_24" data-name="Group 24">
      <g id="Group_18" data-name="Group 18">
        <path id="Path_54" data-name="Path 54" d="M283.625,404.634c-4.584,4.509-16.816,5.93-26.907,8.55a3.812,3.812,0,0,0,.969,3.638c3.31,3.176,6.062,8.8,5.021,9.338-5.528,2.848-8.694,5.031-12.4,1.38-1.723-1.7-2.833-5.357-5.025-8.726-1.23-1.891-3.508-3.417-4.705-5.124-10.168-14.5,22.4-24.429,22.4-24.429s.645.017,0-.473c-11.132-8.5,2.5-24.52,17.65-20.661C293.6,371.425,294.277,394.151,283.625,404.634Z" transform="translate(-238.612 -367.537)" fill="#f2b78b"/>
      </g>
      <g id="Group_19" data-name="Group 19" transform="translate(12.148 58.933)">
        <path id="Path_55" data-name="Path 55" d="M254.627,447.958a2.73,2.73,0,1,0,2.73-2.729A2.731,2.731,0,0,0,254.627,447.958Z" transform="translate(-254.627 -445.229)" fill="#f2b78b"/>
      </g>
      <g id="Group_20" data-name="Group 20" transform="translate(15.839 59.451)">
        <path id="Path_56" data-name="Path 56" d="M259.493,448.046a2.134,2.134,0,1,0,2.135-2.135A2.135,2.135,0,0,0,259.493,448.046Z" transform="translate(-259.493 -445.911)" fill="#f2b78b"/>
      </g>
      <g id="Group_21" data-name="Group 21" transform="translate(19.075 59.485)">
        <path id="Path_57" data-name="Path 57" d="M263.759,447.539a1.584,1.584,0,1,0,1.584-1.583A1.584,1.584,0,0,0,263.759,447.539Z" transform="translate(-263.759 -445.956)" fill="#f2b78b"/>
      </g>
      <g id="Group_22" data-name="Group 22" transform="translate(21.2 58.419)">
        <path id="Path_58" data-name="Path 58" d="M266.56,446.134a1.583,1.583,0,1,0,1.582-1.583A1.583,1.583,0,0,0,266.56,446.134Z" transform="translate(-266.56 -444.551)" fill="#f2b78b"/>
      </g>
      <g id="Group_23" data-name="Group 23" transform="translate(22.385 56.284)">
        <path id="Path_59" data-name="Path 59" d="M268.122,443.319a1.583,1.583,0,1,0,1.583-1.583A1.583,1.583,0,0,0,268.122,443.319Z" transform="translate(-268.122 -441.736)" fill="#f2b78b"/>
      </g>
    </g>
  </g>
  <path id="Path_60" data-name="Path 60" d="M280.378,311.813c10.6-2.447,25.642.587,26.542-11.885,0,0-.68-10.479-14.4-9.529a67.5,67.5,0,0,0-20.066,5.021l-.181.079s4.041,10.3,7.881,16.362" transform="translate(-183.022 -155.799)" fill="#fcc187"/>
  <path id="Path_61" data-name="Path 61" d="M215.864,282.786l45.211-1.735s31.41,75.52-18.032,79.6C193.355,364.746,215.864,282.786,215.864,282.786Z" transform="translate(-168.174 -153.557)" fill="#e8af7c"/>
  <path id="Path_62" data-name="Path 62" d="M205.33,310.525c-10.693,1.987-23.274,10.778-29.082-.3,0,0-3.56-9.881,9.4-14.487a67.486,67.486,0,0,1,20.4-3.41h.2s.411,11.058-.688,18.148" transform="translate(-159.729 -156.28)" fill="#fcc187"/>
  <path id="Path_94" data-name="Path 94" d="M210.413,345.454s31.729,16.882,59.542-.415c0,0,7.667,8.868,3.64,17.8,0,0-13.213,6.068-18.479,15.66-2.735,4.981-8.395,11.507-22.41,3.8,0,0-10.219-19.663-23.173-17.419C209.532,364.874,203.665,356,210.413,345.454Z" transform="translate(-167.302 -169.006)" fill="#ff6c6c"/>
  <g id="calendar_2_" data-name="calendar (2)" transform="matrix(0.951, 0.309, -0.309, 0.951, 55.015, 137.831)">
    <g transform="matrix(0.95, -0.31, 0.31, 0.95, -94.91, -114.08)" filter="url(#Path_418)">
      <path id="Path_418-2" data-name="Path 418" d="M0,0H60V32.888a2.41,2.41,0,0,1-2.41,2.41H2.41A2.41,2.41,0,0,1,0,32.888Z" transform="matrix(0.95, 0.31, -0.31, 0.95, 49.95, 153.42)" fill="#e1e4fb"/>
    </g>
    <path id="Path_419" data-name="Path 419" d="M2.892,0H57.109A2.892,2.892,0,0,1,60,2.892V9.218H0V2.892A2.892,2.892,0,0,1,2.892,0Z" transform="translate(0 7.173)" fill="#ff6c6c"/>
    <g id="Group_76" data-name="Group 76" transform="translate(6.446 0)">
      <path id="Path_420" data-name="Path 420" d="M1.928,0H3.872A1.928,1.928,0,0,1,5.8,1.928V7.173H0V1.928A1.928,1.928,0,0,1,1.928,0Z" fill="#1689fc"/>
      <path id="Path_421" data-name="Path 421" d="M1.928,0H3.872A1.928,1.928,0,0,1,5.8,1.928V7.173H0V1.928A1.928,1.928,0,0,1,1.928,0Z" transform="translate(13.771 0)" fill="#1689fc"/>
      <path id="Path_422" data-name="Path 422" d="M1.928,0H3.87A1.928,1.928,0,0,1,5.8,1.928V7.173H0V1.928A1.928,1.928,0,0,1,1.928,0Z" transform="translate(27.54 0)" fill="#1689fc"/>
      <path id="Path_423" data-name="Path 423" d="M1.928,0H3.872A1.928,1.928,0,0,1,5.8,1.928V7.173H0V1.928A1.928,1.928,0,0,1,1.928,0Z" transform="translate(41.309 0)" fill="#1689fc"/>
    </g>
    <g id="Group_77" data-name="Group 77" transform="translate(4.819 21.21)">
      <rect id="Rectangle_52" data-name="Rectangle 52" width="7.102" height="5.748" rx="2" transform="translate(0 0)" fill="#c5c9f7"/>
      <rect id="Rectangle_53" data-name="Rectangle 53" width="7.102" height="5.748" rx="2" transform="translate(14.42 0)" fill="#c5c9f7"/>
      <rect id="Rectangle_54" data-name="Rectangle 54" width="7.102" height="5.748" rx="2" transform="translate(28.84 0)" fill="#c5c9f7"/>
      <rect id="Rectangle_55" data-name="Rectangle 55" width="7.102" height="5.748" rx="2" transform="translate(43.26 0)" fill="#c5c9f7"/>
      <rect id="Rectangle_56" data-name="Rectangle 56" width="7.102" height="5.748" rx="2" transform="translate(0 9.955)" fill="#c5c9f7"/>
      <rect id="Rectangle_57" data-name="Rectangle 57" width="7.102" height="5.748" rx="2" transform="translate(14.42 9.955)" fill="#c5c9f7"/>
      <rect id="Rectangle_58" data-name="Rectangle 58" width="7.102" height="5.748" rx="2" transform="translate(28.84 9.955)" fill="#c5c9f7"/>
      <rect id="Rectangle_59" data-name="Rectangle 59" width="7.102" height="5.748" rx="2" transform="translate(43.26 9.955)" fill="#c5c9f7"/>
      <rect id="Rectangle_60" data-name="Rectangle 60" width="7.102" height="5.748" rx="2" transform="translate(0 19.91)" fill="#c5c9f7"/>
      <rect id="Rectangle_61" data-name="Rectangle 61" width="7.102" height="5.748" rx="2" transform="translate(14.42 19.91)" fill="#c5c9f7"/>
    </g>
    <path id="Path_424" data-name="Path 424" d="M3.494,7.147a.843.843,0,0,1-.661-.32L.182,3.483A.843.843,0,1,1,1.5,2.436L3.479,4.931,7,.331a.843.843,0,0,1,1.34,1.024L4.164,6.816a.845.845,0,0,1-.663.331Z" transform="translate(32.817 40.565)" fill="#00ddc1"/>
    <path id="Path_425" data-name="Path 425" d="M3.494,7.147a.844.844,0,0,1-.661-.32L.182,3.483A.843.843,0,1,1,1.5,2.436L3.48,4.931,6.995.331a.843.843,0,0,1,1.34,1.024L4.162,6.816a.845.845,0,0,1-.663.331Z" transform="translate(47.237 40.565)" fill="#00ddc1"/>
  </g>
  <g id="Group_28" data-name="Group 28" transform="translate(76.317 137.893)">
    <g id="Group_27" data-name="Group 27">
      <path id="Path_63" data-name="Path 63" d="M264.4,307.466a2.725,2.725,0,0,1-1.186-3.665h0a2.723,2.723,0,0,1,3.666-1.182l4.355,2.223a2.724,2.724,0,0,1,1.183,3.664h0a2.722,2.722,0,0,1-3.664,1.182Z" transform="translate(-257.08 -296.585)" fill="#fccd97"/>
      <path id="Path_64" data-name="Path 64" d="M275.563,305.55a3.99,3.99,0,1,1-5.525-1.15A3.99,3.99,0,0,1,275.563,305.55Z" transform="translate(-258.364 -296.93)" fill="#fccd97"/>
      <path id="Path_65" data-name="Path 65" d="M276.6,303.774s12.022-11.736,26.142-8.425c6.772,1.588,6.717,9.347-.4,15.367-6.944,5.87-13.316,2.18-22.524,4.585C279.822,315.3,272.994,312.019,276.6,303.774Z" transform="translate(-260.13 -294.76)" fill="#fccd97"/>
      <g id="Group_26" data-name="Group 26" transform="translate(0 10.881)">
        <path id="Path_66" data-name="Path 66" d="M266.286,316.983a2.672,2.672,0,0,0-3.737-.574l-5.923,4.35a2.674,2.674,0,0,0-.574,3.734h0a2.674,2.674,0,0,0,3.737.573l5.926-4.35a2.671,2.671,0,0,0,.57-3.734Z" transform="translate(-255.298 -310.743)" fill="#fccd97"/>
        <path id="Path_67" data-name="Path 67" d="M267.608,312.6a2.673,2.673,0,0,0-3.25-1.932l-7.122,1.812a2.674,2.674,0,0,0-1.93,3.25h0a2.677,2.677,0,0,0,3.25,1.932l7.119-1.814a2.671,2.671,0,0,0,1.933-3.249Z" transform="translate(-255.222 -309.463)" fill="#fccd97"/>
        <path id="Path_68" data-name="Path 68" d="M271.718,318.921a2.673,2.673,0,0,0-3.757.41l-4.6,5.729a2.669,2.669,0,0,0,.41,3.756h0a2.669,2.669,0,0,0,3.756-.409l4.6-5.729a2.669,2.669,0,0,0-.41-3.757Z" transform="translate(-257.045 -311.333)" fill="#fccd97"/>
        <path id="Path_69" data-name="Path 69" d="M276.117,319.993a2.666,2.666,0,0,0-3.392,1.66l-2.383,6.951A2.67,2.67,0,0,0,272,332h0a2.671,2.671,0,0,0,3.395-1.66l2.38-6.954a2.668,2.668,0,0,0-1.662-3.391Z" transform="translate(-258.838 -311.698)" fill="#fccd97"/>
        <path id="Path_70" data-name="Path 70" d="M264.49,320.384a7.087,7.087,0,1,0,1.518-9.9A7.087,7.087,0,0,0,264.49,320.384Z" transform="translate(-257.128 -309.105)" fill="#fccd97"/>
      </g>
    </g>
  </g>
  <g id="Group_31" data-name="Group 31" transform="translate(16.209 144.499)">
    <g id="Group_30" data-name="Group 30">
      <path id="Path_71" data-name="Path 71" d="M226.791,309.1a2.726,2.726,0,0,0,.476-3.822h0a2.723,2.723,0,0,0-3.824-.473l-3.858,3a2.721,2.721,0,0,0-.473,3.819h0a2.717,2.717,0,0,0,3.819.473Z" transform="translate(-186.256 -303.651)" fill="#fccd97"/>
      <path id="Path_72" data-name="Path 72" d="M215.975,309.38a3.989,3.989,0,1,0,5.208-2.167A3.989,3.989,0,0,0,215.975,309.38Z" transform="translate(-185.565 -304.3)" fill="#fccd97"/>
      <path id="Path_73" data-name="Path 73" d="M207.177,308.8s-14.013-9.269-27.261-3.362c-6.351,2.833-4.839,10.444,3.284,15.017,7.922,4.463,13.488-.361,22.984.272C206.184,320.726,212.272,316.219,207.177,308.8Z" transform="translate(-175.982 -303.469)" fill="#fccd97"/>
      <g id="Group_29" data-name="Group 29" transform="translate(29.13 6.397)">
        <path id="Path_74" data-name="Path 74" d="M226.134,319.147a2.672,2.672,0,0,1,3.562-1.265l6.635,3.157A2.675,2.675,0,0,1,237.6,324.6h0a2.675,2.675,0,0,1-3.564,1.265l-6.636-3.159a2.669,2.669,0,0,1-1.264-3.56Z" transform="translate(-217.158 -313.283)" fill="#fccd97"/>
        <path id="Path_75" data-name="Path 75" d="M223.641,315.165a2.67,2.67,0,0,1,2.829-2.509l7.335.441a2.673,2.673,0,0,1,2.505,2.83h0a2.673,2.673,0,0,1-2.828,2.508l-7.333-.443a2.668,2.668,0,0,1-2.508-2.828Z" transform="translate(-216.618 -312.083)" fill="#fccd97"/>
        <path id="Path_76" data-name="Path 76" d="M221.576,321.994a2.675,2.675,0,0,1,3.768-.3l5.6,4.761a2.67,2.67,0,0,1,.3,3.766h0a2.671,2.671,0,0,1-3.767.3l-5.6-4.761a2.671,2.671,0,0,1-.3-3.766Z" transform="translate(-215.966 -314.112)" fill="#fccd97"/>
        <path id="Path_77" data-name="Path 77" d="M218.153,323.74a2.668,2.668,0,0,1,3.645.994l3.646,6.379a2.668,2.668,0,0,1-1,3.645h0a2.671,2.671,0,0,1-3.646-.993l-3.645-6.381a2.671,2.671,0,0,1,1-3.645Z" transform="translate(-214.968 -314.675)" fill="#fccd97"/>
        <path id="Path_78" data-name="Path 78" d="M227.87,322.035a7.087,7.087,0,1,1-3.353-9.443A7.086,7.086,0,0,1,227.87,322.035Z" transform="translate(-214.384 -311.902)" fill="#fccd97"/>
      </g>
    </g>
  </g>
  <path id="Path_79" data-name="Path 79" d="M213.766,292.338c-1.663.042-3.535.137-5.543.323a50.326,50.326,0,0,0,5.185,1.558C213.53,293.562,213.65,292.932,213.766,292.338Z" transform="translate(-167.557 -156.282)" fill="#fcc187"/>
  <path id="Path_80" data-name="Path 80" d="M281.05,292.332h-.086a.243.243,0,0,0,0,.027c0,.009,0,.017.008.024Z" transform="translate(-185.12 -156.28)" fill="#fcc187"/>
  <path id="Path_81" data-name="Path 81" d="M215.833,289.659s.03.781.052,2.052c8.839,2.022,18.742,1.818,29.526-1.349,0,0,10.693,5.006,19.752-.648a.188.188,0,0,0,0-.028c-1.648-5.2-2.928-8.425-2.928-8.425l-45.225,1.576s-.653,2.579-1.481,6.827l.108,0Z" transform="translate(-169.321 -153.607)" fill="#fccd97"/>
  <path id="Path_82" data-name="Path 82" d="M215.771,294.384c-.022-1.271-.052-2.052-.052-2.052h-.2l-.108,0c-.116.594-.236,1.224-.357,1.881C215.295,294.275,215.533,294.329,215.771,294.384Z" transform="translate(-169.208 -156.28)" fill="#fccd97"/>
  <path id="Path_83" data-name="Path 83" d="M280.97,292.391c0-.007,0-.014-.008-.024a.187.187,0,0,1,0,.028Z" transform="translate(-185.119 -156.289)" fill="#fccd97"/>
  <path id="Path_84" data-name="Path 84" d="M261.754,292.291l-.137.086c-9.062,5.654-19.754.648-19.754.648-10.783,3.168-20.686,3.372-29.526,1.349-.237-.055-.476-.108-.712-.166a50.365,50.365,0,0,1-5.184-1.558c-1.784.165-3.674.407-5.61.74a50.7,50.7,0,0,0,10.262,3.836c.421.108.843.216,1.269.314,8.833,2.015,18.73,1.8,29.5-1.363,0,0,10.642,4.982,19.688-.606.3-.182.738-.473,1.03-.679C262.582,294.892,261.782,292.274,261.754,292.291Z" transform="translate(-165.772 -156.27)" fill="#ddb185" opacity="0.2" style="mix-blend-mode: multiply;isolation: isolate"/>
  <path id="Path_85" data-name="Path 85" d="M284.277,201.111s-.284-87.986-83.126-68.49c-78.872,18.562-46.321,143.534,29.8,121.172,0,0,16.522,7.74,25.893-6.882C256.845,246.911,301.05,237.027,284.277,201.111Z" transform="translate(-154.862 -117.038)" fill="#fccd97"/>
  <path id="Path_86" data-name="Path 86" d="M270.888,250.3a3.738,3.738,0,1,1-3.738-3.738A3.74,3.74,0,0,1,270.888,250.3Z" transform="translate(-180.882 -145.229)" fill="#fcc187"/>
  <path id="Path_87" data-name="Path 87" d="M257.713,268.2s7.544,3.938,14.206-1.028C271.919,267.176,265.86,276.434,257.713,268.2Z" transform="translate(-179.506 -150.207)" fill="#f6b57d"/>
  <path id="Path_88" data-name="Path 88" d="M220.19,204.979s-14.809.662-20.507,13.97C199.683,218.949,200.719,199.7,220.19,204.979Z" transform="translate(-165.495 -134.968)" fill="#f6b57d"/>
  <path id="Path_89" data-name="Path 89" d="M304.533,199.308s-11.956-8.764-24.736-1.962C279.8,197.345,292.664,183,304.533,199.308Z" transform="translate(-184.838 -131.938)" fill="#f6b57d"/>
  <ellipse id="Ellipse_5" data-name="Ellipse 5" cx="1.72" cy="1.72" rx="1.72" ry="1.72" transform="translate(75.561 175.276)" fill="#d6a074"/>
  <path id="Path_90" data-name="Path 90" d="M220.47,128.288s-3.008-15.312,12.908-15.312c5.8,0,9.174,3.1,10.516,6.834,0,0-11.489-.3-5.184,10.956s-7.959,17.353-13.632,11.484C223.394,140.508,221.6,137.973,220.47,128.288Z" transform="translate(-170.459 -112.976)" fill="#f6b57d"/>
  <g id="Group_32" data-name="Group 32" transform="translate(44.294 8.983)">
    <path id="Path_91" data-name="Path 91" d="M213.174,137.532a8.447,8.447,0,0,0,9.2,7.624h0a8.448,8.448,0,0,0,7.623-9.2l-.131-1.4a8.448,8.448,0,0,0-9.2-7.623h0a8.447,8.447,0,0,0-7.621,9.2Z" transform="translate(-213.006 -125.32)" fill="#ff6c6c"/>
    <path id="Path_92" data-name="Path 92" d="M235.349,135.457a8.446,8.446,0,0,0,9.2,7.623h0a8.448,8.448,0,0,0,7.622-9.2l-.131-1.4a8.446,8.446,0,0,0-9.2-7.623h0a8.448,8.448,0,0,0-7.623,9.2Z" transform="translate(-218.36 -124.819)" fill="#ff6c6c"/>
    <path id="Path_93" data-name="Path 93" d="M238.673,137.106a4.8,4.8,0,0,1-4.328,5.221h0a4.8,4.8,0,0,1-5.22-4.328l-.319-3.406a4.8,4.8,0,0,1,4.328-5.221h0a4.8,4.8,0,0,1,5.22,4.327Z" transform="translate(-216.816 -125.913)" fill="#ff8080"/>
  </g>
  <path id="Path_95" data-name="Path 95" d="M168.7,250a7.686,7.686,0,0,0-12.9,8.352c-.077.346-.14.7-.184,1.055A10.977,10.977,0,1,0,168.7,250Z" transform="translate(-154.613 -145.229)" fill="#fccd97"/>
  <path id="Path_96" data-name="Path 96" d="M312.921,246.316a13.081,13.081,0,1,1-13.082-13.081A13.082,13.082,0,0,1,312.921,246.316Z" transform="translate(-186.519 -142.012)" fill="#f6a587"/>
  <path id="Path_97" data-name="Path 97" d="M226.343,265.952a14.033,14.033,0,1,1-14.033-14.036A14.033,14.033,0,0,1,226.343,265.952Z" transform="translate(-165.155 -146.522)" fill="#f6a587"/>
  <g id="Group_34" data-name="Group 34" transform="translate(30.084 81.071)">
    <path id="Path_98" data-name="Path 98" d="M216.583,256.882a4.963,4.963,0,1,1-4.963-4.966A4.963,4.963,0,0,1,216.583,256.882Z" transform="translate(-197.263 -227.593)" fill="#fcf7f4" opacity="0.2"/>
    <path id="Path_99" data-name="Path 99" d="M194.273,231.089s2.231,1.478,3.985,1.354a7.782,7.782,0,0,1-1.895-5.01s2.221,1.934,4.029,1.868a6.04,6.04,0,0,1-1.657-5.584s1.841,2.427,3.461,2.188c0,0,.275-.3.766-.74a14.352,14.352,0,1,1-2.8,12.353C198.4,236.92,195.194,235.93,194.273,231.089Z" transform="translate(-194.273 -219.852)" fill="#4e494d"/>
    <g id="Group_33" data-name="Group 33" transform="translate(7.514 2.909)">
      <path id="Path_100" data-name="Path 100" d="M232.132,237.664a13.977,13.977,0,1,1-13.976-13.977A13.979,13.979,0,0,1,232.132,237.664Z" transform="translate(-204.178 -223.687)" fill="#fcf7f4"/>
      <path id="Path_101" data-name="Path 101" d="M232.117,235.33a11.074,11.074,0,1,1-11.074-11.074A11.076,11.076,0,0,1,232.117,235.33Z" transform="translate(-205.576 -223.824)" fill="#4e494d"/>
      <path id="Path_102" data-name="Path 102" d="M231.606,231.94a4.963,4.963,0,1,1-4.963-4.963A4.963,4.963,0,0,1,231.606,231.94Z" transform="translate(-208.404 -224.481)" fill="#fcf7f4"/>
      <path id="Path_103" data-name="Path 103" d="M226.7,239.38a2.145,2.145,0,1,1-2.144-2.144A2.145,2.145,0,0,1,226.7,239.38Z" transform="translate(-208.579 -226.958)" fill="#fcf7f4" opacity="0.2"/>
    </g>
  </g>
  <g id="Group_36" data-name="Group 36" transform="translate(92.591 69.158)">
    <path id="Path_104" data-name="Path 104" d="M314.332,238.2a4.963,4.963,0,1,1-4.963-4.963A4.964,4.964,0,0,1,314.332,238.2Z" transform="translate(-283.371 -211.169)" fill="#fcf7f4" opacity="0.2"/>
    <path id="Path_105" data-name="Path 105" d="M305.437,207.613s-.976,2.491-2.484,3.4a7.779,7.779,0,0,0-1.331-5.189s-.7,2.86-2.222,3.845a6.038,6.038,0,0,0-1.854-5.521s-.111,3.046-1.573,3.781c0,0-.4-.084-1.054-.165a14.351,14.351,0,1,0,9.393,8.5C305.411,214.757,307.466,212.1,305.437,207.613Z" transform="translate(-276.676 -204.146)" fill="#4e494d"/>
    <g id="Group_35" data-name="Group 35" transform="translate(0.701 5.88)">
      <path id="Path_106" data-name="Path 106" d="M305.552,225.874A13.976,13.976,0,1,1,291.576,211.9,13.976,13.976,0,0,1,305.552,225.874Z" transform="translate(-277.6 -211.897)" fill="#fcf7f4"/>
      <path id="Path_107" data-name="Path 107" d="M305.537,223.54a11.073,11.073,0,1,1-11.073-11.073A11.073,11.073,0,0,1,305.537,223.54Z" transform="translate(-278.998 -212.035)" fill="#4e494d"/>
      <path id="Path_108" data-name="Path 108" d="M305.028,220.149a4.963,4.963,0,1,1-4.963-4.963A4.962,4.962,0,0,1,305.028,220.149Z" transform="translate(-281.826 -212.691)" fill="#fcf7f4"/>
      <path id="Path_109" data-name="Path 109" d="M300.117,227.59a2.144,2.144,0,1,1-2.144-2.144A2.144,2.144,0,0,1,300.117,227.59Z" transform="translate(-282.001 -215.168)" fill="#fcf7f4" opacity="0.2"/>
    </g>
  </g>
  <path id="Path_110" data-name="Path 110" d="M167.627,256.134c-3.791-3.679-7.514,4.642-.068,3.646h0c-4.559,2.737-.463,7.613,3.369,3.083" transform="translate(-156.702 -147.313)" fill="none" stroke="#f6b57d" stroke-linecap="round" stroke-linejoin="round" stroke-width="2"/>
</svg>
