<svg xmlns="http://www.w3.org/2000/svg" width="43.198" height="63.067" viewBox="0 0 43.198 63.067">
  <g id="Group_374" data-name="Group 374" transform="translate(0 0)">
    <g id="Group_373" data-name="Group 373" transform="translate(0 0)">
      <g id="Group_372" data-name="Group 372">
        <path id="Path_399" data-name="Path 399" d="M282.124,294.775a19.835,19.835,0,0,1-.964-5.243c-.75-8.982-4.07-9.847-4.07-9.847a13.546,13.546,0,0,0-9.807,0s-3.32.866-4.07,9.847a19.843,19.843,0,0,1-.964,5.243c-1.615,4.371-2.082,10.839,3.615,12.387a42.486,42.486,0,0,0,12.644,0C284.206,305.614,283.739,299.146,282.124,294.775Z" transform="translate(-250.686 -250.249)" fill="#fcbd92"/>
        <path id="Path_400" data-name="Path 400" d="M279.449,301.3a15.4,15.4,0,0,1-6.043-.6,9.779,9.779,0,0,1-5.091-3.213,10.5,10.5,0,0,1-2.285-6.126,16.225,16.225,0,0,1,1.207-6.566,12.772,12.772,0,0,1,3.832-4.941,13.5,13.5,0,0,1,1.552-1.12c-.272.012-.435.031-.435.031a8.735,8.735,0,0,0-4.9.919s-3.32.866-4.07,9.847a19.843,19.843,0,0,1-.964,5.243c-1.615,4.371-2.082,10.839,3.615,12.387a42.486,42.486,0,0,0,12.644,0c3.61-.98,4.743-3.937,4.679-7.084A9.516,9.516,0,0,1,279.449,301.3Z" transform="translate(-250.686 -250.249)" fill="#fcbd92" opacity="0.3" style="mix-blend-mode: multiply;isolation: isolate"/>
        <path id="Path_401" data-name="Path 401" d="M261.492,331.074s10.546,1.948,20.372,0a6.117,6.117,0,0,1,.81,5.545s-6.738-.077-7.718,6.49a6.266,6.266,0,0,1-6.593,0s-.725-5.8-7.617-5.822A7.915,7.915,0,0,1,261.492,331.074Z" transform="translate(-250.168 -285.855)" fill="#6bbba5"/>
        <path id="Path_402" data-name="Path 402" d="M273.642,343.36c-1.382.206-3.084.151-4.056-1.017a4.664,4.664,0,0,1-.717-2.55,3.157,3.157,0,0,0-1.773-2.645c-1.315-.565-3.354-.6-3.909-2.212a3.229,3.229,0,0,1,1.321-3.317c.044-.036.089-.071.133-.105-1.956-.218-3.15-.438-3.15-.438a7.915,7.915,0,0,0-.746,6.212c6.892.017,7.617,5.822,7.617,5.822a6.266,6.266,0,0,0,6.593,0c0-.013,0-.024.007-.037A10.7,10.7,0,0,1,273.642,343.36Z" transform="translate(-250.168 -285.855)" fill="#6bbba5" opacity="0.4" style="mix-blend-mode: multiply;isolation: isolate"/>
        <path id="Path_403" data-name="Path 403" d="M315.665,331.074l-.24.045c-.068.9.24,1.835-.173,2.7a4.34,4.34,0,0,1-2.5,1.825,4.6,4.6,0,0,0-1.61.965,3.712,3.712,0,0,0-.915,1.8,5.464,5.464,0,0,0-.108,1.264c2.269-3.09,6.358-3.048,6.358-3.048A6.117,6.117,0,0,0,315.665,331.074Z" transform="translate(-283.969 -285.855)" fill="#6bbba5" opacity="0.4" style="mix-blend-mode: multiply;isolation: isolate"/>
        <g id="Group_319" data-name="Group 319" transform="translate(3.235 50.122)">
          <path id="Path_404" data-name="Path 404" d="M245.928,356.45a16.988,16.988,0,0,1,4.962-5.955c6.784.125,7.617,5.822,7.617,5.822s-2.828,2.732-5.614,2.3c0,0-2.213,2.809-5,1.286Z" transform="translate(-243.546 -349.187)" fill="#fcbd92"/>
          <g id="Group_318" data-name="Group 318">
            <g id="Group_315" data-name="Group 315" transform="translate(0.116 0.092)">
              <path id="Path_405" data-name="Path 405" d="M253.646,348.316a1.286,1.286,0,1,0,1.006-1.6A1.342,1.342,0,0,0,253.646,348.316Z" transform="translate(-248.894 -346.691)" fill="#fcbd92"/>
              <path id="Path_406" data-name="Path 406" d="M249.56,350.974c.108.583.546.991.978.911a.967.967,0,0,0,.586-1.2c-.108-.583-.546-.991-.978-.911A.967.967,0,0,0,249.56,350.974Z" transform="translate(-246.115 -348.78)" fill="#fcbd92"/>
              <path id="Path_407" data-name="Path 407" d="M245.468,353.171c.108.583.546.991.978.912a.967.967,0,0,0,.586-1.2c-.108-.583-.546-.992-.978-.911A.968.968,0,0,0,245.468,353.171Z" transform="translate(-243.333 -350.275)" fill="#fcbd92"/>
              <path id="Path_408" data-name="Path 408" d="M241.691,355.211c.108.583.546.992.978.911a.967.967,0,0,0,.586-1.2c-.108-.583-.546-.992-.978-.912A.967.967,0,0,0,241.691,355.211Z" transform="translate(-240.764 -351.662)" fill="#fcbd92"/>
              <path id="Path_409" data-name="Path 409" d="M238.861,358.441c.082.442.414.751.741.691a.732.732,0,0,0,.444-.91c-.082-.442-.413-.751-.74-.69A.732.732,0,0,0,238.861,358.441Z" transform="translate(-238.842 -354.059)" fill="#fcbd92"/>
              <path id="Path_410" data-name="Path 410" d="M241.3,359.7a5.788,5.788,0,0,0,1.11,1.956,2.719,2.719,0,0,0,2.473.943,2.96,2.96,0,0,0,2.444-3.273,12.576,12.576,0,0,0-.3-2.053,2.6,2.6,0,0,1,.1-1.718,2.693,2.693,0,0,0-.6-3.212l-1.5-.937-4.813,2.542-.193.93a1.089,1.089,0,0,1,.518.825A16.552,16.552,0,0,0,241.3,359.7Z" transform="translate(-239.644 -349.899)" fill="#fcbd92"/>
              <g id="Group_312" data-name="Group 312" transform="translate(0.018 2.056)">
                <g id="Group_311" data-name="Group 311">
                  <path id="Path_411" data-name="Path 411" d="M245.149,353.827l-.174.033-.18.005-.179-.024-.175-.05-.168-.074-.157-.1c-.048-.039-.1-.076-.144-.117l-.126-.136.147-.044a1.5,1.5,0,0,1-.035.254,1.166,1.166,0,0,1-.084.247,1.007,1.007,0,0,1-.148.224,1.189,1.189,0,0,1-.1.095.73.73,0,0,1-.119.076.579.579,0,0,1-.133.053l-.035.011-.009,0-.014,0h0l-.015,0-.059.008a.8.8,0,0,1-.151,0,.815.815,0,0,1-.139-.033,1.035,1.035,0,0,1-.45-.31l.245-.1a1.812,1.812,0,0,1-.009.266,1.085,1.085,0,0,1-.059.263.657.657,0,0,1-.052.127.688.688,0,0,1-.067.122l-.083.115-.106.1a.733.733,0,0,1-.123.082.482.482,0,0,1-.138.058l-.072.022-.009,0-.027,0h-.015l-.03,0a.928.928,0,0,1-.125,0c-.053-.008-.108-.019-.161-.031a.654.654,0,0,1-.137-.057,1.087,1.087,0,0,1-.234-.158l.247-.1a1.578,1.578,0,0,1-.046.265.744.744,0,0,1-.042.13,1.105,1.105,0,0,1-.056.126,1,1,0,0,1-.165.227.859.859,0,0,1-.237.167.674.674,0,0,1-.139.048l-.036.009a.22.22,0,0,1-.042.005l-.06.005a.911.911,0,0,1-.154-.01.8.8,0,0,1-.139-.038,1.009,1.009,0,0,1-.43-.331l.2-.092c.01.064.009.1.014.148a1,1,0,0,1,0,.156.917.917,0,0,1-.076.3.711.711,0,0,1-.178.259.546.546,0,0,1-.131.094.677.677,0,0,1-.154.051.858.858,0,0,1-.153,0,.636.636,0,0,1-.156-.048.592.592,0,0,1-.128-.081.616.616,0,0,1-.106-.1.665.665,0,0,1-.085-.119.711.711,0,0,1-.064-.129,1.246,1.246,0,0,1-.069-.275,1.238,1.238,0,0,0,.108.256.8.8,0,0,0,.075.114.58.58,0,0,0,.09.1.508.508,0,0,0,.1.081.476.476,0,0,0,.115.056.557.557,0,0,0,.114.024.769.769,0,0,0,.127-.012.739.739,0,0,0,.107-.048.4.4,0,0,0,.091-.076.534.534,0,0,0,.122-.209.728.728,0,0,0,.043-.243.659.659,0,0,0,0-.124c-.007-.042-.013-.1-.02-.13l-.124-.453.321.361a.793.793,0,0,0,.342.231.483.483,0,0,0,.094.022.689.689,0,0,0,.087,0l.06-.007s.033,0,.018,0l.022-.008a.4.4,0,0,0,.087-.033.588.588,0,0,0,.151-.115.826.826,0,0,0,.112-.166.871.871,0,0,0,.041-.1.526.526,0,0,0,.031-.1,1.272,1.272,0,0,0,.035-.21l.033-.234.214.135a.837.837,0,0,0,.167.109.41.41,0,0,0,.085.035.468.468,0,0,1,.075.019,1.035,1.035,0,0,0,.116,0h.051l-.019,0h0l.005,0,.043-.014a.248.248,0,0,0,.084-.034.463.463,0,0,0,.078-.051l.071-.065.059-.081a.448.448,0,0,0,.05-.089.43.43,0,0,0,.041-.1.936.936,0,0,0,.05-.206,1.462,1.462,0,0,0,.015-.216l.034-.358.211.262a.768.768,0,0,0,.321.243.586.586,0,0,0,.093.026.745.745,0,0,0,.088.008l.06,0h.019c-.018,0,0,0-.007,0h.006l.023-.006a.349.349,0,0,0,.092-.029.51.51,0,0,0,.086-.047c.026-.022.055-.039.079-.064a.8.8,0,0,0,.128-.168.944.944,0,0,0,.084-.2,1.351,1.351,0,0,0,.046-.219l.035-.193.112.149a1.942,1.942,0,0,0,.222.248l.132.1.146.086.158.065.167.042.171.02Z" transform="translate(-238.9 -353.12)" fill="#e8a67a"/>
                </g>
              </g>
              <g id="Group_314" data-name="Group 314" transform="translate(1.412 3.36)">
                <g id="Group_313" data-name="Group 313">
                  <path id="Path_412" data-name="Path 412" d="M247.779,357.491a.192.192,0,0,0-.048-.043l-.062-.041-.1-.035a.968.968,0,0,0-.266-.04c-.1,0-.225.028-.351.037l-.406.112c-.143.04-.288.117-.441.172l-.232.092-.23.118-.472.235a3.929,3.929,0,0,0-.453.256c-.143.1-.288.185-.417.286a3.893,3.893,0,0,0-.655.6,2.1,2.1,0,0,0-.205.288,1.306,1.306,0,0,0-.118.249,1.7,1.7,0,0,0-.047.173l-.015.064v-.065a.932.932,0,0,1,.007-.186,1.393,1.393,0,0,1,.073-.283,1.565,1.565,0,0,1,.167-.343,3.088,3.088,0,0,1,.63-.707,4.442,4.442,0,0,1,.423-.322,4.129,4.129,0,0,1,.473-.279l.491-.233.242-.111.249-.083a4.041,4.041,0,0,1,.476-.14c.158-.027.306-.052.444-.067a3.131,3.131,0,0,1,.383.023,1.028,1.028,0,0,1,.279.1l.092.058.054.06A.186.186,0,0,1,247.779,357.491Z" transform="translate(-243.258 -357.198)" fill="#e8a67a"/>
                </g>
              </g>
            </g>
            <g id="Group_317" data-name="Group 317">
              <g id="Group_316" data-name="Group 316">
                <path id="Path_413" data-name="Path 413" d="M246.264,355.926c-.029-.3-.062-.607-.1-.909-.017-.152-.047-.3-.071-.451a3.974,3.974,0,0,0-.091-.447c-.035-.145-.075-.3-.106-.446l-.05-.223-.012-.235c0-.078-.012-.158-.007-.236l.028-.232a2,2,0,0,1,.1-.457c.043-.154.087-.29.135-.438a3.694,3.694,0,0,0,.1-.433,3.385,3.385,0,0,0,.035-.44,2.848,2.848,0,0,0-.027-.438,2.39,2.39,0,0,0-.1-.424,1.435,1.435,0,0,0-.077-.2,1.412,1.412,0,0,0-.095-.2,2.447,2.447,0,0,0-.238-.363c-.047-.055-.092-.112-.143-.162-.024-.027-.05-.052-.075-.076l-.038-.036-.019-.017c-.025-.018.036.028.065.014l-.093-.232.1-.108.087-.121a1.442,1.442,0,0,0,.127-.269,1.343,1.343,0,0,0,.057-.593l-.009-.075-.019-.068-.044-.159a2.59,2.59,0,0,0-.124-.265,1.369,1.369,0,0,0-.188-.235l-.109-.1c-.04-.03-.084-.054-.126-.082a1.188,1.188,0,0,0-.273-.126,1.338,1.338,0,0,0-.3-.043l-.151.008-.038,0-.031.008-.08.021a1.141,1.141,0,0,0-.281.115,1.309,1.309,0,0,0-.424.442,1.369,1.369,0,0,0-.118.29,1.468,1.468,0,0,0-.055.31l-.018.111-.086-.075a1.368,1.368,0,0,0-.179-.164l-.1-.063a.444.444,0,0,0-.112-.04.285.285,0,0,0-.115-.023l-.118,0a.63.63,0,0,0-.117.031c-.046.009-.068.037-.1.054a.386.386,0,0,0-.092.073.372.372,0,0,0-.08.09.953.953,0,0,0-.121.214,1.107,1.107,0,0,0-.06.241,1.514,1.514,0,0,0-.013.25l-.006.123-.077-.091a.849.849,0,0,0-.366-.26.574.574,0,0,0-.217-.031.428.428,0,0,0-.106.018.448.448,0,0,0-.108.04.616.616,0,0,0-.09.056c-.027.025-.058.046-.083.074a.845.845,0,0,0-.128.184.942.942,0,0,0-.077.214,1.37,1.37,0,0,0-.035.226l-.013.106-.09-.065-.106-.076a.539.539,0,0,0-.114-.058.343.343,0,0,0-.12-.035.287.287,0,0,0-.123-.009l-.061,0h-.015s-.014,0,0,0l-.008,0-.033.012a.656.656,0,0,0-.126.05l-.094.066-.084.093a.722.722,0,0,0-.068.107.433.433,0,0,0-.053.116.727.727,0,0,0-.04.122l-.024.128a.979.979,0,0,0-.007.13.632.632,0,0,0,0,.13l.016.13a1.2,1.2,0,0,0,.028.132l.052.252-.216-.164c-.035-.027-.068-.058-.1-.083a.643.643,0,0,0-.116-.053.324.324,0,0,0-.12-.015l-.059,0s-.041.015-.06.021c-.059.015-.068.043-.1.059a.816.816,0,0,0-.083.091.67.67,0,0,0-.061.115.614.614,0,0,0-.039.128.842.842,0,0,0-.013.272l.009.068c0,.006,0,.035,0,.022l.012.037.046.148a.636.636,0,0,0,.062.115.328.328,0,0,0,.074.1c.031.029.055.07.091.09l.1.066.019.01a1.239,1.239,0,0,1,.492.866l.1.9.133.889c.042.3.12.586.178.879a8.037,8.037,0,0,0,.23.864l.125.423.167.422a4.314,4.314,0,0,0,.187.4,2.8,2.8,0,0,0,.211.384,5.26,5.26,0,0,0,.509.7,3.246,3.246,0,0,0,.665.563,3.059,3.059,0,0,0,.38.207,2.938,2.938,0,0,0,.409.136,2.241,2.241,0,0,0,.854.046,3.43,3.43,0,0,0,.844-.252,2.78,2.78,0,0,0,1.287-1.185A3.2,3.2,0,0,0,246.264,355.926Zm.03,0a3.251,3.251,0,0,1-.325,1.774,2.832,2.832,0,0,1-.534.746,3.159,3.159,0,0,1-.745.546,3.625,3.625,0,0,1-.874.313,2.306,2.306,0,0,1-.473.045c-.079,0-.16,0-.238-.008l-.235-.041a3.146,3.146,0,0,1-.455-.136,3.272,3.272,0,0,1-.423-.213,3.406,3.406,0,0,1-.733-.583,5.4,5.4,0,0,1-.558-.759,3.068,3.068,0,0,1-.228-.408,4.6,4.6,0,0,1-.2-.42l-.169-.421-.136-.446a7.435,7.435,0,0,1-.238-.888c-.056-.3-.131-.6-.17-.9l-.123-.907-.088-.9a.994.994,0,0,0-.36-.677l.018.01-.156-.1a.856.856,0,0,1-.125-.13.548.548,0,0,1-.1-.151,1.029,1.029,0,0,1-.076-.161l-.042-.149-.011-.037a.284.284,0,0,1-.008-.054l-.008-.086a1.07,1.07,0,0,1,.028-.343.809.809,0,0,1,.056-.166.894.894,0,0,1,.089-.155.913.913,0,0,1,.129-.132.591.591,0,0,1,.168-.089l.088-.026.1,0a.5.5,0,0,1,.184.03.825.825,0,0,1,.162.08c.048.035.09.076.134.114l-.163.088a1.3,1.3,0,0,1-.027-.143l-.014-.149a.772.772,0,0,1,0-.149,1.211,1.211,0,0,1,.013-.148l.032-.147a.883.883,0,0,1,.051-.142.539.539,0,0,1,.067-.135.839.839,0,0,1,.086-.125l.107-.111c.045-.031.093-.06.14-.088a.732.732,0,0,1,.135-.049l.033-.011.008,0c.022-.005.012,0,.019,0h.02l.078,0a.394.394,0,0,1,.154.016.452.452,0,0,1,.145.048.682.682,0,0,1,.132.073l.118.092-.1.042a1.511,1.511,0,0,1,.046-.248,1.166,1.166,0,0,1,.091-.235.962.962,0,0,1,.148-.208c.029-.031.065-.056.1-.085a.661.661,0,0,1,.115-.068.692.692,0,0,1,.247-.063.667.667,0,0,1,.255.039.943.943,0,0,1,.406.294l-.083.032a1.586,1.586,0,0,1,.017-.267,1.37,1.37,0,0,1,.064-.261,1.033,1.033,0,0,1,.13-.239.432.432,0,0,1,.09-.1.485.485,0,0,1,.109-.089.566.566,0,0,1,.125-.065.739.739,0,0,1,.132-.036l.141,0a.374.374,0,0,1,.137.024.59.59,0,0,1,.132.045l.119.071a1.428,1.428,0,0,1,.2.181l-.1.035a1.916,1.916,0,0,1,.051-.338,1.513,1.513,0,0,1,.118-.323,1.461,1.461,0,0,1,.459-.516,1.341,1.341,0,0,1,.32-.147l.079-.024a.451.451,0,0,1,.048-.013l.044,0,.177-.016a1.549,1.549,0,0,1,.353.038,1.4,1.4,0,0,1,.328.136c.051.031.1.059.152.092l.134.117a1.611,1.611,0,0,1,.232.27,2.048,2.048,0,0,1,.162.326l.046.158.025.09.012.089a1.6,1.6,0,0,1-.06.707,1.718,1.718,0,0,1-.15.327l-.1.148-.122.135-.093-.232a.218.218,0,0,1,.109.05l.024.021.045.042a1.172,1.172,0,0,1,.085.087c.056.059.1.122.155.185a2.669,2.669,0,0,1,.254.407,1.683,1.683,0,0,1,.1.218,1.627,1.627,0,0,1,.08.226,2.669,2.669,0,0,1,.1.467l.02.238c0,.079-.005.159-.007.238a3.6,3.6,0,0,1-.062.468,3.935,3.935,0,0,1-.131.452c-.052.14-.111.291-.156.43a1.86,1.86,0,0,0-.117.43l-.038.22c-.007.074,0,.147,0,.222v.223l.039.225c.026.151.052.3.087.448a4.136,4.136,0,0,1,.084.452c.021.151.049.3.063.454C246.243,355.315,246.27,355.619,246.294,355.923Z" transform="translate(-238.481 -346.404)" fill="#e8a67a"/>
              </g>
            </g>
          </g>
        </g>
        <g id="Group_328" data-name="Group 328" transform="translate(25.084 49.928)">
          <path id="Path_414" data-name="Path 414" d="M319.375,355.844a16.984,16.984,0,0,0-4.962-5.956c-6.784.125-7.617,5.822-7.617,5.822s2.828,2.733,5.614,2.3c0,0,2.213,2.809,5,1.286Z" transform="translate(-306.796 -348.58)" fill="#fcbd92"/>
          <g id="Group_327" data-name="Group 327" transform="translate(6.993)">
            <g id="Group_324" data-name="Group 324" transform="translate(0.111 0.092)">
              <path id="Path_415" data-name="Path 415" d="M332.937,347.71a1.286,1.286,0,1,1-1.006-1.606A1.342,1.342,0,0,1,332.937,347.71Z" transform="translate(-329.948 -346.084)" fill="#fcbd92"/>
              <path id="Path_416" data-name="Path 416" d="M339.063,350.368c-.108.584-.546.991-.978.911a.968.968,0,0,1-.586-1.2c.108-.583.546-.992.978-.911A.967.967,0,0,1,339.063,350.368Z" transform="translate(-334.767 -348.174)" fill="#fcbd92"/>
              <path id="Path_417" data-name="Path 417" d="M343.155,352.565c-.108.583-.546.991-.978.912a.967.967,0,0,1-.586-1.2c.108-.584.546-.992.978-.912A.967.967,0,0,1,343.155,352.565Z" transform="translate(-337.549 -349.668)" fill="#fcbd92"/>
              <path id="Path_418" data-name="Path 418" d="M346.932,354.6c-.108.584-.546.992-.978.912a.967.967,0,0,1-.586-1.2c.108-.583.546-.992.978-.911A.967.967,0,0,1,346.932,354.6Z" transform="translate(-340.119 -351.055)" fill="#fcbd92"/>
              <path id="Path_419" data-name="Path 419" d="M350.594,357.834c-.082.442-.414.751-.741.69a.732.732,0,0,1-.444-.91c.082-.442.414-.751.741-.691A.733.733,0,0,1,350.594,357.834Z" transform="translate(-342.872 -353.452)" fill="#fcbd92"/>
              <path id="Path_420" data-name="Path 420" d="M335.094,359.094a5.793,5.793,0,0,1-1.111,1.957,2.717,2.717,0,0,1-2.472.942,2.96,2.96,0,0,1-2.445-3.273,12.567,12.567,0,0,1,.3-2.053,2.6,2.6,0,0,0-.1-1.717,2.693,2.693,0,0,1,.6-3.212l1.5-.937,4.813,2.541.192.93a1.089,1.089,0,0,0-.518.825A16.56,16.56,0,0,1,335.094,359.094Z" transform="translate(-329.007 -349.292)" fill="#fcbd92"/>
              <g id="Group_321" data-name="Group 321" transform="translate(1.474 2.056)">
                <g id="Group_320" data-name="Group 320">
                  <path id="Path_421" data-name="Path 421" d="M333.616,353.22l.176.005.172-.019.167-.042.158-.065.146-.086.133-.1a1.937,1.937,0,0,0,.222-.249l.112-.149.035.193a1.337,1.337,0,0,0,.046.219.95.95,0,0,0,.084.2.776.776,0,0,0,.128.167c.024.025.053.042.079.064a.527.527,0,0,0,.087.048.37.37,0,0,0,.092.029l.023.006.006,0s.012,0-.007,0h.019l.06,0a.8.8,0,0,0,.088-.009.529.529,0,0,0,.093-.026.768.768,0,0,0,.321-.242l.211-.262.034.358a1.473,1.473,0,0,0,.015.216.924.924,0,0,0,.05.206.425.425,0,0,0,.04.1.463.463,0,0,0,.05.089l.059.081.071.065a.468.468,0,0,0,.078.05.245.245,0,0,0,.084.034l.043.014.005,0h0l-.019,0h.021l.03,0a.969.969,0,0,0,.116,0,.474.474,0,0,1,.075-.019.4.4,0,0,0,.085-.036.792.792,0,0,0,.167-.109l.213-.135.033.235a1.275,1.275,0,0,0,.035.21.5.5,0,0,0,.031.1.816.816,0,0,0,.153.261.586.586,0,0,0,.151.115.386.386,0,0,0,.087.033l.022.008c-.015,0,.013,0,.017,0l.06.007a.834.834,0,0,0,.087,0,.56.56,0,0,0,.094-.023.8.8,0,0,0,.341-.232l.349-.392-.153.489c-.006.019-.013.085-.02.125a.658.658,0,0,0,0,.124.728.728,0,0,0,.043.243.536.536,0,0,0,.122.209.392.392,0,0,0,.09.075.782.782,0,0,0,.107.048.846.846,0,0,0,.127.012.615.615,0,0,0,.114-.024.476.476,0,0,0,.116-.056.524.524,0,0,0,.1-.081.58.58,0,0,0,.09-.1.743.743,0,0,0,.075-.114,1.217,1.217,0,0,0,.108-.256,1.264,1.264,0,0,1-.069.275.7.7,0,0,1-.064.129.648.648,0,0,1-.084.119.591.591,0,0,1-.106.1.582.582,0,0,1-.128.081.618.618,0,0,1-.156.048.826.826,0,0,1-.153,0,.666.666,0,0,1-.154-.051.551.551,0,0,1-.131-.094.705.705,0,0,1-.178-.258.921.921,0,0,1-.076-.3.942.942,0,0,1,0-.156c.005-.052,0-.081.014-.153l.2.1a1,1,0,0,1-.43.331.735.735,0,0,1-.139.038.88.88,0,0,1-.154.01l-.06-.005a.241.241,0,0,1-.042-.006l-.036-.009a.664.664,0,0,1-.139-.047.868.868,0,0,1-.237-.167.992.992,0,0,1-.165-.228,1.056,1.056,0,0,1-.056-.125.735.735,0,0,1-.042-.13,1.567,1.567,0,0,1-.046-.266l.247.1a1.108,1.108,0,0,1-.234.158.675.675,0,0,1-.137.057c-.053.012-.108.023-.161.031a.887.887,0,0,1-.125,0l-.03,0h-.015l-.028,0-.009,0-.072-.022a.481.481,0,0,1-.138-.058.728.728,0,0,1-.123-.082l-.106-.1-.083-.115a.706.706,0,0,1-.067-.122.664.664,0,0,1-.052-.127,1.082,1.082,0,0,1-.059-.264,1.768,1.768,0,0,1-.009-.266l.245.1a1.035,1.035,0,0,1-.45.311.874.874,0,0,1-.139.033.778.778,0,0,1-.151,0l-.059-.008-.015,0h0c-.021,0-.008,0-.014,0l-.009,0-.035-.011a.58.58,0,0,1-.133-.053.757.757,0,0,1-.119-.076,1.366,1.366,0,0,1-.1-.095,1.007,1.007,0,0,1-.147-.224,1.152,1.152,0,0,1-.084-.247,1.535,1.535,0,0,1-.035-.254l.147.044-.126.137c-.047.04-.1.078-.144.116l-.157.1-.168.074-.175.05-.179.023-.18-.006Z" transform="translate(-333.616 -352.513)" fill="#e8a67a"/>
                </g>
              </g>
              <g id="Group_323" data-name="Group 323" transform="translate(1.808 3.36)">
                <g id="Group_322" data-name="Group 322">
                  <path id="Path_422" data-name="Path 422" d="M334.659,356.884a.188.188,0,0,1,.036-.053l.055-.06.092-.058a1.015,1.015,0,0,1,.279-.1,3.068,3.068,0,0,1,.383-.023c.137.015.286.04.444.067a4.048,4.048,0,0,1,.476.14l.249.083.242.111.492.232a4.155,4.155,0,0,1,.473.28,4.449,4.449,0,0,1,.423.322,3.08,3.08,0,0,1,.63.707,1.57,1.57,0,0,1,.167.343,1.409,1.409,0,0,1,.073.283.993.993,0,0,1,.007.186v.065l-.016-.063a1.539,1.539,0,0,0-.047-.174,1.3,1.3,0,0,0-.117-.249,2.112,2.112,0,0,0-.205-.289,3.894,3.894,0,0,0-.655-.6c-.129-.1-.273-.191-.417-.286a3.945,3.945,0,0,0-.454-.256l-.472-.235-.23-.118-.232-.092c-.154-.055-.3-.132-.441-.172l-.406-.113c-.126-.009-.246-.034-.351-.037a.955.955,0,0,0-.267.04l-.1.034-.062.041A.193.193,0,0,0,334.659,356.884Z" transform="translate(-334.659 -356.591)" fill="#e8a67a"/>
                </g>
              </g>
            </g>
            <g id="Group_326" data-name="Group 326">
              <g id="Group_325" data-name="Group 325">
                <path id="Path_423" data-name="Path 423" d="M328.816,355.317c.023-.3.052-.608.088-.912.014-.153.042-.3.063-.454a4.182,4.182,0,0,1,.084-.452c.035-.153.062-.3.087-.448l.039-.226V352.6c0-.074,0-.148,0-.221l-.038-.221a1.876,1.876,0,0,0-.117-.429c-.045-.138-.1-.29-.156-.43a4,4,0,0,1-.131-.452,3.542,3.542,0,0,1-.062-.469c0-.079-.008-.159-.007-.238l.02-.238a2.624,2.624,0,0,1,.1-.467,1.624,1.624,0,0,1,.08-.226,1.747,1.747,0,0,1,.1-.218,2.671,2.671,0,0,1,.255-.407c.05-.063.1-.127.155-.185a1.1,1.1,0,0,1,.085-.087l.046-.042.024-.02a.215.215,0,0,1,.109-.05l-.093.232-.122-.135-.1-.148a1.7,1.7,0,0,1-.15-.327,1.6,1.6,0,0,1-.061-.707l.012-.088.026-.091.046-.158a2.075,2.075,0,0,1,.162-.326,1.609,1.609,0,0,1,.232-.269l.134-.117c.049-.034.1-.062.153-.092a1.413,1.413,0,0,1,.328-.136,1.53,1.53,0,0,1,.353-.037l.177.016.044,0c.03.007.031.009.048.013l.079.024a1.369,1.369,0,0,1,.32.147,1.423,1.423,0,0,1,.261.232,1.38,1.38,0,0,1,.2.284,1.51,1.51,0,0,1,.118.323,1.9,1.9,0,0,1,.051.338l-.1-.035a.955.955,0,0,1,.453-.3.692.692,0,0,1,.28-.015.927.927,0,0,1,.132.038.537.537,0,0,1,.125.065.477.477,0,0,1,.109.088.44.44,0,0,1,.09.1,1.032,1.032,0,0,1,.13.239,1.376,1.376,0,0,1,.064.261,1.58,1.58,0,0,1,.017.267l-.083-.033a.949.949,0,0,1,.406-.294.673.673,0,0,1,.255-.039.524.524,0,0,1,.13.022.474.474,0,0,1,.116.042.694.694,0,0,1,.115.068,1.166,1.166,0,0,1,.1.085.956.956,0,0,1,.148.208,1.182,1.182,0,0,1,.091.236,1.5,1.5,0,0,1,.046.247l-.1-.042.118-.092a.7.7,0,0,1,.132-.073.474.474,0,0,1,.146-.048.407.407,0,0,1,.154-.016l.078,0H335a.063.063,0,0,1,.019,0l.008,0,.034.01a.767.767,0,0,1,.135.049c.047.028.094.057.14.088l.107.11a.838.838,0,0,1,.086.126.546.546,0,0,1,.068.135.878.878,0,0,1,.05.142l.032.147a1.148,1.148,0,0,1,.013.149.746.746,0,0,1,0,.149l-.014.149a1.423,1.423,0,0,1-.027.143l-.163-.088c.044-.038.086-.079.134-.114a.845.845,0,0,1,.162-.08.519.519,0,0,1,.184-.03l.095,0,.088.026a.607.607,0,0,1,.168.089.9.9,0,0,1,.129.132.923.923,0,0,1,.089.155.836.836,0,0,1,.056.166,1.066,1.066,0,0,1,.028.343l-.008.085a.308.308,0,0,1-.008.055l-.011.037-.042.149a1,1,0,0,1-.076.162.538.538,0,0,1-.1.151.851.851,0,0,1-.125.13l-.156.1.019-.01a1,1,0,0,0-.36.677l-.088.9-.123.906c-.039.3-.114.6-.17.9a7.519,7.519,0,0,1-.238.887l-.136.446-.17.421c-.05.14-.131.28-.2.42a3.085,3.085,0,0,1-.228.408,5.393,5.393,0,0,1-.558.759,3.394,3.394,0,0,1-.733.583,3.226,3.226,0,0,1-.423.212,3.118,3.118,0,0,1-.455.136l-.235.041c-.078.01-.159.005-.238.008a2.251,2.251,0,0,1-.473-.045,3.6,3.6,0,0,1-.874-.313,3.168,3.168,0,0,1-.745-.546,2.824,2.824,0,0,1-.534-.746A3.249,3.249,0,0,1,328.816,355.317Zm.03,0a3.2,3.2,0,0,0,.353,1.741,2.785,2.785,0,0,0,1.288,1.185,3.432,3.432,0,0,0,.844.252,2.233,2.233,0,0,0,.854-.046,2.877,2.877,0,0,0,.409-.136,3.063,3.063,0,0,0,.38-.207,3.236,3.236,0,0,0,.664-.564,5.241,5.241,0,0,0,.509-.7,2.825,2.825,0,0,0,.212-.384,4.375,4.375,0,0,0,.187-.4l.167-.421.125-.423a8.038,8.038,0,0,0,.23-.864c.058-.293.136-.583.178-.879l.133-.889.1-.9a1.24,1.24,0,0,1,.492-.866l.018-.011.1-.066c.036-.02.06-.061.091-.09a.33.33,0,0,0,.074-.1.6.6,0,0,0,.062-.115l.046-.148.012-.037c0,.013,0-.016,0-.022l.009-.069a.831.831,0,0,0-.013-.272.623.623,0,0,0-.039-.128.724.724,0,0,0-.061-.115.763.763,0,0,0-.083-.091c-.033-.017-.043-.045-.1-.059-.018-.007-.063-.021-.059-.021l-.06,0a.312.312,0,0,0-.12.016.632.632,0,0,0-.116.053c-.036.025-.069.056-.1.083l-.216.165.052-.253a1.2,1.2,0,0,0,.029-.132l.016-.13a.642.642,0,0,0,0-.13,1.05,1.05,0,0,0-.007-.131l-.024-.128a.746.746,0,0,0-.04-.123.437.437,0,0,0-.053-.116.705.705,0,0,0-.068-.107l-.084-.093-.094-.066a.647.647,0,0,0-.126-.05l-.033-.012-.008,0c.016,0,0,0,0,0h-.015l-.061,0a.292.292,0,0,0-.123.009.347.347,0,0,0-.12.036.556.556,0,0,0-.114.058l-.106.076-.089.065-.014-.107a1.343,1.343,0,0,0-.035-.226.927.927,0,0,0-.077-.214.847.847,0,0,0-.128-.185c-.025-.028-.056-.049-.083-.074a.627.627,0,0,0-.09-.056.431.431,0,0,0-.108-.04.386.386,0,0,0-.106-.018.568.568,0,0,0-.217.03.849.849,0,0,0-.366.26l-.077.091-.006-.124a1.478,1.478,0,0,0-.013-.25,1.1,1.1,0,0,0-.06-.241.935.935,0,0,0-.121-.214.375.375,0,0,0-.08-.091.4.4,0,0,0-.092-.073.4.4,0,0,0-.1-.053.849.849,0,0,0-.117-.032.58.58,0,0,0-.234.016.839.839,0,0,0-.392.272l-.083.1-.021-.134a1.462,1.462,0,0,0-.055-.31,1.378,1.378,0,0,0-.118-.289,1.313,1.313,0,0,0-.424-.443,1.162,1.162,0,0,0-.281-.115l-.08-.021-.031-.008-.038,0-.152-.008a1.375,1.375,0,0,0-.3.043,1.193,1.193,0,0,0-.273.126c-.042.028-.086.052-.126.082l-.109.1a1.378,1.378,0,0,0-.188.235,2.521,2.521,0,0,0-.124.265l-.044.159-.019.068-.008.075a1.341,1.341,0,0,0,.057.592,1.454,1.454,0,0,0,.127.269l.087.121.1.108-.093.232c.028.015.09-.031.065-.014l-.019.017-.038.036c-.026.025-.051.05-.075.076-.051.05-.1.107-.143.162a2.43,2.43,0,0,0-.238.363,1.474,1.474,0,0,0-.095.2,1.358,1.358,0,0,0-.077.2,2.429,2.429,0,0,0-.1.424,2.886,2.886,0,0,0-.027.438,3.394,3.394,0,0,0,.036.44,3.7,3.7,0,0,0,.1.432c.048.149.092.285.135.439a2,2,0,0,1,.1.457l.028.232c0,.078-.005.157-.007.236l-.012.234-.051.224c-.031.149-.071.3-.106.447a4.132,4.132,0,0,0-.091.446c-.024.15-.054.3-.071.452C328.908,354.712,328.875,355.015,328.846,355.319Z" transform="translate(-328.662 -345.798)" fill="#e8a67a"/>
              </g>
            </g>
          </g>
        </g>
        <g id="Group_329" data-name="Group 329" transform="translate(25.475 25.996)">
          <path id="Path_424" data-name="Path 424" d="M308.016,283.711a14.43,14.43,0,0,1,12.487-3.343l.777,2.309s-5.571,6.093-12.165,4.861Z" transform="translate(-308.016 -277.167)" fill="#fcbd92"/>
          <path id="Path_425" data-name="Path 425" d="M344.58,270.974c-.638-.052-.625.83-.625.83l-.178.926c-.169.878-1.281,1.164-1.3,2.208a2.447,2.447,0,0,0,3.237,2.218,3.349,3.349,0,0,1,.47-.227l1.153.633c.361.223.491.009.491.009a.433.433,0,0,0-.107-.641l-.854-.568c-.042-.172.244-.151.244-.151l1.575-.09a.431.431,0,0,0,.374-.567c-.022-.479-.622-.342-.622-.342l-1.453.123a.149.149,0,0,1-.069-.236l1.9-1c.492-.287.335-.61.335-.61-.284-.567-.942-.181-.942-.181l-1.92.782c-.2.016-.059-.182-.059-.182l1.593-1.664c.464-.456.142-.73.142-.73a.487.487,0,0,0-.769.046c-2.363,2.146-2.344,1.242-2.344,1.242l.216-.812S345.334,271.036,344.58,270.974Z" transform="translate(-331.455 -270.972)" fill="#fcbd92"/>
        </g>
        <g id="Group_330" data-name="Group 330" transform="translate(0 25.996)">
          <path id="Path_426" data-name="Path 426" d="M255.575,283.711a14.431,14.431,0,0,0-12.487-3.343l-.777,2.309s5.571,6.093,12.165,4.861Z" transform="translate(-237.851 -277.167)" fill="#fcbd92"/>
          <path id="Path_427" data-name="Path 427" d="M232.965,270.974c.638-.052.625.83.625.83l.178.926c.169.878,1.281,1.164,1.3,2.208a2.447,2.447,0,0,1-3.237,2.218,3.356,3.356,0,0,0-.47-.227l-1.153.633c-.361.223-.491.009-.491.009a.433.433,0,0,1,.107-.641l.854-.568c.042-.172-.244-.151-.244-.151l-1.575-.09a.431.431,0,0,1-.373-.567c.021-.479.622-.342.622-.342l1.453.123a.149.149,0,0,0,.068-.236l-1.9-1c-.492-.287-.335-.61-.335-.61.284-.567.942-.181.942-.181l1.92.782c.2.016.059-.182.059-.182l-1.594-1.664c-.464-.456-.143-.73-.143-.73a.487.487,0,0,1,.77.046c2.363,2.146,2.345,1.242,2.345,1.242l-.216-.812S232.211,271.036,232.965,270.974Z" transform="translate(-228.366 -270.972)" fill="#fcbd92"/>
        </g>
        <g id="Group_371" data-name="Group 371" transform="translate(4.443)">
          <g id="Group_341" data-name="Group 341" transform="translate(0 16.298)">
            <g id="Group_335" data-name="Group 335" transform="translate(29.953)">
              <path id="Path_428" data-name="Path 428" d="M335.915,243.726c-.073,1.7.881,3.071,2.128,3.066s2.314-1.378,2.385-3.076-.883-3.069-2.13-3.067S335.985,242.029,335.915,243.726Z" transform="translate(-335.911 -240.648)" fill="#fcbd92"/>
              <g id="Group_332" data-name="Group 332" transform="translate(1.672 0.583)" style="mix-blend-mode: multiply;isolation: isolate">
                <g id="Group_331" data-name="Group 331">
                  <path id="Path_429" data-name="Path 429" d="M341.212,244.262a2.444,2.444,0,0,1,.02-.252,2.326,2.326,0,0,1,.179-.631.932.932,0,0,1,.614-.58.988.988,0,0,1,.238-.009c.014.005.1.016.127.027a.856.856,0,0,1,.458.358,1.681,1.681,0,0,1,.233.449,1.572,1.572,0,0,1,.1.47c-.005.17.016.341,0,.49s-.026.295-.037.428-.04.259-.054.37-.043.206-.056.286c-.034.158-.048.251-.048.251s.048-.084.123-.235c.033-.077.087-.167.126-.276s.09-.232.137-.368.074-.291.109-.453a3.811,3.811,0,0,0,.054-.5,1.554,1.554,0,0,0-.078-.567,1.954,1.954,0,0,0-.262-.537,1.3,1.3,0,0,0-.516-.426,1.019,1.019,0,0,0-.19-.063,1.166,1.166,0,0,0-.545.011.955.955,0,0,0-.541.369,1.316,1.316,0,0,0-.21.451,1.87,1.87,0,0,0-.036.684A1.15,1.15,0,0,0,341.212,244.262Z" transform="translate(-341.139 -242.472)" fill="#ccc"/>
                </g>
              </g>
              <path id="Path_430" data-name="Path 430" d="M341.305,247.414s-.146-.162.647-.309a.572.572,0,0,1,.547.883,2.063,2.063,0,0,0-.163.588c-.026.285.188.639.019.912a.669.669,0,0,1-1.066-.09c-.085-.271.237-.8.389-1.019A.605.605,0,0,0,341.305,247.414Z" transform="translate(-339.56 -245.04)" fill="#ccc" style="mix-blend-mode: multiply;isolation: isolate"/>
              <g id="Group_334" data-name="Group 334" transform="translate(1.56 4.323)" style="mix-blend-mode: multiply;isolation: isolate">
                <g id="Group_333" data-name="Group 333">
                  <path id="Path_431" data-name="Path 431" d="M340.951,254.165a.3.3,0,0,0-.053.052.494.494,0,0,0-.089.169.375.375,0,0,0-.019.122.3.3,0,0,0,.012.139,1.083,1.083,0,0,0,.047.144.914.914,0,0,0,.092.129.629.629,0,0,0,.115.113,1.252,1.252,0,0,0,.137.079.6.6,0,0,0,.267.087,1.043,1.043,0,0,0,.282.01,1.221,1.221,0,0,0-.163-.183.626.626,0,0,0-.082-.068,1.11,1.11,0,0,0-.074-.083.762.762,0,0,0-.083-.078c-.034-.022-.045-.058-.069-.084a.876.876,0,0,1-.132-.167.6.6,0,0,1-.052-.086c-.012-.03-.038-.058-.047-.085A2.115,2.115,0,0,1,340.951,254.165Z" transform="translate(-340.788 -254.165)" fill="#ccc"/>
                </g>
              </g>
            </g>
            <g id="Group_340" data-name="Group 340">
              <path id="Path_432" data-name="Path 432" d="M246.775,243.726c.072,1.7-.881,3.071-2.128,3.066s-2.314-1.378-2.385-3.076.883-3.069,2.13-3.067S246.7,242.029,246.775,243.726Z" transform="translate(-242.259 -240.648)" fill="#fcbd92"/>
              <g id="Group_337" data-name="Group 337" transform="translate(0.452 0.583)" style="mix-blend-mode: multiply;isolation: isolate">
                <g id="Group_336" data-name="Group 336">
                  <path id="Path_433" data-name="Path 433" d="M245.995,244.262a2.44,2.44,0,0,0-.02-.252,2.325,2.325,0,0,0-.18-.631.931.931,0,0,0-.614-.58.987.987,0,0,0-.238-.009c-.014.005-.1.016-.127.027a.857.857,0,0,0-.458.358,1.688,1.688,0,0,0-.233.449,1.583,1.583,0,0,0-.1.47c0,.17-.017.341,0,.49s.025.295.036.428.04.259.054.37.043.206.056.286c.034.158.048.251.048.251s-.048-.084-.123-.235c-.033-.077-.087-.167-.126-.276s-.09-.232-.137-.368-.074-.291-.109-.453a3.8,3.8,0,0,1-.054-.5,1.551,1.551,0,0,1,.078-.567,1.94,1.94,0,0,1,.263-.537,1.29,1.29,0,0,1,.516-.426,1.024,1.024,0,0,1,.19-.063,1.167,1.167,0,0,1,.545.011.955.955,0,0,1,.541.369,1.309,1.309,0,0,1,.21.451,1.856,1.856,0,0,1,.036.684A1.189,1.189,0,0,1,245.995,244.262Z" transform="translate(-243.672 -242.472)" fill="#ccc"/>
                </g>
              </g>
              <path id="Path_434" data-name="Path 434" d="M248.208,247.414s.146-.162-.647-.309a.572.572,0,0,0-.547.883,2.06,2.06,0,0,1,.162.588c.027.285-.187.639-.019.912a.669.669,0,0,0,1.066-.09c.085-.271-.237-.8-.389-1.019A.605.605,0,0,1,248.208,247.414Z" transform="translate(-245.433 -245.04)" fill="#ccc" style="mix-blend-mode: multiply;isolation: isolate"/>
              <g id="Group_339" data-name="Group 339" transform="translate(2.007 4.323)" style="mix-blend-mode: multiply;isolation: isolate">
                <g id="Group_338" data-name="Group 338">
                  <path id="Path_435" data-name="Path 435" d="M249.323,254.165a.287.287,0,0,1,.053.052.49.49,0,0,1,.089.169.373.373,0,0,1,.019.122.308.308,0,0,1-.012.139,1.132,1.132,0,0,1-.047.144.911.911,0,0,1-.091.129.649.649,0,0,1-.115.113,1.265,1.265,0,0,1-.137.079.593.593,0,0,1-.267.087,1.043,1.043,0,0,1-.282.01,1.221,1.221,0,0,1,.163-.183.671.671,0,0,1,.082-.068c.025-.027.046-.059.074-.083a.736.736,0,0,1,.083-.078c.033-.022.045-.058.069-.084a.85.85,0,0,0,.132-.167.581.581,0,0,0,.052-.086c.012-.03.038-.058.047-.085A2.034,2.034,0,0,0,249.323,254.165Z" transform="translate(-248.533 -254.165)" fill="#ccc"/>
                </g>
              </g>
            </g>
          </g>
          <path id="Path_436" data-name="Path 436" d="M280.213,217.7a14.145,14.145,0,1,1-14.076-14.236A14.156,14.156,0,0,1,280.213,217.7Z" transform="translate(-248.832 -199.06)" fill="#fcbd92"/>
          <g id="Group_343" data-name="Group 343" transform="translate(3.091 4.406)">
            <path id="Path_437" data-name="Path 437" d="M286.605,222.586c-.032,6.55-4.082,11.84-9.045,11.815s-8.961-5.353-8.929-11.9,4.082-11.839,9.045-11.815S286.637,216.037,286.605,222.586Z" transform="translate(-263.287 -208.375)" fill="#fff" opacity="0.2" style="mix-blend-mode: soft-light;isolation: isolate"/>
            <g id="Group_342" data-name="Group 342" opacity="0.2" style="mix-blend-mode: multiply;isolation: isolate">
              <path id="Path_438" data-name="Path 438" d="M251.923,217.565A14.156,14.156,0,0,0,265.971,231.8c-6.305-.05-11.381-6.409-11.343-14.222s5.191-14.141,11.509-14.111A14.157,14.157,0,0,0,251.923,217.565Z" transform="translate(-251.922 -203.467)" fill="#fcbd92"/>
              <path id="Path_439" data-name="Path 439" d="M296.131,203.468c6.318.031,11.409,6.4,11.37,14.223s-5.176,14.123-11.482,14.11a14.167,14.167,0,0,0,.111-28.333Z" transform="translate(-281.916 -203.468)" fill="#fcbd92"/>
            </g>
          </g>
          <g id="Group_346" data-name="Group 346" transform="translate(10.007 15.13)">
            <g id="Group_344" data-name="Group 344">
              <path id="Path_440" data-name="Path 440" d="M273.549,238.479A1.438,1.438,0,1,0,274.941,237,1.439,1.439,0,0,0,273.549,238.479Z" transform="translate(-273.549 -236.996)" fill="#24110b"/>
              <path id="Path_441" data-name="Path 441" d="M276.438,240.51a.52.52,0,1,0,.5-.535A.521.521,0,0,0,276.438,240.51Z" transform="translate(-275.514 -239.022)" fill="#0b0503"/>
              <path id="Path_442" data-name="Path 442" d="M274.713,239.721a.36.36,0,1,0,.348-.371A.361.361,0,0,0,274.713,239.721Z" transform="translate(-274.34 -238.597)" fill="#fff"/>
              <path id="Path_443" data-name="Path 443" d="M276.456,241.221a.181.181,0,1,0,.175-.187A.182.182,0,0,0,276.456,241.221Z" transform="translate(-275.526 -239.742)" fill="#fff"/>
            </g>
            <g id="Group_345" data-name="Group 345" transform="translate(11.581)">
              <path id="Path_444" data-name="Path 444" d="M312.635,238.479A1.438,1.438,0,1,1,311.243,237,1.439,1.439,0,0,1,312.635,238.479Z" transform="translate(-309.759 -236.996)" fill="#24110b"/>
              <path id="Path_445" data-name="Path 445" d="M313.651,240.51a.52.52,0,1,1-.5-.535A.521.521,0,0,1,313.651,240.51Z" transform="translate(-311.699 -239.022)" fill="#0b0503"/>
              <path id="Path_446" data-name="Path 446" d="M316.058,239.721a.36.36,0,1,1-.348-.371A.361.361,0,0,1,316.058,239.721Z" transform="translate(-313.554 -238.597)" fill="#fff"/>
              <path id="Path_447" data-name="Path 447" d="M315.077,241.221a.181.181,0,1,1-.175-.187A.182.182,0,0,1,315.077,241.221Z" transform="translate(-313.13 -239.742)" fill="#fff"/>
            </g>
          </g>
          <g id="Group_347" data-name="Group 347" transform="translate(14.018 22.89)">
            <path id="Path_448" data-name="Path 448" d="M286.088,261.259c.595,4.683,5.748,4.708,6.389.031Z" transform="translate(-286.088 -261.259)" fill="#40151a"/>
            <path id="Path_449" data-name="Path 449" d="M291.791,263.253a1.91,1.91,0,0,0-2.01,1.792,1.579,1.579,0,0,0,.02.247,2.763,2.763,0,0,0,3.962.02,1.61,1.61,0,0,0,.022-.247A1.911,1.911,0,0,0,291.791,263.253Z" transform="translate(-288.6 -262.615)" fill="#f96079"/>
          </g>
          <g id="Group_352" data-name="Group 352" transform="translate(7.313 18.9)">
            <g id="Group_349" data-name="Group 349">
              <path id="Path_450" data-name="Path 450" d="M269.9,250.606c0,.75-1.07,1.358-2.39,1.358s-2.39-.607-2.39-1.358,1.07-1.358,2.39-1.358S269.9,249.856,269.9,250.606Z" transform="translate(-265.123 -249.1)" fill="#fca987"/>
              <g id="Group_348" data-name="Group 348" transform="translate(1.291)">
                <path id="Path_451" data-name="Path 451" d="M275.505,249.821a.069.069,0,0,0,0,.138A.069.069,0,0,0,275.505,249.821Z" transform="translate(-273.43 -249.489)" fill="#40151a"/>
                <path id="Path_452" data-name="Path 452" d="M278.711,248.906a.137.137,0,0,0-.02-.083.081.081,0,0,0-.137,0,.134.134,0,0,0-.02.083s0,0,0,0v.012a.089.089,0,0,0,.179,0v-.016Z" transform="translate(-275.534 -248.785)" fill="#40151a"/>
                <path id="Path_453" data-name="Path 453" d="M277.4,251.765h-.015a.149.149,0,0,0-.1.032.083.083,0,0,0,0,.118.149.149,0,0,0,.1.032h.015A.092.092,0,0,0,277.4,251.765Z" transform="translate(-274.666 -250.812)" fill="#40151a"/>
                <path id="Path_454" data-name="Path 454" d="M280.829,249.53a.07.07,0,0,0,0,.14A.07.07,0,0,0,280.829,249.53Z" transform="translate(-277.05 -249.292)" fill="#40151a"/>
                <path id="Path_455" data-name="Path 455" d="M284.691,249.494a.082.082,0,0,0,0,.163A.082.082,0,0,0,284.691,249.494Z" transform="translate(-279.669 -249.267)" fill="#40151a"/>
                <path id="Path_456" data-name="Path 456" d="M281.795,251.771a.09.09,0,0,0,0,.18A.09.09,0,0,0,281.795,251.771Z" transform="translate(-277.694 -250.816)" fill="#40151a"/>
                <path id="Path_457" data-name="Path 457" d="M284.285,252.474a.15.15,0,0,0-.07.008.091.091,0,0,0,0,.174.159.159,0,0,0,.07.008A.1.1,0,0,0,284.285,252.474Z" transform="translate(-279.355 -251.293)" fill="#40151a"/>
                <path id="Path_458" data-name="Path 458" d="M272.09,252.933h-.012s0,0-.005,0a.152.152,0,0,0-.08.019.078.078,0,0,0,0,.133.158.158,0,0,0,.08.019s0,0,.005,0h.012a.087.087,0,0,0,0-.173Z" transform="translate(-271.061 -251.605)" fill="#40151a"/>
                <path id="Path_459" data-name="Path 459" d="M273.087,249.323h-.012l0,0a.143.143,0,0,0-.1.032.08.08,0,0,0,0,.114.142.142,0,0,0,.1.032l0,0h.012a.09.09,0,0,0,0-.18Z" transform="translate(-271.736 -249.151)" fill="#40151a"/>
                <path id="Path_460" data-name="Path 460" d="M274.585,253.044a.1.1,0,0,0,0,.194A.1.1,0,0,0,274.585,253.044Z" transform="translate(-272.785 -251.682)" fill="#40151a"/>
                <path id="Path_461" data-name="Path 461" d="M280.112,253.756a.126.126,0,0,0-.091.022.09.09,0,0,0,0,.154.124.124,0,0,0,.091.022A.1.1,0,0,0,280.112,253.756Z" transform="translate(-276.517 -252.165)" fill="#40151a"/>
                <path id="Path_462" data-name="Path 462" d="M276.743,254.916a.1.1,0,0,0,0,.194A.1.1,0,0,0,276.743,254.916Z" transform="translate(-274.254 -252.955)" fill="#40151a"/>
                <path id="Path_463" data-name="Path 463" d="M272.311,256.4a.083.083,0,0,0,0,.165A.083.083,0,0,0,272.311,256.4Z" transform="translate(-271.248 -253.964)" fill="#40151a"/>
                <path id="Path_464" data-name="Path 464" d="M277.477,258.1a.09.09,0,0,0,0,.18A.09.09,0,0,0,277.477,258.1Z" transform="translate(-274.757 -255.123)" fill="#40151a"/>
                <path id="Path_465" data-name="Path 465" d="M282.061,256.056a.1.1,0,0,0,0,.2A.1.1,0,0,0,282.061,256.056Z" transform="translate(-277.868 -253.73)" fill="#40151a"/>
                <path id="Path_466" data-name="Path 466" d="M284.936,255.9a.1.1,0,0,0,0,.205A.1.1,0,0,0,284.936,255.9Z" transform="translate(-279.822 -253.628)" fill="#40151a"/>
                <path id="Path_467" data-name="Path 467" d="M282.921,253.6a.1.1,0,0,0,0,.205A.1.1,0,0,0,282.921,253.6Z" transform="translate(-278.452 -252.062)" fill="#40151a"/>
                <path id="Path_468" data-name="Path 468" d="M279.622,256.5a.1.1,0,0,0,0,.194A.1.1,0,0,0,279.622,256.5Z" transform="translate(-276.212 -254.032)" fill="#40151a"/>
                <path id="Path_469" data-name="Path 469" d="M274.294,255.921a.1.1,0,0,0,0,.2A.1.1,0,0,0,274.294,255.921Z" transform="translate(-272.587 -253.639)" fill="#40151a"/>
                <path id="Path_470" data-name="Path 470" d="M269.309,254.644h-.045a.067.067,0,0,0-.029,0c-.065.005-.084.045-.075.087v0c-.008.042.011.081.075.087a.067.067,0,0,0,.029,0h.045a.092.092,0,0,0,0-.184Z" transform="translate(-269.158 -252.77)" fill="#40151a"/>
                <path id="Path_471" data-name="Path 471" d="M286.669,251.309a.1.1,0,0,0,0,.2A.1.1,0,0,0,286.669,251.309Z" transform="translate(-281.003 -250.502)" fill="#40151a"/>
                <path id="Path_472" data-name="Path 472" d="M286.379,253.608a.1.1,0,0,0,0,.2A.1.1,0,0,0,286.379,253.608Z" transform="translate(-280.805 -252.065)" fill="#40151a"/>
              </g>
            </g>
            <g id="Group_351" data-name="Group 351" transform="translate(12.794)">
              <path id="Path_473" data-name="Path 473" d="M312.234,250.606c0,.75,1.07,1.358,2.39,1.358s2.39-.607,2.39-1.358-1.07-1.358-2.39-1.358S312.234,249.856,312.234,250.606Z" transform="translate(-309.96 -249.1)" fill="#fca987"/>
              <g id="Group_350" data-name="Group 350">
                <path id="Path_474" data-name="Path 474" d="M316.512,249.821a.069.069,0,0,1,0,.138A.069.069,0,0,1,316.512,249.821Z" transform="translate(-312.825 -249.489)" fill="#40151a"/>
                <path id="Path_475" data-name="Path 475" d="M313.207,248.906a.137.137,0,0,1,.02-.083.081.081,0,0,1,.137,0,.138.138,0,0,1,.02.083s0,0,0,0,0,.008,0,.012a.09.09,0,0,1-.179,0v-.016Z" transform="translate(-310.622 -248.785)" fill="#40151a"/>
                <path id="Path_476" data-name="Path 476" d="M314.411,251.765h.014a.147.147,0,0,1,.1.032.082.082,0,0,1,0,.118.147.147,0,0,1-.1.032h-.014A.092.092,0,0,1,314.411,251.765Z" transform="translate(-311.381 -250.812)" fill="#40151a"/>
                <path id="Path_477" data-name="Path 477" d="M311.184,249.53a.07.07,0,0,1,0,.14A.07.07,0,0,1,311.184,249.53Z" transform="translate(-309.2 -249.292)" fill="#40151a"/>
                <path id="Path_478" data-name="Path 478" d="M307.274,249.494a.082.082,0,0,1,0,.163A.082.082,0,0,1,307.274,249.494Z" transform="translate(-306.533 -249.267)" fill="#40151a"/>
                <path id="Path_479" data-name="Path 479" d="M310.135,251.771a.09.09,0,0,1,0,.18A.09.09,0,0,1,310.135,251.771Z" transform="translate(-308.474 -250.816)" fill="#40151a"/>
                <path id="Path_480" data-name="Path 480" d="M307.535,252.474a.15.15,0,0,1,.07.008.091.091,0,0,1,0,.174.159.159,0,0,1-.07.008A.1.1,0,0,1,307.535,252.474Z" transform="translate(-306.702 -251.293)" fill="#40151a"/>
                <path id="Path_481" data-name="Path 481" d="M319.752,252.933h.012s0,0,.005,0a.152.152,0,0,1,.08.019.078.078,0,0,1,0,.133.158.158,0,0,1-.08.019s0,0-.005,0h-.012a.087.087,0,0,1,0-.173Z" transform="translate(-315.018 -251.605)" fill="#40151a"/>
                <path id="Path_482" data-name="Path 482" d="M318.734,249.323h.012l0,0a.143.143,0,0,1,.1.032.08.08,0,0,1,0,.114.142.142,0,0,1-.1.032l0,0h-.012a.09.09,0,0,1,0-.18Z" transform="translate(-314.322 -249.151)" fill="#40151a"/>
                <path id="Path_483" data-name="Path 483" d="M317.319,253.044a.1.1,0,0,1,0,.194A.1.1,0,0,1,317.319,253.044Z" transform="translate(-313.355 -251.682)" fill="#40151a"/>
                <path id="Path_484" data-name="Path 484" d="M311.7,253.756a.125.125,0,0,1,.091.022.09.09,0,0,1,0,.154.124.124,0,0,1-.091.022A.1.1,0,0,1,311.7,253.756Z" transform="translate(-309.534 -252.165)" fill="#40151a"/>
                <path id="Path_485" data-name="Path 485" d="M315.159,254.916a.1.1,0,0,1,0,.194A.1.1,0,0,1,315.159,254.916Z" transform="translate(-311.886 -252.955)" fill="#40151a"/>
                <path id="Path_486" data-name="Path 486" d="M319.65,256.4a.083.083,0,0,1,0,.165A.083.083,0,0,1,319.65,256.4Z" transform="translate(-314.95 -253.964)" fill="#40151a"/>
                <path id="Path_487" data-name="Path 487" d="M314.453,258.1a.09.09,0,0,1,0,.18A.09.09,0,0,1,314.453,258.1Z" transform="translate(-311.41 -255.123)" fill="#40151a"/>
                <path id="Path_488" data-name="Path 488" d="M309.826,256.056a.1.1,0,0,1,0,.2A.1.1,0,0,1,309.826,256.056Z" transform="translate(-308.256 -253.73)" fill="#40151a"/>
                <path id="Path_489" data-name="Path 489" d="M306.943,255.9a.1.1,0,0,1,0,.205A.1.1,0,0,1,306.943,255.9Z" transform="translate(-306.294 -253.628)" fill="#40151a"/>
                <path id="Path_490" data-name="Path 490" d="M308.958,253.6a.1.1,0,0,1,0,.205A.1.1,0,0,1,308.958,253.6Z" transform="translate(-307.665 -252.062)" fill="#40151a"/>
                <path id="Path_491" data-name="Path 491" d="M312.281,256.5a.1.1,0,0,1,0,.194A.1.1,0,0,1,312.281,256.5Z" transform="translate(-309.928 -254.032)" fill="#40151a"/>
                <path id="Path_492" data-name="Path 492" d="M317.6,255.921a.1.1,0,0,1,0,.2A.1.1,0,0,1,317.6,255.921Z" transform="translate(-313.549 -253.639)" fill="#40151a"/>
                <path id="Path_493" data-name="Path 493" d="M322.482,254.644h.045a.067.067,0,0,1,.028,0c.065.005.084.045.075.087v0c.008.042-.011.081-.075.087a.067.067,0,0,1-.028,0h-.045a.092.092,0,0,1,0-.184Z" transform="translate(-316.87 -252.77)" fill="#40151a"/>
                <path id="Path_494" data-name="Path 494" d="M305.222,251.309a.1.1,0,0,1,0,.2A.1.1,0,0,1,305.222,251.309Z" transform="translate(-305.125 -250.502)" fill="#40151a"/>
                <path id="Path_495" data-name="Path 495" d="M305.508,253.608a.1.1,0,0,1,0,.2A.1.1,0,0,1,305.508,253.608Z" transform="translate(-305.32 -252.065)" fill="#40151a"/>
              </g>
            </g>
          </g>
          <g id="Group_354" data-name="Group 354" transform="translate(15.45 19.204)">
            <g id="Group_353" data-name="Group 353">
              <path id="Path_496" data-name="Path 496" d="M290.564,250.986a1.207,1.207,0,0,0,.526-.549l-.011.019a1.081,1.081,0,0,1,.129-.23,1.142,1.142,0,0,1,.17-.188,1.215,1.215,0,0,1,.449-.244,1.3,1.3,0,0,1,.248-.05l.114-.009c.052,0,.089,0,.132,0a1.443,1.443,0,0,1,.488.112,1.163,1.163,0,0,1,.227.129,1.082,1.082,0,0,1,.194.183,1.012,1.012,0,0,1,.137.225,1.354,1.354,0,0,0,.082.163,1.443,1.443,0,0,0,.526.589.782.782,0,0,1-.442-.093,1.459,1.459,0,0,1-.372-.275,1.663,1.663,0,0,1-.155-.184,1.1,1.1,0,0,0-.109-.115.811.811,0,0,0-.273-.151,1.262,1.262,0,0,0-.331-.062c-.026,0-.06,0-.078,0l-.1,0a.909.909,0,0,0-.166.021.992.992,0,0,0-.306.116,1.128,1.128,0,0,0-.137.1.982.982,0,0,0-.111.114l-.011.02a.983.983,0,0,1-.387.286A.943.943,0,0,1,290.564,250.986Z" transform="translate(-290.564 -249.734)" fill="#e9a478"/>
            </g>
          </g>
          <g id="Group_355" data-name="Group 355" transform="translate(8.858 13.422)">
            <path id="Path_497" data-name="Path 497" d="M269.954,232.8a2.915,2.915,0,0,1,2.938-1.074" transform="translate(-269.954 -231.655)" fill="none" stroke="#582213" stroke-linecap="round" stroke-linejoin="round" stroke-width="1.632"/>
            <path id="Path_498" data-name="Path 498" d="M315.594,232.8a2.915,2.915,0,0,0-2.938-1.074" transform="translate(-298.998 -231.655)" fill="none" stroke="#582213" stroke-linecap="round" stroke-linejoin="round" stroke-width="1.632"/>
          </g>
          <g id="Group_370" data-name="Group 370" transform="translate(13.278)">
            <g id="Group_362" data-name="Group 362" transform="translate(0 0.63)">
              <path id="Path_499" data-name="Path 499" d="M289.9,192.18a3.8,3.8,0,0,0-4.3.488,4.267,4.267,0,0,0-1.1,5.376,3.613,3.613,0,0,0,2.706,1.626,2.736,2.736,0,0,0,1.715-.518c1.5-1.212-.169-3.677-1.816-2.563C287.106,196.589,284.922,193.572,289.9,192.18Z" transform="translate(-283.898 -191.705)" fill="#582213"/>
              <g id="Group_357" data-name="Group 357">
                <g id="Group_356" data-name="Group 356">
                  <path id="Path_500" data-name="Path 500" d="M289.777,192.135a3.774,3.774,0,0,0-2.476-.361,3.925,3.925,0,0,0-1.18.452,4.517,4.517,0,0,0-.994.781,4.623,4.623,0,0,0-1.148,2.222,3.7,3.7,0,0,0,.291,2.454,4.158,4.158,0,0,0,.755,1,3.067,3.067,0,0,0,1.042.675,3.2,3.2,0,0,0,1.226.195,2.615,2.615,0,0,0,1.193-.319,1.588,1.588,0,0,0,.777-.911,1.56,1.56,0,0,0-.151-1.189,1.578,1.578,0,0,0-.927-.767,1.4,1.4,0,0,0-1.174.219l-.042.028-.027-.041a2.959,2.959,0,0,1-.347-.722,2.624,2.624,0,0,1-.133-.788,2.107,2.107,0,0,1,.142-.786,2.26,2.26,0,0,1,.414-.682,2.879,2.879,0,0,1,.282-.281,3.555,3.555,0,0,1,.312-.246,4.939,4.939,0,0,1,.684-.4c.12-.054.237-.115.36-.161s.243-.1.368-.141C289.272,192.28,289.524,192.207,289.777,192.135Zm0,0c-.251.078-.5.156-.746.251-.124.042-.243.1-.364.149s-.237.112-.355.169a4.9,4.9,0,0,0-.668.409,3.461,3.461,0,0,0-.3.249,2.9,2.9,0,0,0-.269.281,2.765,2.765,0,0,0-.224.316,2.319,2.319,0,0,0-.168.348,2.018,2.018,0,0,0-.13.756,2.757,2.757,0,0,0,.473,1.451l-.069-.012a1.509,1.509,0,0,1,1.261-.243,1.754,1.754,0,0,1,1.173,2.1,1.718,1.718,0,0,1-.834,1,2.762,2.762,0,0,1-1.256.343,3.335,3.335,0,0,1-1.288-.2,3.024,3.024,0,0,1-1.088-.712,4.391,4.391,0,0,1-.77-1.044,3.821,3.821,0,0,1-.282-2.536,4.719,4.719,0,0,1,1.19-2.262,4.589,4.589,0,0,1,1.019-.788,3.778,3.778,0,0,1,1.209-.439,3.8,3.8,0,0,1,2.487.419Z" transform="translate(-283.774 -191.66)" fill="#25100b"/>
                </g>
              </g>
              <path id="Path_501" data-name="Path 501" d="M285.692,200.923a2.488,2.488,0,0,1,.369-1.418,1.9,1.9,0,0,0,1.593,1.418s-1.437-2.1.136-3.612a2.186,2.186,0,0,0-1.262,1.068s-.486-.291-.175-1.068A3.565,3.565,0,0,0,285.692,200.923Z" transform="translate(-284.927 -195.504)" fill="#fff" style="mix-blend-mode: soft-light;isolation: isolate"/>
              <g id="Group_359" data-name="Group 359" transform="translate(0.66 0.156)">
                <g id="Group_358" data-name="Group 358">
                  <path id="Path_502" data-name="Path 502" d="M290.021,192.149a5.493,5.493,0,0,0-.6.139,6.912,6.912,0,0,0-1.489.615,3.888,3.888,0,0,0-1.589,1.56,3.175,3.175,0,0,0-.346,1.208,4.317,4.317,0,0,0,.1,1.3l.034.162.051.153a1.956,1.956,0,0,0,.117.309l.149.283c.059.09.125.176.187.264a3.048,3.048,0,0,0,.948.823,2.516,2.516,0,0,0,1.124.325,2.02,2.02,0,0,0,1.022-.207,1.393,1.393,0,0,0,.614-.625,3.1,3.1,0,0,0,.116-.359c.011-.115.033-.221.033-.318s-.012-.184-.017-.259a1.657,1.657,0,0,0-.042-.187l-.039-.156.046.154a1.643,1.643,0,0,1,.05.187l.028.261c0,.1-.013.208-.02.328a3.187,3.187,0,0,1-.1.371,1.4,1.4,0,0,1-.624.679,2.115,2.115,0,0,1-1.072.243,2.677,2.677,0,0,1-.295-.023l-.3-.059a1.684,1.684,0,0,1-.3-.1,1.445,1.445,0,0,1-.289-.135,3.193,3.193,0,0,1-1-.852c-.066-.092-.135-.181-.2-.276l-.163-.306a2.058,2.058,0,0,1-.122-.315c-.019-.056-.036-.1-.055-.165l-.036-.166a4.479,4.479,0,0,1-.1-1.349,3.313,3.313,0,0,1,.371-1.258,3.419,3.419,0,0,1,.764-.958,4.789,4.789,0,0,1,.9-.616,6.478,6.478,0,0,1,1.525-.564A5.569,5.569,0,0,1,290.021,192.149Z" transform="translate(-285.838 -192.149)" fill="#25100b"/>
                </g>
              </g>
              <g id="Group_361" data-name="Group 361" transform="translate(1.583 0.239)">
                <g id="Group_360" data-name="Group 360">
                  <path id="Path_503" data-name="Path 503" d="M292.613,192.407a4.477,4.477,0,0,0-.5.108,6.289,6.289,0,0,0-1.25.484,3.938,3.938,0,0,0-1.42,1.2,3.044,3.044,0,0,0-.445.948,3.719,3.719,0,0,0-.119,1.078,3.313,3.313,0,0,0,.173,1.069,2.184,2.184,0,0,0,.554.872,1.3,1.3,0,0,0,.864.376,1.24,1.24,0,0,0,.814-.249.951.951,0,0,0,.361-.623.889.889,0,0,0-.092-.559.8.8,0,0,0-.249-.275c-.074-.046-.116-.067-.116-.067a1.3,1.3,0,0,1,.119.062.806.806,0,0,1,.265.269.923.923,0,0,1,.12.576,1.024,1.024,0,0,1-.357.679,1.334,1.334,0,0,1-.867.294,1.4,1.4,0,0,1-.951-.384,2.316,2.316,0,0,1-.6-.921,3.458,3.458,0,0,1-.192-1.114,3.713,3.713,0,0,1,.132-1.122,3.191,3.191,0,0,1,.474-.987,3.885,3.885,0,0,1,1.492-1.2,5.619,5.619,0,0,1,1.284-.431A4.512,4.512,0,0,1,292.613,192.407Z" transform="translate(-288.723 -192.407)" fill="#25100b"/>
                </g>
              </g>
            </g>
            <g id="Group_369" data-name="Group 369" transform="translate(1.929)">
              <path id="Path_504" data-name="Path 504" d="M296.231,190.37a3.8,3.8,0,0,0-4.328.157A4.267,4.267,0,0,0,290.4,195.8a3.617,3.617,0,0,0,2.574,1.828,2.741,2.741,0,0,0,1.749-.385c1.593-1.093.114-3.679-1.614-2.7C293.107,194.551,291.16,191.376,296.231,190.37Z" transform="translate(-289.93 -189.743)" fill="#582213"/>
              <g id="Group_364" data-name="Group 364">
                <g id="Group_363" data-name="Group 363">
                  <path id="Path_505" data-name="Path 505" d="M296.105,190.317a3.777,3.777,0,0,0-2.441-.549,3.928,3.928,0,0,0-1.211.36,4.521,4.521,0,0,0-1.051.7,4.624,4.624,0,0,0-1.315,2.128,3.7,3.7,0,0,0,.1,2.469,4.172,4.172,0,0,0,.676,1.056,3.064,3.064,0,0,0,.987.752,3.186,3.186,0,0,0,1.207.288,2.617,2.617,0,0,0,1.213-.226,1.588,1.588,0,0,0,.845-.849,1.562,1.562,0,0,0-.059-1.2,1.581,1.581,0,0,0-.865-.836,1.4,1.4,0,0,0-1.188.129l-.044.025-.024-.042a2.97,2.97,0,0,1-.29-.746,2.634,2.634,0,0,1-.072-.8,2.108,2.108,0,0,1,.2-.773,2.364,2.364,0,0,1,.2-.345,2.45,2.45,0,0,1,.261-.3,2.987,2.987,0,0,1,.3-.258,3.444,3.444,0,0,1,.33-.221,4.934,4.934,0,0,1,.712-.344c.124-.044.245-.1.372-.133s.25-.083.378-.113C295.59,190.423,295.848,190.37,296.105,190.317Zm0,0c-.256.059-.512.117-.763.193-.127.033-.25.081-.375.121s-.245.094-.367.141a4.932,4.932,0,0,0-.7.357,3.32,3.32,0,0,0-.319.226,2.644,2.644,0,0,0-.538.557,2.34,2.34,0,0,0-.194.334,2.025,2.025,0,0,0-.187.744,2.755,2.755,0,0,0,.36,1.483l-.068-.018a1.507,1.507,0,0,1,1.276-.145,1.753,1.753,0,0,1,1.008,2.184,1.715,1.715,0,0,1-.907.929,2.752,2.752,0,0,1-1.279.245,3.329,3.329,0,0,1-1.268-.3,3.017,3.017,0,0,1-1.03-.793,4.4,4.4,0,0,1-.687-1.1,3.822,3.822,0,0,1-.087-2.55,4.718,4.718,0,0,1,1.361-2.164,4.591,4.591,0,0,1,1.077-.708,3.785,3.785,0,0,1,1.239-.345,3.807,3.807,0,0,1,2.447.608Z" transform="translate(-289.805 -189.691)" fill="#25100b"/>
                </g>
              </g>
              <path id="Path_506" data-name="Path 506" d="M291.7,198.256a2.491,2.491,0,0,1,.477-1.386s.055,1.056,1.479,1.536c0,0-1.272-2.2.413-3.591a2.185,2.185,0,0,0-1.34.968s-.462-.328-.093-1.079A3.567,3.567,0,0,0,291.7,198.256Z" transform="translate(-291.005 -193.101)" fill="#fff" style="mix-blend-mode: soft-light;isolation: isolate"/>
              <g id="Group_366" data-name="Group 366" transform="translate(0.69 0.219)">
                <g id="Group_365" data-name="Group 365">
                  <path id="Path_507" data-name="Path 507" d="M296.442,190.376a5.437,5.437,0,0,0-.607.092,6.914,6.914,0,0,0-1.532.5,3.891,3.891,0,0,0-1.7,1.434,3.176,3.176,0,0,0-.438,1.178,4.31,4.31,0,0,0,0,1.308l.021.164c.008.042.026.1.038.156a1.98,1.98,0,0,0,.093.318l.126.294c.052.094.112.185.167.277a3.052,3.052,0,0,0,.882.893,2.518,2.518,0,0,0,1.1.41,2.012,2.012,0,0,0,1.035-.128,1.392,1.392,0,0,0,.661-.576,3.116,3.116,0,0,0,.143-.349c.02-.114.05-.217.057-.314s0-.184,0-.26a1.63,1.63,0,0,0-.027-.19c-.018-.1-.027-.159-.027-.159l.034.157a1.664,1.664,0,0,1,.035.191c0,.076.005.164.008.263s-.029.207-.045.326a3.086,3.086,0,0,1-.131.362,1.4,1.4,0,0,1-.674.629,2.106,2.106,0,0,1-1.087.161,2.643,2.643,0,0,1-.292-.045l-.3-.082a1.682,1.682,0,0,1-.287-.125,1.415,1.415,0,0,1-.277-.157,3.187,3.187,0,0,1-.929-.926c-.059-.1-.121-.191-.177-.29l-.139-.318a2.1,2.1,0,0,1-.1-.323c-.014-.057-.029-.1-.043-.169l-.023-.169a4.459,4.459,0,0,1,.007-1.353,3.311,3.311,0,0,1,.467-1.226,3.423,3.423,0,0,1,.835-.9,4.765,4.765,0,0,1,.947-.546,6.455,6.455,0,0,1,1.563-.445A5.525,5.525,0,0,1,296.442,190.376Z" transform="translate(-291.962 -190.376)" fill="#25100b"/>
                </g>
              </g>
              <g id="Group_368" data-name="Group 368" transform="translate(1.616 0.35)">
                <g id="Group_367" data-name="Group 367">
                  <path id="Path_508" data-name="Path 508" d="M299.031,190.786a4.447,4.447,0,0,0-.507.069,6.279,6.279,0,0,0-1.284.387,3.948,3.948,0,0,0-1.509,1.091,3.043,3.043,0,0,0-.516.911,3.732,3.732,0,0,0-.2,1.066,3.322,3.322,0,0,0,.09,1.079,2.184,2.184,0,0,0,.485.912,1.3,1.3,0,0,0,.832.441,1.244,1.244,0,0,0,.832-.186.951.951,0,0,0,.407-.594.89.89,0,0,0-.049-.565.8.8,0,0,0-.228-.294c-.07-.052-.11-.075-.11-.075a1.3,1.3,0,0,1,.113.071.815.815,0,0,1,.244.289.924.924,0,0,1,.075.583,1.02,1.02,0,0,1-.407.649,1.331,1.331,0,0,1-.887.227,1.4,1.4,0,0,1-.918-.455,2.311,2.311,0,0,1-.526-.965,3.46,3.46,0,0,1-.106-1.125,3.7,3.7,0,0,1,.217-1.108,3.191,3.191,0,0,1,.549-.948,3.882,3.882,0,0,1,1.579-1.086,5.621,5.621,0,0,1,1.313-.331A4.49,4.49,0,0,1,299.031,190.786Z" transform="translate(-294.856 -190.786)" fill="#25100b"/>
                </g>
              </g>
            </g>
          </g>
        </g>
      </g>
    </g>
  </g>
</svg>
