<svg xmlns="http://www.w3.org/2000/svg" width="47.267" height="63.067" viewBox="0 0 47.267 63.067">
  <g id="Group_29" data-name="Group 29" transform="translate(0 0)">
    <path id="Path_86" data-name="Path 86" d="M134.338,60.18c0-2.257.769-3.594-.156-6.934-.09-.324-.364-1.365-.153-1.674.388-.569.651.186.828.552.424.871.508,2.212,1.25,2.874.55-.462.455-1.91.556-2.591.111-.748.29-2.276.983-2.283,1,.387-.3,3.454-.219,4.4.687-.239,1.009-1.39,1.838-1.507,1.236-.174.209,1.064-.135,1.537a4.387,4.387,0,0,0-.944,2.08,5.736,5.736,0,0,0,.205,3.442" transform="translate(-117.671 -50.124)" fill="#bb6056"/>
    <path id="Path_87" data-name="Path 87" d="M200.248,115.136s.641-3.447,3.7-3.156,5.173,8.973-1.718,9.156A9.9,9.9,0,0,0,200.248,115.136Z" transform="translate(-164.599 -93.896)" fill="#fcc194"/>
    <path id="Path_88" data-name="Path 88" d="M203.7,119.766s.763-1.893,2.379-1.855,2.837,5.328-1.072,6.161A6.9,6.9,0,0,0,203.7,119.766Z" transform="translate(-167.045 -98.107)" fill="#ef857a"/>
    <path id="Path_89" data-name="Path 89" d="M84.29,131.441s-1.768-3.039-4.553-1.759-1.847,10.162,4.712,8.068A9.882,9.882,0,0,1,84.29,131.441Z" transform="translate(-78.251 -106.216)" fill="#ffd49f"/>
    <path id="Path_90" data-name="Path 90" d="M87.352,136.31s-1.359-1.534-2.869-.967-.875,5.956,3.092,5.456A6.882,6.882,0,0,1,87.352,136.31Z" transform="translate(-82.123 -110.357)" fill="#f5a385"/>
    <path id="Path_91" data-name="Path 91" d="M93.267,142.363c-.429.166-.991.264-1.235.767-.479.988.769,1.424,1.464,1.65" transform="translate(-87.923 -115.415)" fill="#ffd49f"/>
    <path id="Path_92" data-name="Path 92" d="M204.977,126.766a1.927,1.927,0,0,1,1.457.083c.9.637.023,1.614-.474,2.143" transform="translate(-167.947 -104.301)" fill="#fcc194"/>
    <path id="Path_93" data-name="Path 93" d="M134.052,129.846a1.238,1.238,0,0,0,.04,2.475A1.238,1.238,0,0,0,134.052,129.846Z" transform="translate(-116.898 -106.555)" fill="#fff"/>
    <path id="Path_94" data-name="Path 94" d="M202.615,162.191c-.85-.324-1.938,2.506-1.938,2.506s-.073-2.044-.975-1.721-.41,2.43-.41,2.43c-7.679,2.086-11.695,1.114-11.695,1.114l.768,6.953c6.931.942,11.575-3.419,13.055-5.063a.708.708,0,0,1-.123-.422,4.772,4.772,0,0,1,.765-2.885S203.465,162.516,202.615,162.191Z" transform="translate(-155.644 -129.432)" fill="#ffd49f"/>
    <path id="Path_95" data-name="Path 95" d="M93.891,189.024c-4.691.962-11.357,6.843-11.477,6.986,0,0-1.538-1.46-2.169-.822s1.05,1.738,1.05,1.738-2.971-.164-3.065.729,2.312.647,2.312.647-1.817.706-1.477,1.445,2.338-.394,2.338-.394-.8,1.155-.492,1.821,2.066-1.5,2.066-1.5c7.18-3.054,9.82-2.917,9.957-3.054C94.3,195.251,94.168,190.2,93.891,189.024Zm-11,10.679.057-.022Z" transform="translate(-78.227 -148.444)" fill="#ffd49f"/>
    <path id="Path_96" data-name="Path 96" d="M126.985,173.083s-4.094,8.242-1.906,14.654c2.541,7.443,13.974,7.6,19.215,3.369,4.842-3.91,4.526-9.952,2.223-14.34-2.2-4.186-6.035-8.7-11.036-7.914C131.482,169.478,128.176,171.124,126.985,173.083Z" transform="translate(-110.936 -134.102)" fill="#ffd49f"/>
    <path id="Path_97" data-name="Path 97" d="M144.966,196.791a11.68,11.68,0,0,0,1.057-1.154c.045-.058.091-.114.134-.173s.07-.095.1-.142a10.871,10.871,0,0,0,1.4-9.426,4.246,4.246,0,0,1-2.607-.8c-2.457-2.006-2.008-5.9-1.9-6.866q-.245-.255-.5-.5h0c-1.295-.428-3.47.4-3.47.4C140.8,185,135.36,185.2,135.36,185.2s-4.693,1.063-5-5.315c0,0-3.078-.455-3.924.759,0,0,1.9,4.848-.308,7.669a9.779,9.779,0,0,1-1.675,1.736v0c0,.155.007.311.015.466l0,.077c.008.15.017.3.029.449,0,.017,0,.034,0,.051.021.258.051.515.088.771.01.069.018.138.029.207.015.093.032.185.049.277s.038.2.059.307c.016.081.034.161.052.242.027.12.058.24.089.36.017.064.033.129.051.193.052.185.108.368.17.551,2.541,7.443,13.974,7.6,19.215,3.369.21-.17.412-.349.609-.533Z" transform="translate(-110.947 -140.369)" fill="#af153a"/>
    <path id="Path_98" data-name="Path 98" d="M129.307,188.124s0,7.391,3.9,6.733c2.653-.448,2.616-2.531,1.8-6.227C135,188.63,133.923,187.77,129.307,188.124Z" transform="translate(-114.384 -147.746)" fill="#df284d"/>
    <path id="Path_99" data-name="Path 99" d="M176.9,176.84s2.425,6.732-1.43,7.609c-2.623.6-4.155-2.733-3.89-5.544C171.576,178.905,172.364,177.78,176.9,176.84Z" transform="translate(-144.283 -139.82)" fill="#df284d"/>
    <path id="Path_100" data-name="Path 100" d="M147.26,174.682a19.411,19.411,0,0,0,4.113-3.373,21.219,21.219,0,0,1-4.314,0c-.039-.117-.062-.183-.062-.183l-.33.129c-.219-.035-.33-.062-.33-.062l.02.182-.265.1,0,0h0a8.433,8.433,0,0,0-7.16-2.62c-4,.627-7.3,2.272-8.5,4.231,0,0-.251.505-.594,1.361-.173.011-.349.022-.532.036C129.307,174.479,137.1,181.212,147.26,174.682Z" transform="translate(-114.384 -134.102)" fill="#dfe1e2" style="mix-blend-mode: multiply;isolation: isolate"/>
    <path id="Path_101" data-name="Path 101" d="M130.137,242.788s1.364-2.546-1.718-4.89c-3.172-2.412-5.022-1.173-5.88.2C122.4,238.323,128.485,242.593,130.137,242.788Z" transform="translate(-109.591 -182.071)" fill="#f5aea4"/>
    <path id="Path_102" data-name="Path 102" d="M109.526,229.8s-2.029-1.928-3.611-1.387c-1.358.465-1.185,1.561-.291,2.426-.566-.141-1.259-.229-1.587.058-.607.529.628,1.257.365,1.439s-.745-.527-1.183.082c-.415.577.54.874.46,1.177s-.756-.293-.925.685c-.087.5,1.194,2.1,2.315,2.769,2.148,1.794,8.067,3.186,10.2,1.55C117.883,236.6,114.531,233.561,109.526,229.8Z" transform="translate(-95.587 -176.256)" fill="#ffd49f"/>
    <path id="Path_103" data-name="Path 103" d="M109.449,243.283a4.633,4.633,0,0,1,2.084-3.878S110.283,241.521,109.449,243.283Z" transform="translate(-100.327 -184.106)" fill="#f5a385"/>
    <path id="Path_104" data-name="Path 104" d="M130.005,253.445a2.116,2.116,0,0,1,1.37-3.233,2.426,2.426,0,0,1,2.68,2.88C133.578,254.384,130.9,254.8,130.005,253.445Z" transform="translate(-114.631 -191.739)" fill="#fcc194"/>
    <path id="Path_105" data-name="Path 105" d="M127.646,99.062c1.058,8.627-5.513,16.507-14.675,17.6s-17.448-5.012-18.506-13.639,5.513-16.507,14.676-17.6S126.588,90.435,127.646,99.062Z" transform="translate(-89.642 -75.021)" fill="#ffd49f"/>
    <path id="Path_106" data-name="Path 106" d="M150.763,122.467a14.863,14.863,0,0,0-1.117-4.105c.6,3.687,1.829,22.578-22.635,20.384h0a17.43,17.43,0,0,0,9.077,1.323C145.25,138.974,151.821,131.094,150.763,122.467Z" transform="translate(-112.759 -98.426)" fill="#fcc194"/>
    <path id="Path_107" data-name="Path 107" d="M135.855,158.605s3.031.929,5.139-.646c2.022-1.51,4.038-.983,4.79.892s-.582,4.958-5.875,6.035c-4.6.936-7.414-1.8-7.783-3.219S132.87,157.852,135.855,158.605Z" transform="translate(-116.332 -125.833)" fill="#007c84"/>
    <path id="Path_108" data-name="Path 108" d="M138.827,162.226s2.861.876,4.682-.376c1.748-1.2,3.449-1.139,4.1.355s-1.018,3.708-5.252,4.464c-3.986.711-6.007-1.1-6.327-2.236S136.246,161.623,138.827,162.226Z" transform="translate(-119.084 -128.615)" fill="#009498"/>
    <path id="Path_109" data-name="Path 109" d="M115.231,156.928c.122.641-.642,1.32-1.707,1.517s-2.026-.162-2.148-.8.642-1.32,1.707-1.517S115.109,156.287,115.231,156.928Z" transform="translate(-101.682 -125.119)" fill="#ec7b7d"/>
    <path id="Path_110" data-name="Path 110" d="M185.271,144.3c.123.64-.642,1.32-1.706,1.517s-2.027-.162-2.148-.8.642-1.321,1.706-1.518S185.149,143.663,185.271,144.3Z" transform="translate(-151.26 -116.182)" fill="#ec7b7d"/>
    <path id="Path_111" data-name="Path 111" d="M95.022,95.8s.825.318,3.693-3.645a22.157,22.157,0,0,0,2.975-5.973s7.463,2.43,15.927-2.505c0,0,5.078,6.91,9.207,7.669,0,0-2.565-11.137-16.414-10.225S94.407,93.474,95.022,95.8Z" transform="translate(-90.05 -72.029)" fill="#bb6056"/>
    <path id="Path_112" data-name="Path 112" d="M148.565,171s-4.911,2.668-3.334,4.759c1.641,2.177,3.847-.253,3.847-.253s2.835,1.655,3.949-.455C154.31,172.624,150.052,171.156,148.565,171Zm3.385,3.544c-.821,1.2-2.923-.3-2.923-.3s-1.564,1.911-2.616.962c-1.215-1.1,2.36-2.936,2.36-2.936C149.805,172.358,152.755,173.367,151.95,174.548Z" transform="translate(-125.435 -135.689)" fill="#ffc337"/>
    <path id="Path_113" data-name="Path 113" d="M153.63,169.507s.2,2.4,1.414,2.283c.987-.1.907-1.186.694-2.528A1.062,1.062,0,1,0,153.63,169.507Z" transform="translate(-131.598 -133.767)" fill="#df284d"/>
    <path id="Path_114" data-name="Path 114" d="M156.452,219.638s-5.014-1.557-4.308-3.544c.718-2.025,2.462-1.113,3.59-.3,0,0,1.48-2.217,3.026-1.063C160.863,216.3,156.452,219.638,156.452,219.638Z" transform="translate(-130.5 -166.403)" fill="#ffc337"/>
    <path id="Path_115" data-name="Path 115" d="M140.415,201a1.077,1.077,0,1,1-1.077-1.063A1.07,1.07,0,0,1,140.415,201Z" transform="translate(-120.722 -156.17)" fill="#fff"/>
    <path id="Path_116" data-name="Path 116" d="M182.2,193.205a1.077,1.077,0,1,1-1.077-1.063A1.07,1.07,0,0,1,182.2,193.205Z" transform="translate(-150.299 -150.651)" fill="#fff"/>
    <path id="Path_117" data-name="Path 117" d="M124.544,71.749a11.185,11.185,0,0,1-3.232-1.595c-1.385-1.063-2.77-2.126-3.385-.456s-.025,6.378,1.513,6.91,2.872-1.67,4.873-2.581Z" transform="translate(-106.159 -63.364)" fill="#df284d"/>
    <path id="Path_118" data-name="Path 118" d="M144.345,69.758a11.077,11.077,0,0,0,2.721-2.346c1.069-1.373,2.139-2.745,3.16-1.281s1.544,5.911.189,6.807-3.1-.648-5.266-1.033Z" transform="translate(-125.028 -61.009)" fill="#df284d"/>
    <g id="Group_17" data-name="Group 17" transform="translate(12.773 22.704)">
      <path id="Path_119" data-name="Path 119" d="M128.763,134.74c.149,1.192-.361,2.234-1.138,2.329s-1.528-.8-1.676-1.987.361-2.234,1.138-2.329S128.615,133.548,128.763,134.74Z" transform="translate(-124.761 -131.311)" fill="#43213e"/>
      <path id="Path_120" data-name="Path 120" d="M125.723,139.512c.041.358-.422.7-1.034.771s-1.14-.169-1.181-.527.422-.7,1.034-.77S125.683,139.154,125.723,139.512Z" transform="translate(-123.051 -135.72)" fill="#fff"/>
      <path id="Path_121" data-name="Path 121" d="M126.293,129.66A2.428,2.428,0,0,1,125.23,128c-.02-.224-.375-.219-.354.005a2.77,2.77,0,0,0,1.242,1.957A.175.175,0,0,0,126.293,129.66Z" transform="translate(-124.019 -127.837)" fill="#43213e"/>
      <path id="Path_122" data-name="Path 122" d="M123.686,131.95c-.674-.034-1.233-.935-1.392-1.507a.177.177,0,0,0-.34.1c.207.739.889,1.715,1.738,1.758C123.92,132.311,123.913,131.961,123.686,131.95Z" transform="translate(-121.946 -129.595)" fill="#43213e"/>
    </g>
    <g id="Group_18" data-name="Group 18" transform="translate(25.004 20.577)">
      <path id="Path_123" data-name="Path 123" d="M163.885,129.407c.255,1.228,1.111,2.091,1.911,1.929s1.243-1.288.988-2.516-1.11-2.091-1.911-1.929S163.629,128.179,163.885,129.407Z" transform="translate(-163.812 -125.026)" fill="#43213e"/>
      <path id="Path_124" data-name="Path 124" d="M168.955,132.981c.081.368.656.557,1.283.422s1.07-.541.99-.909-.655-.557-1.282-.422S168.876,132.614,168.955,132.981Z" transform="translate(-167.446 -128.677)" fill="#fff"/>
      <path id="Path_125" data-name="Path 125" d="M167.947,122.781a2.512,2.512,0,0,0,.491-1.988c-.055-.228.3-.34.351-.111a2.863,2.863,0,0,1-.568,2.344A.184.184,0,0,1,167.947,122.781Z" transform="translate(-166.706 -120.557)" fill="#43213e"/>
      <path id="Path_126" data-name="Path 126" d="M170.187,124.209c.656-.255.9-1.33.87-1.947a.185.185,0,0,1,.369-.014,2.406,2.406,0,0,1-1.126,2.31C170.077,124.643,169.967,124.295,170.187,124.209Z" transform="translate(-168.24 -121.633)" fill="#43213e"/>
    </g>
    <path id="Path_127" data-name="Path 127" d="M128.122,81.013a6.366,6.366,0,0,0-2-.493c-.293-.032-1.473-.2-1.038.292a4.046,4.046,0,0,0,1.347.59c.362.147.713.242,1.063.368-.624.221-1.944.077-2.329.763.6.208,3.616-.067,3.113-1.142" transform="translate(-111.326 -71.603)" fill="#dfe1e2" style="mix-blend-mode: multiply;isolation: isolate"/>
    <path id="Path_128" data-name="Path 128" d="M149.422,79.172a6.35,6.35,0,0,1,1.993-.523c.293-.037,1.47-.219,1.042.276-.264.306-.966.453-1.337.611s-.71.252-1.057.384c.628.212,1.945.047,2.341.727-.6.217-3.617-.011-3.131-1.094" transform="translate(-128.48 -70.27)" fill="#dfe1e2" style="mix-blend-mode: multiply;isolation: isolate"/>
    <path id="Path_129" data-name="Path 129" d="M136.175,75.615s-.9-1.066-1.93-.726-.689,4.081.483,4.693,1.815-.975,1.815-.975.942,1.111,1.769.635.965-4.149-.551-4.625C137.361,74.492,136.175,75.615,136.175,75.615Z" transform="translate(-117.444 -67.455)" fill="#df284d"/>
    <path id="Path_149" data-name="Path 149" d="M230.921,170.734s-2.544,1.19-2.595,2.253,1.8.1,1.8.1-1.8.911-1.539,1.721c.206.65,1.95-.051,2.513-.557S232.285,170.606,230.921,170.734Z" transform="translate(-184.474 -135.495)" fill="#f5a385"/>
    <path id="Path_150" data-name="Path 150" d="M187.348,236.432s-1.753-2.3.916-5.1c2.746-2.877,4.77-1.941,5.837-.722C194.279,230.817,188.949,235.982,187.348,236.432Z" transform="translate(-155.068 -177.052)" fill="#f5aea4"/>
    <path id="Path_151" data-name="Path 151" d="M193.92,220.864s1.7-2.219,3.344-1.931c1.416.247,1.42,1.356.675,2.35.536-.228,1.206-.423,1.576-.191.683.429-.419,1.34-.131,1.479s.651-.637,1.182-.1c.5.506-.394.947-.266,1.234s.7-.407,1.023.533c.166.482-.843,2.258-1.845,3.094-1.834,2.106-7.456,4.4-9.827,3.12C186.756,228.881,189.58,225.358,193.92,220.864Z" transform="translate(-156.263 -169.596)" fill="#ffd49f"/>
    <path id="Path_152" data-name="Path 152" d="M216.781,234a4.672,4.672,0,0,0-3.062-3.184S215.5,232.519,216.781,234Z" transform="translate(-174.135 -178.024)" fill="#f5a385"/>
    <path id="Path_153" data-name="Path 153" d="M196.362,246a2.115,2.115,0,0,0-1.37-3.232,2.427,2.427,0,0,0-2.68,2.879C192.789,246.941,195.468,247.353,196.362,246Z" transform="translate(-158.924 -186.471)" fill="#fcc194"/>
  </g>
</svg>
