<svg xmlns="http://www.w3.org/2000/svg" width="61.651" height="45.93" viewBox="0 0 61.651 45.93">
  <g id="Group_15483" data-name="Group 15483" transform="translate(-71.14 -182.035)">
    <g id="Group_15482" data-name="Group 15482">
      <g id="Group_376" data-name="Group 376" transform="translate(102.6 184.859)">
        <path id="Path_86" data-name="Path 86" d="M134.2,56.547c0-1.442.491-2.3-.1-4.429-.058-.207-.233-.872-.1-1.069.248-.363.416.119.529.352.271.557.325,1.413.8,1.836.351-.295.291-1.22.355-1.655.071-.478.186-1.454.628-1.458.639.247-.191,2.206-.14,2.811.439-.152.645-.888,1.174-.962.79-.111.133.68-.086.982a2.8,2.8,0,0,0-.6,1.329,3.664,3.664,0,0,0,.131,2.2" transform="translate(-123.552 -50.124)" fill="#bb6056"/>
        <path id="Path_87" data-name="Path 87" d="M200.248,113.989s.409-2.2,2.363-2.016,3.3,5.731-1.1,5.848A6.324,6.324,0,0,0,200.248,113.989Z" transform="translate(-177.478 -100.423)" fill="#fcc194"/>
        <path id="Path_88" data-name="Path 88" d="M203.7,119.1s.487-1.209,1.519-1.185,1.812,3.4-.685,3.935A4.4,4.4,0,0,0,203.7,119.1Z" transform="translate(-180.288 -105.261)" fill="#ef857a"/>
        <path id="Path_89" data-name="Path 89" d="M82.111,130.692s-1.13-1.941-2.908-1.123-1.18,6.491,3.009,5.153A6.312,6.312,0,0,1,82.111,130.692Z" transform="translate(-78.254 -114.58)" fill="#ffd49f"/>
        <path id="Path_90" data-name="Path 90" d="M86.044,135.916s-.868-.98-1.833-.617-.559,3.8,1.975,3.485A4.4,4.4,0,0,1,86.044,135.916Z" transform="translate(-82.704 -119.338)" fill="#f5a385"/>
        <path id="Path_91" data-name="Path 91" d="M92.782,142.363c-.274.106-.633.168-.789.49-.306.631.491.91.935,1.054" transform="translate(-89.369 -125.15)" fill="#ffd49f"/>
        <path id="Path_92" data-name="Path 92" d="M204.977,126.728a1.231,1.231,0,0,1,.931.053c.577.407.015,1.031-.3,1.369" transform="translate(-181.324 -112.379)" fill="#fcc194"/>
        <path id="Path_93" data-name="Path 93" d="M133.621,129.846a.791.791,0,0,0,.025,1.581A.791.791,0,0,0,133.621,129.846Z" transform="translate(-122.664 -114.969)" fill="#fff"/>
        <path id="Path_94" data-name="Path 94" d="M197.19,162.182c-.543-.207-1.238,1.6-1.238,1.6s-.046-1.305-.623-1.1-.262,1.552-.262,1.552c-4.9,1.332-7.47.711-7.47.711l.491,4.441a9.631,9.631,0,0,0,8.338-3.234.452.452,0,0,1-.079-.269,3.048,3.048,0,0,1,.489-1.843S197.732,162.389,197.19,162.182Z" transform="translate(-167.188 -141.258)" fill="#ffd49f"/>
        <path id="Path_95" data-name="Path 95" d="M88.232,189.024c-3,.615-7.254,4.371-7.331,4.462,0,0-.982-.932-1.386-.525s.671,1.11.671,1.11-1.9-.1-1.958.466,1.477.413,1.477.413-1.161.451-.943.923,1.493-.252,1.493-.252-.51.737-.314,1.163,1.32-.959,1.32-.959a22.551,22.551,0,0,1,6.36-1.951C88.494,193,88.409,189.778,88.232,189.024Zm-7.024,6.821.036-.014Z" transform="translate(-78.227 -163.104)" fill="#ffd49f"/>
        <path id="Path_96" data-name="Path 96" d="M126.064,171.522s-2.615,5.265-1.217,9.36c1.623,4.754,8.926,4.854,12.273,2.152,3.093-2.5,2.891-6.357,1.42-9.16-1.4-2.674-3.855-5.556-7.049-5.055C128.936,169.219,126.825,170.27,126.064,171.522Z" transform="translate(-115.813 -146.623)" fill="#ffd49f"/>
        <path id="Path_97" data-name="Path 97" d="M137.555,189.864a7.467,7.467,0,0,0,.675-.737c.029-.037.058-.073.086-.11s.045-.061.067-.091a6.943,6.943,0,0,0,.894-6.021,2.712,2.712,0,0,1-1.665-.508c-1.569-1.281-1.283-3.767-1.214-4.385q-.157-.163-.32-.316h0a4.281,4.281,0,0,0-2.217.258c1.031,4.379-2.441,4.508-2.441,4.508s-3,.679-3.194-3.395c0,0-1.966-.291-2.506.485,0,0,1.214,3.1-.2,4.9a6.247,6.247,0,0,1-1.07,1.109h0c0,.1,0,.2.009.3l0,.049c0,.1.011.191.018.287,0,.011,0,.022,0,.033.014.165.033.329.056.493.006.044.012.088.018.132.009.059.021.118.031.177s.024.131.038.2.022.1.033.154c.018.077.037.153.057.23.011.041.021.082.032.123.033.118.069.235.108.352,1.623,4.754,8.926,4.854,12.273,2.152.134-.108.263-.223.389-.34Z" transform="translate(-115.826 -153.825)" fill="#af153a"/>
        <path id="Path_98" data-name="Path 98" d="M129.307,188.093s0,4.721,2.49,4.3c1.694-.286,1.671-1.617,1.147-3.977C132.944,188.416,132.256,187.867,129.307,188.093Z" transform="translate(-119.775 -162.302)" fill="#df284d"/>
        <path id="Path_99" data-name="Path 99" d="M174.963,176.84s1.549,4.3-.913,4.86c-1.676.381-2.654-1.746-2.485-3.541C171.565,178.159,172.069,177.441,174.963,176.84Z" transform="translate(-154.132 -153.194)" fill="#df284d"/>
        <path id="Path_100" data-name="Path 100" d="M140.774,172.543a12.4,12.4,0,0,0,2.627-2.154,13.555,13.555,0,0,1-2.755,0c-.025-.074-.04-.117-.04-.117l-.211.082c-.14-.022-.211-.04-.211-.04l.013.116-.169.066h0a5.386,5.386,0,0,0-4.574-1.673c-2.554.4-4.666,1.451-5.426,2.7,0,0-.16.323-.379.869-.11.007-.223.014-.34.023C129.307,172.414,134.287,176.714,140.774,172.543Z" transform="translate(-119.775 -146.623)" fill="#dfe1e2" style="mix-blend-mode: multiply;isolation: isolate"/>
        <path id="Path_101" data-name="Path 101" d="M127.391,240.527s.871-1.626-1.1-3.123c-2.026-1.541-3.207-.749-3.756.125C122.446,237.675,126.336,240.4,127.391,240.527Z" transform="translate(-114.268 -201.745)" fill="#f5aea4"/>
        <path id="Path_102" data-name="Path 102" d="M107.079,229.263s-1.3-1.231-2.306-.886c-.868.3-.757,1-.186,1.549-.362-.09-.8-.147-1.014.037-.387.338.4.8.233.919s-.476-.337-.756.053c-.265.369.345.558.294.752s-.483-.187-.591.437c-.056.321.762,1.34,1.479,1.769,1.372,1.146,5.152,2.035,6.518.99C112.417,233.607,110.275,231.666,107.079,229.263Z" transform="translate(-98.175 -195.063)" fill="#ffd49f"/>
        <path id="Path_103" data-name="Path 103" d="M109.449,241.882a2.959,2.959,0,0,1,1.331-2.477S109.981,240.757,109.449,241.882Z" transform="translate(-103.622 -204.083)" fill="#f5a385"/>
        <path id="Path_104" data-name="Path 104" d="M129.879,252.268a1.352,1.352,0,0,1,.875-2.065,1.55,1.55,0,0,1,1.712,1.839A1.636,1.636,0,0,1,129.879,252.268Z" transform="translate(-120.059 -212.855)" fill="#fcc194"/>
        <path id="Path_105" data-name="Path 105" d="M115.618,94.089c.676,5.51-3.521,10.544-9.374,11.243S95.1,102.13,94.424,96.62s3.521-10.544,9.374-11.242S114.943,88.579,115.618,94.089Z" transform="translate(-91.344 -78.733)" fill="#ffd49f"/>
        <path id="Path_106" data-name="Path 106" d="M142.182,120.984a9.493,9.493,0,0,0-.714-2.622c.382,2.355,1.168,14.422-14.458,13.02h0a11.133,11.133,0,0,0,5.8.845C138.661,131.528,142.858,126.494,142.182,120.984Z" transform="translate(-117.907 -105.628)" fill="#fcc194"/>
        <path id="Path_107" data-name="Path 107" d="M134.484,158.054a4.1,4.1,0,0,0,3.283-.413c1.292-.965,2.579-.628,3.06.57s-.372,3.167-3.753,3.855c-2.941.6-4.735-1.15-4.971-2.056A1.735,1.735,0,0,1,134.484,158.054Z" transform="translate(-122.013 -137.121)" fill="#007c84"/>
        <path id="Path_108" data-name="Path 108" d="M137.787,161.787a4.019,4.019,0,0,0,2.99-.24c1.116-.767,2.2-.728,2.62.227s-.65,2.368-3.355,2.851c-2.546.454-3.837-.705-4.042-1.428S136.138,161.4,137.787,161.787Z" transform="translate(-125.176 -140.318)" fill="#009498"/>
        <path id="Path_109" data-name="Path 109" d="M113.834,156.618c.078.409-.41.843-1.09.969s-1.294-.1-1.372-.513.41-.843,1.09-.969S113.756,156.209,113.834,156.618Z" transform="translate(-105.18 -136.301)" fill="#ec7b7d"/>
        <path id="Path_110" data-name="Path 110" d="M183.874,143.994c.078.409-.41.843-1.09.969s-1.295-.1-1.372-.512.41-.843,1.09-.969S183.8,143.585,183.874,143.994Z" transform="translate(-162.15 -126.032)" fill="#ec7b7d"/>
        <path id="Path_111" data-name="Path 111" d="M94.989,90.48s.527.2,2.359-2.328a14.152,14.152,0,0,0,1.9-3.815,13.349,13.349,0,0,0,10.173-1.6s3.243,4.413,5.881,4.9c0,0-1.638-7.114-10.484-6.531S94.6,88.993,94.989,90.48Z" transform="translate(-91.812 -75.295)" fill="#bb6056"/>
        <path id="Path_112" data-name="Path 112" d="M147.248,171s-3.137,1.7-2.13,3.04c1.048,1.39,2.457-.162,2.457-.162s1.811,1.057,2.522-.291C150.917,172.039,148.2,171.1,147.248,171Zm2.162,2.263c-.524.769-1.867-.194-1.867-.194s-1,1.22-1.671.614c-.776-.7,1.507-1.875,1.507-1.875C148.04,171.869,149.924,172.513,149.41,173.267Z" transform="translate(-132.473 -148.447)" fill="#ffc337"/>
        <path id="Path_113" data-name="Path 113" d="M153.629,169.067s.126,1.535.9,1.458c.631-.062.579-.758.443-1.615A.678.678,0,1,0,153.629,169.067Z" transform="translate(-139.556 -146.239)" fill="#df284d"/>
        <path id="Path_114" data-name="Path 114" d="M154.871,217.744s-3.2-.994-2.752-2.264c.458-1.293,1.572-.711,2.293-.194,0,0,.945-1.416,1.933-.679C157.688,215.61,154.871,217.744,154.871,217.744Z" transform="translate(-138.294 -183.74)" fill="#ffc337"/>
        <path id="Path_115" data-name="Path 115" d="M139.637,200.618a.688.688,0,1,1-.688-.679A.683.683,0,0,1,139.637,200.618Z" transform="translate(-127.058 -171.982)" fill="#fff"/>
        <path id="Path_116" data-name="Path 116" d="M181.422,192.821a.688.688,0,1,1-.688-.679A.683.683,0,0,1,181.422,192.821Z" transform="translate(-161.046 -165.64)" fill="#fff"/>
        <path id="Path_117" data-name="Path 117" d="M122.067,70.694A7.144,7.144,0,0,1,120,69.675c-.885-.679-1.769-1.358-2.162-.291s-.016,4.074.967,4.413,1.835-1.067,3.112-1.649Z" transform="translate(-110.323 -65.338)" fill="#df284d"/>
        <path id="Path_118" data-name="Path 118" d="M144.345,68.22a7.076,7.076,0,0,0,1.738-1.5c.683-.877,1.366-1.754,2.018-.818s.986,3.775.121,4.348-1.979-.414-3.364-.66Z" transform="translate(-132.007 -62.632)" fill="#df284d"/>
        <g id="Group_17" data-name="Group 17" transform="translate(8.158 14.502)">
          <path id="Path_119" data-name="Path 119" d="M127.737,134.019c.095.761-.23,1.427-.727,1.487s-.976-.508-1.071-1.269.231-1.427.727-1.487S127.642,133.258,127.737,134.019Z" transform="translate(-125.181 -131.829)" fill="#43213e"/>
          <path id="Path_120" data-name="Path 120" d="M124.923,139.318c.026.229-.27.449-.66.492s-.728-.108-.754-.337.27-.449.66-.492S124.9,139.089,124.923,139.318Z" transform="translate(-123.215 -136.896)" fill="#fff"/>
          <path id="Path_121" data-name="Path 121" d="M125.78,129a1.551,1.551,0,0,1-.679-1.059c-.013-.143-.24-.14-.226,0a1.769,1.769,0,0,0,.793,1.25A.112.112,0,0,0,125.78,129Z" transform="translate(-124.328 -127.837)" fill="#43213e"/>
          <path id="Path_122" data-name="Path 122" d="M123.057,131.361c-.43-.022-.787-.6-.889-.962a.113.113,0,0,0-.217.063c.132.472.568,1.1,1.11,1.123C123.207,131.592,123.2,131.369,123.057,131.361Z" transform="translate(-121.946 -129.858)" fill="#43213e"/>
        </g>
        <g id="Group_18" data-name="Group 18" transform="translate(15.971 13.143)">
          <path id="Path_123" data-name="Path 123" d="M163.858,128.491c.163.784.71,1.336,1.22,1.232s.794-.823.631-1.607-.709-1.336-1.221-1.232S163.7,127.707,163.858,128.491Z" transform="translate(-163.812 -125.693)" fill="#43213e"/>
          <path id="Path_124" data-name="Path 124" d="M168.952,132.637c.052.235.419.356.82.27s.684-.346.632-.581-.418-.356-.819-.27S168.9,132.4,168.952,132.637Z" transform="translate(-167.988 -129.888)" fill="#fff"/>
          <path id="Path_125" data-name="Path 125" d="M167.93,121.978a1.6,1.6,0,0,0,.314-1.27c-.035-.146.19-.217.224-.071a1.828,1.828,0,0,1-.363,1.5A.117.117,0,0,1,167.93,121.978Z" transform="translate(-167.138 -120.557)" fill="#43213e"/>
          <path id="Path_126" data-name="Path 126" d="M170.143,123.439c.419-.163.577-.849.556-1.244a.118.118,0,0,1,.236-.009,1.536,1.536,0,0,1-.719,1.475C170.073,123.716,170,123.494,170.143,123.439Z" transform="translate(-168.9 -121.794)" fill="#43213e"/>
        </g>
        <path id="Path_127" data-name="Path 127" d="M126.989,80.817a4.066,4.066,0,0,0-1.278-.315c-.187-.02-.941-.125-.663.187a2.584,2.584,0,0,0,.86.377c.231.094.456.154.679.235-.4.141-1.242.049-1.488.488.384.133,2.31-.043,1.989-.729" transform="translate(-116.261 -74.806)" fill="#dfe1e2" style="mix-blend-mode: multiply;isolation: isolate"/>
        <path id="Path_128" data-name="Path 128" d="M149.35,78.96a4.056,4.056,0,0,1,1.273-.334c.187-.023.939-.14.666.176-.169.2-.617.29-.854.39s-.453.161-.675.246c.4.135,1.242.03,1.5.464-.382.138-2.31-.007-2-.7" transform="translate(-135.973 -73.274)" fill="#dfe1e2" style="mix-blend-mode: multiply;isolation: isolate"/>
        <path id="Path_129" data-name="Path 129" d="M135.256,75.251s-.572-.681-1.233-.464-.44,2.607.308,3,1.159-.623,1.159-.623.6.71,1.13.406.616-2.65-.352-2.954C136.013,74.534,135.256,75.251,135.256,75.251Z" transform="translate(-123.292 -70.039)" fill="#df284d"/>
        <path id="Path_149" data-name="Path 149" d="M229.984,170.732s-1.625.76-1.657,1.439,1.147.065,1.147.065-1.147.582-.983,1.1c.131.415,1.245-.032,1.605-.355S230.854,170.651,229.984,170.732Z" transform="translate(-200.316 -148.224)" fill="#f5a385"/>
        <path id="Path_150" data-name="Path 150" d="M187.144,233.906s-1.12-1.47.585-3.255c1.754-1.837,3.047-1.24,3.728-.461C191.571,230.319,188.166,233.618,187.144,233.906Z" transform="translate(-166.526 -195.977)" fill="#f5aea4"/>
        <path id="Path_151" data-name="Path 151" d="M191.952,220.157s1.083-1.418,2.136-1.234c.9.157.907.866.431,1.5.342-.145.77-.27,1.007-.122.436.274-.268.856-.084.944s.416-.407.755-.066c.32.323-.252.6-.17.788s.447-.26.653.34c.106.308-.539,1.442-1.178,1.976-1.172,1.345-4.762,2.812-6.277,1.993C187.375,225.277,189.18,223.027,191.952,220.157Z" transform="translate(-167.899 -187.41)" fill="#ffd49f"/>
        <path id="Path_152" data-name="Path 152" d="M215.675,232.846a2.984,2.984,0,0,0-1.956-2.034S214.856,231.9,215.675,232.846Z" transform="translate(-188.435 -197.094)" fill="#f5a385"/>
        <path id="Path_153" data-name="Path 153" d="M194.869,244.825a1.351,1.351,0,0,0-.875-2.064,1.55,1.55,0,0,0-1.712,1.839A1.636,1.636,0,0,0,194.869,244.825Z" transform="translate(-170.957 -206.801)" fill="#fcc194"/>
      </g>
      <g id="Group_375" data-name="Group 375" transform="translate(71.14 182.035)">
        <g id="Group_373" data-name="Group 373" transform="translate(0 0)">
          <g id="Group_372" data-name="Group 372">
            <path id="Path_399" data-name="Path 399" d="M276.434,290.414a14.447,14.447,0,0,1-.7-3.818c-.546-6.541-2.964-7.172-2.964-7.172a9.866,9.866,0,0,0-7.142,0s-2.418.631-2.964,7.172a14.451,14.451,0,0,1-.7,3.818c-1.176,3.184-1.516,7.894,2.633,9.021a30.939,30.939,0,0,0,9.209,0C277.95,298.308,277.609,293.6,276.434,290.414Z" transform="translate(-253.538 -257.986)" fill="#fcbd92"/>
            <path id="Path_400" data-name="Path 400" d="M274.485,295.168a11.213,11.213,0,0,1-4.4-.439,7.122,7.122,0,0,1-3.708-2.34,7.646,7.646,0,0,1-1.664-4.461,11.817,11.817,0,0,1,.879-4.782,9.3,9.3,0,0,1,2.791-3.6,9.833,9.833,0,0,1,1.131-.815c-.2.009-.317.022-.317.022a6.362,6.362,0,0,0-3.571.669s-2.418.631-2.964,7.172a14.451,14.451,0,0,1-.7,3.818c-1.176,3.184-1.516,7.894,2.633,9.021a30.939,30.939,0,0,0,9.209,0c2.629-.714,3.454-2.867,3.408-5.159A6.929,6.929,0,0,1,274.485,295.168Z" transform="translate(-253.538 -257.986)" fill="#fcbd92" opacity="0.3" style="mix-blend-mode: multiply;isolation: isolate"/>
            <path id="Path_401" data-name="Path 401" d="M261.2,331.074a45.293,45.293,0,0,0,14.837,0,4.455,4.455,0,0,1,.59,4.038s-4.907-.056-5.621,4.726a4.564,4.564,0,0,1-4.8,0s-.528-4.228-5.547-4.24A5.764,5.764,0,0,1,261.2,331.074Z" transform="translate(-252.953 -298.142)" fill="#6bbba5"/>
            <path id="Path_402" data-name="Path 402" d="M270.049,340.021a3.159,3.159,0,0,1-2.954-.741,3.4,3.4,0,0,1-.522-1.857,2.3,2.3,0,0,0-1.291-1.927c-.958-.412-2.442-.436-2.847-1.611a2.351,2.351,0,0,1,.962-2.416c.032-.026.065-.051.1-.077-1.425-.159-2.294-.319-2.294-.319a5.764,5.764,0,0,0-.543,4.524c5.019.012,5.547,4.24,5.547,4.24a4.564,4.564,0,0,0,4.8,0c0-.01,0-.018,0-.027A7.808,7.808,0,0,1,270.049,340.021Z" transform="translate(-252.953 -298.142)" fill="#6bbba5" opacity="0.4" style="mix-blend-mode: multiply;isolation: isolate"/>
            <path id="Path_403" data-name="Path 403" d="M314.157,331.074l-.174.033a5.16,5.16,0,0,1-.126,1.965,3.161,3.161,0,0,1-1.822,1.329,3.349,3.349,0,0,0-1.172.7,2.7,2.7,0,0,0-.667,1.307,3.976,3.976,0,0,0-.079.921,6.138,6.138,0,0,1,4.631-2.22A4.454,4.454,0,0,0,314.157,331.074Z" transform="translate(-291.073 -298.142)" fill="#6bbba5" opacity="0.4" style="mix-blend-mode: multiply;isolation: isolate"/>
            <g id="Group_319" data-name="Group 319" transform="translate(2.356 36.503)">
              <path id="Path_404" data-name="Path 404" d="M245.928,354.832a12.372,12.372,0,0,1,3.614-4.337c4.941.091,5.547,4.24,5.547,4.24s-2.06,1.99-4.089,1.678c0,0-1.612,2.046-3.645.937Z" transform="translate(-244.193 -349.542)" fill="#fcbd92"/>
              <g id="Group_318" data-name="Group 318">
                <g id="Group_315" data-name="Group 315" transform="translate(0.084 0.067)">
                  <path id="Path_405" data-name="Path 405" d="M253.639,347.875a.937.937,0,1,0,.733-1.169A.978.978,0,0,0,253.639,347.875Z" transform="translate(-250.178 -346.691)" fill="#fcbd92"/>
                  <path id="Path_406" data-name="Path 406" d="M249.553,350.645c.079.425.4.722.712.663a.7.7,0,0,0,.427-.875c-.079-.424-.4-.722-.712-.663A.7.7,0,0,0,249.553,350.645Z" transform="translate(-247.045 -349.047)" fill="#fcbd92"/>
                  <path id="Path_407" data-name="Path 407" d="M245.462,352.842c.079.425.4.722.712.664a.7.7,0,0,0,.427-.875c-.079-.425-.4-.722-.713-.664A.7.7,0,0,0,245.462,352.842Z" transform="translate(-243.906 -350.732)" fill="#fcbd92"/>
                  <path id="Path_408" data-name="Path 408" d="M241.685,354.881c.079.425.4.722.712.664a.7.7,0,0,0,.427-.875c-.079-.425-.4-.722-.712-.664A.7.7,0,0,0,241.685,354.881Z" transform="translate(-241.009 -352.297)" fill="#fcbd92"/>
                  <path id="Path_409" data-name="Path 409" d="M238.856,358.192c.06.322.3.547.539.5a.533.533,0,0,0,.323-.663c-.059-.322-.3-.547-.539-.5A.533.533,0,0,0,238.856,358.192Z" transform="translate(-238.842 -355.001)" fill="#fcbd92"/>
                  <path id="Path_410" data-name="Path 410" d="M240.952,357.447a4.216,4.216,0,0,0,.809,1.425,1.98,1.98,0,0,0,1.8.687,2.156,2.156,0,0,0,1.78-2.384,9.162,9.162,0,0,0-.222-1.5,1.892,1.892,0,0,1,.071-1.251,1.961,1.961,0,0,0-.434-2.339l-1.09-.682-3.505,1.851-.14.677a.793.793,0,0,1,.377.6A12.055,12.055,0,0,0,240.952,357.447Z" transform="translate(-239.746 -350.309)" fill="#fcbd92"/>
                  <g id="Group_312" data-name="Group 312" transform="translate(0.013 1.497)">
                    <g id="Group_311" data-name="Group 311">
                      <path id="Path_411" data-name="Path 411" d="M243.451,353.635l-.126.024-.131,0-.131-.017-.128-.036-.122-.054-.115-.07c-.035-.028-.071-.055-.1-.085l-.092-.1.107-.032a1.091,1.091,0,0,1-.025.185.851.851,0,0,1-.061.18.734.734,0,0,1-.108.163.86.86,0,0,1-.074.069.529.529,0,0,1-.086.056.421.421,0,0,1-.1.038l-.025.008-.006,0-.01,0h0l-.011,0-.043.006a.586.586,0,0,1-.11,0,.6.6,0,0,1-.1-.024.753.753,0,0,1-.328-.226l.178-.07a1.324,1.324,0,0,1-.007.194.79.79,0,0,1-.043.192.479.479,0,0,1-.038.092.5.5,0,0,1-.049.089l-.061.084-.077.073a.535.535,0,0,1-.09.06.35.35,0,0,1-.1.042l-.053.016-.007,0-.02,0h-.033a.683.683,0,0,1-.091,0c-.039-.006-.078-.014-.117-.023a.479.479,0,0,1-.1-.041.791.791,0,0,1-.171-.115l.18-.072a1.152,1.152,0,0,1-.034.193.542.542,0,0,1-.03.094.8.8,0,0,1-.041.092.732.732,0,0,1-.12.166.627.627,0,0,1-.173.121.485.485,0,0,1-.1.035l-.026.007a.165.165,0,0,1-.031,0l-.044,0a.659.659,0,0,1-.112-.007.586.586,0,0,1-.1-.028.734.734,0,0,1-.313-.241l.143-.067c.007.047.007.071.01.108a.73.73,0,0,1,0,.114.667.667,0,0,1-.055.22.518.518,0,0,1-.13.188.4.4,0,0,1-.1.068.493.493,0,0,1-.112.037.621.621,0,0,1-.111,0,.46.46,0,0,1-.114-.035.428.428,0,0,1-.093-.059.445.445,0,0,1-.077-.076.482.482,0,0,1-.062-.087.52.52,0,0,1-.047-.094.908.908,0,0,1-.05-.2.9.9,0,0,0,.078.187.583.583,0,0,0,.055.083.423.423,0,0,0,.065.073.366.366,0,0,0,.076.059.345.345,0,0,0,.084.041.4.4,0,0,0,.083.018.558.558,0,0,0,.092-.009.528.528,0,0,0,.078-.035.289.289,0,0,0,.066-.055.388.388,0,0,0,.089-.152.527.527,0,0,0,.032-.177.482.482,0,0,0,0-.09c0-.031-.01-.075-.015-.095l-.091-.33.234.263a.577.577,0,0,0,.249.168.354.354,0,0,0,.068.016.507.507,0,0,0,.063,0l.044-.005s.024,0,.013,0l.016-.006a.3.3,0,0,0,.063-.024.428.428,0,0,0,.11-.084.6.6,0,0,0,.082-.121.622.622,0,0,0,.03-.069.382.382,0,0,0,.022-.073.93.93,0,0,0,.025-.153l.024-.171.156.1a.609.609,0,0,0,.121.079.3.3,0,0,0,.062.026.347.347,0,0,1,.055.014.747.747,0,0,0,.084,0h.037l-.014,0h0l.031-.01a.181.181,0,0,0,.061-.025.339.339,0,0,0,.057-.037l.051-.047.043-.059a.326.326,0,0,0,.036-.065.314.314,0,0,0,.03-.07.687.687,0,0,0,.036-.15,1.06,1.06,0,0,0,.011-.157l.024-.26.154.191a.559.559,0,0,0,.234.177.429.429,0,0,0,.068.019.522.522,0,0,0,.064.006l.044,0h.014c-.013,0,0,0,0,0h0l.017,0a.256.256,0,0,0,.067-.021.371.371,0,0,0,.063-.034c.019-.016.04-.029.058-.046a.584.584,0,0,0,.093-.122.686.686,0,0,0,.061-.147.978.978,0,0,0,.034-.159l.026-.141.081.109a1.417,1.417,0,0,0,.162.181l.1.076.106.062.115.047.121.03.125.014Z" transform="translate(-238.9 -353.12)" fill="#e8a67a"/>
                    </g>
                  </g>
                  <g id="Group_314" data-name="Group 314" transform="translate(1.029 2.447)">
                    <g id="Group_313" data-name="Group 313">
                      <path id="Path_412" data-name="Path 412" d="M246.551,357.411a.14.14,0,0,0-.035-.031l-.045-.03-.07-.025a.705.705,0,0,0-.194-.029c-.076,0-.164.02-.256.027l-.3.082c-.1.029-.209.085-.321.125l-.169.067-.168.086-.344.171a2.866,2.866,0,0,0-.33.187c-.1.07-.21.135-.3.208a2.834,2.834,0,0,0-.477.437,1.527,1.527,0,0,0-.15.21.946.946,0,0,0-.086.182,1.239,1.239,0,0,0-.034.126l-.011.046V359.2a.681.681,0,0,1,0-.135,1.017,1.017,0,0,1,.053-.206,1.141,1.141,0,0,1,.121-.249,2.249,2.249,0,0,1,.459-.515,3.228,3.228,0,0,1,.308-.235,3.013,3.013,0,0,1,.344-.2l.358-.17.176-.081.181-.06a2.95,2.95,0,0,1,.347-.1c.115-.019.223-.038.323-.048a2.28,2.28,0,0,1,.279.017.747.747,0,0,1,.2.071l.067.042.04.044A.135.135,0,0,1,246.551,357.411Z" transform="translate(-243.258 -357.198)" fill="#e8a67a"/>
                    </g>
                  </g>
                </g>
                <g id="Group_317" data-name="Group 317">
                  <g id="Group_316" data-name="Group 316">
                    <path id="Path_413" data-name="Path 413" d="M244.149,353.339c-.021-.221-.045-.442-.075-.662-.012-.11-.034-.219-.051-.329a2.9,2.9,0,0,0-.066-.325c-.025-.105-.055-.216-.077-.325l-.037-.163-.009-.171c0-.057-.008-.115-.005-.172l.02-.169a1.459,1.459,0,0,1,.074-.333c.031-.112.064-.211.1-.319a2.7,2.7,0,0,0,.074-.315,2.472,2.472,0,0,0,.026-.321,2.075,2.075,0,0,0-.02-.319,1.742,1.742,0,0,0-.073-.309,1.786,1.786,0,0,0-.125-.291,1.789,1.789,0,0,0-.173-.265c-.034-.04-.067-.082-.1-.118-.018-.019-.036-.037-.055-.055l-.028-.026-.014-.013c-.018-.013.027.021.047.01l-.068-.169.073-.079.063-.088a1.05,1.05,0,0,0,.092-.2.978.978,0,0,0,.042-.432l-.006-.054-.014-.049-.032-.116a1.882,1.882,0,0,0-.091-.193,1,1,0,0,0-.137-.171l-.08-.076c-.029-.022-.061-.04-.092-.06a.866.866,0,0,0-.2-.092.974.974,0,0,0-.217-.031l-.11.006h-.028l-.023.006-.058.015a.831.831,0,0,0-.2.084.953.953,0,0,0-.309.322,1,1,0,0,0-.086.211,1.071,1.071,0,0,0-.04.226l-.013.081-.063-.055a.99.99,0,0,0-.131-.119l-.075-.046a.323.323,0,0,0-.081-.029.208.208,0,0,0-.084-.017h-.086a.458.458,0,0,0-.085.023c-.034.007-.05.027-.076.039a.279.279,0,0,0-.067.053.271.271,0,0,0-.058.066.694.694,0,0,0-.088.156.805.805,0,0,0-.044.176,1.1,1.1,0,0,0-.01.182l0,.09-.056-.066a.619.619,0,0,0-.266-.189.42.42,0,0,0-.158-.023.313.313,0,0,0-.077.014.325.325,0,0,0-.079.029.45.45,0,0,0-.065.041c-.02.018-.042.034-.06.054a.613.613,0,0,0-.093.134.685.685,0,0,0-.056.156,1,1,0,0,0-.025.164l-.01.078-.065-.047L240,348.3a.391.391,0,0,0-.083-.042.248.248,0,0,0-.088-.026.209.209,0,0,0-.09-.007l-.045,0h-.011s-.011,0,0,0l-.006,0-.024.008a.476.476,0,0,0-.092.036l-.068.048-.061.068a.52.52,0,0,0-.05.078.314.314,0,0,0-.039.085.531.531,0,0,0-.029.089l-.017.093a.718.718,0,0,0-.005.095.46.46,0,0,0,0,.1l.012.095a.872.872,0,0,0,.021.1l.038.184-.157-.12c-.026-.02-.05-.042-.076-.061a.467.467,0,0,0-.084-.038.236.236,0,0,0-.087-.011l-.043,0s-.03.011-.044.015c-.043.011-.05.031-.074.043a.592.592,0,0,0-.06.067.488.488,0,0,0-.044.084.452.452,0,0,0-.028.093.615.615,0,0,0-.01.2l.006.05s0,.025,0,.016l.008.027.034.108a.462.462,0,0,0,.045.084.238.238,0,0,0,.054.075c.023.021.04.051.066.066l.075.048.013.007a.9.9,0,0,1,.358.631l.073.658.1.648c.031.216.088.427.13.64a5.866,5.866,0,0,0,.167.629l.091.308.122.307a3.138,3.138,0,0,0,.136.292,2.039,2.039,0,0,0,.154.28,3.833,3.833,0,0,0,.371.512,2.362,2.362,0,0,0,.484.41,2.228,2.228,0,0,0,.276.151,2.134,2.134,0,0,0,.3.1,1.632,1.632,0,0,0,.622.033,2.5,2.5,0,0,0,.614-.184,2.024,2.024,0,0,0,.938-.863A2.329,2.329,0,0,0,244.149,353.339Zm.022,0a2.368,2.368,0,0,1-.236,1.292,2.064,2.064,0,0,1-.389.543,2.3,2.3,0,0,1-.542.4,2.642,2.642,0,0,1-.636.228,1.682,1.682,0,0,1-.344.033c-.058,0-.116,0-.174-.006l-.171-.03a2.29,2.29,0,0,1-.331-.1,2.385,2.385,0,0,1-.308-.155,2.481,2.481,0,0,1-.534-.425,3.939,3.939,0,0,1-.407-.553,2.236,2.236,0,0,1-.166-.3,3.352,3.352,0,0,1-.144-.306l-.123-.307-.1-.325a5.421,5.421,0,0,1-.173-.647c-.041-.219-.1-.435-.124-.656l-.09-.66-.064-.656a.724.724,0,0,0-.262-.493l.013.008-.113-.075a.622.622,0,0,1-.091-.095.4.4,0,0,1-.073-.11.75.75,0,0,1-.055-.117l-.031-.109-.008-.027a.208.208,0,0,1-.006-.04l-.006-.062a.78.78,0,0,1,.02-.25.59.59,0,0,1,.041-.121.65.65,0,0,1,.065-.113.663.663,0,0,1,.094-.1.429.429,0,0,1,.122-.065l.064-.019.069,0a.367.367,0,0,1,.134.022.6.6,0,0,1,.118.058c.035.025.065.055.1.083l-.119.064a.931.931,0,0,1-.019-.1l-.01-.108a.563.563,0,0,1,0-.108.882.882,0,0,1,.009-.108l.023-.107a.642.642,0,0,1,.037-.1.393.393,0,0,1,.049-.1.614.614,0,0,1,.063-.091l.078-.081c.033-.023.068-.044.1-.064a.531.531,0,0,1,.1-.035l.024-.008.006,0c.016,0,.009,0,.014,0h.014l.057,0a.288.288,0,0,1,.112.012.329.329,0,0,1,.106.035.5.5,0,0,1,.1.053l.086.067-.075.03a1.1,1.1,0,0,1,.033-.18.849.849,0,0,1,.066-.171.7.7,0,0,1,.108-.152.934.934,0,0,1,.071-.061.477.477,0,0,1,.084-.05.5.5,0,0,1,.18-.046.485.485,0,0,1,.186.028.687.687,0,0,1,.3.214l-.061.023a1.153,1.153,0,0,1,.012-.194,1,1,0,0,1,.047-.19.754.754,0,0,1,.094-.174.316.316,0,0,1,.065-.075.354.354,0,0,1,.079-.065.413.413,0,0,1,.091-.047.537.537,0,0,1,.1-.027l.1,0a.272.272,0,0,1,.1.017.434.434,0,0,1,.1.033l.087.052a1.042,1.042,0,0,1,.149.132l-.075.026a1.391,1.391,0,0,1,.037-.246,1.1,1.1,0,0,1,.086-.236,1.064,1.064,0,0,1,.334-.375.978.978,0,0,1,.233-.107l.057-.017a.332.332,0,0,1,.035-.01l.032,0,.129-.012a1.13,1.13,0,0,1,.257.028,1.021,1.021,0,0,1,.239.1c.037.022.075.043.111.067l.1.085a1.174,1.174,0,0,1,.169.2,1.49,1.49,0,0,1,.118.238l.033.115.018.066.008.065a1.164,1.164,0,0,1-.044.515,1.249,1.249,0,0,1-.109.238l-.075.108-.089.1-.068-.169a.159.159,0,0,1,.079.037l.018.015.033.03a.856.856,0,0,1,.062.064c.041.043.076.089.113.135a1.942,1.942,0,0,1,.185.3,1.223,1.223,0,0,1,.073.159,1.182,1.182,0,0,1,.058.165,1.94,1.94,0,0,1,.072.34l.014.173c0,.058,0,.116-.005.174a2.615,2.615,0,0,1-.045.341,2.864,2.864,0,0,1-.1.329c-.038.1-.081.212-.114.313a1.353,1.353,0,0,0-.085.313l-.028.161c-.005.054,0,.107,0,.161v.162l.029.164c.019.11.038.215.063.326a3.02,3.02,0,0,1,.061.329c.015.11.036.22.046.331C244.133,352.894,244.154,353.115,244.171,353.337Z" transform="translate(-238.481 -346.404)" fill="#e8a67a"/>
                  </g>
                </g>
              </g>
            </g>
            <g id="Group_328" data-name="Group 328" transform="translate(18.268 36.362)">
              <path id="Path_414" data-name="Path 414" d="M315.957,354.225a12.369,12.369,0,0,0-3.614-4.337c-4.941.091-5.547,4.24-5.547,4.24s2.06,1.99,4.089,1.678c0,0,1.612,2.046,3.645.937Z" transform="translate(-306.796 -348.935)" fill="#fcbd92"/>
              <g id="Group_327" data-name="Group 327" transform="translate(5.093)">
                <g id="Group_324" data-name="Group 324" transform="translate(0.08 0.067)">
                  <path id="Path_415" data-name="Path 415" d="M332.245,347.268a.937.937,0,1,1-.733-1.169A.977.977,0,0,1,332.245,347.268Z" transform="translate(-330.068 -346.084)" fill="#fcbd92"/>
                  <path id="Path_416" data-name="Path 416" d="M338.632,350.038c-.079.425-.4.722-.712.664a.7.7,0,0,1-.427-.875c.079-.425.4-.722.712-.663A.7.7,0,0,1,338.632,350.038Z" transform="translate(-335.503 -348.441)" fill="#fcbd92"/>
                  <path id="Path_417" data-name="Path 417" d="M342.723,352.236c-.079.425-.4.722-.713.664a.7.7,0,0,1-.427-.875c.079-.425.4-.722.713-.664A.7.7,0,0,1,342.723,352.236Z" transform="translate(-338.641 -350.126)" fill="#fcbd92"/>
                  <path id="Path_418" data-name="Path 418" d="M346.5,354.275c-.079.425-.4.722-.712.664a.7.7,0,0,1-.427-.875c.079-.425.4-.722.712-.664A.7.7,0,0,1,346.5,354.275Z" transform="translate(-341.538 -351.69)" fill="#fcbd92"/>
                  <path id="Path_419" data-name="Path 419" d="M350.268,357.585c-.06.322-.3.547-.539.5a.533.533,0,0,1-.323-.662c.06-.322.3-.547.539-.5A.534.534,0,0,1,350.268,357.585Z" transform="translate(-344.643 -354.393)" fill="#fcbd92"/>
                  <path id="Path_420" data-name="Path 420" d="M333.44,356.841a4.218,4.218,0,0,1-.809,1.426,1.979,1.979,0,0,1-1.8.686,2.156,2.156,0,0,1-1.78-2.384,9.155,9.155,0,0,1,.222-1.5,1.89,1.89,0,0,0-.071-1.251,1.961,1.961,0,0,1,.434-2.34l1.09-.682,3.505,1.851.14.677a.793.793,0,0,0-.377.6A12.061,12.061,0,0,1,333.44,356.841Z" transform="translate(-329.007 -349.702)" fill="#fcbd92"/>
                  <g id="Group_321" data-name="Group 321" transform="translate(1.073 1.497)">
                    <g id="Group_320" data-name="Group 320">
                      <path id="Path_421" data-name="Path 421" d="M333.616,353.028l.128,0,.125-.014.121-.03.115-.047.106-.062.1-.076a1.405,1.405,0,0,0,.161-.181l.082-.109.026.141a.974.974,0,0,0,.034.159.694.694,0,0,0,.061.147.565.565,0,0,0,.093.122c.017.018.039.031.057.046a.382.382,0,0,0,.063.035.271.271,0,0,0,.067.021l.017,0h.013l.044,0a.593.593,0,0,0,.064-.006.387.387,0,0,0,.068-.019.558.558,0,0,0,.234-.177l.154-.191.025.261a1.068,1.068,0,0,0,.011.157.674.674,0,0,0,.037.15.309.309,0,0,0,.029.069.337.337,0,0,0,.036.065l.043.059.051.047a.341.341,0,0,0,.057.037.179.179,0,0,0,.061.025l.031.01h0l-.014,0h.037a.7.7,0,0,0,.084,0,.349.349,0,0,1,.055-.014.291.291,0,0,0,.062-.026.576.576,0,0,0,.121-.079l.155-.1.024.171a.928.928,0,0,0,.025.153.367.367,0,0,0,.022.073.594.594,0,0,0,.112.19.428.428,0,0,0,.11.084.278.278,0,0,0,.064.024l.016.006c-.011,0,.009,0,.013,0l.044.005a.6.6,0,0,0,.063,0,.412.412,0,0,0,.069-.017.579.579,0,0,0,.249-.169l.254-.286-.111.356c0,.014-.01.062-.015.091a.479.479,0,0,0,0,.09.529.529,0,0,0,.032.177.39.39,0,0,0,.089.152.286.286,0,0,0,.066.055.575.575,0,0,0,.078.035.619.619,0,0,0,.092.009.447.447,0,0,0,.083-.018.349.349,0,0,0,.084-.041.383.383,0,0,0,.076-.059.425.425,0,0,0,.066-.073.547.547,0,0,0,.055-.083.89.89,0,0,0,.079-.187.918.918,0,0,1-.05.2.51.51,0,0,1-.047.094.473.473,0,0,1-.061.086.521.521,0,0,1-.171.135.448.448,0,0,1-.114.035.6.6,0,0,1-.111,0,.482.482,0,0,1-.112-.037.4.4,0,0,1-.1-.068.514.514,0,0,1-.13-.188.671.671,0,0,1-.055-.22.68.68,0,0,1,0-.113c0-.038,0-.059.01-.111l.143.07a.733.733,0,0,1-.313.241.535.535,0,0,1-.1.028.637.637,0,0,1-.112.007l-.044,0a.179.179,0,0,1-.031,0l-.026-.007a.489.489,0,0,1-.1-.035.632.632,0,0,1-.173-.122.721.721,0,0,1-.12-.166.761.761,0,0,1-.041-.091.535.535,0,0,1-.03-.094,1.139,1.139,0,0,1-.034-.194l.18.073a.8.8,0,0,1-.171.115.487.487,0,0,1-.1.041c-.039.009-.078.017-.117.023a.641.641,0,0,1-.091,0h-.033l-.02,0-.007,0-.053-.016a.351.351,0,0,1-.1-.042.532.532,0,0,1-.09-.06l-.077-.073-.061-.084a.518.518,0,0,1-.048-.089.479.479,0,0,1-.038-.093.787.787,0,0,1-.043-.192,1.289,1.289,0,0,1-.007-.194l.178.069a.754.754,0,0,1-.328.227.642.642,0,0,1-.1.024.564.564,0,0,1-.11,0l-.043-.006-.011,0h0l-.01,0-.006,0-.025-.008a.42.42,0,0,1-.1-.038.549.549,0,0,1-.086-.056,1,1,0,0,1-.074-.069.732.732,0,0,1-.107-.163.834.834,0,0,1-.061-.18,1.112,1.112,0,0,1-.025-.185l.107.032-.092.1c-.034.029-.07.057-.105.085l-.114.07-.122.054-.128.037-.131.017-.131,0Z" transform="translate(-333.616 -352.513)" fill="#e8a67a"/>
                    </g>
                  </g>
                  <g id="Group_323" data-name="Group 323" transform="translate(1.316 2.447)">
                    <g id="Group_322" data-name="Group 322">
                      <path id="Path_422" data-name="Path 422" d="M334.659,356.8a.138.138,0,0,1,.026-.039l.04-.044.067-.042a.74.74,0,0,1,.2-.071,2.231,2.231,0,0,1,.279-.017c.1.011.208.029.323.049a2.95,2.95,0,0,1,.347.1l.182.06.176.081.358.169a3.03,3.03,0,0,1,.344.2,3.237,3.237,0,0,1,.308.235,2.243,2.243,0,0,1,.459.515,1.14,1.14,0,0,1,.122.249,1.025,1.025,0,0,1,.053.206.719.719,0,0,1,0,.135v.047l-.011-.046a1.112,1.112,0,0,0-.034-.126.949.949,0,0,0-.085-.181,1.549,1.549,0,0,0-.15-.21,2.835,2.835,0,0,0-.477-.437c-.094-.074-.2-.139-.3-.208a2.87,2.87,0,0,0-.33-.187l-.344-.171-.168-.086-.169-.067c-.112-.04-.217-.1-.321-.125l-.3-.082c-.092-.006-.179-.024-.255-.027a.7.7,0,0,0-.194.029l-.07.025-.045.03A.137.137,0,0,0,334.659,356.8Z" transform="translate(-334.659 -356.591)" fill="#e8a67a"/>
                    </g>
                  </g>
                </g>
                <g id="Group_326" data-name="Group 326">
                  <g id="Group_325" data-name="Group 325">
                    <path id="Path_423" data-name="Path 423" d="M328.774,352.73c.017-.222.038-.443.064-.664.01-.111.031-.221.046-.331a3.065,3.065,0,0,1,.061-.329c.026-.111.045-.217.063-.326l.029-.164v-.162c0-.054,0-.108,0-.161l-.028-.161a1.364,1.364,0,0,0-.085-.313c-.033-.1-.076-.211-.114-.313a2.9,2.9,0,0,1-.1-.329,2.569,2.569,0,0,1-.045-.341c0-.058-.006-.116-.005-.173l.014-.173a1.913,1.913,0,0,1,.072-.34,1.185,1.185,0,0,1,.058-.165,1.27,1.27,0,0,1,.072-.159,1.946,1.946,0,0,1,.185-.3c.037-.046.072-.092.113-.135a.8.8,0,0,1,.062-.064l.033-.031.017-.015a.157.157,0,0,1,.079-.037l-.068.169-.089-.1-.075-.108a1.242,1.242,0,0,1-.109-.238,1.165,1.165,0,0,1-.044-.515l.008-.064.019-.066.033-.115a1.508,1.508,0,0,1,.118-.237,1.176,1.176,0,0,1,.169-.2l.1-.086c.035-.024.074-.045.111-.067a1.026,1.026,0,0,1,.239-.1,1.113,1.113,0,0,1,.257-.027l.129.012.032,0c.022.005.023.007.035.01l.057.017a1,1,0,0,1,.233.107,1.036,1.036,0,0,1,.19.169,1.007,1.007,0,0,1,.144.207,1.1,1.1,0,0,1,.086.235,1.379,1.379,0,0,1,.037.246l-.075-.026a.7.7,0,0,1,.33-.221.5.5,0,0,1,.2-.011.666.666,0,0,1,.1.027.392.392,0,0,1,.091.047.349.349,0,0,1,.079.064.32.32,0,0,1,.065.076.752.752,0,0,1,.094.174,1,1,0,0,1,.047.19,1.157,1.157,0,0,1,.012.195l-.061-.024a.691.691,0,0,1,.3-.214.491.491,0,0,1,.186-.028.385.385,0,0,1,.1.016.348.348,0,0,1,.085.03.511.511,0,0,1,.084.05.839.839,0,0,1,.071.062.7.7,0,0,1,.108.151.859.859,0,0,1,.066.172,1.092,1.092,0,0,1,.033.18l-.075-.03.086-.067a.5.5,0,0,1,.1-.053.342.342,0,0,1,.106-.035.3.3,0,0,1,.112-.012l.057,0h.014a.04.04,0,0,1,.014,0l.006,0,.025.007a.559.559,0,0,1,.1.035c.034.02.069.042.1.064l.078.08a.616.616,0,0,1,.063.092.4.4,0,0,1,.049.1.635.635,0,0,1,.037.1l.023.107a.837.837,0,0,1,.009.108.54.54,0,0,1,0,.108l-.01.108a1.028,1.028,0,0,1-.019.1l-.119-.064c.032-.028.063-.058.1-.083a.616.616,0,0,1,.118-.058.379.379,0,0,1,.134-.022l.069,0,.064.019a.441.441,0,0,1,.122.065.655.655,0,0,1,.094.1.679.679,0,0,1,.065.113.611.611,0,0,1,.041.121.778.778,0,0,1,.02.25l-.006.062a.23.23,0,0,1-.006.04l-.008.027-.03.109a.734.734,0,0,1-.055.118.393.393,0,0,1-.073.11.625.625,0,0,1-.091.095l-.113.075.013-.007a.725.725,0,0,0-.263.493l-.064.657-.089.66c-.028.221-.083.437-.124.656a5.482,5.482,0,0,1-.173.646l-.1.325-.124.306a3.367,3.367,0,0,1-.144.306,2.244,2.244,0,0,1-.166.3,3.934,3.934,0,0,1-.407.553,2.471,2.471,0,0,1-.534.425,2.347,2.347,0,0,1-.308.155,2.277,2.277,0,0,1-.331.1l-.171.03c-.057.007-.116,0-.173.006a1.643,1.643,0,0,1-.344-.033,2.625,2.625,0,0,1-.637-.228,2.308,2.308,0,0,1-.542-.4,2.057,2.057,0,0,1-.389-.543A2.366,2.366,0,0,1,328.774,352.73Zm.022,0a2.332,2.332,0,0,0,.257,1.268,2.027,2.027,0,0,0,.938.863,2.5,2.5,0,0,0,.614.184,1.626,1.626,0,0,0,.622-.034,2.089,2.089,0,0,0,.3-.1,2.228,2.228,0,0,0,.276-.15,2.359,2.359,0,0,0,.484-.41,3.818,3.818,0,0,0,.371-.513,2.066,2.066,0,0,0,.154-.28,3.2,3.2,0,0,0,.136-.292l.122-.307.091-.308a5.848,5.848,0,0,0,.167-.629c.042-.214.1-.424.13-.64l.1-.648.073-.657a.9.9,0,0,1,.358-.631l.013-.008.076-.048c.026-.015.043-.044.066-.066a.239.239,0,0,0,.054-.075.431.431,0,0,0,.045-.084l.034-.108.008-.027c0,.009,0-.012,0-.016l.006-.05a.606.606,0,0,0-.01-.2.453.453,0,0,0-.028-.093.522.522,0,0,0-.044-.084.555.555,0,0,0-.06-.066c-.024-.012-.031-.033-.074-.043-.013,0-.046-.015-.043-.015l-.044,0a.227.227,0,0,0-.087.011.457.457,0,0,0-.085.038c-.026.018-.05.041-.076.061l-.157.12.038-.184a.881.881,0,0,0,.021-.1l.012-.095a.47.47,0,0,0,0-.1.759.759,0,0,0-.005-.1l-.017-.093a.537.537,0,0,0-.029-.089.317.317,0,0,0-.039-.085.513.513,0,0,0-.05-.078l-.061-.068-.068-.048a.472.472,0,0,0-.092-.036l-.024-.009-.006,0c.012,0,0,0,0,0h-.011l-.045,0a.213.213,0,0,0-.09.007.253.253,0,0,0-.088.026.4.4,0,0,0-.083.042l-.077.056-.065.048-.01-.078a.972.972,0,0,0-.025-.164.67.67,0,0,0-.056-.156.616.616,0,0,0-.093-.134c-.018-.02-.041-.035-.06-.054a.463.463,0,0,0-.065-.041.313.313,0,0,0-.079-.029.28.28,0,0,0-.077-.013.413.413,0,0,0-.158.022.619.619,0,0,0-.266.189l-.056.066,0-.09a1.071,1.071,0,0,0-.01-.182.793.793,0,0,0-.044-.176.681.681,0,0,0-.088-.156.275.275,0,0,0-.058-.066.289.289,0,0,0-.067-.053c-.026-.012-.042-.032-.076-.039a.624.624,0,0,0-.085-.023.422.422,0,0,0-.171.012.612.612,0,0,0-.286.2l-.06.072-.015-.1a1.064,1.064,0,0,0-.04-.226,1.006,1.006,0,0,0-.086-.211.956.956,0,0,0-.309-.322.847.847,0,0,0-.2-.084l-.058-.015-.023-.006h-.028l-.11-.006a1.007,1.007,0,0,0-.217.031.867.867,0,0,0-.2.092c-.03.02-.063.038-.092.06l-.08.076a1,1,0,0,0-.137.171,1.834,1.834,0,0,0-.091.193l-.032.116-.014.05-.006.055a.976.976,0,0,0,.042.431,1.049,1.049,0,0,0,.092.2l.063.088.073.079-.068.169c.021.011.065-.023.047-.01l-.014.013-.028.026c-.019.018-.037.036-.055.055-.037.037-.07.078-.1.118a1.767,1.767,0,0,0-.173.264,1.073,1.073,0,0,0-.069.143.994.994,0,0,0-.056.148,1.769,1.769,0,0,0-.073.309,2.11,2.11,0,0,0-.019.319,2.484,2.484,0,0,0,.026.321,2.7,2.7,0,0,0,.074.315c.035.108.067.208.1.319a1.459,1.459,0,0,1,.074.333l.02.169c0,.057,0,.115-.005.172l-.009.171-.037.163c-.023.109-.052.22-.077.325a3,3,0,0,0-.066.325c-.017.109-.039.219-.052.329C328.841,352.29,328.817,352.511,328.8,352.732Z" transform="translate(-328.662 -345.798)" fill="#e8a67a"/>
                  </g>
                </g>
              </g>
            </g>
            <g id="Group_329" data-name="Group 329" transform="translate(18.553 18.933)">
              <path id="Path_424" data-name="Path 424" d="M308.016,282.724a10.509,10.509,0,0,1,9.094-2.435l.566,1.681s-4.057,4.438-8.859,3.54Z" transform="translate(-308.016 -277.959)" fill="#fcbd92"/>
              <path id="Path_425" data-name="Path 425" d="M344.009,270.974c-.465-.038-.455.6-.455.6l-.13.674c-.123.639-.933.848-.947,1.608a1.782,1.782,0,0,0,2.357,1.615,2.438,2.438,0,0,1,.342-.165l.84.461c.263.162.358.007.358.007a.315.315,0,0,0-.078-.467l-.622-.414c-.031-.125.178-.11.178-.11l1.147-.066a.314.314,0,0,0,.272-.413c-.016-.349-.453-.249-.453-.249l-1.058.09a.109.109,0,0,1-.05-.172l1.386-.73c.359-.209.244-.444.244-.444-.207-.413-.686-.132-.686-.132l-1.4.569c-.143.011-.043-.132-.043-.132l1.16-1.212c.338-.332.1-.531.1-.531a.355.355,0,0,0-.56.034c-1.721,1.563-1.707.9-1.707.9l.157-.591S344.557,271.019,344.009,270.974Z" transform="translate(-334.45 -270.972)" fill="#fcbd92"/>
            </g>
            <g id="Group_330" data-name="Group 330" transform="translate(0 18.933)">
              <path id="Path_426" data-name="Path 426" d="M251.971,282.724a10.509,10.509,0,0,0-9.094-2.435l-.566,1.681s4.057,4.438,8.859,3.54Z" transform="translate(-239.063 -277.959)" fill="#fcbd92"/>
              <path id="Path_427" data-name="Path 427" d="M231.715,270.974c.465-.038.455.6.455.6l.129.674c.123.639.933.848.947,1.608a1.782,1.782,0,0,1-2.357,1.615,2.443,2.443,0,0,0-.342-.165l-.84.461c-.263.162-.358.007-.358.007a.315.315,0,0,1,.078-.467l.622-.414c.031-.125-.178-.11-.178-.11l-1.147-.066a.314.314,0,0,1-.272-.413c.016-.349.453-.249.453-.249l1.058.09a.109.109,0,0,0,.05-.172l-1.386-.73c-.358-.209-.244-.444-.244-.444.207-.413.686-.132.686-.132l1.4.569c.143.011.043-.132.043-.132l-1.161-1.212c-.338-.332-.1-.531-.1-.531a.355.355,0,0,1,.56.034c1.721,1.563,1.708.9,1.708.9l-.157-.591S231.166,271.019,231.715,270.974Z" transform="translate(-228.366 -270.972)" fill="#fcbd92"/>
            </g>
            <g id="Group_371" data-name="Group 371" transform="translate(3.236)">
              <g id="Group_341" data-name="Group 341" transform="translate(0 11.869)">
                <g id="Group_335" data-name="Group 335" transform="translate(21.814)">
                  <path id="Path_428" data-name="Path 428" d="M335.914,242.889c-.053,1.236.642,2.236,1.549,2.233s1.685-1,1.737-2.241-.643-2.235-1.551-2.234S335.965,241.654,335.914,242.889Z" transform="translate(-335.911 -240.648)" fill="#fcbd92"/>
                  <g id="Group_332" data-name="Group 332" transform="translate(1.218 0.425)" style="mix-blend-mode: multiply;isolation: isolate">
                    <g id="Group_331" data-name="Group 331">
                      <path id="Path_429" data-name="Path 429" d="M341.192,243.776a1.788,1.788,0,0,1,.014-.184,1.7,1.7,0,0,1,.131-.46.679.679,0,0,1,.448-.422.719.719,0,0,1,.173-.006c.01,0,.072.012.092.02a.688.688,0,0,1,.07.028.677.677,0,0,1,.264.233,1.222,1.222,0,0,1,.169.327,1.146,1.146,0,0,1,.071.342c0,.123.012.248,0,.357s-.019.215-.027.312-.029.188-.039.269-.031.15-.041.208c-.025.115-.035.183-.035.183s.035-.061.09-.171c.024-.056.063-.122.092-.2s.066-.169.1-.268.054-.212.08-.33a2.784,2.784,0,0,0,.039-.363,1.131,1.131,0,0,0-.057-.413,1.423,1.423,0,0,0-.191-.391.944.944,0,0,0-.376-.31.738.738,0,0,0-.138-.046.849.849,0,0,0-.4.008.7.7,0,0,0-.394.269.959.959,0,0,0-.153.329,1.361,1.361,0,0,0-.026.5A.836.836,0,0,0,341.192,243.776Z" transform="translate(-341.139 -242.472)" fill="#ccc"/>
                    </g>
                  </g>
                  <path id="Path_430" data-name="Path 430" d="M341.3,247.33s-.106-.118.471-.225a.416.416,0,0,1,.4.643,1.5,1.5,0,0,0-.118.428c-.019.207.137.465.014.664a.487.487,0,0,1-.777-.065c-.062-.2.173-.581.283-.742A.441.441,0,0,0,341.3,247.33Z" transform="translate(-340.026 -245.601)" fill="#ccc" style="mix-blend-mode: multiply;isolation: isolate"/>
                  <g id="Group_334" data-name="Group 334" transform="translate(1.136 3.148)" style="mix-blend-mode: multiply;isolation: isolate">
                    <g id="Group_333" data-name="Group 333">
                      <path id="Path_431" data-name="Path 431" d="M340.907,254.165a.213.213,0,0,0-.039.038.36.36,0,0,0-.065.123.274.274,0,0,0-.014.089.218.218,0,0,0,.008.1.782.782,0,0,0,.034.1.667.667,0,0,0,.067.094.459.459,0,0,0,.083.082.917.917,0,0,0,.1.058.434.434,0,0,0,.195.063.758.758,0,0,0,.205.007.888.888,0,0,0-.119-.133.456.456,0,0,0-.06-.05c-.018-.019-.033-.043-.054-.061a.555.555,0,0,0-.06-.057c-.024-.016-.033-.042-.05-.062a.637.637,0,0,1-.1-.122.436.436,0,0,1-.038-.062c-.009-.022-.027-.042-.034-.062A1.522,1.522,0,0,1,340.907,254.165Z" transform="translate(-340.788 -254.165)" fill="#ccc"/>
                    </g>
                  </g>
                </g>
                <g id="Group_340" data-name="Group 340">
                  <path id="Path_432" data-name="Path 432" d="M245.548,242.889c.053,1.236-.642,2.236-1.549,2.233s-1.685-1-1.737-2.241.643-2.235,1.551-2.234S245.5,241.654,245.548,242.889Z" transform="translate(-242.259 -240.648)" fill="#fcbd92"/>
                  <g id="Group_337" data-name="Group 337" transform="translate(0.329 0.425)" style="mix-blend-mode: multiply;isolation: isolate">
                    <g id="Group_336" data-name="Group 336">
                      <path id="Path_433" data-name="Path 433" d="M245.364,243.776a1.783,1.783,0,0,0-.014-.184,1.694,1.694,0,0,0-.131-.46.678.678,0,0,0-.447-.422.719.719,0,0,0-.173-.006c-.01,0-.073.012-.092.02a.686.686,0,0,0-.07.028.675.675,0,0,0-.264.233,1.227,1.227,0,0,0-.169.327,1.152,1.152,0,0,0-.071.342c0,.123-.012.248,0,.357s.018.215.027.312.029.188.039.269.031.15.041.208c.024.115.035.183.035.183s-.035-.061-.09-.171c-.024-.056-.063-.122-.092-.2s-.066-.169-.1-.268-.054-.212-.079-.33a2.771,2.771,0,0,1-.039-.363,1.13,1.13,0,0,1,.057-.413,1.413,1.413,0,0,1,.191-.391.939.939,0,0,1,.376-.31.743.743,0,0,1,.138-.046.849.849,0,0,1,.4.008.7.7,0,0,1,.394.269.954.954,0,0,1,.153.329,1.352,1.352,0,0,1,.026.5A.868.868,0,0,1,245.364,243.776Z" transform="translate(-243.672 -242.472)" fill="#ccc"/>
                    </g>
                  </g>
                  <path id="Path_434" data-name="Path 434" d="M247.86,247.33s.106-.118-.471-.225a.416.416,0,0,0-.4.643,1.5,1.5,0,0,1,.118.428c.02.207-.136.465-.014.664a.487.487,0,0,0,.777-.065c.062-.2-.173-.581-.283-.742A.441.441,0,0,1,247.86,247.33Z" transform="translate(-245.839 -245.601)" fill="#ccc" style="mix-blend-mode: multiply;isolation: isolate"/>
                  <g id="Group_339" data-name="Group 339" transform="translate(1.461 3.148)" style="mix-blend-mode: multiply;isolation: isolate">
                    <g id="Group_338" data-name="Group 338">
                      <path id="Path_435" data-name="Path 435" d="M249.108,254.165a.2.2,0,0,1,.039.038.357.357,0,0,1,.065.123.273.273,0,0,1,.014.089.224.224,0,0,1-.008.1.819.819,0,0,1-.034.1.663.663,0,0,1-.067.094.473.473,0,0,1-.083.082.921.921,0,0,1-.1.058.431.431,0,0,1-.194.063.758.758,0,0,1-.205.007.887.887,0,0,1,.119-.133.491.491,0,0,1,.06-.05c.018-.019.034-.043.054-.061a.541.541,0,0,1,.061-.057c.024-.016.033-.042.05-.062a.621.621,0,0,0,.1-.122.42.42,0,0,0,.038-.062c.009-.022.027-.042.034-.062A1.482,1.482,0,0,0,249.108,254.165Z" transform="translate(-248.533 -254.165)" fill="#ccc"/>
                    </g>
                  </g>
                </g>
              </g>
              <path id="Path_436" data-name="Path 436" d="M272.526,213.834a10.3,10.3,0,1,1-10.251-10.368A10.31,10.31,0,0,1,272.526,213.834Z" transform="translate(-249.672 -200.257)" fill="#fcbd92"/>
              <g id="Group_343" data-name="Group 343" transform="translate(2.251 3.209)">
                <path id="Path_437" data-name="Path 437" d="M281.721,219.351c-.023,4.77-2.973,8.623-6.587,8.6s-6.526-3.9-6.5-8.669,2.973-8.622,6.587-8.6S281.745,214.582,281.721,219.351Z" transform="translate(-264.739 -209.002)" fill="#fff" opacity="0.2" style="mix-blend-mode: soft-light;isolation: isolate"/>
                <g id="Group_342" data-name="Group 342" opacity="0.2" style="mix-blend-mode: multiply;isolation: isolate">
                  <path id="Path_438" data-name="Path 438" d="M251.923,213.734A10.309,10.309,0,0,0,262.154,224.1c-4.592-.036-8.289-4.668-8.261-10.358s3.78-10.3,8.382-10.277A10.31,10.31,0,0,0,251.923,213.734Z" transform="translate(-251.922 -203.467)" fill="#fcbd92"/>
                  <path id="Path_439" data-name="Path 439" d="M296.1,203.468c4.6.023,8.309,4.66,8.281,10.358s-3.77,10.285-8.362,10.276a10.317,10.317,0,0,0,.081-20.634Z" transform="translate(-285.749 -203.468)" fill="#fcbd92"/>
                </g>
              </g>
              <g id="Group_346" data-name="Group 346" transform="translate(7.288 11.019)">
                <g id="Group_344" data-name="Group 344">
                  <path id="Path_440" data-name="Path 440" d="M273.549,238.076a1.048,1.048,0,1,0,1.013-1.08A1.048,1.048,0,0,0,273.549,238.076Z" transform="translate(-273.549 -236.996)" fill="#24110b"/>
                  <path id="Path_441" data-name="Path 441" d="M276.438,240.364a.379.379,0,1,0,.366-.39A.379.379,0,0,0,276.438,240.364Z" transform="translate(-275.765 -239.28)" fill="#0b0503"/>
                  <path id="Path_442" data-name="Path 442" d="M274.713,239.62a.262.262,0,1,0,.254-.27A.263.263,0,0,0,274.713,239.62Z" transform="translate(-274.441 -238.801)" fill="#fff"/>
                  <path id="Path_443" data-name="Path 443" d="M276.456,241.17a.132.132,0,1,0,.127-.136A.132.132,0,0,0,276.456,241.17Z" transform="translate(-275.779 -240.093)" fill="#fff"/>
                </g>
                <g id="Group_345" data-name="Group 345" transform="translate(8.434)">
                  <path id="Path_444" data-name="Path 444" d="M311.853,238.076A1.048,1.048,0,1,1,310.84,237,1.048,1.048,0,0,1,311.853,238.076Z" transform="translate(-309.759 -236.996)" fill="#24110b"/>
                  <path id="Path_445" data-name="Path 445" d="M313.368,240.364a.379.379,0,1,1-.366-.39A.379.379,0,0,1,313.368,240.364Z" transform="translate(-311.947 -239.28)" fill="#0b0503"/>
                  <path id="Path_446" data-name="Path 446" d="M315.862,239.62a.262.262,0,1,1-.254-.27A.263.263,0,0,1,315.862,239.62Z" transform="translate(-314.039 -238.801)" fill="#fff"/>
                  <path id="Path_447" data-name="Path 447" d="M314.978,241.17a.132.132,0,1,1-.128-.136A.133.133,0,0,1,314.978,241.17Z" transform="translate(-313.56 -240.093)" fill="#fff"/>
                </g>
              </g>
              <g id="Group_347" data-name="Group 347" transform="translate(10.209 16.67)">
                <path id="Path_448" data-name="Path 448" d="M286.088,261.259c.433,3.411,4.186,3.429,4.653.023Z" transform="translate(-286.088 -261.259)" fill="#40151a"/>
                <path id="Path_449" data-name="Path 449" d="M291.245,263.253a1.391,1.391,0,0,0-1.464,1.305,1.15,1.15,0,0,0,.014.18,2.012,2.012,0,0,0,2.886.014,1.175,1.175,0,0,0,.016-.18A1.391,1.391,0,0,0,291.245,263.253Z" transform="translate(-288.921 -262.788)" fill="#f96079"/>
              </g>
              <g id="Group_352" data-name="Group 352" transform="translate(5.326 13.764)">
                <g id="Group_349" data-name="Group 349">
                  <path id="Path_450" data-name="Path 450" d="M268.6,250.237c0,.546-.779.989-1.74.989s-1.74-.442-1.74-.989.779-.989,1.74-.989S268.6,249.691,268.6,250.237Z" transform="translate(-265.123 -249.14)" fill="#fca987"/>
                  <g id="Group_348" data-name="Group 348" transform="translate(0.94)">
                    <path id="Path_451" data-name="Path 451" d="M275.487,249.821a.05.05,0,0,0,0,.1A.05.05,0,0,0,275.487,249.821Z" transform="translate(-273.976 -249.58)" fill="#40151a"/>
                    <path id="Path_452" data-name="Path 452" d="M278.662,248.873a.1.1,0,0,0-.014-.061.059.059,0,0,0-.1,0,.1.1,0,0,0-.015.061s0,0,0,0v.009a.065.065,0,0,0,.13,0v-.011Z" transform="translate(-276.349 -248.785)" fill="#40151a"/>
                    <path id="Path_453" data-name="Path 453" d="M277.36,251.765h-.011a.108.108,0,0,0-.075.023.061.061,0,0,0,0,.086.108.108,0,0,0,.075.023h.011A.067.067,0,0,0,277.36,251.765Z" transform="translate(-275.37 -251.071)" fill="#40151a"/>
                    <path id="Path_454" data-name="Path 454" d="M280.81,249.53a.051.051,0,0,0,0,.1A.051.051,0,0,0,280.81,249.53Z" transform="translate(-278.058 -249.356)" fill="#40151a"/>
                    <path id="Path_455" data-name="Path 455" d="M284.669,249.494a.06.06,0,0,0,0,.119A.06.06,0,0,0,284.669,249.494Z" transform="translate(-281.012 -249.329)" fill="#40151a"/>
                    <path id="Path_456" data-name="Path 456" d="M281.771,251.771a.066.066,0,0,0,0,.131A.066.066,0,0,0,281.771,251.771Z" transform="translate(-278.785 -251.075)" fill="#40151a"/>
                    <path id="Path_457" data-name="Path 457" d="M284.248,252.473a.109.109,0,0,0-.051.006.066.066,0,0,0,0,.126.115.115,0,0,0,.051.006A.069.069,0,0,0,284.248,252.473Z" transform="translate(-280.658 -251.613)" fill="#40151a"/>
                    <path id="Path_458" data-name="Path 458" d="M272.053,252.932h-.012a.11.11,0,0,0-.058.013.057.057,0,0,0,0,.1.115.115,0,0,0,.058.014h.012a.063.063,0,0,0,0-.126Z" transform="translate(-271.304 -251.966)" fill="#40151a"/>
                    <path id="Path_459" data-name="Path 459" d="M273.049,249.323h-.012a.1.1,0,0,0-.072.023.058.058,0,0,0,0,.083.1.1,0,0,0,.072.023h.012a.065.065,0,0,0,0-.131Z" transform="translate(-272.065 -249.198)" fill="#40151a"/>
                    <path id="Path_460" data-name="Path 460" d="M274.559,253.044a.071.071,0,0,0,0,.141A.071.071,0,0,0,274.559,253.044Z" transform="translate(-273.249 -252.052)" fill="#40151a"/>
                    <path id="Path_461" data-name="Path 461" d="M280.075,253.755a.091.091,0,0,0-.066.016.065.065,0,0,0,0,.112.09.09,0,0,0,.066.016A.072.072,0,0,0,280.075,253.755Z" transform="translate(-277.457 -252.597)" fill="#40151a"/>
                    <path id="Path_462" data-name="Path 462" d="M276.718,254.916a.071.071,0,0,0,0,.141A.071.071,0,0,0,276.718,254.916Z" transform="translate(-274.905 -253.488)" fill="#40151a"/>
                    <path id="Path_463" data-name="Path 463" d="M272.289,256.4a.06.06,0,0,0,0,.12A.06.06,0,0,0,272.289,256.4Z" transform="translate(-271.516 -254.626)" fill="#40151a"/>
                    <path id="Path_464" data-name="Path 464" d="M277.453,258.1a.066.066,0,0,0,0,.131A.066.066,0,0,0,277.453,258.1Z" transform="translate(-275.472 -255.933)" fill="#40151a"/>
                    <path id="Path_465" data-name="Path 465" d="M282.034,256.056a.073.073,0,0,0,0,.147A.073.073,0,0,0,282.034,256.056Z" transform="translate(-278.981 -254.362)" fill="#40151a"/>
                    <path id="Path_466" data-name="Path 466" d="M284.909,255.905a.075.075,0,0,0,0,.15A.075.075,0,0,0,284.909,255.905Z" transform="translate(-281.185 -254.246)" fill="#40151a"/>
                    <path id="Path_467" data-name="Path 467" d="M282.894,253.6a.075.075,0,0,0,0,.149A.075.075,0,0,0,282.894,253.6Z" transform="translate(-279.639 -252.481)" fill="#40151a"/>
                    <path id="Path_468" data-name="Path 468" d="M279.6,256.5a.071.071,0,0,0,0,.141A.071.071,0,0,0,279.6,256.5Z" transform="translate(-277.113 -254.702)" fill="#40151a"/>
                    <path id="Path_469" data-name="Path 469" d="M274.269,255.921a.071.071,0,0,0,0,.142A.071.071,0,0,0,274.269,255.921Z" transform="translate(-273.025 -254.259)" fill="#40151a"/>
                    <path id="Path_470" data-name="Path 470" d="M269.268,254.644h-.033a.048.048,0,0,0-.021,0c-.047,0-.061.033-.055.064v0h0c-.006.03.008.059.055.063a.049.049,0,0,0,.021,0h.033a.067.067,0,0,0,0-.134Z" transform="translate(-269.158 -253.279)" fill="#40151a"/>
                    <path id="Path_471" data-name="Path 471" d="M286.643,251.309a.073.073,0,0,0,0,.145A.073.073,0,0,0,286.643,251.309Z" transform="translate(-282.516 -250.721)" fill="#40151a"/>
                    <path id="Path_472" data-name="Path 472" d="M286.353,253.608a.073.073,0,0,0,0,.147A.073.073,0,0,0,286.353,253.608Z" transform="translate(-282.294 -252.485)" fill="#40151a"/>
                  </g>
                </g>
                <g id="Group_351" data-name="Group 351" transform="translate(9.318)">
                  <path id="Path_473" data-name="Path 473" d="M312.234,250.237c0,.546.779.989,1.74.989s1.74-.442,1.74-.989-.779-.989-1.74-.989S312.234,249.691,312.234,250.237Z" transform="translate(-310.578 -249.14)" fill="#fca987"/>
                  <g id="Group_350" data-name="Group 350">
                    <path id="Path_474" data-name="Path 474" d="M316.494,249.821a.05.05,0,0,1,0,.1A.05.05,0,0,1,316.494,249.821Z" transform="translate(-313.809 -249.58)" fill="#40151a"/>
                    <path id="Path_475" data-name="Path 475" d="M313.207,248.873a.1.1,0,0,1,.015-.061.059.059,0,0,1,.1,0,.1.1,0,0,1,.015.061s0,0,0,0,0,.006,0,.009a.065.065,0,0,1-.131,0v-.011Z" transform="translate(-311.324 -248.785)" fill="#40151a"/>
                    <path id="Path_476" data-name="Path 476" d="M314.387,251.765h.011a.107.107,0,0,1,.075.023.06.06,0,0,1,0,.086.107.107,0,0,1-.075.023h-.011A.067.067,0,0,1,314.387,251.765Z" transform="translate(-312.18 -251.071)" fill="#40151a"/>
                    <path id="Path_477" data-name="Path 477" d="M311.166,249.53a.051.051,0,0,1,0,.1A.051.051,0,0,1,311.166,249.53Z" transform="translate(-309.721 -249.356)" fill="#40151a"/>
                    <path id="Path_478" data-name="Path 478" d="M307.253,249.494a.06.06,0,0,1,0,.119A.06.06,0,0,1,307.253,249.494Z" transform="translate(-306.713 -249.329)" fill="#40151a"/>
                    <path id="Path_479" data-name="Path 479" d="M310.112,251.771a.066.066,0,0,1,0,.131A.066.066,0,0,1,310.112,251.771Z" transform="translate(-308.901 -251.075)" fill="#40151a"/>
                    <path id="Path_480" data-name="Path 480" d="M307.51,252.473a.109.109,0,0,1,.051.006.066.066,0,0,1,0,.126.115.115,0,0,1-.051.006A.069.069,0,0,1,307.51,252.473Z" transform="translate(-306.903 -251.613)" fill="#40151a"/>
                    <path id="Path_481" data-name="Path 481" d="M319.73,252.932h.013a.11.11,0,0,1,.058.013.057.057,0,0,1,0,.1.116.116,0,0,1-.058.014h-.013a.063.063,0,0,1,0-.126Z" transform="translate(-316.283 -251.966)" fill="#40151a"/>
                    <path id="Path_482" data-name="Path 482" d="M318.71,249.323h.012a.1.1,0,0,1,.072.023.058.058,0,0,1,0,.083.1.1,0,0,1-.072.023h-.012a.065.065,0,0,1,0-.131Z" transform="translate(-315.498 -249.198)" fill="#40151a"/>
                    <path id="Path_483" data-name="Path 483" d="M317.293,253.044a.071.071,0,0,1,0,.141A.071.071,0,0,1,317.293,253.044Z" transform="translate(-314.406 -252.052)" fill="#40151a"/>
                    <path id="Path_484" data-name="Path 484" d="M311.676,253.755a.091.091,0,0,1,.066.016.065.065,0,0,1,0,.112.09.09,0,0,1-.066.016A.072.072,0,0,1,311.676,253.755Z" transform="translate(-310.097 -252.597)" fill="#40151a"/>
                    <path id="Path_485" data-name="Path 485" d="M315.134,254.916a.071.071,0,0,1,0,.141A.071.071,0,0,1,315.134,254.916Z" transform="translate(-312.75 -253.488)" fill="#40151a"/>
                    <path id="Path_486" data-name="Path 486" d="M319.628,256.4a.06.06,0,0,1,0,.12A.06.06,0,0,1,319.628,256.4Z" transform="translate(-316.206 -254.626)" fill="#40151a"/>
                    <path id="Path_487" data-name="Path 487" d="M314.429,258.1a.066.066,0,0,1,0,.131A.066.066,0,0,1,314.429,258.1Z" transform="translate(-312.213 -255.933)" fill="#40151a"/>
                    <path id="Path_488" data-name="Path 488" d="M309.8,256.056a.073.073,0,0,1,0,.147A.073.073,0,0,1,309.8,256.056Z" transform="translate(-308.656 -254.362)" fill="#40151a"/>
                    <path id="Path_489" data-name="Path 489" d="M306.916,255.905a.075.075,0,0,1,0,.15A.075.075,0,0,1,306.916,255.905Z" transform="translate(-306.443 -254.246)" fill="#40151a"/>
                    <path id="Path_490" data-name="Path 490" d="M308.931,253.6a.075.075,0,0,1,0,.149A.075.075,0,0,1,308.931,253.6Z" transform="translate(-307.99 -252.481)" fill="#40151a"/>
                    <path id="Path_491" data-name="Path 491" d="M312.255,256.5a.071.071,0,0,1,0,.141A.071.071,0,0,1,312.255,256.5Z" transform="translate(-310.542 -254.702)" fill="#40151a"/>
                    <path id="Path_492" data-name="Path 492" d="M317.578,255.921a.071.071,0,0,1,0,.142A.071.071,0,0,1,317.578,255.921Z" transform="translate(-314.625 -254.259)" fill="#40151a"/>
                    <path id="Path_493" data-name="Path 493" d="M322.458,254.644h.033a.049.049,0,0,1,.021,0c.047,0,.061.033.055.064v0h0c.006.03-.008.059-.055.063a.049.049,0,0,1-.021,0h-.033a.067.067,0,0,1,0-.134Z" transform="translate(-318.371 -253.279)" fill="#40151a"/>
                    <path id="Path_494" data-name="Path 494" d="M305.2,251.309a.073.073,0,0,1,0,.145A.073.073,0,0,1,305.2,251.309Z" transform="translate(-305.125 -250.721)" fill="#40151a"/>
                    <path id="Path_495" data-name="Path 495" d="M305.482,253.608a.073.073,0,0,1,0,.147A.073.073,0,0,1,305.482,253.608Z" transform="translate(-305.344 -252.485)" fill="#40151a"/>
                  </g>
                </g>
              </g>
              <g id="Group_354" data-name="Group 354" transform="translate(11.252 13.986)">
                <g id="Group_353" data-name="Group 353">
                  <path id="Path_496" data-name="Path 496" d="M290.564,250.646a.879.879,0,0,0,.383-.4l-.008.014a.787.787,0,0,1,.094-.168.833.833,0,0,1,.124-.137.885.885,0,0,1,.327-.178.942.942,0,0,1,.181-.036l.083-.006c.038,0,.065,0,.1,0a1.051,1.051,0,0,1,.356.082.843.843,0,0,1,.166.094.788.788,0,0,1,.141.133.736.736,0,0,1,.1.164.984.984,0,0,0,.06.119,1.052,1.052,0,0,0,.383.429.569.569,0,0,1-.322-.068,1.061,1.061,0,0,1-.271-.2,1.211,1.211,0,0,1-.113-.134.8.8,0,0,0-.079-.084.59.59,0,0,0-.2-.11.919.919,0,0,0-.241-.045l-.057,0-.07,0a.664.664,0,0,0-.121.015.723.723,0,0,0-.223.084.834.834,0,0,0-.1.071.714.714,0,0,0-.081.083l-.008.014a.716.716,0,0,1-.282.208A.686.686,0,0,1,290.564,250.646Z" transform="translate(-290.564 -249.734)" fill="#e9a478"/>
                </g>
              </g>
              <g id="Group_355" data-name="Group 355" transform="translate(6.451 9.775)">
                <path id="Path_497" data-name="Path 497" d="M269.954,232.489a2.123,2.123,0,0,1,2.14-.782" transform="translate(-269.954 -231.655)" fill="none" stroke="#582213" stroke-linecap="round" stroke-linejoin="round" stroke-width="1.632"/>
                <path id="Path_498" data-name="Path 498" d="M314.8,232.489a2.123,2.123,0,0,0-2.14-.782" transform="translate(-302.71 -231.655)" fill="none" stroke="#582213" stroke-linecap="round" stroke-linejoin="round" stroke-width="1.632"/>
              </g>
              <g id="Group_370" data-name="Group 370" transform="translate(9.67)">
                <g id="Group_362" data-name="Group 362" transform="translate(0 0.459)">
                  <path id="Path_499" data-name="Path 499" d="M288.285,192.057a2.767,2.767,0,0,0-3.134.355,3.107,3.107,0,0,0-.8,3.915,2.631,2.631,0,0,0,1.971,1.184,1.992,1.992,0,0,0,1.249-.377c1.1-.882-.123-2.678-1.322-1.867C286.25,195.268,284.659,193.071,288.285,192.057Z" transform="translate(-283.914 -191.711)" fill="#582213"/>
                  <g id="Group_357" data-name="Group 357">
                    <g id="Group_356" data-name="Group 356">
                      <path id="Path_500" data-name="Path 500" d="M288.146,192.006a2.749,2.749,0,0,0-1.8-.263,2.858,2.858,0,0,0-.859.329,3.288,3.288,0,0,0-.724.569,3.366,3.366,0,0,0-.836,1.618,2.693,2.693,0,0,0,.212,1.787,3.029,3.029,0,0,0,.55.729,2.233,2.233,0,0,0,.759.491,2.327,2.327,0,0,0,.893.142,1.9,1.9,0,0,0,.869-.232,1.156,1.156,0,0,0,.566-.664,1.136,1.136,0,0,0-.11-.866,1.149,1.149,0,0,0-.675-.559,1.021,1.021,0,0,0-.855.16l-.03.021-.02-.03a2.155,2.155,0,0,1-.253-.525,1.912,1.912,0,0,1-.1-.574,1.537,1.537,0,0,1,.1-.573,1.646,1.646,0,0,1,.3-.5,2.093,2.093,0,0,1,.205-.2,2.591,2.591,0,0,1,.227-.179,3.6,3.6,0,0,1,.5-.289c.087-.04.172-.084.263-.117s.177-.074.268-.1C287.778,192.111,287.962,192.058,288.146,192.006Zm0,0c-.183.057-.365.114-.544.183-.091.031-.177.072-.265.109s-.172.082-.259.123a3.576,3.576,0,0,0-.486.3,2.523,2.523,0,0,0-.219.181,2.115,2.115,0,0,0-.2.2,2.008,2.008,0,0,0-.164.23,1.689,1.689,0,0,0-.122.253,1.47,1.47,0,0,0-.095.551,2.008,2.008,0,0,0,.344,1.057l-.05-.009a1.1,1.1,0,0,1,.918-.177,1.277,1.277,0,0,1,.854,1.529,1.251,1.251,0,0,1-.607.726,2.011,2.011,0,0,1-.915.249,2.429,2.429,0,0,1-.938-.145,2.2,2.2,0,0,1-.792-.518,3.2,3.2,0,0,1-.56-.761,2.783,2.783,0,0,1-.206-1.847,3.436,3.436,0,0,1,.867-1.647,3.34,3.34,0,0,1,.742-.574,2.752,2.752,0,0,1,.881-.32,2.771,2.771,0,0,1,1.811.3Z" transform="translate(-283.774 -191.66)" fill="#25100b"/>
                    </g>
                  </g>
                  <path id="Path_501" data-name="Path 501" d="M285.632,199.942a1.812,1.812,0,0,1,.269-1.032,1.386,1.386,0,0,0,1.16,1.032s-1.047-1.528.1-2.631a1.592,1.592,0,0,0-.919.778s-.354-.212-.127-.778A2.6,2.6,0,0,0,285.632,199.942Z" transform="translate(-285.075 -195.995)" fill="#fff" style="mix-blend-mode: soft-light;isolation: isolate"/>
                  <g id="Group_359" data-name="Group 359" transform="translate(0.481 0.114)">
                    <g id="Group_358" data-name="Group 358">
                      <path id="Path_502" data-name="Path 502" d="M288.885,192.149a4,4,0,0,0-.436.1,5.036,5.036,0,0,0-1.085.448,2.831,2.831,0,0,0-1.157,1.136,2.313,2.313,0,0,0-.252.88,3.145,3.145,0,0,0,.076.949l.024.118.037.112a1.424,1.424,0,0,0,.085.225l.108.206c.043.065.091.128.136.192a2.22,2.22,0,0,0,.69.6,1.833,1.833,0,0,0,.819.237,1.472,1.472,0,0,0,.745-.15,1.015,1.015,0,0,0,.447-.455,2.26,2.26,0,0,0,.084-.261c.008-.084.024-.161.024-.231s-.009-.134-.013-.189a1.2,1.2,0,0,0-.03-.137l-.028-.114.033.112a1.188,1.188,0,0,1,.036.136l.021.19c0,.072-.009.152-.015.239a2.317,2.317,0,0,1-.075.27,1.023,1.023,0,0,1-.455.494,1.54,1.54,0,0,1-.781.177,1.943,1.943,0,0,1-.215-.017l-.22-.043a1.227,1.227,0,0,1-.215-.075,1.05,1.05,0,0,1-.21-.1,2.324,2.324,0,0,1-.726-.621c-.048-.067-.1-.132-.145-.2l-.119-.223a1.5,1.5,0,0,1-.089-.229c-.014-.041-.026-.072-.04-.12l-.026-.121a3.262,3.262,0,0,1-.07-.982,2.413,2.413,0,0,1,.27-.916,2.491,2.491,0,0,1,.556-.7,3.488,3.488,0,0,1,.657-.449,4.718,4.718,0,0,1,1.11-.411A4.052,4.052,0,0,1,288.885,192.149Z" transform="translate(-285.838 -192.149)" fill="#25100b"/>
                    </g>
                  </g>
                  <g id="Group_361" data-name="Group 361" transform="translate(1.153 0.174)">
                    <g id="Group_360" data-name="Group 360">
                      <path id="Path_503" data-name="Path 503" d="M291.556,192.407a3.263,3.263,0,0,0-.364.079,4.58,4.58,0,0,0-.911.353,2.868,2.868,0,0,0-1.034.877,2.217,2.217,0,0,0-.324.69,2.707,2.707,0,0,0-.087.785,2.412,2.412,0,0,0,.126.778,1.59,1.59,0,0,0,.4.635.95.95,0,0,0,.629.274.9.9,0,0,0,.593-.182.693.693,0,0,0,.263-.454.647.647,0,0,0-.067-.407.581.581,0,0,0-.181-.2c-.054-.034-.084-.049-.084-.049a.943.943,0,0,1,.086.045.586.586,0,0,1,.193.2.672.672,0,0,1,.087.419.746.746,0,0,1-.26.494.972.972,0,0,1-.631.214,1.021,1.021,0,0,1-.692-.28,1.687,1.687,0,0,1-.436-.671,2.516,2.516,0,0,1-.14-.811,2.7,2.7,0,0,1,.1-.817,2.325,2.325,0,0,1,.345-.719,2.83,2.83,0,0,1,1.086-.877,4.093,4.093,0,0,1,.935-.314A3.279,3.279,0,0,1,291.556,192.407Z" transform="translate(-288.723 -192.407)" fill="#25100b"/>
                    </g>
                  </g>
                </g>
                <g id="Group_369" data-name="Group 369" transform="translate(1.405)">
                  <path id="Path_504" data-name="Path 504" d="M294.535,190.206a2.767,2.767,0,0,0-3.152.114,3.108,3.108,0,0,0-1.1,3.843,2.634,2.634,0,0,0,1.874,1.332,2,2,0,0,0,1.274-.28,1.146,1.146,0,0,0-1.175-1.963S290.842,190.939,294.535,190.206Z" transform="translate(-289.946 -189.75)" fill="#582213"/>
                  <g id="Group_364" data-name="Group 364">
                    <g id="Group_363" data-name="Group 363">
                      <path id="Path_505" data-name="Path 505" d="M294.393,190.147a2.75,2.75,0,0,0-1.778-.4,2.861,2.861,0,0,0-.882.262,3.292,3.292,0,0,0-.765.511,3.367,3.367,0,0,0-.958,1.549,2.7,2.7,0,0,0,.074,1.8,3.039,3.039,0,0,0,.492.769,2.231,2.231,0,0,0,.719.548,2.321,2.321,0,0,0,.879.21,1.906,1.906,0,0,0,.884-.165,1.157,1.157,0,0,0,.615-.618,1.138,1.138,0,0,0-.043-.872,1.151,1.151,0,0,0-.63-.609,1.021,1.021,0,0,0-.865.094l-.032.018-.017-.031a2.161,2.161,0,0,1-.211-.543,1.92,1.92,0,0,1-.052-.58,1.536,1.536,0,0,1,.147-.563,1.732,1.732,0,0,1,.148-.251,1.784,1.784,0,0,1,.19-.221,2.173,2.173,0,0,1,.22-.188,2.505,2.505,0,0,1,.24-.161,3.589,3.589,0,0,1,.518-.251c.09-.032.178-.071.271-.1s.182-.06.276-.082C294.018,190.224,294.206,190.185,294.393,190.147Zm0,0c-.187.043-.373.085-.556.141-.093.024-.182.059-.273.088s-.178.068-.267.1a3.593,3.593,0,0,0-.508.26,2.421,2.421,0,0,0-.232.164,1.925,1.925,0,0,0-.392.406,1.707,1.707,0,0,0-.141.243,1.476,1.476,0,0,0-.137.542,2.007,2.007,0,0,0,.262,1.08l-.049-.013a1.1,1.1,0,0,1,.929-.106,1.277,1.277,0,0,1,.734,1.59,1.249,1.249,0,0,1-.661.677,2,2,0,0,1-.931.179,2.425,2.425,0,0,1-.924-.217,2.2,2.2,0,0,1-.75-.577,3.2,3.2,0,0,1-.5-.8,2.784,2.784,0,0,1-.064-1.857,3.436,3.436,0,0,1,.991-1.576,3.343,3.343,0,0,1,.784-.515,2.757,2.757,0,0,1,.9-.251,2.772,2.772,0,0,1,1.782.443Z" transform="translate(-289.805 -189.691)" fill="#25100b"/>
                    </g>
                  </g>
                  <path id="Path_506" data-name="Path 506" d="M291.668,197.291a1.814,1.814,0,0,1,.347-1.009s.04.769,1.077,1.118c0,0-.926-1.6.3-2.616a1.592,1.592,0,0,0-.976.705s-.337-.239-.068-.786A2.6,2.6,0,0,0,291.668,197.291Z" transform="translate(-291.159 -193.536)" fill="#fff" style="mix-blend-mode: soft-light;isolation: isolate"/>
                  <g id="Group_366" data-name="Group 366" transform="translate(0.502 0.16)">
                    <g id="Group_365" data-name="Group 365">
                      <path id="Path_507" data-name="Path 507" d="M295.225,190.376a3.963,3.963,0,0,0-.442.067,5.033,5.033,0,0,0-1.116.363,2.833,2.833,0,0,0-1.241,1.044,2.312,2.312,0,0,0-.319.858,3.139,3.139,0,0,0,0,.952l.016.12c.006.031.019.076.028.114a1.438,1.438,0,0,0,.068.232l.092.214c.038.068.081.135.121.2a2.224,2.224,0,0,0,.642.65,1.834,1.834,0,0,0,.8.3,1.466,1.466,0,0,0,.754-.093,1.014,1.014,0,0,0,.481-.42,2.284,2.284,0,0,0,.1-.254c.014-.083.036-.158.042-.228s0-.134,0-.189a1.188,1.188,0,0,0-.02-.139l-.02-.116.025.114a1.2,1.2,0,0,1,.026.139c0,.055,0,.12.006.191s-.021.15-.033.237a2.249,2.249,0,0,1-.1.264,1.022,1.022,0,0,1-.491.458,1.533,1.533,0,0,1-.792.117,1.926,1.926,0,0,1-.213-.033l-.216-.06a1.226,1.226,0,0,1-.209-.091,1.03,1.03,0,0,1-.2-.114,2.321,2.321,0,0,1-.677-.674c-.043-.07-.088-.139-.129-.211l-.1-.232a1.53,1.53,0,0,1-.071-.235c-.01-.042-.021-.074-.031-.123l-.017-.123a3.247,3.247,0,0,1,.005-.985,2.412,2.412,0,0,1,.34-.893,2.494,2.494,0,0,1,.608-.652,3.47,3.47,0,0,1,.69-.4,4.7,4.7,0,0,1,1.139-.324A4.023,4.023,0,0,1,295.225,190.376Z" transform="translate(-291.962 -190.376)" fill="#25100b"/>
                    </g>
                  </g>
                  <g id="Group_368" data-name="Group 368" transform="translate(1.177 0.255)">
                    <g id="Group_367" data-name="Group 367">
                      <path id="Path_508" data-name="Path 508" d="M297.9,190.786a3.24,3.24,0,0,0-.369.051,4.571,4.571,0,0,0-.935.282,2.876,2.876,0,0,0-1.1.795,2.216,2.216,0,0,0-.376.664,2.717,2.717,0,0,0-.147.776,2.42,2.42,0,0,0,.066.786,1.59,1.59,0,0,0,.353.664.949.949,0,0,0,.606.321.905.905,0,0,0,.606-.136.692.692,0,0,0,.3-.433.648.648,0,0,0-.036-.411.583.583,0,0,0-.166-.214c-.051-.038-.08-.055-.08-.055a.937.937,0,0,1,.082.052.593.593,0,0,1,.178.211.673.673,0,0,1,.055.424.743.743,0,0,1-.3.473.969.969,0,0,1-.646.165,1.021,1.021,0,0,1-.669-.332,1.682,1.682,0,0,1-.383-.7,2.519,2.519,0,0,1-.077-.819,2.7,2.7,0,0,1,.158-.807,2.324,2.324,0,0,1,.4-.69,2.827,2.827,0,0,1,1.15-.791,4.094,4.094,0,0,1,.956-.241A3.272,3.272,0,0,1,297.9,190.786Z" transform="translate(-294.856 -190.786)" fill="#25100b"/>
                    </g>
                  </g>
                </g>
              </g>
            </g>
          </g>
        </g>
      </g>
    </g>
  </g>
</svg>
