<svg id="Group_9" data-name="Group 9" xmlns="http://www.w3.org/2000/svg" width="91.91" height="112.007" viewBox="0 0 91.91 112.007">
  <path id="Path_6" data-name="Path 6" d="M77.8,64.286A10.705,10.705,0,0,0,79.4,64.5c3.182.19,6.417-.8,9.551.152,4.033,1.229,6.057.431,10.084-.574,2.615-.651,9.038-1.387,11.069-1.7.215-.033.38-.06.487-.083a6.694,6.694,0,0,0,2.292-.566,6.326,6.326,0,0,0,2.127-2.083,9.989,9.989,0,0,0,1.058-2.94,6.081,6.081,0,0,0,.029-2.989.792.792,0,0,0-1.3-.324l-.015-.272c-.059-.949-.068-3.34-1.5-3.321a.818.818,0,0,0-.223.034,2.223,2.223,0,0,0-.161-.221.773.773,0,0,0-1.2.154,2.914,2.914,0,0,0-.418.886.8.8,0,0,0-.485.339,4.075,4.075,0,0,0-.569,2.226c0,.152,0,.32.012.492-.077.53-.133,1.035-.183,1.471l0,.008a.7.7,0,0,0-.072.6c-.008.062-.016.122-.026.178-.53,3.429-2.533,3.272-5.343,3.137-3.057-.145-6.116-.4-9.179-.253-1.566.074-3.126.219-4.695.251-4.163.085-8.895-.973-12.886.532a3.022,3.022,0,0,0-1.644,1.6A2.055,2.055,0,0,0,77.8,64.286Z" transform="translate(-24.363 -12.525)" fill="#ffdcc0"/>
  <path id="Path_7" data-name="Path 7" d="M78.48,61.1c3.182.19,6.417-.8,9.551.152,4.033,1.229,6.057.431,10.084-.574,2.615-.651,9.038-1.387,11.069-1.7a17.2,17.2,0,0,0-5.712-.163c-2.149.15-4.3.458-6.435.723a33.24,33.24,0,0,1-6.376.461c-2.108-.145-4.2-.477-6.313-.6a6.884,6.884,0,0,0-2.5.206c-.35.111-.693.246-1.047.342l-.105.026A1.578,1.578,0,0,0,78.48,61.1Z" transform="translate(-23.441 -9.125)" fill="#f4c7a8"/>
  <path id="Path_8" data-name="Path 8" d="M86.54,59.152a8.672,8.672,0,0,0-.232,1.426c0,.134,0,.268.005.4.015,1.017-.011,2.035-1.036,2.63a2.508,2.508,0,0,1-.81.288,6.141,6.141,0,0,1-1.544.045l-.212-.015c-.111-.008-.22-.018-.325-.025-1.225-.087-2.462-.191-3.689-.23h-.031a1.554,1.554,0,0,1-1.493-1.524,6.5,6.5,0,0,1,.58-3.708,2.032,2.032,0,0,1,.164-.223,1.642,1.642,0,0,1,.135-1.225c.359-.612,1.21-.746,2.011-.8.383-.025.753-.029,1.054-.057,1.249-.118,5.1-.946,5.447.973A5.7,5.7,0,0,1,86.54,59.152Z" transform="translate(-23.929 -10.148)" fill="#8dc63f"/>
  <path id="Path_9" data-name="Path 9" d="M76.688,64.286a10.711,10.711,0,0,1-1.6.212c-3.183.19-6.418-.8-9.551.152-4.035,1.229-6.057.431-10.085-.574-2.613-.651-9.038-1.387-11.068-1.7-.216-.033-.38-.06-.487-.083a6.694,6.694,0,0,1-2.293-.566,6.31,6.31,0,0,1-2.125-2.083,9.989,9.989,0,0,1-1.058-2.94,6.065,6.065,0,0,1-.03-2.989.793.793,0,0,1,1.3-.324l.015-.272c.057-.949.067-3.34,1.5-3.321a.82.82,0,0,1,.224.034,1.86,1.86,0,0,1,.161-.221.771.771,0,0,1,1.2.154,2.919,2.919,0,0,1,.42.886.806.806,0,0,1,.485.339,4.085,4.085,0,0,1,.567,2.226c0,.152,0,.32-.011.492.077.53.131,1.035.183,1.471l0,.008a.7.7,0,0,1,.072.6c.01.062.016.122.026.178.53,3.429,2.534,3.272,5.343,3.137,3.057-.145,6.118-.4,9.179-.253,1.568.074,3.126.219,4.7.251,4.162.085,8.894-.973,12.884.532a3.029,3.029,0,0,1,1.646,1.6A2.056,2.056,0,0,1,76.688,64.286Z" transform="translate(-38.211 -12.525)" fill="#ffdcc0"/>
  <path id="Path_10" data-name="Path 10" d="M73.428,61.1c-3.183.19-6.418-.8-9.551.152-4.035,1.229-6.057.431-10.085-.574-2.613-.651-9.038-1.387-11.068-1.7a17.2,17.2,0,0,1,5.712-.163c2.149.15,4.3.458,6.433.723a33.24,33.24,0,0,0,6.376.461c2.109-.145,4.2-.477,6.314-.6a6.884,6.884,0,0,1,2.5.206c.349.111.692.246,1.046.342l.105.026A1.579,1.579,0,0,1,73.428,61.1Z" transform="translate(-36.555 -9.125)" fill="#f4c7a8"/>
  <path id="Path_11" data-name="Path 11" d="M79.338,84.144a1.648,1.648,0,0,0,.8.981,1.2,1.2,0,0,0,.4.575c.063.048.123.093.185.135a2.305,2.305,0,0,0,.6.3c-.034,0,.038.018.145.038l.041.008c.124.023.276.052.354.071.257.067.514.133.771.2.938.254,1.856.579,2.8.832,1.089.292,2.188.655,3.3.861a10.007,10.007,0,0,0,1.5.152,10.1,10.1,0,0,1,1.186.079c.025.007.168.037.22.051l0,0c-.042-.005-.034,0-.01.012,0,.015.034.049.026.023.029.057.053.118.062.13.012.044.025.086.036.131.018.066.036.131.053.2.011.034.016.068.022.092v.005c.007.062.011.12.016.182.011.164.021.327.026.491.01.329,0,.659,0,.99-.07,3.741-.228,7.565.023,11.3.105,1.584.716,3.791-.067,5.224-.641,1.173-2.027,2.19-1.379,3.685a2.9,2.9,0,0,0,2,1.607,6.44,6.44,0,0,0,.95.148c.236.019.476.029.715.033.265,0,.529,0,.8-.005h0a12.978,12.978,0,0,1,2.326.09c.8.13,1.6.321,2.4.448a8.631,8.631,0,0,0,1.782.12l.056,0c.086,0,.174-.012.26-.021a5.236,5.236,0,0,0,.927-.178c1.565.209,3.481-.007,3.507-1.807a.8.8,0,0,0-1.117-.745.923.923,0,0,0,.142-.448.829.829,0,0,0-.634-.8.847.847,0,0,0-1.417-.629,7.169,7.169,0,0,0-2.206-.167,8.047,8.047,0,0,1-2.023-.245,11.4,11.4,0,0,0-2.311-.277l-.026-.005c.806-7.784,1.65-11.809,2.507-17.7.29-1.991.738-4.219.134-6.2-.59-1.937-2.545-2.758-4.348-3.2a32.667,32.667,0,0,0-7.009-.82c-2.408-.07-4.934-.578-7.285.19a1.615,1.615,0,0,0-1.108,1.952,1.5,1.5,0,0,0,.216.455A1.546,1.546,0,0,0,79.338,84.144Z" transform="translate(-23.147 -1.344)" fill="#ffdcc0"/>
  <g id="Group_1" data-name="Group 1" transform="translate(57.581 83.875)">
    <path id="Path_12" data-name="Path 12" d="M80.939,84.7c-.034,0,.038.018.145.038l.041.008c.124.023.276.052.354.071.257.067.514.133.771.2.938.254,1.856.579,2.8.832,1.089.292,2.188.655,3.3.861a10.006,10.006,0,0,0,1.5.152,10.1,10.1,0,0,1,1.186.079c.025.007.168.037.22.051l0,0c-.042-.005-.034,0-.01.012,0,.015.034.049.026.023.029.057.053.118.062.13.012.044.025.086.036.131a6.559,6.559,0,0,1,.1-1.852,12.208,12.208,0,0,1-5-.436c-.832-.238-1.665-.5-2.468-.815-.055-.022-.107-.045-.161-.068-.53-.122-1.062-.238-1.6-.314a2.065,2.065,0,0,0-1.9.586A2.305,2.305,0,0,0,80.939,84.7Z" transform="translate(-80.34 -83.783)" fill="#f4c7a8"/>
  </g>
  <path id="Path_13" data-name="Path 13" d="M90.712,103.974a12.978,12.978,0,0,1,2.326.09c.8.13,1.6.321,2.4.448a8.631,8.631,0,0,0,1.782.12l.056,0a8.288,8.288,0,0,0-1.87-.944A23.023,23.023,0,0,0,90.712,103.974Z" transform="translate(-18.955 7.366)" fill="#f4c7a8"/>
  <path id="Path_14" data-name="Path 14" d="M73.835,84.144a1.648,1.648,0,0,1-.8.981,1.206,1.206,0,0,1-.4.575q-.094.072-.185.135a2.305,2.305,0,0,1-.6.3c.033,0-.04.018-.145.038l-.042.008c-.123.023-.275.052-.354.071-.256.067-.513.133-.769.2-.939.254-1.856.579-2.8.832-1.091.292-2.188.655-3.3.861a9.971,9.971,0,0,1-1.5.152,10.1,10.1,0,0,0-1.186.079c-.026.007-.169.037-.221.051l0,0c.044-.005.034,0,.011.012,0,.015-.034.049-.027.023-.027.057-.053.118-.06.13-.014.044-.025.086-.036.131-.018.066-.036.131-.053.2-.011.034-.016.068-.022.092v.005c-.007.062-.011.12-.016.182-.012.164-.021.327-.026.491-.01.329,0,.659,0,.99.068,3.741.227,7.565-.025,11.3-.105,1.584-.716,3.791.068,5.224.641,1.173,2.027,2.19,1.379,3.685a2.9,2.9,0,0,1-2,1.607,6.44,6.44,0,0,1-.95.148c-.238.019-.476.029-.715.033-.265,0-.53,0-.8-.005h0a12.963,12.963,0,0,0-2.325.09c-.8.13-1.6.321-2.4.448a8.631,8.631,0,0,1-1.782.12l-.056,0c-.086,0-.174-.012-.261-.021a5.222,5.222,0,0,1-.925-.178c-1.565.209-3.481-.007-3.508-1.807a.8.8,0,0,1,1.118-.745.924.924,0,0,1-.142-.448.828.828,0,0,1,.634-.8.847.847,0,0,1,1.417-.629,7.169,7.169,0,0,1,2.206-.167,8.029,8.029,0,0,0,2.021-.245,11.425,11.425,0,0,1,2.313-.277l.026-.005c-.806-7.784-1.65-11.809-2.507-17.7-.29-1.991-.738-4.219-.135-6.2.59-1.937,2.546-2.758,4.349-3.2a32.657,32.657,0,0,1,7.009-.82c2.408-.07,4.934-.578,7.283.19a1.614,1.614,0,0,1,1.11,1.952,1.5,1.5,0,0,1-.216.455A1.546,1.546,0,0,1,73.835,84.144Z" transform="translate(-34.985 -1.344)" fill="#ffdcc0"/>
  <g id="Group_2" data-name="Group 2" transform="translate(26.331 83.875)">
    <path id="Path_15" data-name="Path 15" d="M68.006,84.7c.033,0-.04.018-.145.038l-.042.008c-.123.023-.275.052-.354.071-.256.067-.513.133-.769.2-.939.254-1.856.579-2.8.832-1.091.292-2.188.655-3.3.861a9.97,9.97,0,0,1-1.5.152,10.1,10.1,0,0,0-1.186.079c-.026.007-.169.037-.221.051l0,0c.044-.005.034,0,.011.012,0,.015-.034.049-.027.023-.027.057-.053.118-.06.13-.014.044-.025.086-.036.131a6.556,6.556,0,0,0-.105-1.852,12.213,12.213,0,0,0,5-.436c.832-.238,1.663-.5,2.468-.815.055-.022.107-.045.161-.068.53-.122,1.062-.238,1.6-.314a2.065,2.065,0,0,1,1.9.586A2.3,2.3,0,0,1,68.006,84.7Z" transform="translate(-57.476 -83.783)" fill="#f4c7a8"/>
  </g>
  <path id="Path_16" data-name="Path 16" d="M98.905,81.383c-1,2.255-3.194,4.026-3.51,6.544-.011.1-.018.187-.025.275-.046.79.109,1.275-.846,1.692-1.3.564-3.312-.25-4.607-.508a49.928,49.928,0,0,0-11-.94,49.935,49.935,0,0,0-11,.94c-1.609.321-3.789,1.4-5.075.04a4.556,4.556,0,0,1-.655-.927c-.8-1.431-1.324-3.495-2.153-4.751-.8-1.207-2.627-3.6-1.289-5.015a1.518,1.518,0,0,1,.327-.26c1.189-.733,2.75-.368,4.046-.219a43.2,43.2,0,0,0,4.706.026c3.585.014,7.167.1,10.75.227l.34.011.342-.011c3.582-.126,7.165-.213,10.748-.227a43.194,43.194,0,0,0,4.706-.026c1.3-.149,2.858-.514,4.047.219a1.513,1.513,0,0,1,.325.258C99.748,79.43,99.311,80.475,98.905,81.383Z" transform="translate(-30.851 -2.017)" fill="#2b3990"/>
  <g id="Group_3" data-name="Group 3" transform="translate(35.781 72.948)">
    <path id="Path_17" data-name="Path 17" d="M65.82,79.216l-.13-.04C65.651,79.176,65.705,79.2,65.82,79.216Z" transform="translate(-63.917 -74.546)" fill="#222960"/>
    <path id="Path_18" data-name="Path 18" d="M87.365,79.671a2.948,2.948,0,0,1-.573.534c-.055.038-.111.075-.167.111a5.5,5.5,0,0,1-.928.487,7.271,7.271,0,0,1-.846.292,13.337,13.337,0,0,1-2.086.39c-.186.02-.373.04-.558.057l-.328.03q-.828.066-1.662.075c-.294.005-.586.005-.88,0-.707-.01-1.413-.04-2.118-.082q-.422-.025-.843-.056c-.5-.036-1-.075-1.5-.116l-.174-.014c-.241-.019-.481-.044-.722-.072-.607-.068-1.212-.157-1.821-.23-.044-.007-.087-.011-.131-.016-.251-.029-.5-.052-.753-.071-.44-.033-.883-.052-1.324-.071-.205-.01-.409-.018-.612-.029-.092,0-.185-.008-.277-.014-.507-.027-1.039-.071-1.561-.15a8.686,8.686,0,0,1-1.151-.251l-.059-.018.056.008a2.55,2.55,0,0,0,.385.022,2.806,2.806,0,0,1-.39-.045h0a1.031,1.031,0,0,0-.182-.025l-.041-.012a2.459,2.459,0,0,1-1.73-2.273,2.386,2.386,0,0,1,1.73-2.272A3.207,3.207,0,0,1,67.6,75.9a1.9,1.9,0,0,1,.372.113c.185.036.37.067.548.1l.105.019c.071.005.144.014.216.018.47.037.94.046,1.412.064s.939.057,1.406.107l.235.026c1.114.126,2.221.3,3.342.357,1.106.057,2.211.142,3.317.185a28.447,28.447,0,0,0,3.8-.072l.051,0c.119-.019.239-.038.358-.062.256-.049.51-.108.761-.18.126-.037.249-.079.373-.122a5.273,5.273,0,0,0,.519-.312,2.385,2.385,0,0,1,3.223.846A2.257,2.257,0,0,1,87.365,79.671Z" transform="translate(-64.39 -75.788)" fill="#222960"/>
  </g>
  <path id="Path_19" data-name="Path 19" d="M68.64,58.223c-.094.588-.388,1.145-.424,1.744a1.885,1.885,0,0,1,.149.247,8.281,8.281,0,0,0,.517.918,2.479,2.479,0,0,1,.242.325l0,0a7.212,7.212,0,0,0,.6.61c.027.025.148.123.231.193l.109.078a7.321,7.321,0,0,0,.768.45c.12.06.254.105.368.172l-.092-.053c-.189-.072-.392-.227,0,0l.022.008a7.092,7.092,0,0,0,.767.216c.038.008.163.029.258.045l.079.007a6.216,6.216,0,0,0,.782,0c.312-.1.35-.077.257-.042.019,0,.04-.007.057-.012.126-.029.25-.062.373-.1.051-.015.242-.093.32-.122l.008,0c.137-.07.269-.146.4-.227.03-.019.06-.042.092-.067a.545.545,0,0,1,.183-.134c.141-.134.4-.534.558-.595.1-.144.189-.291.273-.441s.146-.279.22-.418l.025-.046.021-.055c-.033-.365-.07-.731-.109-1.1-.279-2.576-.687-5.144-.817-7.733a2.96,2.96,0,0,0-1.245-1.025,3.012,3.012,0,0,0-2.15-.376h-.021a2.784,2.784,0,0,0-2.814,2.645A47.746,47.746,0,0,1,68.64,58.223Z" transform="translate(-27.206 -12.065)" fill="#f4c7a8"/>
  <g id="Group_4" data-name="Group 4" transform="translate(37.451 73.339)">
    <path id="Path_20" data-name="Path 20" d="M67.055,80.623a8.686,8.686,0,0,1-1.151-.251l0-.01,0-.023h0a11.283,11.283,0,0,1-.157-1.312A8.539,8.539,0,0,1,65.7,76.4c.109-.563.966-.323.858.236a6.774,6.774,0,0,0,.025,2.008c.06.548-.008,1.559.431,1.942A.194.194,0,0,1,67.055,80.623Z" transform="translate(-65.612 -76.074)" fill="#09093d"/>
    <path id="Path_21" data-name="Path 21" d="M68.839,80.743c-.205-.01-.409-.018-.612-.029-.092,0-.185-.008-.277-.014-.038-.435-.062-.873-.113-1.313-.107-.9-.325-1.785-.4-2.693-.049-.57.839-.564.89,0,.074.867.283,1.713.391,2.575C68.774,79.762,68.793,80.253,68.839,80.743Z" transform="translate(-64.945 -76.002)" fill="#09093d"/>
    <path id="Path_22" data-name="Path 22" d="M70.315,80.937c-.044-.007-.087-.011-.131-.016-.251-.029-.5-.052-.753-.071.068-1.413,0-2.829,0-4.247a.413.413,0,0,1,.38-.425.528.528,0,0,1,.235.026.4.4,0,0,1,.273.4C70.322,78.049,70.39,79.494,70.315,80.937Z" transform="translate(-64.211 -76.037)" fill="#09093d"/>
    <path id="Path_23" data-name="Path 23" d="M72.446,81.175l-.174-.014c-.241-.019-.481-.044-.722-.072-.038-.621-.111-1.237-.16-1.86a6.821,6.821,0,0,0-.327-2.161c-.227-.521.54-.973.768-.45a6.859,6.859,0,0,1,.42,2.246C72.312,79.636,72.408,80.4,72.446,81.175Z" transform="translate(-63.627 -75.96)" fill="#09093d"/>
    <path id="Path_24" data-name="Path 24" d="M74.283,77.112c-.116.951-.014,1.9-.079,2.848-.025.35-.175.841-.2,1.275q-.422-.025-.843-.056c.027-.318.089-.64.126-.946.122-1.036-.018-2.082.109-3.122C73.463,76.552,74.355,76.546,74.283,77.112Z" transform="translate(-62.843 -75.848)" fill="#09093d"/>
    <path id="Path_25" data-name="Path 25" d="M76.4,81.231c-.294.005-.586.005-.88,0-.079-.566-.083-1.149-.178-1.71-.056-.34-.1-.681-.152-1.021-.036-.219-.055-.7-.235-.843-.444-.361.189-.987.629-.627.5.409.485,1.394.571,1.972.059.4.133.791.165,1.2C76.349,80.528,76.347,80.888,76.4,81.231Z" transform="translate(-62.24 -75.763)" fill="#09093d"/>
    <path id="Path_26" data-name="Path 26" d="M78.157,81.156c-.186.021-.373.04-.558.057l-.328.03c-.034-1.38-.3-2.746-.316-4.129a.445.445,0,0,1,.89,0C77.861,78.469,78.115,79.805,78.157,81.156Z" transform="translate(-61.451 -75.85)" fill="#09093d"/>
    <path id="Path_27" data-name="Path 27" d="M80.356,80.474a7.272,7.272,0,0,1-.846.292,31.407,31.407,0,0,1-.556-3.652.445.445,0,0,1,.89,0A23.885,23.885,0,0,0,80.356,80.474Z" transform="translate(-60.718 -75.85)" fill="#09093d"/>
    <path id="Path_28" data-name="Path 28" d="M81.581,79.511a2.948,2.948,0,0,1-.573.534c-.055.038-.111.075-.167.111a18.98,18.98,0,0,1-.679-3.507c-.06-.57.828-.563.89,0A17.936,17.936,0,0,0,81.581,79.511Z" transform="translate(-60.276 -76.019)" fill="#09093d"/>
  </g>
  <path id="Path_29" data-name="Path 29" d="M69.045,62.15a1.555,1.555,0,0,1-1.524,1.524c-.447.015-.9.037-1.342.064-.648.04-1.3.087-1.942.135l-.406.03a5.141,5.141,0,0,1-2.892-.294c-1.018-.59-1.051-1.6-1.035-2.609,0-.142,0-.283.005-.424a8.681,8.681,0,0,0-.234-1.426,5.736,5.736,0,0,1-.022-2.038c.343-1.919,4.2-1.091,5.447-.973a10.771,10.771,0,0,1,2.2.239,1.445,1.445,0,0,1,.861.615,1.649,1.649,0,0,1,.134,1.225,2.045,2.045,0,0,1,.165.223A6.513,6.513,0,0,1,69.045,62.15Z" transform="translate(-30.376 -10.148)" fill="#8dc63f"/>
  <g id="Group_8" data-name="Group 8" transform="translate(15.518 0)">
    <path id="Path_30" data-name="Path 30" d="M91.949,36.4a7.1,7.1,0,0,0-2.611-2.71c-.44-.286-.849.417-.411.7a7.009,7.009,0,0,1,2.086,2,1.567,1.567,0,0,1,.343,1.123c-.127.536-.806.735-1.264.861a.406.406,0,0,0,.216.783,2.591,2.591,0,0,0,1.71-1.108A1.853,1.853,0,0,0,91.949,36.4Z" transform="translate(-35.196 -18.306)" fill="#f15a29"/>
    <path id="Path_31" data-name="Path 31" d="M83.666,44.237a2.531,2.531,0,0,1,1.095-1.979,2.355,2.355,0,0,1,1.129-2.172c1.771-1.1,4-2.806,6.048-1.221a3.671,3.671,0,0,1,.8,4.661,6.243,6.243,0,0,1-3.328,2.37,9.208,9.208,0,0,1-3.4.678A2.37,2.37,0,0,1,83.666,44.237Z" transform="translate(-37.058 -16.618)" fill="#f4c7a8"/>
    <path id="Path_32" data-name="Path 32" d="M86.3,41.508s3.962-1.561,3.657-.472-3.353,2.919-3.657,2.31A3.532,3.532,0,0,1,86.3,41.508Z" transform="translate(-36.14 -15.727)" fill="#e5a980"/>
    <path id="Path_33" data-name="Path 33" d="M59.741,44.237a2.535,2.535,0,0,0-1.095-1.979,2.354,2.354,0,0,0-1.13-2.172c-1.77-1.1-4-2.806-6.047-1.221a3.669,3.669,0,0,0-.8,4.661A6.242,6.242,0,0,0,54,45.9a9.2,9.2,0,0,0,3.4.678A2.37,2.37,0,0,0,59.741,44.237Z" transform="translate(-49.341 -16.618)" fill="#f4c7a8"/>
    <path id="Path_34" data-name="Path 34" d="M55.558,41.508S51.6,39.947,51.9,41.037s3.353,2.919,3.657,2.31A3.532,3.532,0,0,0,55.558,41.508Z" transform="translate(-48.714 -15.727)" fill="#e5a980"/>
    <path id="Path_35" data-name="Path 35" d="M98.387,39.9a13.468,13.468,0,0,0-.746-1.58c-2.138-3.872-6.057-6.647-10.547-8.2-7.253-2.505-17.985-2.5-25.42,1.662a15.649,15.649,0,0,0-8.038,10.379C51.8,50.325,56.87,56.524,63.812,60.07a30.426,30.426,0,0,0,16.538,3.216,19.99,19.99,0,0,0,2.086-.349c8.11-1.819,16.554-8.281,16.914-17.2A14.128,14.128,0,0,0,98.387,39.9Z" transform="translate(-48.211 -20.214)" fill="#ffdcc0"/>
    <path id="Path_36" data-name="Path 36" d="M92.078,43.078c-.359,8.919-8.8,15.382-16.914,17.2a19.99,19.99,0,0,1-2.086.349,71.663,71.663,0,0,1,6-3.988,24.867,24.867,0,0,0,5.5-4.7,22.251,22.251,0,0,0,5.757-14.027c.022-.748.036-1.5.037-2.246a13.468,13.468,0,0,1,.746,1.58A14.128,14.128,0,0,1,92.078,43.078Z" transform="translate(-40.94 -17.555)" fill="#f4c7a8"/>
    <g id="Group_5" data-name="Group 5" transform="translate(6.585 10.875)">
      <path id="Path_37" data-name="Path 37" d="M73.324,32.105a.492.492,0,0,0-.193-.025l.1.022Z" transform="translate(-47.506 -29.746)" fill="#efb68f"/>
      <path id="Path_38" data-name="Path 38" d="M70.8,34.979h-.011L70.716,35a.264.264,0,0,0,.221.005L70.9,35Z" transform="translate(-48.392 -28.682)" fill="#efb68f"/>
      <path id="Path_39" data-name="Path 39" d="M60.281,34.972c-.2.081-.362.205,0,0Z" transform="translate(-52.297 -28.685)" fill="#efb68f"/>
      <path id="Path_40" data-name="Path 40" d="M100.246,38.012a2.385,2.385,0,0,0-2.634-1.062,7.876,7.876,0,0,1-.621-.678c-.03-.036-.168-.21-.235-.294l-.116-.152a11.3,11.3,0,0,0-4-3.422c-.724-.355-1.465-.677-2.194-1.025a8.988,8.988,0,0,0-3.312-1c-2.094-.146-3.739,1.155-5.492,2.058-.094.048-.189.092-.283.138l-.045.023c-.139.041-.324.082-.411.1a.347.347,0,0,1,.049.016.309.309,0,0,0-.123,0,.481.481,0,0,1-.093.015l-.034,0c-.033,0-.3-.005-.5-.011.089.026.133.052-.052.005l-.04-.008c-.074,0-.126,0-.124-.005s.011-.014.023-.016l-.16-.034c-.2-.048-.4-.1-.6-.163-.418-.123-.834-.275-1.26-.368a5.1,5.1,0,0,0-2.922.172c-.273.1-.54.224-.816.316-.113.037-.238.06-.354.09-.079,0-.163.012-.231.015.025.01.051.021.079.034h0a.645.645,0,0,0-.164-.033.305.305,0,0,1-.092-.015,6.053,6.053,0,0,1-.622-.169c-.165-.052-.325-.113-.487-.174a3.634,3.634,0,0,0-.383-.163,15.817,15.817,0,0,0-2.88-1.133c-2.179-.5-4.245.262-6.361.683a7.108,7.108,0,0,0-4.483,2.28,9.774,9.774,0,0,0-.994,1.456c-.094.175-.182.353-.277.528-.046.087-.094.176-.146.261-.025.044-.053.087-.081.13a2.553,2.553,0,0,0-1.65.662,2.419,2.419,0,0,0-.441,2.925,2.487,2.487,0,0,0,2.781,1.088,5.031,5.031,0,0,0,1.95-.81,7.638,7.638,0,0,0,2.006-2.617c.1-.172.2-.342.316-.506l.025-.036.023-.023c.093-.1.2-.193.291-.291.018-.011.034-.023.052-.033.12-.074.253-.126.374-.2l-.134.077c.027-.011.056-.022.083-.03a10.888,10.888,0,0,1,1.065-.26c.935-.193,1.856-.425,2.787-.634.234-.052.467-.1.7-.141.023,0,.042-.01.06-.014.078,0,.157,0,.185,0a4.316,4.316,0,0,0,.645.019c.094.025.19.046.284.074.208.06.411.133.614.21l.093.036.124.053c.578.257,1.152.517,1.736.76a7.4,7.4,0,0,0,3.165.681,8.3,8.3,0,0,0,2.5-.627c.1-.036.2-.063.3-.092l-.031-.015c.025,0,.059,0,.1-.005l.005,0h.005l.03,0c.108-.01.131.012.108.03.231.062.461.135.69.205a9.092,9.092,0,0,0,3.082.514A8.085,8.085,0,0,0,84.139,36.4c.374-.2.737-.425,1.1-.642.183-.108.366-.216.552-.317.093-.051.187-.1.28-.149.071-.037.142-.071.213-.1.16-.075.093-.048-.2.078.056-.1.481-.16.595-.2a.436.436,0,0,0,.07-.027c.06,0,.115,0,.137,0,.045,0,.139.015.217.021.216.064.432.131.646.2l.01,0,.175.081c.223.1.441.213.663.318.4.194.817.372,1.225.56s.79.376,1.169.593c.169.1.335.2.5.31.048.031.094.066.141.1a9.374,9.374,0,0,1,.946.947c.072.085.141.169.212.254l.008.011c.174.231.353.459.529.685a7.947,7.947,0,0,0,2.1,2.008,3.937,3.937,0,0,0,3.984.078A2.357,2.357,0,0,0,100.246,38.012Z" transform="translate(-54.382 -30.372)" fill="#efb68f"/>
      <path id="Path_41" data-name="Path 41" d="M73.794,32.094l.045-.011c-.157-.044-.258.033-.167.033.026,0,.06-.011.093-.015Z" transform="translate(-47.32 -29.749)" fill="#efb68f"/>
      <path id="Path_42" data-name="Path 42" d="M68.457,32.114h.034l.052,0c-.185-.07-.239-.037-.178-.014l.021.005C68.406,32.108,68.431,32.111,68.457,32.114Z" transform="translate(-49.263 -29.749)" fill="#efb68f"/>
    </g>
    <ellipse id="Ellipse_2" data-name="Ellipse 2" cx="1.159" cy="1.159" rx="1.159" ry="1.159" transform="translate(38.261 21.338)" fill="#231f20"/>
    <path id="Path_43" data-name="Path 43" d="M64.792,42.641c0,1.441-1.782,2.609-3.983,2.609s-3.984-1.169-3.984-2.609,1.784-2.609,3.984-2.609S64.792,41.2,64.792,42.641Z" transform="translate(-46.902 -15.954)" fill="#ffb0b0"/>
    <ellipse id="Ellipse_3" data-name="Ellipse 3" cx="1.159" cy="1.159" rx="1.159" ry="1.159" transform="translate(17.536 21.338)" fill="#231f20"/>
    <path id="Path_44" data-name="Path 44" d="M104,39.122c-.107.331-.208.662-.3,1a5.685,5.685,0,0,1,.3.707,4.221,4.221,0,0,1,.152,1.29,4.757,4.757,0,0,1-1.252,3.437,3.471,3.471,0,0,1-3.426.78A4.633,4.633,0,0,1,97.617,45.2a6.328,6.328,0,0,1-.764-.9,5.2,5.2,0,0,1-.894-2.527c-.012-.152-.015-.3-.014-.451a5.419,5.419,0,0,1,.07-.794,5.148,5.148,0,0,1-1.081-1.6,3.724,3.724,0,0,1-.283-1.732c-.09-.007-.18-.016-.269-.029A10.491,10.491,0,0,1,91.4,36.114c-.055-.012-.111-.023-.165-.037-.493-.037-.988-.041-1.48-.094A6.436,6.436,0,0,1,87.73,35.5c-.083.1-.168.2-.258.29a8.559,8.559,0,0,1-6.793,2.164,7.632,7.632,0,0,1-2.952-.877,7.364,7.364,0,0,1-3.8.681,6.5,6.5,0,0,1-3.683-1.412,4.017,4.017,0,0,1-.359-.335,3.867,3.867,0,0,1-.917.286,5.611,5.611,0,0,1-1.654.038c-.115.1-.236.189-.362.276a5.851,5.851,0,0,1-3.554.976,5.151,5.151,0,0,1-2.11-.616,4.287,4.287,0,0,1-.06,3.016A4.727,4.727,0,0,1,59.274,42.5a3.21,3.21,0,0,1-.38.18c-.09.265-.193.526-.309.787-.1.216-.2.432-.314.646a2.3,2.3,0,0,1-2.019,1.158,6.537,6.537,0,0,1-3.939-1.338,3.513,3.513,0,0,1-1.184-2.073,4.3,4.3,0,0,1,.029-1.659,5.266,5.266,0,0,1,.593-1.525,1.342,1.342,0,0,1-.053-.209c-.176-1.152-.821-2.136-.839-3.328a5.78,5.78,0,0,1,2.313-4.207,8.08,8.08,0,0,1,3.962-2,9.576,9.576,0,0,1,1.178-.107,3.765,3.765,0,0,1,2.833-2.162,7.034,7.034,0,0,1,4.576-2.65,9.445,9.445,0,0,1,3.574.485c.112.034.224.07.338.108A9.606,9.606,0,0,1,76.07,23.02a8.236,8.236,0,0,1,2.2.519,8.081,8.081,0,0,1,4.905-1.08A6.34,6.34,0,0,1,87.241,24.3c.074.082.148.165.216.25.111-.051.223-.1.336-.145a6.557,6.557,0,0,1,4.855.2,8.324,8.324,0,0,1,2.791,1.853,12.054,12.054,0,0,1,2.071,3.164,5.091,5.091,0,0,1,1.833.444,8.232,8.232,0,0,1,2.729,2.161,10.978,10.978,0,0,1,1.748,2.505,5.323,5.323,0,0,1,.552,1.938,3.964,3.964,0,0,1,.015.477A7.07,7.07,0,0,1,104,39.122Z" transform="translate(-49.09 -22.415)" fill="#f15a29"/>
    <g id="Group_6" data-name="Group 6" transform="translate(9.396 8.902)">
      <path id="Path_45" data-name="Path 45" d="M67.762,31.571c.044.049.045-.018-.127-.284l.012.034C67.687,31.4,67.722,31.491,67.762,31.571Z" transform="translate(-52.333 -28.064)" fill="#e5461c"/>
      <path id="Path_46" data-name="Path 46" d="M67.959,31.813h0Z" transform="translate(-52.214 -27.871)" fill="#e5461c"/>
      <path id="Path_47" data-name="Path 47" d="M56.836,36.179v-.057a.746.746,0,0,0-.045.161l.019-.026Q56.823,36.216,56.836,36.179Z" transform="translate(-56.309 -26.29)" fill="#e5461c"/>
      <path id="Path_48" data-name="Path 48" d="M81.934,35.729l0,0,0,.011,0,.008Z" transform="translate(-47.09 -26.436)" fill="#e5461c"/>
      <path id="Path_49" data-name="Path 49" d="M67.875,31.7l-.056-.049v0Z" transform="translate(-52.265 -27.929)" fill="#e5461c"/>
      <path id="Path_50" data-name="Path 50" d="M95.062,35.416a8.747,8.747,0,0,0-1.4-2.159,3.368,3.368,0,0,0-2.28-.962,4.688,4.688,0,0,0-1.521.344.423.423,0,0,1-.118.048l.067-.03c-.023.008-.052.021-.083.034h0l-.055-.022c-.116-.045-.243-.083-.362-.12-.1-.046-.2-.09-.3-.135-.436-.2-.879-.37-1.324-.543a4.657,4.657,0,0,0-3.154-.09c-1.151.331-2.261.793-3.417,1.11-.286.077-.574.146-.865.2-.027,0-.1.022-.172.038-.025,0-.057,0-.105,0-.308.014-.612.044-.92.051A3.058,3.058,0,0,1,78,33.147c.071.023.526.1.083.005-.15-.031-.3-.059-.45-.1-.112-.029-.223-.066-.333-.1a4.926,4.926,0,0,0-1.979-.593,6.417,6.417,0,0,0-1.782.142c-.241.045-.481.1-.719.157-.122.027-.242.055-.364.079l-.071.014c-.06-.005-.174-.008-.277-.005a.73.73,0,0,0-.06-.053.653.653,0,0,1,.053.053h-.044l-.064-.1-.018-.015.018.012a1.772,1.772,0,0,1-.1-.163l-.027-.053a.506.506,0,0,1-.085-.167c-.01-.027-.019-.056-.03-.083a1.121,1.121,0,0,0-.063-.112c.018.029.036.053.051.078l-.021-.059c-.094-.273-.176-.551-.279-.823a3.206,3.206,0,0,0-2.537-2.313,4.543,4.543,0,0,0-3.071.9c-.47.306-.923.633-1.41.912-.234.134-.473.25-.713.37a.908.908,0,0,0-.086.048c-.1.026-.2.046-.254.063-.227.07-.455.122-.686.169-.07,0-.145.005-.215,0-.413-.007-.826-.062-1.237-.1a4.544,4.544,0,0,0-3.727.909,3.816,3.816,0,0,0-1.046,3.141c.092.951.312,1.881.484,2.818.008.079.016.16.022.239,0,.111,0,.22,0,.329.06-.138.139-.16.078-.037,0-.077-.007-.1-.053.023l-.026.071v.042l-.025.036a.622.622,0,0,0-.029.138c0-.041.005-.078.01-.113a2.554,2.554,0,0,0-.383,2.155c.116-.261.219-.522.309-.787a3.21,3.21,0,0,0,.38-.18,4.727,4.727,0,0,0,1.952-2.513,4.287,4.287,0,0,0,.06-3.016,5.151,5.151,0,0,0,2.11.616,5.851,5.851,0,0,0,3.554-.976c.126-.087.247-.18.362-.276a5.611,5.611,0,0,0,1.654-.038,3.867,3.867,0,0,0,.917-.286,4.017,4.017,0,0,0,.359.335,6.5,6.5,0,0,0,3.683,1.412,7.364,7.364,0,0,0,3.8-.681,7.632,7.632,0,0,0,2.952.877A8.559,8.559,0,0,0,85.425,33.4c.09-.093.175-.191.258-.29a6.436,6.436,0,0,0,2.026.485c.492.053.987.057,1.48.094.055.014.111.025.165.037a10.491,10.491,0,0,0,2.981,1.051c.089.012.179.022.269.029a3.724,3.724,0,0,0,.283,1.732,5.148,5.148,0,0,0,1.081,1.6,5.419,5.419,0,0,0-.07.794,5.176,5.176,0,0,0,.908,2.978,6.328,6.328,0,0,0,.764.9,1.979,1.979,0,0,0,.126-.8,7.232,7.232,0,0,1,.005-.843c.008-.12.022-.239.033-.358.1-.631.21-1.267.246-1.9A6.415,6.415,0,0,0,95.062,35.416Z" transform="translate(-56.439 -28.929)" fill="#e5461c"/>
      <path id="Path_51" data-name="Path 51" d="M80.9,31.643l-.03.01h0Z" transform="translate(-47.477 -27.933)" fill="#e5461c"/>
      <path id="Path_52" data-name="Path 52" d="M81.926,35.762c-.029.161.012.243.037.236-.008-.062-.019-.128-.023-.19Z" transform="translate(-47.095 -26.422)" fill="#e5461c"/>
    </g>
    <g id="Group_7" data-name="Group 7" transform="translate(46.87 14.735)">
      <path id="Path_53" data-name="Path 53" d="M91.594,36.163c.1-.333.2-.664.3-1a7.07,7.07,0,0,0,.385-1.972c-.067.105-.131.212-.194.318-.589,1.007-1.051,2.083-1.611,3.105-.138.251-.282.5-.433.744-.071.113-.144.226-.219.338l-.1.142-.04.053c-.064.066-.342.379-.357.392l-.057.053c-.049.025-.119.064-.182.1h.044l-.046.014h-.023l-.008.005-.016,0H89.03c-.164,0-.144.021-.067.037-.15.04-.2-.037.021-.052-.212-.055-.418-.118-.625-.193l-.034-.012-.036-.012c-.022-.008-.046-.016-.071-.027l-.048-.019c-.057-.025-.116-.049-.175-.071l.092.034c-.154-.07-.309-.138-.463-.209-.517-.231-1.039-.455-1.565-.666a2.185,2.185,0,0,0-2.2.543,5.2,5.2,0,0,0,.894,2.527,6.328,6.328,0,0,0,.764.9,4.633,4.633,0,0,0,1.849,1.133,3.471,3.471,0,0,0,3.426-.78,4.757,4.757,0,0,0,1.252-3.437,4.221,4.221,0,0,0-.152-1.29A5.685,5.685,0,0,0,91.594,36.163Z" transform="translate(-83.857 -33.196)" fill="#e5461c"/>
      <path id="Path_54" data-name="Path 54" d="M87.691,37.054l.027-.016a.93.93,0,0,0-.111,0l.06.015Z" transform="translate(-82.481 -31.787)" fill="#e5461c"/>
      <path id="Path_55" data-name="Path 55" d="M87.037,36.856l.046.019.107.04c.087.03.1.026-.238-.1l.068.03Z" transform="translate(-82.722 -31.867)" fill="#e5461c"/>
    </g>
    <path id="Path_56" data-name="Path 56" d="M85.926,42.641c0,1.441-1.784,2.609-3.984,2.609s-3.983-1.169-3.983-2.609,1.784-2.609,3.983-2.609S85.926,41.2,85.926,42.641Z" transform="translate(-39.151 -15.954)" fill="#ffb0b0"/>
    <path id="Path_57" data-name="Path 57" d="M62.654,43.85H84.019a10.364,10.364,0,0,1-10.085,7.468C65.781,51.318,62.654,43.85,62.654,43.85Z" transform="translate(-44.764 -14.554)" fill="#fff"/>
    <path id="Path_58" data-name="Path 58" d="M68.677,42.528s2.306-3.588,5.03,0Z" transform="translate(-42.555 -15.624)" fill="#f4c7a8"/>
    <path id="Path_59" data-name="Path 59" d="M68.677,51.077a13.965,13.965,0,0,1,6.016,0A13.842,13.842,0,0,1,68.677,51.077Z" transform="translate(-42.555 -12.027)" fill="#f4c7a8"/>
    <path id="Path_60" data-name="Path 60" d="M63.758,35.525a5.087,5.087,0,0,0-2.22.845A4.214,4.214,0,0,0,59.9,38.012c-.216.472.484.886.7.41a4.35,4.35,0,0,1,3.154-2.086C64.275,36.29,64.279,35.477,63.758,35.525Z" transform="translate(-45.789 -17.608)" fill="#603913"/>
    <path id="Path_61" data-name="Path 61" d="M78.133,35.731a4.821,4.821,0,0,1,2.11.8A4,4,0,0,1,81.8,38.1c.206.45-.459.843-.667.391a4.133,4.133,0,0,0-3-1.983C77.643,36.458,77.637,35.684,78.133,35.731Z" transform="translate(-39.222 -17.532)" fill="#603913"/>
    <path id="Path_62" data-name="Path 62" d="M70.146,24.11c-3.925-2.436-9.949-1.652-12.138,2.736-.234.466.467.879.7.41,2-4,7.458-4.658,11.027-2.445C70.181,25.089,70.59,24.385,70.146,24.11Z" transform="translate(-46.485 -22.293)" fill="#f15a29"/>
    <path id="Path_63" data-name="Path 63" d="M88.185,29.342a4.872,4.872,0,0,0-3.066-5.384,8.346,8.346,0,0,0-6.893.785c-.461.249-.051.95.41.7a7.8,7.8,0,0,1,5.78-.875c2.168.651,3.812,3.109,2.732,5.31-.165.339.191.8.556.556,2.418-1.58,6.165,2.572,4.155,4.734-.355.383.217.958.575.574C94.836,33.164,91.265,28.565,88.185,29.342Z" transform="translate(-39.126 -22.011)" fill="#f15a29"/>
    <path id="Path_64" data-name="Path 64" d="M55.951,27.5a7.642,7.642,0,0,0-5.75,4.263c-.492.959-.958,2.243-.34,3.254a1.814,1.814,0,0,0,1.275.808,3.8,3.8,0,0,0-1.227,2.606,2.948,2.948,0,0,0,.621,2.153,2.1,2.1,0,0,0,2.177.517.406.406,0,0,0-.216-.783,1.272,1.272,0,0,1-1.426-.358,2.345,2.345,0,0,1-.336-1.607c.115-1.2.892-2.408,2.222-2.266.459.049.547-.69.109-.8-.727-.179-2.032.023-2.5-.681-.541-.821.119-2.073.541-2.806a6.739,6.739,0,0,1,4.847-3.488C56.465,28.25,56.471,27.437,55.951,27.5Z" transform="translate(-49.565 -20.553)" fill="#f15a29"/>
  </g>
  <path id="Path_65" data-name="Path 65" d="M90.035,83.939c-.113.087-.231.172-.353.253A12.544,12.544,0,0,1,84.5,85.9a16.877,16.877,0,0,1-1.867.133c-.549.011-1.1,0-1.644-.03-2.146-.109-4.281-.465-6.432-.662-3.209-.3-6.5-.439-9.678-.608-.113,0-.226-.011-.339-.018a2.415,2.415,0,0,1-2.358-2.356c-.272-6.149.593-12.368,1.11-18.5.031-.362.06-.724.089-1.084.03-.395.033-.88.041-1.4.034-2.161.156-5.005,2.617-5.006h.321c1.629,0,2.877-.018,4.5-.04.082.595.82,1.129,1.368,1.547a3.783,3.783,0,0,0,3.178.81,2.685,2.685,0,0,0,2.328-2.776c.461-.008.707.226,1.205.224,2.028-.01,4.288.018,6.167.016a2.648,2.648,0,0,1,.452.037c1.909.323,2.237,2.714,2.366,4.447.015.165.025.324.036.474q.094,1.406.247,2.807c.239,2.192.588,4.374,1.043,6.53A47.967,47.967,0,0,0,90.6,75.724,17.573,17.573,0,0,1,91.759,80.4,4.077,4.077,0,0,1,90.035,83.939Z" transform="translate(-29.436 -10.133)" fill="#8dc63f"/>
  <path id="Path_66" data-name="Path 66" d="M57.007,103.974a12.963,12.963,0,0,0-2.325.09c-.8.13-1.6.321-2.4.448a8.631,8.631,0,0,1-1.782.12l-.056,0a8.26,8.26,0,0,1,1.87-.944A23,23,0,0,1,57.007,103.974Z" transform="translate(-33.725 7.366)" fill="#f4c7a8"/>
  <path id="Path_67" data-name="Path 67" d="M94.32,86.093c-.046.79.109,1.275-.846,1.692-1.3.564-3.312-.25-4.607-.508a49.928,49.928,0,0,0-11-.94,49.936,49.936,0,0,0-11,.94c-1.609.321-3.789,1.4-5.075.04a4.556,4.556,0,0,1-.655-.927c1.842-.526,3.7-.992,5.572-1.374a51.588,51.588,0,0,1,14.076-1.125,36.441,36.441,0,0,1,7.2,1.221c1.162.329,2.293.7,3.48.931.055.011.1.019.137.025.092.011.183.022.275.03.292.029.588.048.883.055s.589,0,.882-.01c.153-.01.88-.092.455-.026C94.174,86.107,94.247,86.1,94.32,86.093Z" transform="translate(-29.8 0.092)" fill="#233382"/>
  <path id="Path_68" data-name="Path 68" d="M85.994,79.145a4.073,4.073,0,0,1-1.725,3.541c-.113.087-.231.174-.353.253a1.721,1.721,0,0,1-.668-1.125c-.5-3.379-.349-6.82-1.167-10.17-.775-3.179-2.369-6.178-3.675-9.238-.159-.37-.313-.741-.461-1.113-.414-1.041.685-1.816,1.893-1.93a13.536,13.536,0,0,1,2.33.014c1.294.1,2.586.308,3.886.335.015,1.017-.011,2.035-1.036,2.63a2.508,2.508,0,0,1-.81.288c-.548-.056-1.092-.119-1.64-.169.033.071.064.144.1.215l-.212-.015c.239,2.191.588,4.372,1.043,6.529a48.069,48.069,0,0,0,1.338,5.284A17.564,17.564,0,0,1,85.994,79.145Z" transform="translate(-23.67 -8.88)" fill="#7fb22f"/>
  <path id="Path_69" data-name="Path 69" d="M66.293,66.873c-.1,1.754-.338,3.493-.517,5.24-.144,1.39-.2,2.785-.321,4.177a34.357,34.357,0,0,0-.2,4.544c.011.2.023.4.041.6.005.055.042.372.041.387a8.347,8.347,0,0,0,.19.914c.048.175.1.349.161.519.014.038.027.077.042.113l-.339-.018A2.417,2.417,0,0,1,63.039,81c-.272-6.149.593-12.366,1.11-18.5l-.406.03a5.141,5.141,0,0,1-2.892-.294c-1.018-.59-1.051-1.6-1.035-2.609a2,2,0,0,1,.3.037,8.415,8.415,0,0,0,3.785.395,1.616,1.616,0,0,1,.381-.046,1.564,1.564,0,0,1,1.494,1.113,10.177,10.177,0,0,1,.318,1.24A18.3,18.3,0,0,1,66.293,66.873Z" transform="translate(-30.288 -8.769)" fill="#7fb22f"/>
  <path id="Path_70" data-name="Path 70" d="M77.8,80.091c-.549.011-1.1,0-1.644-.03.048-2.676-.756-5.658-.812-7.953A12.473,12.473,0,0,1,77.8,80.091Z" transform="translate(-24.593 -4.19)" fill="#7fb22f"/>
  <path id="Path_71" data-name="Path 71" d="M77.948,66.489c-.059.01-1.11-.353-1.121-.171a2.282,2.282,0,0,1-.2.8,2.216,2.216,0,0,1-.272.44,2.8,2.8,0,0,1-.152.245,3.116,3.116,0,0,0,.753.836.444.444,0,0,1-.448.767,3.609,3.609,0,0,1-.914-.953,3.585,3.585,0,0,1-1.249.648c.062.381.031.779.107,1.159.111.559-.746.8-.857.236-.081-.409-.041-.846-.122-1.255-.093,0-.186,0-.277,0a3.037,3.037,0,0,1-.949-.193c-.068-.011-.138-.025-.205-.042-.321.3-.586.925-1.025,1.069-.374.122-.687-.067-.607-.487.029-.138.569-1.078.765-.949a2.637,2.637,0,0,1-.98-1.211,2.729,2.729,0,0,1-.135-.411,3.508,3.508,0,0,0-.718.458c-.437.364-1.069-.262-.629-.629a4.8,4.8,0,0,1,1.3-.776,2.718,2.718,0,0,1,.064-.31.365.365,0,0,1,.086-.264l0,0,.014-.029a5.835,5.835,0,0,1-1.3-.629c-.456-.335-.011-1.107.45-.767a5.767,5.767,0,0,0,1.286.623,2.814,2.814,0,0,1,.558-.653c-.358-.45-.681-.925-1.013-1.394s.439-.912.768-.45.638.928,1,1.363a3.864,3.864,0,0,1,1.218-.333,5.36,5.36,0,0,1,.107-1.431.445.445,0,0,1,.858.236,4.224,4.224,0,0,0-.078,1.2,3.627,3.627,0,0,1,1.122.306l.068.037a.442.442,0,0,1,.1-.093c.481-.339.933-.716,1.439-1.017a.416.416,0,0,1,.585.149.426.426,0,0,1-.135.619c-.439.26-.836.578-1.248.879a2.793,2.793,0,0,1,.776,1.33,1.816,1.816,0,0,1,1.493.31A.44.44,0,0,1,77.948,66.489Z" transform="translate(-27.078 -8.089)" fill="#f2c34c"/>
</svg>
