<svg xmlns="http://www.w3.org/2000/svg" width="141.614" height="94.731" viewBox="0 0 141.614 94.731">
  <g id="Group_83" data-name="Group 83" transform="translate(0)">
    <path id="Path_617" data-name="Path 617" d="M355.956,386.448a3.361,3.361,0,0,1,1.142-.018.93.93,0,0,1,.594-.35,4.747,4.747,0,0,1,2.636.47c.162.068.336.158.516.248,3.21.937,6.415,1.695,9.7,2.367a46.259,46.259,0,0,0,5.1.918c3.552.32,7.125.513,10.638,1.171,1.8.338,3.573.753,5.381,1.042,4.792.76,10.425.293,14.793,2.668a3.53,3.53,0,0,1,1.642,2.114,2.4,2.4,0,0,1-2.324,3.266,12.653,12.653,0,0,1-1.888-.011c-3.705-.29-7.282-1.951-11.052-1.348-4.852.774-7.062-.47-11.551-2.272-2.915-1.169-10.214-3.044-12.51-3.731l-.107-.032a3.252,3.252,0,0,1-.585.526,7.385,7.385,0,0,1-3.237,1.252,11.649,11.649,0,0,1-3.629-.295,7.091,7.091,0,0,1-3.188-1.41.924.924,0,0,1,.285-1.539l-.282-.148c-.978-.519-3.511-1.681-2.8-3.194a.956.956,0,0,1,.145-.22,2.144,2.144,0,0,1-.158-.279A.9.9,0,0,1,355.956,386.448Z" transform="translate(-330.121 -342.33)" fill="#f4c7a8"/>
    <path id="Path_618" data-name="Path 618" d="M398.8,397.777c-3.705-.29-7.282-1.951-11.052-1.348-4.852.774-7.062-.47-11.551-2.272-2.915-1.169-10.214-3.044-12.51-3.731a19.99,19.99,0,0,1,6.62.725c2.458.515,4.89,1.212,7.313,1.859a38.623,38.623,0,0,0,7.29,1.548c2.456.169,4.927.121,7.385.314a7.953,7.953,0,0,1,2.848.637c.386.183.76.393,1.153.559l.118.048A1.84,1.84,0,0,1,398.8,397.777Z" transform="translate(-325.034 -339.774)" fill="#e5b595"/>
    <path id="Path_619" data-name="Path 619" d="M345.926,394.214a.132.132,0,0,1,.006-.029,3.916,3.916,0,0,1,.336-.957c.018-.038.037-.076.056-.113.116-.242.247-.479.362-.715a10.989,10.989,0,0,0,.82-2.2,14.4,14.4,0,0,0,.3-2.036c.019-.178.041-.358.064-.535a2.732,2.732,0,0,1,.131-.577,1.427,1.427,0,0,1,.311-.5c.024-.026.049-.049.076-.073.193-.178.449-.385.7-.605l-.019-.041a.491.491,0,0,0,.094-.233,6.07,6.07,0,0,1,.18-1.163,1.122,1.122,0,0,1,.234-.153,1.91,1.91,0,0,1,1.38-.083,1.172,1.172,0,0,1,.315.581.706.706,0,0,0,.029.092,1.912,1.912,0,0,1,.464-.155.831.831,0,0,1,1.031.785,2.3,2.3,0,0,1,0,.444.721.721,0,0,1,.347.322.824.824,0,0,1-.292,1.112c-.064.178-.185.33-.263.516-.266.631-.553,1.252-.784,1.9-.424,1.18-1.016,3-.033,4.068.164.178,6.8,4.777,7.812,5.56,3.364,2.592,6.644,5.373,10.413,7.3,1.106.682,2.216,1.362,3.286,2.1.237.166.472.336.706.5.115.1.233.185.347.28a22.314,22.314,0,0,1,1.762,1.618c.115.115.229.234.343.352,5.91,3.673,10.673,9.214,15.611,14.068a2.169,2.169,0,0,1,.169,3c-.03.033-.064.062-.094.092a1.908,1.908,0,0,1-.8.921,2.212,2.212,0,0,1-2.108-.065,10.078,10.078,0,0,1,.421,1.652,1.934,1.934,0,0,1-2.077,2.063c.008.032.021.06.029.092a1.988,1.988,0,0,1-2.971,2.28,36.84,36.84,0,0,1-5.851-5.028c-5.72-5.967-9.853-13.313-16.073-18.7a97.9,97.9,0,0,1-7.364-6.721c-1.523-1.626-5.679-6.6-6.555-7.86a2.026,2.026,0,0,1-.151-.241,1.744,1.744,0,0,1-.4-.035,3.435,3.435,0,0,1-2.291-1.34A4.749,4.749,0,0,1,345.926,394.214Z" transform="translate(-335.599 -343.478)" fill="#f4c7a8"/>
    <path id="Path_620" data-name="Path 620" d="M361.6,407.014a97.509,97.509,0,0,1-7.355-6.732c-1.52-1.626-5.668-6.609-6.542-7.866a1.917,1.917,0,0,1,.631.437c2.171,2.291,4.62,4.255,6.968,6.356,2.053,1.835,4.024,3.771,6.13,5.548a64.308,64.308,0,0,1,5.912,5.319c1.849,2,3.807,3.909,5.524,6.025s3,4.465,4.957,6.3a2.255,2.255,0,0,1,.03,3.14,1.733,1.733,0,0,1-.207.2C371.938,419.763,367.817,412.413,361.6,407.014Z" transform="translate(-334.508 -338.546)" fill="#f4c7a8"/>
    <path id="Path_621" data-name="Path 621" d="M379.062,397.182a1.141,1.141,0,0,0,1.756.217,1.019,1.019,0,0,0,1.19-.513,6.661,6.661,0,0,0,.3-.86,1.167,1.167,0,0,0,.652-.156,1.181,1.181,0,0,0,1.375.107,1.138,1.138,0,0,0,1.673-.084,1.023,1.023,0,0,0,1.523-.037,1.226,1.226,0,0,0,1.577-.58c.64,1,2.458.408,2.015-.848a2.521,2.521,0,0,0-.266-.532,1.111,1.111,0,0,0,.5-2.055,13.516,13.516,0,0,0-5.572-1.153c-1.6-.115-3.533-.163-4.715-1.408a1.119,1.119,0,0,0-1.856.491C378.624,392.094,377.815,394.938,379.062,397.182Z" transform="translate(-316.303 -340.596)" fill="#7fb22f"/>
    <path id="Path_622" data-name="Path 622" d="M386.482,394.146c-.47.511-1.115.865-1.534,1.422a1.989,1.989,0,0,1-.014.338,9.857,9.857,0,0,0-.088,1.225,2.9,2.9,0,0,1,.025.471l0,.006a8.478,8.478,0,0,0,.191.978c.011.041.065.215.1.336.024.064.046.121.057.147a8.12,8.12,0,0,0,.457.93c.078.137.178.266.247.4l-.056-.112c-.137-.191-.236-.473,0,0l.016.022a7.964,7.964,0,0,0,.607.7c.032.033.139.132.223.21l.072.057a7.306,7.306,0,0,0,.76.5c.37.1.39.15.277.124l.064.026c.14.053.283.1.427.142.059.017.295.065.389.088l.011,0c.177.019.355.032.534.035a1.22,1.22,0,0,0,.131,0,.627.627,0,0,1,.264-.014,4.1,4.1,0,0,1,.926-.218q.28-.115.55-.253c.164-.083.322-.177.483-.264l.054-.029.054-.04q.3-.566.6-1.136c1.386-2.684,2.641-5.443,4.178-8.045a3.432,3.432,0,0,0-.553-1.8,3.5,3.5,0,0,0-1.846-1.747l-.019-.014a3.246,3.246,0,0,0-4.436.761C388.508,390.912,387.756,392.763,386.482,394.146Z" transform="translate(-312.484 -341.114)" fill="#f4c7a8"/>
    <path id="Path_623" data-name="Path 623" d="M339.652,396.9a4.748,4.748,0,0,1-.229-1.528.153.153,0,0,1,0-.029,3.909,3.909,0,0,1,.2-1q.017-.06.038-.12c.08-.256.175-.51.255-.758a11.042,11.042,0,0,0,.494-2.3,14.086,14.086,0,0,0,.008-2.058c-.006-.18-.011-.36-.013-.538a2.632,2.632,0,0,1,.046-.588l0,0a1.43,1.43,0,0,1,.236-.543c.019-.029.043-.056.064-.084a15.293,15.293,0,0,0,1.129-1.375,5.1,5.1,0,0,0,.413-.83c.1-.07.207-.137.307-.2a.813.813,0,0,1,1.258.72,1.583,1.583,0,0,1,.538.024.888.888,0,0,1,.522.417.917.917,0,0,1,.076.685l-.008.018a.845.845,0,0,1,.438.241.887.887,0,0,1-.027,1.255,1.04,1.04,0,0,1-.414.231c-.33.086-.352,2.206-.376,2.488-.105,1.19-.462,2.319.556,3.154.188.153,7.414,3.748,8.53,4.376,3.7,2.08,7.348,4.36,11.356,5.728,1.193.515,2.388,1.027,3.556,1.607.258.129.515.264.771.4.127.08.256.151.384.229a22.449,22.449,0,0,1,1.975,1.346c.131.1.261.2.39.3,6.378,2.783,11.89,7.579,17.473,11.672a2.171,2.171,0,0,1,.6,2.947c-.025.037-.054.07-.08.1a1.911,1.911,0,0,1-.661,1.027,2.218,2.218,0,0,1-2.1.239,10.138,10.138,0,0,1,.655,1.574,1.935,1.935,0,0,1-1.759,2.34c.013.03.029.057.041.088a1.988,1.988,0,0,1-2.612,2.683,36.866,36.866,0,0,1-6.512-4.131c-6.522-5.082-11.667-11.756-18.6-16.193a97.169,97.169,0,0,1-8.255-5.591c-1.741-1.389-6.571-5.716-7.619-6.832a2.129,2.129,0,0,1-.185-.217,1.774,1.774,0,0,1-.4.024A3.438,3.438,0,0,1,339.652,396.9Z" transform="translate(-339.421 -343.061)" fill="#ffdcc0"/>
    <path id="Path_624" data-name="Path 624" d="M357.352,405.568a97.323,97.323,0,0,1-8.256-5.59c-1.74-1.389-6.568-5.716-7.616-6.832a1.924,1.924,0,0,1,.687.339c2.483,1.951,5.19,3.54,7.818,5.276,2.3,1.518,4.529,3.146,6.872,4.6a64.708,64.708,0,0,1,6.622,4.4c2.12,1.708,4.335,3.315,6.34,5.158s3.618,3.981,5.821,5.512a2.257,2.257,0,0,1,.487,3.1,2.074,2.074,0,0,1-.175.226C369.43,416.681,364.285,410.006,357.352,405.568Z" transform="translate(-338.2 -338.114)" fill="#f4c7a8"/>
    <path id="Path_625" data-name="Path 625" d="M362.743,416.975a42.6,42.6,0,0,0,4.789,3.642c.084.049.17.094.255.142a10.239,10.239,0,0,0,8.738,6.523c3.67.363,7.785-1.424,10.557-3.748a28.2,28.2,0,0,0,2.729-2.7,2.643,2.643,0,0,0,.11-3.662,2.7,2.7,0,0,0-3.417-.339,13.333,13.333,0,0,0-2.753-7.094.591.591,0,0,0-.045-.045,15.646,15.646,0,0,1-3.748-.859,29.01,29.01,0,0,1-8.384-4.876c-.553-.444-1.088-.9-1.611-1.37a2.544,2.544,0,0,0-.613-.134c-2.6-.2-5.8,6.437-7.14,8.567C360.586,413.595,361.271,415.447,362.743,416.975Z" transform="translate(-326.464 -332.598)" fill="#f15a29"/>
    <g id="Group_81" data-name="Group 81" transform="translate(66.136 0)">
      <path id="Path_626" data-name="Path 626" d="M416.743,376.139c-1.082-3.254,1.3-6.017,3.011-8.537.513-.755-.757-1.4-1.265-.648-1.964,2.895-4.328,5.921-3.1,9.622A.711.711,0,0,0,416.743,376.139Z" transform="translate(-360.709 -353.843)" fill="#f15a29"/>
      <path id="Path_627" data-name="Path 627" d="M434.861,386.02c1.885-2.514,1.351-6.34-.124-8.911a8.962,8.962,0,0,0-5.523-4.135,1.875,1.875,0,0,0,1.69-1.145,1.783,1.783,0,0,0-.766-2.206,24.569,24.569,0,0,0-3.963-2.138,6.389,6.389,0,0,0-4.841.411,13.434,13.434,0,0,0-2.67,1.926,14.112,14.112,0,0,0-2.576,2.855c-.747,1.129-1.254,2.8-.378,4.011a2.3,2.3,0,0,0,.814.7,10.388,10.388,0,0,0,.368,3.632c.21.776.5,1.526.722,2.3.108.373.205.747.29,1.126.041.186.078.374.113.564.014.081.027.161.041.242l.013.073,0,.041a10.581,10.581,0,0,1,.067,1.29c0,.215-.016.428-.033.644l0,.027c-.016.108-.032.215-.053.323-.041.213-.091.427-.15.637-.024.08-.046.159-.072.239,0-.008-.076.217-.1.282l-.033.08c-.061.132-.123.263-.188.392-.124.241-.263.473-.408.7a1.768,1.768,0,0,0,.156,1.943,1.838,1.838,0,0,0,1.854.642c-.175.024.046,0,.1-.011.118-.014.234-.03.35-.046.317-.041.636-.081.951-.135a6.825,6.825,0,0,0,1.451-.421,6.6,6.6,0,0,0,2.7-2.112,11.185,11.185,0,0,0,.913-1.392,1.833,1.833,0,0,0,2.592-.55,14.314,14.314,0,0,0,1.939-5.343l.083.1c.025.03.064.078.083.107.092.131.182.263.266.4q.234.37.432.76a8.318,8.318,0,0,1,.62,1.693,1.78,1.78,0,0,0,1.5,1.289A1.857,1.857,0,0,0,434.861,386.02Zm-6.767-13.266a.973.973,0,0,1,.143-.016c.037,0,.072,0,.108,0l.025,0c.124.04.247.072.37.115C428.527,372.818,428.311,372.783,428.094,372.754Z" transform="translate(-360.593 -353.51)" fill="#f15a29"/>
      <path id="Path_628" data-name="Path 628" d="M419.388,379.013c.19-1.98-.57-3.927-.959-5.838a1.817,1.817,0,0,0-2.176-1.257,8.776,8.776,0,0,0-2.415.7,1.785,1.785,0,0,0-.655,2.426,1.9,1.9,0,0,0,.663.642,1.768,1.768,0,0,0,.049.561l.006.019,0,.043c0,.056-.006.089-.006.107l0,.014a3.336,3.336,0,0,1-.1.37c.016-.072-.2.292-.019.062a1.8,1.8,0,0,0,.82,2.971c.946.29,1.558.653,2.581.91A1.806,1.806,0,0,0,419.388,379.013Z" transform="translate(-361.954 -350.717)" fill="#8dc63f"/>
      <path id="Path_629" data-name="Path 629" d="M426.276,398.34a44.029,44.029,0,0,1-3.285,4.9,26.059,26.059,0,0,1-6.509,6.109,24.122,24.122,0,0,1-8.328,3.156,12.616,12.616,0,0,1-4.1.078c-.016-.032-.03-.064-.046-.094-.084-.284-.183-.559-.253-.848a2.55,2.55,0,0,0-.481-.977c-.029-.037-.059-.072-.089-.107a1.589,1.589,0,0,1,.247-.489.538.538,0,0,0,.112-.28c1.3-1.314,2.652-2.57,3.908-3.922a18.292,18.292,0,0,0,2.189-2.772,14.713,14.713,0,0,0,.9-1.649c.115-.245.221-.494.327-.742a.649.649,0,0,1,.03-.073c.01-.027.019-.053.03-.078l0-.006c.041-.113.084-.225.127-.338a23.328,23.328,0,0,0,.795-2.676q.163-.7.287-1.415c.035-.209.068-.417.1-.624.016-.108.032-.215.046-.322l0-.021,0-.016c0-.025.006-.054.01-.089q.074-.688.113-1.38a26.7,26.7,0,0,0-1.12-9.472c-.258-.87-.564-1.724-.9-2.568-.016-.04-.065-.158-.081-.2s-.038-.089-.057-.135c-.07-.163-.142-.327-.214-.489-.159-.357-.323-.714-.494-1.066a37.8,37.8,0,0,0-2.536-4.48q-.38-.569-.781-1.125c-.118-.161-.239-.322-.358-.483l-.024-.032c-.07-.089-.142-.178-.213-.268-.521-.65-1.072-1.279-1.655-1.875-.032-.035-.067-.069-.1-.1a20.654,20.654,0,0,0-1.935-1.74c-.034-.027-.166-.126-.193-.145-.053-.038-.1-.076-.156-.113-.156-.112-.315-.22-.475-.325-.341-.225-.69-.437-1.048-.632q-.566-.315-1.161-.574l-.2-.086-.041-.016c-.2-.072-.4-.145-.61-.209q-.392-.124-.792-.22a1.768,1.768,0,0,1-.9-.183l-.113-.019-.056-.01c-.1-.011-.2-.021-.307-.029a2.008,2.008,0,0,1-1.473-.781,1.645,1.645,0,0,1-1.4-.123,1.86,1.86,0,0,1-.822-2.162,1.369,1.369,0,0,1,.142-.258,4.311,4.311,0,0,1,2.77-1.687,4.93,4.93,0,0,1,1.391-.561,1.808,1.808,0,0,1,1.324-.2l.08.018a11.454,11.454,0,0,1,1.915.126c.145.019.288.043.433.067l.155,0c.779.025,1.553.067,2.326.148.354.038.709.084,1.063.142a37.351,37.351,0,0,1,6.96,1.491,27.049,27.049,0,0,1,10.106,6.714,27.963,27.963,0,0,1,6.2,10.571,24.853,24.853,0,0,1,1.22,12.172A17.434,17.434,0,0,1,426.276,398.34Z" transform="translate(-374.331 -357.019)" fill="#f15a29"/>
      <path id="Path_630" data-name="Path 630" d="M425.446,401.411a22.419,22.419,0,0,1-1.475,1.751,24.067,24.067,0,0,1-8.777,5.948,23.144,23.144,0,0,1-7.205,1.585c-.3.018-.6.029-.906.032-5.513.073-10.885-2.5-15.366-5.507-3.395-2.276-7.066-4.789-9.214-8.363-2.335-3.89-1.7-9.555-.4-13.7.6-1.9,1.294-3.685,1.891-5.174.062-.155.123-.307.182-.456a28.816,28.816,0,0,1,2.364-4.591c.169-.268.342-.534.519-.795a35.85,35.85,0,0,1,2.275-3.016q.918-1.094,1.91-2.12a17.307,17.307,0,0,1,2.973-2.544,8.014,8.014,0,0,1,2.652-1.15,1.942,1.942,0,0,1,1.381.213,1.534,1.534,0,0,1,.777.027c2.675.819,5.445,1.211,8.045,2.281,2.851,1.177,5.15,3.3,7.868,4.715a1.725,1.725,0,0,1,.883,1.321,36.008,36.008,0,0,1,3.751,3.376q.557.576,1.088,1.177A28.242,28.242,0,0,1,427.1,388.2a21.433,21.433,0,0,1,.553,3.877C427.832,395.4,427.28,399,425.446,401.411Z" transform="translate(-380.938 -355.833)" fill="#ffdcc0"/>
      <g id="Group_78" data-name="Group 78" transform="translate(9.655 8.625)">
        <path id="Path_631" data-name="Path 631" d="M393.724,369.489l.033.032-.01-.016Z" transform="translate(-383.011 -360.767)" fill="#f4c7a8"/>
        <path id="Path_632" data-name="Path 632" d="M393.738,369.49l-.131-.077c.045.03.105.07.186.12l-.026-.024Z" transform="translate(-383.081 -360.812)" fill="#f4c7a8"/>
        <path id="Path_633" data-name="Path 633" d="M393.741,369.5l.15.091,0-.006-.153-.1Z" transform="translate(-383.004 -360.766)" fill="#f4c7a8"/>
        <path id="Path_634" data-name="Path 634" d="M393.745,369.509a.867.867,0,0,0,.166.182l0-.021Z" transform="translate(-382.999 -360.755)" fill="#f4c7a8"/>
        <path id="Path_635" data-name="Path 635" d="M414.3,403.092a10.57,10.57,0,0,0,.113-7.471,18.73,18.73,0,0,0-4.244-5.953c-.346-.366-.693-.731-1.034-1.1-.188-.206-.374-.411-.557-.62-.118-.134-.236-.269-.352-.4l0,0-.006-.006a2.152,2.152,0,0,1-.183-.264c-.3-.4-.663-.782-.959-1.18q-.626-.836-1.187-1.719c-.338-.534-.656-1.082-.948-1.642-.057-.112-.112-.223-.167-.335-.143-.342-.29-.682-.417-1.031-.209-.573-.365-1.156-.516-1.746-.024-.164-.062-.4-.065-.422-.045-.393-.064-.787-.07-1.182,0-.33,0-.661.019-.991,0-.134.011-.266.021-.4a1.94,1.94,0,0,0-.008-.228c.01-.26.064-.532.083-.781.043-.556.088-1.113.119-1.671a7.614,7.614,0,0,0-.745-3.96,7.089,7.089,0,0,0-2.969-2.773,21.5,21.5,0,0,0-4.524-1.865c-1.45-.443-2.931-.771-4.4-1.148-.226-.057-.449-.116-.674-.18a17.307,17.307,0,0,0-2.973,2.544c-.221.229-.438.462-.655.7.433.064.865.14,1.292.229,3.133.663,7.337,2.372,9.043,5.356l0,0c.906,1.585.312,3.629.449,5.394a22.344,22.344,0,0,0,1.287,5.9c1.711,4.707,5,7.653,8.212,11.278.029.033.059.065.091.1.145.185.292.368.432.559,1.5,2.066,1.134,4.749.153,6.95-.312.7-3.675,7.239-3.565,7.232a23.145,23.145,0,0,0,7.205-1.585c.193-.387.389-.773.585-1.157A41.609,41.609,0,0,0,414.3,403.092Z" transform="translate(-386.999 -364.014)" fill="#f4c7a8"/>
        <path id="Path_636" data-name="Path 636" d="M401.378,394.975v.009l0,.013v-.009Z" transform="translate(-378.473 -345.655)" fill="#f4c7a8"/>
        <path id="Path_637" data-name="Path 637" d="M401.394,394.95q0,.05,0,.1a3.142,3.142,0,0,0,.04-.338c0,.033-.013.067-.018.1S401.4,394.9,401.394,394.95Z" transform="translate(-378.466 -345.81)" fill="#f4c7a8"/>
        <path id="Path_638" data-name="Path 638" d="M401.6,393.986l.01-.032.008-.022Z" transform="translate(-378.341 -346.273)" fill="#f4c7a8"/>
        <path id="Path_639" data-name="Path 639" d="M400.408,378.907c-.234-.37-.252-.374-.194-.276s.131.18.191.271Z" transform="translate(-379.179 -355.378)" fill="#f4c7a8"/>
      </g>
      <g id="Group_79" data-name="Group 79" transform="translate(8.443 3)">
        <path id="Path_640" data-name="Path 640" d="M390.593,365.112l.056.021,0,0Z" transform="translate(-383.656 -357.737)" fill="#f15a29"/>
        <path id="Path_641" data-name="Path 641" d="M421.612,405.745a11.482,11.482,0,0,1-3.285,2.99c-.266.167-.537.325-.812.476-.226.124-.459.244-.7.362a14.727,14.727,0,0,1-5.2,3.4,8.132,8.132,0,0,1-2.383.444c-1.908.054-3.156-.836-2.495-2.284a3.761,3.761,0,0,1,.585-.875c.954-1.1,2.171-1.935,3.157-3.006a.484.484,0,0,0,.124-.448,6.7,6.7,0,0,0,1.51-1.1,8.448,8.448,0,0,0,2.251-4.191,2.985,2.985,0,0,0,.022-.492c-.1-2.883-4.017-6.009-5.663-7.924-2.514-2.925-5.058-6.047-6.187-9.8a18.985,18.985,0,0,1-.58-9.085c-2.342-1.668-4.233-3.866-6.805-5.289a9.32,9.32,0,0,0-8.54-.628,2.834,2.834,0,0,1,.03-2.869c1.1-2.08,4.207-3.779,5.929-4.271a21.573,21.573,0,0,1,10.2-.124,15.649,15.649,0,0,1,3.409,1.11c2,.951,3.624,2.456,3.54,4.8a1.879,1.879,0,0,1,.959.46,1.561,1.561,0,0,1,1.206.268,2,2,0,0,1,1.077.489,1.6,1.6,0,0,1,.261.312,2.071,2.071,0,0,1,.244.188,1.475,1.475,0,0,1,.314.411c.049-.1.1-.191.151-.285a1.777,1.777,0,1,1,3.1,1.738c-.142.26-.266.531-.387.8-.075.169-.142.339-.215.507-.038.1-.076.2-.113.3l-.062.169a25.02,25.02,0,0,0-.078,2.888,35.142,35.142,0,0,1,4.153,4.429,18.118,18.118,0,0,1,3.186,6.681,30.446,30.446,0,0,1,1.15,8.376,1.884,1.884,0,0,1,.468,1.176A13.22,13.22,0,0,1,424.057,401,20.847,20.847,0,0,1,421.612,405.745Z" transform="translate(-386.238 -360.482)" fill="#f15a29"/>
      </g>
      <g id="Group_80" data-name="Group 80" transform="translate(8.443 6.697)">
        <path id="Path_642" data-name="Path 642" d="M418.327,407.359a19.658,19.658,0,0,1-2.221,2.98,22.774,22.774,0,0,1-4.489,1.258,8.131,8.131,0,0,1-2.383.444c-1.908.054-3.156-.836-2.495-2.284-.029-.037-.059-.072-.089-.107a1.588,1.588,0,0,1,.247-.489.538.538,0,0,0,.112-.28c1.3-1.314,2.652-2.57,3.908-3.922a18.293,18.293,0,0,0,2.189-2.772,14.715,14.715,0,0,0,.9-1.649c.115-.245.221-.494.327-.742a.657.657,0,0,1,.03-.073c.01-.027.019-.053.03-.078-.1-2.883-4.017-6.009-5.663-7.924-2.514-2.925-5.058-6.047-6.187-9.8a18.985,18.985,0,0,1-.58-9.085c-2.342-1.668-4.233-3.866-6.805-5.289a9.32,9.32,0,0,0-8.54-.628,2.834,2.834,0,0,1,.03-2.869,12.839,12.839,0,0,1,2.028-.738,15.425,15.425,0,0,1,6.973-.209,23.125,23.125,0,0,1,10.748,5.595,3.548,3.548,0,0,1,1.047,1.873,2.329,2.329,0,0,1-.049,1.219,40.838,40.838,0,0,0-1.878,6.262c-.033.2-.064.4-.089.594,0-.043,0-.06,0-.06a1.348,1.348,0,0,0-.027.25l0,.072c-.011.112-.021.221-.033.331.013-.105.024-.2.032-.272a12.251,12.251,0,0,0,.04,1.367c.024.255.075.5.1.758-.04-.363-.056-.5-.056-.523.006.035.059.437.107.621a12.818,12.818,0,0,0,.54,1.531c.049.094.1.19.148.282.121.229.252.454.386.675.346.569.72,1.123,1.115,1.66.218.3.449.586.677.879.021.025.037.053.052.075.043.046.084.086.108.115.411.467.838.919,1.276,1.359a59.811,59.811,0,0,0,5.545,4.642c.148.115.295.231.441.35a13.671,13.671,0,0,1,3.283,3.528,8.947,8.947,0,0,1,1.056,6.27A14.319,14.319,0,0,1,418.327,407.359Z" transform="translate(-386.238 -362.803)" fill="#e5461c"/>
        <path id="Path_643" data-name="Path 643" d="M398.263,373.01l0,.059c.019-.161.029-.263.032-.32-.006.049-.014.1-.019.148S398.266,372.972,398.263,373.01Z" transform="translate(-379.109 -356.906)" fill="#e5461c"/>
      </g>
      <path id="Path_644" data-name="Path 644" d="M411.889,389.27c-.4-2.995-3.64-3.407-6.01-3.946a3,3,0,0,0-.5-.068,13.5,13.5,0,0,1-2.729,3.974,22.158,22.158,0,0,1-1.832,1.73,11.084,11.084,0,0,0,3.208,2.061,7.273,7.273,0,0,0,4.7.763A4.277,4.277,0,0,0,411.889,389.27Z" transform="translate(-369.149 -342.792)" fill="#f4c7a8"/>
      <path id="Path_645" data-name="Path 645" d="M404.063,387.188s4.562,1.955,3.415,2.608-5.171-.33-4.922-1.085S404.063,387.188,404.063,387.188Z" transform="translate(-368.125 -341.647)" fill="#e5a980"/>
      <path id="Path_646" data-name="Path 646" d="M412,394.761c-3.152-3.873-7.608-6.2-11.167-9.636a14.94,14.94,0,0,1-4.7-10.4,6.991,6.991,0,0,1,2.17-5.5c.685-.607-.37-1.563-1.047-.961-3.159,2.8-2.931,7.575-1.676,11.246a15.7,15.7,0,0,0,2.786,5.059,33.643,33.643,0,0,0,5.719,5.072,36.73,36.73,0,0,1,6.713,5.888C411.376,396.228,412.579,395.47,412,394.761Z" transform="translate(-372.763 -352.984)" fill="#e5461c"/>
      <path id="Path_647" data-name="Path 647" d="M430.82,384.859c-.237-2.643.129-5.284-.795-7.834a23.511,23.511,0,0,0-4.24-7.022,21.227,21.227,0,0,0-12.546-7.587,18.328,18.328,0,0,0-7.892.354c-2.737-2.41-5.8-4.5-9.655-4.127a11.016,11.016,0,0,0-8.593,5.176,4.8,4.8,0,0,0-.787,2.652c.112.038.223.078.335.118a1.6,1.6,0,0,1,.17.092c.112-.112.221-.225.327-.341.129-.14.247-.288.37-.433l.032-.041c.056-.091.108-.183.156-.277a2.171,2.171,0,0,1,.245-.36,8.383,8.383,0,0,1,.486-.875,8.038,8.038,0,0,1,2.337-2.515,11.025,11.025,0,0,1,5-1.776,8.957,8.957,0,0,1,5.418,1.3A20.082,20.082,0,0,1,404.5,363.9a.721.721,0,0,0,.374.342c.409.379.816.763,1.22,1.142.669.626,1.628-.424.961-1.048l-.441-.411a17.7,17.7,0,0,1,12.135,1.937,20.7,20.7,0,0,1,5.364,4.374,23.588,23.588,0,0,1,4.239,6.418,11.631,11.631,0,0,1,.93,4.089c.064,1.4-.011,2.8.115,4.194C429.482,385.847,430.9,385.774,430.82,384.859Z" transform="translate(-377.756 -358.599)" fill="#f15a29"/>
      <path id="Path_648" data-name="Path 648" d="M395.627,379.436a1.351,1.351,0,1,1-.588-1.818A1.353,1.353,0,0,1,395.627,379.436Z" transform="translate(-373.742 -347.41)" fill="#231f20"/>
      <path id="Path_649" data-name="Path 649" d="M400.473,385.566c-.765,1.5-3.235,1.759-5.518.589s-3.511-3.328-2.746-4.822,3.237-1.759,5.52-.589S401.239,384.072,400.473,385.566Z" transform="translate(-374.389 -345.901)" fill="#ffb0b0"/>
      <path id="Path_650" data-name="Path 650" d="M384.151,377.537a3.3,3.3,0,0,1-2.479.139c.6-1.9,1.294-3.685,1.891-5.174C385.191,374.622,385.494,376.747,384.151,377.537Z" transform="translate(-380.502 -350.355)" fill="#ffb0b0"/>
      <path id="Path_651" data-name="Path 651" d="M387.238,370.78a5.078,5.078,0,0,0-2.781-1.15c.169-.268.342-.534.519-.795.2.04.4.089.589.142a5.648,5.648,0,0,1,2.343,1.2C388.334,370.57,387.662,371.17,387.238,370.78Z" transform="translate(-378.851 -352.53)" fill="#603913"/>
      <path id="Path_652" data-name="Path 652" d="M396.794,379.574c-.215.191-.812-.008-1.032-.088l-.145-.056a2.911,2.911,0,0,0,1.8-1.018c.346-.4-.264-.965-.612-.561s-1.429,1.263-1.792.473c-.22-.475-1-.233-.793.244a.358.358,0,0,0-.091.223c-.11,1.349,2.361,2.158,3.27,1.343C397.8,379.778,397.187,379.221,396.794,379.574Z" transform="translate(-373.115 -347.266)" fill="#231f20"/>
      <path id="Path_653" data-name="Path 653" d="M384.2,371.8a1.352,1.352,0,1,0,1.819-.586A1.351,1.351,0,0,0,384.2,371.8Z" transform="translate(-379.094 -351.209)" fill="#231f20"/>
      <path id="Path_654" data-name="Path 654" d="M383.939,370.5c-.129.258.223.782.355.972.019.027.053.072.094.126a2.9,2.9,0,0,1,.5-2.009c.3-.441,1,0,.7.441s-.841,1.711.018,1.854c.516.084.489.9-.026.828a.359.359,0,0,1-.19.147c-1.274.462-2.706-1.708-2.16-2.8C383.475,369.587,384.175,370.031,383.939,370.5Z" transform="translate(-379.646 -352.189)" fill="#231f20"/>
      <path id="Path_655" data-name="Path 655" d="M389.226,374.614s-5.435.62-2.914,3.188Z" transform="translate(-378.147 -349.103)" fill="#f4c7a8"/>
      <path id="Path_656" data-name="Path 656" d="M383,377.1l13.01,7.662s-5.789,5.893-10.749,2.442S383,377.1,383,377.1Z" transform="translate(-380.149 -347.63)" fill="#fff"/>
    </g>
    <path id="Path_657" data-name="Path 657" d="M352.317,391.639a.961.961,0,0,1,.147-.22,2.345,2.345,0,0,1-.156-.279.9.9,0,0,1,.747-1.193,3.407,3.407,0,0,1,1.144-.01.928.928,0,0,1,.594-.349,4.187,4.187,0,0,1,2.1.274l1.09.034a1.793,1.793,0,0,1,.139-.236,1.137,1.137,0,0,1,1.52-.4,16.471,16.471,0,0,0,1.9.784c.089.041.177.084.261.131.221.033.44.07.658.113a4.25,4.25,0,0,1,2.979,1.978c.728.164,1.456.323,2.19.478a46.1,46.1,0,0,0,5.091.946c3.551.339,7.124.553,10.632,1.23,1.8.347,3.57.773,5.375,1.07,4.789.787,10.423.352,14.778,2.75a3.534,3.534,0,0,1,1.631,2.123,2.4,2.4,0,0,1-2.343,3.253,12.429,12.429,0,0,1-1.888-.022c-3.7-.309-7.27-1.99-11.044-1.408-4.857.749-7.058-.51-11.538-2.335-2.907-1.185-10.2-3.1-12.487-3.8l-.108-.032a7.243,7.243,0,0,1-.97.631,5.519,5.519,0,0,1-1.633.542,4.77,4.77,0,0,1-3.181-.652c-1.18-.607-2.335-1.279-3.527-1.865a11.687,11.687,0,0,0-2.284-.852C353.047,393.7,351.782,392.762,352.317,391.639Z" transform="translate(-331.849 -340.508)" fill="#ffdcc0"/>
    <path id="Path_658" data-name="Path 658" d="M395.825,401.353c-3.7-.309-7.27-1.99-11.044-1.408-4.857.749-7.059-.51-11.538-2.335-2.907-1.185-10.2-3.1-12.487-3.8a20.017,20.017,0,0,1,6.616.76c2.455.53,4.883,1.241,7.3,1.9a38.646,38.646,0,0,0,7.278,1.588c2.456.182,4.927.147,7.383.354a7.973,7.973,0,0,1,2.845.653c.384.185.758.4,1.152.566l.116.048A1.841,1.841,0,0,1,395.825,401.353Z" transform="translate(-326.77 -337.764)" fill="#f4c7a8"/>
    <g id="Group_82" data-name="Group 82" transform="translate(45.109 71.357)">
      <path id="Path_659" data-name="Path 659" d="M367.738,403.394a29.009,29.009,0,0,0,8.384,4.876,15.647,15.647,0,0,0,3.748.859.58.58,0,0,1,.045.045,7.769,7.769,0,0,1,1.9,3.681,2.545,2.545,0,0,1-1.055.105C375.047,412.286,370.546,408.288,367.738,403.394Z" transform="translate(-367.738 -403.394)" fill="#e5461c"/>
    </g>
    <path id="Path_660" data-name="Path 660" d="M371.825,411.987a6.948,6.948,0,0,0,.142.739,11.777,11.777,0,0,0,1.714,3.581c.256.387.534.771.827,1.144a45.8,45.8,0,0,0,1.975,4.862,44.334,44.334,0,0,0,3.148,5.537c.285.432.524.8.741,1.093.924,1.265,1.432,1.3,3.288-.018,4.683-3.326,25.083-28.069,18.138-33.7a8.672,8.672,0,0,1-2.391-.088,15.842,15.842,0,0,1-1.83-.174c-.47-.067-.937-.147-1.4-.258-.508-.124-.976-.39-1.475-.515l-.037-.008a1.843,1.843,0,0,1,.237.105c-.021,0-.36-.131-.237-.105l-.073-.032c-.229-.092-.457-.186-.677-.3a7.714,7.714,0,0,1-.946-.585c-.29-.2-.575-.416-.865-.62-.064.032-.124.065-.188.1-.456-.081-.91-.18-1.362-.287-.076.014-.153.029-.231.037a51.447,51.447,0,0,1-10.917.221c.04,1.712.062,3.427-.054,5.139-.091,1.29-1.15,3.984-.851,5.117.112.422,2.366,2.047,2.585,1.577-.061.132-.126.263-.2.39A10.231,10.231,0,0,1,376.653,409a11.379,11.379,0,0,1-2.38.94C372.558,410.394,371.537,409.839,371.825,411.987Z" transform="translate(-320.234 -338.523)" fill="#8dc63f"/>
    <path id="Path_661" data-name="Path 661" d="M340.2,392.278a5.526,5.526,0,0,0,.843-2.665,4.478,4.478,0,0,0-.475-2.483,3.114,3.114,0,0,0-.212-.328,2.634,2.634,0,0,0-.046.588c0,.178.006.358.013.538a14.09,14.09,0,0,1-.008,2.058,11.042,11.042,0,0,1-.494,2.3c-.08.248-.175.5-.255.758A5.083,5.083,0,0,0,340.2,392.278Z" transform="translate(-339.332 -341.876)" fill="#f4c7a8"/>
    <path id="Path_662" data-name="Path 662" d="M371.825,407.915a6.946,6.946,0,0,0,.142.739c1.66-.261,6.351-1.3,9.473-4.924a54.025,54.025,0,0,0,10.21-4.409,45.4,45.4,0,0,1-10.759,1.544,10.231,10.231,0,0,1-4.237,4.062,11.375,11.375,0,0,1-2.38.94C372.558,406.322,371.537,405.768,371.825,407.915Z" transform="translate(-320.234 -334.452)" fill="#7fb22f"/>
  </g>
</svg>
