<svg id="Group_26" data-name="Group 26" xmlns="http://www.w3.org/2000/svg" width="133.677" height="108.093" viewBox="0 0 133.677 108.093">
  <path id="Path_140" data-name="Path 140" d="M290.555,430.146a.94.94,0,0,0-.045,1.2,1.281,1.281,0,0,0,1.128.308,1.5,1.5,0,0,0,1.878.646,4.173,4.173,0,0,0,2.068-.473,8.3,8.3,0,0,0,1.422-.921l.058-.045c.524-.418.527-1.511.9-2.119a1.031,1.031,0,0,1,.217-.254,12.281,12.281,0,0,1,1.9-1.177c.225-.123.447-.245.666-.372.2-.118.393-.238.579-.367.06-.041.118-.08.174-.122s.089-.065.132-.1a5.338,5.338,0,0,0,.417-.351,2.686,2.686,0,0,0,.839-2.691c-.375-.89-1.694-1.145-2.174-2.051-.849-1.6-.491-3.783-.514-5.532-.01-.769-.014-1.559-.028-2.363v0a30.913,30.913,0,0,0-1-8.538,4.241,4.241,0,0,0-.162-.432,5.042,5.042,0,0,1-.74-2.483c1.042-5.835,2.15-11,1.4-17a17.639,17.639,0,0,0-.453-2.419c-.045-.172-.092-.342-.147-.511a8.708,8.708,0,0,0-.828-2,3.61,3.61,0,0,0-.729-.864,4.12,4.12,0,0,0-4.471-.409,2.08,2.08,0,0,0-1.536-.267,1.847,1.847,0,0,0-.853.434c.305,5.168-1.157,10.134-.5,15.264.334,2.623,1.47,5.84,1.275,8.4a7.515,7.515,0,0,0,.007,1.152,10.53,10.53,0,0,0,.14,1.063c.186,1.044.5,2.081.761,3.06.734,2.719,1.432,5.447,2.114,8.178q.568,2.272,1.119,4.547c.2.806,1.162,2.926.736,3.7a1.807,1.807,0,0,1-.575.556c-.5.353-2.71,3.525-3.533,3.925-.708-.162-1.586-.616-2.043.181A.954.954,0,0,0,290.555,430.146Z" transform="translate(-207.577 -324.308)" fill="#ffdcc0"/>
  <path id="Path_141" data-name="Path 141" d="M291.089,397.736a10.53,10.53,0,0,0,.14,1.063c1.824.668,2.753-1.325,2.778-1.384C293.981,397.453,293.385,398.233,291.089,397.736Z" transform="translate(-207.234 -318.357)" fill="#f4c7a8"/>
  <path id="Path_142" data-name="Path 142" d="M296.071,417.344a1,1,0,0,1,.216-.254,12.28,12.28,0,0,1,1.9-1.177c.225-.123.447-.245.666-.373q.3-.173.581-.366c.059-.041.117-.08.173-.122l.132-.1a.583.583,0,0,0-.067,0,5.309,5.309,0,0,0-1.659.457,5.132,5.132,0,0,0-1.406.732,1.821,1.821,0,0,0-.522,1.132Z" transform="translate(-205.688 -312.914)" fill="#f4c7a8"/>
  <path id="Path_143" data-name="Path 143" d="M295.858,384.2c.043.219.068.443.113.662-.145-.677.021.153.046.352.073.588.13,1.179.177,1.772a32.856,32.856,0,0,1,.054,5.654c-.155,1.73-.415,3.448-.605,5.173a13.48,13.48,0,0,0,.346,5.231c.444,1.593,1.1,3.128,1.554,4.72q.35,1.232.633,2.479c.088.377.173.756.253,1.136.024.118.047.237.069.356v.007c0,.043.052.309.058.367.031.275.052.554.069.832a30.913,30.913,0,0,0-1-8.538,4.241,4.241,0,0,0-.162-.432,5.042,5.042,0,0,1-.74-2.483c1.042-5.835,2.15-11,1.4-17a17.639,17.639,0,0,0-.453-2.419c-.045-.172-.092-.342-.147-.511a8.708,8.708,0,0,0-.828-2,2.45,2.45,0,0,0-1.749,2.157,1.779,1.779,0,0,0,.668,1.486A9.087,9.087,0,0,1,295.858,384.2Zm.123-.738a3.566,3.566,0,0,0,1.363.447A2.688,2.688,0,0,1,295.981,383.465Z" transform="translate(-206.035 -323.897)" fill="#f4c7a8"/>
  <path id="Path_144" data-name="Path 144" d="M337.781,348.469a5.045,5.045,0,0,0-.738-.519c-.072-.043-.147-.085-.219-.122l-.047-.028a8.26,8.26,0,0,0-1.534-.578c-.024-.008-.047-.013-.071-.02-.646-.18-1.532.464-2.241.522a.993.993,0,0,1-.333-.026,12.273,12.273,0,0,1-2.068-.841c-.233-.11-.461-.218-.695-.318q-.316-.14-.638-.254c-.067-.024-.132-.047-.2-.068-.052-.017-.106-.033-.159-.048a5.182,5.182,0,0,0-.528-.13,2.687,2.687,0,0,0-2.669.907c-.5.826.071,2.043-.379,2.965-.8,1.63-2.769,2.623-4.17,3.672-2.813,2.108-6.094,4.4-8.212,7.246-.086.117-.17.248-.254.387-.436.735-.869,1.722-1.57,2.061-5.331,2.593-10.155,4.736-14.566,8.871a17.869,17.869,0,0,0-1.688,1.79c-.111.138-.22.277-.326.421a5.893,5.893,0,0,0-1.4,2.944,4.116,4.116,0,0,0,2.3,3.854,2.067,2.067,0,0,0,.688,1.4,1.85,1.85,0,0,0,.852.436c4-3.29,8.872-5.032,12.636-8.58,1.924-1.814,3.856-4.627,6.041-5.977a16.246,16.246,0,0,0,3.729-3.841q2.65-3.288,5.366-6.523,1.5-1.795,3.016-3.581c.536-.633,1.68-2.663,2.559-2.775a1.8,1.8,0,0,1,.787.138c.632.211,5.2.1,5.395.679a.812.812,0,0,0,1.486.01.792.792,0,0,0,.87-.449.853.853,0,0,0,.052-.448.767.767,0,0,0,1.271-.208C340.819,349.852,339.231,348.9,337.781,348.469Z" transform="translate(-206.62 -334.318)" fill="#ffdcc0"/>
  <path id="Path_145" data-name="Path 145" d="M324.459,347.682a.994.994,0,0,1-.333-.026,12.279,12.279,0,0,1-2.068-.841c-.233-.11-.461-.218-.694-.318q-.316-.14-.638-.254c-.067-.024-.132-.047-.2-.068-.052-.017-.106-.033-.159-.048a.528.528,0,0,0,.042.052,5.313,5.313,0,0,0,1.347,1.072,5.1,5.1,0,0,0,1.419.7,1.817,1.817,0,0,0,1.223-.245Z" transform="translate(-198.147 -334.275)" fill="#f4c7a8"/>
  <g id="Group_17" data-name="Group 17" transform="translate(79.256 32.499)">
    <path id="Path_146" data-name="Path 146" d="M310.164,374.106c-1.373,4.977-9.384,3.716-9.17,9.617.007.148.017.3.033.459.263,2.585,2.085,8.413-.079,10.294-2.2,1.912-7.054,2.315-9.815,1.9-2.541-.384-2.543-1.082-2.824-3.613-.084-.767-.911-6.929-.7-7.055.038-.022.075-.043.114-.064a20.216,20.216,0,0,1,.862-4.666c.324-1.156.706-2.3,1.022-3.453a26.567,26.567,0,0,0,.608-3.734c.033-.267.071-.539.114-.81-.06-.041-.119-.083-.177-.13a2.323,2.323,0,0,1-.211-3.264,33.936,33.936,0,0,1,8.7-5.971c3.167-1.579,4.405-3.048,6.117.246.153.294.794,1.571,1.61,3.117.683,1.3,2.9,4.057,3.607,5.893A2.1,2.1,0,0,1,310.164,374.106Z" transform="translate(-287.579 -361.883)" fill="#2b3990"/>
  </g>
  <path id="Path_147" data-name="Path 147" d="M266.654,386.659a2.908,2.908,0,0,1,1.411-1.692,1.971,1.971,0,0,1,3.032,1.3,10.208,10.208,0,0,1,.322,1.519c.418,3.028-.29,6.194.857,9.117,1.474,3.765.861,5.758.2,9.682-.428,2.547-.655,8.741-.8,10.707-.008.094-.014.177-.021.25a2.811,2.811,0,0,1,.269.229,6.241,6.241,0,0,1,.987,1.265c0,.1,0,.208,0,.313,0,.595-.037,1.19-.092,1.783q-.035.373-.084.744c-.005.025-.054.36-.054.359-.02.126-.039.252-.062.377-.107.635-.236,1.267-.38,1.895-.083.363-.173.725-.267,1.086-.138.371-.229.608-.235.626-.259.837-.778,2.931-2,2.781a3.261,3.261,0,0,1-.809,1.152.431.431,0,0,1-.6,0,3.09,3.09,0,0,1-.561-2.534.771.771,0,0,1-.22-.318,3.911,3.911,0,0,1-.025-2.2c.03-.142.076-.3.122-.455.263-2.739.383-5.445.421-8.2.016-1.115.237-2.221.2-3.33-.114-3.2-.946-6.364-1.043-9.587-.045-1.5-.022-3-.107-4.508C266.876,395.03,265.512,390.585,266.654,386.659Z" transform="translate(-214.957 -322.316)" fill="#ffdcc0"/>
  <path id="Path_148" data-name="Path 148" d="M270.491,387.042c.418,3.028-.29,6.194.857,9.117,1.474,3.765.861,5.758.2,9.682-.428,2.547-.655,8.741-.8,10.707a16.43,16.43,0,0,1-.58-5.447c-.017-2.066.117-4.143.211-6.2a31.71,31.71,0,0,0-.034-6.129c-.3-2-.768-3.982-1.044-5.99a6.578,6.578,0,0,1,.012-2.4c.08-.342.183-.679.248-1.025l.018-.1A1.512,1.512,0,0,1,270.491,387.042Z" transform="translate(-214.029 -321.576)" fill="#f4c7a8"/>
  <path id="Path_149" data-name="Path 149" d="M264.37,339.656a.759.759,0,0,1,.263-.387,3.865,3.865,0,0,1-.1-.489,2.412,2.412,0,0,1,.309-1.5.44.44,0,0,1,.481-.2,1.463,1.463,0,0,1,1.109.746c3.073-.743,4.369,9.435,2.871,11.079a2.585,2.585,0,0,1-.254.244l.035.249c.262,1.952.85,8.124,1.426,10.641.887,3.88,1.616,5.834.364,9.678-.974,2.985-.083,6.105-.324,9.152a10.111,10.111,0,0,1-.232,1.536,1.972,1.972,0,0,1-2.952,1.47,2.909,2.909,0,0,1-1.507-1.607c-1.369-3.854-.267-8.371-.27-12.362,0-1.5-.113-3-.156-4.505-.092-3.224.554-6.43.482-9.631-.025-1.11-.309-2.2-.391-3.313-.2-2.75-.477-5.446-.9-8.164-.055-.156-.11-.307-.148-.447A3.9,3.9,0,0,1,264.37,339.656Z" transform="translate(-215.563 -337.082)" fill="#ffdcc0"/>
  <path id="Path_150" data-name="Path 150" d="M269.488,375.958c.241-3.047-.65-6.167.324-9.152,1.251-3.845.523-5.8-.364-9.678-.575-2.517-1.164-8.689-1.426-10.641a16.406,16.406,0,0,0-.262,5.472c.1,2.063.359,4.129.574,6.181a31.8,31.8,0,0,1,.322,6.121c-.178,2.018-.535,4.019-.692,6.041a6.52,6.52,0,0,0,.152,2.4c.1.337.221.668.307,1.01l.024.1A1.513,1.513,0,0,0,269.488,375.958Z" transform="translate(-214.505 -334.163)" fill="#f4c7a8"/>
  <g id="Group_18" data-name="Group 18" transform="translate(76.169 38.434)">
    <path id="Path_151" data-name="Path 151" d="M288.8,383.4c-.021.041-.041.084-.062.124C288.734,383.56,288.763,383.509,288.8,383.4Z" transform="translate(-284.132 -361.142)" fill="#222960"/>
    <path id="Path_152" data-name="Path 152" d="M292.616,367.311a2.971,2.971,0,0,1,.442.666c.029.062.058.124.084.186a5.667,5.667,0,0,1,.335,1.017,7.636,7.636,0,0,1,.153.9,13.451,13.451,0,0,1,.043,2.166c-.009.191-.021.383-.034.571-.008.111-.016.224-.025.335-.047.563-.115,1.124-.2,1.686q-.067.444-.145.887c-.128.709-.278,1.417-.438,2.12-.063.28-.13.561-.2.84-.119.5-.242,1-.366,1.489-.016.058-.029.115-.043.173-.06.24-.126.477-.194.714-.17.6-.36,1.2-.535,1.8-.014.043-.026.086-.039.13q-.106.371-.2.746c-.107.439-.2.881-.294,1.323-.043.2-.085.408-.13.612-.02.09-.039.183-.06.276-.113.506-.245,1.034-.413,1.546a8.565,8.565,0,0,1-.446,1.118c-.008.02-.018.038-.027.056l.018-.055a2.628,2.628,0,0,0,.086-.384,2.749,2.749,0,0,1-.111.384h0a.981.981,0,0,0-.055.18l-.02.039a2.509,2.509,0,0,1-2.577,1.363,2.435,2.435,0,0,1-2-2.121,3.27,3.27,0,0,1,.283-1.481,1.868,1.868,0,0,1,.176-.355c.067-.18.128-.362.193-.535l.037-.1c.018-.071.038-.143.055-.215.117-.466.2-.94.3-1.411s.215-.936.342-1.4c.021-.079.043-.156.066-.233.312-1.1.67-2.187.916-3.306s.512-2.2.74-3.31a29.472,29.472,0,0,0,.562-3.842c0-.018,0-.035,0-.05,0-.123,0-.249,0-.371-.008-.267-.024-.532-.055-.8-.016-.132-.039-.265-.06-.4a5.372,5.372,0,0,0-.227-.574,2.434,2.434,0,0,1,1.389-3.106A2.308,2.308,0,0,1,292.616,367.311Z" transform="translate(-285.223 -366.413)" fill="#222960"/>
  </g>
  <path id="Path_153" data-name="Path 153" d="M273.2,375.005a2.339,2.339,0,0,0-2.846-1.616,9.908,9.908,0,0,1-1.779.455l-.045.009-.066.005c-.186.02-.373.041-.561.056-.35.031-.7.055-1.051.076-1.519.092-3.027.156-4.535.372a2.32,2.32,0,0,0-1.616,2.846,2.672,2.672,0,0,0,.159.384c-.02.038-.039.076-.056.114a2.9,2.9,0,0,0-.383,2.057v.018a2.671,2.671,0,0,0,2.505,2.727,46.1,46.1,0,0,1,4.685.059,17.184,17.184,0,0,0,1.668.426,1.816,1.816,0,0,1,.238-.141,7.648,7.648,0,0,0,.886-.486,2.5,2.5,0,0,1,.315-.228l0,0a7.1,7.1,0,0,0,.59-.569c.025-.026.121-.142.187-.22l.076-.1a6.9,6.9,0,0,0,.439-.731c.06-.114.1-.242.17-.351l-.054.088c-.071.18-.221.373,0,0l.009-.021a6.8,6.8,0,0,0,.215-.732c.008-.037.029-.156.046-.248l.007-.076a5.967,5.967,0,0,0,.008-.75c-.1-.3-.069-.337-.038-.246,0-.02-.005-.038-.009-.056-.028-.121-.058-.24-.093-.358-.01-.035-.051-.142-.083-.227A2.222,2.222,0,0,0,273.2,375.005Z" transform="translate(-216.766 -325.85)" fill="#f4c7a8"/>
  <g id="Group_19" data-name="Group 19" transform="translate(76.561 39.332)">
    <path id="Path_154" data-name="Path 154" d="M290.272,382.546a8.565,8.565,0,0,1-.446,1.118h-.009a.157.157,0,0,1-.025,0h0a11.739,11.739,0,0,1-1.348-.06,8.755,8.755,0,0,1-2.656-.4c-.548-.2-.164-1.027.381-.826a6.925,6.925,0,0,0,2.027.309c.561.031,1.57.27,2.028-.11A.291.291,0,0,1,290.272,382.546Z" transform="translate(-285.522 -362.365)" fill="#09093d"/>
    <path id="Path_155" data-name="Path 155" d="M290.715,380.678c-.043.2-.085.408-.13.612-.02.09-.039.183-.06.276-.445-.035-.891-.084-1.342-.106-.926-.042-1.853.031-2.779-.041-.583-.046-.43-.94.148-.895.885.068,1.772,0,2.659.035C289.716,380.578,290.215,380.641,290.715,380.678Z" transform="translate(-285.363 -362.931)" fill="#09093d"/>
    <path id="Path_156" data-name="Path 156" d="M291.167,379.137c-.014.043-.026.086-.039.13q-.106.371-.2.746c-1.413-.3-2.85-.474-4.277-.706a.422.422,0,0,1-.366-.453.537.537,0,0,1,.066-.233.415.415,0,0,1,.448-.21C288.259,378.648,289.725,378.82,291.167,379.137Z" transform="translate(-285.284 -363.589)" fill="#09093d"/>
    <path id="Path_157" data-name="Path 157" d="M291.781,376.977c-.016.058-.029.115-.043.173-.06.24-.126.477-.194.714-.632-.064-1.264-.093-1.9-.149a7.01,7.01,0,0,0-2.232-.031c-.562.143-.89-.706-.325-.848a7.036,7.036,0,0,1,2.332-.049C290.208,376.857,291,376.888,291.781,376.977Z" transform="translate(-285.127 -364.114)" fill="#09093d"/>
    <path id="Path_158" data-name="Path 158" d="M288.014,374.4c.938.276,1.909.33,2.855.556.349.083.818.317,1.25.415-.063.28-.13.561-.2.84-.317-.08-.63-.2-.932-.284-1.022-.3-2.1-.33-3.125-.632C287.312,375.134,287.456,374.237,288.014,374.4Z" transform="translate(-284.903 -364.837)" fill="#09093d"/>
    <path id="Path_159" data-name="Path 159" d="M292.547,372.883q-.067.444-.145.887c-.584-.014-1.173-.107-1.752-.106-.353,0-.7-.018-1.054-.018-.228,0-.71-.06-.888.1-.439.388-.963-.354-.528-.736.5-.438,1.485-.257,2.082-.246.411.007.819,0,1.232.031C291.83,372.818,292.193,372.878,292.547,372.883Z" transform="translate(-284.748 -365.355)" fill="#09093d"/>
    <path id="Path_160" data-name="Path 160" d="M292.77,370.951c-.009.191-.021.383-.034.571-.008.111-.016.224-.025.335-1.4-.2-2.815-.156-4.21-.371a.455.455,0,0,1,.148-.9C290.015,370.8,291.4,370.769,292.77,370.951Z" transform="translate(-284.711 -366.016)" fill="#09093d"/>
    <path id="Path_161" data-name="Path 161" d="M292.466,368.536a7.636,7.636,0,0,1,.153.9,32.039,32.039,0,0,1-3.771-.048.455.455,0,0,1,.149-.9A24.5,24.5,0,0,0,292.466,368.536Z" transform="translate(-284.604 -366.667)" fill="#09093d"/>
    <path id="Path_162" data-name="Path 162" d="M291.691,367.1a2.972,2.972,0,0,1,.442.666c.029.062.058.124.084.186a19.263,19.263,0,0,1-3.647.1c-.583-.034-.429-.928.149-.9A18.163,18.163,0,0,0,291.691,367.1Z" transform="translate(-284.69 -367.098)" fill="#09093d"/>
  </g>
  <g id="Group_21" data-name="Group 21" transform="translate(48.092 31.392)">
    <path id="Path_163" data-name="Path 163" d="M276.507,382.76h.024l.043.005c.031.005.064.009.1.012C276.743,382.789,276.713,382.794,276.507,382.76Z" transform="translate(-259.852 -354.297)" fill="#8dc63f"/>
    <g id="Group_20" data-name="Group 20">
      <path id="Path_164" data-name="Path 164" d="M268.007,361.822h0a.306.306,0,0,0-.139-.052l.009.016A.46.46,0,0,1,268.007,361.822Z" transform="translate(-262.532 -360.812)" fill="#8dc63f"/>
      <path id="Path_165" data-name="Path 165" d="M295.352,369.056c-.065-.408-.124-.757-.185-1.086a19.314,19.314,0,0,1-4.877,1.732,35.161,35.161,0,0,1-7.874.6c-2.559-.046-5.158-.069-7.708-.358a12.853,12.853,0,0,0-.257-4.06,4.642,4.642,0,0,0-3.588-3.628c-.4-.08-.819-.126-1.229-.172-.119-.014-.24-.026-.359-.038l.009.008-.013-.008-.111-.012-.014-.025c-.054-.011-.114-.018-.162-.025a.669.669,0,0,1,.153.009,2.37,2.37,0,0,0-3.074-.651,2.262,2.262,0,0,0-1.048,2.453,2.666,2.666,0,0,0-.746,1.122,8.548,8.548,0,0,0,.536,6.857c.037.132.072.265.109.4a38.835,38.835,0,0,1,1.761,6.959,19.07,19.07,0,0,1-.561,5.691c-.142.639-.288,1.278-.415,1.92q.334,1.673.666,3.339c.426,2.129-.246,6.695-.208,9.138a.688.688,0,0,0,.717.62,11.457,11.457,0,0,0,3.818-.21,12.559,12.559,0,0,0,1.975-.486c3.487-1.192,2.706-5.621,2.47-8.494a1.462,1.462,0,0,1,.33-.276,7.984,7.984,0,0,1,1.675-.769,14.649,14.649,0,0,1,2.17-.14q.537,0,1.071.029l.071.005h-.005l.029,0,.043.005a.65.65,0,0,1,.1.012c.149.012.3.017.448.03,1.317.127,2.633.311,3.939.512a20.286,20.286,0,0,1,2.365.5c.159.046.316.093.473.141l.1.029.025.01c.338.149.687.27,1.022.427.359.168.711.352,1.056.55.164.094.326.193.487.292l.134.084a24.2,24.2,0,0,0,1.438-2.2q.684-1.16,1.255-2.382c.143-.307.282-.617.414-.929a20.1,20.1,0,0,0,1.089-3.137,29.674,29.674,0,0,0,.748-3.6q.13-.916.21-1.837l.02-.265c.007-.1.017-.266.017-.266.014-.283.026-.566.035-.848A40.441,40.441,0,0,0,295.352,369.056Z" transform="translate(-263.797 -361.039)" fill="#8dc63f"/>
    </g>
  </g>
  <path id="Path_166" data-name="Path 166" d="M290.819,381.7q-.572,1.221-1.255,2.382a24.2,24.2,0,0,1-1.437,2.2l-.134-.084c-.161-.1-.324-.2-.487-.292-.345-.2-.7-.383-1.056-.55-.335-.157-.684-.278-1.022-.427l-.025-.01-.1-.029c-.157-.048-.314-.1-.473-.142a20.287,20.287,0,0,0-2.365-.5c-1.306-.2-2.622-.385-3.939-.512-.147-.013-.3-.018-.448-.03.073.011.043.016-.163-.018l-.071-.005q-.535-.028-1.071-.029a14.653,14.653,0,0,0-2.17.14,7.987,7.987,0,0,0-1.675.769,1.464,1.464,0,0,0-.33.276s-1.241-3.491-.276-4.29,15.217-1.711,18.447,1.1Z" transform="translate(-213.171 -323.839)" fill="#7fb22f"/>
  <path id="Path_167" data-name="Path 167" d="M307.608,371.5c-1.373,4.977-9.384,3.716-9.17,9.617-.121-1.5-.636-6.129-2.368-5.666s5.615-1.866,11.35-5.185A2.1,2.1,0,0,1,307.608,371.5Z" transform="translate(-205.767 -326.782)" fill="#233382"/>
  <g id="Group_25" data-name="Group 25" transform="translate(0 15.042)">
    <path id="Path_168" data-name="Path 168" d="M238.7,385.919a21.864,21.864,0,0,0,2.828,3.171c.1.088.2.178.3.271.978.891,2.154,1.942,3.453,2.946,2.84,2.191,7.109,4.253,10.989,3.424,3.564-.761,6.807-3.049,9.77-5.177,3.913-2.809,7.786-6.456,9.613-10.94.1-.246.194-.5.283-.743a20.293,20.293,0,0,0,1.2-6.106c0-.055.005-.109.008-.164a19.38,19.38,0,0,0-1.714-8.735,17.236,17.236,0,0,0-.882-1.672c-1.284-2.145-3.948-3.577-6.634-4.34a17.6,17.6,0,0,0-3.26-.613,25.455,25.455,0,0,0-11.531,1.994q-.658.267-1.3.561a34.541,34.541,0,0,0-3.956,2.116,1.578,1.578,0,0,0-1.346.352c-2.053,1.815-4.518,3.1-6.423,5.084-1.735,1.812-2.994,3.951-4.556,5.893a1.461,1.461,0,0,0-.287.621,1.843,1.843,0,0,0-.639,1.061,6.74,6.74,0,0,0,0,2.464l.028.147a11.2,11.2,0,0,0,.317,1.246,17.931,17.931,0,0,0,.655,1.709q.476,1.083,1.026,2.127c.017.034.035.068.055.1.109.206.22.409.335.612q.57,1,1.22,1.954C238.391,385.5,238.543,385.709,238.7,385.919Z" transform="translate(-224.799 -345.89)" fill="#ffdcc0"/>
    <g id="Group_22" data-name="Group 22" transform="translate(9.837 16.633)">
      <path id="Path_169" data-name="Path 169" d="M258.611,367.853a.767.767,0,0,1,.081.041c.035.038-.067.039-.334-.114l.038.009C258.471,367.814,258.561,367.834,258.611,367.853Z" transform="translate(-227.229 -359.229)" fill="#f4c7a8"/>
      <path id="Path_170" data-name="Path 170" d="M241.868,370.87l.055-.022a.416.416,0,0,1-.288.157l.064-.046C241.77,370.924,241.843,370.881,241.868,370.87Z" transform="translate(-232.419 -358.277)" fill="#f4c7a8"/>
      <path id="Path_171" data-name="Path 171" d="M236.655,381.448a10.7,10.7,0,0,0,5.286-3.911,22.872,22.872,0,0,0,1.655-3.3l.007-.014.014-.016c.025-.033.109-.128.168-.2l.033-.024-.018,0,.012-.014.069-.033.084-.06c.106-.073.148-.079.14-.052.2-.084.394-.157.595-.227.962-.33,1.96-.54,2.905-.917a9.9,9.9,0,0,0,3.282-2.179,12.333,12.333,0,0,0,2.266-2.927c.051-.092.1-.182.143-.274a15.09,15.09,0,0,0,1.7.194,14.3,14.3,0,0,0,3.3-.217,10.82,10.82,0,0,0,5.536,2.2c.482.075.966.143,1.447.235.153.03.3.064.456.1l-.05-.027a.566.566,0,0,0,.088.037l.1.021a.421.421,0,0,1,.2.084c.089.048.21.121.295.156.152.117.305.228.449.356.043.038.085.079.128.118a4.113,4.113,0,0,0,.546.588,18,18,0,0,0,2.589,2.659,15.081,15.081,0,0,0,1.933,1.2c.3.013.6.026.9.037s.6.021.895.028h.16c.159,0,.316,0,.473,0a20.751,20.751,0,0,0,2.229-.127,20.418,20.418,0,0,0,.434-3.436,19.7,19.7,0,0,0-1.825-1.088c-.269-.147-.539-.29-.807-.436-.107-.058-.214-.118-.322-.177a9.891,9.891,0,0,1-1.241-.951c-.083-.09-.166-.181-.246-.271-.185-.207-.364-.418-.545-.626a12.551,12.551,0,0,0-3.381-2.959,10.476,10.476,0,0,0-3.383-.947c-.511-.081-1.023-.152-1.532-.246q-.32-.059-.638-.131c-.077-.022-.189-.055-.225-.068-.214-.075-.415-.172-.621-.262a1.6,1.6,0,0,1-.156-.1c-.052-.039-.1-.083-.155-.125-.109-.19-.37-.44-.472-.6a2.869,2.869,0,0,0-3.259-.949c-.19.058-.38.109-.571.162a.067.067,0,0,1-.017,0c-.331.059-.662.123-1,.161-.308.035-.616.045-.924.06l-.254-.014a34.874,34.874,0,0,1-3.846-.642,2.7,2.7,0,0,0-2.349.781,2.884,2.884,0,0,0-.848,2.246c0-.751-.088-.027-.1.245-.024.062-.047.123-.073.185-.054.124-.114.246-.174.367-.047.075-.111.18-.138.216-.067.1-.136.19-.207.284q-.212.279-.447.542c-.1.107-.194.211-.291.316-.054.048-.11.1-.136.124-.081.072-.162.144-.246.212a7.447,7.447,0,0,1-.626.445l-.021.008c-.117.047-.231.1-.347.152-.2.084-.411.159-.618.229-.442.151-.891.276-1.338.4a11.7,11.7,0,0,0-3.016,1.278,6.867,6.867,0,0,0-2.429,3.054c-.22.473-.4.962-.625,1.435-.052.111-.11.221-.161.333-.025.058-.038.093-.046.117-.11.135-.25.271-.313.346s-.123.173-.2.261a.782.782,0,0,0-.086.059c-.224.173-.439.358-.672.522-.207.144-.426.267-.637.406h0c-.063.033-.125.066-.189.1a6.729,6.729,0,0,1-.742.305,11.2,11.2,0,0,0,.317,1.246,17.931,17.931,0,0,0,.655,1.709q.476,1.083,1.026,2.127C236.617,381.381,236.636,381.415,236.655,381.448Z" transform="translate(-234.602 -361.254)" fill="#f4c7a8"/>
    </g>
    <path id="Path_172" data-name="Path 172" d="M233.781,385.3a7.834,7.834,0,0,0,4.771-2.626,4.452,4.452,0,0,0,.693-1.124,9.61,9.61,0,0,0,2.7-2.229,8.5,8.5,0,0,0,1.769-3.344,7.667,7.667,0,0,0,.831-.079,8.827,8.827,0,0,0,4.851-2.541,7,7,0,0,0,2.187-4.173c.027-.244.045-.485.05-.725a3.743,3.743,0,0,0,1.2-.865,5.208,5.208,0,0,0,.375.364,6.1,6.1,0,0,0,4.1,1.233,9.711,9.711,0,0,0,3.513-.706,9.017,9.017,0,0,0,2.46,2.253,7.806,7.806,0,0,0,1.168.591c.177.073.355.139.539.2a6.9,6.9,0,0,0,2.4.354,7.292,7.292,0,0,0,1.865.628,5.3,5.3,0,0,0,2.554-.152,9.682,9.682,0,0,0,1.749.612,3.255,3.255,0,0,0,.021.464,3.765,3.765,0,0,0,1.364,2.446,2.677,2.677,0,0,0,1.91,1.233,6.237,6.237,0,0,0,3.649-.6,4.975,4.975,0,0,0,1.413-1.122,5.2,5.2,0,0,0,1.22-3.33,6.374,6.374,0,0,0,1.172-2.386,6.915,6.915,0,0,0-.829-4.971c.008-.035.017-.068.024-.1a7.87,7.87,0,0,0-1.122-5.31,6.873,6.873,0,0,0-2.885-2.752,7.549,7.549,0,0,0-1.477-3.134A6.834,6.834,0,0,0,273.456,351a5.009,5.009,0,0,0-1.985-1.745,5.494,5.494,0,0,0-4.758.324c-.261.134-.519.276-.77.431a5.969,5.969,0,0,0-2.186-.1,6.209,6.209,0,0,0-1.036-.563,12.22,12.22,0,0,0-5.817-.7,7.55,7.55,0,0,0-5.362,2.546,5.472,5.472,0,0,0-1.283,3.843q-.476-.12-.974-.2c-3-.5-7.217-.1-9.035,2.714a6.451,6.451,0,0,0-1.042,3.132,6.78,6.78,0,0,0-.861.238,4.542,4.542,0,0,0-3.083,3.644,4.032,4.032,0,0,0-2.271,3.911,6.235,6.235,0,0,0-4.079,4.065,5.33,5.33,0,0,0,.279,3.731c-.1.16-.2.324-.29.494a4.848,4.848,0,0,0-.434,3.579,3.82,3.82,0,0,0-.092.518,3.634,3.634,0,0,0,.187,1.589A4.986,4.986,0,0,0,233.781,385.3Z" transform="translate(-226.72 -348.561)" fill="#603913"/>
    <g id="Group_24" data-name="Group 24" transform="translate(1.638 12.864)">
      <g id="Group_23" data-name="Group 23">
        <path id="Path_173" data-name="Path 173" d="M228.552,379.388a3.634,3.634,0,0,1-.187-1.589l.072.048c.1.046.193.115.282.161a11.363,11.363,0,0,0,1.122.512c.182.072.364.139.55.2.064.022.128.042.191.062.387.088.769.177,1.162.232.193.026.385.048.579.064l.186.01c.338-.022.674-.041,1.008-.092a.348.348,0,0,0,.17-.029h.009a1.4,1.4,0,0,1,.242-.049l-.134.008c.156-.054.312-.1.465-.172.03-.013.084-.043.138-.071.111-.08.223-.16.335-.235l.029-.024c-.025-.24-.042-.482-.071-.719a6.683,6.683,0,0,1,2.342-6.24,5.773,5.773,0,0,1,3.087-1.17,8.684,8.684,0,0,1,5.542-4.759,8.673,8.673,0,0,1,.565-1.749A7.119,7.119,0,0,1,248.8,360.6a5.012,5.012,0,0,1,2.14-.721,5.425,5.425,0,0,1,1.656-1.1,4.785,4.785,0,0,1,5.552,1.251,4.713,4.713,0,0,1,.426.512c.062.041.14.079.21.123.022.01.043.022.066.031.085.039.17.072.257.106h-.03l.034,0,.106.041c.372.149.13.008-.055-.034.117.021.276.067.338.076s.242.008.291.01q.181-.014.362-.039h.007c-.031.013-.064.029-.1.047.039-.018.08-.035.123-.051a.768.768,0,0,0,.231-.073c.138-.039.278-.076.406-.127.155-.062.305-.127.455-.2.042-.018.1-.05.159-.08-.046.026-.1.058-.173.1a2.892,2.892,0,0,1,2.381-.4,2.782,2.782,0,0,1,1.854,1.664c.031.075.064.148.1.221.1.138.181.315.279.446.071.094.17.186.244.283l.059.052a6.391,6.391,0,0,0,.57.411c.039.03.086.066.135.1s.077.056.115.088l-.072-.059c.026.016.051.031.075.043.128.067.258.132.388.2a24.42,24.42,0,0,1,4.248,2.228c1.5,1.126,2.241,2.732,3.379,4.151l.03.022c.231.18.448.371.687.541.206.148.418.291.632.429.039.025.128.085.219.145l-.014-.01c.874.6,1.891,1.026,2.8,1.559a3.912,3.912,0,0,1,1.118.882,6.237,6.237,0,0,1-3.649.6,2.677,2.677,0,0,1-1.91-1.233,3.765,3.765,0,0,1-1.364-2.446,3.255,3.255,0,0,1-.021-.464,9.682,9.682,0,0,1-1.749-.612,5.3,5.3,0,0,1-2.554.152c-.2-.037-.388-.084-.579-.136l-.026-.013-.262-.073a7.325,7.325,0,0,1-1-.4,6.9,6.9,0,0,1-2.4-.354c-.183-.059-.362-.125-.539-.2a11.671,11.671,0,0,1-1.14-.73v.014c-.009.042-.017.083-.026.125a9.017,9.017,0,0,1-2.46-2.253,9.712,9.712,0,0,1-3.513.706,6.1,6.1,0,0,1-4.1-1.233,5.208,5.208,0,0,1-.375-.364,3.743,3.743,0,0,1-1.2.865c-.005.24-.022.481-.05.725a7,7,0,0,1-2.187,4.173,8.827,8.827,0,0,1-4.851,2.541,7.659,7.659,0,0,1-.831.079,8.5,8.5,0,0,1-1.769,3.344,9.61,9.61,0,0,1-2.7,2.229,4.452,4.452,0,0,1-.693,1.124,7.834,7.834,0,0,1-4.771,2.626A4.986,4.986,0,0,1,228.552,379.388Z" transform="translate(-228.345 -358.378)" fill="#4f290a"/>
      </g>
      <path id="Path_174" data-name="Path 174" d="M253.63,359.893c.2-.114.122-.067,0,0Z" transform="translate(-220.498 -357.929)" fill="#4f290a"/>
      <path id="Path_175" data-name="Path 175" d="M257.668,362.042c-.14-.107-.185-.164.178.126l-.043-.029C257.758,362.106,257.714,362.073,257.668,362.042Z" transform="translate(-219.276 -357.268)" fill="#4f290a"/>
      <path id="Path_176" data-name="Path 176" d="M232.406,374.115c-.037.007-.075.012-.113.017-.041-.01.02-.048.29-.071l-.11.039A.459.459,0,0,1,232.406,374.115Z" transform="translate(-227.123 -353.511)" fill="#4f290a"/>
      <path id="Path_177" data-name="Path 177" d="M252.62,360.292c.245-.111.3-.109.252-.077-.077.022-.155.046-.229.073Z" transform="translate(-220.811 -357.814)" fill="#4f290a"/>
      <path id="Path_178" data-name="Path 178" d="M251.821,360.229h0a.463.463,0,0,1,.055.008Z" transform="translate(-221.06 -357.804)" fill="#4f290a"/>
    </g>
    <path id="Path_179" data-name="Path 179" d="M264.454,363.982c-2.419-.575-3.69,1.791-4.8,3.453a2.392,2.392,0,0,0-.2.362,11.164,11.164,0,0,1,2.247,3.267,17.8,17.8,0,0,1,.788,1.918,9.062,9.062,0,0,0,2.529-1.857,5.986,5.986,0,0,0,1.972-3.385A3.519,3.519,0,0,0,264.454,363.982Z" transform="translate(-217.053 -343.802)" fill="#f4c7a8"/>
    <path id="Path_180" data-name="Path 180" d="M261.189,368.232s2.846-2.927,3.01-1.854-1.778,3.873-2.285,3.461A3.382,3.382,0,0,1,261.189,368.232Z" transform="translate(-216.514 -343.105)" fill="#e5a980"/>
    <path id="Path_181" data-name="Path 181" d="M256.984,372.334c.922,1.029.4,3-1.174,4.411s-3.592,1.715-4.514.687-.4-3,1.175-4.411S256.061,371.305,256.984,372.334Z" transform="translate(-219.725 -341.372)" fill="#ffb0b0"/>
    <path id="Path_182" data-name="Path 182" d="M244.123,382.844a2.72,2.72,0,0,1-.625,1.945c-1.283-1.019-2.448-2.08-3.417-2.977C242.191,381.185,243.911,381.579,244.123,382.844Z" transform="translate(-223.065 -338.332)" fill="#ffb0b0"/>
    <path id="Path_183" data-name="Path 183" d="M239.509,377.916a4.19,4.19,0,0,0-1.7,1.8c-.156-.208-.308-.421-.457-.633.09-.143.186-.279.283-.411a4.644,4.644,0,0,1,1.612-1.444C239.671,377.012,239.933,377.707,239.509,377.916Z" transform="translate(-223.913 -339.677)" fill="#603913"/>
    <path id="Path_184" data-name="Path 184" d="M243.913,377.8s-1.127,4.358,1.589,3.178Z" transform="translate(-221.947 -339.487)" fill="#f4c7a8"/>
    <path id="Path_185" data-name="Path 185" d="M247.11,372.1a4.878,4.878,0,0,1,1.951-1.173,4.054,4.054,0,0,1,2.208-.261c.485.117.381.89-.106.773a4.171,4.171,0,0,0-3.441,1.141C247.38,372.941,246.764,372.462,247.11,372.1Z" transform="translate(-220.915 -341.721)" fill="#603913"/>
    <path id="Path_186" data-name="Path 186" d="M244.416,386.132a.543.543,0,0,1-.32-.48c0-.138.071-.269.278-.183a2.764,2.764,0,0,0,2.285-.271,12.558,12.558,0,0,0,1.988-1.189,23.358,23.358,0,0,0,4.872-5.061.186.186,0,0,1,.039-.039c.117-.086.3-.005.43.131.113.118.2.291.094.421a23.332,23.332,0,0,1-5.173,5.314,12.311,12.311,0,0,1-2.085,1.182A3.019,3.019,0,0,1,244.416,386.132Z" transform="translate(-221.819 -339.153)" fill="#603913"/>
    <path id="Path_187" data-name="Path 187" d="M248.17,374.722a2.613,2.613,0,0,1,.582-1.536,2.058,2.058,0,0,1,1.753-.578c.465.051,1.6.5,1.5,1.141-.038.248-.317.432-.52.227a1.526,1.526,0,0,0-2.034-.263c-.857.683-.253,1.352-.185,2.161.043.516-.474.225-.677.028A1.53,1.53,0,0,1,248.17,374.722Z" transform="translate(-220.554 -341.102)" fill="#231f20"/>
    <path id="Path_188" data-name="Path 188" d="M239.774,381.817l-.046-.1c-.448-.908-.514-2.068.363-2.505a2.231,2.231,0,0,1,1.478-.118,1.7,1.7,0,0,1,1.027.689c.155.236.358.78-.11.6-.731-.275-1.27-1-2-.4a1.42,1.42,0,0,0-.01,1.905.257.257,0,0,1-.227.418C240.023,382.31,239.878,382.032,239.774,381.817Z" transform="translate(-223.274 -339.106)" fill="#231f20"/>
    <path id="Path_189" data-name="Path 189" d="M240.993,352.311a8.666,8.666,0,0,1,4.7-.292c1.123.177,2.989.449,3.458,1.681a.426.426,0,0,1-.8.307c-.173-.453-.794-.647-1.213-.788a10.144,10.144,0,0,0-1.724-.381,7.859,7.859,0,0,0-3.964.207c-2.255.862-4.9,4.236-2.77,6.442.38.393-.309.9-.685.507C235.5,357.408,238.336,353.426,240.993,352.311Z" transform="translate(-224.01 -347.545)" fill="#603913"/>
    <path id="Path_190" data-name="Path 190" d="M270.352,363.89c2.368.963,3.237-2.521,2.931-4.2-.436-2.414-3.7-3.25-5.8-2.323a8.383,8.383,0,0,1-.913.583.426.426,0,0,1-.507-.684,3.937,3.937,0,0,1,.97-.646c1.1-.877,1.858-2.11,1.091-3.55a4.547,4.547,0,0,0-3.693-2.287,2.038,2.038,0,0,0-1.879.979c-.269.472-1.055.14-.784-.337,2.055-3.6,8.3-.077,7.453,3.552a3.431,3.431,0,0,1-.54,1.191,5.37,5.37,0,0,1,4.822,1.844,5.213,5.213,0,0,1-.446,5.949,2.574,2.574,0,0,1-3.039.716A.426.426,0,0,1,270.352,363.89Z" transform="translate(-216.352 -348.141)" fill="#603913"/>
    <path id="Path_191" data-name="Path 191" d="M227.277,367.358a3.966,3.966,0,0,1,2.821-3.079c1.419-.392,2.938-.292,4.3-.913.5-.228.8.569.307.8a13.626,13.626,0,0,1-3.585.768,3.257,3.257,0,0,0-2.9,2.225c-.419,1.251-.477,2.606.688,3.438a14.359,14.359,0,0,0,3.6,1.46c.519.183.18.966-.335.784a12.622,12.622,0,0,1-4-1.736A3.462,3.462,0,0,1,227.277,367.358Z" transform="translate(-227.095 -343.979)" fill="#603913"/>
  </g>
</svg>
