<svg id="Group_55" data-name="Group 55" xmlns="http://www.w3.org/2000/svg" width="93.639" height="107.268" viewBox="0 0 93.639 107.268">
  <path id="Path_448" data-name="Path 448" d="M252.071,321.857c.1-.14.2-.276.3-.415a13.74,13.74,0,0,0,1.085-1.611,10.551,10.551,0,0,0,.833-2.057,6.831,6.831,0,0,1,.61-1.724l.013-.022a4.5,4.5,0,0,1,.99-1.074,3.243,3.243,0,0,1,2.448.526,1.714,1.714,0,0,1,.305.232,23.039,23.039,0,0,1,7.966-1.673c.24,1.609.437,3.111.577,4.884.07.883.118,1.77.13,2.656q-1.194-.129-2.386-.272c-.408-.129-.817-.261-1.225-.383a13.9,13.9,0,0,0-4.954-.926c-1.236.111-1.557,1.182-2.107,2.169-.13.232-1.234,1.9-1.023,2.142a.98.98,0,0,1,.2.4.838.838,0,0,1-.643.995.789.789,0,0,1-.469-.043l0,.016a.837.837,0,0,1-1.052.547,1.5,1.5,0,0,1-.432-.269.767.767,0,0,1-1.365-.1c-.044-.1-.089-.21-.132-.319a4.822,4.822,0,0,0,.116-.867,14.386,14.386,0,0,0-.153-1.673A1.6,1.6,0,0,1,252.071,321.857Z" transform="translate(-245.753 -223.093)" fill="#f4c7a8"/>
  <path id="Path_449" data-name="Path 449" d="M260.67,323.981c-.029-.294-.067-.586-.108-.877.4-.03.8-.056,1.206-.073s5.705-.229,5.681.1c.1-1.339-1.4-3.46-1.894-4.693a59.816,59.816,0,0,1-2.443-8.609c-.1-.443-.215-.886-.345-1.325a3.4,3.4,0,0,0-.359-1.047c-1.1-2.693-1.962-5-1.014-8q.114-.358.253-.7a17.94,17.94,0,0,0,1.808,1.973,33.655,33.655,0,0,0,4.666,3.668c1.579,1.045,3.166,2.089,4.728,3.158.405.276.8.564,1.2.853l.145.108c.083.065.164.13.245.2.154.125.307.253.456.383.305.268.6.547.879.842a3.679,3.679,0,0,1-.413.2,27.648,27.648,0,0,1-.038,8.031c-.2,2-.718,3.93-.842,5.942-.052.85.035,1.717-.054,2.55a3.825,3.825,0,0,1-.475,1.549c-1.333,2.3-4.615,2.863-7.038,2.745-2.234-.106-4.479-.35-6.719-.616A17.346,17.346,0,0,0,260.67,323.981Z" transform="translate(-240.748 -232.094)" fill="#e5461c"/>
  <path id="Path_450" data-name="Path 450" d="M248.355,323.943c.1-.148.207-.292.313-.439a14.567,14.567,0,0,0,1.147-1.7,11.191,11.191,0,0,0,.88-2.177,7.266,7.266,0,0,1,.645-1.821l.014-.024a4.714,4.714,0,0,1,1.044-1.136,3.437,3.437,0,0,1,2.59.556,1.828,1.828,0,0,1,.321.246,24.446,24.446,0,0,1,8.587-1.776l.85-.032a36.754,36.754,0,0,1,.58,4.405,28.5,28.5,0,0,1,.051,3.211c-.006.141-.016.31-.029.483-1.131-.113-2.262-.243-3.394-.378-.432-.137-.863-.275-1.295-.4a14.683,14.683,0,0,0-5.236-.98c-1.306.118-1.644,1.25-2.226,2.293-.137.246-1.3,2.008-1.082,2.264a1.018,1.018,0,0,1,.213.421.882.882,0,0,1-.68,1.052.841.841,0,0,1-.5-.046l0,.018a.891.891,0,0,1-1.112.578,1.59,1.59,0,0,1-.456-.284.811.811,0,0,1-1.443-.111c-.048-.11-.1-.222-.141-.338a5.218,5.218,0,0,0,.124-.917,15.2,15.2,0,0,0-.162-1.767A1.711,1.711,0,0,1,248.355,323.943Z" transform="translate(-247.953 -222.151)" fill="#ffdcc0"/>
  <path id="Path_451" data-name="Path 451" d="M256.94,335.285c2.367.281,4.739.537,7.1.651,2.561.122,6.029-.475,7.438-2.9a4.015,4.015,0,0,0,.5-1.636c.1-.879,0-1.8.059-2.694.132-2.126.678-4.17.89-6.28a29.17,29.17,0,0,0,.04-8.489,3.733,3.733,0,0,0,1.741-1.447c1.13-1.806,1.33-3.929,1.767-5.958.391-1.819,1.354-3.392,1.412-5.3.16-5.167-6.592-6.179-10.441-5.661-4.158.559-7.928,2.933-9.238,7.075-1.045,3.3-.008,5.815,1.219,8.819-.049-.121-.1-.242-.149-.362a3.483,3.483,0,0,1,.381,1.11c.138.461.254.929.365,1.4a62.945,62.945,0,0,0,2.583,9.1c.523,1.3,2.1,3.544,2,4.96.025-.343-5.57-.119-6-.1s-.853.044-1.276.078c.044.305.084.615.114.926A18.341,18.341,0,0,1,256.94,335.285Z" transform="translate(-242.663 -234.041)" fill="#f15a29"/>
  <path id="Path_452" data-name="Path 452" d="M289.1,298.5a1.924,1.924,0,0,0,1.244,1.381,15.043,15.043,0,0,0,4.247.635,15.658,15.658,0,0,0,6.908-1.59,21.848,21.848,0,0,0,4.337-2.785,25.043,25.043,0,0,0,4.059-4.245,2.164,2.164,0,0,0-1.462-3.4c-.152-.021-.3-.048-.456-.081l.037.013c-.037-.01-.094-.027-.168-.049-.214-.07-.427-.145-.635-.232a5.221,5.221,0,0,1-1.109-.585,20.731,20.731,0,0,1-2.5-2,2.161,2.161,0,0,0-2.995.453,2.018,2.018,0,0,0-.4,1.385c-.073.2-.153.386-.243.577-.046.1-.1.191-.146.286-.021.037-.048.084-.083.137a14.118,14.118,0,0,1-1.085,1.478c-.078.094-.41.454-.408.461-.049.049-.1.1-.148.148-.157.157-.321.311-.485.461a17.606,17.606,0,0,1-1.566,1.261c-.273.2-.554.378-.837.564l-.062.041-.049.025c-.143.084-.289.165-.435.243q-.424.226-.858.426c-.326.046-.653.091-.982.124a1.866,1.866,0,0,0-.9.337,2.082,2.082,0,0,0-.326.278c-.04.006-.079.016-.121.024a8.4,8.4,0,0,1-.867.1c-.027,0-.138,0-.226.006l-.226-.013a2.183,2.183,0,0,0-2.388,1.864A2.231,2.231,0,0,0,289.1,298.5Z" transform="translate(-224.52 -240.106)" fill="#603913"/>
  <path id="Path_453" data-name="Path 453" d="M292.725,297.625a3.01,3.01,0,0,0,.45,1.136,15.658,15.658,0,0,0,6.908-1.59,21.85,21.85,0,0,0,4.337-2.785,55.881,55.881,0,0,0-7.226-5.4,4.269,4.269,0,0,0-.518-.246,2.973,2.973,0,0,0-2.049-.135,3.068,3.068,0,0,0-3.449.106,2.762,2.762,0,0,0-.672,3.511,4.072,4.072,0,0,0,.235.434q.234.372.481.732a2.609,2.609,0,0,0,.083,1.973A10.509,10.509,0,0,0,292.725,297.625Z" transform="translate(-223.1 -238.353)" fill="#4f290a"/>
  <path id="Path_454" data-name="Path 454" d="M288.174,298.3c.872-2.884,1.892-5.729,2.6-8.659a3.427,3.427,0,0,1,1.643-.9,3.5,3.5,0,0,1,2.536.033l.022,0a3.238,3.238,0,0,1,2.647,3.627c-.313,2.386-1.1,4.282-.759,6.681.361,2.524,2.545,10.919-1.077,10.756-.877-.038-4.15-3.652-4.763-4.32a3.79,3.79,0,0,1-.995-2.4,4.445,4.445,0,0,1,0-.6c-.091-.043-.181-.084-.27-.13-.054-.029-.256-.159-.34-.208-.143-.113-.281-.229-.415-.353-.029-.027-.059-.06-.089-.1a.666.666,0,0,0-.18-.194c-.133-.183-.342-.7-.51-.8-.081-.184-.153-.373-.219-.564-.059-.173-.1-.35-.16-.524l-.017-.059-.011-.067Q287.987,298.909,288.174,298.3Z" transform="translate(-224.487 -238.121)" fill="#f4c7a8"/>
  <path id="Path_455" data-name="Path 455" d="M293.149,297.205a3.267,3.267,0,0,1,2.177,1.174c2.828,3.616,3.263,8.819,4.687,13.067.539,1.6,1.188,3.157,1.768,4.744,1.136,3.1,1.857,6.323,2.69,9.512,1.276,4.88,7.653,2.551,10.567,5.1a.859.859,0,0,1,.3.564,3.142,3.142,0,0,1,.89.57.83.83,0,0,1,0,1.3,2.071,2.071,0,0,1-.259.141.881.881,0,0,1,.006.243c-.168,1.468-2.513,1.239-3.611,1.158A1.552,1.552,0,0,1,311.3,335.8a4.7,4.7,0,0,1-2.173-.063c-1.994-.392-5.322-1.444-6.248-3.333-.975-1.986-3.8-8.349-5.306-10.824-2.326-3.816-3.8-5.638-3.832-10.177-.025-3.525-2.084-6.531-2.914-9.861a11.451,11.451,0,0,1-.3-1.717A2.213,2.213,0,0,1,293.149,297.205Z" transform="translate(-222.898 -233.015)" fill="#f4c7a8"/>
  <path id="Path_456" data-name="Path 456" d="M290.71,299.929c.829,3.33,2.888,6.336,2.914,9.861.035,4.539,1.506,6.361,3.832,10.177,1.509,2.475,4.331,8.838,5.306,10.824a18.478,18.478,0,0,0-1.67-5.92c-.845-2.161-1.851-4.269-2.81-6.379a35.555,35.555,0,0,1-2.521-6.4c-.529-2.213-.863-4.471-1.412-6.679a7.354,7.354,0,0,0-1.015-2.5c-.226-.324-.473-.634-.686-.966l-.06-.1A1.7,1.7,0,0,0,290.71,299.929Z" transform="translate(-222.782 -231.405)" fill="#e5b595"/>
  <path id="Path_457" data-name="Path 457" d="M269.045,316.252c8.447,2.9,17.266,5.039,26.308,3.195a22.889,22.889,0,0,0,11.223-5.729,16.264,16.264,0,0,0,3.076-4.064c1.3-2.466,1.811-7.677.172-10.841a4.949,4.949,0,0,1-.9.046,6.957,6.957,0,0,1-4.423-1.832l-.806-1.044a24.687,24.687,0,0,0-4.693-2.14c-4.48-1.563-7.373,4.243-11.915,4.541-3.05.2-6.053-.7-8.976-1.592-4.823-1.47-7.858-3.292-9.223,2.547-.693,2.968-.257,6.08-.867,9.038-.242,1.174-.774,2.507-1.033,3.759-.037.178-.067.353-.091.527A2.911,2.911,0,0,0,269.045,316.252Z" transform="translate(-236.834 -235.14)" fill="#2b3990"/>
  <path id="Path_458" data-name="Path 458" d="M269.045,310.1c8.447,2.9,17.266,5.039,26.308,3.195a22.889,22.889,0,0,0,11.223-5.729c-.405-1.792-1.39-3.753-2.782-3.529-1.83.3-4.514,4.051-6.465,4.636a32.308,32.308,0,0,1-13.638.578c-5.613-.777-11.162-2.15-16.794-2.741A2.911,2.911,0,0,0,269.045,310.1Z" transform="translate(-236.834 -228.991)" fill="#233382"/>
  <path id="Path_459" data-name="Path 459" d="M285.988,307.8c-.915-1.9-.181-8.1,2.022-8.614a2.854,2.854,0,0,1,.783-.073,3.473,3.473,0,0,1,3.381,3.071,2.475,2.475,0,0,1,.141.234,3.534,3.534,0,0,1,.354,2.428,3.377,3.377,0,0,1-.923,2.949c-1.538,1.552-4,2.2-5.576.3A1.406,1.406,0,0,1,285.988,307.8Z" transform="translate(-225.788 -231.885)" fill="#f4c7a8"/>
  <path id="Path_460" data-name="Path 460" d="M286.463,301.607a12.436,12.436,0,0,0,.321,1.854c.894,3.6,3.119,6.841,3.147,10.649.037,4.9,1.625,6.868,4.135,10.988.051.084.1.172.157.264a91.1,91.1,0,0,1,4.2,8.5c.03.065.06.13.089.194a14.9,14.9,0,0,0,1.738,3.552c1.322,1.46,4.15,1.586,5.956,1.6a47.519,47.519,0,0,1,4.989.084c1,.113,2.578.259,2.742-1.187a1.008,1.008,0,0,0-.008-.261,2.562,2.562,0,0,0,.28-.154.9.9,0,0,0,0-1.4,3.37,3.37,0,0,0-.96-.613.928.928,0,0,0-.319-.61c-3.147-2.753-10.033-.238-11.412-5.51-.9-3.441-1.676-6.924-2.9-10.269-.628-1.713-1.33-3.392-1.911-5.122-1.536-4.588-2.007-10.206-5.06-14.111a3.527,3.527,0,0,0-2.351-1.268,2.348,2.348,0,0,0-2.81,1.962A3.514,3.514,0,0,0,286.463,301.607Z" transform="translate(-225.293 -232.088)" fill="#ffdcc0"/>
  <path id="Path_461" data-name="Path 461" d="M286.463,300.872a12.436,12.436,0,0,0,.321,1.854c.894,3.6,3.119,6.841,3.147,10.649.037,4.9,1.625,6.868,4.135,10.988.051.084.1.172.157.264,1.153,1.965,2.9,5.7,4.2,8.5.03.065.06.13.089.194.537,1.153.99,2.13,1.287,2.733a19.908,19.908,0,0,0-1.8-6.391c-.912-2.334-2-4.61-3.034-6.889a38.324,38.324,0,0,1-2.723-6.913c-.572-2.389-.931-4.828-1.525-7.213a80.1,80.1,0,0,0-4.232-8.638A3.514,3.514,0,0,0,286.463,300.872Z" transform="translate(-225.293 -231.354)" fill="#f4c7a8"/>
  <path id="Path_462" data-name="Path 462" d="M250.208,320.962a7.961,7.961,0,0,1-1.369,1.395c-.145.116-.291.229-.435.345a14.564,14.564,0,0,0,1.147-1.7,11.192,11.192,0,0,0,.88-2.177,7.265,7.265,0,0,1,.645-1.821,2.12,2.12,0,0,1,.04.551A5.88,5.88,0,0,1,250.208,320.962Z" transform="translate(-247.689 -221.348)" fill="#f4c7a8"/>
  <g id="Group_54" data-name="Group 54" transform="translate(32.48 0)">
    <path id="Path_463" data-name="Path 463" d="M269.24,292.411a25.63,25.63,0,0,1-.608-10.049,21.83,21.83,0,0,1,11.015-16.292c3.613-1.978,7.624-3.058,11.429-4.6a3.645,3.645,0,0,0-2.661-2.612c-.651-.119-.531-1.147.125-1.026a4.783,4.783,0,0,1,3.3,2.65,4.3,4.3,0,0,0-.828-2.836c-.38-.543.426-1.192.807-.647a5.669,5.669,0,0,1,1.064,3.243c-.076.154-.148.31-.211.469a7.042,7.042,0,0,0-.405,1.606.517.517,0,0,1-.359-.065.459.459,0,0,1-.165.065c-3.236,1.333-6.612,2.313-9.8,3.764a20.726,20.726,0,0,0-8.546,6.884,23.206,23.206,0,0,0-3.538,17.5c.8,4.687,3.651,8.554,6.439,12.267.4.531-.407,1.179-.805.645C272.955,300,270.391,296.532,269.24,292.411Z" transform="translate(-268.397 -256.794)" fill="#603913"/>
    <path id="Path_464" data-name="Path 464" d="M278.32,298.67a22.139,22.139,0,0,0,1.35,1.84A23.989,23.989,0,0,0,288,307.018a23.245,23.245,0,0,0,4.595,1.616,21.685,21.685,0,0,0,2.471.443c.3.038.6.07.9.092.16.013.324.025.486.032,5.317.281,10.648-1.873,15.172-4.483,3.53-2.038,7.353-4.291,9.726-7.7,2.586-3.714,2.334-9.4,1.312-13.611-.467-1.93-1.041-3.751-1.535-5.275-.051-.159-.1-.315-.151-.465a28.644,28.644,0,0,0-2.046-4.728c-.149-.275-.3-.551-.464-.824a34.868,34.868,0,0,0-2.061-3.154q-.474-.648-.975-1.28-.386-.484-.783-.956a19.886,19.886,0,0,0-2.026-2.11c-.246-.218-.5-.426-.761-.621a7.985,7.985,0,0,0-2.564-1.32,1.931,1.931,0,0,0-1.389.119,1.535,1.535,0,0,0-.774-.025c-.9.211-1.813.375-2.721.532-1.495.257-2.992.5-4.458.9q-.491.133-.977.3c-2.917.979-5.346,2.934-8.147,4.166a1.714,1.714,0,0,0-.964,1.254,35.739,35.739,0,0,0-3.961,3.108q-.591.536-1.16,1.1a28.163,28.163,0,0,0-7.2,11.294,21.254,21.254,0,0,0-.81,3.821C276.346,292.524,276.655,296.146,278.32,298.67Z" transform="translate(-263.575 -253.381)" fill="#ffdcc0"/>
    <path id="Path_465" data-name="Path 465" d="M289.955,309.012a21.685,21.685,0,0,0,2.471.443c.3.038.6.07.9.092.16.013.324.025.486.032a2.018,2.018,0,0,0-.019-2.545,29.045,29.045,0,0,1-7.032-10.271c-.275-.7-.51-1.419-.728-2.14l-.008-.027c-.051-.187-.1-.373-.146-.561-.092-.38-.176-.763-.253-1.145-.153-.774-.268-1.555-.345-2.339q-.05-.541-.075-1.08c-.006-.116-.008-.23-.011-.346,0-.013,0-.367,0-.391a17.3,17.3,0,0,1,.2-2.307c.054-.345.122-.688.2-1.028.016-.068.044-.175.056-.216.046-.149.089-.3.138-.448a12.3,12.3,0,0,1,.475-1.217c.041-.087.305-.586.308-.61l0,0,0-.006a10.7,10.7,0,0,1,1.13-1.562c2.572-2.779,6.476-3.606,9.219-6.382a15.86,15.86,0,0,0,3.931-6.822c3.619,2.232,8.53,2.551,11.944-.084q-.386-.484-.783-.956a19.886,19.886,0,0,0-2.026-2.11l-.151.1-.049.024a8.6,8.6,0,0,1-.818.369c-.113.043-.229.081-.343.118a.685.685,0,0,1-.076.017,9.174,9.174,0,0,1-1.516.192l-.137-.008c-.135-.009-.27-.014-.4-.025-.27-.024-.54-.059-.805-.106-.168-.03-.335-.064-.5-.1l-.013,0-.068-.022c-.261-.081-.52-.167-.774-.265s-.505-.207-.75-.327c-.021-.01-.154-.078-.221-.11l-.21-.126a9.09,9.09,0,0,1-1.338-1.006c-.011-.011-.024-.022-.037-.037l-.038-.038c-.089-.1-.181-.2-.267-.3-.173-.2-.332-.41-.486-.624a2.089,2.089,0,0,0-2.431-.607,2.154,2.154,0,0,0-1.23,2.181c0,.086,0,.183-.006.288a11.407,11.407,0,0,1-.416,2.4c-.145.461-.313.917-.5,1.362-.168.394-.478,1.034-.6,1.261a11.077,11.077,0,0,1-4.145,4.223c-.283.175-.769.446-1.214.7-.427.238-.856.473-1.282.72a27.463,27.463,0,0,0-2.539,1.6,13,13,0,0,0-3.775,4.323,17.114,17.114,0,0,0-1.7,9.369C281.614,297.508,285.111,304.063,289.955,309.012Z" transform="translate(-260.931 -253.76)" fill="#f4c7a8"/>
    <path id="Path_466" data-name="Path 466" d="M280.225,315c-2.79-6.053-7.755-11.267-9.823-17.6a28.392,28.392,0,0,1,.16-17.775c2.88-8.352,10.177-14.343,18.007-17.906,6.234-2.837,18.814-7.608,23.194.438.222.41.478.8.729,1.195-.742-.121-1.49-.237-2.24-.381a.924.924,0,0,0-.6.068,3.278,3.278,0,0,0-3.27.709,1.562,1.562,0,0,0-.286,1.611c.135.365.415.682.57,1.041l-.386-.073a9.646,9.646,0,0,1-2.893,6.4c-4.547,4.814-11.286,6.188-13.854,12.88-1.9,4.966-.894,11.089,1.7,15.641a20.224,20.224,0,0,0,7.588,7.076c1.622.945,7.54,2.381,8.006,4.312.272,1.134-.867,2.262-1.57,2.982q-.434.446-.887.844a16.387,16.387,0,0,1-12.926,3.7C288.071,319.764,281.769,318.355,280.225,315Z" transform="translate(-268.011 -256.257)" fill="#603913"/>
    <path id="Path_467" data-name="Path 467" d="M279.653,294.384a25.591,25.591,0,0,1,1.492-8.558,16.064,16.064,0,0,1,2.091-3.886,12.344,12.344,0,0,1,3.471-2.971c4.224-2.574,9.246-4.412,12.06-8.757a7.533,7.533,0,0,0,.478-7.438.517.517,0,0,1,.948-.408,8.517,8.517,0,0,1,.327,6.685,13.322,13.322,0,0,1-4.135,5.236,35.626,35.626,0,0,1-6.331,4.023,27.655,27.655,0,0,0-4.164,2.456,10.868,10.868,0,0,0-3.1,3.9,23.159,23.159,0,0,0-2.113,9.847C280.659,295.175,279.632,295.045,279.653,294.384Z" transform="translate(-261.771 -253.691)" fill="#4f290a"/>
    <path id="Path_468" data-name="Path 468" d="M279.244,283.084a18.445,18.445,0,0,1,4.969-8.115c2.6-2.6,5.837-4.091,8.539-6.573a13.811,13.811,0,0,0,3.268-4.337c.777-1.69.793-3.943,3.341-3.638a30.9,30.9,0,0,1,9.21,2.544c.178.17.354.345.529.519.227.024.454.051.678.083a5.37,5.37,0,0,0,2.868-.114c.715-.3,1.729.3,1.538,1.152-.589,2.631-4.027,3.046-6.272,2.926a11.337,11.337,0,0,1-6.635-2.687l-.531-.1a9.646,9.646,0,0,1-2.893,6.4c-4.547,4.814-11.286,6.188-13.854,12.88-1.9,4.966-.894,11.089,1.7,15.641a20.224,20.224,0,0,0,7.588,7.076c1.622.945,7.54,2.381,8.006,4.312.272,1.134-.867,2.262-1.57,2.982q-.434.446-.887.844a5.521,5.521,0,0,1-.756-.089c-.216-.041-.429-.087-.642-.138-.083-.017-.165-.038-.248-.06a19.185,19.185,0,0,1-7.1-3.576A31.634,31.634,0,0,1,280.5,298.8,23.741,23.741,0,0,1,279.244,283.084Z" transform="translate(-262.482 -254.675)" fill="#4f290a"/>
    <path id="Path_469" data-name="Path 469" d="M279.9,270.651c6.793-8.126,18.785-12.659,27.621-10.7a15.287,15.287,0,0,1,3.49,4.142c.232.35-7.035-.7-11.479,1.012-10.613,4.1-21.551,13.05-15.7,33.179-1.258,1.228-1.571,2.156-1.528,2.812C279.764,296.518,271.789,280.353,279.9,270.651Z" transform="translate(-263.715 -255.203)" fill="#f15a29"/>
    <path id="Path_470" data-name="Path 470" d="M279.409,271.941c.13-.284-.3,12.306,2.89,20.811s-1.5-.165-1.5-.165S275.83,279.8,279.409,271.941Z" transform="translate(-262.677 -247.88)" fill="#e5461c"/>
    <path id="Path_471" data-name="Path 471" d="M280.1,285.682a1.643,1.643,0,0,0,.721,1.242S280.541,286.478,280.1,285.682Z" transform="translate(-261.509 -239.788)" fill="#f15a29"/>
    <path id="Path_472" data-name="Path 472" d="M278.774,287.257c.6-2.952,3.849-3.146,6.244-3.524a2.826,2.826,0,0,1,.5-.033,13.493,13.493,0,0,0,2.45,4.135,21.734,21.734,0,0,0,1.708,1.844,10.978,10.978,0,0,1-3.332,1.837,7.267,7.267,0,0,1-4.728.445A4.266,4.266,0,0,1,278.774,287.257Z" transform="translate(-262.331 -240.955)" fill="#f4c7a8"/>
    <path id="Path_473" data-name="Path 473" d="M284.433,285.639s-4.671,1.64-3.575,2.366,5.168.018,4.973-.75S284.433,285.639,284.433,285.639Z" transform="translate(-261.159 -239.813)" fill="#e5a980"/>
    <path id="Path_474" data-name="Path 474" d="M289.528,284.287c.661,1.538,3.1,1.967,5.451.956s3.718-3.077,3.055-4.617-3.1-1.965-5.451-.955S288.865,282.749,289.528,284.287Z" transform="translate(-256.056 -243.648)" fill="#ffb0b0"/>
    <path id="Path_475" data-name="Path 475" d="M304.319,277.344a3.3,3.3,0,0,0,2.456.3c-.469-1.93-1.041-3.754-1.535-5.276C303.477,274.373,303.034,276.465,304.319,277.344Z" transform="translate(-247.685 -247.624)" fill="#ffb0b0"/>
    <path id="Path_476" data-name="Path 476" d="M301.742,270.367a5.068,5.068,0,0,1,2.844-.958q-.224-.417-.462-.826c-.2.027-.4.062-.6.1a5.62,5.62,0,0,0-2.412,1.037C300.664,270.086,301.3,270.728,301.742,270.367Z" transform="translate(-249.227 -249.854)" fill="#603913"/>
    <path id="Path_477" data-name="Path 477" d="M299.46,274.14s5.368.982,2.685,3.368Z" transform="translate(-250.11 -246.583)" fill="#f4c7a8"/>
    <path id="Path_478" data-name="Path 478" d="M308.531,275.953l-12.977,7.642s5.775,5.877,10.722,2.435S308.531,275.953,308.531,275.953Z" transform="translate(-252.41 -245.515)" fill="#fff"/>
    <path id="Path_479" data-name="Path 479" d="M293.207,263.048a7.375,7.375,0,0,0,6.741,4.191c2.021-.092,5.519-1.819,5.2-4.294a.37.37,0,0,1,.732-.1c.361,2.831-3.206,4.895-5.608,5.111a8.084,8.084,0,0,1-7.747-4.615A.369.369,0,0,1,293.207,263.048Z" transform="translate(-254.211 -253.414)" fill="#4f290a"/>
    <path id="Path_480" data-name="Path 480" d="M292.673,273.8a5.909,5.909,0,0,0-2.418,1.33,4.9,4.9,0,0,0-1.62,2.156c-.173.578.7.941.874.359a5.052,5.052,0,0,1,3.3-2.909C293.391,274.594,293.265,273.656,292.673,273.8Z" transform="translate(-256.497 -246.793)" fill="#603913"/>
    <path id="Path_481" data-name="Path 481" d="M301.2,272.566a3.166,3.166,0,0,1,1.246-1.552,1.992,1.992,0,0,1,1.555-.245.936.936,0,0,0,.221-.815.427.427,0,0,1,.262-.523.415.415,0,0,1,.523.261,1.906,1.906,0,0,1-.234,1.417,3.169,3.169,0,0,1,.45.351c.532-.264,1.225-.78,1.072-1.265a.414.414,0,0,1,.785-.262c.276.879-.5,1.724-1.309,2.18a3.385,3.385,0,0,1,.216.373c.234.47-.45.936-.686.462a1.849,1.849,0,0,0-2.245-1.066c-1.244.465-.8,1.465-1.023,2.423-.145.612-.631.081-.791-.222A1.848,1.848,0,0,1,301.2,272.566Z" transform="translate(-249.172 -249.366)" fill="#231f20"/>
    <path id="Path_482" data-name="Path 482" d="M295.4,276.474a3.16,3.16,0,0,0-1.989-.027,1.991,1.991,0,0,0-1.179,1.045.941.941,0,0,1-.769-.348.424.424,0,0,0-.57-.132.416.416,0,0,0-.132.569A1.9,1.9,0,0,0,292,278.3a3.4,3.4,0,0,0-.014.57c-.542.241-1.381.448-1.659.022-.289-.445-.991-.01-.7.438.5.772,1.648.71,2.513.378a3.832,3.832,0,0,0,.151.4c.214.48,1.009.248.794-.235a1.849,1.849,0,0,1,.605-2.41c1.152-.664,1.638.315,2.52.751.564.278.465-.435.334-.751A1.858,1.858,0,0,0,295.4,276.474Z" transform="translate(-255.939 -245.311)" fill="#231f20"/>
  </g>
</svg>
