<svg id="Group_77" data-name="Group 77" xmlns="http://www.w3.org/2000/svg" width="111.224" height="84.123" viewBox="0 0 111.224 84.123">
  <path id="Path_569" data-name="Path 569" d="M112.729,332.739a4.367,4.367,0,0,1-.663,1.26.07.07,0,0,1-.016.019,3.577,3.577,0,0,1-.686.635l-.094.067c-.2.147-.408.283-.6.425a10,10,0,0,0-1.618,1.44,12.852,12.852,0,0,0-1.126,1.524c-.094.136-.188.273-.283.408a2.379,2.379,0,0,1-.355.411h0a1.293,1.293,0,0,1-.469.276c-.031.01-.063.019-.094.028a13.935,13.935,0,0,0-1.587.408,4.8,4.8,0,0,0-.758.39c-.114,0-.229-.009-.337-.016a.748.748,0,0,1-.544-1.219,1.446,1.446,0,0,1-.387-.311.826.826,0,0,1-.161-.6.851.851,0,0,1,.317-.55l.016-.009a.752.752,0,0,1-.2-.417.826.826,0,0,1,.161-.6.834.834,0,0,1,.541-.314.984.984,0,0,1,.434.054c.29.116,1.461-1.446,1.632-1.643.726-.827,1.6-1.473,1.3-2.644-.056-.217-3.466-6.82-3.954-7.892-1.618-3.559-3.086-7.236-5.318-10.433-.606-1.031-1.214-2.064-1.767-3.128-.122-.236-.238-.477-.356-.714-.051-.128-.109-.252-.16-.38a20.26,20.26,0,0,1-.735-2.075c-.044-.144-.087-.289-.126-.434-3.224-5.536-4.706-12.1-6.629-18.175a2,2,0,0,1,1.159-2.515c.038-.013.078-.022.114-.034a1.759,1.759,0,0,1,1.052-.4,2.045,2.045,0,0,1,1.687.962,9.149,9.149,0,0,1,.37-1.524,1.782,1.782,0,0,1,2.58-.783c.007-.028.01-.057.016-.087a1.831,1.831,0,0,1,3.4-.572,34.005,34.005,0,0,1,2.589,6.613c2.078,7.321,2.27,15.078,5,22.145a90,90,0,0,1,3.09,8.643c.537,1.98,1.77,7.82,1.94,9.219a1.83,1.83,0,0,1,.019.263,1.611,1.611,0,0,1,.314.2A3.163,3.163,0,0,1,112.729,332.739Z" transform="translate(-10.429 -260.139)" fill="#f4c7a8"/>
  <path id="Path_570" data-name="Path 570" d="M102.458,309.927a89.35,89.35,0,0,1,3.09,8.644c.537,1.978,1.77,7.818,1.94,9.218a1.776,1.776,0,0,1-.326-.626c-.783-2.8-1.929-5.451-2.936-8.172-.883-2.377-1.653-4.8-2.6-7.154a59.657,59.657,0,0,1-2.523-6.872c-.644-2.423-1.415-4.821-1.9-7.282-.49-2.477-.521-4.925-1.324-7.26a2.077,2.077,0,0,1,1.327-2.569,1.579,1.579,0,0,1,.252-.072C99.534,295.1,99.725,302.86,102.458,309.927Z" transform="translate(-6.807 -257.732)" fill="#f4c7a8"/>
  <path id="Path_571" data-name="Path 571" d="M75.444,297.2a3.016,3.016,0,0,0-2.009,1.084c-2.611,3.338-3.012,8.141-4.326,12.063-.5,1.48-1.1,2.914-1.632,4.379-1.049,2.86-1.714,5.837-2.483,8.78-1.178,4.505-7.065,2.355-9.754,4.709a.793.793,0,0,0-.273.521,2.9,2.9,0,0,0-.821.527.766.766,0,0,0,0,1.2,1.9,1.9,0,0,0,.239.131.812.812,0,0,0-.006.224c.155,1.355,2.32,1.144,3.334,1.069a1.432,1.432,0,0,0,.977.94,4.339,4.339,0,0,0,2.006-.059c1.841-.362,4.913-1.333,5.77-3.077.9-1.833,3.5-7.707,4.9-9.992,2.146-3.523,3.5-5.2,3.536-9.395.023-3.254,1.924-6.029,2.69-9.1a10.566,10.566,0,0,0,.274-1.585A2.043,2.043,0,0,0,75.444,297.2Z" transform="translate(-26.365 -253.344)" fill="#f4c7a8"/>
  <path id="Path_572" data-name="Path 572" d="M73.576,299.928c-.766,3.074-2.666,5.849-2.69,9.1-.032,4.19-1.39,5.872-3.536,9.4-1.395,2.285-4,8.159-4.9,9.992a17.018,17.018,0,0,1,1.54-5.465c.78-1.995,1.709-3.941,2.594-5.888a32.933,32.933,0,0,0,2.327-5.91c.488-2.043.8-4.127,1.3-6.166a6.819,6.819,0,0,1,.937-2.306c.208-.3.439-.585.634-.892l.056-.092A1.569,1.569,0,0,1,73.576,299.928Z" transform="translate(-22.353 -252.068)" fill="#e5b595"/>
  <path id="Path_573" data-name="Path 573" d="M71.682,293.393a2.426,2.426,0,0,0-2.385,2.386c0,.637-.01,1.273-.063,1.908-.007.079-.1.771-.069.625-.035.21-.072.421-.114.631a15.669,15.669,0,0,1-.419,1.612c-.092.289-.192.576-.3.859-.05.133-.1.267-.155.4l-.054.122a2.449,2.449,0,0,0,.856,3.263,2.412,2.412,0,0,0,3.263-.855,20.514,20.514,0,0,0,1.824-8.563A2.415,2.415,0,0,0,71.682,293.393Z" transform="translate(-19.835 -255.115)" fill="#7fb22f"/>
  <path id="Path_574" data-name="Path 574" d="M74.644,296.675c.6-.213,1.279-.224,1.861-.5a1.761,1.761,0,0,1,.157-.268,8.873,8.873,0,0,0,.6-.959,2.822,2.822,0,0,1,.182-.4v0a7.969,7.969,0,0,0,.265-.878c.009-.038.04-.2.063-.317.007-.062.015-.119.016-.144a7.683,7.683,0,0,0,.029-.955c0-.144-.032-.292-.028-.436l0,.116c.029.213-.012.485,0,0l0-.026a7.367,7.367,0,0,0-.192-.833c-.012-.04-.056-.167-.091-.267l-.034-.078a6.512,6.512,0,0,0-.4-.736c-.258-.239-.252-.29-.173-.22-.013-.016-.026-.034-.04-.048q-.139-.154-.286-.3c-.041-.04-.213-.18-.279-.239l-.009-.006c-.136-.091-.276-.177-.419-.258a.943.943,0,0,0-.109-.051.584.584,0,0,1-.221-.1,3.777,3.777,0,0,1-.846-.221c-.185-.018-.371-.026-.557-.031-.169,0-.337.007-.507.009h-.056l-.062.01c-.327.219-.653.441-.975.666-2.283,1.588-4.492,3.294-6.862,4.75a3.158,3.158,0,0,0-.324,1.7,3.234,3.234,0,0,0,.751,2.217l.01.019a2.987,2.987,0,0,0,3.938,1.291C71.6,298.436,73.012,297.253,74.644,296.675Z" transform="translate(-21.012 -257.388)" fill="#f4c7a8"/>
  <path id="Path_575" data-name="Path 575" d="M79.928,298.779a3.251,3.251,0,0,0-2.171,1.172c-2.819,3.6-3.253,8.789-4.671,13.025-.537,1.6-1.185,3.147-1.764,4.727-1.131,3.089-1.851,6.3-2.681,9.482-1.27,4.866-7.628,2.545-10.533,5.086a.861.861,0,0,0-.293.563,3.15,3.15,0,0,0-.887.566.829.829,0,0,0,0,1.3,2.127,2.127,0,0,0,.258.141.829.829,0,0,0-.006.242c.148,1.335,1.606,1.2,2.53,1.1a44.251,44.251,0,0,1,4.605-.078c1.668-.013,4.278-.129,5.5-1.477a13.874,13.874,0,0,0,1.61-3.294,82.555,82.555,0,0,1,4.1-8.253c2.317-3.8,3.784-5.619,3.819-10.143.025-3.515,2.077-6.51,2.9-9.831a11.271,11.271,0,0,0,.3-1.713A2.206,2.206,0,0,0,79.928,298.779Z" transform="translate(-25.077 -252.61)" fill="#ffdcc0"/>
  <path id="Path_576" data-name="Path 576" d="M77.911,301.721c-.827,3.32-2.879,6.315-2.9,9.831-.035,4.524-1.5,6.34-3.819,10.143-1.5,2.468-4.318,8.811-5.29,10.79a18.378,18.378,0,0,1,1.663-5.9c.842-2.153,1.846-4.256,2.8-6.359a35.638,35.638,0,0,0,2.514-6.381c.527-2.206.858-4.457,1.406-6.658A7.394,7.394,0,0,1,75.3,304.7c.224-.321.472-.631.683-.962l.062-.1A1.694,1.694,0,0,1,77.911,301.721Z" transform="translate(-20.745 -251.232)" fill="#f4c7a8"/>
  <path id="Path_577" data-name="Path 577" d="M120.812,333.933a4.362,4.362,0,0,1-.471,1.342l-.015.022a3.578,3.578,0,0,1-.587.727c-.028.028-.054.054-.084.081-.176.174-.361.339-.534.509a10.1,10.1,0,0,0-1.392,1.659,13.261,13.261,0,0,0-.893,1.673c-.072.148-.145.3-.22.443a2.434,2.434,0,0,1-.29.459h0a1.323,1.323,0,0,1-.425.34c-.028.015-.059.028-.088.041a14.217,14.217,0,0,0-1.511.634,4.852,4.852,0,0,0-.694.5c-.114.015-.227.023-.337.032a.748.748,0,0,1-.714-1.126,1.478,1.478,0,0,1-.428-.251.818.818,0,0,1-.245-.566.844.844,0,0,1,.232-.59l.015-.012a.753.753,0,0,1-.254-.383.833.833,0,0,1,.072-.622.823.823,0,0,1,.491-.389.968.968,0,0,1,.436-.01c.305.073,1.236-1.643,1.377-1.863.6-.924,1.373-1.689.9-2.806-.088-.207-4.422-6.242-5.061-7.233-2.118-3.285-4.1-6.711-6.777-9.549-.749-.933-1.5-1.866-2.2-2.838-.155-.217-.305-.437-.456-.656-.069-.119-.145-.233-.214-.352a21.054,21.054,0,0,1-1.03-1.946c-.063-.136-.126-.274-.188-.411-3.992-5.011-6.415-11.287-9.2-17.02a2,2,0,0,1,.779-2.656c.037-.019.073-.035.11-.051a1.751,1.751,0,0,1,.981-.551,2.043,2.043,0,0,1,1.808.707,9.236,9.236,0,0,1,.144-1.562,1.781,1.781,0,0,1,2.439-1.148c0-.031,0-.059,0-.089a1.83,1.83,0,0,1,3.279-1.06,34,34,0,0,1,3.524,6.167c3.119,6.941,4.436,14.587,8.169,21.182a89.8,89.8,0,0,1,4.315,8.1c.818,1.88,2.888,7.478,3.259,8.839a1.493,1.493,0,0,1,.057.257,1.6,1.6,0,0,1,.34.154A3.161,3.161,0,0,1,120.812,333.933Z" transform="translate(-9.588 -258.273)" fill="#ffdcc0"/>
  <path id="Path_578" data-name="Path 578" d="M107.485,312.514a89.938,89.938,0,0,1,4.313,8.1c.818,1.88,2.888,7.478,3.259,8.839a1.8,1.8,0,0,1-.414-.573c-1.181-2.655-2.7-5.113-4.093-7.657-1.217-2.225-2.332-4.51-3.614-6.7a59.393,59.393,0,0,1-3.495-6.434c-.99-2.3-2.1-4.563-2.941-6.927-.845-2.38-1.232-4.8-2.366-6.991a2.075,2.075,0,0,1,.939-2.734,1.6,1.6,0,0,1,.241-.109C102.435,298.272,103.751,305.918,107.485,312.514Z" transform="translate(-5.803 -256.076)" fill="#f4c7a8"/>
  <path id="Path_579" data-name="Path 579" d="M106.947,296.5a39.477,39.477,0,0,0-2.33-5.026c-.048-.075-.1-.148-.147-.223a9.427,9.427,0,0,0-4.3-9.071c-2.832-1.874-6.949-2.191-10.206-1.492a25.973,25.973,0,0,0-3.383,1.025,2.436,2.436,0,0,0-1.666,2.935,2.482,2.482,0,0,0,2.635,1.745,12.271,12.271,0,0,0-.811,6.959c0,.019.01.037.016.056a14.361,14.361,0,0,1,2.681,2.311,26.736,26.736,0,0,1,4.725,7.576c.26.6.5,1.2.722,1.807a2.338,2.338,0,0,0,.441.374c2.027,1.28,7.487-2.745,9.5-3.9C107.249,300.176,107.486,298.375,106.947,296.5Z" transform="translate(-11.923 -261.202)" fill="#f15a29"/>
  <g id="Group_74" data-name="Group 74" transform="translate(0 0)">
    <path id="Path_580" data-name="Path 580" d="M45.06,280.473c-2.413,2.039-5.588.949-8.329.348-.82-.179-.933,1.125-.12,1.3,3.146.689,6.542,1.672,9.285-.645A.654.654,0,0,0,45.06,280.473Z" transform="translate(-34.67 -261.216)" fill="#231f20"/>
    <path id="Path_581" data-name="Path 581" d="M47.988,267.468c-2.794-.749-5.881,1.015-7.575,3.156a8.261,8.261,0,0,0-1.643,6.136,1.724,1.724,0,0,0-1.558-1.052,1.638,1.638,0,0,0-1.622,1.409,22.529,22.529,0,0,0-.471,4.118,5.876,5.876,0,0,0,2.006,4,12.273,12.273,0,0,0,2.561,1.624,12.948,12.948,0,0,0,3.322,1.225c1.222.252,2.823.113,3.558-1.05a2.115,2.115,0,0,0,.32-.937,9.574,9.574,0,0,0,2.979-1.556c.591-.446,1.134-.95,1.717-1.4.282-.219.568-.431.862-.632.147-.1.295-.2.444-.289.063-.041.129-.079.192-.119l.059-.037.034-.018a9.725,9.725,0,0,1,1.079-.5c.185-.072.373-.133.562-.192l.023-.009c.1-.023.2-.045.295-.065.2-.038.4-.069.6-.089q.114-.013.229-.022c-.007,0,.211-.009.274-.015h.079c.133.007.267.015.4.028.248.022.493.062.738.107a1.626,1.626,0,0,0,1.607-.8,1.7,1.7,0,0,0-.085-1.805c.079.142-.021-.038-.045-.082l-.158-.283c-.145-.257-.287-.516-.441-.767a6.26,6.26,0,0,0-.856-1.1,6.062,6.062,0,0,0-2.729-1.582,10.405,10.405,0,0,0-1.5-.3,1.685,1.685,0,0,0-1.357-2.027,13.181,13.181,0,0,0-5.23.172c.019-.035.037-.07.056-.1s.045-.081.063-.107c.079-.123.163-.245.248-.364a8,8,0,0,1,.5-.629,7.7,7.7,0,0,1,1.233-1.109,1.637,1.637,0,0,0,.588-1.723A1.709,1.709,0,0,0,47.988,267.468Zm-9.022,10.325a.98.98,0,0,1-.063-.117c-.012-.031-.022-.062-.032-.094l0-.023c-.009-.12-.023-.236-.029-.355C38.873,277.4,38.916,277.6,38.965,277.793Z" transform="translate(-35.111 -267.292)" fill="#231f20"/>
    <path id="Path_582" data-name="Path 582" d="M47.047,278.233c-1.758.516-3.16,1.832-4.662,2.819a1.674,1.674,0,0,0-.33,2.289,8.031,8.031,0,0,0,1.428,1.823,1.642,1.642,0,0,0,2.3-.27,1.725,1.725,0,0,0,.323-.786,1.618,1.618,0,0,0,.462-.235l.015-.012.038-.01c.05-.015.078-.025.092-.031h.015a3.063,3.063,0,0,1,.349-.044c-.067.012.318.07.06,0a1.659,1.659,0,0,0,2.257-1.719c-.075-.906.026-1.555-.106-2.515A1.663,1.663,0,0,0,47.047,278.233Z" transform="translate(-32.01 -262.227)" fill="#f15a29"/>
    <path id="Path_583" data-name="Path 583" d="M62.071,278.411a40.614,40.614,0,0,1,5.316,1.129,23.943,23.943,0,0,1,7.45,3.471,22.246,22.246,0,0,1,5.548,6.036,11.63,11.63,0,0,1,1.468,3.476c-.022.023-.043.048-.065.072-.214.169-.415.348-.638.506a2.362,2.362,0,0,0-.669.746l-.062.111a1.407,1.407,0,0,1-.5-.044.475.475,0,0,0-.276,0c-1.568-.659-3.1-1.387-4.69-2A16.814,16.814,0,0,0,71.834,291a13.515,13.515,0,0,0-1.717-.2c-.248-.013-.5-.021-.745-.025-.038,0-.062,0-.073,0a.681.681,0,0,1-.078,0h-.006l-.331.007a21.391,21.391,0,0,0-2.559.238c-.437.066-.874.147-1.308.239-.189.04-.38.084-.568.129l-.29.07-.018,0-.016,0c-.021.007-.048.013-.078.022-.411.116-.815.239-1.217.375a25.676,25.676,0,0,0-3.6,1.516,26.12,26.12,0,0,0-4.111,2.682c-.656.519-1.28,1.072-1.888,1.648l-.139.136c-.031.032-.063.063-.1.1-.116.116-.23.233-.346.351-.249.258-.5.521-.741.786a34.524,34.524,0,0,0-2.96,3.7q-.359.519-.7,1.052l-.29.472-.019.031-.155.273c-.377.67-.726,1.355-1.035,2.058-.019.04-.037.081-.054.12a19.127,19.127,0,0,0-.824,2.251c-.012.038-.05.183-.059.214-.013.057-.029.114-.043.172-.041.172-.079.345-.116.518-.073.367-.136.738-.182,1.112q-.075.592-.092,1.188l0,.2v.041c.007.2.015.4.029.592.019.252.048.5.084.752a1.635,1.635,0,0,1,.154.836l.022.1.01.05c.026.091.053.182.081.273a1.843,1.843,0,0,1-.163,1.527,1.512,1.512,0,0,1,.375,1.241,1.712,1.712,0,0,1-1.565,1.443,1.224,1.224,0,0,1-.27-.034,3.973,3.973,0,0,1-2.391-1.789,4.58,4.58,0,0,1-.955-1,1.675,1.675,0,0,1-.62-1.065l-.012-.073a10.558,10.558,0,0,1-.549-1.679c-.032-.132-.063-.263-.091-.395l-.048-.133c-.245-.675-.475-1.351-.67-2.039-.088-.315-.169-.635-.242-.956a34.421,34.421,0,0,1-1.109-6.459,24.931,24.931,0,0,1,2.279-10.936,25.775,25.775,0,0,1,6.914-8.92,22.89,22.89,0,0,1,9.985-5.209A16.046,16.046,0,0,1,62.071,278.411Z" transform="translate(-34.023 -262.172)" fill="#231f20"/>
    <path id="Path_584" data-name="Path 584" d="M66.126,281.8a20.472,20.472,0,0,1,2,.661,22.143,22.143,0,0,1,8.088,5.465,21.266,21.266,0,0,1,3.82,5.616q.178.376.339.764c1.949,4.686,1.587,10.158.551,15.016C80.142,313,79.254,317,76.932,320.058c-2.524,3.328-7.584,4.725-11.576,5.029-1.827.139-3.592.155-5.07.155h-.45a26.542,26.542,0,0,1-4.734-.449q-.429-.079-.856-.172a32.805,32.805,0,0,1-3.356-.912q-1.25-.409-2.467-.906a15.986,15.986,0,0,1-3.191-1.67,7.351,7.351,0,0,1-1.889-1.873,1.786,1.786,0,0,1-.292-1.254,1.426,1.426,0,0,1-.243-.673c-.216-2.565-.827-5.069-.8-7.656.029-2.839,1.054-5.531,1.336-8.339a1.591,1.591,0,0,1,.827-1.206,33.27,33.27,0,0,1,1.6-4.363q.3-.671.634-1.332a26.033,26.033,0,0,1,7.867-9.536,19.813,19.813,0,0,1,3.125-1.8C60.168,281.818,63.437,281.057,66.126,281.8Z" transform="translate(-31.894 -260.66)" fill="#ffdcc0"/>
    <g id="Group_71" data-name="Group 71" transform="translate(12.632 26.858)">
      <path id="Path_585" data-name="Path 585" d="M47.635,302.375l.015-.04-.01.013Z" transform="translate(-41.899 -277.8)" fill="#f4c7a8"/>
      <path id="Path_586" data-name="Path 586" d="M47.629,302.424c-.007.045-.013.092-.021.138.01-.048.023-.113.04-.2l-.013.029Z" transform="translate(-41.911 -277.787)" fill="#f4c7a8"/>
      <path id="Path_587" data-name="Path 587" d="M47.641,302.394c.007-.047.016-.1.025-.158l0,0-.031.164Z" transform="translate(-41.9 -277.846)" fill="#f4c7a8"/>
      <path id="Path_588" data-name="Path 588" d="M47.645,302.4a.818.818,0,0,0,.1-.2l-.018.007C47.7,302.269,47.671,302.335,47.645,302.4Z" transform="translate(-41.894 -277.865)" fill="#f4c7a8"/>
      <path id="Path_589" data-name="Path 589" d="M69.724,285.611a9.74,9.74,0,0,0-6.424,2.462,17.246,17.246,0,0,0-3.636,5.664c-.194.421-.387.842-.587,1.26-.111.23-.223.461-.339.688-.073.147-.148.295-.224.441l0,0,0,.007a2.018,2.018,0,0,1-.164.248c-.242.4-.441.834-.68,1.223-.334.547-.688,1.084-1.063,1.6-.34.471-.7.931-1.079,1.371-.075.088-.153.173-.227.26-.243.238-.484.48-.739.708-.418.375-.864.707-1.316,1.038-.132.076-.317.189-.339.2-.32.172-.65.324-.986.463-.282.116-.566.223-.854.324q-.172.062-.348.119a1.775,1.775,0,0,0-.192.084c-.224.081-.477.128-.7.2-.49.154-.981.307-1.47.471a7.017,7.017,0,0,0-3.128,1.992,6.525,6.525,0,0,0-1.354,3.488,19.851,19.851,0,0,0-.047,4.5c.119,1.392.345,2.77.525,4.155.028.213.054.424.076.636a15.986,15.986,0,0,0,3.191,1.67q.409.165.82.321c-.094-.393-.177-.788-.246-1.184-.506-2.9-.484-7.082,1.483-9.561l0,0c1.046-1.316,2.995-1.508,4.456-2.229a20.614,20.614,0,0,0,4.6-3.118c3.438-3.074,4.828-6.893,6.828-10.879.018-.035.035-.072.051-.11.109-.188.214-.375.33-.56,1.252-1.993,3.671-2.6,5.887-2.511.705.026,7.444.663,7.4.572a21.266,21.266,0,0,0-3.82-5.616q-.594-.048-1.189-.1A38.489,38.489,0,0,0,69.724,285.611Z" transform="translate(-43.724 -285.606)" fill="#f4c7a8"/>
      <path id="Path_590" data-name="Path 590" d="M68.447,285.784l.008,0,.01-.008-.009,0Z" transform="translate(-32.188 -285.527)" fill="#f4c7a8"/>
      <path id="Path_591" data-name="Path 591" d="M68.405,285.82q.044-.013.088-.031a2.876,2.876,0,0,0-.3.082c.031-.007.062-.012.091-.019S68.364,285.832,68.405,285.82Z" transform="translate(-32.307 -285.52)" fill="#f4c7a8"/>
      <path id="Path_592" data-name="Path 592" d="M67.444,285.95l-.029,0h-.022Z" transform="translate(-32.68 -285.445)" fill="#f4c7a8"/>
      <path id="Path_593" data-name="Path 593" d="M53.875,292.779c-.236.326-.233.342-.17.26s.109-.174.167-.257Z" transform="translate(-39.084 -282.259)" fill="#f4c7a8"/>
    </g>
    <g id="Group_72" data-name="Group 72" transform="translate(4.757 20.34)">
      <path id="Path_594" data-name="Path 594" d="M44.735,306.912v0Z" transform="translate(-35.378 -269.171)" fill="#231f20"/>
      <path id="Path_595" data-name="Path 595" d="M70.359,281.63a10.626,10.626,0,0,1,3.681,1.785q.35.255.683.531c.183.151.367.309.547.472A13.6,13.6,0,0,1,79.96,287.7a7.572,7.572,0,0,1,1.2,1.886c.7,1.612.365,2.983-1.1,2.914a3.436,3.436,0,0,1-.947-.2c-1.269-.439-2.4-1.192-3.65-1.669a.45.45,0,0,0-.425.045,6.158,6.158,0,0,0-1.458-.914,7.79,7.79,0,0,0-4.353-.488,2.852,2.852,0,0,0-.428.15c-2.43,1.069-3.76,5.491-4.832,7.553-1.64,3.149-3.436,6.391-6.259,8.643a17.478,17.478,0,0,1-7.566,3.6c-.623,2.572-1.855,4.939-2.191,7.626a8.583,8.583,0,0,0,2.386,7.515,2.606,2.606,0,0,1-2.461.955c-2.156-.232-4.67-2.3-5.68-3.6a19.871,19.871,0,0,1-3.6-8.673,14.436,14.436,0,0,1-.219-3.292c.129-2.034.859-3.938,2.889-4.668a1.714,1.714,0,0,1,.066-.975,1.436,1.436,0,0,1-.183-1.123,1.832,1.832,0,0,1,.048-1.087,1.378,1.378,0,0,1,.177-.331,1.672,1.672,0,0,1,.078-.271,1.348,1.348,0,0,1,.243-.411c-.1-.009-.2-.019-.3-.031a1.636,1.636,0,0,1,.425-3.244c.27.032.544.045.817.056.169.006.339.006.507.01.1,0,.194,0,.29,0l.166,0a22.734,22.734,0,0,0,2.495-.922,32.3,32.3,0,0,1,2.364-5.064,16.689,16.689,0,0,1,4.618-5.011,28.11,28.11,0,0,1,6.765-3.85,1.736,1.736,0,0,1,.845-.8,12.19,12.19,0,0,1,4.78-.848A19.2,19.2,0,0,1,70.359,281.63Z" transform="translate(-38.355 -281.161)" fill="#231f20"/>
    </g>
    <g id="Group_73" data-name="Group 73" transform="translate(10.069 22.395)">
      <path id="Path_596" data-name="Path 596" d="M72.351,282.761a18.182,18.182,0,0,1,3.306.877,21.1,21.1,0,0,1,2.613,3.405,7.572,7.572,0,0,1,1.2,1.886c.7,1.612.365,2.983-1.1,2.914l-.062.111a1.407,1.407,0,0,1-.5-.044.475.475,0,0,0-.276,0c-1.568-.659-3.1-1.387-4.69-2a16.816,16.816,0,0,0-3.118-.921,13.527,13.527,0,0,0-1.717-.2c-.248-.013-.5-.021-.745-.025-.038,0-.062,0-.073,0a.688.688,0,0,1-.078,0c-2.43,1.069-3.76,5.491-4.832,7.553-1.64,3.149-3.436,6.391-6.259,8.643a17.477,17.477,0,0,1-7.566,3.6c-.623,2.572-1.855,4.939-2.191,7.626a8.583,8.583,0,0,0,2.386,7.515,2.606,2.606,0,0,1-2.461.955,12.018,12.018,0,0,1-1.326-1.48,14.209,14.209,0,0,1-2.564-5.888,21.276,21.276,0,0,1,1.1-11.1,3.266,3.266,0,0,1,1.244-1.536,2.147,2.147,0,0,1,1.057-.375,37.474,37.474,0,0,0,6-.538c.179-.038.359-.081.54-.126a.163.163,0,0,0-.053.021,1.081,1.081,0,0,0,.223-.062l.062-.022c.1-.029.2-.06.3-.085l-.245.065a11.019,11.019,0,0,0,1.154-.5c.21-.11.406-.238.615-.349-.3.158-.412.221-.428.227.028-.018.353-.2.494-.305a11.381,11.381,0,0,0,1.123-.984c.065-.075.129-.147.191-.223.154-.182.3-.37.446-.56.368-.49.713-1,1.037-1.521.179-.29.348-.585.519-.88.016-.026.032-.05.047-.07.023-.053.044-.1.059-.133.26-.51.5-1.03.726-1.555a55.006,55.006,0,0,0,2.069-6.33c.048-.164.1-.33.15-.5a12.512,12.512,0,0,1,1.89-4.013,8.238,8.238,0,0,1,5-3.05A13.209,13.209,0,0,1,72.351,282.761Z" transform="translate(-41.976 -282.562)" fill="#050505"/>
      <path id="Path_597" data-name="Path 597" d="M49.2,296.882l.051-.019c-.144.04-.233.066-.283.082l.132-.034C49.133,296.9,49.166,296.892,49.2,296.882Z" transform="translate(-38.714 -275.89)" fill="#050505"/>
    </g>
    <path id="Path_598" data-name="Path 598" d="M59.933,282.667c-2.423,1.367-1.666,4.277-1.316,6.487a2.752,2.752,0,0,0,.113.449,12.467,12.467,0,0,1,4.329.972,19.782,19.782,0,0,1,2.106.974,10.109,10.109,0,0,0,.663-3.448,6.685,6.685,0,0,0-.956-4.278A3.934,3.934,0,0,0,59.933,282.667Z" transform="translate(-24.326 -260.325)" fill="#f4c7a8"/>
    <path id="Path_599" data-name="Path 599" d="M60.43,287.949s.11-4.568,1.06-3.813,1.487,4.532.758,4.579A3.781,3.781,0,0,1,60.43,287.949Z" transform="translate(-23.297 -259.473)" fill="#e5a980"/>
    <path id="Path_600" data-name="Path 600" d="M63.189,285.758c-2.231,4.02-2.7,8.627-4.413,12.841a13.753,13.753,0,0,1-7.283,7.575,6.435,6.435,0,0,1-5.445.029c-.754-.377-1.21.851-.463,1.223,3.477,1.741,7.478-.087,10.185-2.417a14.494,14.494,0,0,0,3.372-4.112,30.96,30.96,0,0,0,2.376-6.625,33.841,33.841,0,0,1,2.735-7.752C64.657,285.79,63.6,285.023,63.189,285.758Z" transform="translate(-30.401 -258.816)" fill="#050505"/>
    <path id="Path_601" data-name="Path 601" d="M49.506,281.252c-2.178,1.107-4.56,1.7-6.424,3.36a21.7,21.7,0,0,0-4.549,6.028,19.544,19.544,0,0,0-2.191,13.321,16.9,16.9,0,0,0,3.005,6.623c-1.123,3.163-1.858,6.493-.223,9.666a10.145,10.145,0,0,0,7.364,5.572,4.427,4.427,0,0,0,2.536-.236l-.013-.326a1.428,1.428,0,0,1,.021-.177c-.133-.057-.268-.111-.4-.163-.164-.062-.331-.111-.5-.167l-.045-.013q-.145-.024-.29-.04a1.884,1.884,0,0,1-.392-.087,8.414,8.414,0,0,1-3.863-1.252,10.142,10.142,0,0,1-3.231-3.664,8.261,8.261,0,0,1-.745-5.076,18.6,18.6,0,0,1,1.035-3.7.644.644,0,0,0,.164-.436c.185-.481.374-.958.559-1.434a.654.654,0,0,0-1.223-.462c-.067.172-.135.345-.2.518a16.294,16.294,0,0,1-2.5-11.035,19.106,19.106,0,0,1,1.9-6.082,21.7,21.7,0,0,1,4.036-5.818,10.65,10.65,0,0,1,3.175-2.2c1.173-.534,2.395-.949,3.546-1.534C50.808,282.058,50.26,280.869,49.506,281.252Z" transform="translate(-34.713 -260.814)" fill="#231f20"/>
    <path id="Path_602" data-name="Path 602" d="M56.267,298.054a1.245,1.245,0,1,1-1.354,1.125A1.246,1.246,0,0,1,56.267,298.054Z" transform="translate(-25.873 -252.942)" fill="#231f20"/>
    <path id="Path_603" data-name="Path 603" d="M60.327,293.825c1.54.142,2.611,2.163,2.393,4.514s-1.644,4.14-3.183,4-2.611-2.165-2.393-4.516S58.789,293.681,60.327,293.825Z" transform="translate(-24.843 -254.916)" fill="#ffb0b0"/>
    <path id="Path_604" data-name="Path 604" d="M58.574,309.912a3.037,3.037,0,0,1,.966,2.071c-1.827.139-3.592.155-5.07.155C55.725,310.02,57.438,309.035,58.574,309.912Z" transform="translate(-26.078 -247.556)" fill="#ffb0b0"/>
    <path id="Path_605" data-name="Path 605" d="M51.28,309.325a4.674,4.674,0,0,0-.032,2.77q-.429-.079-.856-.172c-.034-.186-.06-.371-.081-.553a5.2,5.2,0,0,1,.224-2.413C50.724,308.46,51.468,308.829,51.28,309.325Z" transform="translate(-28.04 -247.962)" fill="#603913"/>
    <path id="Path_606" data-name="Path 606" d="M56.127,297.181c.238.117.271.7.279.911,0,.031,0,.082,0,.144a2.675,2.675,0,0,0-1.487-1.194c-.463-.157-.735.556-.27.714s1.569.789,1.018,1.37c-.331.351.142.934.48.6a.335.335,0,0,0,.221,0c1.191-.37,1.037-2.757.029-3.256C55.956,296.25,55.691,296.966,56.127,297.181Z" transform="translate(-26.106 -253.699)" fill="#231f20"/>
    <path id="Path_607" data-name="Path 607" d="M53.445,311.291a1.244,1.244,0,1,0-1.123-1.354A1.242,1.242,0,0,0,53.445,311.291Z" transform="translate(-27.083 -247.921)" fill="#231f20"/>
    <path id="Path_608" data-name="Path 608" d="M52.4,312.27c.264.022.591-.456.708-.636.016-.025.043-.067.075-.122a2.674,2.674,0,0,1-1.889.257c-.48-.1-.345-.857.136-.751s1.751.132,1.578-.65c-.1-.471.6-.727.717-.262a.321.321,0,0,1,.191.113c.83.93-.532,2.9-1.653,2.8C51.772,312.981,51.913,312.23,52.4,312.27Z" transform="translate(-27.7 -247.431)" fill="#231f20"/>
    <path id="Path_609" data-name="Path 609" d="M54.559,305.869s2.392,4.434,3.724,1.4Z" transform="translate(-26.036 -249.293)" fill="#f4c7a8"/>
  </g>
  <g id="Group_75" data-name="Group 75" transform="translate(74.57 28.335)">
    <path id="Path_610" data-name="Path 610" d="M93.62,300.37a26.736,26.736,0,0,0-4.725-7.576,14.361,14.361,0,0,0-2.681-2.311c-.006-.019-.012-.037-.016-.056a7.143,7.143,0,0,1,.038-3.813,2.336,2.336,0,0,1,.9.368C91.5,289.988,93.441,295.178,93.62,300.37Z" transform="translate(-85.956 -286.613)" fill="#e5461c"/>
  </g>
  <g id="Group_76" data-name="Group 76" transform="translate(49.354 18.613)">
    <path id="Path_611" data-name="Path 611" d="M97.928,288.551c-.079,1.776-.576,7.642-2.459,10.238a2.49,2.49,0,0,1-2.361,1.236,3.97,3.97,0,0,1-1.72-.829,4.578,4.578,0,0,0-1.694-.887,2.973,2.973,0,0,0-2.5.839c-2.379,2.169-3.992,5.35-6.226,7.717a14.257,14.257,0,0,1-2.565,2.014l-.037.025c-.1,1.022-.194,2.043-.251,3.068a2.432,2.432,0,0,1-2.385,2.385,17.74,17.74,0,0,1-2.552-.245c-.2-.029-.395-.056-.59-.088l-.038-.006-.038,0c-.364-.029-.723-.063-1.087-.069-1.417-.026-2.88-1.525-2.3-3.02a11.564,11.564,0,0,0,.57-1.978c.031-.153.057-.305.082-.458a1.023,1.023,0,0,0,.016-.1c.034-.3.062-.6.084-.895.12-1.646-.307-5.082.719-6.355a5.932,5.932,0,0,0,1.305-3.282,2.922,2.922,0,0,0-1.318-2.729,2.694,2.694,0,0,0-1.823-.342,2.4,2.4,0,0,1,.205-.248,25.771,25.771,0,0,1,4.815-3.7c6.774-4.247,12.869-9.665,21.147-10.757,2.078-.274,2.477-.029,2.684,1.4.048.334.087.733.133,1.208A41.154,41.154,0,0,1,97.928,288.551Z" transform="translate(-68.763 -279.984)" fill="#8dc63f"/>
    <path id="Path_612" data-name="Path 612" d="M83.111,292.47l.1.032-.013-.006Z" transform="translate(-62.068 -274.158)" fill="#8dc63f"/>
  </g>
  <path id="Path_613" data-name="Path 613" d="M92.412,293.456a2.49,2.49,0,0,1-2.361,1.236,3.97,3.97,0,0,1-1.72-.829,4.577,4.577,0,0,0-1.694-.887,2.973,2.973,0,0,0-2.5.839c-2.379,2.169-3.992,5.35-6.226,7.717a14.258,14.258,0,0,1-2.565,2.014l-.037.025V300.7a62.662,62.662,0,0,1,6.922-8.05C85.24,289.845,90.794,292.564,92.412,293.456Z" transform="translate(-16.353 -256.038)" fill="#7fb22f"/>
  <path id="Path_614" data-name="Path 614" d="M110.384,320.715a5.089,5.089,0,0,0-1.833,1.805,4.113,4.113,0,0,0-.68,2.225,2.456,2.456,0,0,0,.031.359,2.432,2.432,0,0,0,.29-.459c.075-.147.148-.295.22-.443a13.261,13.261,0,0,1,.893-1.673,10.1,10.1,0,0,1,1.392-1.659c.173-.17.358-.334.534-.509A4.466,4.466,0,0,0,110.384,320.715Z" transform="translate(-1.162 -242.53)" fill="#f4c7a8"/>
  <path id="Path_615" data-name="Path 615" d="M61.911,301.258a.611.611,0,0,0-.639-.088c-.139.067-.235.2-.048.368a3.083,3.083,0,0,1,.843,2.432,14.032,14.032,0,0,1-.223,2.58,26.081,26.081,0,0,1-2.713,7.367.248.248,0,0,0-.019.059c-.031.16.142.305.342.37.173.054.387.054.469-.111a26.021,26.021,0,0,0,2.819-7.793,13.653,13.653,0,0,0,.17-2.674A3.368,3.368,0,0,0,61.911,301.258Z" transform="translate(-23.914 -251.51)" fill="#603913"/>
</svg>
