<svg id="Group_87" data-name="Group 87" xmlns="http://www.w3.org/2000/svg" width="85.292" height="123.302" viewBox="0 0 85.292 123.302">
  <path id="Path_664" data-name="Path 664" d="M200.159,385.229a1.062,1.062,0,0,0-.306-1.177,1.094,1.094,0,0,0-.011-1.572,19.318,19.318,0,0,0-2.268-1.561,13.537,13.537,0,0,0-2.521-1.434,1.142,1.142,0,0,0-.268-.075,9.042,9.042,0,0,0-2.273-.954,12.687,12.687,0,0,0-2.892-.368c-.477-.013-.952-.016-1.427-.051-.2-.013-.391-.031-.586-.055-.084-.011-.81-.149-.453-.056a2.981,2.981,0,0,0-1.652.02c-.61,1.367-1.272,2.726-1.807,4.124.066.013.126.022.182.029.095.013.848,1.25,1.012,1.412a6.805,6.805,0,0,0,1.594,1.152c1.554.817,2.979,1.884,4.535,2.652,1.023.506,1.94,1.42,3.112,1.536a1.016,1.016,0,0,0,.235-2.016c-.02,0-.042-.007-.064-.011.373.045.746.084,1.121.109a4.138,4.138,0,0,0,3.2-.209.855.855,0,0,0,.4-.884A1.012,1.012,0,0,0,200.159,385.229Z" transform="translate(-125.266 -329.387)" fill="#f4c7a8"/>
  <path id="Path_665" data-name="Path 665" d="M214.62,374.658a1.057,1.057,0,0,0-.4-.677,3.9,3.9,0,0,0-.022-1.307,1.028,1.028,0,0,0-1.37-.841,2.539,2.539,0,0,0-.317.18,1.1,1.1,0,0,0-.253-.166c-1.729-.808-3.05,2.091-3.64,3.21l-.167.322a1.056,1.056,0,0,0-1.76-.32,8.1,8.1,0,0,0-1.6,3.643,13.317,13.317,0,0,0-.324,4.148,8.418,8.418,0,0,0,1.44,3.694c.053.075.106.144.16.211-.133.471-.277.979-.406,1.514a94.314,94.314,0,0,0-2.672,18.239,3.047,3.047,0,0,0,.007.364,1.012,1.012,0,0,1-.111-.044l-.015,0c-2.5-.095-4.266-2.834-5.926-4.342-2.768-2.511-5.747-3.467-9.172-4.655a6.155,6.155,0,0,0-2.44-.286,12.966,12.966,0,0,0-2.1.315c-1.2-.033-2.411.042-3.611.015a12.787,12.787,0,0,1-4.473-.617,4.217,4.217,0,0,1-.588-.295l-.066.082a2.677,2.677,0,0,0,.451,3.68c1.794,1.474,4.024,2.126,5.987,3.3a51.212,51.212,0,0,1,4.16,3.138c.435.331.872.648,1.31.932,4.089,2.65,8.821,4.011,13.393,5.569,2.064.7,4.049,2.215,6.335,1.938a4.2,4.2,0,0,0,2.7-1.4,7.219,7.219,0,0,0,1.325-2.792,21.327,21.327,0,0,0,.564-4.271c.075-1.534.066-3.016.137-4.191.26-4.4-.546-9.023.164-13.354.227-1.39.832-4.408.793-4.541q.027-.2.044-.4c.5-2.138,1.041-4.26,1.654-6.386.106-.206.206-.4.284-.59A5.444,5.444,0,0,0,214.62,374.658Z" transform="translate(-133.006 -334.398)" fill="#ffdcc0"/>
  <path id="Path_666" data-name="Path 666" d="M205.436,396.158a7.219,7.219,0,0,1-1.325,2.792,4.2,4.2,0,0,1-2.7,1.4c-2.286.277-4.271-1.236-6.335-1.938-4.572-1.558-9.3-2.919-13.393-5.569-.439-.284-.875-.6-1.31-.932a2.636,2.636,0,0,1,.81-1.086,2.7,2.7,0,0,1,3.674.5c-.064-.067-.129-.137-.189-.206,3.059,3.037,7.678,4.79,11.915,5.3,1.687.188,3.147-1.8,4.506-2.664.75-.479,1.882-1.258,2.626-1.74.317-.206,2.277.026,2.286-.127A21.327,21.327,0,0,1,205.436,396.158Z" transform="translate(-127.992 -319.147)" fill="#f4c7a8"/>
  <path id="Path_667" data-name="Path 667" d="M169.923,374.06a7.143,7.143,0,0,0-4.189,2.109c-2.264,4.812-2.382,10.43-1.953,15.631a58.215,58.215,0,0,0,.832,6.4,15.288,15.288,0,0,0,1.749,5.278,16.45,16.45,0,0,0,1.7,4.542,2.7,2.7,0,0,0,3.447,1.365,2.64,2.64,0,0,0,1.365-3.447c-.186-.329-.368-.661-.539-1a2.19,2.19,0,0,0,1.552-.961,3.808,3.808,0,0,0,.544-2.439,4.5,4.5,0,0,0-.058-1.207c0-.2,0-.393,0-.59,0-.45-.005-.9-.013-1.349-.013-.75-.033-1.5-.071-2.248-.129-2.588-.528-5.143-.739-7.724-.086-1.041-.169-4.506-.271-5.547C173.475,384.781,180.711,375.366,169.923,374.06Z" transform="translate(-141.756 -332.484)" fill="#ffdcc0"/>
  <path id="Path_668" data-name="Path 668" d="M200.053,391.167a18.86,18.86,0,0,1-2.08.368,2.047,2.047,0,0,0-1.247.806c-.137.158-.269.318-.4.48a16.82,16.82,0,0,1-1.589,1.791,13.264,13.264,0,0,1-2.217,1.643,8.668,8.668,0,0,0-1.885,1.274l-.024.024a5.45,5.45,0,0,0-.972,1.5,3.876,3.876,0,0,0,1.458,2.684,2.282,2.282,0,0,0,.386.278c.737,2.835,1.028,9.336,1.059,10.563,2.282,1.318,6.386.406,8.006-.7-.082-.712-3.9-9.862-3.68-10.514-.06-.207-.113-.415-.153-.622-.278-1.48.914-2.2,1.925-3.165.238-.227,1.891-2.06,2.255-1.893a1.271,1.271,0,0,0,.551.1,1.088,1.088,0,0,0,.726-.34,1.012,1.012,0,0,0,.266-.735.933.933,0,0,0-.211-.531l.018-.011a1.047,1.047,0,0,0,.46-.653.994.994,0,0,0-.149-.752,1.821,1.821,0,0,0-.471-.415.92.92,0,0,0-.584-1.558c-.14-.018-.286-.036-.431-.049A6.489,6.489,0,0,1,200.053,391.167Z" transform="translate(-120.396 -318.787)" fill="#ffdcc0"/>
  <path id="Path_669" data-name="Path 669" d="M234.756,426.043a4.58,4.58,0,0,1-2.06,3.618c-1.991,1.307-4.624,1.1-7.059.67-.384-.069-.764-.144-1.134-.217H224.5c-.566-.116-1.116-.233-1.634-.329q-1.114-.213-2.226-.42c-3.758-.706-7.513-1.414-11.22-2.39-5.8-1.527-14.268-7.551-20.645-5.13,2.071.559.684,5-1.747,5.3a1.513,1.513,0,0,0-1.469,1.467,1.212,1.212,0,0,0,.022.213c-.777.149-1.554.288-2.337.406-4.011.608-8.111.448-12.153.628-4.484.2-9.17.422-13.484-1.048a5.517,5.517,0,0,1-2.954-1.973,4.429,4.429,0,0,1-.521-3.183c.9-5.072,5.887-6.217,9.837-8.3,1.483-.784,15.617-6.359,15.64-6.894a1.625,1.625,0,0,0-.342-1.054,2.707,2.707,0,0,1,1.865.539c1.824-.606,3.656-1.192,5.478-1.794a2.312,2.312,0,0,1,1.895.217,21.1,21.1,0,0,1,8.936.59,2.524,2.524,0,0,1,1.875-1.469,2.867,2.867,0,0,1,.278-.8,2.673,2.673,0,0,1,3.589-.928c.2.1.395.2.6.286l.111.044c.329.126.662.246,1,.362.628.22,1.261.428,1.882.668.086.033.169.069.253.1a2.748,2.748,0,0,1,2.049-.291c2.22.6,3.711,2.686,4.923,4.526.7,1.056,1.192,3.039,2,3.909l.058.062c.666.724,2.486,1.338,3.345,1.915q1.957,1.3,3.82,2.746-.085-.726-.175-1.449-.076-.6-.155-1.2c-.171-1.33-.357-2.663-.531-3.993-.089-.673-.18-1.349-.264-2.024-.047-.364-.091-.73-.136-1.1-.042-.471-.089-.945-.149-1.423a24.336,24.336,0,0,1-.076-3.853,14.546,14.546,0,0,0,1.543.138,19.811,19.811,0,0,0,3.27-.157,17.481,17.481,0,0,0,3.192-.681,82,82,0,0,1,3.1,9.169,56.824,56.824,0,0,1,1.973,10.253A24.1,24.1,0,0,1,234.756,426.043Z" transform="translate(-149.579 -309.265)" fill="#f15a29"/>
  <path id="Path_670" data-name="Path 670" d="M184.734,411.564c3.651.859,19.655,8,28.332,10.35-3.762-.693-7.516-1.387-11.229-2.35-5.806-1.507-14.292-7.5-20.661-5.056l-1.336-.238-16.5-1.016S180.426,410.548,184.734,411.564Z" transform="translate(-141.959 -301.907)" fill="#e5461c"/>
  <path id="Path_671" data-name="Path 671" d="M194.652,418.86l-1.905-1.176c-.053-.451-.116-.9-.186-1.347q-.076-.6-.155-1.2c-.171-1.33-.357-2.663-.531-3.993q-.137-1.01-.264-2.024c-.047-.364-.091-.73-.136-1.1-.042-.471-.089-.945-.149-1.423a24.336,24.336,0,0,1-.076-3.853,14.546,14.546,0,0,0,1.543.138C193.6,410.066,194.652,418.86,194.652,418.86Z" transform="translate(-119.106 -308.95)" fill="#e5461c"/>
  <path id="Path_672" data-name="Path 672" d="M192.526,422.269a17.368,17.368,0,0,1-.273-2.015,1.952,1.952,0,0,0-.748-1.236c-.153-.138-.306-.273-.462-.408A16.674,16.674,0,0,1,189.326,417a12.772,12.772,0,0,1-1.541-2.2,8.289,8.289,0,0,0-1.187-1.867l-.022-.024a5.413,5.413,0,0,0-1.458-1,3.942,3.942,0,0,0-2.748,1.283,2.117,2.117,0,0,0-.295.359c-2.865.584-9.817.1-11.043.075.409,1.869-1.028,5.942,0,7.545.715-.047,10.807-2.653,11.447-2.415.209-.049.419-.091.63-.12,1.489-.2,2.157.975,3.072,1.991.217.238,1.973,1.905,1.789,2.248a1.162,1.162,0,0,0-.129.526,1.013,1.013,0,0,0,1.028,1,.943.943,0,0,0,.541-.18l.009.018a1.046,1.046,0,0,0,.633.471,1.031,1.031,0,0,0,.757-.111,1.8,1.8,0,0,0,.437-.433.929.929,0,0,0,1.582-.493c.025-.135.049-.273.069-.413A6.021,6.021,0,0,1,192.526,422.269Z" transform="translate(-135.959 -301.436)" fill="#ffdcc0"/>
  <path id="Path_673" data-name="Path 673" d="M171.082,390.068c-.126.784-.517,1.527-.564,2.324a2.407,2.407,0,0,1,.2.329,10.47,10.47,0,0,0,.688,1.223,3.513,3.513,0,0,1,.322.433l0,.005a10.169,10.169,0,0,0,.8.81c.036.035.2.166.308.257.064.046.122.087.147.1a9.282,9.282,0,0,0,1.023.6c.158.08.337.138.49.229l-.124-.073c-.251-.095-.522-.3,0,0l.029.013a9.475,9.475,0,0,0,1.023.288c.049.011.215.036.344.058l.1.009a7.682,7.682,0,0,0,1.043,0c.413-.136.464-.1.342-.056.025,0,.051-.009.076-.015.166-.038.331-.084.495-.133.067-.022.322-.126.426-.162l.011-.005c.182-.095.36-.195.533-.3a1.407,1.407,0,0,0,.12-.087.722.722,0,0,1,.244-.18c.189-.177.531-.712.743-.79.129-.191.251-.388.366-.588.1-.184.193-.373.291-.557l.035-.062.025-.073c-.044-.486-.093-.974-.146-1.46-.369-3.43-.914-6.85-1.088-10.3a3.926,3.926,0,0,0-1.658-1.363,4.019,4.019,0,0,0-2.863-.5h-.025a3.709,3.709,0,0,0-3.749,3.521C170.975,385.709,171.424,387.947,171.082,390.068Z" transform="translate(-136.071 -327.626)" fill="#f4c7a8"/>
  <g id="Group_84" data-name="Group 84" transform="translate(24.423 61.93)">
    <path id="Path_674" data-name="Path 674" d="M182.283,388.517l.009.015.033.033c-.025-.049-.062-.116-.113-.2l.016.045C182.247,388.443,182.263,388.481,182.283,388.517Z" transform="translate(-150.906 -382.674)" fill="#2b3990"/>
    <path id="Path_675" data-name="Path 675" d="M203.341,419.077a5.4,5.4,0,0,1-1.827,3.158c-.127.115-.258.222-.395.329-.153.116-.309.229-.471.337a16.7,16.7,0,0,1-6.894,2.277,22.469,22.469,0,0,1-2.486.177c-.732.013-1.46,0-2.189-.04-1.907-.1-3.811-.34-5.716-.571-.732-.087-1.467-.173-2.2-.247l-.646-.064c-3.762-.344-7.6-.533-11.356-.728q-.767-.038-1.531-.08c-.151-.005-.3-.015-.451-.024a3.6,3.6,0,0,1-.792-.133c-.264-1.1-.517-2.206-.735-3.316q-.194-.974-.346-1.955c-.02-.131-.04-.266-.058-.4l0-.025c-.036-.38-.087-.759-.118-1.139a29.2,29.2,0,0,1-.065-4.279c.044-.73.129-1.45.217-2.177.011-.08.022-.16.029-.24.042-.273.084-.548.129-.819.431-2.6.975-5.181,1.25-7.811a14.628,14.628,0,0,1,.12-2.666l0-.005c.053-.792,1.369-1.685,1.849-2.217a8.174,8.174,0,0,0,1.776-3.312c.4-1.412-.007-6.95,1.969-7.34a14.319,14.319,0,0,1,3.2.022c.109.792,1.092,1.505,1.822,2.062a5.043,5.043,0,0,0,4.231,1.079c3.356-.823,3.041-3.476,3.1-3.7.613-.011.941.3,1.605.3a29.838,29.838,0,0,1,5.758.413c1.312.249,1.709,1.066,2.484,2.095l.095.125a12.159,12.159,0,0,1,2.371,4.22c.384,1.6.1,3.42.171,5.058.069,1.605.147,3.21.322,4.808a34.44,34.44,0,0,0,1.629,7.345,51.561,51.561,0,0,0,4.071,9.336C203.285,418.983,203.314,419.03,203.341,419.077Z" transform="translate(-165.01 -385.236)" fill="#2b3990"/>
  </g>
  <path id="Path_676" data-name="Path 676" d="M176.086,410.272c-.732-.087-1.465-.173-2.2-.247a18.888,18.888,0,0,1,1.554-7.14C175.833,405,175.839,407.668,176.086,410.272Z" transform="translate(-133.311 -308.836)" fill="#233382"/>
  <path id="Path_677" data-name="Path 677" d="M190.065,417.614a6.754,6.754,0,0,1-1.743,3.3c-.763-1.117-1.509-2.253-2.189-3.443a28.478,28.478,0,0,1-3.056-9.14c-.579-3.219-1.227-6.466-1.607-9.729a44.27,44.27,0,0,1-.167-9.829c.064-.611.124-1.261.2-1.925a12.159,12.159,0,0,1,2.371,4.22c.384,1.6.1,3.42.171,5.058.069,1.605.147,3.21.322,4.808a34.44,34.44,0,0,0,1.629,7.345A51.561,51.561,0,0,0,190.065,417.614Z" transform="translate(-127.395 -321.985)" fill="#233382"/>
  <path id="Path_678" data-name="Path 678" d="M168.9,417.774c.076.315.162.628.253.939q-.767-.038-1.531-.08c-.151-.005-.3-.015-.451-.024a3.6,3.6,0,0,1-.792-.133c-.264-1.1-.517-2.206-.735-3.316q-.194-.974-.346-1.955c-.02-.131-.04-.266-.058-.4l0-.025c-.036-.38-.087-.759-.118-1.139a29.2,29.2,0,0,1-.065-4.279c.044-.73.129-1.45.217-2.177.011-.08.022-.16.029-.24.042-.273.084-.548.129-.819.431-2.6.975-5.181,1.25-7.811a21.827,21.827,0,0,0,.122-2.672,4.741,4.741,0,0,1,1.147-1.456q.377-.426.73-.87a21.727,21.727,0,0,1,.446,2.528,32.266,32.266,0,0,1-.48,9.087c-.051.331-.1.661-.147.992q-.011.063-.016.109l0,.025-.055.455c-.071.6-.133,1.2-.182,1.8-.109,1.31-.171,2.624-.171,3.942a38.867,38.867,0,0,0,.209,4.088c.022.2.044.395.069.591l.005.033c.044.3.091.6.146.9Q168.672,416.832,168.9,417.774Z" transform="translate(-140.587 -318.316)" fill="#233382"/>
  <g id="Group_86" data-name="Group 86" transform="translate(0 0)">
    <path id="Path_679" data-name="Path 679" d="M215.581,381.529c-.015-1.9.126-3.795-.071-5.689a33.586,33.586,0,0,0-1.52-6.725c-2-6.246-6.224-12.344-12.43-14.969a16.6,16.6,0,0,0-3.123-.97,15.83,15.83,0,0,0-1.407-.75c-4.4-2.049-9.746-1.2-14.193.247a22.888,22.888,0,0,0-4.16,1.753c-.477.268-.945.546-1.42.817a4.926,4.926,0,0,1,.186-2.4c.268-.823-.977-1.352-1.248-.522a6.6,6.6,0,0,0-.306,2.886c-.16,0-.32,0-.48.011l-.269-.056c-1.612-.349-3.238-1.252-4.921-.892-.844.182-.677,1.525.177,1.343a4,4,0,0,1,1.86.1c-1.491.288-3,.442-4.486.735a26.17,26.17,0,0,0-8.5,3.26,14.925,14.925,0,0,0-5.807,5.909,15.7,15.7,0,0,0-1.5,8.266,27.726,27.726,0,0,0,4.532,13.6c.069.1.146.2.217.3l.029.016a2.4,2.4,0,0,1,.846,2.772.455.455,0,0,0-.424.513c.286,3.549.934,7.056,1.092,10.615.153,3.469,0,7.354-2.175,10.237a.545.545,0,0,0,.195.741c8.774,4.435,21.395-.379,30.243-2.093,1.147-.222,2.3-.406,3.465-.53.622-.065,1.245-.1,1.869-.111.364-.009.73-.013,1.094-.015.717-.005,1.436,0,2.153-.024a63.467,63.467,0,0,0,14.37-2.208c.076-.02.151-.04.227-.062l.038-.042c.337-.462.655-.943.952-1.434a32.633,32.633,0,0,0,3.918-11.691,39.158,39.158,0,0,0,.251-11.735A1.064,1.064,0,0,1,215.581,381.529ZM181.8,354.478a28.383,28.383,0,0,1,7.622-1.805,15.806,15.806,0,0,1,4.688.2c-1.272.055-2.542.2-3.8.335-2.857.311-5.694.752-8.517,1.272Zm-27.375,12.617a11.623,11.623,0,0,0-.559,1.117c.066-.209.133-.419.211-.628,1.3-3.52,4.217-6.038,7.565-7.7A21.3,21.3,0,0,0,154.422,367.095Zm4.923,35c-.024-.679-.066-1.356-.122-2.031l.027.2a37.69,37.69,0,0,1-.237,12.162,8.347,8.347,0,0,1-1.654-.433C159.235,409.129,159.461,405.422,159.344,402.1Zm53.7-15.307c-.046-.035-.093-.066-.14-.095a2.739,2.739,0,0,0-2.173-.411,1.329,1.329,0,0,0-1.107,1.441c.018.288.049.571.091.852.016.111.033.22.053.329a1.263,1.263,0,0,0-.169.156,1.283,1.283,0,0,0-.322.673,6.575,6.575,0,0,0-.08.923c-.013.4,0,.8.024,1.192a1.3,1.3,0,0,0-1.521.244,1.243,1.243,0,0,0-.251.384c-.038.091-.075.182-.106.273a5.682,5.682,0,0,0-.275,1.893c0,.153.005.306.013.459.024.664.087,1.334.078,2.007l0,.047a9.063,9.063,0,0,1-1.1,1.787l-.075.093c-.073.091-.151.178-.233.266-1.161,1.261-2.937,2.293-3.793,3.916-2.466.149-4.956.06-7.414.378a66.432,66.432,0,0,0-6.69,1.343c-2.22.526-4.466.952-6.681,1.5-.892.222-1.8.524-2.69.8-.295.093-.584.184-.872.268a1.4,1.4,0,0,0-1.449-.076,1.238,1.238,0,0,0-.351.315,1.211,1.211,0,0,0-.127.209l-.062.009a4.043,4.043,0,0,1-.733-1.014,1.39,1.39,0,0,0-2.051-.457l-.031-.015a.627.627,0,0,0-.109-.044,1.391,1.391,0,0,0-1.292.253c-.087-.213-.171-.426-.257-.641-.02-.049-.04-.1-.058-.147a1.353,1.353,0,0,0-.235-.4,1.2,1.2,0,0,0-1.489-.215c-.046.026-.091.051-.133.08a1.318,1.318,0,0,0-.546.712,24.685,24.685,0,0,0-1.288-2.75c-.156-.284-.318-.568-.484-.846a1.3,1.3,0,0,0-2.137.147,1.142,1.142,0,0,0-.147.329,1.01,1.01,0,0,0-.005.479l.007.035c.005.026.011.053.018.076A21.982,21.982,0,0,1,163.419,401a1.191,1.191,0,0,0-.575-.662,10.83,10.83,0,0,0-.786-2.033q-.055-.513-.1-1.021c-.082-.835-.158-1.667-.217-2.5a2.084,2.084,0,0,0-1.416-1.714,2.2,2.2,0,0,0-.43-.1l-.022-.086c-.007-.036-.018-.075-.027-.111-.149-.588-.324-1.168-.511-1.742-.02-.066-.044-.131-.067-.2a2.25,2.25,0,0,0,1.259.146,2.618,2.618,0,0,0,2.211-2.885c-.044-.364-.082-.728-.107-1.094-.013-.222-.026-.442-.031-.662,0-.038,0-.238,0-.353s.007-.257.009-.286c.005-.186.016-.371.029-.557.025-.408.065-.813.116-1.221.093-.742.226-1.481.391-2.211.042-.184.086-.366.131-.55.022-.087.049-.187.066-.246q.156-.538.333-1.068a28.659,28.659,0,0,1,1.836-4.264c.146-.278.3-.553.453-.826.036-.062.127-.215.156-.26.1-.158.195-.315.293-.471.429-.677.89-1.334,1.37-1.975a2.673,2.673,0,0,0-.033-3.187c1.419-1,2.879-1.94,4.371-2.814a1.634,1.634,0,0,0,.693-.757c1.86-1.1,3.713-2.209,5.472-3.461a1.239,1.239,0,0,0,.4-.446,5.987,5.987,0,0,0,1.791,1.853c.233.162.473.311.717.459a6.765,6.765,0,0,0,2.317,1.458,20.9,20.9,0,0,0,4,1.174,13.016,13.016,0,0,0,6.022-.291l.149.036a1.152,1.152,0,0,0,1.156-.459l.011,0c.419.033.833.078,1.247.144a1.133,1.133,0,0,0,1.172-.473c.235.06.47.118.7.173a5.61,5.61,0,0,1,2.238.653,1.19,1.19,0,0,0,.883.271c.242.153.471.291.662.408.921.559,1.864,1.077,2.81,1.589l.511.278a1.141,1.141,0,0,0,.3.877,22.156,22.156,0,0,0,2.588,2.26c.888.777,1.46,1.858,2.295,2.692a1.676,1.676,0,0,0,.684.428c.493,1.578.886,3.185,1.221,4.764.44,2.075.728,4.188,1.107,6.279l0,.022A1.327,1.327,0,0,0,213.041,386.788Z" transform="translate(-151.33 -351.207)" fill="#f2c34c"/>
    <path id="Path_680" data-name="Path 680" d="M154.907,366.381l0,.04,0,.007,0-.011Z" transform="translate(-148.874 -338.765)" fill="#603913"/>
    <path id="Path_681" data-name="Path 681" d="M191.975,367.982a2.613,2.613,0,0,0-2.213,2.885c.193,1.37.431,2.735.577,4.111q.1.966.126,1.935c-.007.164-.011.331-.022.495-.02.322-.053.642-.1.963-.013.093-.027.186-.042.278-.1.662-.235,1.319-.389,1.971-.06.255-.126.506-.189.759-.009.033-.018.066-.025.1l-.009.04-.015.047c-.062.2-.116.4-.177.606-.346,1.145-.728,2.279-1.108,3.411l-.182.544a20.114,20.114,0,0,1-1.261,3.132c-.038.071-.122.187-.16.273-.12.18-.237.364-.362.541a11.74,11.74,0,0,1-.89,1.1c-.025.027-.065.08-.109.133a.521.521,0,0,0-.053.044c-.177.166-.357.333-.539.493-.411.355-.839.688-1.281,1s-.921.624-1.39.921l-.018.009c-.091.042-.177.1-.266.14-.295.151-.6.286-.9.408-.6.235-1.254.34-1.829.613-.08.038-.155.084-.229.127a3.471,3.471,0,0,0-2.885-.067c-.093-.026-.133-.035-.022.011l-.035.016a2.76,2.76,0,0,0-1.525.087l-.155-.153a2,2,0,0,0-.806-.466c-.147.6-.282,1.2-.422,1.805.473-.036.948-.058,1.423-.069.364-.009.73-.013,1.094-.015.717-.005,1.436,0,2.153-.024q2.542-.071,5.068-.377c.131-.016.262-.033.395-.051q.652-.085,1.3-.182,1.878-.287,3.745-.682a20.372,20.372,0,0,0,1.64-2.3,31.349,31.349,0,0,0,3.636-10.024,71.812,71.812,0,0,0,1.025-12.386.873.873,0,0,1,.147-.457A2.51,2.51,0,0,0,191.975,367.982Z" transform="translate(-133.979 -337.483)" fill="#eab02f"/>
    <path id="Path_682" data-name="Path 682" d="M182.721,392.622c-4.885.943-9.627,2.552-14.647,3q-2.329.21-4.666.238c-.013-.14-.027-.286-.046-.444-.113-1-.289-1.982-.493-2.961a38.038,38.038,0,0,0-1.414-5.312q-.3-.816-.619-1.632c-.575-1.47-1.192-2.934-1.813-4.382-.264-.619-.548-1.221-.859-1.811-.149-.284-.306-.566-.466-.844a8.255,8.255,0,0,1-1.152-2.97,1.957,1.957,0,0,1-.015-.4,2.162,2.162,0,0,1,1.82-1.955,2.123,2.123,0,0,1,2.353,1.805c.036.178.042.24.02.187.035.1.071.2.111.3.084.208.182.409.284.608.207.4.442.786.666,1.177a24.881,24.881,0,0,1,1.343,2.844c.841,2.038,1.745,4.077,2.446,6.168l.027.089a2.136,2.136,0,0,1,1.112-.313,2.114,2.114,0,0,1,2.073,1.8c.04.218.078.435.113.655l.018.113c.029-.024.06-.047.091-.069a2.178,2.178,0,0,1,1.541-.384,2.09,2.09,0,0,1,1.514,1.043,2.1,2.1,0,0,1,2.621.1,1.75,1.75,0,0,1,.237.306c.209.344.393.693.568,1.047a2.087,2.087,0,0,1,1.538-.049,1.708,1.708,0,0,1,1.978-.222,5.04,5.04,0,0,1,1.23.928,2.871,2.871,0,0,1,1.392.238A2.039,2.039,0,0,1,182.721,392.622Z" transform="translate(-147.541 -333.238)" fill="#eab02f"/>
    <path id="Path_683" data-name="Path 683" d="M181.686,375.417a3.371,3.371,0,0,1,1.1-2.8,3.135,3.135,0,0,1,1.112-3.065c2.146-1.762,4.786-4.4,7.769-2.663a4.886,4.886,0,0,1,1.864,6.013,8.309,8.309,0,0,1-3.98,3.709,12.224,12.224,0,0,1-4.375,1.487A3.156,3.156,0,0,1,181.686,375.417Z" transform="translate(-126.925 -338.815)" fill="#f4c7a8"/>
    <path id="Path_684" data-name="Path 684" d="M184.1,370.413s4.959-2.75,4.746-1.259-3.918,4.437-4.426,3.685A4.709,4.709,0,0,1,184.1,370.413Z" transform="translate(-124.963 -336.855)" fill="#e5a980"/>
    <path id="Path_685" data-name="Path 685" d="M164.713,377.424A3.37,3.37,0,0,0,162.923,375a3.133,3.133,0,0,0-1.867-2.672c-2.53-1.147-5.764-3.008-8.2-.559a4.886,4.886,0,0,0-.242,6.29,8.312,8.312,0,0,0,4.806,2.552,12.238,12.238,0,0,0,4.61.3A3.154,3.154,0,0,0,164.713,377.424Z" transform="translate(-151.59 -335.333)" fill="#f4c7a8"/>
    <path id="Path_686" data-name="Path 686" d="M158.279,373.614s-5.5-1.372-4.912.015,4.934,3.27,5.23,2.411A4.7,4.7,0,0,0,158.279,373.614Z" transform="translate(-150.169 -333.332)" fill="#e5a980"/>
    <path id="Path_687" data-name="Path 687" d="M208.262,385.332a33.492,33.492,0,0,1-2.362,6.717,19.47,19.47,0,0,1-2.242,3.6l-.007.009a25.78,25.78,0,0,1-10.683,7.7c-.146.06-.293.118-.439.176a22.292,22.292,0,0,1-2.43.788h0c-7.951,2.087-18.541.821-25.124-4.313a27.27,27.27,0,0,1-10.146-18.547,25.621,25.621,0,0,1-.135-2.613c0-3.463,1.984-7.121,4.433-10.019a24.411,24.411,0,0,1,3.181-3.148,32.268,32.268,0,0,1,14-6.277c.6-.122,1.2-.229,1.8-.32a37.943,37.943,0,0,1,14.279.4c.51.122,1.017.257,1.52.408a23.234,23.234,0,0,1,11.34,7.2c.411.5.8,1.014,1.168,1.556.044.064.086.127.127.191C209.545,373.43,209.6,379.7,208.262,385.332Z" transform="translate(-149.046 -345.152)" fill="#ffdcc0"/>
    <path id="Path_688" data-name="Path 688" d="M192.311,380.8a33.492,33.492,0,0,1-2.362,6.717,19.47,19.47,0,0,1-2.242,3.6l-.007.009a29.431,29.431,0,0,1-10.683,7.7c-.146.06-.293.118-.439.176a22.292,22.292,0,0,1-2.43.788c.016-.664,2.754-2.095,3.232-2.431a33.781,33.781,0,0,0,4.428-3.485c6.961-6.821,9.995-17.211,9-26.787-.1-.992-.217-1.984-.346-2.97.044.064.086.127.127.191C193.594,368.9,193.646,375.172,192.311,380.8Z" transform="translate(-133.095 -340.624)" fill="#f4c7a8"/>
    <path id="Path_689" data-name="Path 689" d="M167.34,375.3c.315,2.389-1.783,4.637-4.688,5.019s-5.514-1.243-5.829-3.633,1.785-4.637,4.69-5.019S167.025,372.912,167.34,375.3Z" transform="translate(-147.325 -334.475)" fill="#ffb0b0"/>
    <path id="Path_690" data-name="Path 690" d="M188.294,372.541c.315,2.39-1.785,4.637-4.69,5.019s-5.514-1.245-5.829-3.633,1.785-4.637,4.69-5.019S187.979,370.151,188.294,372.541Z" transform="translate(-130.146 -336.739)" fill="#ffb0b0"/>
    <path id="Path_691" data-name="Path 691" d="M168.87,373.594s1.829-5.059,5.352-.706Z" transform="translate(-137.422 -334.879)" fill="#f4c7a8"/>
    <path id="Path_692" data-name="Path 692" d="M169.678,381.852a18.594,18.594,0,0,1,7.942-1.046A18.428,18.428,0,0,1,169.678,381.852Z" transform="translate(-136.76 -327.02)" fill="#f4c7a8"/>
    <path id="Path_693" data-name="Path 693" d="M175.627,365.076a6.785,6.785,0,0,1,3.107-.586,5.612,5.612,0,0,1,3,.724c.575.386.069,1.341-.51.955a5.79,5.79,0,0,0-5.032-.171C175.574,366.3,175,365.385,175.627,365.076Z" transform="translate(-132.104 -340.317)" fill="#603913"/>
    <path id="Path_694" data-name="Path 694" d="M165.908,366.476a6.761,6.761,0,0,0-3.152.238,5.607,5.607,0,0,0-2.713,1.478c-.455.52.284,1.312.741.788a5.792,5.792,0,0,1,4.817-1.467C166.277,367.648,166.592,366.612,165.908,366.476Z" transform="translate(-144.777 -338.766)" fill="#603913"/>
    <g id="Group_85" data-name="Group 85" transform="translate(23.483 40.316)">
      <path id="Path_695" data-name="Path 695" d="M175.382,373.36a.152.152,0,0,0-.047.015l.027-.007Z" transform="translate(-155.604 -373.36)" fill="#603913"/>
      <path id="Path_696" data-name="Path 696" d="M186.663,374.509a1.887,1.887,0,0,0-.453-.062,1.929,1.929,0,0,1-.757-.12,3.384,3.384,0,0,1-.722-.668c-.834-.764-1.1.339-.681.965s.844.8.351,1.6c-.7,1.128-2.346,1.784-3.509,2.3-4.277,1.893-8.615,1.685-12.983.346-.517-.158-1.052-.517-1.1-1.054a5.076,5.076,0,0,1,.035-.6.578.578,0,0,0-.224-.524.511.511,0,0,0-.666.257c-.415.793-.222,1.583-1.194,2.1-.533.284-.171,1.161.369.872a3.238,3.238,0,0,0,1.021-.872c-.058.073,3.815,1.429,4.188,1.511a17.347,17.347,0,0,0,4.588.369,17.839,17.839,0,0,0,6.413-1.551c1.742-.793,3.882-1.965,4.322-4.011.38.078,2.3.071,1.285-.726A.816.816,0,0,0,186.663,374.509Z" transform="translate(-164.493 -373.327)" fill="#603913"/>
    </g>
    <path id="Path_697" data-name="Path 697" d="M208.9,370.436c-.824-.868-1.587-1.805-2.488-2.588a10.39,10.39,0,0,0-1.174-.868c-.666-.428-1.37-.8-2.066-1.177-4.464-2.428-9.4-1.5-14.212-1.048a47.654,47.654,0,0,1-8.106.073c-1.423-.111-3.2-.166-4.428-1.036A11.6,11.6,0,0,1,174,365.21c-2.439,1.148-5.081,1.631-7.554,2.668a26.586,26.586,0,0,0-6.961,3.774c-2.646,2.222-3.922,6.191-4.5,9.495l-.053.16c-.035.016-.069.029-.106.044a25.621,25.621,0,0,1-.135-2.613c0-3.463,1.984-7.121,4.433-10.019a31.837,31.837,0,0,1,5.076-2.661,34.392,34.392,0,0,1,4.158-1.538,29.961,29.961,0,0,0,4.035-1.4c.078-.035.156-.071.235-.107a1.248,1.248,0,0,1,.277-.6,23.414,23.414,0,0,1,3.4-3.123c.111-.091.22-.184.329-.277a1.127,1.127,0,0,1,1.472-.044,1.433,1.433,0,0,1,.573,1.163c2.719-.013,5.438-.053,8.157-.076,2.366-.02,4.708-.169,7.069-.278.095-.005.191-.011.286-.015a18.156,18.156,0,0,1,7.167.733c2.058.77,3.673,2.329,5.316,3.727.426.36.846.717,1.256,1.085a8.3,8.3,0,0,0,.7,4.439C208.719,369.98,208.81,370.209,208.9,370.436Z" transform="translate(-149.046 -345.047)" fill="#f4c7a8"/>
    <path id="Path_698" data-name="Path 698" d="M212.036,374.748c.158.2-.076-.229-.086-.26-.075-.253-.124-.515-.186-.77a14.748,14.748,0,0,0-.65-2.051,10.631,10.631,0,0,0-.894-1.707,1.157,1.157,0,0,0,.135-.089,1.309,1.309,0,0,0,.227-1.8,20.719,20.719,0,0,0-4.512-4.8,11.772,11.772,0,0,0-1.807-1.165c-1.594-2.195-5.041-2.784-7.554-2.845a30.845,30.845,0,0,0-6.058.639c-.258.044-.524.091-.793.14-1.982.346-4.153.67-6.018-.137a11.612,11.612,0,0,1-3.527-2.723c-.435-.444-.861-.894-1.288-1.314a.918.918,0,0,0-.395-.226,1.349,1.349,0,0,0-.906-.741l0,0a1.041,1.041,0,0,0-.424,0,3.641,3.641,0,0,0-1.78,1.023c-.2.182-.393.373-.6.562-.129.12-.264.237-.406.351-.945.763-2,1.372-3.008,2.049-2.224,1.494-4.415,3.043-6.621,4.564-2,1.383-4.095,2.646-6.077,4.058a11.344,11.344,0,0,0-2.53,2.335,25.972,25.972,0,0,0-1.865,3.181,1.294,1.294,0,0,0,.686,1.683c.036.015.073.027.109.04-.109.175-.215.353-.318.535a10.875,10.875,0,0,0-1.541,5.452,2.665,2.665,0,0,1,.855,1.569l.016.093.038-.007a2.582,2.582,0,0,1,.579-.007c.653-2.477,2.056-6.939,5.343-9.445.278-.237.566-.464.859-.682a32.271,32.271,0,0,1,5.2-2.961c1.023-.242,2.009-.8,3.014-1.137a28.666,28.666,0,0,0,5.281-2.4,8.607,8.607,0,0,0,2.249-1.942c.106.091.215.182.324.268a7.471,7.471,0,0,0,.753.522c.08.047.16.1.24.142a11.656,11.656,0,0,0,5.209,1.882,29.841,29.841,0,0,0,5.962-.258c5.8-.675,11.021-1.036,15.9,2.717A8.468,8.468,0,0,1,207.685,372c.7,1.429.992,3.014,1.658,4.453a1.245,1.245,0,0,0,1.691.451,2.148,2.148,0,0,0,.5-.268c.036-.027.073-.055.106-.084A1.264,1.264,0,0,0,212.036,374.748Z" transform="translate(-150.152 -348.204)" fill="#eab02f"/>
    <path id="Path_699" data-name="Path 699" d="M207.559,368.842c-1.536-2.4-3.159-5.023-5.693-6.47a17.36,17.36,0,0,0-3.833-1.465,18.408,18.408,0,0,0-4.149-.753c-1.549-.087-3.114-.016-4.672-.02a21.033,21.033,0,0,1-4-.318,13.835,13.835,0,0,1-4.2-1.709c-.451-.262-.914-.531-1.349-.832a7.789,7.789,0,0,1-.641-.488c-.611-.519-1.125-1.139-1.745-1.649a1.855,1.855,0,0,0-.206-.146,1.34,1.34,0,0,0-.854-.2,1.473,1.473,0,0,0-1.9,1.243c-.022.177-.038.355-.047.535a9.761,9.761,0,0,1-.437,3.582,8.843,8.843,0,0,1-2.353,2.875,55.025,55.025,0,0,1-7.382,4.815,25.252,25.252,0,0,0-6.739,5.756,16.162,16.162,0,0,0-2.728,4.765c-.488,1.456-1.016,4.224.488,5.31a11.389,11.389,0,0,1,.024-2.353,7.1,7.1,0,0,1,.34-2.129,10.392,10.392,0,0,1,5.582-6.282c2.608-1.143,5.5-1.414,8.12-2.542a12.552,12.552,0,0,0,6.7-6.188c.082-.095.164-.189.242-.284.106.091.215.182.324.268.042-.106.084-.213.122-.32a9.942,9.942,0,0,0,.872.985,11.656,11.656,0,0,0,5.209,1.882,29.841,29.841,0,0,0,5.962-.258c5.8-.675,11.021-1.036,15.9,2.717a8.468,8.468,0,0,1,2.513,2.928c.7,1.429.992,3.014,1.658,4.453a1.245,1.245,0,0,0,1.691.451,2.148,2.148,0,0,0,.5-.268A20.345,20.345,0,0,0,207.559,368.842Zm-39.963.7c-1.54.557-3.161.823-4.741,1.234A14.941,14.941,0,0,0,165,369.67a37.524,37.524,0,0,1,3.6-1.425,29.468,29.468,0,0,0,4-1.7A14.057,14.057,0,0,1,167.6,369.546Z" transform="translate(-149.506 -348.304)" fill="#eab02f"/>
    <path id="Path_700" data-name="Path 700" d="M213,376.447l-1.27.857c-.149.1-.315.211-.5.337-3.543-10.259-11.194-19.819-35.155-15.027-22.656,4.532-20.015,21.786-20.015,21.786l-1.654-.224a21.951,21.951,0,0,1-1.127-4.952c-.846-7.158.812-19.984,22.015-24.059,30.922-5.94,36.485,11.857,37.486,18.71A18.374,18.374,0,0,1,213,376.447Z" transform="translate(-150.345 -348.941)" fill="#f15a29"/>
    <path id="Path_701" data-name="Path 701" d="M194.389,374.161l-1.27.857c-.146-1.1-3.6-14.8-17.318-18.245,0,0,10.55-1.006,17.531,13.1q.445.9.839,1.718A18.374,18.374,0,0,1,194.389,374.161Z" transform="translate(-131.739 -346.655)" fill="#e5461c"/>
    <path id="Path_702" data-name="Path 702" d="M165.137,358.881c-12.31,5.991-10.81,21.269-10.81,21.269A21.951,21.951,0,0,1,153.2,375.2C154.037,366.186,160.349,359.03,165.137,358.881Z" transform="translate(-150.27 -344.915)" fill="#e5461c"/>
    <path id="Path_703" data-name="Path 703" d="M161.955,370.9a1.544,1.544,0,1,0,1.292-1.762A1.543,1.543,0,0,0,161.955,370.9Z" transform="translate(-143.106 -336.516)" fill="#231f20"/>
    <path id="Path_704" data-name="Path 704" d="M161.13,370.132c.053.324.728.573.979.661.035.013.1.033.169.055a3.326,3.326,0,0,1-.875-2.2c-.02-.608.926-.672.945-.062.018.593.7,2.377,1.594,1.933.535-.266.719.28.193.557a.4.4,0,0,1-.078.264c-.87,1.279-3.647.229-3.873-1.147C160.085,369.592,161.031,369.535,161.13,370.132Z" transform="translate(-144.55 -337.306)" fill="#231f20"/>
    <path id="Path_705" data-name="Path 705" d="M179.185,368.634a1.544,1.544,0,1,1-1.705-1.367A1.546,1.546,0,0,1,179.185,368.634Z" transform="translate(-131.489 -338.046)" fill="#231f20"/>
    <path id="Path_706" data-name="Path 706" d="M180.165,367.638c.033.326-.555.743-.775.894-.031.02-.084.055-.149.095a3.322,3.322,0,0,0,.277-2.349c-.14-.593-1.068-.408-.928.186.135.577-.066,2.477-1.039,2.28-.586-.118-.622.455-.044.588a.408.408,0,0,0,.144.233c1.172,1.012,3.582-.722,3.443-2.111C181.033,366.846,180.1,367.037,180.165,367.638Z" transform="translate(-130.682 -339.149)" fill="#231f20"/>
  </g>
  <path id="Path_707" data-name="Path 707" d="M165.908,391.537s.135-2.821,2.637-3.494C168.953,390.072,165.908,391.537,165.908,391.537Z" transform="translate(-139.851 -321.005)" fill="#f4c7a8"/>
</svg>
