<svg xmlns="http://www.w3.org/2000/svg" width="21.289" height="21.29" viewBox="0 0 21.289 21.29">
  <path id="Icon_ionic-ios-person" data-name="Icon ionic-ios-person" d="M25.779,25.252c-.4-1.763-2.678-2.622-3.465-2.9a25.835,25.835,0,0,0-2.889-.554,2.935,2.935,0,0,1-1.336-.615A11.677,11.677,0,0,1,18,18.449a8.224,8.224,0,0,0,.632-1.2,15.518,15.518,0,0,0,.466-2.1s.455,0,.615-.8a7.855,7.855,0,0,0,.41-1.857c-.033-.638-.383-.621-.383-.621a9.72,9.72,0,0,0,.377-2.844c.05-2.279-1.735-4.524-4.968-4.524-3.277,0-5.023,2.245-4.973,4.524a10.139,10.139,0,0,0,.371,2.844s-.349-.017-.383.621a7.855,7.855,0,0,0,.41,1.857c.155.8.615.8.615.8a15.518,15.518,0,0,0,.466,2.1,8.224,8.224,0,0,0,.632,1.2,11.677,11.677,0,0,1-.089,2.733,2.935,2.935,0,0,1-1.336.615,25.835,25.835,0,0,0-2.889.554c-.787.277-3.066,1.137-3.465,2.9a.443.443,0,0,0,.438.538h20.4A.442.442,0,0,0,25.779,25.252Z" transform="translate(-4.501 -4.5)" fill="#0db7c5"/>
</svg>
