<svg xmlns="http://www.w3.org/2000/svg" width="20.28" height="20.28" viewBox="0 0 20.28 20.28">
  <path id="Icon_material-help-outline" data-name="Icon material-help-outline" d="M12.126,19.224h2.028V17.2H12.126ZM13.14,3A10.14,10.14,0,1,0,23.28,13.14,10.144,10.144,0,0,0,13.14,3Zm0,18.252a8.112,8.112,0,1,1,8.112-8.112A8.123,8.123,0,0,1,13.14,21.252Zm0-14.2a4.055,4.055,0,0,0-4.056,4.056h2.028a2.028,2.028,0,0,1,4.056,0c0,2.028-3.042,1.775-3.042,5.07h2.028c0-2.282,3.042-2.535,3.042-5.07A4.055,4.055,0,0,0,13.14,7.056Z" transform="translate(-3 -3)" fill="#0db7c5"/>
</svg>
