<svg xmlns="http://www.w3.org/2000/svg" width="22.72" height="17.558" viewBox="0 0 22.72 17.558">
  <path id="Path_4927" data-name="Path 4927" d="M1670.913,5072.248l-5.271-5.663,1.612-1.608a1.466,1.466,0,0,0-2.073-2.074h0l-2.2,2.2h-.831v-1.683a.439.439,0,0,0-.439-.439h-2.346v-.361a.439.439,0,0,0-.879,0v.361h-1.617v-.361a.439.439,0,0,0-.878,0v.361h-1.665v-.361a.439.439,0,0,0-.879,0v.361h-1.616v-.361a.439.439,0,0,0-.879,0v.361h-2.2a.439.439,0,0,0-.439.439V5079.3a.439.439,0,0,0,.439.44h4.525a.439.439,0,0,0,0-.879H1649.2v-15h1.731v.4a.439.439,0,1,0,.879,0v-.4h1.638v.4a.439.439,0,1,0,.879,0v-.4h1.621v.4a.439.439,0,1,0,.879,0v-.4h1.616v.4a.439.439,0,1,0,.879,0v-.4h1.907v1.261a3.208,3.208,0,0,0-2.069.936l-3.264,3.264a.444.444,0,0,0-.129.362.436.436,0,0,0,.2.323,3,3,0,0,0,1.208.441,2.878,2.878,0,0,0,.439.03h0l-.505.509a.4.4,0,0,0-.088.123l-1.423,2.139a.974.974,0,0,0-.162.625h-4.02a.439.439,0,0,0,0,.879h4.99a1.016,1.016,0,0,0,.544-.173l2.162-1.471a.291.291,0,0,0,.07-.057l1.006-1,1.094,1.09v5.71h-4.059a.439.439,0,1,0,0,.878h4.5a.44.44,0,0,0,.439-.44v-5.272a3.123,3.123,0,0,0,2,.721h1.757a1.364,1.364,0,0,1,.975.412l3.378,3.594a.439.439,0,0,0,.765-.307v-5.874a.438.438,0,0,0-.119-.3Zm-11.149-5.588a2.3,2.3,0,0,1,1.626-.672h.694l-2.759,2.754a3.233,3.233,0,0,1-.826.638,2.193,2.193,0,0,1-1.551.1Zm6.049-3.137a.581.581,0,0,1,.821.821l-4.634,4.622-.22-.225a1.738,1.738,0,0,0-.76-.438Zm-9.383,10.318a.071.071,0,0,1-.105,0,.078.078,0,0,1,0-.109l1.16-1.757.681.685Zm2.421-1.733-.822-.822.843-.843a1.739,1.739,0,0,0,.439.765l.22.214Zm11.294,5.2-2.636-2.776a2.231,2.231,0,0,0-1.617-.693h-1.757a2.243,2.243,0,0,1-1.586-.655l-2.609-2.606a.849.849,0,0,1,0-1.208.881.881,0,0,1,1.2,0l2.122,2.118a.441.441,0,1,0,.624-.624l-1.269-1.273,2.389-2.382,5.131,5.51Z" transform="translate(-1648.32 -5062.18)" fill="#0db7c5"/>
</svg>
