<svg xmlns="http://www.w3.org/2000/svg" width="18.05" height="21.901" viewBox="0 0 18.05 21.901">
  <path id="Path_4921" data-name="Path 4921" d="M1662.316,4709.431a1.72,1.72,0,0,0-1.588-1.822h-.02a1.413,1.413,0,0,1-.9-1.372v-3.647a6.2,6.2,0,0,0-4.16-6.111,2.028,2.028,0,0,0,.215-.906,1.57,1.57,0,1,0-3.126,0,2.025,2.025,0,0,0,.215.906,6.209,6.209,0,0,0-4.157,6.111v3.647a1.415,1.415,0,0,1-.9,1.372h-.034a1.72,1.72,0,0,0-1.588,1.822,2.153,2.153,0,0,0,.031.361h0a1.548,1.548,0,0,0,1.5,1.454h4.546a.431.431,0,0,1,0,.062h0c0,.068,0,.138,0,.207a2.419,2.419,0,0,0,.576,1.589,1.845,1.845,0,0,0,1.389.655,1.246,1.246,0,0,0,.181,0h.188l.1-.026.087-.027a.313.313,0,0,0,.091-.035l.084-.034.087-.047.081-.042.084-.055.077-.054.074-.062.074-.061.071-.066a.6.6,0,0,0,.067-.073l.064-.074a.568.568,0,0,0,.064-.076l.057-.077.057-.089.051-.085.05-.1c0-.026.03-.054.044-.084s.027-.068.043-.1a.552.552,0,0,0,.034-.088c.01-.03.023-.073.037-.111s.017-.06.027-.089l.027-.123a.744.744,0,0,0,.017-.088.331.331,0,0,1,.02-.139v-.288h0a2.5,2.5,0,0,0,0-.277h4.547a1.547,1.547,0,0,0,1.5-1.452h0A2.172,2.172,0,0,0,1662.316,4709.431Zm-8.015-14.575a.722.722,0,1,1-.628.716.769.769,0,0,1,.184-.508A.59.59,0,0,1,1654.3,4694.855Z" transform="translate(-1645.269 -4692.861)" fill="none" stroke="#0db7c5" stroke-miterlimit="10" stroke-width="2"/>
</svg>
