<svg xmlns="http://www.w3.org/2000/svg" width="18.792" height="18.792" viewBox="0 0 18.792 18.792">
  <path id="Icon_material-language" data-name="Icon material-language" d="M12.387,3a9.4,9.4,0,1,0,9.405,9.4A9.391,9.391,0,0,0,12.387,3ZM18.9,8.638H16.126a14.7,14.7,0,0,0-1.3-3.345A7.545,7.545,0,0,1,18.9,8.638ZM12.4,4.917a13.236,13.236,0,0,1,1.795,3.721H10.6A13.236,13.236,0,0,1,12.4,4.917ZM5.123,14.275a7.35,7.35,0,0,1,0-3.758H8.3A15.518,15.518,0,0,0,8.168,12.4,15.518,15.518,0,0,0,8.3,14.275Zm.77,1.879H8.666a14.7,14.7,0,0,0,1.3,3.345A7.5,7.5,0,0,1,5.894,16.154ZM8.666,8.638H5.894A7.5,7.5,0,0,1,9.962,5.293,14.7,14.7,0,0,0,8.666,8.638ZM12.4,19.875A13.236,13.236,0,0,1,10.6,16.154h3.589A13.236,13.236,0,0,1,12.4,19.875Zm2.2-5.6H10.2a13.824,13.824,0,0,1-.15-1.879,13.7,13.7,0,0,1,.15-1.879h4.4a13.7,13.7,0,0,1,.15,1.879A13.824,13.824,0,0,1,14.595,14.275ZM14.83,19.5a14.7,14.7,0,0,0,1.3-3.345H18.9A7.545,7.545,0,0,1,14.83,19.5Zm1.663-5.224a15.518,15.518,0,0,0,.132-1.879,15.518,15.518,0,0,0-.132-1.879h3.176a7.35,7.35,0,0,1,0,3.758Z" transform="translate(-3 -3)" fill="#0db7c5"/>
</svg>
