<svg xmlns="http://www.w3.org/2000/svg" width="18.022" height="13.799" viewBox="0 0 18.022 13.799">
  <path id="Icon_awesome-sign-in-alt" data-name="Icon awesome-sign-in-alt" d="M14.643,18.016H11.686a.424.424,0,0,1-.422-.422V16.186a.424.424,0,0,1,.422-.422h2.957a1.125,1.125,0,0,0,1.126-1.126V7.879a1.125,1.125,0,0,0-1.126-1.126H11.686a.424.424,0,0,1-.422-.422V4.922a.424.424,0,0,1,.422-.422h2.957a3.38,3.38,0,0,1,3.379,3.379v6.758A3.38,3.38,0,0,1,14.643,18.016Zm-1.654-7.075L7.075,5.028a.846.846,0,0,0-1.443.6V9.005H.845A.843.843,0,0,0,0,9.85v3.379a.843.843,0,0,0,.845.845H5.632v3.379a.846.846,0,0,0,1.443.6l5.913-5.913A.852.852,0,0,0,12.988,10.941Z" transform="translate(0 -4.5)" fill="#0db7c5"/>
</svg>
