<svg id="growth_1_" data-name="growth (1)" xmlns="http://www.w3.org/2000/svg" width="32.167" height="32.169" viewBox="0 0 32.167 32.169">
  <g id="Group_100" data-name="Group 100" transform="translate(0 0)">
    <g id="Group_99" data-name="Group 99">
      <path id="Path_465" data-name="Path 465" d="M31.588,11.761h-2.94v1.176h1.521L25.12,17.986V4.588l4.832-1.073A.588.588,0,0,0,30.063,2.4L24.771.051a.588.588,0,0,0-.827.539v5.6L21.592,8.068,19.02,6.01l-.008.009a.577.577,0,0,0-.359-.138h-2.94a.574.574,0,0,0-.287.085l0-.008L11.3,8.311a.588.588,0,0,0-.294.437l-.588,4.7,1.167.146.552-4.41,2.871-1.64-.472,4.742c0,.02.006.039.006.059h-.009V18.1l-2.3,5.178a.588.588,0,0,0,.537.827h1.176V22.933h-.271l1.984-4.465a.588.588,0,0,0,.051-.239V12.937h5.652l-1.506,4.518a.579.579,0,0,0,.353.733l-6.851,6.853-3.112-3.112a.588.588,0,0,0-.831,0L.009,31.337l.831.831,8.992-8.992,3.112,3.112a.588.588,0,0,0,.831,0l7.816-7.816,1.936,1.936a.588.588,0,0,0,.831,0L31,13.769v1.521h1.176v-2.94A.588.588,0,0,0,31.588,11.761ZM25.12,1.494l2.835,1.26-2.835.63ZM17.535,11.761H15.777l.47-4.7h1.758Zm6.409,7.4-1.936-1.936a.588.588,0,0,0-.416-.172h-.36l1.506-4.518a.588.588,0,0,0-.558-.774H18.711L19.127,7.6l2.1,1.676a.588.588,0,0,0,.735,0l1.987-1.588Z" transform="translate(-0.009 0)" fill="#707070"/>
    </g>
  </g>
  <g id="Group_102" data-name="Group 102" transform="translate(15.116 0.589)">
    <g id="Group_101" data-name="Group 101">
      <path id="Path_466" data-name="Path 466" d="M209.781,8.019h-1.764a2.352,2.352,0,1,0,2.352,2.352V8.607A.588.588,0,0,0,209.781,8.019Zm-.588,2.352a1.176,1.176,0,1,1-1.176-1.176h1.176Z" transform="translate(-205.665 -8.019)" fill="#707070"/>
    </g>
  </g>
</svg>
