<svg xmlns="http://www.w3.org/2000/svg" width="24.8" height="18.577" viewBox="0 0 24.8 18.577">
  <path id="Path_11229" data-name="Path 11229" d="M449.377,72.6h16.534c.761,0,1.377-.831,1.377-1.857s-.617-1.857-1.377-1.857H449.377c-.761,0-1.377.831-1.377,1.857S448.617,72.6,449.377,72.6Zm0,7.432h16.534c.761,0,1.377-.831,1.377-1.857s-.617-1.857-1.377-1.857H449.377c-.761,0-1.377.831-1.377,1.857S448.617,80.036,449.377,80.036Zm0,7.432h16.534c.761,0,1.377-.831,1.377-1.857s-.617-1.857-1.377-1.857H449.377c-.761,0-1.377.831-1.377,1.857s.617,1.857,1.377,1.857Zm20.668,0H472.8V83.753h-2.754Zm0-18.577V72.6H472.8V68.89Zm0,11.146H472.8V76.322h-2.754Z" transform="translate(-448 -68.89)" fill="#707070"/>
</svg>
