<svg xmlns="http://www.w3.org/2000/svg" width="33.336" height="29.66" viewBox="0 0 33.336 29.66">
  <g id="abc" transform="translate(0.618 0.5)">
    <path id="Path_443" data-name="Path 443" d="M130.735,13.908H120.115a1.644,1.644,0,0,1-1.644-1.644V1.644A1.644,1.644,0,0,1,120.115,0h10.621a1.644,1.644,0,0,1,1.644,1.644V12.264A1.644,1.644,0,0,1,130.735,13.908Z" transform="translate(-109.186 0)" fill="none" stroke="#787878" stroke-width="1"/>
    <path id="Path_445" data-name="Path 445" d="M201.982,39.22a.781.781,0,0,0-1.516,0l-2.136,8.543a.781.781,0,1,0,1.516.379l.418-1.673h1.919l.418,1.673a.781.781,0,0,0,1.516-.379Zm-1.327,5.686.569-2.275.569,2.275Z" transform="translate(-184.985 -36.675)" fill="#787878"/>
    <path id="Path_446" data-name="Path 446" d="M12.264,13.908H1.644A1.644,1.644,0,0,1,0,12.264V1.644A1.644,1.644,0,0,1,1.644,0H12.264a1.644,1.644,0,0,1,1.644,1.644V12.264A1.644,1.644,0,0,1,12.264,13.908Z" transform="translate(3.834 11.297) rotate(16)" fill="none" stroke="#787878" stroke-width="1"/>
    <path id="Path_448" data-name="Path 448" d="M10.565,11.981H1.416A1.416,1.416,0,0,1,0,10.565V1.416A1.416,1.416,0,0,1,1.416,0h9.149a1.416,1.416,0,0,1,1.416,1.416v9.149A1.416,1.416,0,0,1,10.565,11.981Z" transform="matrix(0.914, -0.407, 0.407, 0.914, 16.239, 17.555)" fill="none" stroke="#787878" stroke-width="1"/>
    <path id="Path_450" data-name="Path 450" d="M3.49,0H.781A.781.781,0,0,0,0,.781V9.324a.781.781,0,0,0,.781.781H3.49A2.347,2.347,0,0,0,5.834,7.761V6.615a2.334,2.334,0,0,0-.6-1.563,2.334,2.334,0,0,0,.6-1.563V2.344A2.347,2.347,0,0,0,3.49,0ZM1.563,1.563H3.49a.782.782,0,0,1,.781.781V3.49a.782.782,0,0,1-.781.781H1.563Zm2.709,6.2a.782.782,0,0,1-.781.781H1.563V5.834H3.49a.782.782,0,0,1,.781.781Z" transform="translate(7.09 14.209) rotate(16)" fill="#787878"/>
    <path id="Path_451" data-name="Path 451" d="M4.114,7.03H2.868a1.305,1.305,0,0,1-1.3-1.3V2.868a1.305,1.305,0,0,1,1.3-1.3H4.114A.782.782,0,0,0,4.114,0H2.868A2.872,2.872,0,0,0,0,2.868V5.726A2.872,2.872,0,0,0,2.868,8.595H4.114a.782.782,0,0,0,0-1.565Z" transform="matrix(0.914, -0.407, 0.407, 0.914, 20.092, 17.693)" fill="#787878"/>
  </g>
</svg>
